<svg width="189" height="109" viewBox="0 0 189 109" fill="none" xmlns="http://www.w3.org/2000/svg">
<path d="M20.4066 48.6837C20.4066 49.7666 20.0658 50.6543 19.395 51.3365C18.7242 52.0186 17.8512 52.3652 16.7865 52.3652H4.28663C3.22188 52.3652 2.34866 52.0186 1.67787 51.3365C1.00709 50.6543 0.666504 49.7666 0.666504 48.6837V6.41421C0.666504 5.33153 1.00709 4.44371 1.67787 3.76159C2.34866 3.07947 3.22188 2.73291 4.28663 2.73291H16.7865C17.8512 2.73291 18.7242 3.07947 19.395 3.76159C20.0658 4.44371 20.4066 5.33153 20.4066 6.41421V17.8045H16.0625V6.63073H5.01058V48.4673H16.0625V31.3168H10.824V27.4841H20.4066V48.6837ZM48.9096 52.3652H44.3739L35.3021 25.7733L35.8984 24.8854H43.6074V6.63073H32.4913V52.3652H28.1472V2.73291H44.3309C45.3957 2.73291 46.2687 3.07947 46.9395 3.76159C47.6104 4.44371 47.9512 5.33153 47.9512 6.41421V24.9721C47.9512 27.43 46.3756 28.6534 43.2133 28.6534C42.9043 28.6534 42.4463 28.6426 41.8396 28.6101C41.2434 28.5776 40.8069 28.556 40.53 28.556C43.3407 36.4707 46.1305 44.407 48.9096 52.3652ZM71.45 52.3652H55.4148V2.73291H71.2581V6.63073H59.7591V25.1454H70.2357V29.1081H59.7591V48.4673H71.45V52.3652ZM94.2564 52.3652H78.2218V2.73291H94.0645V6.63073H82.5656V25.1454H93.0427V29.1081H82.5656V48.4673H94.2564V52.3652ZM121.151 52.3652H118.159L105.117 15.8663V52.3652H101.028V2.73291H104.276L117.063 38.6036V2.73291H121.151V52.3652Z" fill="white"/>
<path d="M20.7862 101.758C20.7862 102.858 20.4539 103.759 19.7896 104.452C19.1355 105.145 18.2842 105.497 17.2564 105.497H4.19632C3.15813 105.497 2.30668 105.145 1.65266 104.452C0.998592 103.759 0.666504 102.858 0.666504 101.758V58.8279C0.666504 57.7286 0.998592 56.8267 1.65266 56.1341C2.30668 55.441 3.15813 55.089 4.19632 55.089H17.2564C18.2842 55.089 19.1355 55.441 19.7896 56.1341C20.4539 56.8267 20.7862 57.7286 20.7862 58.8279V101.758ZM16.5505 101.538V59.0482H4.90221V101.538H16.5505ZM47.4357 101.758C47.4357 102.858 47.104 103.759 46.4391 104.452C45.7747 105.145 44.9238 105.497 43.9062 105.497H31.905C30.8668 105.497 30.0154 105.145 29.3613 104.452C28.7073 103.759 28.3752 102.858 28.3752 101.758V58.8279C28.3752 57.7286 28.7073 56.8267 29.3613 56.1341C30.0154 55.441 30.8668 55.089 31.905 55.089H43.9062C44.9238 55.089 45.7747 55.441 46.4391 56.1341C47.104 56.8267 47.4357 57.7286 47.4357 58.8279V70.3965H43.2004V59.0482H32.6109V101.538H43.2004V89.134H47.4357V101.758ZM70.4727 105.497H54.838V55.089H70.2862V59.0482H59.0738V77.8518H69.2891V81.8765H59.0738V101.538H70.4727V105.497ZM96.2609 105.497H92.0875L90.4163 94.3465H80.9374L79.2555 105.497H75.2068V105.365L83.6783 54.9573H87.8517L96.2609 105.497ZM89.8659 90.3879L85.6924 63.0286L81.4776 90.3879H89.8659ZM121.603 105.497H118.685L105.968 68.4276V105.497H101.981V55.089H105.147L117.616 91.5205V55.089H121.603V105.497Z" fill="white"/>
<path fill-rule="evenodd" clip-rule="evenodd" d="M160.794 0.896944L187.476 27.9676C188.527 29.0337 188.529 30.7642 187.481 31.8327C186.432 32.9013 184.73 32.9033 183.68 31.8372L161.491 9.3254V28.9757L187.476 55.3395C188.527 56.4054 188.529 58.136 187.481 59.2046C186.432 60.2733 184.73 60.2749 183.68 59.209L161.491 36.6971V56.3475L187.476 82.7108C188.527 83.7773 188.529 85.5079 187.481 86.5759C186.432 87.6446 184.73 87.6468 183.68 86.5809L161.491 64.069V105.497C161.491 107.006 160.287 108.23 158.803 108.23C157.319 108.23 156.115 107.006 156.115 105.497V63.8618L133.722 86.5809C132.672 87.6468 130.97 87.6446 129.921 86.5759C128.873 85.5079 128.875 83.7773 129.926 82.7108L156.115 56.1403V36.49L133.722 59.209C132.672 60.2749 130.97 60.2733 129.921 59.2046C128.873 58.136 128.875 56.4054 129.926 55.3395L156.115 28.7685V9.11823L133.722 31.8372C132.672 32.9033 130.97 32.9013 129.921 31.8327C128.873 30.7642 128.875 29.0337 129.926 27.9676L156.701 0.803036C157.235 0.260682 157.938 -0.0052474 158.638 0.00508367C158.693 0.00169464 158.748 0 158.803 0C159.592 0 160.302 0.346008 160.794 0.896944Z" fill="white"/>
</svg>
