<svg width="153" height="79" viewBox="0 0 153 79" fill="none" xmlns="http://www.w3.org/2000/svg">
<path d="M16.0769 33.7704C16.0769 34.5414 15.7993 35.1734 15.253 35.6591C14.7067 36.1448 13.9957 36.3915 13.1285 36.3915H2.94833C2.08117 36.3915 1.36999 36.1448 0.823686 35.6591C0.277379 35.1734 0 34.5414 0 33.7704V3.67557C0 2.90472 0.277379 2.27262 0.823686 1.78697C1.36999 1.30131 2.08117 1.05458 2.94833 1.05458H13.1285C13.9957 1.05458 14.7067 1.30131 15.253 1.78697C15.7993 2.27262 16.0769 2.90472 16.0769 3.67557V11.7852H12.5389V3.82972H3.53793V33.6163H12.5389V21.4056H8.27254V18.6768H16.0769V33.7704ZM39.2905 36.3915H35.5965L28.2082 17.4587L28.6938 16.8266H34.9722V3.82972H25.9189V36.3915H22.381V1.05458H35.5614C36.4287 1.05458 37.1396 1.30131 37.686 1.78697C38.2323 2.27262 38.5099 2.90472 38.5099 3.67557V16.8883C38.5099 18.6383 37.2268 19.5093 34.6513 19.5093C34.3996 19.5093 34.0266 19.5016 33.5325 19.4785C33.0469 19.4553 32.6914 19.4399 32.4659 19.4399C34.755 25.075 37.0271 30.7255 39.2905 36.3915ZM57.648 36.3915H44.5885V1.05458H57.4917V3.82972H48.1266V17.0117H56.659V19.833H48.1266V33.6163H57.648V36.3915ZM76.2222 36.3915H63.1631V1.05458H76.0659V3.82972H66.7008V17.0117H75.2337V19.833H66.7008V33.6163H76.2222V36.3915ZM98.1261 36.3915H95.6894L85.0671 10.4052V36.3915H81.7373V1.05458H84.382L94.7964 26.5936V1.05458H98.1261V36.3915Z" fill="#FF3D0B"/>
<path d="M16.386 75.2778C16.386 76.0609 16.1154 76.7026 15.5743 77.1961C15.0417 77.6892 14.3483 77.9398 13.5113 77.9398H2.87478C2.02925 77.9398 1.3358 77.6892 0.803154 77.1961C0.270462 76.7026 0 76.0609 0 75.2778V44.7126C0 43.93 0.270462 43.2878 0.803154 42.7948C1.3358 42.3013 2.02925 42.0507 2.87478 42.0507H13.5113C14.3483 42.0507 15.0417 42.3013 15.5743 42.7948C16.1154 43.2878 16.386 43.93 16.386 44.7126V75.2778ZM12.9364 75.1214V44.8695H3.44968V75.1214H12.9364ZM38.0901 75.2778C38.0901 76.0609 37.82 76.7026 37.2784 77.1961C36.7373 77.6892 36.0443 77.9398 35.2156 77.9398H25.4415C24.596 77.9398 23.9025 77.6892 23.3698 77.1961C22.8372 76.7026 22.5667 76.0609 22.5667 75.2778V44.7126C22.5667 43.93 22.8372 43.2878 23.3698 42.7948C23.9025 42.3013 24.596 42.0507 25.4415 42.0507H35.2156C36.0443 42.0507 36.7373 42.3013 37.2784 42.7948C37.82 43.2878 38.0901 43.93 38.0901 44.7126V52.9492H34.6408V44.8695H26.0164V75.1214H34.6408V66.2898H38.0901V75.2778ZM56.8521 77.9398H44.1188V42.0507H56.7002V44.8695H47.5685V58.2572H55.8881V61.1227H47.5685V75.1214H56.8521V77.9398ZM77.8547 77.9398H74.4557L73.0947 70.001H65.3748L64.005 77.9398H60.7076V77.846L67.6071 41.9569H71.006L77.8547 77.9398ZM72.6464 67.1826L69.2474 47.7035L65.8148 67.1826H72.6464ZM98.4939 77.9398H96.1176L85.7601 51.5474V77.9398H82.5135V42.0507H85.0921L95.2468 67.9889V42.0507H98.4939V77.9398Z" fill="#FF3D0B"/>
<path fill-rule="evenodd" clip-rule="evenodd" d="M130.413 1.60735L152.143 20.881C152.999 21.64 153 22.8721 152.147 23.6328C151.293 24.3937 149.906 24.3951 149.051 23.636L130.98 7.6082V21.5987L152.143 40.3691C152.999 41.128 153 42.3601 152.147 43.121C151.293 43.8818 149.906 43.883 149.051 43.1241L130.98 27.0962V41.0867L152.143 59.8567C152.999 60.616 153 61.8482 152.147 62.6086C151.293 63.3695 149.906 63.371 149.051 62.6121L130.98 46.5842V76.08C130.98 77.1545 130 78.0259 128.791 78.0259C127.582 78.0259 126.602 77.1545 126.602 76.08V46.4367L108.365 62.6121C107.509 63.371 106.123 63.3695 105.269 62.6086C104.415 61.8482 104.417 60.616 105.273 59.8567L126.602 40.9392V26.9487L108.365 43.1241C107.509 43.883 106.123 43.8818 105.269 43.121C104.415 42.3601 104.417 41.128 105.273 40.3691L126.602 21.4512V7.4607L108.365 23.636C107.509 24.3951 106.123 24.3937 105.269 23.6328C104.415 22.8721 104.417 21.64 105.273 20.881L127.079 1.54049C127.514 1.15435 128.087 0.965014 128.657 0.972369C128.701 0.969957 128.746 0.96875 128.791 0.96875C129.434 0.96875 130.012 1.2151 130.413 1.60735Z" fill="#FF3D0B"/>
</svg>
