<svg width="187" height="93" viewBox="0 0 187 93" fill="none" xmlns="http://www.w3.org/2000/svg">
<path d="M32.1111 40.7704C32.1111 41.5414 31.8335 42.1734 31.2872 42.6591C30.7409 43.1448 30.0299 43.3915 29.1627 43.3915H18.9825C18.1153 43.3915 17.4042 43.1448 16.8579 42.6591C16.3116 42.1734 16.0342 41.5414 16.0342 40.7704V10.6756C16.0342 9.90472 16.3116 9.27262 16.8579 8.78697C17.4042 8.30131 18.1153 8.05458 18.9825 8.05458H29.1627C30.0299 8.05458 30.7409 8.30131 31.2872 8.78697C31.8335 9.27262 32.1111 9.90472 32.1111 10.6756V18.7852H28.5731V10.8297H19.5721V40.6163H28.5731V28.4056H24.3067V25.6768H32.1111V40.7704ZM55.3246 43.3915H51.6306L44.2424 24.4587L44.728 23.8266H51.0064V10.8297H41.9531V43.3915H38.4152V8.05458H51.5956C52.4629 8.05458 53.1738 8.30131 53.7202 8.78697C54.2665 9.27262 54.5441 9.90472 54.5441 10.6756V23.8883C54.5441 25.6383 53.2609 26.5093 50.6855 26.5093C50.4337 26.5093 50.0608 26.5016 49.5667 26.4785C49.0811 26.4553 48.7256 26.4399 48.5001 26.4399C50.7892 32.075 53.0613 37.7255 55.3246 43.3915ZM73.6821 43.3915H60.6227V8.05458H73.5259V10.8297H64.1608V24.0117H72.6932V26.833H64.1608V40.6163H73.6821V43.3915ZM92.2563 43.3915H79.1973V8.05458H92.1001V10.8297H82.735V24.0117H91.2678V26.833H82.735V40.6163H92.2563V43.3915ZM114.16 43.3915H111.724L101.101 17.4052V43.3915H97.7715V8.05458H100.416L110.831 33.5936V8.05458H114.16V43.3915Z" fill="url(#paint0_linear_3368_16820)"/>
<path d="M32.4202 82.2778C32.4202 83.0609 32.1496 83.7026 31.6085 84.1961C31.0758 84.6892 30.3825 84.9398 29.5454 84.9398H18.909C18.0634 84.9398 17.37 84.6892 16.8373 84.1961C16.3046 83.7026 16.0342 83.0609 16.0342 82.2778V51.7126C16.0342 50.93 16.3046 50.2878 16.8373 49.7948C17.37 49.3013 18.0634 49.0507 18.909 49.0507H29.5454C30.3825 49.0507 31.0758 49.3013 31.6085 49.7948C32.1496 50.2878 32.4202 50.93 32.4202 51.7126V82.2778ZM28.9705 82.1214V51.8695H19.4839V82.1214H28.9705ZM54.1242 82.2778C54.1242 83.0609 53.8541 83.7026 53.3126 84.1961C52.7715 84.6892 52.0785 84.9398 51.2498 84.9398H41.4756C40.6302 84.9398 39.9367 84.6892 39.404 84.1961C38.8714 83.7026 38.6009 83.0609 38.6009 82.2778V51.7126C38.6009 50.93 38.8714 50.2878 39.404 49.7948C39.9367 49.3013 40.6302 49.0507 41.4756 49.0507H51.2498C52.0785 49.0507 52.7715 49.3013 53.3126 49.7948C53.8541 50.2878 54.1242 50.93 54.1242 51.7126V59.9492H50.675V51.8695H42.0505V82.1214H50.675V73.2898H54.1242V82.2778ZM72.8863 84.9398H60.1529V49.0507H72.7343V51.8695H63.6027V65.2572H71.9223V68.1227H63.6027V82.1214H72.8863V84.9398ZM93.8888 84.9398H90.4899L89.1288 77.001H81.409L80.0392 84.9398H76.7418V84.846L83.6412 48.9569H87.0402L93.8888 84.9398ZM88.6805 74.1826L85.2816 54.7035L81.849 74.1826H88.6805ZM114.528 84.9398H112.152L101.794 58.5474V84.9398H98.5477V49.0507H101.126L111.281 74.9889V49.0507H114.528V84.9398Z" fill="url(#paint1_linear_3368_16820)"/>
<path fill-rule="evenodd" clip-rule="evenodd" d="M146.447 8.60735L168.177 27.881C169.033 28.64 169.034 29.8721 168.181 30.6328C167.327 31.3937 165.941 31.3951 165.085 30.636L147.014 14.6082V28.5987L168.177 47.3691C169.033 48.128 169.034 49.3601 168.181 50.121C167.327 50.8818 165.941 50.883 165.085 50.1241L147.014 34.0962V48.0867L168.177 66.8567C169.033 67.616 169.034 68.8482 168.181 69.6086C167.327 70.3695 165.941 70.371 165.085 69.6121L147.014 53.5842V83.08C147.014 84.1545 146.034 85.0259 144.825 85.0259C143.616 85.0259 142.636 84.1545 142.636 83.08V53.4367L124.399 69.6121C123.543 70.371 122.157 70.3695 121.303 69.6086C120.449 68.8482 120.451 67.616 121.307 66.8567L142.636 47.9392V33.9487L124.399 50.1241C123.543 50.883 122.157 50.8818 121.303 50.121C120.449 49.3601 120.451 48.128 121.307 47.3691L142.636 28.4512V14.4607L124.399 30.636C123.543 31.3951 122.157 31.3937 121.303 30.6328C120.449 29.8721 120.451 28.64 121.307 27.881L143.113 8.54049C143.548 8.15435 144.121 7.96501 144.691 7.97237C144.735 7.96996 144.78 7.96875 144.825 7.96875C145.468 7.96875 146.046 8.2151 146.447 8.60735Z" fill="url(#paint2_linear_3368_16820)"/>
<defs>
<linearGradient id="paint0_linear_3368_16820" x1="-1.90152" y1="104.158" x2="138.398" y2="-26.608" gradientUnits="userSpaceOnUse">
<stop stop-color="#184A36"/>
<stop offset="1" stop-color="#11A65E"/>
</linearGradient>
<linearGradient id="paint1_linear_3368_16820" x1="-1.90152" y1="104.158" x2="138.398" y2="-26.608" gradientUnits="userSpaceOnUse">
<stop stop-color="#184A36"/>
<stop offset="1" stop-color="#11A65E"/>
</linearGradient>
<linearGradient id="paint2_linear_3368_16820" x1="-1.90152" y1="104.158" x2="138.398" y2="-26.608" gradientUnits="userSpaceOnUse">
<stop stop-color="#184A36"/>
<stop offset="1" stop-color="#11A65E"/>
</linearGradient>
</defs>
</svg>
