<svg width="223" height="68" viewBox="0 0 223 68" fill="none" xmlns="http://www.w3.org/2000/svg">
<g clip-path="url(#clip0_3329_17356)">
<path d="M67.8406 33.5845C67.8406 51.7492 52.8169 66.4972 34.2562 66.4972C15.6955 66.4972 0.671875 51.7492 0.671875 33.5845C0.671875 15.4198 15.6955 0.671875 34.2562 0.671875C52.8169 0.671875 67.8406 15.4198 67.8406 33.5845Z" stroke="url(#paint0_linear_3329_17356)" stroke-width="1.34337"/>
<path fill-rule="evenodd" clip-rule="evenodd" d="M52.5686 53.6533C58.2298 48.7324 61.7951 41.5655 61.7951 33.5862C61.7951 18.7477 49.4654 6.71875 34.256 6.71875C19.0465 6.71875 6.7168 18.7477 6.7168 33.5862C6.7168 41.8313 10.5236 49.209 16.5162 54.1376V50.8991C16.5162 48.5789 17.9866 46.6022 20.0464 45.85V43.7604V41.7011V40.6714L20.6348 39.6417H20.7692C20.6845 39.6417 20.6049 39.602 20.5542 39.5343L20.146 38.9901C20.085 38.9087 20.0752 38.7997 20.1206 38.7088L20.3408 38.2685C19.7786 37.9226 19.5127 37.1789 19.8417 36.5208L20.6348 34.9347L21.2231 31.4044L21.8115 34.9347L22.6046 36.5208C22.9336 37.1789 22.6677 37.9226 22.1055 38.2685L22.3256 38.7088C22.3711 38.7997 22.3613 38.9087 22.3002 38.9901L21.8921 39.5343C21.8414 39.602 21.7618 39.6417 21.6771 39.6417H21.8115L22.3999 40.6714V41.7011V43.7604V45.5256H24.7535V58.8113V46.192C24.7535 43.2243 27.1592 40.8185 30.127 40.8185H30.6372V34.8756C30.3179 34.746 30.0593 34.5395 29.865 34.2849C29.5478 33.8691 29.4345 33.3701 29.4345 32.9685C29.4345 31.8698 29.817 31.1238 30.4433 30.5513C30.8794 30.1526 31.4549 29.83 32.0012 29.5236C32.1526 29.4388 32.3016 29.3553 32.445 29.2716C32.7527 29.0921 33.2139 28.8185 33.5946 28.5312C33.7864 28.3866 33.9337 28.2561 34.0265 28.1495C34.0814 28.0866 34.0969 28.0554 34.0981 28.0531H34.098C34.0969 28.056 34.0829 28.0885 34.0829 28.1476H34.0843H34.1674V28.1407L34.0843 28.1476L34.1674 28.1406V28.104L34.7558 25.5206L35.3347 28.0427L35.4074 28.0366C35.4074 28.0366 35.4076 28.0371 35.4082 28.0382L35.3351 28.0443L35.3488 28.104V28.1476H35.4263H35.4275C35.4275 28.0835 35.4119 28.0461 35.4082 28.0382C35.4121 28.0452 35.4302 28.0749 35.4807 28.1292C35.5785 28.2342 35.7334 28.3625 35.9353 28.5053C36.2741 28.745 36.6634 28.9699 36.9716 29.1479L36.9717 29.148L36.9718 29.1481C37.0304 29.1818 37.086 29.2139 37.1378 29.2442C37.281 29.3277 37.4301 29.4113 37.5813 29.4962H37.5815C38.128 29.8026 38.7033 30.1252 39.1394 30.5239C39.7657 31.0964 40.1483 31.8424 40.1483 32.941C40.1483 33.3427 40.0349 33.8417 39.7177 34.2575C39.5093 34.5306 39.2267 34.7485 38.8745 34.8753V40.8185H39.3848C41.9501 40.8185 44.0956 42.6162 44.6302 45.0205H46.6847V43.2554V41.196V40.1665L47.2731 39.1368H47.4074C47.3229 39.1368 47.2433 39.097 47.1925 39.0293L46.7844 38.4851C46.7233 38.4037 46.7135 38.2947 46.759 38.2038L46.9792 37.7636C46.417 37.4175 46.151 36.674 46.4801 36.0158L47.2731 34.4297L47.8615 30.8995L48.4499 34.4297L49.2429 36.0158C49.572 36.674 49.306 37.4175 48.744 37.7636L48.964 38.2038C49.0096 38.2947 48.9997 38.4037 48.9386 38.4851L48.5305 39.0293C48.4797 39.097 48.4001 39.1368 48.3156 39.1368H48.4499L49.0383 40.1665V41.196V43.2554V45.345C51.0981 46.0972 52.5686 48.0738 52.5686 50.394V53.6533ZM36.2265 19.0269C34.1811 19.0269 32.523 17.3687 32.523 15.3233C32.523 13.9359 33.2859 12.7267 34.4151 12.0922C31.9769 12.2699 30.054 14.3042 30.054 16.7877C30.054 19.388 32.1619 21.4959 34.7621 21.4959C37.2456 21.4959 39.28 19.573 39.4576 17.1347C38.8233 18.2638 37.614 19.0269 36.2265 19.0269Z" fill="url(#paint1_linear_3329_17356)"/>
<path d="M85.9092 25.267H95.0683V27.3734H91.5325V38.9587H89.3509V27.3734H85.9092V25.267ZM97.4193 38.9587V24.2891H99.4881V32.7523L99.4505 32.4326C99.7265 31.9185 100.134 31.4985 100.673 31.1725C101.212 30.834 101.858 30.6647 102.61 30.6647C103.362 30.6647 103.983 30.8841 104.472 31.323C104.961 31.7618 105.212 32.3386 105.224 33.0532V38.9587H103.118V33.8055C103.105 33.4043 102.993 33.0845 102.779 32.8464C102.566 32.5955 102.228 32.4639 101.764 32.4514C101.338 32.4514 100.955 32.5831 100.617 32.8464C100.278 33.1097 100.009 33.467 99.8079 33.9184C99.6198 34.3572 99.5258 34.8587 99.5258 35.4229V38.9587H97.4193ZM111.926 39.1656C110.986 39.1656 110.183 38.9838 109.519 38.6202C108.854 38.2565 108.346 37.755 107.995 37.1156C107.644 36.4637 107.469 35.7302 107.469 34.9151C107.469 34.1128 107.669 33.3918 108.071 32.7523C108.472 32.1129 109.011 31.6051 109.688 31.2289C110.378 30.8403 111.136 30.6459 111.964 30.6459C113.054 30.6459 113.951 30.9656 114.653 31.6051C115.368 32.232 115.844 33.1221 116.082 34.2757L109.669 36.4385L109.18 35.2537L114.183 33.467L113.75 33.7115C113.613 33.3353 113.387 33.0093 113.073 32.7335C112.772 32.4577 112.346 32.3198 111.794 32.3198C111.356 32.3198 110.967 32.4263 110.628 32.6395C110.29 32.84 110.02 33.1285 109.82 33.5046C109.632 33.8683 109.538 34.3008 109.538 34.8023C109.538 35.3164 109.644 35.7678 109.857 36.1564C110.07 36.5451 110.359 36.846 110.722 37.0592C111.086 37.2597 111.5 37.3601 111.964 37.3601C112.29 37.3601 112.603 37.3037 112.904 37.1908C113.205 37.078 113.487 36.9275 113.75 36.7394L114.709 38.3004C114.296 38.5638 113.838 38.7769 113.337 38.9399C112.848 39.0904 112.377 39.1656 111.926 39.1656ZM118.588 38.9587V24.7781H118.606L125.979 35.2161L125.039 35.0092L132.373 24.7781H132.411V38.9587H130.229V29.7244L130.38 30.8528L125.434 37.8491H125.396L120.337 30.8528L120.713 29.8184V38.9587H118.588ZM135.074 34.8963C135.074 34.0939 135.262 33.373 135.638 32.7335C136.014 32.0816 136.541 31.5738 137.218 31.2101C137.907 30.834 138.685 30.6459 139.55 30.6459C140.44 30.6459 141.211 30.834 141.863 31.2101C142.528 31.5738 143.041 32.0816 143.405 32.7335C143.769 33.373 143.951 34.0939 143.951 34.8963C143.951 35.6987 143.769 36.426 143.405 37.078C143.041 37.7174 142.528 38.2252 141.863 38.6014C141.211 38.9775 140.434 39.1656 139.531 39.1656C138.678 39.1656 137.913 38.9963 137.236 38.6578C136.559 38.3068 136.026 37.8115 135.638 37.172C135.262 36.5326 135.074 35.774 135.074 34.8963ZM137.199 34.9151C137.199 35.379 137.3 35.8054 137.5 36.194C137.7 36.5702 137.977 36.8711 138.327 37.0968C138.678 37.3225 139.067 37.4353 139.493 37.4353C139.957 37.4353 140.358 37.3225 140.697 37.0968C141.048 36.8711 141.318 36.5702 141.506 36.194C141.706 35.8054 141.807 35.379 141.807 34.9151C141.807 34.4387 141.706 34.0124 141.506 33.6363C141.318 33.2476 141.048 32.9404 140.697 32.7147C140.358 32.489 139.957 32.3762 139.493 32.3762C139.054 32.3762 138.659 32.4953 138.308 32.7335C137.97 32.9592 137.7 33.2601 137.5 33.6363C137.3 34.0124 137.199 34.4387 137.199 34.9151ZM148.553 39.128C147.951 39.128 147.373 39.0214 146.823 38.8082C146.283 38.5951 145.826 38.2816 145.45 37.8679L146.353 36.683C146.703 37.0216 147.048 37.2724 147.387 37.4353C147.738 37.5858 148.069 37.661 148.384 37.661C148.621 37.661 148.835 37.6359 149.023 37.5858C149.223 37.523 149.38 37.429 149.493 37.3037C149.618 37.1783 149.681 37.0091 149.681 36.7959C149.681 36.5451 149.593 36.3508 149.418 36.2128C149.242 36.0624 149.016 35.9432 148.741 35.8555C148.464 35.7552 148.177 35.6611 147.876 35.5734C147.185 35.3602 146.672 35.0468 146.334 34.633C145.995 34.2193 145.826 33.7428 145.826 33.2037C145.826 32.7899 145.932 32.395 146.146 32.0188C146.358 31.6302 146.684 31.3105 147.124 31.0597C147.562 30.8089 148.114 30.6835 148.779 30.6835C149.38 30.6835 149.9 30.7524 150.34 30.8904C150.791 31.0157 151.21 31.2352 151.6 31.5487L150.791 32.8087C150.565 32.5955 150.295 32.4326 149.982 32.3198C149.681 32.1944 149.405 32.1254 149.155 32.1129C148.929 32.1004 148.728 32.1317 148.553 32.2069C148.377 32.2696 148.233 32.3637 148.12 32.489C148.02 32.6144 147.97 32.7586 147.97 32.9216C147.957 33.1724 148.038 33.373 148.214 33.5234C148.403 33.6739 148.64 33.793 148.929 33.8807C149.217 33.9685 149.505 34.0625 149.794 34.1629C150.182 34.2757 150.528 34.4325 150.829 34.633C151.13 34.8336 151.361 35.0781 151.525 35.3665C151.699 35.6423 151.788 35.9872 151.788 36.4009C151.788 36.8774 151.668 37.3288 151.43 37.755C151.191 38.1688 150.834 38.501 150.358 38.7518C149.882 39.0026 149.28 39.128 148.553 39.128ZM157.314 39.1656C156.612 39.1656 155.966 38.9963 155.377 38.6578C154.8 38.3193 154.336 37.8366 153.986 37.2096C153.634 36.5827 153.459 35.8367 153.459 34.9716C153.459 34.0813 153.647 33.3165 154.023 32.6771C154.411 32.0251 154.919 31.5235 155.547 31.1725C156.186 30.8215 156.882 30.6459 157.634 30.6459C158.323 30.6459 158.918 30.7839 159.421 31.0597C159.934 31.3355 160.361 31.6928 160.7 32.1317L160.493 32.6959V30.8528H162.599V42.7766H160.512V37.1156L160.568 37.9055C160.254 38.2691 159.809 38.5701 159.233 38.8082C158.669 39.0464 158.029 39.1656 157.314 39.1656ZM158.048 37.4917C158.448 37.4917 158.819 37.4165 159.158 37.2661C159.496 37.1156 159.778 36.9087 160.004 36.6454C160.242 36.3821 160.404 36.0812 160.493 35.7427V34.1441C160.38 33.793 160.204 33.4921 159.966 33.2413C159.741 32.978 159.464 32.7774 159.139 32.6395C158.824 32.5015 158.462 32.4326 158.048 32.4326C157.609 32.4326 157.202 32.5454 156.825 32.7711C156.449 32.9843 156.148 33.2852 155.923 33.6739C155.697 34.0625 155.584 34.5014 155.584 34.9904C155.584 35.4669 155.697 35.8931 155.923 36.2693C156.148 36.6454 156.449 36.9463 156.825 37.172C157.202 37.3852 157.609 37.4917 158.048 37.4917ZM168.061 39.2972C167.335 39.2972 166.733 39.0779 166.256 38.639C165.779 38.1876 165.529 37.6109 165.504 36.9087V31.0032H167.61V36.1564C167.636 36.5451 167.748 36.8648 167.949 37.1156C168.149 37.3664 168.468 37.4917 168.908 37.4917C169.322 37.4917 169.691 37.3664 170.017 37.1156C170.344 36.8523 170.594 36.495 170.77 36.0436C170.958 35.5922 171.052 35.0844 171.052 34.5202V31.0032H173.158V38.9587H171.259L171.089 37.2096L171.146 37.4917C170.983 37.8303 170.751 38.1437 170.45 38.4321C170.149 38.7079 169.792 38.9211 169.378 39.0715C168.976 39.222 168.538 39.2972 168.061 39.2972ZM179.863 39.1656C178.923 39.1656 178.121 38.9838 177.456 38.6202C176.792 38.2565 176.284 37.755 175.932 37.1156C175.582 36.4637 175.406 35.7302 175.406 34.9151C175.406 34.1128 175.607 33.3918 176.007 32.7523C176.409 32.1129 176.948 31.6051 177.625 31.2289C178.315 30.8403 179.073 30.6459 179.901 30.6459C180.991 30.6459 181.889 30.9656 182.59 31.6051C183.305 32.232 183.782 33.1221 184.019 34.2757L177.606 36.4385L177.117 35.2537L182.12 33.467L181.687 33.7115C181.55 33.3353 181.325 33.0093 181.01 32.7335C180.709 32.4577 180.283 32.3198 179.731 32.3198C179.293 32.3198 178.904 32.4263 178.565 32.6395C178.227 32.84 177.958 33.1285 177.757 33.5046C177.568 33.8683 177.474 34.3008 177.474 34.8023C177.474 35.3164 177.582 35.7678 177.794 36.1564C178.008 36.5451 178.297 36.846 178.659 37.0592C179.023 37.2597 179.437 37.3601 179.901 37.3601C180.227 37.3601 180.54 37.3037 180.841 37.1908C181.142 37.078 181.424 36.9275 181.687 36.7394L182.646 38.3004C182.233 38.5638 181.776 38.7769 181.274 38.9399C180.785 39.0904 180.314 39.1656 179.863 39.1656ZM198.561 39.4477L188.048 29.2542L188.688 29.5175L188.744 38.9587H186.525V24.7969H186.619L196.982 34.9904L196.474 34.8399L196.436 25.267H198.618V39.4477H198.561ZM202.394 25.267H210.707V27.3734H204.594V31.2289H209.917V33.3353H204.594V38.9587H202.394V25.267ZM212.565 25.267H221.724V27.3734H218.188V38.9587H216.006V27.3734H212.565V25.267Z" fill="url(#paint2_linear_3329_17356)"/>
</g>
<defs>
<linearGradient id="paint0_linear_3329_17356" x1="34.2562" y1="0.000188272" x2="34.2562" y2="67.1689" gradientUnits="userSpaceOnUse">
<stop stop-color="#D3D2D2"/>
<stop offset="1" stop-color="#535353"/>
</linearGradient>
<linearGradient id="paint1_linear_3329_17356" x1="34.256" y1="6.71875" x2="34.256" y2="60.4537" gradientUnits="userSpaceOnUse">
<stop stop-color="#D3D2D2"/>
<stop offset="1" stop-color="#535353"/>
</linearGradient>
<linearGradient id="paint2_linear_3329_17356" x1="153.816" y1="24.1816" x2="153.816" y2="42.9888" gradientUnits="userSpaceOnUse">
<stop stop-color="#D3D2D2"/>
<stop offset="1" stop-color="#535353"/>
</linearGradient>
<clipPath id="clip0_3329_17356">
<rect width="223" height="67.1687" fill="white"/>
</clipPath>
</defs>
</svg>
