<svg width="273" height="37" viewBox="0 0 273 37" fill="none" xmlns="http://www.w3.org/2000/svg">
<path fill-rule="evenodd" clip-rule="evenodd" d="M233.365 29.2155C232.767 25.106 232.24 20.9966 232.129 16.8497L232.066 14.7129L232.021 13.262L231.945 10.3759L231.924 9.50564L231.907 8.48137C231.867 6.61341 231.945 4.70807 232.693 2.95222L232.734 2.85746C232.777 2.73251 232.809 2.59573 232.828 2.45536C232.859 2.23326 232.862 2.00209 232.841 1.79408C232.805 0.897454 232.204 0.18766 231.38 0.0382232C230.182 -0.18593 228.985 0.598582 228.833 1.79408C228.758 2.57864 228.72 3.40054 228.869 4.14772C229.208 5.7915 229.318 7.39792 229.244 9.0791C229.22 9.50247 229.227 9.92585 229.237 10.3493L229.244 10.9844L229.47 17.7464L229.503 18.761C229.598 21.5912 229.697 24.3946 230.03 27.1982C230.047 27.3092 230.037 27.4201 230.016 27.5312L229.939 27.8681L229.92 27.9827C229.785 27.9257 229.652 27.888 229.524 27.845L229.365 27.7852C229.298 27.7572 229.23 27.7247 229.17 27.6839C228.309 27.0861 227.634 26.3015 227.108 25.4424L226.415 24.3043C225.923 23.4977 225.431 22.6879 224.952 21.868C224.591 21.248 224.233 20.6222 223.888 19.9879L223.233 18.7459L222.343 17.0042C221.384 15.1076 220.449 13.2061 219.468 11.3206C219.203 10.8175 218.92 10.3252 218.621 9.83788C218.364 9.42064 218.094 9.00703 217.818 8.59342C217.557 8.21982 217.184 7.88362 216.767 7.65946C216.356 7.39792 215.87 7.43531 215.457 7.73418C215.084 8.03306 214.932 8.44398 215.01 8.89228C215.084 9.26588 215.195 9.60214 215.347 9.93834L215.613 10.6484L215.889 11.3479L215.9 11.3799C216.211 12.1546 216.522 12.9259 216.731 13.7116C217.932 18.1946 218.792 22.7525 219.43 27.385C219.578 28.543 219.578 29.7385 219.093 30.8594C219.046 31.0012 219.012 31.1432 218.986 31.2851L218.941 31.5318C218.867 32.1295 218.979 32.7273 219.394 33.1755C219.843 33.6986 220.477 33.6986 220.892 33.1755L221.054 32.9449C221.114 32.8476 221.171 32.7457 221.222 32.642C221.324 32.4312 221.394 32.214 221.415 32.0175C221.455 31.5198 221.496 31.0106 221.512 30.4963C221.526 30.0841 221.522 29.6685 221.489 29.253C221.114 25.6665 220.517 22.1173 219.504 18.643C219.468 18.4935 219.468 18.344 219.43 18.1946C219.468 18.1946 219.504 18.1573 219.542 18.1573L219.613 18.3014L219.667 18.4049L219.768 18.5683L220.159 19.3621L220.608 20.2822C221.087 21.2762 221.567 22.2647 222.089 23.2382C223.663 26.2642 225.462 29.1409 227.82 31.6065L228.192 31.9928L228.485 32.284C228.883 32.6695 229.298 33.0385 229.712 33.4078L230.367 33.9975C230.894 34.4459 231.492 34.67 232.204 34.7073C233.142 34.7446 233.816 34.2964 233.928 33.3998C233.949 33.2367 233.964 33.0738 233.971 32.9108C233.989 32.5134 233.959 32.116 233.854 31.7186C233.78 31.3145 233.695 30.9103 233.61 30.5017L233.581 30.3412C233.507 29.9711 233.432 29.597 233.365 29.2155ZM43.7197 28.3189C41.958 24.9567 40.5339 21.4822 39.7106 17.7837C39.6431 17.5029 39.6059 17.3462 39.6396 17.2362C39.6835 17.0975 39.8421 17.033 40.1965 16.8871C40.8342 16.5882 41.4687 16.2893 41.9952 15.8784C42.7444 15.2433 42.6331 14.272 41.8433 13.6742C41.3203 13.3006 40.7601 13.1138 40.1222 13.1138H39.0727V12.8523L39.1233 12.4667C39.2921 11.1011 39.4608 9.73827 39.5957 8.40658C39.7847 6.80019 39.9703 5.19372 40.0481 3.58731C40.1222 2.72806 39.8962 1.90618 39.373 1.19633C38.8467 0.486531 38.0232 0.18766 37.274 0.374428C36.5248 0.635967 36.0389 1.23371 35.9646 2.20504C35.8499 3.66202 35.7385 5.08167 35.7013 6.53864C35.6744 8.26433 35.7081 9.96929 35.7419 11.6845V11.7014L35.7756 13.4501C35.7756 13.6087 35.7756 13.7261 35.7081 13.8106L35.6407 13.8712C35.6001 13.897 35.5462 13.9184 35.4753 13.9357C32.816 14.5709 30.3424 15.6916 27.9834 17.0365C27.8721 17.1112 27.7574 17.1486 27.6459 17.2233C27.6088 17.1486 27.5718 17.0739 27.5346 17.0365C26.6336 14.3093 25.8844 11.5448 25.4726 8.70547L25.2601 6.98958L25.1419 6.1311C25.0609 5.5738 24.9631 5.01834 24.8382 4.46593C24.764 4.13448 24.6763 3.80413 24.575 3.4752C24.5346 3.40047 24.5346 3.28842 24.5346 3.21371C24.5346 2.4292 24.0485 1.9435 23.2622 1.98089C22.7763 2.01823 22.287 2.0556 21.8381 2.20504L21.1767 2.37957L19.9853 2.71927C19.1012 2.98118 18.2036 3.26555 17.306 3.54992C16.145 3.92351 14.9436 4.18506 13.7456 4.25977C13.371 4.29711 13.2225 4.22238 13.1077 3.8488C12.885 2.95222 12.0616 2.61596 11.2719 3.139C11.1707 3.19947 11.0795 3.27619 10.9952 3.36267C10.8737 3.48918 10.7657 3.6365 10.6577 3.78388C10.5666 3.90927 10.4755 4.03477 10.3742 4.14766L10.3135 4.21353C10.2224 4.31065 10.1279 4.40921 10.0368 4.40921C8.16381 4.40921 6.32797 4.37329 4.45501 4.33669L4.34364 4.33448C3.9623 4.31867 3.58097 4.28282 3.19624 4.24669L2.36606 4.17583C2.11634 4.15884 1.86324 4.14766 1.60676 4.14766C0.445862 4.11033 -0.229078 5.00694 0.0712697 6.12771C0.182635 6.54924 0.388493 6.91808 0.668592 7.21853C0.86095 7.42403 1.08705 7.59756 1.34691 7.73412C1.63376 7.88688 1.93749 8.0319 2.25133 8.16218C2.6293 8.31874 3.01739 8.4541 3.40548 8.55603C4.64062 8.85489 5.87914 8.74284 7.11428 8.59342L10.1886 8.14511V8.63074C10.1718 9.16991 10.1448 9.70907 10.1178 10.2482L10.0671 11.3264C10.0503 11.7728 10.0368 12.2192 10.0368 12.6655C9.99964 16.4014 10.3742 20.0999 10.8602 23.7985C11.1234 25.629 11.4238 27.4223 12.0616 29.1408C12.4362 30.1869 12.9964 31.1208 13.7827 31.8681C14.4576 32.5031 15.2439 32.9141 16.2192 32.5404C17.0055 32.2043 17.4544 31.3449 17.3801 30.2615C17.3429 29.6265 17.1945 28.9914 17.0055 28.3936C16.8874 28.0037 16.7625 27.6164 16.6343 27.2302L16.1416 25.7947C15.9256 25.182 15.7096 24.5683 15.5072 23.948C14.569 20.9218 14.083 17.7837 13.7085 14.6456C13.4452 12.3666 13.2596 10.0504 13.2596 7.77151C13.2596 7.68578 13.2596 7.60552 13.2799 7.53698L13.2934 7.49858C13.3102 7.45535 13.3406 7.41812 13.3845 7.38874C13.4317 7.35654 13.4992 7.3338 13.5971 7.32321C16.2192 7.17377 18.7672 6.53864 21.2779 5.71674C21.3522 5.6794 21.4264 5.6794 21.5007 5.6794C21.5007 5.82884 21.5007 5.94089 21.5378 6.053C21.6525 7.32321 21.7268 8.63074 21.8752 9.90095C22.287 12.8897 22.9619 15.8037 23.9742 18.643C24.0485 18.9044 24.0114 18.9792 23.7854 19.0913C23.1138 19.4274 22.4758 19.7638 21.8752 20.212C21.0518 20.8099 20.4512 21.5943 20.1137 22.5657C19.7391 23.6117 20.3769 24.4335 21.5007 24.3215C21.99 24.2842 22.4758 24.1348 22.8876 23.948C23.6739 23.6117 24.4603 23.2007 25.2466 22.7898L25.3242 22.9393C26.2961 24.6951 27.2343 26.4884 28.2467 28.2069C28.6584 28.8793 29.1815 29.4771 29.7079 30.0747C29.8598 30.2501 30.0521 30.3868 30.2546 30.5001L30.3863 30.5712L30.6023 30.6755L30.6798 30.7099C31.2063 30.934 31.7293 30.7099 31.9184 30.1496C32.0296 29.7385 32.1039 29.2903 32.1039 28.8793C32.0837 28.3262 31.9284 27.799 31.7293 27.2905C31.6079 26.9807 31.4695 26.6776 31.3311 26.3797L31.2804 26.2642C30.6292 24.8076 29.9778 23.3251 29.3231 21.8384L28.9183 20.9218C28.8069 20.6604 28.844 20.5483 29.1443 20.3988C31.2063 19.4649 33.3761 18.8297 35.5496 18.2694L35.8026 18.2138L35.8532 18.2003C35.9679 18.1704 36.0861 18.1398 36.2245 18.1199L36.6732 20.5109C37.4224 24.5083 38.6238 28.3562 40.2336 32.0922C40.5711 32.9141 41.0941 33.6986 41.6206 34.4084C41.9952 34.9689 42.596 35.3798 43.2674 35.5292C43.8682 35.6787 44.3912 35.5292 44.7658 35.0435C44.992 34.7073 45.2181 34.3337 45.2923 33.9602C45.4778 33.2504 45.4409 32.5031 45.181 31.8306C44.7658 30.6353 44.3171 29.4398 43.7197 28.3189ZM155.851 22.5266C155.213 21.5553 154.39 20.7333 153.492 20.0235C151.093 18.0809 148.508 16.4371 145.737 15.0175C142.852 13.5604 139.814 12.4771 136.78 11.431L136.467 11.3277L136.052 11.1665L135.657 10.9827C135.319 10.8333 135.282 10.6091 135.545 10.385C135.92 10.0487 136.295 9.67517 136.743 9.41363C138.88 8.10608 141.201 7.39624 143.675 6.94794C145.322 6.64905 146.972 6.537 148.619 7.17209C148.808 7.2468 149.031 7.28419 149.257 7.32151C149.82 7.39624 150.38 7.43362 150.944 7.20946C151.656 6.9106 151.994 6.27546 151.768 5.52828C151.619 4.89321 151.204 4.44491 150.607 4.14602C149.668 3.66034 148.619 3.54829 147.573 3.54829C145.025 3.54829 142.551 4.03392 140.152 4.85582C137.719 5.7151 135.471 6.94794 133.635 8.81588C133.46 9.00724 133.281 9.20539 133.112 9.41041C132.94 9.6246 132.775 9.84616 132.63 10.0752L132.511 10.2729C132.174 10.8707 132.137 11.5805 132.623 12.1408C133.035 12.5891 133.52 12.9254 134.158 13.0001L134.442 13.0441C134.611 13.0742 134.779 13.1152 134.945 13.1868C136.895 13.8593 138.88 14.4945 140.79 15.2416C144.873 16.848 148.545 19.1643 151.953 21.8915C152.405 22.265 152.817 22.7134 153.192 23.1618C153.529 23.5727 153.566 24.133 153.229 24.4693L152.972 24.7303C152.567 25.1449 152.149 25.5744 151.656 25.8515C151.187 26.1086 150.688 26.3364 150.178 26.5168C149.874 26.6246 149.564 26.7156 149.257 26.7856C147.046 27.2711 144.836 27.6447 142.626 28.0184C141.502 28.2052 140.341 28.3172 139.18 28.4293C138.579 28.5041 138.431 28.3172 138.394 27.7195L138.387 27.047C138.377 26.5987 138.367 26.1505 138.394 25.7021C138.451 25.1113 138.522 24.5102 138.593 23.9098L138.768 22.3025C138.805 21.9288 138.917 21.6301 139.217 21.4058C140.041 20.7333 140.678 19.9489 141.016 18.9028C141.353 17.7447 140.715 16.8854 139.517 16.8107C139.247 16.7958 138.984 16.8165 138.728 16.8657C138.471 16.9149 138.218 16.9926 137.972 17.0917C137.847 17.1422 137.725 17.1983 137.604 17.259C136.143 17.9314 134.87 18.828 133.71 19.9115C130.338 23.0123 127.153 26.2626 124.156 29.6995L124.021 29.8342L123.936 29.9253L123.781 30.1105L123.734 29.963C123.717 29.9198 123.707 29.8899 123.707 29.8489C123.295 27.9063 122.88 25.9262 122.505 23.9836C122.431 23.564 122.367 23.1445 122.306 22.725C122.182 21.8744 122.08 21.0238 121.982 20.173C121.908 19.5378 121.945 19.5005 122.546 19.3512L123.781 19.0148L124.557 18.8261L124.669 18.798C126.221 18.4211 127.78 18.0399 129.289 17.6327C130.075 17.4084 130.824 17.1096 131.536 16.736C131.985 16.4744 132.434 16.0635 132.734 15.6526C133.183 15.0548 133.072 14.0461 132.623 13.4857C132.211 12.9627 131.388 12.7759 130.598 13.0374C130.47 13.0804 130.348 13.1332 130.234 13.195C130.058 13.2887 129.903 13.403 129.758 13.5346L129.582 13.7118C129.478 13.8263 129.38 13.9507 129.289 14.0835C129.026 14.4945 128.651 14.7559 128.128 14.8307C126.778 15.0922 125.428 15.3911 124.044 15.6899L123.326 15.8682C122.776 16.0065 122.219 16.1465 121.645 16.2503C121.007 16.3997 120.896 16.2877 120.784 15.6526C120.747 15.5405 120.747 15.4284 120.747 15.3164L120.622 14.1423C120.572 13.7117 120.524 13.2812 120.484 12.8506C120.373 11.4683 120.295 10.0861 120.221 8.66644C120.184 8.14342 120.447 7.76982 120.933 7.58306L121.122 7.51092L121.335 7.43151L121.632 7.33007L121.797 7.28419L130.487 5.603C131.573 5.37884 132.623 5.19208 133.672 4.89321C134.57 4.66906 135.319 4.18336 135.809 3.36146C136.106 2.91315 136.068 2.42751 135.809 1.9792C135.508 1.5309 135.059 1.38146 134.57 1.49351C134.195 1.56823 133.784 1.68033 133.446 1.8671L133.021 2.0641L132.289 2.4293C131.995 2.57911 131.695 2.73092 131.388 2.87581C130.787 3.13731 130.186 3.39885 129.552 3.54829C128.054 3.92187 126.552 4.25807 125.053 4.59433L123.808 4.86083C121.871 5.28214 119.944 5.70192 117.936 5.64039C117.224 5.603 116.812 5.90188 116.664 6.61173C116.549 7.09736 116.475 7.58306 116.512 8.0687C116.586 9.93665 116.738 11.7672 116.887 13.6352C116.92 14.08 116.981 14.5248 117.045 14.9664L117.076 15.1718V15.1998L117.163 15.7901L117.221 16.2419L117.261 16.6239C117.298 16.9568 117.298 17.1335 117.217 17.2428C117.174 17.3018 117.106 17.3412 117.005 17.3747C116.9 17.4089 116.765 17.4371 116.59 17.4741L116.549 17.4832C115.726 17.6327 115.014 17.9688 114.602 18.716C114.116 19.5378 114.565 20.3972 115.5 20.4346C115.952 20.4719 116.401 20.3598 116.85 20.2478C117.673 20.0608 117.788 20.0608 118.199 20.8081L118.422 21.2563L119.323 23.8343L120.099 26.4157L120.282 27.0272L120.352 27.2718L121.088 29.7157C121.328 30.5295 121.567 31.3458 121.797 32.1653C121.982 32.7629 122.057 33.3981 122.131 33.9958C122.208 34.4068 122.394 34.7057 122.769 34.855C123.218 35.0418 123.707 35.0418 124.081 34.7804C124.53 34.4815 124.942 34.1452 125.317 33.7717C126.525 32.634 127.726 31.489 128.924 30.3431L129.734 29.5661L133.483 26.001L134.155 25.4037L134.833 24.8055C134.945 24.6934 135.096 24.6187 135.319 24.5066L135.285 24.8214C135.275 24.9365 135.265 25.0391 135.245 25.1417L135.147 25.9359L135.086 26.3677C134.978 27.2152 134.87 28.0564 134.796 28.915C134.722 29.7743 134.833 30.6335 135.134 31.4555C135.434 32.2399 135.957 32.6883 136.855 32.6508L137.698 32.6221L138.731 32.5841L139.403 32.5388C141.951 32.3147 144.498 31.9785 147.009 31.3807C149.52 30.783 151.768 29.6995 153.752 28.0931C154.839 27.1965 155.702 26.1505 155.999 24.7309C156.337 23.8716 156.263 23.1618 155.851 22.5266ZM64.9972 18.0826C65.4493 17.9332 65.9725 17.8958 66.4584 17.9705C67.2076 18.0826 67.545 18.6803 67.545 19.4649C67.4709 20.1374 67.1333 20.6604 66.6846 21.0713L65.8848 21.7932L65.166 22.4226C64.707 22.818 64.2379 23.2045 63.7621 23.5744C62.2637 24.7324 60.7653 25.8533 59.2669 27.0114C56.6819 29.066 54.2824 31.3076 52.035 33.6986L51.9236 33.8107C51.0596 34.67 50.162 34.67 49.45 33.6612C48.9268 32.9141 48.4375 32.0922 48.1406 31.2329C47.054 28.1321 46.0043 24.994 45.4409 21.7438C45.3666 21.4448 45.2551 21.1834 45.2181 20.8845C45.1404 20.4736 44.9177 20.2493 44.4689 20.2868L43.119 20.3988C43.0683 20.3988 43.0379 20.4157 42.9975 20.4266L42.9299 20.4361C42.1807 20.5109 41.4687 20.212 41.246 19.689C41.02 19.166 41.2831 18.4562 41.8839 17.9705C42.4441 17.5221 43.0818 17.3728 43.7939 17.4848L43.9255 17.5034L44.0537 17.5221C44.5059 17.5969 44.6174 17.5221 44.5802 17.0739C44.5431 16.0278 44.4283 15.0192 44.3542 13.9731L43.7939 7.02434C43.7569 6.68814 43.7569 6.38925 43.7939 6.09039C43.831 5.49264 44.0537 5.3432 44.6174 5.26849C45.6501 5.11837 46.6827 4.98057 47.7154 4.81976C48.4813 4.70037 49.2475 4.56834 50.0134 4.40921C51.7717 4.073 53.5334 3.58731 55.2578 3.06427C56.8675 2.57864 58.403 1.98089 59.979 1.4952C60.5022 1.30843 61.0656 1.15899 61.6258 1.15899C62.9014 1.12161 63.4988 1.98089 63.0129 3.139C62.7867 3.66202 62.4121 4.14772 62.0004 4.55863C61.0656 5.49264 59.8271 5.94095 58.592 6.35186C56.2701 7.06172 53.8708 7.39792 51.4747 7.54736C50.4252 7.62207 49.4128 7.62207 48.3633 7.6968C47.1652 7.77151 46.9021 8.03301 46.9391 9.26588C46.9391 10.0504 47.0909 10.8723 47.2024 11.6569L47.6513 15.1686L47.685 15.3213L47.6985 15.3972L47.7254 15.5048C47.8132 15.8112 47.8773 15.9638 48.019 16.0075C48.1202 16.0384 48.2586 16.015 48.4746 15.9531L49.0113 15.7979L49.5006 15.6484C50.3578 15.382 51.215 15.0885 52.0722 14.795C53.8708 14.1973 55.6695 13.7116 57.5797 13.5995C58.2174 13.5621 58.8923 13.5995 59.5672 13.6369L59.655 13.6537C59.8204 13.6863 60.0059 13.7227 60.1645 13.7863C60.691 13.9731 61.1028 14.3093 61.1399 14.9071C61.2142 15.5048 60.8768 15.9158 60.3907 16.1773C60.1815 16.2823 59.9587 16.3637 59.7293 16.4282L59.4964 16.4874L59.1926 16.5508L57.1679 16.9297L56.1758 17.1099L54.0497 17.501C53.2531 17.6503 52.4568 17.8048 51.6604 17.9705C50.81 18.1747 49.9865 18.5338 49.1968 18.8786L48.9639 18.9792C48.1776 19.3528 48.0629 19.6144 48.2519 20.4361C48.505 21.5039 48.7682 22.5716 49.0415 23.6392L49.5106 25.4063L49.7131 26.152C49.9561 27.0515 50.2329 27.9381 50.513 28.8269L50.5332 28.8777C50.7256 29.4856 50.918 30.0948 51.1002 30.7099C51.1002 30.7845 51.1372 30.8594 51.2115 31.0461L51.5322 30.6546L51.5726 30.6128L51.7515 30.4025L51.8864 30.2242C52.5615 29.3276 53.1958 28.3936 53.8708 27.497C56.4187 24.0599 59.4896 21.2207 63.1242 18.9792C63.7249 18.6056 64.3627 18.3067 64.9972 18.0826ZM214.381 19.3329L214.182 19.4649C213.93 19.6403 213.683 19.8243 213.441 20.0137L212.719 20.593L212.009 21.1834C210.626 22.4162 209.313 23.7239 207.926 24.9192C206.053 26.6004 204.254 28.3562 202.682 30.3363C202.644 30.3737 202.607 30.411 202.497 30.4858L202.388 30.1895L202.378 30.1722C202.296 29.9576 202.222 29.7548 202.196 29.5517L201.602 26.7685C201.227 25.021 200.852 23.2783 200.508 21.5197C200.42 21.0324 200.36 20.5322 200.306 20.0266L200.208 18.9792C200.171 18.7924 200.249 18.643 200.472 18.6056L201.868 18.1827C202.789 17.9015 203.712 17.6208 204.629 17.3728C205.384 17.1845 206.169 17.026 206.948 16.869L208.301 16.5882L209.218 16.3999C209.476 16.3436 209.731 16.2831 209.987 16.2146C210.326 16.1025 210.626 15.9158 210.886 15.6916C211.786 14.9071 211.523 13.5621 210.4 13.1512C209.09 12.6655 207.852 12.9271 206.728 13.6369C205.125 14.6497 203.347 15.2633 201.552 15.8845C200.83 16.134 200.104 16.3846 199.385 16.663L199.273 16.0652L199.254 15.9358C199.034 14.4866 198.822 13.0706 198.673 11.6195C198.632 11.3082 198.609 10.997 198.589 10.6857C198.568 10.3245 198.557 9.96333 198.547 9.60214L198.525 8.92967C198.525 8.71058 198.564 8.53393 198.673 8.41113C198.73 8.34637 198.804 8.29654 198.901 8.26338L199.007 8.23506L199.121 8.21982C199.236 8.21982 199.385 8.18248 199.496 8.14511C201.035 7.88362 202.607 7.6968 204.144 7.3606C206.464 6.8749 208.753 6.20244 210.963 5.30582C211.898 4.93223 212.762 4.44658 213.434 3.66202C214.26 2.69069 213.845 1.23371 212.574 0.93484C212.124 0.822735 211.635 0.897455 211.186 1.00956C210.663 1.19633 210.136 1.4952 209.65 1.75674C209.334 1.93661 209.026 2.13697 208.719 2.33698C208.192 2.67697 207.67 3.01587 207.103 3.2511C205.192 4.11033 203.209 4.74547 201.146 5.23109C199.421 5.64208 197.7 5.75413 195.94 5.6794C194.963 5.64208 194.44 6.1651 194.326 7.13644L194.309 7.27579C194.29 7.45207 194.295 7.62356 194.326 7.77151L194.421 8.35893L194.651 9.75705C194.737 10.2687 194.829 10.7795 194.927 11.2833C195.155 12.375 195.395 13.4668 195.636 14.5586L196.088 16.663C196.202 17.2233 196.163 17.2607 195.639 17.4848C195.076 17.7464 194.589 18.0826 194.252 18.6056C194.1 18.8479 194.008 19.1033 194.022 19.3638L194.032 19.4682C194.053 19.6156 194.113 19.7643 194.215 19.9131C194.357 20.1244 194.521 20.2692 194.715 20.3518C194.927 20.4442 195.176 20.4581 195.452 20.3988L195.902 20.2868C196.536 20.1747 196.8 20.2868 196.989 20.8845C197.087 21.1558 197.184 21.4372 197.268 21.7235C197.35 21.9889 197.42 22.2587 197.474 22.5284L197.505 22.6595C198.132 25.6055 198.766 28.5841 200.097 31.3451C200.221 31.6146 200.299 31.9189 200.339 32.2321C200.37 32.483 200.377 32.7396 200.36 32.9888C200.323 34.2964 201.22 35.193 202.533 34.9689C203.283 34.8567 203.921 34.4832 204.442 33.9228C205.044 33.2877 205.604 32.6152 206.169 31.9054C207.402 30.3363 208.753 28.9167 210.362 27.7212C212.347 26.2268 214.372 24.7699 216.394 23.3128C217.405 22.603 217.818 21.6316 217.743 20.4361C217.743 19.3528 216.731 18.5683 215.57 18.8671C215.259 18.9384 214.95 19.0398 214.659 19.1812L214.381 19.3329ZM116.175 27.4223C117.599 28.73 118.874 30.2242 119.883 31.8681C120.336 32.5406 120.632 33.2877 120.822 34.1096C121.085 34.7821 121.122 35.4546 120.484 35.9776C119.846 36.4631 119.134 36.3138 118.537 35.9401L118.213 35.72C118.01 35.5792 117.811 35.4323 117.626 35.278C117.396 35.0879 117.184 34.8865 117.001 34.67C116.586 34.19 116.181 33.7053 115.78 33.2175C115.341 32.6885 114.912 32.1559 114.484 31.6219L113.627 30.5604L112.496 29.1821L111.97 28.5575C111.693 28.2258 111.409 27.8966 111.119 27.5718C110.61 26.9897 110.053 26.452 109.466 25.9499C109.101 25.6383 108.723 25.3406 108.339 25.0545C108.072 24.8544 107.799 24.6602 107.522 24.471C107.485 24.4337 107.448 24.3962 107.407 24.3962L107.157 24.2865C106.908 24.1726 106.648 24.0522 106.509 24.1348C106.28 24.2611 106.155 24.5239 106.108 24.8079C106.088 24.9441 106.084 25.0851 106.098 25.2181L106.435 27.7212L106.476 28.015L106.675 29.3985C106.776 30.1097 106.874 30.8207 106.958 31.5318C107.005 31.9009 106.992 32.2862 106.955 32.6664L106.924 32.9452L106.884 33.2504C106.81 33.8107 106.547 34.2591 105.909 34.371C105.237 34.4832 104.674 34.3337 104.336 33.7361C104.113 33.2877 103.962 32.7647 103.887 32.2416C103.813 31.7684 103.803 31.2951 103.796 30.8219C103.793 30.5853 103.789 30.3488 103.776 30.1121C103.712 29.3371 103.638 28.5504 103.563 27.765C103.506 27.1497 103.449 26.5353 103.401 25.9279C103.401 25.7168 103.357 25.5792 103.229 25.5153C103.155 25.4776 103.05 25.4657 102.912 25.4797C102.426 25.5544 102.014 25.2556 101.863 24.8072C101.528 23.7612 101.603 22.7525 102.5 22.1173C103.064 21.7064 103.175 21.2207 103.101 20.6231L103.071 20.4081L103.05 20.3033L102.784 18.5801L102.649 17.6377L102.575 17.0739L102.126 13.7116L102.119 13.5573C102.112 13.5187 102.105 13.4811 102.089 13.4501C101.977 13.0018 101.863 12.9644 101.451 13.0765C101.002 13.2259 100.59 13.4127 100.141 13.5248L99.804 13.6093C99.6284 13.6546 99.4496 13.7007 99.2708 13.7352C99.0513 13.7775 98.8286 13.8022 98.6059 13.7863C98.1908 13.749 97.742 13.5622 97.3674 13.338C96.8443 13.0018 96.8072 12.3667 97.2931 11.9557C97.5935 11.7316 97.931 11.5074 98.2684 11.358C102.75 9.19696 107.194 7.0731 111.639 4.94932L111.679 4.93223C112.618 4.48392 113.552 3.99828 114.454 3.51265C115.166 3.13905 115.8 3.3632 116.1 4.073C116.202 4.3234 116.249 4.58132 116.259 4.84333C116.269 5.16761 116.222 5.49824 116.137 5.82884C115.689 7.58475 114.939 9.22854 114.038 10.7976C112.692 13.1139 111.305 15.3928 109.918 17.6716C109.169 18.9792 108.382 20.2868 107.633 21.5943C108.534 22.0427 109.358 22.4911 110.218 22.9019C112.503 24.0226 114.339 25.7038 116.175 27.4223ZM105.818 18.9979L106.061 18.7176C107.559 16.7377 109.057 14.7577 110.556 12.7403C111.679 11.1712 112.503 9.45269 113.289 7.6968C113.374 7.53138 113.418 7.36597 113.461 7.18553L113.515 6.987C113.35 7.00741 113.208 7.05012 113.077 7.10291C112.969 7.14678 112.867 7.19766 112.766 7.2485C111.679 7.75258 110.603 8.26601 109.526 8.77944C108.45 9.2934 107.37 9.80735 106.283 10.3119C105.986 10.4614 105.649 10.6108 105.348 10.7602L105.264 10.8131L105.16 10.8959L105.106 10.9549C105.058 11.0106 105.018 11.0712 104.988 11.1352C104.916 11.2843 104.9 11.4519 104.937 11.6195C105.386 13.8611 105.423 16.1773 105.423 18.4562V19.2406C105.497 19.2406 105.534 19.2781 105.571 19.2781L105.818 18.9979ZM188.745 11.7673C189.683 12.253 190.58 12.8508 191.366 13.5232C193.054 14.9055 193.54 16.5119 192.868 18.5666C192.304 20.0983 191.408 21.4433 190.431 22.7136C187.736 26.188 184.735 29.3634 181.104 31.9039C180.78 32.1191 180.45 32.3282 180.114 32.5309L179.494 32.8994L178.668 33.3608C178.293 33.5476 177.88 33.697 177.469 33.7718C176.156 34.0333 175.482 33.5476 175.185 32.1653C175.05 31.564 175.154 30.9027 175.259 30.2619L175.295 30.0359L175.482 28.976L175.701 27.7973L175.712 27.757C175.981 26.3269 176.247 24.9017 176.42 23.4607C176.757 20.6962 176.98 17.8943 177.132 15.1296C177.189 14.1533 177.061 13.1535 176.93 12.1488L176.831 11.3564C176.831 11.0949 176.647 10.8708 176.456 10.6839C175.971 10.2318 175.383 10.0711 174.763 9.90026L174.622 9.86204C174.095 9.72604 173.578 9.57993 173.068 9.41841L172.559 9.25074L172.289 9.15799L171.661 8.92808C171.098 8.74127 170.612 8.33034 170.2 7.95676C169.677 7.47106 169.451 6.83599 169.714 6.12614C169.974 5.41634 170.612 5.19218 171.324 5.11747C172.336 5.04274 173.308 5.30423 174.283 5.64049C174.81 5.82727 175.295 6.01409 175.783 6.20085C175.853 6.22843 175.928 6.24583 176.006 6.26055L176.211 6.29787L176.42 6.35029C176.45 6.21429 176.467 6.09049 176.484 5.97644L176.488 5.94084C176.508 5.78772 176.527 5.65236 176.569 5.52839C176.757 4.89332 177.132 4.37028 177.806 4.25818C178.52 4.10875 179.079 4.48233 179.491 5.04274C179.879 5.62784 180.044 6.29771 180.206 6.95405L180.216 6.98426L180.277 7.24691L180.327 7.38468L180.401 7.55021C180.439 7.61634 180.475 7.6784 180.52 7.73139C180.56 7.77694 180.605 7.81575 180.652 7.84466L181.462 8.31294C181.775 8.48743 182.096 8.657 182.412 8.81598C184.512 9.78733 186.649 10.7213 188.745 11.7673ZM188.448 21.8168C189.345 20.6962 190.169 19.5007 190.732 18.1557C191.069 17.2964 190.917 16.8855 190.056 16.4746C188.031 15.5032 185.973 14.5319 183.912 13.5605C183.126 13.187 182.34 12.776 181.552 12.4398C181.253 12.3277 180.914 12.253 180.577 12.1783C180.315 12.1036 180.202 12.2156 180.24 12.5145L180.298 13.4636C180.308 13.7076 180.315 13.9516 180.315 14.1957C180.315 16.8855 180.092 19.5753 179.753 22.2279C179.586 23.5575 179.383 24.8871 179.18 26.2166L178.856 28.392C178.779 28.8777 178.668 29.4007 178.594 29.8864C178.616 29.9097 178.641 29.9186 178.665 29.9308L178.704 29.9611L178.839 29.889C178.931 29.8353 179.015 29.7762 179.116 29.6996L180.18 28.9318L180.33 28.82C181.604 27.9037 182.889 26.971 184.139 26.0385C185.747 24.8057 187.209 23.4234 188.448 21.8168ZM171.736 30.5592C171.061 30.0362 170.312 29.5878 169.414 29.5505L168.85 29.5305L167.554 29.4994L166.866 29.4759C165.705 29.4386 165.216 29.0275 165.03 27.8693C164.98 27.5206 164.963 27.172 164.946 26.8233L164.919 26.3003L164.71 20.9439L164.625 18.5908L164.581 16.9606L164.514 14.8793L164.467 13.1892L164.318 6.8363C164.318 6.64964 164.325 6.47236 164.342 6.29503C164.362 6.11743 164.392 5.93984 164.429 5.75292C164.467 5.60348 164.618 5.45404 164.767 5.41665L169.751 4.40798C170.612 4.22117 171.435 3.99701 172.262 3.73552C172.859 3.51137 173.27 3.06306 173.422 2.42794C173.683 1.30716 172.933 0.447934 171.81 0.597369L171.51 0.666077L171.128 0.777652L170.98 0.829643L170.723 0.933574C168.85 1.79285 166.829 2.16644 164.841 2.50265C164.281 2.61475 163.795 2.46533 163.42 1.94229C162.745 1.00829 161.058 1.23245 160.646 2.24117C160.589 2.37045 160.522 2.47761 160.444 2.56487C160.279 2.75486 160.069 2.85067 159.786 2.87624L154.99 3.43666L154.889 3.44567C154.505 3.48027 154.093 3.51738 153.715 3.5861C152.817 3.81025 152.216 4.70687 152.291 5.67819C152.328 6.50009 152.966 7.17256 153.904 7.28461C154.241 7.322 154.616 7.35932 154.99 7.28461C155.375 7.21869 155.757 7.14635 156.134 7.07037L157.471 6.79354L157.511 6.78547L158.885 6.5001C159.155 6.44309 159.327 6.40786 159.442 6.42749C159.631 6.45928 159.664 6.63556 159.712 7.09784C160.009 9.67559 160.235 12.2907 160.572 14.8685L161.922 25.7026L161.996 26.2833L162.054 26.6999L162.371 28.7286C162.445 29.2516 162.408 29.3264 161.922 29.4759C161.585 29.5878 161.21 29.7 160.835 29.7746L159.782 30.0094C159.35 30.1026 158.925 30.1945 158.51 30.2976C157.798 30.4846 157.123 30.8207 156.563 31.3064C156.313 31.5351 156.121 31.7985 156.026 32.0901C155.949 32.3225 155.932 32.573 155.999 32.8381C156.151 33.4733 156.6 33.7722 157.164 33.959L157.235 33.9776L157.42 34.0199L157.575 34.0336L159.486 34.1457V34.2204C161.433 33.9876 163.377 33.7727 165.31 33.5508L167.878 33.2492C169.151 33.0997 170.426 32.8008 171.587 32.2404C172.485 31.8294 172.374 31.0823 171.736 30.5592ZM98.2448 15.6461L98.7914 16.1399C99.7297 16.9992 100.216 18.1573 100.401 19.3901C100.516 20.4736 99.9895 21.4075 99.2032 22.1546C98.2684 22.9766 97.1818 23.425 96.0208 23.8358C93.9588 24.5456 91.8227 24.994 89.6123 25.0687C89.5077 25.0687 89.4232 25.0747 89.3558 25.0899C89.1264 25.1405 89.0858 25.2931 89.2005 25.6665C89.6123 26.9366 90.024 28.1321 90.3986 29.4024C90.6989 30.4858 90.9622 31.5692 90.8103 32.7273C90.8103 32.8768 90.7732 33.0261 90.736 33.1755C90.3615 34.4085 89.1634 34.7073 88.2625 33.8107C87.6651 33.213 87.2905 32.4657 87.1015 31.6813C86.6898 30.1496 86.3895 28.5805 86.0149 27.0488L85.566 25.2929C85.4547 24.8072 85.1542 24.5083 84.6312 24.3962C84.0676 24.2469 83.5074 24.0599 82.9809 23.8358C82.5829 23.6601 82.225 23.4198 81.9247 23.1148C81.712 22.9011 81.5264 22.6559 81.3713 22.3789C80.5074 20.8845 81.6716 19.8758 82.8325 19.8385C83.5446 19.8011 84.2195 19.9879 84.8168 20.3988L85.1173 20.5856C85.134 20.5856 85.1509 20.5769 85.1677 20.568C85.1881 20.5583 85.2083 20.5483 85.2285 20.5483L85.134 19.8659C85.0666 19.3249 84.9991 18.7971 84.8911 18.2694L82.9809 8.51869C82.9438 8.33193 82.8325 8.14511 82.6806 7.99567C82.009 7.28587 81.2566 6.57602 80.5478 5.90356C80.0213 5.38054 79.6097 4.82018 79.3836 4.14772C79.2721 3.81146 79.2351 3.47526 79.2351 3.139C79.2721 2.50391 79.7582 2.01823 80.3959 2.0556C80.5984 2.07407 80.8211 2.1017 81.0406 2.15205C81.2633 2.20347 81.4826 2.27855 81.6716 2.39181C82.3836 2.7654 83.0552 3.21371 83.6558 3.69941C88.0026 7.21116 92.3087 10.7229 96.6182 14.2346C97.1581 14.6668 97.6846 15.1381 98.2043 15.6061L98.2448 15.6461ZM93.2096 21.7811C94.5596 21.4822 95.8318 21.034 96.9928 20.2868C97.8162 19.7638 97.8162 19.4276 96.9928 18.7924C94.1074 16.3267 91.1106 14.0104 88.0397 11.8063C87.7393 11.5821 87.439 11.3953 87.1015 11.2086L86.8586 11.1252C86.7404 11.0888 86.6155 11.049 86.4671 10.9844C86.5042 11.2459 86.5042 11.4327 86.5414 11.6195C86.8147 13.4616 87.0542 15.2725 87.2938 17.0807L87.3647 17.5969C87.439 18.0826 87.5065 18.5683 87.5706 19.0538L87.6786 19.8271L87.7764 20.5109C87.8507 20.9966 88.1139 21.4075 88.5999 21.6316C89.4267 21.9679 90.2872 22.2295 91.1849 22.1173C91.8598 22.0054 92.5347 21.9305 93.2096 21.7811ZM271.654 21.6689L271.481 21.5475L271.388 21.4721C271.289 21.3946 271.191 21.3163 271.094 21.2581C270.46 20.899 269.831 20.5291 269.204 20.1585C268.606 19.8072 268.01 19.4554 267.405 19.1124C266.991 18.876 266.572 18.644 266.146 18.4189C265.653 18.1581 265.157 17.9038 264.661 17.6534L263.737 17.1887C262.127 16.389 260.504 15.6169 258.88 14.795C257.449 14.0806 256.039 13.3444 254.631 12.6198L253.335 11.9557C253.126 11.8516 252.938 11.7112 252.715 11.5472L252.397 11.3206C252.736 11.0591 252.962 10.835 253.221 10.6481C255.806 8.85489 258.692 7.80885 261.726 7.09905C262.664 6.8749 263.602 6.72546 264.537 6.94961C265.047 7.08328 265.556 7.29342 266.052 7.49794L266.636 7.73412C267.385 8.03301 268.134 7.88357 268.584 7.2485C269.031 6.68814 268.957 5.97829 268.435 5.3432C267.797 4.63336 267.01 4.33448 266.071 4.33448C263.15 4.25977 260.416 5.04433 257.831 6.35186C257.152 6.68981 256.475 7.04891 255.803 7.41786C255.212 7.7423 254.624 8.07444 254.047 8.40658C253.147 8.92962 252.212 9.34059 251.163 9.52735C250.789 9.60208 250.414 9.7889 250.077 9.97566C249.401 10.3866 249.29 11.2086 249.627 11.9183C249.925 12.5535 250.45 12.9271 251.011 13.3006C255.547 16.2146 260.306 18.7551 265.137 21.1834L265.617 21.4213C266.588 21.9038 267.578 22.3939 268.509 22.9393C268.921 23.1634 269.295 23.4996 269.632 23.8358C269.969 24.1348 269.933 24.3589 269.669 24.6951C269.069 25.4424 268.357 26.1147 267.423 26.4884L266.071 27.0116C265.278 27.3117 264.473 27.5953 263.639 27.8332C261.613 28.3936 259.556 28.7673 257.456 28.73C257.126 28.7134 256.801 28.6823 256.489 28.6171C256.093 28.5349 255.711 28.3987 255.357 28.1695C254.797 27.7959 254.535 27.2729 254.719 26.6377C254.84 26.2737 254.996 25.9205 255.172 25.5784C255.321 25.2886 255.487 25.0066 255.658 24.7324C255.834 24.4337 256.026 24.1513 256.217 23.874L256.309 23.747C256.497 23.4785 256.684 23.2128 256.855 22.9393C257.23 22.3414 257.456 21.6689 257.42 20.9218C257.382 19.8011 256.596 19.2406 255.509 19.5395C255.293 19.6043 255.063 19.6816 254.844 19.7787L254.578 19.9095L254.386 20.0252C253.335 20.6604 252.435 21.4822 251.723 22.4536C250.863 23.6491 250.45 24.9567 250.714 26.4136C251.125 28.6178 252.361 30.1869 254.46 31.0461C255.732 31.5692 257.119 31.6438 258.469 31.6065C260.827 31.5318 263.113 31.0088 265.397 30.3363C267.797 29.6265 269.933 28.4684 271.842 26.7499C273.415 25.4797 273.415 22.7898 271.654 21.6689ZM247.511 24.5427C247.582 25.4099 247.652 26.2721 247.754 27.1234C247.829 27.8332 248.088 28.5805 248.314 29.3276C248.577 30.0747 248.725 30.822 248.651 31.6065C248.577 32.167 248.463 32.7273 247.865 32.9514C247.265 33.1755 246.742 32.8768 246.293 32.4657C245.206 31.4945 244.717 30.1869 244.494 28.8419C244.231 27.1982 244.005 25.5544 243.894 23.8732C243.718 20.9054 243.58 17.9539 243.438 14.9971L243.219 10.4614C243.181 9.82629 243.07 9.22854 242.918 8.63079C242.695 7.84623 242.168 7.54736 241.382 7.73418C240.805 7.87254 240.242 8.03933 239.675 8.20828L238.612 8.51869C237.6 8.78023 236.551 9.04172 235.464 8.85494C234.491 8.66813 233.702 8.21982 233.291 7.28587C232.952 6.50131 233.216 5.82884 234.002 5.52998C234.336 5.41919 234.711 5.37005 235.082 5.32158L235.464 5.26849C237.299 5.3432 239.024 4.96962 240.748 4.48392C244.119 3.54997 247.492 2.65335 250.863 1.75674L251.696 1.54714C252.188 1.41916 252.679 1.29235 253.183 1.19633C253.897 1.04689 254.571 1.15899 255.246 1.42048C255.846 1.68202 256.295 2.09294 256.369 2.7654C256.444 3.43786 256.069 3.88617 255.547 4.22243C254.609 4.85752 253.522 5.00694 252.435 5.08167C250.751 5.23109 249.026 5.38054 247.379 5.94095C247.136 6.01339 246.911 6.10146 246.688 6.19506L246.331 6.35186C245.693 6.61341 245.392 7.47265 245.503 8.14511C245.767 9.75156 245.992 11.3954 246.179 13.0018L246.547 15.9703C246.809 18.0956 247.072 20.2272 247.302 22.3416C247.39 23.0764 247.45 23.8113 247.511 24.5427Z" fill="#FCEF9A"/>
</svg>
