<svg width="321" height="48" viewBox="0 0 321 48" fill="none" xmlns="http://www.w3.org/2000/svg">
<path d="M301.179 7.03996C301.985 7.66871 302.897 8.14657 303.87 8.45843C303.044 8.77533 302.177 8.97904 301.295 9.06204C297.792 9.43678 294.29 9.87439 291.174 11.7531C289.783 12.6032 289.667 13.8783 291.07 14.7284C291.847 15.2012 292.683 15.5684 293.556 15.8224C294.812 16.1821 296.061 16.5669 297.324 16.9668L301.05 18.1539C300.503 18.5915 299.928 18.6971 299.373 18.7977C299.013 18.8631 298.662 18.9285 298.333 19.0819C295.271 20.3797 292.328 21.944 289.538 23.7548C288.799 24.2251 288.171 24.8514 287.697 25.5883C287.223 26.3252 286.913 27.1552 286.791 28.0228C286.669 28.8905 286.736 29.7758 286.988 30.6133C287.24 31.4533 287.671 32.228 288.25 32.8844C290.62 35.5755 293.749 36.1816 297.058 36.3627C302.523 36.5915 307.993 36.0282 313.296 34.6877C315.788 34.318 318.145 33.322 320.147 31.7904C320.906 31.1214 321.177 30.3492 320.507 29.5495C320.377 29.3759 320.214 29.2326 320.027 29.1219L319.892 29.054C319.819 29.0188 319.742 28.9886 319.664 28.966L319.562 28.9408L319.419 28.9132C319.205 28.8855 318.987 28.9006 318.778 28.9559C318.569 29.0112 318.373 29.1093 318.202 29.2401C317.764 29.4866 317.352 29.7305 316.915 29.9494C314.642 31.0836 312.204 31.5062 309.749 31.9312L308.689 32.1173L307.682 32.3059C303.333 33.1837 298.87 33.3446 294.47 32.7813C293.619 32.6656 292.815 32.3261 292.137 31.7979C291.459 31.2723 290.931 30.5756 290.607 29.7808C290.298 28.1989 291.058 26.9489 292.963 25.8146C297.866 23.1009 303.149 21.1392 308.635 19.9949C309.459 19.8138 310.18 19.5698 310.18 18.7072C310.201 18.506 310.182 18.3048 310.124 18.1111C310.066 17.9175 309.97 17.7364 309.842 17.5804C309.714 17.4245 309.556 17.2962 309.377 17.2032C309.29 17.1579 309.2 17.1202 309.106 17.0925C309.007 17.0623 308.905 17.0422 308.802 17.0322C306.922 16.6599 305.055 16.2223 303.201 15.7445C300.715 15.1409 298.333 14.4719 295.564 13.7501C295.754 13.6369 295.898 13.5413 296.013 13.4608L296.037 13.4457C296.235 13.3099 296.345 13.2345 296.466 13.2345C297.974 13.0182 299.476 12.7566 300.978 12.4951C304.298 11.9141 307.617 11.3331 311.004 11.2526C311.705 11.1872 312.374 10.9282 312.935 10.5057C313.214 10.3648 313.445 10.1485 313.6 9.87942C313.755 9.61032 313.828 9.30097 313.808 8.9891C313.799 8.84323 313.77 8.69987 313.722 8.56406C313.668 8.41065 313.591 8.26477 313.492 8.13399C313.305 7.88501 313.048 7.69889 312.755 7.59578L312.446 7.45242L312.278 7.38703L312.04 7.299C311.777 7.21098 311.509 7.14307 311.236 7.09277C309.228 6.8136 307.255 6.32066 305.351 5.62399C304.431 5.21907 303.484 4.87452 302.518 4.59535C301.861 4.40169 301.114 4.31115 300.728 5.16123C300.635 5.35237 300.583 5.5586 300.575 5.76987C300.57 5.90819 300.583 6.04652 300.616 6.18233C300.698 6.52437 300.897 6.82869 301.179 7.03996Z" fill="#FCEF9A"/>
<path fill-rule="evenodd" clip-rule="evenodd" d="M126.838 36.5312C119.318 37.2253 112.995 31.5615 110.651 25.6763C109.544 22.8947 110.935 20.1508 113.008 17.9502C115.081 15.747 118.159 15.2842 121.172 14.9371C127.791 14.2028 134.049 19.5975 135.813 25.2387C137.024 29.1018 135.813 33.6716 131.525 35.4749C130.099 36.2772 128.47 36.6444 126.838 36.5312ZM119.524 31.0711C121.094 32.2405 123.012 32.8542 124.971 32.8089C126.016 32.985 127.091 32.8492 128.061 32.4216C130.379 31.6998 132.272 30.1304 131.924 27.8367C131.401 25.5405 130.342 23.4002 128.834 21.5919C128.521 21.2272 128.164 20.9078 127.772 20.6387C127.578 20.5054 127.376 20.3847 127.167 20.2766C126.908 20.1458 126.639 20.0351 126.361 19.9446C125.289 19.5145 124.156 19.4743 123.027 19.434H122.987C122.204 19.4038 121.424 19.3737 120.67 19.2102C119.652 18.9889 118.595 19.0165 117.59 19.2907C116.585 19.5673 115.662 20.0829 114.901 20.7946C114.548 21.0587 114.254 21.3882 114.035 21.7629C113.903 21.9893 113.797 22.2332 113.722 22.4898C113.525 23.1688 113.554 23.8932 113.806 24.5546C114.945 27.296 116.954 29.5847 119.524 31.0711Z" fill="#FCEF9A"/>
<path d="M145.986 16.4311C149.485 17.3692 153.079 17.9099 156.699 18.0407H157.639L157.957 18.0382C158.855 18.0281 159.88 18.0181 159.88 16.8687C159.889 16.582 159.839 16.2953 159.733 16.0287C159.626 15.7646 159.465 15.5231 159.261 15.3219C159.214 15.2742 159.165 15.2314 159.114 15.1912L159.001 15.1057C158.86 15.0076 158.706 14.9246 158.544 14.8617C158.495 14.8416 158.445 14.8265 158.394 14.8139L158.347 14.7988L158.309 14.7913C158.26 14.7762 158.211 14.7661 158.161 14.7586L158.031 14.741L157.903 14.7309H157.704L157.445 14.7234C157.325 14.7183 157.207 14.7083 157.09 14.6957C156.931 14.6806 156.775 14.6605 156.619 14.6379L156.369 14.6001C156.098 14.5574 155.831 14.5171 155.562 14.492C155.418 14.4794 155.274 14.4719 155.129 14.4719C151.387 14.1172 147.708 13.2772 144.183 11.9744C141.766 11.1596 139.564 9.809 137.745 8.02082C137.133 7.3317 136.299 6.87648 135.388 6.73312C134.77 6.67025 134.01 6.51431 133.701 7.26128C133.532 7.57063 133.469 7.92776 133.523 8.27735C133.558 8.50873 133.644 8.73005 133.771 8.9212C133.836 9.01928 133.912 9.10982 133.997 9.19282C135.117 10.4755 136.383 11.6198 137.77 12.6057C138.438 12.8899 139.031 13.325 139.506 13.8733C139.982 14.4216 140.326 15.073 140.513 15.7721C140.951 18.1161 141.479 20.4601 141.904 22.8042C142.007 23.3323 142.148 24.0919 141.208 24.0919C141.153 24.0868 141.098 24.0868 141.042 24.0893L140.923 24.0994C140.803 24.1145 140.684 24.1422 140.569 24.1824C140.365 24.2578 140.178 24.3735 140.021 24.5219C139.864 24.6728 139.739 24.8539 139.655 25.0551C139.572 25.2563 139.53 25.4701 139.534 25.6889C139.531 25.9203 139.574 26.1491 139.662 26.3629C139.75 26.5792 139.88 26.7729 140.045 26.9338C140.21 27.0973 140.406 27.2256 140.621 27.3086C140.837 27.3941 141.067 27.4343 141.299 27.4268C142.931 27.5022 143.08 28.5057 143.263 29.7406L143.282 29.8613C143.579 32.0318 144.009 34.1821 144.569 36.2998C144.581 36.413 144.603 36.5211 144.636 36.6268L144.68 36.7475C144.721 36.8556 144.773 36.9562 144.835 37.0518C144.897 37.1499 144.969 37.2404 145.049 37.3209C145.156 37.4316 145.279 37.5271 145.413 37.6051C145.646 37.7409 145.909 37.8189 146.178 37.834H146.359L146.488 37.8214C146.652 37.8013 146.812 37.756 146.964 37.6906C148.252 37.2781 148.342 36.2998 148.252 35.3215C148.205 34.7455 148.119 34.1746 148.012 33.6087C147.766 32.3034 147.416 31.0182 147.209 29.7054L147.206 29.6828C146.823 27.2457 146.805 27.13 149.295 27.0269C149.454 27.0395 149.613 27.0395 149.772 27.0269C150.686 26.8609 151.806 26.7175 151.703 25.5732C151.675 25.3167 151.593 25.0677 151.462 24.8438C151.332 24.62 151.156 24.4289 150.946 24.278C150.8 24.1723 150.64 24.0893 150.472 24.0315C150.397 24.0063 150.32 23.9862 150.243 23.9711C149.989 23.9183 149.728 23.9208 149.476 23.9762C149.18 24.0315 148.894 24.0592 148.606 24.0742L148.245 24.0893L147.916 24.0969L147.235 24.117C146.424 24.1572 145.818 23.7322 145.818 22.9324C145.694 21.0713 145.317 19.2328 144.698 17.4723C144.434 16.0262 144.968 16.167 145.706 16.3607L145.986 16.4311Z" fill="#FCEF9A"/>
<path d="M280.293 31.0358C280.075 30.8548 279.862 30.6787 279.687 30.4649C278.979 29.6149 278.58 28.6114 279.314 27.6984C279.485 27.4821 279.702 27.3086 279.95 27.1904C280.197 27.0696 280.468 27.0093 280.743 27.0093C281.018 27.0093 281.289 27.0696 281.536 27.1904C281.784 27.3086 282.001 27.4821 282.172 27.6984C283.858 29.2477 285.303 31.0409 286.461 33.0152C286.628 33.2793 286.721 33.5811 286.73 33.8929C286.739 34.2048 286.664 34.5116 286.512 34.7832C286.36 35.0549 286.138 35.2812 285.868 35.4371C285.598 35.5931 285.291 35.6736 284.98 35.6685C284.663 35.7063 284.343 35.7063 284.027 35.6685C280.804 35.3365 277.565 36.1288 274.858 37.9094L274.824 37.9321C274.06 38.3873 273.222 38.8903 272.283 38.2313C271.839 37.9245 271.497 37.4919 271.302 36.9889C271.107 36.4859 271.067 35.9351 271.188 35.4095C271.809 31.9136 271.991 28.4177 272.172 24.9218C272.258 23.2669 272.344 21.612 272.476 19.9571C272.476 19.6654 272.422 19.3837 272.369 19.1045C272.263 18.5563 272.16 18.0181 272.476 17.4471L271.974 17.0875C271.554 17.7464 271.071 18.3626 270.532 18.9285C269.733 19.5975 268.626 20.1382 267.776 19.2756C266.926 18.4129 267.66 17.5125 268.265 16.7002C268.769 16.0236 269.356 15.4175 269.943 14.8114C270.976 13.7475 272.009 12.6812 272.592 11.2275C272.66 11.0212 272.769 10.8301 272.912 10.6641C273.054 10.5006 273.228 10.3648 273.424 10.2667C273.619 10.1712 273.831 10.1133 274.049 10.0982C274.267 10.0857 274.485 10.1133 274.691 10.1837C275.159 10.312 275.567 10.5987 275.845 10.9986L275.89 11.0665L275.969 11.2023L276.046 11.3608L276.1 11.4966C276.197 11.7707 276.236 12.065 276.21 12.3618C276.243 13.7174 276.215 15.0704 276.162 16.426C276.124 17.3717 276.075 18.3199 276.025 19.2705C275.922 21.2474 275.818 23.2342 275.824 25.2387C275.843 27.633 275.675 30.0273 275.322 32.3965C275.219 33.068 275.322 33.6842 276.275 33.2717C277.916 32.7184 279.642 32.4568 281.374 32.4996C281.193 31.7828 280.735 31.403 280.293 31.0358Z" fill="#FCEF9A"/>
<path d="M0.888428 30.89C2.00373 28.2492 2.65708 25.4349 2.81997 22.5728C2.97449 20.9355 3.91456 20.1257 5.1121 20.6538C5.24391 20.7117 5.36636 20.7871 5.47663 20.8776C5.63448 21.0059 5.76743 21.1644 5.86732 21.3454C6.03701 21.6523 6.10189 22.0069 6.0521 22.354C6.0521 22.5979 6.05206 22.9324 6.32246 23.0355C6.45847 23.0607 6.59915 23.0381 6.72102 22.9727L6.80798 22.9173L6.87184 22.8595C6.92241 22.8067 6.96332 22.7438 6.99209 22.6759C7.29126 22.193 7.5986 21.7151 7.90595 21.2373C9.2388 19.1624 10.5718 17.085 11.2415 14.6781C11.348 14.0544 11.6797 13.4935 12.1736 13.0987C12.6674 12.7063 13.289 12.5076 13.9199 12.5403C14.51 12.4875 15.099 12.6535 15.5742 13.0081C16.0493 13.3627 16.3773 13.8783 16.4953 14.4593C17.6001 17.4396 18.1556 20.5406 18.7106 23.6391C18.9145 24.7759 19.1184 25.9127 19.3494 27.0445L19.5471 27.9801C19.6267 28.0757 19.6862 28.1712 19.7057 28.2668C19.7304 28.39 19.691 28.5133 19.5471 28.6365C19.7383 28.4831 19.8295 28.2769 19.9207 28.0681L19.9863 27.9248L20.0408 27.8166L20.0931 27.7261L20.1395 27.6582C20.5387 25.5732 20.8606 23.4732 21.4272 21.4133C22.071 18.838 23.9124 18.335 25.9341 20.0351C27.0817 21.1417 28.101 22.3716 28.973 23.7045C31.2265 26.7175 33.6088 29.6425 35.9137 32.6153L36.8608 33.8326L39.0139 36.6217L39.2943 36.9839L41.3478 39.6473C41.7676 37.3712 41.388 35.2158 41.0115 33.078C40.8914 32.3965 40.7716 31.7149 40.6782 31.0333C40.064 27.8443 39.15 24.7231 37.9483 21.7101C36.9053 18.6443 36.0683 15.5282 35.2828 12.3869L33.8534 6.68282C33.5186 5.29201 33.8535 4.21055 34.9609 3.72012C35.5708 3.49125 36.2416 3.47867 36.859 3.68742C37.0504 3.75281 37.233 3.83832 37.4042 3.93892C37.5079 4.0018 37.6073 4.06971 37.702 4.14516C37.9552 4.34636 38.1742 4.59032 38.3475 4.86697C38.5577 5.24926 38.7415 5.64411 38.898 6.04903C39.2008 6.83372 39.4015 7.65865 39.4935 8.49867C40.3563 11.4966 41.1804 14.5121 41.85 17.5125C41.976 18.0809 42.113 18.6468 42.256 19.2127C42.4277 19.8918 42.6082 20.5708 42.7887 21.2499C43.5484 24.1019 44.3088 26.959 44.4254 29.9644C44.448 30.5303 44.5042 31.0887 44.5799 31.642C44.6555 32.1953 44.7505 32.7461 44.8509 33.2943L44.9696 33.9357C45.1921 35.1253 45.4145 36.3149 45.4942 37.5347C45.7394 39.4411 45.6873 41.3751 45.3397 43.2664C45.2359 43.689 45.0428 44.0838 44.7735 44.4259C44.7117 44.5038 44.6462 44.5793 44.5773 44.6522C44.5021 44.7302 44.4228 44.8031 44.3398 44.8735C44.1675 45.0169 43.9792 45.1426 43.7782 45.2483C43.6052 45.3363 43.4245 45.4092 43.2388 45.4646C43.0093 45.5325 42.7721 45.5727 42.5319 45.5853C42.0971 45.6079 41.6627 45.5375 41.2576 45.3765C39.1688 44.4259 37.3563 42.9596 35.991 41.1136C34.739 39.6951 33.6647 38.1383 32.5905 36.5815L32.5747 36.5588C31.323 34.7455 30.0702 32.9297 28.5352 31.3402C27.7518 30.5379 27.1632 29.6098 26.5688 28.6742C26.0298 27.8242 25.4861 26.969 24.788 26.1894C24.234 27.628 24.08 29.1043 23.9276 30.5655C23.825 31.5489 23.7232 32.5247 23.5003 33.4779C23.404 33.8703 23.3176 34.2651 23.2375 34.6625C23.1578 35.0574 23.0842 35.4522 23.0133 35.8496L22.8676 36.6796C22.5438 38.5382 22.2195 40.4018 21.5173 42.1825C21.1181 43.1633 20.4743 43.8575 19.3411 43.689C18.8884 43.616 18.4701 43.4022 18.1446 43.0803C17.8191 42.7559 17.6026 42.3384 17.5254 41.8882C16.505 38.093 15.6756 34.2526 15.0402 30.3744C14.4993 27.4846 13.6355 24.6653 12.4648 21.9667C12.0378 23.1361 11.3636 24.0919 10.6819 25.0576C10.3948 25.4651 10.1063 25.875 9.8345 26.3026C9.56441 26.7251 9.31075 27.1677 9.09104 27.6456H11.396C11.7234 27.623 12.0471 27.7261 12.3008 27.9348C12.5545 28.1436 12.719 28.4403 12.7609 28.7648C12.9927 29.5771 12.4648 30.0525 11.8467 30.2336C11.0097 30.5303 10.0955 30.6586 9.27133 30.8774C8.00954 31.0736 6.7903 31.4835 5.6658 32.0871C3.23204 33.659 2.65256 33.5433 1.03006 31.2119L0.888428 30.89Z" fill="#FCEF9A"/>
<path fill-rule="evenodd" clip-rule="evenodd" d="M48.5331 41.2293L48.8077 39.5366L48.8121 39.5065L49.1163 37.6277C49.2089 37.0443 49.2987 36.4582 49.383 35.8722C49.8016 32.9875 50.3411 30.1179 50.881 27.2482C51.5868 23.4958 52.2933 19.7409 52.731 15.9381C52.9184 14.3511 53.219 12.7742 53.5189 11.1998L53.5245 11.1696L53.7649 9.89451C53.8536 9.41414 53.9393 8.93629 54.0187 8.45843C54.1217 7.89004 54.3278 7.41469 55.0103 7.40212C55.6928 7.38954 56.6456 7.28643 57.0706 8.23962C57.5028 9.06204 57.9168 9.89703 58.3122 10.7396C58.5178 11.1772 58.7185 11.6173 58.9141 12.06C59.3315 13.0031 59.7258 13.9588 60.0966 14.9221C61.1539 17.5855 62.3445 20.1936 63.6636 22.7388C64.9255 25.5958 66.2475 28.4303 67.6297 31.237C69.3567 34.9769 70.8827 38.8073 72.201 42.7106C72.613 43.8298 72.6388 44.9892 71.3768 45.6205C70.1149 46.2518 69.3809 45.5174 68.6984 44.4359C66.6531 41.194 63.6413 38.9104 60.6432 36.6368L60.6152 36.6142L59.955 36.1162C59.5782 35.827 59.1942 35.5478 58.8035 35.2787C58.4209 35.0146 58.0317 34.7606 57.6364 34.5166C56.8448 34.0262 56.0284 33.576 55.1905 33.1686C54.1861 32.6907 53.7741 32.8592 53.6067 33.9784C53.4323 36.1087 53.0616 38.2163 52.4993 40.2761C52.3061 40.8168 52.113 41.3701 51.9456 41.9385C51.6365 42.942 51.0957 43.7393 49.9239 43.5858C48.7521 43.4299 48.5331 42.2981 48.5331 41.2293ZM56.5169 16.0563C57.9447 20.6035 60.0406 24.8363 62.1649 29.1269C63.0483 30.9101 63.9366 32.7033 64.7838 34.5343C64.4703 34.5544 64.1563 34.5066 63.8616 34.3984C63.5669 34.2903 63.2978 34.1218 63.0712 33.903C60.7744 31.8532 58.1666 30.1782 55.345 28.9459C54.0895 28.297 54.49 26.9816 54.7728 26.0511L54.8429 25.8172C55.5901 22.5979 56.1491 19.3384 56.5169 16.0563Z" fill="#FCEF9A"/>
<path d="M218.509 22.6111C218.297 23.3904 217.847 24.0839 217.221 24.5941C216.59 25.2637 216.371 25.8818 217.221 26.6287C217.897 27.3814 218.501 28.1963 219.024 29.0624C219.32 29.5131 219.591 30.0025 219.024 30.5047C218.457 31.0069 217.904 30.6978 217.479 30.3244C217.048 29.8585 216.643 29.3684 216.268 28.8564C214.981 27.4013 214.787 27.4142 213.693 28.8564C213.478 29.1608 213.241 29.4492 212.985 29.7192C212.585 30.1441 212.096 30.4145 211.581 29.9895C211.359 29.831 211.204 29.5961 211.144 29.33C211.085 29.0639 211.126 28.7852 211.259 28.5473C211.392 28.1979 211.565 27.8651 211.774 27.5558C212.101 27.273 212.367 26.9264 212.555 26.5372C212.742 26.148 212.849 25.7244 212.867 25.2926C212.885 24.8607 212.814 24.4298 212.66 24.0262C212.505 23.6226 212.269 23.255 211.967 22.9459C211.863 22.8387 211.783 22.7097 211.735 22.5682C211.686 22.4268 211.669 22.2763 211.685 22.1275C211.701 21.9787 211.749 21.8352 211.827 21.7073C211.905 21.5795 212.01 21.4703 212.135 21.3878C212.727 20.9628 213.216 21.3877 213.422 21.8384C214.414 23.5124 215.315 23.2678 216.371 21.8384C216.529 21.5848 216.766 21.3905 217.045 21.2857C217.325 21.1808 217.631 21.1715 217.916 21.259C218.509 21.5294 218.509 21.9801 218.509 22.6111Z" fill="#FCEF9A"/>
<path d="M126.555 30.8382C125.805 30.5584 125.174 30.0315 124.765 29.3445C123.31 27.2584 123.181 27.2584 121.636 29.2286C121.159 29.8338 120.618 30.5162 119.807 30.0527C118.996 29.5891 119.331 28.765 119.652 28.0568C119.745 27.8026 119.875 27.5639 120.039 27.3485C120.33 27.0997 120.567 26.7936 120.736 26.4492C120.904 26.1048 120.999 25.7296 121.016 25.3467C121.033 24.9639 120.971 24.5816 120.834 24.2238C120.697 23.8659 120.487 23.5401 120.219 23.2666C119.807 22.7129 119.434 21.9789 120.296 21.4767C120.44 21.3987 120.599 21.3531 120.763 21.3433C120.926 21.3334 121.09 21.3595 121.242 21.4197C121.394 21.4798 121.531 21.5726 121.644 21.6915C121.756 21.8103 121.841 21.9523 121.893 22.1076C122.807 24.0005 123.554 23.0734 124.468 22.1076C124.945 21.5925 125.473 20.8199 126.323 21.5539C127.173 22.2879 126.683 23.0991 126.104 23.6271C124.649 24.9148 124.546 26.2025 126.104 27.4902C126.654 28.0098 127.092 28.6364 127.392 29.3316C127.517 29.4732 127.595 29.6502 127.615 29.838C127.635 30.0259 127.597 30.2154 127.505 30.3806C127.414 30.5457 127.273 30.6785 127.103 30.7604C126.932 30.8424 126.741 30.8695 126.555 30.8382Z" fill="#FCEF9A"/>
<path fill-rule="evenodd" clip-rule="evenodd" d="M99.9766 36.8783C100.659 37.9849 100.803 39.1101 99.3456 39.6322C97.8884 40.1543 94.868 38.881 94.2408 37.8792C94.2045 37.8214 94.1623 37.7661 94.1149 37.7158C94.0079 37.6001 93.8768 37.512 93.7312 37.4567C92.9715 37.2412 92.2175 37.0018 91.4647 36.7627L91.298 36.7098C89.134 36.0206 86.9769 35.334 84.7173 35.1655C83.9712 35.1479 83.2306 35.0297 82.5154 34.8159C81.5754 34.5066 81.3565 34.9467 81.4853 35.7817L81.5759 36.4557C81.8889 38.7897 82.1905 41.0331 82.6957 43.3016C82.7178 43.4525 82.7267 43.6034 82.7226 43.7493C82.72 43.8449 82.712 43.9405 82.6989 44.036C82.646 44.4158 82.5089 44.7805 82.2939 45.1049C82.1929 45.2558 82.0767 45.3967 81.9478 45.5224L81.7971 45.6582C81.6384 45.7915 81.4641 45.9047 81.278 45.9952C81.1228 46.0707 80.9594 46.1311 80.7899 46.1738C79.4249 46.4832 78.9485 45.6205 78.4849 44.5516C77.7441 42.3862 77.3106 40.1277 77.1972 37.844C77.1972 37.3662 77.1972 36.8783 77.1071 36.4004C76.9526 35.3718 76.6435 34.7908 75.3301 35.241C73.347 35.9125 72.0336 35.1379 71.6473 33.3622C71.5546 32.9699 71.5509 32.565 71.6367 32.1726C71.6839 31.9563 71.7574 31.7476 71.8553 31.5514C71.9125 31.4357 71.978 31.3251 72.0514 31.2194L72.1427 31.0937C72.39 30.7768 72.7054 30.5203 73.0654 30.3417C73.4255 30.1656 73.821 30.0701 74.2227 30.065C75.8838 29.8991 76.0383 29.1647 75.8323 27.7085C75.549 25.7769 75.2657 23.8454 75.0725 21.9013C74.5525 18.5739 74.2172 15.2213 74.0681 11.8562C74.0681 9.91807 73.0806 8.8342 71.908 7.54732L71.9063 7.54548L71.8554 7.48926C71.6274 7.23783 71.393 6.97927 71.1579 6.70546C71.1407 9.93224 71.2997 13.1565 71.6344 16.3632C71.7273 17.1554 71.7715 17.9577 71.8074 18.765C71.8149 18.9331 71.822 19.1013 71.8291 19.2695C71.8682 20.194 71.9075 21.1208 72.0078 22.0421C72.0478 22.2861 72.0371 22.535 71.9764 22.774C71.9469 22.8897 71.9057 23.0028 71.8538 23.111C71.7993 23.2242 71.7328 23.3323 71.6554 23.4304C71.5043 23.6266 71.3146 23.7875 71.0983 23.9057C71.0136 23.951 70.9254 23.9887 70.8348 24.0214C70.6941 24.0717 70.5475 24.1044 70.3982 24.117C69.2908 24.2327 68.7113 23.5888 68.4537 22.4671C67.7867 19.8415 67.3557 17.1604 67.166 14.4593C67.0244 11.2778 66.6639 8.09627 66.3033 4.92985C66.1499 3.99174 66.3565 3.02848 66.8818 2.23625C67.4071 1.44402 68.2122 0.878134 69.1363 0.654297C71.891 1.2579 73.6386 3.10896 75.4386 5.01787L75.4587 5.03916C75.8061 5.40689 76.1556 5.77687 76.5147 6.13958C78.4581 7.87243 80.4958 9.49965 82.6184 11.0062C82.8296 11.1822 83.0432 11.3532 83.259 11.5217C83.5988 11.7858 83.9438 12.0423 84.2924 12.2939C85.101 12.8773 85.9289 13.4357 86.7563 13.9915L86.7915 14.0141C88.7103 15.3069 90.625 16.5971 92.289 18.2318C92.6421 18.5807 93.0456 18.8494 93.4526 19.1204L93.4551 19.1222L93.4693 19.1316C94.1255 19.5712 94.7892 20.0156 95.2635 20.8072C95.6482 21.2901 95.9295 21.8459 96.0898 22.4445C96.1517 22.6734 96.1951 22.9073 96.2198 23.1437C96.2499 23.4329 96.2523 23.7247 96.2267 24.0114L96.1955 24.2754C96.1363 24.6728 96.0238 25.0601 95.8616 25.4298L95.8107 25.543L95.7103 25.7442L95.5633 25.9957C95.2369 26.5189 94.8061 26.9716 94.2978 27.3237C93.0283 28.4051 91.5334 28.9132 90.0404 29.4187C89.277 29.6777 88.514 29.9368 87.7821 30.2713L87.6101 30.3392L87.4124 30.4096L87.4102 30.4103C87.1644 30.4956 86.9179 30.5811 86.7069 30.734C86.5995 30.812 86.5014 30.9076 86.4171 31.0308C87.7943 31.6797 89.2647 32.0041 90.7301 32.3261H90.7451C92.3572 32.6782 93.9628 33.0303 95.431 33.8124L95.8013 33.996L96.4826 34.3154C97.8112 34.9241 99.1428 35.5352 99.9766 36.8783ZM85.3126 25.8121C87.2846 25.1985 89.2608 24.5823 91.0271 23.2292C88.5291 21.9465 86.3892 20.2388 84.2375 18.5211L84.0456 18.3682C83.4938 17.9283 82.9404 17.4873 82.3794 17.0523C81.2341 16.167 80.0565 15.3144 78.794 14.5498C78.9359 17.1881 79.3294 19.7006 79.7253 22.2257L79.7258 22.229C80.0119 24.0564 80.2993 25.8912 80.4937 27.7864C81.4259 27.208 82.4064 26.7905 83.4063 26.4333C84.0365 26.2095 84.6743 26.0108 85.3126 25.8121Z" fill="#FCEF9A"/>
<path fill-rule="evenodd" clip-rule="evenodd" d="M197.906 19.9571C196.77 24.3635 195.359 28.6944 193.682 32.9246C193.006 34.6977 192.201 36.418 191.274 38.0754C190.75 38.8123 189.956 39.3153 189.064 39.4738C188.172 39.6297 187.254 39.4285 186.51 38.9104C184.862 37.6859 183.912 36.009 182.963 34.3344L182.962 34.333L182.959 34.3276C182.582 33.6604 182.205 32.9933 181.784 32.3562C181.401 31.7853 181.093 31.1817 180.78 30.5655C180.429 29.8764 180.071 29.1747 179.595 28.4932C179.727 29.1582 179.866 29.8216 180.005 30.4846C180.031 30.6088 180.057 30.7331 180.083 30.8573C180.233 31.5741 180.382 32.2934 180.52 33.0127C180.654 33.7068 180.777 34.401 180.882 35.1001C181.087 36.3903 181.445 37.6428 181.803 38.8953L181.805 38.902C182.006 39.604 182.206 40.306 182.38 41.0155C182.558 41.7423 182.708 42.4767 182.801 43.2262C182.899 43.6839 182.85 44.1593 182.66 44.5868C182.471 45.0169 182.15 45.374 181.745 45.6079C181.598 45.6934 181.449 45.7739 181.297 45.8494L181.136 45.9273L180.918 46.0254L180.595 46.1537C179.246 46.6688 177.705 45.1175 177.498 43.6881L176.811 38.9532L176.806 38.9315C175.849 34.7788 174.892 30.6211 174.238 26.4082C174.084 25.4198 173.908 24.4339 173.733 23.448L173.44 21.778C173.336 21.1694 173.237 20.5608 173.147 19.9496C173.026 19.1272 172.922 18.3023 172.847 17.4723C172.809 17.2635 172.809 17.0498 172.847 16.841C173.626 14.8868 173.04 13.0634 172.445 11.2149L172.371 10.981C172.326 10.8729 172.291 10.7622 172.268 10.649C172.243 10.5258 172.232 10.4 172.233 10.2743C172.237 10.0303 172.29 9.7914 172.391 9.57007C172.491 9.34875 172.636 9.15006 172.817 8.98659C172.997 8.82563 173.209 8.70239 173.44 8.62442C174.47 8.22453 174.959 8.81808 175.461 9.809C176.104 11.1193 176.832 12.3919 177.558 13.662C178.417 15.166 179.275 16.67 179.994 18.2318C181.717 21.9468 183.774 25.4559 185.832 28.9682C186.235 29.6551 186.637 30.3421 187.038 31.0308C187.255 31.398 187.438 31.7853 187.625 32.1852L187.638 32.2154L187.654 32.2531L187.9 32.7813C189.72 30.8673 190.406 28.4856 191.091 26.1089L191.093 26.1015C191.256 25.5356 191.418 24.9697 191.596 24.4113C192.248 22.359 192.97 20.3394 193.759 18.3475C194.347 16.748 194.736 15.083 194.918 13.3904C195.508 10.7018 196.234 8.04597 197.094 5.43034C197.192 5.17883 197.32 4.94242 197.474 4.72361C197.626 4.50984 197.804 4.31366 198.004 4.14013C198.408 3.79054 198.892 3.54406 199.412 3.42334C199.693 3.30011 200 3.24981 200.306 3.27747C200.427 3.28753 200.546 3.31017 200.662 3.34286C200.838 3.39568 201.006 3.47364 201.161 3.57425L201.25 3.63964L201.364 3.73018L201.439 3.80311L201.524 3.88862L201.606 3.98923L201.691 4.10743L201.77 4.24324C201.915 4.51487 201.99 4.81667 201.988 5.1235C202.311 7.11289 202.526 9.1224 202.632 11.1369C202.701 13.0587 202.677 14.9931 202.654 16.8277C202.642 17.7085 202.632 18.5664 202.632 19.3887C203.134 19.854 203.25 19.7761 203.34 19.6352C205.555 16.0287 208.967 14.8315 213.01 14.8189C220.101 14.8189 224.922 18.1916 227.471 24.9394C227.487 24.9837 227.503 25.032 227.519 25.0819C227.605 25.3521 227.706 25.6679 227.999 25.6361C228.347 25.5958 228.669 25.1582 228.707 24.6955C228.802 23.692 228.557 22.7413 228.313 21.7906L228.197 21.3303L228.085 20.855C228.021 20.5658 227.968 20.2766 227.935 19.9823C227.809 18.9612 227.597 17.9527 227.385 16.9441L227.166 15.8878L227.08 15.4427L227 15.0051C226.818 13.9588 226.695 12.9025 226.724 11.8185C226.676 11.0087 226.343 10.2416 225.784 9.65559C225.352 9.04192 225.082 8.32765 224.999 7.58069C224.936 7.23864 224.985 6.88151 225.138 6.56713C225.29 6.25275 225.539 5.9937 225.849 5.83023C225.951 5.76484 226.061 5.71454 226.174 5.67932C226.367 5.61896 226.573 5.59884 226.776 5.62399C227.1 5.66423 227.4 5.81514 227.626 6.04903C227.969 6.30305 228.297 6.57719 228.609 6.86642L228.924 7.17074L229.171 7.42727C231.123 10.1321 233.885 11.6963 236.659 13.2674L236.663 13.2697C237.402 13.6872 238.142 14.1072 238.867 14.5473C240.412 15.4879 241.998 16.3506 243.586 17.2132C244.5 17.7087 245.415 18.2067 246.323 18.7197C246.933 19.0668 247.437 19.5698 247.782 20.181C247.895 20.3822 247.989 20.5884 248.065 20.8047L248.134 21.0235L248.202 21.3027C248.23 21.436 248.25 21.5693 248.263 21.7051C248.279 21.8635 248.285 22.0245 248.28 22.1855C248.28 23.7423 247.109 24.4113 245.705 24.7608C244.637 25.0652 243.575 25.3972 242.513 25.7467C241.515 26.0737 240.516 26.4132 239.511 26.7553C239.594 27.1913 239.937 27.1841 240.222 27.1782C240.29 27.1768 240.355 27.1754 240.413 27.1803C243.294 27.5224 246.02 28.6692 248.28 30.4901C248.963 30.9931 249.195 30.978 249.336 30.0525C249.507 28.9408 249.698 27.8317 249.897 26.7251L250.137 25.4198L250.525 23.3575L250.526 23.3557C251.222 19.6793 251.919 16.0004 252.272 12.2561C252.44 10.5308 252.827 8.81808 253.212 7.11038L253.56 5.54603C253.663 4.96757 253.779 4.34887 254.564 4.25833C254.962 4.17282 255.377 4.21558 255.748 4.38157C256.119 4.55008 256.426 4.83176 256.625 5.18638C257.762 7.17577 258.739 9.25067 259.548 11.3935C260.617 14.2807 261.868 17.0976 263.295 19.8289C264.11 21.641 264.972 23.4368 265.834 25.2306C266.238 26.0733 266.643 26.9155 267.042 27.7588C268.291 30.3995 269.527 33.4528 270.596 36.3627C270.776 36.8486 270.921 37.3446 271.066 37.8405L271.068 37.8465L271.074 37.8692L271.075 37.8713C271.28 38.5698 271.487 39.2733 271.794 39.9541C271.876 40.1126 271.937 40.2811 271.974 40.4521C271.994 40.5452 272.007 40.6407 272.013 40.7363C272.03 41.0105 271.99 41.2846 271.893 41.5411C271.797 41.7977 271.648 42.0316 271.456 42.2252C271.263 42.4214 271.032 42.5723 270.776 42.6704C269.656 43.186 268.922 42.517 268.407 41.6291C266.573 38.3935 263.702 36.236 260.844 34.089L260.841 34.0866L259.728 33.2466C258.212 31.9689 256.537 30.895 254.745 30.0525C253.727 29.64 253.341 29.7305 253.187 30.9025C253.01 33.6188 252.472 36.2973 251.59 38.8727C251.203 39.8636 250.663 40.7011 249.529 40.52C248.396 40.3415 248.01 39.2323 248.1 38.1785C248.24 36.2596 248.594 34.3632 249.156 32.5247C249.021 32.6505 248.875 32.7637 248.719 32.8618C248.561 32.9598 248.394 33.0428 248.22 33.1082C247.872 33.239 247.502 33.3019 247.131 33.2868C246.759 33.2742 246.394 33.1887 246.057 33.0328C245.917 32.9674 245.783 32.8919 245.657 32.8064C245.477 32.6857 245.312 32.5423 245.164 32.3839C243.317 30.8878 241.125 30.6989 238.936 30.5103L238.935 30.5102L238.166 30.4398C237.806 30.4071 237.447 30.3694 237.09 30.3216H236.097C235.052 30.2411 234.525 30.2009 234.311 30.4398C234.094 30.6813 234.2 31.2117 234.416 32.2882L234.451 32.4594C234.727 33.4905 234.887 34.5493 234.927 35.6157C234.927 36.6066 234.76 37.4693 233.639 37.7132C233.123 37.8541 232.575 37.8164 232.081 37.6126C231.836 37.5095 231.611 37.3687 231.415 37.1977C231.215 37.0241 231.043 36.8154 230.909 36.5815C230.383 35.8496 230.363 34.9995 230.343 34.1394C230.334 33.7596 230.325 33.3748 230.271 33.0026C230.255 32.8894 230.235 32.7762 230.209 32.6631C230.189 32.575 230.166 32.4895 230.138 32.404L230.072 32.2154C229.924 31.8517 229.857 31.4579 229.79 31.064C229.74 30.7741 229.691 30.4841 229.609 30.2059C229.568 30.0701 229.504 29.9443 229.42 29.8337L229.335 29.7331L229.298 29.6953L229.203 29.6149C229.109 29.5419 229.005 29.4841 228.895 29.4438C228.825 29.4162 228.752 29.396 228.677 29.3835L228.527 29.3684C228.051 29.3684 227.87 29.5746 227.793 30.0122C227.059 33.9659 223.93 35.6786 220.646 36.247C218.513 36.6645 216.313 36.5991 214.209 36.0533C212.105 35.5076 210.151 34.494 208.491 33.0906C206.767 31.7451 205.237 30.1682 203.945 28.4026C203.526 28.3297 203.43 28.4177 203.447 28.5636C203.457 28.6426 203.5 28.7387 203.543 28.8345C203.574 28.9033 203.605 28.9719 203.623 29.0339C203.629 33.8577 203.9 38.6765 204.434 43.4701C204.518 44.1467 204.518 44.8283 204.434 45.5048C204.422 45.7437 204.366 45.9751 204.271 46.1914C204.162 46.4404 204 46.6668 203.794 46.8554C203.41 47.2024 202.904 47.3835 202.387 47.3584C201.74 47.4011 201.101 47.1974 200.597 46.79C200.351 46.5913 200.146 46.3499 199.99 46.0782C199.905 45.9324 199.835 45.7789 199.78 45.618C199.752 45.535 199.729 45.452 199.71 45.369L199.67 45.1577C199.235 42.5974 198.93 40.0195 198.756 37.4316L198.748 36.2923C198.741 35.7264 198.729 35.1605 198.714 34.5946C198.694 33.9005 198.67 33.2063 198.643 32.5122L198.532 29.9468L198.532 29.9409C198.439 27.8705 198.347 25.8001 198.318 23.7297C198.415 22.3892 198.363 21.0411 198.163 19.7107C198.135 19.6704 198.116 19.6327 198.105 19.595C198.052 19.7459 197.995 19.8616 197.906 19.9571ZM257.979 17.6655C257.617 16.4442 257.253 15.218 256.457 14.1751C256.075 14.0528 256.037 14.2744 255.999 14.4936C255.977 14.6217 255.955 14.7489 255.865 14.8064C255.637 15.8853 255.51 16.9768 255.383 18.0709C255.18 19.8213 254.976 21.5743 254.358 23.2795C254.011 24.2578 253.624 25.6487 255.427 26.4208C258.17 27.4922 260.667 29.1068 262.767 31.1717C263.159 31.4961 263.592 31.7702 264.055 31.984C263.714 30.4851 263.226 29.0213 262.599 27.6179C261.071 25.0073 259.729 22.2911 258.582 19.4919C258.346 18.9034 258.164 18.29 257.982 17.6766L257.98 17.6685L257.979 17.6655ZM210.28 30.2612C212.097 31.8407 214.402 32.7511 216.809 32.8366C217.55 32.9045 218.296 32.8718 219.025 32.741L219.341 32.6782C219.608 32.6203 219.871 32.5474 220.131 32.4619C222.359 31.9337 224.11 29.8865 223.904 28.302C223.486 25.9203 222.432 23.697 220.852 21.8635C220.15 20.9984 219.224 20.3445 218.174 19.9722C216.522 19.2932 214.811 19.2479 213.111 19.2052C212.426 19.1875 211.743 19.1699 211.066 19.1096C210.042 19.009 209.011 19.2177 208.107 19.7082C207.203 20.2011 206.466 20.9506 205.992 21.8635C205.609 22.6432 205.467 23.5159 205.587 24.376C205.631 24.6929 205.71 25.0023 205.821 25.2991C206.011 25.8046 206.296 26.2749 206.662 26.6798C207.747 27.9901 208.959 29.1898 210.28 30.2612ZM233.523 16.8637L233.721 16.9768L233.93 17.09C237.339 18.9763 240.687 20.8273 244.662 22.1075L235.751 23.8077H235.597C235.27 23.7548 234.963 23.9309 234.66 24.1069C234.21 24.366 233.769 24.6175 233.292 24.1019C232.857 23.6417 232.83 23.0154 232.803 22.3967C232.791 22.1352 232.78 21.8761 232.738 21.6296C232.276 19.7509 231.958 17.8395 231.785 15.913L233.523 16.8637Z" fill="#FCEF9A"/>
</svg>
