<svg width="200" height="77" viewBox="0 0 200 77" fill="none" xmlns="http://www.w3.org/2000/svg">
<g clip-path="url(#clip0_3332_17393)">
<path fill-rule="evenodd" clip-rule="evenodd" d="M10.1986 0C5.05688 0 0.888672 3.59875 0.888672 8.03803V56.3918C0.888672 60.8311 5.05688 64.4298 10.1986 64.4298H177.633H181.56H182.932L183.916 65.2177L187.64 68.1963L197.689 76.2351C198.528 76.9055 199.889 76.3923 199.889 75.4058V56.3918V55.9047V8.03803C199.889 3.59875 195.72 0 190.579 0H10.1986Z" fill="url(#paint0_linear_3332_17393)"/>
<mask id="mask0_3332_17393" style="mask-type:alpha" maskUnits="userSpaceOnUse" x="41" y="24" width="19" height="20">
<path fill-rule="evenodd" clip-rule="evenodd" d="M56.9372 38.3722C58.3794 36.8706 59.2605 34.8645 59.2605 32.6607C59.2605 28.007 55.3314 24.2344 50.4848 24.2344C45.638 24.2344 41.709 28.007 41.709 32.6607C41.709 37.3147 45.638 41.0872 50.4848 41.0872C51.0124 41.0872 51.5291 41.0426 52.0312 40.9569L52.0163 42.8863C52.0131 43.2949 52.4751 43.5171 52.7625 43.2326C54.0156 41.9926 55.6553 39.9605 56.6584 38.7175C56.7579 38.5941 56.8511 38.4786 56.9372 38.3722Z" fill="white"/>
</mask>
<g mask="url(#mask0_3332_17393)">
<path d="M56.9378 38.3767L55.3738 36.8745L55.31 36.941L55.2521 37.0125L56.9378 38.3767ZM52.0318 40.9614L54.2003 40.9781L54.2203 38.3878L51.6669 38.8237L52.0318 40.9614ZM52.0169 42.8908L49.8485 42.8741L52.0169 42.8908ZM52.7632 43.2372L54.2887 44.7785L52.7632 43.2372ZM56.659 38.722L54.9713 37.3601V37.3603L56.659 38.722ZM57.0926 32.6653C57.0926 34.2755 56.4521 35.7519 55.3738 36.8745L58.5018 39.879C60.3082 37.9983 61.4297 35.4626 61.4297 32.6653H57.0926ZM50.4854 26.4075C54.2183 26.4075 57.0926 29.2913 57.0926 32.6653H61.4297C61.4297 26.7316 56.4459 22.0703 50.4854 22.0703V26.4075ZM43.8782 32.6653C43.8782 29.2913 46.7525 26.4075 50.4854 26.4075V22.0703C44.5248 22.0703 39.541 26.7316 39.541 32.6653H43.8782ZM50.4854 38.9232C46.7525 38.9232 43.8782 36.0393 43.8782 32.6653H39.541C39.541 38.599 44.5248 43.2604 50.4854 43.2604V38.9232ZM51.6669 38.8237C51.2851 38.8889 50.8903 38.9232 50.4854 38.9232V43.2604C51.1357 43.2604 51.7745 43.2053 52.3967 43.099L51.6669 38.8237ZM49.8632 40.9447L49.8485 42.8741L54.1855 42.9077L54.2003 40.9781L49.8632 40.9447ZM49.8485 42.8741C49.84 43.9542 50.4684 44.8677 51.358 45.2862C52.2724 45.7164 53.452 45.6067 54.2887 44.7785L51.2378 41.6958C51.787 41.1521 52.5918 41.0735 53.2043 41.3616C53.7918 41.638 54.1906 42.2362 54.1855 42.9077L49.8485 42.8741ZM54.2887 44.7785C55.6468 43.4344 57.3704 41.2936 58.3465 40.0839L54.9713 37.3603C53.9416 38.6363 52.3856 40.5598 51.2378 41.6958L54.2887 44.7785ZM58.3465 40.0839C58.4464 39.9602 58.5386 39.8459 58.6236 39.741L55.2521 37.0125C55.1649 37.1202 55.0705 37.2372 54.9713 37.3601L58.3465 40.0839Z" fill="white"/>
</g>
<path d="M53.0547 33.1415C52.9825 33.0895 52.8983 33.0699 52.8127 33.0851L52.813 33.0838L52.8082 33.0856L52.7929 33.0884L52.7326 33.0981C52.4014 33.1521 52.0703 33.1964 51.7392 33.2308C51.1225 33.2943 50.3883 33.3334 49.8481 33.2544C49.3077 33.1753 48.619 32.9282 48.0479 32.6909C47.7661 32.574 47.5206 32.4612 47.3448 32.3784L47.139 32.2801L47.0844 32.2535L47.0708 32.2454L47.0664 32.2447C46.9893 32.2057 46.9029 32.2003 46.8181 32.2294C46.7331 32.2585 46.6535 32.3206 46.5888 32.4081C46.5242 32.4956 46.4772 32.6048 46.454 32.7222C46.4308 32.8396 46.4321 32.96 46.4578 33.0687C46.6677 33.9482 47.0479 34.7086 47.5604 35.2735C48.0728 35.8385 48.6995 36.1877 49.3771 36.2865C50.0548 36.386 50.7597 36.2314 51.421 35.8382C52.0821 35.4449 52.6765 34.827 53.1441 34.0464C53.2016 33.95 53.2395 33.8354 53.2529 33.7166C53.2663 33.5978 53.2547 33.4801 53.2195 33.3779C53.1843 33.2757 53.127 33.1935 53.0547 33.1415Z" fill="white"/>
<path d="M24.5453 40.1362C24.1792 40.1362 23.8497 40.0309 23.557 39.8204C23.2641 39.61 23.0627 39.3468 22.9528 39.0311L19.0541 28.0847C18.9991 27.9267 18.9717 27.7776 18.9717 27.6373C18.9717 27.304 19.0907 27.0233 19.3286 26.7953C19.5665 26.5672 19.8594 26.4531 20.2073 26.4531C20.4634 26.4531 20.6923 26.5234 20.8936 26.6637C21.1132 26.7865 21.2597 26.9532 21.3329 27.1637L24.5453 37.2943L27.7304 27.4004C27.8218 27.1198 27.9866 26.8917 28.2245 26.7163C28.4808 26.5409 28.7645 26.4531 29.0757 26.4531C29.3869 26.4531 29.6614 26.5409 29.8995 26.7163C30.1557 26.8917 30.3296 27.1198 30.4211 27.4004L33.6061 37.2943L36.8185 27.1637C36.8918 26.9532 37.029 26.7865 37.2303 26.6637C37.45 26.5234 37.688 26.4531 37.9442 26.4531C38.292 26.4531 38.5849 26.5672 38.8228 26.7953C39.0607 27.0233 39.1797 27.304 39.1797 27.6373C39.1797 27.7776 39.1523 27.9267 39.0973 28.0847L35.1986 39.0311C35.0888 39.3468 34.8873 39.61 34.5945 39.8204C34.3017 40.0309 33.9722 40.1362 33.6061 40.1362C33.24 40.1362 32.9105 40.0309 32.6176 39.8204C32.3247 39.61 32.1142 39.338 31.9862 39.0047L29.0757 30.295L26.1653 39.0047C26.0372 39.338 25.8267 39.61 25.5338 39.8204C25.2409 40.0309 24.9114 40.1362 24.5453 40.1362Z" fill="white"/>
<path d="M67.1568 40.1362C66.7907 40.1362 66.4612 40.0309 66.1683 39.8204C65.8754 39.61 65.6741 39.3468 65.5643 39.0311L61.6654 28.0847C61.6106 27.9267 61.583 27.7776 61.583 27.6373C61.583 27.304 61.702 27.0233 61.9399 26.7953C62.178 26.5672 62.4709 26.4531 62.8186 26.4531C63.0749 26.4531 63.3037 26.5234 63.505 26.6637C63.7247 26.7865 63.8711 26.9532 63.9443 27.1637L67.1568 37.2943L70.3417 27.4004C70.4333 27.1198 70.598 26.8917 70.836 26.7163C71.0923 26.5409 71.376 26.4531 71.6871 26.4531C71.9982 26.4531 72.2729 26.5409 72.5108 26.7163C72.7671 26.8917 72.9409 27.1198 73.0325 27.4004L76.2174 37.2943L79.4299 27.1637C79.5031 26.9532 79.6403 26.7865 79.8418 26.6637C80.0614 26.5234 80.2993 26.4531 80.5556 26.4531C80.9034 26.4531 81.1962 26.5672 81.4343 26.7953C81.6722 27.0233 81.7912 27.304 81.7912 27.6373C81.7912 27.7776 81.7638 27.9267 81.7088 28.0847L77.8099 39.0311C77.7001 39.3468 77.4988 39.61 77.2059 39.8204C76.913 40.0309 76.5835 40.1362 76.2174 40.1362C75.8514 40.1362 75.5219 40.0309 75.229 39.8204C74.9362 39.61 74.7257 39.338 74.5975 39.0047L71.6871 30.295L68.7767 39.0047C68.6485 39.338 68.438 39.61 68.1452 39.8204C67.8523 40.0309 67.5229 40.1362 67.1568 40.1362Z" fill="white"/>
<path d="M97.8572 40.1362C96.5394 40.1362 95.3221 39.8537 94.2054 39.2888C93.0889 38.7239 92.192 37.9118 91.5147 36.8527C90.8557 35.7934 90.5264 34.5489 90.5264 33.1189C90.5264 31.6889 90.8557 30.4444 91.5147 29.3851C92.192 28.3259 93.0889 27.5138 94.2054 26.949C95.3221 26.384 96.5394 26.1016 97.8572 26.1016C98.8273 26.1016 99.6602 26.2252 100.356 26.4723C101.07 26.7018 101.729 27.0019 102.333 27.3726C102.699 27.6021 102.882 27.9111 102.882 28.2994C102.882 28.5642 102.772 28.8114 102.552 29.0409C102.351 29.2527 102.113 29.3587 101.838 29.3587C101.637 29.3587 101.436 29.3057 101.234 29.1997C100.63 28.8997 100.109 28.6878 99.6694 28.5642C99.2484 28.423 98.7175 28.3524 98.0769 28.3524C96.5027 28.3524 95.2672 28.7937 94.3703 29.6764C93.4734 30.5414 93.0248 31.6889 93.0248 33.1189C93.0248 34.5489 93.4734 35.7051 94.3703 36.5878C95.2672 37.4529 96.5027 37.8853 98.0769 37.8853C98.7175 37.8853 99.2484 37.8236 99.6694 37.6999C100.109 37.5587 100.63 37.338 101.234 37.038C101.436 36.932 101.637 36.8791 101.838 36.8791C102.113 36.8791 102.351 36.9939 102.552 37.2234C102.772 37.4351 102.882 37.6735 102.882 37.9384C102.882 38.3267 102.699 38.6356 102.333 38.8651C101.729 39.2358 101.07 39.5448 100.356 39.792C99.6602 40.0215 98.8273 40.1362 97.8572 40.1362Z" fill="white"/>
<path d="M107.253 40.0018C106.905 40.0018 106.612 39.8871 106.375 39.6576C106.136 39.4281 106.018 39.1455 106.018 38.8102V21.6244C106.018 21.2889 106.136 21.0064 106.375 20.777C106.612 20.5299 106.905 20.4062 107.253 20.4062C107.601 20.4062 107.894 20.5299 108.132 20.777C108.388 21.0064 108.516 21.2889 108.516 21.6244V28.5358C109.212 27.7943 109.962 27.2029 110.768 26.7615C111.573 26.3203 112.525 26.0996 113.623 26.0996C114.63 26.0996 115.499 26.3291 116.231 26.788C116.982 27.247 117.549 27.8737 117.934 28.6682C118.336 29.4625 118.538 30.3365 118.538 31.2898V38.8102C118.538 39.1455 118.41 39.4281 118.153 39.6576C117.915 39.8871 117.623 40.0018 117.275 40.0018C116.927 40.0018 116.634 39.8871 116.396 39.6576C116.158 39.4281 116.039 39.1455 116.039 38.8102V31.5545C116.039 29.4008 115.033 28.3239 113.019 28.3239C112.104 28.3239 111.28 28.5534 110.548 29.0124C109.834 29.4713 109.157 30.0893 108.516 30.866V38.8102C108.516 39.1455 108.388 39.4281 108.132 39.6576C107.894 39.8871 107.601 40.0018 107.253 40.0018Z" fill="white"/>
<path d="M126.318 40.1362C125.513 40.1362 124.762 39.9773 124.067 39.6596C123.389 39.3418 122.85 38.8827 122.447 38.2825C122.044 37.6647 121.843 36.9585 121.843 36.1641C121.843 34.8577 122.374 33.8161 123.435 33.0394C124.515 32.2627 126.089 31.8742 128.158 31.8742H131.48V31.6625C131.48 30.4973 131.178 29.6587 130.574 29.1468C129.989 28.6349 129.064 28.3788 127.801 28.3788C127.105 28.3788 126.483 28.4318 125.934 28.5378C125.403 28.6437 124.808 28.8026 124.149 29.0144C124.003 29.0497 123.884 29.0673 123.792 29.0673C123.518 29.0673 123.28 28.9702 123.078 28.7761C122.877 28.5819 122.776 28.3435 122.776 28.0611C122.776 27.5845 123.014 27.249 123.49 27.0548C125.046 26.4193 126.629 26.1016 128.24 26.1016C129.503 26.1016 130.565 26.3487 131.425 26.843C132.304 27.3373 132.944 27.9816 133.348 28.7761C133.768 29.5528 133.979 30.4002 133.979 31.3182V38.8122C133.979 39.1475 133.85 39.4301 133.594 39.6596C133.356 39.8891 133.063 40.0038 132.716 40.0038C132.368 40.0038 132.074 39.8891 131.837 39.6596C131.599 39.4301 131.48 39.1475 131.48 38.8122V38.1237C130.125 39.4653 128.405 40.1362 126.318 40.1362ZM127.252 38.0177C128.057 38.0177 128.836 37.8324 129.586 37.4617C130.336 37.0732 130.967 36.5966 131.48 36.0317V33.8073H128.487C125.723 33.8073 124.341 34.5047 124.341 35.8993C124.341 36.5349 124.561 37.0468 125 37.4351C125.458 37.8236 126.208 38.0177 127.252 38.0177Z" fill="white"/>
<path d="M142.678 40.1327C140.005 40.1327 138.668 38.9676 138.668 36.6373V28.4283H136.719C136.572 28.4283 136.445 28.3842 136.335 28.2959C136.243 28.19 136.197 28.0664 136.197 27.9252C136.197 27.7487 136.279 27.5987 136.445 27.4751L140.179 23.9531C140.343 23.7943 140.499 23.7148 140.645 23.7148C140.792 23.7148 140.911 23.7678 141.003 23.8738C141.112 23.9797 141.167 24.1033 141.167 24.2445V26.3629H144.27C144.581 26.3629 144.837 26.46 145.039 26.6542C145.239 26.8483 145.34 27.0955 145.34 27.3957C145.34 27.6781 145.239 27.9252 145.039 28.1371C144.837 28.3313 144.581 28.4283 144.27 28.4283H141.167V36.4255C141.167 37.1139 141.332 37.5553 141.661 37.7494C142.009 37.926 142.439 38.0143 142.952 38.0143C143.318 38.0143 143.684 37.9613 144.05 37.8555C144.123 37.8377 144.197 37.8201 144.27 37.8025C144.361 37.7848 144.471 37.776 144.599 37.776C144.855 37.776 145.083 37.8731 145.285 38.0672C145.486 38.2438 145.587 38.4644 145.587 38.7293C145.587 39.1353 145.377 39.4443 144.956 39.6561C144.241 39.9739 143.482 40.1327 142.678 40.1327Z" fill="white"/>
<path d="M153.161 40.1327C150.488 40.1327 149.153 38.9676 149.153 36.6373V28.4283H147.202C147.057 28.4283 146.928 28.3842 146.818 28.2959C146.727 28.19 146.681 28.0664 146.681 27.9252C146.681 27.7487 146.764 27.5987 146.928 27.4751L150.662 23.9531C150.828 23.7943 150.983 23.7148 151.129 23.7148C151.276 23.7148 151.394 23.7678 151.486 23.8738C151.596 23.9797 151.651 24.1033 151.651 24.2445V26.3629H154.753C155.064 26.3629 155.321 26.46 155.522 26.6542C155.724 26.8483 155.824 27.0955 155.824 27.3957C155.824 27.6781 155.724 27.9252 155.522 28.1371C155.321 28.3313 155.064 28.4283 154.753 28.4283H151.651V36.4255C151.651 37.1139 151.815 37.5553 152.146 37.7494C152.492 37.926 152.924 38.0143 153.435 38.0143C153.801 38.0143 154.167 37.9613 154.534 37.8555C154.607 37.8377 154.68 37.8201 154.753 37.8025C154.845 37.7848 154.954 37.776 155.083 37.776C155.34 37.776 155.568 37.8731 155.77 38.0672C155.971 38.2438 156.072 38.4644 156.072 38.7293C156.072 39.1353 155.861 39.4443 155.44 39.6561C154.726 39.9739 153.966 40.1327 153.161 40.1327Z" fill="white"/>
<path d="M164.885 40.1362C162.651 40.1362 160.904 39.5272 159.641 38.3091C158.396 37.0732 157.773 35.3432 157.773 33.1189C157.773 31.8654 158.012 30.7092 158.488 29.6499C158.964 28.5907 159.696 27.7345 160.684 27.0813C161.673 26.4281 162.89 26.1016 164.335 26.1016C165.69 26.1016 166.862 26.4105 167.85 27.0283C168.838 27.6286 169.59 28.4407 170.101 29.4645C170.614 30.4708 170.87 31.5742 170.87 32.7746C170.87 33.1101 170.752 33.3925 170.513 33.622C170.294 33.8515 169.992 33.9663 169.608 33.9663H160.299C160.446 35.202 160.922 36.1641 161.728 36.8527C162.533 37.5411 163.658 37.8853 165.105 37.8853C165.874 37.8853 166.541 37.8148 167.109 37.6735C167.694 37.5323 168.262 37.3292 168.812 37.0644C168.957 36.9939 169.123 36.9585 169.305 36.9585C169.599 36.9585 169.855 37.0556 170.074 37.2498C170.294 37.4441 170.404 37.6911 170.404 37.9913C170.404 38.3796 170.166 38.7063 169.689 38.971C168.976 39.3594 168.271 39.6507 167.575 39.8449C166.88 40.0391 165.983 40.1362 164.885 40.1362ZM168.4 32.0066C168.345 31.1416 168.106 30.4178 167.685 29.8352C167.283 29.2526 166.779 28.829 166.175 28.5642C165.571 28.2818 164.958 28.1405 164.335 28.1405C163.713 28.1405 163.101 28.2818 162.496 28.5642C161.892 28.829 161.389 29.2526 160.985 29.8352C160.584 30.4178 160.354 31.1416 160.299 32.0066H168.4Z" fill="white"/>
<path d="M175.412 40.0038C175.065 40.0038 174.771 39.8891 174.533 39.6596C174.295 39.4301 174.177 39.1475 174.177 38.8122V27.4521C174.177 27.1166 174.295 26.8342 174.533 26.6047C174.771 26.3575 175.065 26.234 175.412 26.234C175.76 26.234 176.052 26.3575 176.291 26.6047C176.547 26.8342 176.674 27.1166 176.674 27.4521V28.5907C177.956 26.9312 179.393 26.1016 180.985 26.1016H181.123C181.471 26.1016 181.754 26.2162 181.973 26.4457C182.212 26.6752 182.331 26.9578 182.331 27.2931C182.331 27.6286 182.212 27.9023 181.973 28.114C181.736 28.3259 181.434 28.4318 181.068 28.4318H180.93C180.052 28.4318 179.246 28.6437 178.514 29.0673C177.782 29.4733 177.169 30.0383 176.674 30.7621V38.8122C176.674 39.1475 176.547 39.4301 176.291 39.6596C176.052 39.8891 175.76 40.0038 175.412 40.0038Z" fill="white"/>
</g>
<defs>
<linearGradient id="paint0_linear_3332_17393" x1="100.389" y1="88.0192" x2="217.11" y2="-47.1987" gradientUnits="userSpaceOnUse">
<stop stop-color="#17171A"/>
<stop offset="1" stop-color="#0062D4"/>
</linearGradient>
<clipPath id="clip0_3332_17393">
<rect width="199" height="76.5385" fill="white" transform="translate(0.888672)"/>
</clipPath>
</defs>
</svg>
