<svg width="140" height="26" viewBox="0 0 140 26" fill="none" xmlns="http://www.w3.org/2000/svg">
<g clip-path="url(#clip0_2015_6476)">
<path d="M0 16.3528C0 11.6296 3.93376 7.80078 8.78631 7.80078H23.5473C28.3998 7.80078 32.3336 11.6296 32.3336 16.3528C32.3336 21.0759 28.3998 24.9048 23.5473 24.9048H8.78631C3.93376 24.9048 0 21.0759 0 16.3528Z" fill="#989898"/>
<path d="M11.9497 16.3534C11.9497 12.7302 14.9394 9.79297 18.6273 9.79297H22.8447C26.5327 9.79297 29.5223 12.7302 29.5223 16.3534C29.5223 19.9766 26.5327 22.9139 22.8447 22.9139H18.6273C14.9394 22.9139 11.9497 19.9766 11.9497 16.3534Z" fill="white"/>
<path d="M44.3309 11.746C43.8724 11.9306 43.4562 12.2098 43.1085 12.566C42.7488 12.9769 42.4617 13.4483 42.2601 13.9591C42.0346 14.5566 41.9259 15.1933 41.9403 15.8333C41.9193 16.4729 42.0218 17.1106 42.242 17.71C42.4368 18.2246 42.7197 18.6998 43.0776 19.1136C43.4291 19.486 43.8522 19.7804 44.3206 19.9784C44.8069 20.173 45.3248 20.2729 45.8472 20.2728C46.3157 20.2786 46.7811 20.1948 47.2192 20.0257C47.6057 19.8905 47.9661 19.6877 48.2842 19.4264C48.5646 19.1878 48.7989 18.8981 48.9754 18.5722C49.0715 18.4114 49.1577 18.2446 49.2333 18.0727C49.2827 17.9606 49.3715 17.8714 49.4823 17.8228C49.593 17.7741 49.7176 17.7695 49.8315 17.8099L52.5935 18.764C52.715 18.8054 52.8155 18.8942 52.8731 19.011C52.9306 19.1277 52.9404 19.2629 52.9004 19.387C52.7286 19.8907 52.4983 20.3716 52.2144 20.8195C51.8054 21.4585 51.2967 22.0249 50.7084 22.4965C50.0708 23.0229 49.3518 23.4377 48.5808 23.724C47.6935 24.0267 46.7622 24.1733 45.8266 24.1577C44.7471 24.1679 43.678 23.943 42.6907 23.4979C41.7254 23.1048 40.8482 22.5164 40.1119 21.7684C39.3733 21.0111 38.7903 20.1112 38.397 19.1215C37.9818 18.0702 37.7758 16.9454 37.7909 15.8122C37.789 14.6685 38.0062 13.5355 38.4305 12.4767C38.8114 11.4998 39.3832 10.612 40.1111 9.86739C40.839 9.12273 41.7079 8.5367 42.6649 8.14492C43.6554 7.73574 44.7169 7.53545 45.7853 7.55614C46.7389 7.55355 47.6865 7.7089 48.5911 8.01613C49.3523 8.31159 50.0653 8.72278 50.7058 9.23575C51.2884 9.70505 51.7821 10.2787 52.1628 10.9285C52.439 11.3924 52.6639 11.886 52.8333 12.4005C52.8723 12.5242 52.8617 12.6587 52.8037 12.7744C52.7457 12.8902 52.6451 12.9778 52.5239 13.0181L49.6871 13.9697C49.569 14.0085 49.4408 13.9999 49.3287 13.9457C49.2165 13.8915 49.1289 13.7957 49.0837 13.6779C48.8748 13.1642 48.568 12.6979 48.1811 12.3058C47.6653 11.7617 46.8762 11.4726 45.8472 11.4673C45.3291 11.4623 44.8147 11.5569 44.3309 11.746Z" fill="#989898"/>
<path d="M54.0968 23.2214L54.2077 1.19466C54.208 1.12977 54.2209 1.06558 54.2456 1.00575C54.2703 0.945931 54.3063 0.891649 54.3515 0.846006C54.3968 0.800364 54.4504 0.764254 54.5094 0.73974C54.5683 0.715225 54.6314 0.702786 54.6951 0.703132L57.8748 0.718903C58.003 0.720964 58.1252 0.77413 58.2154 0.866999C58.3055 0.959868 58.3564 1.08505 58.3571 1.21569L58.3209 8.27319C58.3199 8.363 58.343 8.4514 58.3877 8.52877C58.4325 8.60615 58.4972 8.66954 58.5748 8.71208C58.6524 8.75461 58.74 8.77466 58.828 8.77004C58.916 8.76542 59.0011 8.7363 59.074 8.68586C59.4256 8.43192 59.8148 8.23671 60.2267 8.1076C60.9479 7.84207 61.7087 7.706 62.4755 7.70544C63.3542 7.6857 64.2262 7.86526 65.0285 8.23113C65.7102 8.52392 66.3165 8.97287 66.8004 9.54313C67.2843 10.1134 67.6328 10.7896 67.8188 11.5194C68.043 12.305 68.1551 13.1194 68.1515 13.9376L68.1025 23.2977C68.1025 23.3624 68.0899 23.4266 68.0655 23.4864C68.0411 23.5462 68.0054 23.6005 67.9603 23.6462C67.9153 23.6918 67.8618 23.728 67.803 23.7525C67.7442 23.7771 67.6812 23.7895 67.6177 23.7892L64.438 23.7734C64.3743 23.7731 64.3113 23.7599 64.2526 23.7348C64.1939 23.7096 64.1407 23.673 64.0959 23.6268C64.0511 23.5807 64.0157 23.526 63.9916 23.4659C63.9676 23.4058 63.9554 23.3415 63.9557 23.2766L63.9996 14.6473C64.0291 13.8525 63.8027 13.0697 63.3548 12.4183C62.8907 11.8111 62.1737 11.522 61.1757 11.5168C60.7887 11.4931 60.4015 11.5602 60.0439 11.7129C59.6862 11.8655 59.3677 12.0996 59.1127 12.3973C58.5969 12.9938 58.3063 13.7578 58.2926 14.5527L58.2487 23.2477C58.2474 23.3786 58.1954 23.5036 58.1042 23.5956C58.0129 23.6876 57.8897 23.7393 57.7613 23.7392L54.5791 23.7182C54.5154 23.7179 54.4524 23.7047 54.3937 23.6796C54.335 23.6544 54.2818 23.6178 54.237 23.5716C54.1922 23.5255 54.1568 23.4708 54.1327 23.4107C54.1087 23.3506 54.0965 23.2863 54.0968 23.2214Z" fill="#989898"/>
<path d="M80.6512 8.34252C81.6036 8.74453 82.47 9.33201 83.2017 10.0721C83.926 10.8322 84.4941 11.7321 84.8728 12.719C85.2748 13.7841 85.4701 14.9187 85.4479 16.0598C85.4629 17.1914 85.256 18.3147 84.8393 19.3638C84.4519 20.3475 83.8739 21.2414 83.1398 21.9923C81.9575 23.1212 80.4812 23.8791 78.8874 24.1756C77.2937 24.472 75.6499 24.2944 74.1526 23.664C73.201 23.2607 72.3355 22.6724 71.6047 21.9318C70.8781 21.1735 70.3097 20.2731 69.9336 19.2849C69.5264 18.2322 69.33 17.107 69.3559 15.9757C69.345 14.8347 69.5526 13.7026 69.9671 12.6427C70.3532 11.659 70.9304 10.7649 71.664 10.0142C72.4019 9.28106 73.2736 8.7024 74.2299 8.31098C76.3026 7.51754 78.5894 7.52971 80.6538 8.34515L80.6512 8.34252ZM78.846 20.1891C79.3211 20.006 79.7489 19.7147 80.0968 19.3375C80.4646 18.9443 80.7536 18.4819 80.9478 17.9759C81.1856 17.3591 81.3046 16.7014 81.2985 16.0387C81.3124 15.3762 81.1994 14.7173 80.9659 14.0989C80.7773 13.5906 80.4935 13.1246 80.1303 12.7268C79.7852 12.3469 79.3603 12.0512 78.8873 11.8621C77.9486 11.4757 76.9004 11.47 75.9577 11.8463C75.4843 12.0327 75.0572 12.3236 74.707 12.6979C74.3386 13.0911 74.0502 13.5547 73.8586 14.0621C73.3945 15.3099 73.3872 16.6863 73.8379 17.9391C74.0259 18.4465 74.3078 18.9124 74.6683 19.3112C75.0149 19.6896 75.4394 19.9849 75.9113 20.176C76.8515 20.5604 77.9 20.5651 78.8435 20.1891H78.846Z" fill="#989898"/>
<path d="M87.1445 1.25497C87.3784 1.00952 87.6594 0.815857 87.97 0.686062C88.2806 0.556266 88.6141 0.493129 88.9497 0.500592C89.2913 0.495388 89.6302 0.561235 89.9459 0.694107C90.2616 0.826978 90.5474 1.02408 90.7859 1.27337C91.2533 1.78163 91.507 2.45623 91.4925 3.15274C91.4944 3.49529 91.4285 3.83472 91.2987 4.1507C91.1689 4.46669 90.9779 4.75275 90.7372 4.99176C90.4964 5.23077 90.2108 5.41783 89.8975 5.54174C89.5842 5.66564 89.2495 5.72386 88.9136 5.71289C88.5769 5.71832 88.2427 5.65271 87.932 5.52017C87.6214 5.38764 87.341 5.19104 87.1084 4.94274C86.8736 4.70623 86.6885 4.42345 86.5643 4.11164C86.4402 3.79983 86.3796 3.46552 86.3864 3.12908C86.3806 2.7805 86.4449 2.43441 86.5753 2.1121C86.7057 1.7898 86.8994 1.4981 87.1445 1.25497ZM87.3431 8.24939L90.5228 8.26516C90.5865 8.2655 90.6495 8.27863 90.7082 8.30378C90.7669 8.32893 90.8201 8.36562 90.8649 8.41175C90.9097 8.45788 90.9451 8.51255 90.9692 8.57264C90.9932 8.63272 91.0054 8.69705 91.0051 8.76194L90.9303 23.4132C90.9276 23.5426 90.8749 23.6657 90.7836 23.7558C90.6923 23.8459 90.5699 23.8956 90.4429 23.8942H87.2658C87.202 23.8935 87.139 23.8799 87.0804 23.8543C87.0218 23.8286 86.9688 23.7913 86.9244 23.7446C86.88 23.698 86.8452 23.6428 86.8219 23.5822C86.7986 23.5217 86.7873 23.4571 86.7887 23.3921L86.8609 8.74092C86.8616 8.61077 86.9126 8.48615 87.0029 8.39412C87.0932 8.30209 87.2154 8.25008 87.3431 8.24939Z" fill="#989898"/>
<path d="M96.5295 20.4393C96.9963 20.9177 97.6797 21.1753 98.5926 21.1806C99.1347 21.2182 99.6727 21.062 100.114 20.739C100.274 20.6034 100.403 20.4339 100.492 20.2423C100.581 20.0508 100.628 19.8417 100.63 19.6298C100.633 19.4582 100.601 19.2878 100.538 19.1288C100.475 18.9698 100.381 18.8255 100.261 18.7045C100.003 18.418 99.5777 18.2235 98.9846 18.0947L96.9499 17.6111C95.4541 17.2536 94.371 16.678 93.6825 15.8474C93.0115 15.0255 92.6519 13.9856 92.669 12.9166C92.6719 12.2347 92.8243 11.562 93.1151 10.9478C93.3941 10.3197 93.8136 9.76693 94.3401 9.33395C94.8662 8.85056 95.4792 8.47566 96.1453 8.22998C96.8713 7.94597 97.6449 7.80936 98.4224 7.82782C99.3597 7.80755 100.292 7.97454 101.166 8.31935C101.85 8.56811 102.475 8.96133 103 9.47326C103.438 9.89862 103.789 10.4089 104.031 10.9741C104.159 11.266 104.264 11.5674 104.346 11.8757C104.361 11.9398 104.364 12.0063 104.353 12.0714C104.343 12.1364 104.32 12.1987 104.286 12.2546C104.251 12.3104 104.206 12.3587 104.153 12.3965C104.1 12.4344 104.04 12.4611 103.977 12.475L101.437 13.0454C101.318 13.0724 101.193 13.0522 101.087 12.9887C100.982 12.9253 100.904 12.8234 100.87 12.7037C100.845 12.6143 100.815 12.5266 100.779 12.4408C100.678 12.1744 100.52 11.9345 100.315 11.739C100.095 11.5148 99.8319 11.3402 99.5416 11.2265C99.1948 11.0861 98.8237 11.0191 98.4508 11.0293C97.9576 11.0173 97.4744 11.1716 97.0762 11.4683C96.8894 11.5864 96.7358 11.752 96.6305 11.9487C96.5252 12.1454 96.4717 12.3666 96.4754 12.5907C96.4649 12.766 96.4961 12.9414 96.5661 13.102C96.6361 13.2625 96.743 13.4036 96.8777 13.5133C97.1683 13.7534 97.5116 13.9185 97.8782 13.9943L100.057 14.4805C101.584 14.8065 102.703 15.4163 103.449 16.2784C104.199 17.0986 104.606 18.185 104.583 19.3064C104.578 19.9501 104.448 20.5862 104.199 21.1779C103.963 21.8073 103.586 22.3717 103.098 22.826C102.557 23.3368 101.923 23.7334 101.231 23.993C99.4191 24.5977 97.4604 24.5625 95.6708 23.8932C94.9677 23.5905 94.3193 23.1703 93.7521 22.6499C93.2795 22.2065 92.9095 21.6615 92.669 21.0544C92.5199 20.735 92.4025 20.4013 92.3183 20.0582C92.3031 19.9941 92.3007 19.9276 92.3113 19.8625C92.3219 19.7975 92.3452 19.7353 92.3798 19.6796C92.4145 19.624 92.4598 19.576 92.513 19.5385C92.5662 19.501 92.6263 19.4748 92.6896 19.4615L95.2994 18.899C95.4213 18.872 95.5488 18.8946 95.6547 18.9618C95.7607 19.029 95.8367 19.1357 95.8667 19.2591C95.9807 19.7056 96.2095 20.1131 96.5295 20.4393Z" fill="#989898"/>
<path d="M119.104 21.5124C118.694 22.1123 118.185 22.636 117.601 23.0606C116.979 23.5172 116.294 23.8777 115.569 24.1304C114.729 24.3896 113.855 24.5138 112.977 24.4984C111.946 24.4927 110.923 24.3051 109.955 23.9438C109.009 23.5763 108.152 23.0083 107.438 22.2773C106.696 21.5256 106.116 20.624 105.736 19.6304C105.29 18.5092 105.073 17.3072 105.099 16.0977C105.094 14.9333 105.311 13.7791 105.738 12.6991C106.119 11.7388 106.686 10.8663 107.404 10.1337C108.103 9.42619 108.933 8.86848 109.846 8.49352C110.74 8.09428 111.707 7.89357 112.683 7.90474C115.084 7.90474 116.923 8.65649 118.256 10.0943C119.589 11.5321 120.234 13.5376 120.221 16.0504C120.225 16.3365 120.214 16.6225 120.188 16.9073C120.174 17.0274 120.117 17.1381 120.028 17.2181C119.939 17.2981 119.824 17.3419 119.705 17.341L109.725 17.2911C109.654 17.29 109.584 17.3049 109.519 17.3347C109.455 17.3645 109.397 17.4084 109.351 17.4634C109.305 17.5184 109.272 17.583 109.253 17.6527C109.234 17.7224 109.231 17.7955 109.243 17.8667C109.294 18.1628 109.386 18.4502 109.514 18.721C109.729 19.1377 110.011 19.5145 110.349 19.8355C110.7 20.1624 111.105 20.4224 111.546 20.603L111.595 20.6214C112.057 20.7891 112.543 20.8779 113.034 20.8842C114.001 20.8842 114.782 20.6713 115.314 20.2271C115.764 19.8793 116.129 19.4293 116.379 18.9129C116.427 18.8062 116.512 18.721 116.617 18.6727C116.722 18.6244 116.841 18.6164 116.951 18.65L119.53 19.4386C119.593 19.4575 119.652 19.4894 119.702 19.5323C119.753 19.5752 119.794 19.6282 119.824 19.6881C119.854 19.7479 119.871 19.8133 119.875 19.8802C119.879 19.9472 119.87 20.0142 119.847 20.0773C119.661 20.5863 119.412 21.0686 119.104 21.5124ZM115.904 13.3247C115.778 12.9475 115.566 12.6061 115.285 12.3285C114.989 12.0162 114.627 11.7755 114.228 11.6241C113.756 11.4162 113.246 11.3157 112.732 11.3297C112.236 11.3182 111.744 11.416 111.288 11.6162C110.895 11.7943 110.535 12.0397 110.223 12.3416C109.948 12.6274 109.725 12.9601 109.563 13.3247C109.496 13.4735 109.439 13.6272 109.395 13.7847C109.376 13.8577 109.373 13.9343 109.387 14.0085C109.402 14.0827 109.433 14.1526 109.478 14.2126C109.523 14.2726 109.581 14.3212 109.648 14.3546C109.714 14.388 109.788 14.4052 109.862 14.405L115.579 14.4365C115.653 14.4365 115.725 14.4196 115.791 14.387C115.857 14.3545 115.915 14.3071 115.961 14.2485C116.007 14.1898 116.039 14.1214 116.055 14.0484C116.071 13.9754 116.07 13.8996 116.054 13.8267C116.02 13.6548 115.97 13.4866 115.904 13.3247Z" fill="#989898"/>
<path d="M124.876 9.2131C124.737 9.27076 124.61 9.35795 124.505 9.46919C124.395 9.59749 124.308 9.74468 124.247 9.90421C124.178 10.0908 124.145 10.2896 124.15 10.4894C124.143 10.6892 124.174 10.8883 124.241 11.0755C124.3 11.2371 124.386 11.3863 124.495 11.5163C124.602 11.6328 124.73 11.7248 124.873 11.7863C125.021 11.8474 125.178 11.8786 125.337 11.8782C125.479 11.8805 125.621 11.8543 125.754 11.8011C125.871 11.759 125.981 11.6957 126.077 11.6139C126.162 11.5394 126.234 11.449 126.287 11.3472C126.316 11.297 126.343 11.2449 126.365 11.1912C126.381 11.1563 126.408 11.1286 126.441 11.1134C126.475 11.0983 126.513 11.0967 126.547 11.1091L127.386 11.4071C127.422 11.4205 127.452 11.4479 127.469 11.4836C127.486 11.5192 127.489 11.5603 127.477 11.5983C127.425 11.7557 127.355 11.9059 127.269 12.0457C127.145 12.2452 126.99 12.4221 126.811 12.5693C126.617 12.7337 126.399 12.8635 126.165 12.9535C125.896 13.0467 125.614 13.092 125.33 13.0873C125.003 13.0914 124.678 13.0217 124.378 12.8829C124.084 12.7601 123.818 12.5764 123.594 12.3428C123.369 12.1065 123.192 11.8254 123.073 11.5163C122.947 11.188 122.884 10.8367 122.889 10.4829C122.888 10.1257 122.954 9.77191 123.083 9.44128C123.199 9.13623 123.373 8.85902 123.594 8.62648C123.815 8.39395 124.079 8.21095 124.37 8.08861C124.671 7.96084 124.993 7.89829 125.318 7.90475C125.608 7.90394 125.896 7.95245 126.17 8.04839C126.402 8.14098 126.618 8.26936 126.813 8.42924C126.99 8.57579 127.14 8.75492 127.256 8.95783C127.339 9.10284 127.408 9.25696 127.46 9.41748C127.471 9.45623 127.468 9.49812 127.45 9.53417C127.433 9.57023 127.402 9.59758 127.365 9.61037L126.503 9.9075C126.467 9.91962 126.429 9.91694 126.394 9.90001C126.36 9.88308 126.334 9.85318 126.32 9.81639C126.257 9.65598 126.163 9.51036 126.046 9.38793C125.889 9.21803 125.649 9.12774 125.337 9.1261C125.179 9.12454 125.023 9.15405 124.876 9.2131Z" fill="#989898"/>
<path d="M131.003 8.12296C131.292 8.24881 131.555 8.43223 131.777 8.66305C131.998 8.90013 132.17 9.18121 132.285 9.48959C132.407 9.82134 132.467 10.1748 132.46 10.5304C132.464 10.8837 132.401 11.2345 132.275 11.5621C132.157 11.8692 131.982 12.1484 131.759 12.3829C131.535 12.6115 131.27 12.7922 130.98 12.9148C130.671 13.0504 130.338 13.1164 130.003 13.1085C129.668 13.1148 129.335 13.0474 129.027 12.9107C128.738 12.7848 128.475 12.6014 128.253 12.3706C128.032 12.1323 127.86 11.8497 127.747 11.5399C127.623 11.2111 127.564 10.8598 127.572 10.5066C127.568 10.1496 127.63 9.79523 127.755 9.46332C127.873 9.15639 128.048 8.87729 128.271 8.64253C128.497 8.41402 128.763 8.23342 129.054 8.11065C129.685 7.86314 130.38 7.86694 131.007 8.12132L131.003 8.12296ZM130.455 11.8231C130.599 11.7651 130.729 11.674 130.835 11.5564C130.947 11.4334 131.034 11.289 131.093 11.1312C131.165 10.9399 131.201 10.7359 131.2 10.5304C131.203 10.3235 131.169 10.1178 131.098 9.92461C131.041 9.76594 130.955 9.62041 130.845 9.49616C130.74 9.37765 130.61 9.28538 130.466 9.22611C130.182 9.10388 129.863 9.10065 129.576 9.21709C129.432 9.27508 129.302 9.36591 129.196 9.48302C129.084 9.60615 128.996 9.75084 128.938 9.90902C128.865 10.1016 128.829 10.307 128.83 10.5139C128.827 10.7208 128.861 10.9264 128.931 11.1197C128.989 11.2783 129.075 11.4237 129.185 11.5482C129.291 11.6664 129.42 11.7586 129.563 11.8182C129.705 11.8779 129.856 11.9091 130.008 11.9101C130.161 11.9104 130.312 11.8809 130.454 11.8231H130.455Z" fill="#989898"/>
<path d="M133.036 8.09601L133.945 8.10093C133.965 8.10082 133.984 8.10476 134.002 8.11252C134.02 8.12028 134.037 8.1317 134.05 8.14613C134.064 8.16055 134.075 8.1777 134.082 8.19657C134.09 8.21544 134.094 8.23566 134.093 8.25606V8.26755C134.094 8.29689 134.102 8.32557 134.117 8.35021C134.132 8.37486 134.154 8.39442 134.179 8.4066C134.205 8.41878 134.233 8.42305 134.261 8.41892C134.288 8.41479 134.314 8.40242 134.336 8.38329C134.441 8.2914 134.556 8.21364 134.68 8.15182C134.804 8.08985 134.936 8.04383 135.071 8.01475C135.2 7.98511 135.331 7.96916 135.463 7.96714C135.757 7.9611 136.047 8.03461 136.305 8.18055C136.477 8.28079 136.624 8.42126 136.735 8.59095C136.747 8.61088 136.764 8.62743 136.784 8.63926C136.804 8.65109 136.827 8.65787 136.849 8.65907C136.872 8.66027 136.895 8.65584 136.916 8.64615C136.937 8.63646 136.955 8.62177 136.97 8.60326C137.108 8.41708 137.286 8.26752 137.49 8.1666C137.749 8.04001 138.033 7.97873 138.319 7.98766C138.533 7.98913 138.744 8.02711 138.946 8.10011C139.145 8.17009 139.328 8.28181 139.484 8.42843C139.651 8.59156 139.78 8.79263 139.86 9.01612C139.961 9.28148 140.008 9.56561 139.999 9.85087L139.984 12.8632C139.984 12.9041 139.968 12.9431 139.94 12.9718C139.912 13.0006 139.875 13.0167 139.836 13.0167L138.908 13.0118C138.889 13.0117 138.87 13.0076 138.852 12.9997C138.834 12.9919 138.818 12.9804 138.804 12.966C138.791 12.9516 138.78 12.9345 138.773 12.9158C138.765 12.897 138.762 12.8769 138.762 12.8566L138.775 10.1119C138.785 9.87736 138.719 9.64627 138.589 9.45525C138.457 9.27549 138.249 9.18521 137.955 9.18356C137.835 9.17685 137.715 9.19904 137.605 9.24842C137.495 9.2978 137.397 9.37306 137.319 9.46838C137.165 9.65553 137.083 9.89555 137.088 10.1423L137.075 12.8509C137.075 12.8712 137.071 12.8912 137.063 12.9099C137.056 12.9286 137.045 12.9455 137.031 12.9598C137.017 12.974 137.001 12.9853 136.983 12.9929C136.965 13.0006 136.946 13.0045 136.927 13.0044L135.968 12.9945C135.93 12.9943 135.892 12.978 135.865 12.949C135.837 12.9201 135.822 12.881 135.822 12.8402L135.836 10.0955C135.845 9.85643 135.776 9.6213 135.64 9.42898C135.509 9.2599 135.3 9.16961 135.013 9.16797C134.727 9.16633 134.52 9.25497 134.368 9.44212C134.214 9.63298 134.132 9.87613 134.137 10.1258L134.124 12.8345C134.124 12.8547 134.12 12.8748 134.112 12.8935C134.105 12.9121 134.094 12.9291 134.08 12.9433C134.067 12.9576 134.05 12.9689 134.032 12.9765C134.014 12.9842 133.995 12.9881 133.976 12.988L133.01 12.983C132.99 12.9829 132.971 12.9788 132.953 12.971C132.936 12.9631 132.919 12.9517 132.906 12.9373C132.892 12.9229 132.882 12.9058 132.874 12.887C132.867 12.8683 132.863 12.8482 132.863 12.8279L132.886 8.25278C132.886 8.232 132.889 8.21134 132.897 8.19206C132.904 8.17278 132.915 8.15528 132.929 8.14062C132.943 8.12596 132.96 8.11445 132.978 8.10678C132.997 8.09911 133.017 8.09545 133.036 8.09601Z" fill="#989898"/>
</g>
<defs>
<clipPath id="clip0_2015_6476">
<rect width="140" height="25" fill="white" transform="translate(0 0.5)"/>
</clipPath>
</defs>
</svg>
