<svg width="913" height="203" viewBox="0 0 913 203" fill="none" xmlns="http://www.w3.org/2000/svg">
<path d="M256.619 135.75L233.307 55.6146H251.155L266.939 121.787L282.966 55.6146H298.993L315.263 121.787L330.926 55.6146H348.046L324.734 135.75H305.914L294.744 92.0397L290.98 73.0986H290.737L286.973 92.0397L275.924 135.75H256.619ZM375.301 73.8271C381.453 73.8271 386.836 75.0817 391.45 77.591C396.144 80.1003 399.787 83.7024 402.377 88.3971C405.048 93.0919 406.384 98.7581 406.384 105.396C406.384 111.952 405.048 117.618 402.377 122.394C399.787 127.089 396.144 130.691 391.45 133.2C386.836 135.709 381.453 136.964 375.301 136.964C369.23 136.964 363.848 135.709 359.153 133.2C354.458 130.691 350.775 127.089 348.104 122.394C345.514 117.618 344.218 111.952 344.218 105.396C344.218 98.7581 345.514 93.0919 348.104 88.3971C350.775 83.7024 354.458 80.1003 359.153 77.591C363.848 75.0817 369.23 73.8271 375.301 73.8271ZM375.301 86.2116C372.225 86.2116 369.595 86.9401 367.409 88.3971C365.305 89.7732 363.686 91.8778 362.552 94.7108C361.419 97.5439 360.853 101.105 360.853 105.396C360.853 109.686 361.419 113.247 362.552 116.08C363.686 118.913 365.305 121.058 367.409 122.515C369.595 123.891 372.225 124.579 375.301 124.579C378.296 124.579 380.846 123.891 382.95 122.515C385.136 121.058 386.795 118.913 387.929 116.08C389.062 113.247 389.628 109.686 389.628 105.396C389.628 101.105 389.062 97.5439 387.929 94.7108C386.795 91.8778 385.136 89.7732 382.95 88.3971C380.846 86.9401 378.296 86.2116 375.301 86.2116ZM490.885 75.0413H508.612L489.186 135.75H470.002L456.767 94.468L444.018 135.75H424.835L405.408 75.0413H423.135L435.276 121.544L448.754 75.0413H465.266L478.865 121.544L490.885 75.0413ZM582.448 113.652C580.91 118.832 578.482 123.163 575.163 126.643C571.844 130.124 567.918 132.714 563.386 134.414C558.853 136.114 553.875 136.964 548.451 136.964C540.519 136.964 533.638 135.305 527.81 131.986C522.063 128.667 517.611 123.932 514.455 117.78C511.379 111.628 509.841 104.262 509.841 95.6822C509.841 87.102 511.379 79.7361 514.455 73.5843C517.611 67.4325 522.063 62.6972 527.81 59.3785C533.638 56.0598 540.438 54.4004 548.208 54.4004C553.713 54.4004 558.691 55.1694 563.143 56.7073C567.595 58.1643 571.359 60.4308 574.435 63.5067C577.591 66.5826 579.898 70.4679 581.355 75.1627L566.178 81.5978C564.802 76.7411 562.698 73.301 559.864 71.2774C557.031 69.1728 553.389 68.1205 548.937 68.1205C544.566 68.1205 540.721 69.1728 537.402 71.2774C534.165 73.3819 531.655 76.4983 529.874 80.6265C528.094 84.6737 527.203 89.6923 527.203 95.6822C527.203 101.591 528.013 106.61 529.632 110.738C531.331 114.866 533.8 117.982 537.038 120.087C540.276 122.192 544.242 123.244 548.937 123.244C553.308 123.244 557.072 122.07 560.229 119.723C563.467 117.375 565.733 113.814 567.028 109.038L582.448 113.652ZM588.958 135.75V48.451H605.592V85.3617C607.535 81.4764 610.206 78.6028 613.606 76.7411C617.005 74.7984 620.85 73.8271 625.14 73.8271C629.349 73.8271 633.073 74.6366 636.311 76.2554C639.629 77.8743 642.22 80.3431 644.081 83.6619C646.024 86.8997 646.995 90.9874 646.995 95.925V135.75H630.361V100.782C630.361 95.5203 629.349 91.9182 627.326 89.9756C625.302 87.9519 622.712 86.9401 619.555 86.9401C617.208 86.9401 614.941 87.5068 612.756 88.64C610.651 89.6923 608.911 91.473 607.535 93.9823C606.24 96.4107 605.592 99.6484 605.592 103.696V135.75H588.958ZM692.665 97.0177C692.665 93.5371 691.653 90.8255 689.63 88.8828C687.687 86.9401 685.097 85.9688 681.859 85.9688C678.864 85.9688 676.233 86.7378 673.967 88.2757C671.701 89.8137 670.041 92.3634 668.989 95.925L654.783 91.554C656.159 86.2116 659.154 81.9216 663.768 78.6838C668.463 75.446 674.736 73.8271 682.588 73.8271C687.93 73.8271 692.584 74.677 696.551 76.3769C700.517 77.9958 703.593 80.4646 705.778 83.7833C708.045 87.102 709.178 91.2707 709.178 96.2892V120.937C709.178 124.013 710.635 125.551 713.549 125.551C714.925 125.551 716.22 125.348 717.434 124.944L716.463 135.264C714.358 136.316 711.728 136.843 708.571 136.843C705.738 136.843 703.188 136.357 700.922 135.386C698.655 134.414 696.874 132.957 695.579 131.014C694.284 128.991 693.637 126.482 693.637 123.487V123.001L696.551 122.515C696.065 125.591 694.729 128.222 692.544 130.407C690.358 132.512 687.687 134.131 684.53 135.264C681.454 136.397 678.257 136.964 674.938 136.964C670.81 136.964 667.249 136.357 664.254 135.143C661.259 133.848 658.952 131.986 657.333 129.557C655.714 127.129 654.905 124.134 654.905 120.573C654.905 116.04 656.362 112.357 659.276 109.524C662.19 106.61 666.358 104.627 671.782 103.574L694.608 98.9604L694.486 109.281L679.916 112.195C677.164 112.761 675.06 113.53 673.603 114.502C672.227 115.392 671.539 116.89 671.539 118.994C671.539 121.018 672.267 122.556 673.724 123.608C675.262 124.66 677.083 125.186 679.188 125.186C680.888 125.186 682.547 124.984 684.166 124.579C685.785 124.175 687.242 123.527 688.537 122.637C689.832 121.746 690.844 120.532 691.572 118.994C692.301 117.456 692.665 115.595 692.665 113.409V97.0177ZM740.83 56.4645V115.959C740.83 118.873 741.558 121.018 743.015 122.394C744.553 123.689 746.617 124.337 749.208 124.337C751.231 124.337 753.012 124.053 754.55 123.487C756.088 122.839 757.464 121.989 758.678 120.937L761.349 131.986C759.407 133.524 756.978 134.738 754.064 135.628C751.15 136.519 748.074 136.964 744.837 136.964C740.789 136.964 737.187 136.357 734.03 135.143C730.955 133.929 728.526 131.986 726.745 129.315C725.046 126.643 724.196 123.082 724.196 118.63V61.0783L740.83 56.4645ZM760.257 75.0413V87.4258H713.025V75.0413H760.257ZM781.239 56.4645V115.959C781.239 118.873 781.967 121.018 783.424 122.394C784.962 123.689 787.026 124.337 789.617 124.337C791.64 124.337 793.421 124.053 794.959 123.487C796.497 122.839 797.873 121.989 799.087 120.937L801.758 131.986C799.816 133.524 797.387 134.738 794.473 135.628C791.559 136.519 788.483 136.964 785.246 136.964C781.198 136.964 777.596 136.357 774.44 135.143C771.364 133.929 768.935 131.986 767.154 129.315C765.455 126.643 764.605 123.082 764.605 118.63V61.0783L781.239 56.4645ZM800.666 75.0413V87.4258H753.434V75.0413H800.666ZM834.017 136.964C827.623 136.964 822.038 135.709 817.262 133.2C812.567 130.691 808.924 127.089 806.334 122.394C803.744 117.699 802.449 112.033 802.449 105.396C802.449 98.7581 803.744 93.0919 806.334 88.3971C808.924 83.7024 812.527 80.1003 817.14 77.591C821.835 75.0817 827.178 73.8271 833.167 73.8271C839.319 73.8271 844.54 75.0817 848.83 77.591C853.12 80.0194 856.399 83.3786 858.665 87.6686C860.931 91.8778 862.065 96.694 862.065 102.117C862.065 103.736 862.024 105.274 861.943 106.731C861.862 108.188 861.741 109.483 861.579 110.616H813.134V99.0818H854.294L846.28 101.996C846.28 96.8963 845.107 92.9705 842.759 90.2184C840.493 87.4663 837.255 86.0902 833.046 86.0902C829.97 86.0902 827.299 86.8187 825.032 88.2757C822.847 89.7327 821.188 91.9182 820.054 94.8322C818.921 97.6653 818.355 101.267 818.355 105.638C818.355 109.928 818.962 113.49 820.176 116.323C821.471 119.075 823.252 121.139 825.518 122.515C827.866 123.891 830.658 124.579 833.896 124.579C837.457 124.579 840.331 123.891 842.517 122.515C844.702 121.139 846.402 119.237 847.616 116.809L860.85 121.908C859.555 125.065 857.572 127.777 854.901 130.043C852.311 132.31 849.194 134.05 845.552 135.264C841.99 136.397 838.146 136.964 834.017 136.964ZM870.09 135.75V75.0413H884.539L885.632 86.9401C887.251 82.731 889.598 79.4932 892.674 77.2268C895.831 74.9603 899.757 73.8271 904.451 73.8271C905.828 73.8271 907.082 73.9485 908.215 74.1914C909.349 74.4342 910.279 74.758 911.008 75.1627L909.065 89.1256C908.256 88.8019 907.244 88.559 906.03 88.3971C904.897 88.2353 903.399 88.1543 901.537 88.1543C899.109 88.1543 896.762 88.7614 894.495 89.9756C892.229 91.1088 890.367 92.8896 888.91 95.3179C887.453 97.6653 886.725 100.66 886.725 104.303V135.75H870.09Z" fill="#959595"/>
<path d="M170.057 87.8554C170.057 126.893 152.384 164.711 113.251 185.45L114.513 161.154C106.945 163.465 98.8874 164.711 90.5285 164.711C46.6061 164.711 11 130.302 11 87.8554C11 45.4094 46.6061 11 90.5285 11C134.451 11 170.057 45.4094 170.057 87.8554Z" stroke="#959595" stroke-width="20.5235"/>
<path d="M76.4062 129.602C92.8079 134.081 109.517 125.214 113.727 109.796C92.4772 114.107 70.4413 108.09 54.3317 93.5763C50.1214 108.994 60.0045 125.123 76.4062 129.602Z" fill="#959595"/>
</svg>
