<svg width="203" height="100" viewBox="0 0 203 100" fill="none" xmlns="http://www.w3.org/2000/svg">
<path d="M60.4434 47.3441C60.4434 47.8738 60.2545 48.308 59.8826 48.6418C59.5107 48.9755 59.0268 49.145 58.4365 49.145H51.5069C50.9166 49.145 50.4325 48.9755 50.0607 48.6418C49.6888 48.308 49.5 47.8738 49.5 47.3441V26.6661C49.5 26.1365 49.6888 25.7021 50.0607 25.3685C50.4325 25.0348 50.9166 24.8652 51.5069 24.8652H58.4365C59.0268 24.8652 59.5107 25.0348 59.8826 25.3685C60.2545 25.7021 60.4434 26.1365 60.4434 26.6661V32.2382H58.0351V26.772H51.9082V47.2382H58.0351V38.8483H55.1311V36.9733H60.4434V47.3441ZM76.2447 49.145H73.7302L68.7011 36.1364L69.0316 35.7021H73.3053V26.772H67.1428V49.145H64.7346V24.8652H73.7064C74.2967 24.8652 74.7807 25.0348 75.1526 25.3685C75.5245 25.7021 75.7134 26.1365 75.7134 26.6661V35.7445C75.7134 36.9469 74.84 37.5453 73.0869 37.5453C72.9155 37.5453 72.6616 37.5401 72.3253 37.5242C71.9948 37.5083 71.7528 37.4977 71.5993 37.4977C73.1575 41.3695 74.7041 45.2519 76.2447 49.145ZM88.7405 49.145H79.851V24.8652H88.6341V26.772H82.2594V35.8293H88.0673V37.7678H82.2594V47.2382H88.7405V49.145ZM101.384 49.145H92.4946V24.8652H101.277V26.772H94.9027V35.8293H100.711V37.7678H94.9027V47.2382H101.384V49.145ZM116.294 49.145H114.635L107.404 31.29V49.145H105.138V24.8652H106.938L114.027 42.4129V24.8652H116.294V49.145Z" fill="#989898"/>
<path d="M60.6538 72.8946C60.6538 73.4326 60.4696 73.8736 60.1013 74.2127C59.7387 74.5514 59.2668 74.7237 58.697 74.7237H51.4568C50.8813 74.7237 50.4093 74.5514 50.0467 74.2127C49.6841 73.8736 49.5 73.4326 49.5 72.8946V51.8935C49.5 51.3557 49.6841 50.9145 50.0467 50.5757C50.4093 50.2367 50.8813 50.0644 51.4568 50.0644H58.697C59.2668 50.0644 59.7387 50.2367 60.1013 50.5757C60.4696 50.9145 60.6538 51.3557 60.6538 51.8935V72.8946ZM58.3057 72.7871V52.0012H51.8482V72.7871H58.3057ZM75.4276 72.8946C75.4276 73.4326 75.2437 73.8736 74.8751 74.2127C74.5068 74.5514 74.0351 74.7237 73.471 74.7237H66.8178C66.2423 74.7237 65.7703 74.5514 65.4077 74.2127C65.0451 73.8736 64.861 73.4326 64.861 72.8946V51.8935C64.861 51.3557 65.0451 50.9145 65.4077 50.5757C65.7703 50.2367 66.2423 50.0644 66.8178 50.0644H73.471C74.0351 50.0644 74.5068 50.2367 74.8751 50.5757C75.2437 50.9145 75.4276 51.3557 75.4276 51.8935V57.5527H73.0797V52.0012H67.2091V72.7871H73.0797V66.719H75.4276V72.8946ZM88.1988 74.7237H79.5313V50.0644H88.0953V52.0012H81.8795V61.1998H87.5426V63.1687H81.8795V72.7871H88.1988V74.7237ZM102.495 74.7237H100.181L99.2549 69.2689H94.0001L93.0677 74.7237H90.8232V74.6592L95.5196 50H97.8332L102.495 74.7237ZM98.9498 67.3324L96.6362 53.9484L94.2996 67.3324H98.9498ZM116.544 74.7237H114.926L107.876 56.5896V74.7237H105.666V50.0644H107.421L114.334 67.8865V50.0644H116.544V74.7237Z" fill="#989898"/>
<path fill-rule="evenodd" clip-rule="evenodd" d="M138.271 23.9661L153.062 37.2089C153.645 37.7304 153.646 38.577 153.065 39.0997C152.484 39.6224 151.54 39.6234 150.958 39.1019L138.657 28.0893V37.702L153.062 50.599C153.645 51.1205 153.646 51.9671 153.065 52.4898C152.484 53.0126 151.54 53.0134 150.958 52.492L138.657 41.4793V51.0921L153.062 63.9889C153.645 64.5106 153.646 65.3572 153.065 65.8797C152.484 66.4025 151.54 66.4035 150.958 65.8821L138.657 54.8694V75.1358C138.657 75.8741 137.99 76.4728 137.167 76.4728C136.344 76.4728 135.677 75.8741 135.677 75.1358V54.7681L123.263 65.8821C122.681 66.4035 121.737 66.4025 121.156 65.8797C120.575 65.3572 120.576 64.5106 121.158 63.9889L135.677 50.9908V41.378L123.263 52.492C122.681 53.0134 121.737 53.0126 121.156 52.4898C120.575 51.9671 120.576 51.1205 121.158 50.599L135.677 37.6007V27.9879L123.263 39.1019C122.681 39.6234 121.737 39.6224 121.156 39.0997C120.575 38.577 120.576 37.7304 121.158 37.2089L136.002 23.9202C136.298 23.6549 136.688 23.5248 137.075 23.5298C137.106 23.5282 137.136 23.5273 137.167 23.5273C137.604 23.5273 137.998 23.6966 138.271 23.9661Z" fill="#989898"/>
</svg>
