<svg width="105" height="54" viewBox="0 0 105 54" fill="none" xmlns="http://www.w3.org/2000/svg">
<path d="M11.4434 24.3441C11.4434 24.8738 11.2545 25.308 10.8826 25.6418C10.5107 25.9755 10.0268 26.145 9.4365 26.145H2.5069C1.91664 26.145 1.43254 25.9755 1.06068 25.6418C0.688809 25.308 0.5 24.8738 0.5 24.3441V3.6661C0.5 3.13646 0.688809 2.70215 1.06068 2.36846C1.43254 2.03477 1.91664 1.86523 2.5069 1.86523H9.4365C10.0268 1.86523 10.5107 2.03477 10.8826 2.36846C11.2545 2.70215 11.4434 3.13646 11.4434 3.6661V9.23816H9.03513V3.77202H2.90824V24.2382H9.03513V15.8483H6.13105V13.9733H11.4434V24.3441ZM27.2447 26.145H24.7302L19.7011 13.1364L20.0316 12.7021H24.3053V3.77202H18.1428V26.145H15.7346V1.86523H24.7064C25.2967 1.86523 25.7807 2.03477 26.1526 2.36846C26.5245 2.70215 26.7134 3.13646 26.7134 3.6661V12.7445C26.7134 13.9469 25.84 14.5453 24.0869 14.5453C23.9155 14.5453 23.6616 14.5401 23.3253 14.5242C22.9948 14.5083 22.7528 14.4977 22.5993 14.4977C24.1575 18.3695 25.7041 22.2519 27.2447 26.145ZM39.7405 26.145H30.851V1.86523H39.6341V3.77202H33.2594V12.8293H39.0673V14.7678H33.2594V24.2382H39.7405V26.145ZM52.3838 26.145H43.4946V1.86523H52.2774V3.77202H45.9027V12.8293H51.7109V14.7678H45.9027V24.2382H52.3838V26.145ZM67.2937 26.145H65.635L58.4045 8.29V26.145H56.1379V1.86523H57.9381L65.0271 19.4129V1.86523H67.2937V26.145Z" fill="#FF3D0B"/>
<path d="M11.6538 49.8946C11.6538 50.4326 11.4696 50.8736 11.1013 51.2127C10.7387 51.5514 10.2668 51.7237 9.697 51.7237H2.45684C1.88129 51.7237 1.40927 51.5514 1.0467 51.2127C0.684101 50.8736 0.5 50.4326 0.5 49.8946V28.8935C0.5 28.3557 0.684101 27.9145 1.0467 27.5757C1.40927 27.2367 1.88129 27.0644 2.45684 27.0644H9.697C10.2668 27.0644 10.7387 27.2367 11.1013 27.5757C11.4696 27.9145 11.6538 28.3557 11.6538 28.8935V49.8946ZM9.30568 49.7871V29.0012H2.84817V49.7871H9.30568ZM26.4276 49.8946C26.4276 50.4326 26.2437 50.8736 25.8751 51.2127C25.5068 51.5514 25.0351 51.7237 24.471 51.7237H17.8178C17.2423 51.7237 16.7703 51.5514 16.4077 51.2127C16.0451 50.8736 15.861 50.4326 15.861 49.8946V28.8935C15.861 28.3557 16.0451 27.9145 16.4077 27.5757C16.7703 27.2367 17.2423 27.0644 17.8178 27.0644H24.471C25.0351 27.0644 25.5068 27.2367 25.8751 27.5757C26.2437 27.9145 26.4276 28.3557 26.4276 28.8935V34.5527H24.0797V29.0012H18.2091V49.7871H24.0797V43.719H26.4276V49.8946ZM39.1988 51.7237H30.5313V27.0644H39.0953V29.0012H32.8795V38.1998H38.5426V40.1687H32.8795V49.7871H39.1988V51.7237ZM53.495 51.7237H51.1814L50.2549 46.2689H45.0001L44.0677 51.7237H41.8232V51.6592L46.5196 27H48.8332L53.495 51.7237ZM49.9498 44.3324L47.6362 30.9484L45.2996 44.3324H49.9498ZM67.544 51.7237H65.9265L58.8762 33.5896V51.7237H56.6663V27.0644H58.4215L65.3338 44.8865V27.0644H67.544V51.7237Z" fill="#FF3D0B"/>
<path fill-rule="evenodd" clip-rule="evenodd" d="M89.2708 0.966122L104.062 14.2089C104.645 14.7304 104.646 15.577 104.065 16.0997C103.484 16.6224 102.54 16.6234 101.958 16.1019L89.657 5.08926V14.702L104.062 27.599C104.645 28.1205 104.646 28.9671 104.065 29.4898C103.484 30.0126 102.54 30.0134 101.958 29.492L89.657 18.4793V28.0921L104.062 40.9889C104.645 41.5106 104.646 42.3572 104.065 42.8797C103.484 43.4025 102.54 43.4035 101.958 42.8821L89.657 31.8694V52.1358C89.657 52.8741 88.9897 53.4728 88.167 53.4728C87.3442 53.4728 86.677 52.8741 86.677 52.1358V31.7681L74.2629 42.8821C73.6806 43.4035 72.7371 43.4025 72.1557 42.8797C71.5746 42.3572 71.5758 41.5106 72.1584 40.9889L86.677 27.9908V18.378L74.2629 29.492C73.6806 30.0134 72.7371 30.0126 72.1557 29.4898C71.5746 28.9671 71.5758 28.1205 72.1584 27.599L86.677 14.6007V4.98792L74.2629 16.1019C73.6806 16.6234 72.7371 16.6224 72.1557 16.0997C71.5746 15.577 71.5758 14.7304 72.1584 14.2089L87.0015 0.920183C87.2977 0.654868 87.6875 0.524777 88.0755 0.529831C88.1059 0.528173 88.1363 0.527344 88.167 0.527344C88.6044 0.527344 88.9981 0.696609 89.2708 0.966122Z" fill="#FF3D0B"/>
</svg>
