<svg width="162" height="22" viewBox="0 0 162 22" fill="none" xmlns="http://www.w3.org/2000/svg">
<g clip-path="url(#clip0_512_748)">
<path d="M26.2824 16.9525C25.244 14.9399 24.4044 12.8597 23.9181 10.6459C23.8296 10.2653 23.8296 10.2653 24.2055 10.1081C24.5807 9.92963 24.9566 9.75119 25.2657 9.50511C25.7085 9.12459 25.6416 8.54363 25.1772 8.18511C24.883 7.96557 24.5267 7.8481 24.1613 7.85022H23.5422V7.69378C23.6533 6.79911 23.7636 5.90444 23.8521 5.03178C23.9624 4.0703 24.0727 3.10882 24.117 2.14733C24.1644 1.63672 24.0227 1.12649 23.7193 0.715704C23.4102 0.291186 22.924 0.112741 22.482 0.223556C22.0393 0.380001 21.7527 0.738519 21.7092 1.31948C21.6424 2.19133 21.5756 3.042 21.5539 3.91385C21.5321 5.30067 21.5756 6.66467 21.5981 8.05148C21.5981 8.20793 21.5981 8.29756 21.421 8.34237C19.8529 8.72207 18.3942 9.39348 17.0024 10.1985C16.9364 10.2433 16.8696 10.2653 16.8036 10.3101C16.7867 10.2701 16.7645 10.2325 16.7375 10.1985C16.2062 8.56563 15.7651 6.91074 15.522 5.21104C15.3892 4.15993 15.3014 3.10882 14.9915 2.0797C14.9698 2.0357 14.9698 1.96807 14.9698 1.92326C14.9698 1.45393 14.6824 1.16304 14.2187 1.18585C13.9313 1.20785 13.6439 1.22985 13.3791 1.31948C12.5177 1.54356 11.6113 1.83444 10.7057 2.12452C10.0206 2.34859 9.31303 2.50504 8.60624 2.54985C8.38567 2.57185 8.29712 2.52704 8.23111 2.30378C8.09828 1.76682 7.61206 1.56556 7.14838 1.87844C6.92701 2.01289 6.79418 2.28096 6.61708 2.48222C6.55188 2.54985 6.48506 2.63948 6.41905 2.63948C5.29205 2.63948 4.18759 2.61667 3.06059 2.59467C2.5301 2.57185 2.00041 2.48222 1.44737 2.48222C0.763122 2.46022 0.364647 2.998 0.541747 3.66778C0.652032 4.09311 0.917682 4.428 1.29281 4.62926C1.66875 4.83052 2.08815 5.00978 2.50836 5.12141C3.23769 5.30067 3.96622 5.23304 4.69555 5.14422C5.29205 5.05459 5.88856 4.96496 6.5068 4.87533V5.16622C6.48506 5.97126 6.41825 6.7763 6.41825 7.58133C6.39651 9.818 6.61789 12.0319 6.90527 14.2465C7.05983 15.3416 7.23613 16.4156 7.61206 17.4439C7.83344 18.0704 8.16429 18.6294 8.62878 19.0767C9.02645 19.4573 9.49013 19.7033 10.0649 19.4793C10.5286 19.278 10.7934 18.7639 10.7491 18.1153C10.7205 17.7347 10.6465 17.359 10.5286 16.9965C10.2629 16.1027 9.93207 15.23 9.64469 14.3353C9.09246 12.524 8.80507 10.6459 8.5845 8.76689C8.42994 7.40289 8.31885 6.01607 8.31885 4.65207C8.31885 4.51763 8.31885 4.406 8.51769 4.38319C10.0649 4.29356 11.567 3.91385 13.0474 3.4217C13.0917 3.3997 13.136 3.3997 13.1802 3.3997C13.1802 3.48933 13.1802 3.55615 13.202 3.62296C13.268 4.38319 13.3123 5.16622 13.4008 5.92644C13.6439 7.71578 14.0416 9.4603 14.6381 11.16C14.6824 11.3164 14.6606 11.3613 14.5278 11.4289C14.1301 11.6293 13.755 11.8306 13.4008 12.0995C12.918 12.448 12.5549 12.9406 12.3624 13.5083C12.1418 14.1341 12.5169 14.6262 13.1802 14.5594C13.4633 14.5326 13.7396 14.4568 13.9973 14.3353C14.4701 14.1226 14.9347 13.8915 15.39 13.6427L15.4334 13.7324C16.0082 14.7835 16.5604 15.8566 17.1569 16.8857C17.4001 17.2874 17.7092 17.6459 18.0183 18.0036C18.1737 18.1829 18.3942 18.2937 18.5931 18.3833C18.9022 18.5178 19.2121 18.3833 19.3224 18.0476C19.3884 17.8024 19.4327 17.5343 19.4327 17.2874C19.4109 16.7284 19.167 16.2143 18.9465 15.7221C18.4784 14.6579 18.0144 13.5919 17.5546 12.524C17.4886 12.3676 17.5103 12.3007 17.6874 12.2111C18.903 11.6521 20.1837 11.2716 21.4653 10.9359C21.5981 10.9139 21.7084 10.8691 21.863 10.8463C21.9515 11.3384 22.0401 11.8078 22.1286 12.2779C22.572 14.6606 23.2759 16.986 24.2273 19.2112C24.4261 19.7033 24.7352 20.1727 25.0451 20.5972C25.2657 20.9329 25.6191 21.179 26.0168 21.2686C26.371 21.3582 26.6801 21.2686 26.9007 20.9777C27.0335 20.7764 27.1663 20.5532 27.2106 20.3291C27.3209 19.9046 27.2991 19.4573 27.1438 19.0547C26.9007 18.3385 26.6358 17.6231 26.2824 16.9525ZM92.4116 13.4855C92.0364 12.9045 91.5502 12.4124 91.0197 11.987C89.6061 10.8243 88.0815 9.84 86.4465 8.99015C84.7447 8.1183 82.9552 7.4697 81.1657 6.84311C80.9374 6.77323 80.7155 6.68354 80.5024 6.57504C80.3036 6.48541 80.2818 6.35178 80.4364 6.21652C80.6578 6.01607 80.8783 5.79281 81.1432 5.63556C82.403 4.85333 83.7731 4.428 85.231 4.15993C86.2034 3.98067 87.175 3.91385 88.1475 4.29356C88.2578 4.33837 88.3906 4.36119 88.5234 4.38319C88.8543 4.428 89.1859 4.45082 89.5176 4.31637C89.937 4.13711 90.1358 3.75741 90.0038 3.31007C89.9153 2.92956 89.6721 2.66148 89.3188 2.48222C88.7665 2.19133 88.1475 2.12452 87.5292 2.12452C86.0263 2.12452 84.5685 2.41541 83.1541 2.90674C81.7179 3.4217 80.3929 4.15993 79.3094 5.27785C79.0663 5.54674 78.8232 5.83681 78.6469 6.1497C78.448 6.50822 78.4255 6.93274 78.7129 7.26844C78.956 7.53733 79.2434 7.73778 79.6193 7.78259C79.7739 7.80541 79.9284 7.82741 80.083 7.89422C81.2317 8.29674 82.403 8.67726 83.53 9.12459C85.9378 10.0861 88.1032 11.4729 90.1141 13.105C90.3789 13.329 90.622 13.5971 90.8434 13.866C91.0423 14.1121 91.064 14.447 90.8652 14.6482C90.5778 14.9391 90.2904 15.2748 89.937 15.4761C89.4934 15.7272 89.0177 15.9153 88.5234 16.035C87.2193 16.3259 85.916 16.5492 84.6127 16.7733C83.9494 16.8849 83.2644 16.9525 82.5793 17.0193C82.2259 17.0641 82.1382 16.9517 82.1156 16.594C82.1156 16.1915 82.0939 15.789 82.1156 15.3864C82.1816 14.7159 82.2702 14.0224 82.337 13.351C82.3587 13.1278 82.4247 12.9485 82.6018 12.8149C83.0881 12.4124 83.4632 11.943 83.662 11.3156C83.8609 10.623 83.4857 10.1089 82.7781 10.0641C82.3805 10.0413 82.0053 10.1537 81.6519 10.333C80.7906 10.7347 80.0387 11.2716 79.3537 11.9202C77.3706 13.7668 75.4897 15.7226 73.7195 17.7787C73.641 17.8564 73.5673 17.9388 73.4989 18.0256C73.4764 17.936 73.4546 17.914 73.4546 17.8692C73.2084 16.7008 72.9728 15.5301 72.7478 14.3573C72.615 13.5971 72.5265 12.8369 72.4379 12.0759C72.3936 11.6961 72.4162 11.6741 72.7696 11.5845L73.4989 11.3833C74.5816 11.1144 75.6861 10.8463 76.7463 10.5562C77.2054 10.4237 77.6497 10.2435 78.0721 10.0184C78.3378 9.86281 78.6026 9.61674 78.7797 9.37067C79.0445 9.01215 78.9785 8.40919 78.7129 8.07348C78.4698 7.76059 77.9836 7.64815 77.5199 7.80459C77.1882 7.91704 76.9451 8.1403 76.7471 8.432C76.6739 8.55419 76.5741 8.6579 76.4554 8.73526C76.3367 8.81263 76.2022 8.86162 76.062 8.87852C75.2659 9.03496 74.4705 9.21422 73.6535 9.39267C73.1898 9.5043 72.7253 9.63874 72.2391 9.72837C71.8639 9.818 71.7971 9.75037 71.7311 9.36985C71.7094 9.30304 71.7094 9.23622 71.7094 9.16941C71.6651 8.67726 71.5983 8.18511 71.554 7.69296C71.4908 6.85883 71.4393 6.02383 71.3995 5.18822C71.3777 4.87533 71.5323 4.65207 71.8197 4.53963C71.9968 4.47282 72.1505 4.406 72.3276 4.36037C74.0294 4.02548 75.7521 3.68978 77.4539 3.35489C78.0946 3.22044 78.7129 3.10882 79.3319 2.92956C79.8624 2.79511 80.3036 2.50504 80.5909 2.01289C80.768 1.744 80.7455 1.45393 80.5909 1.18504C80.4138 0.916149 80.149 0.827334 79.8616 0.894149C79.641 0.938964 79.3979 1.00659 79.1991 1.11822C78.8014 1.29748 78.4038 1.52074 77.9836 1.722C77.6302 1.87845 77.2768 2.03489 76.9016 2.12452C76.0177 2.34859 75.1339 2.54985 74.25 2.75111C72.8573 3.04119 71.4888 3.4217 70.0519 3.37689C69.6325 3.35489 69.3894 3.53333 69.3008 3.95867C69.2348 4.24874 69.1905 4.53963 69.2123 4.83052C69.2565 5.94844 69.3451 7.04437 69.4336 8.16311C69.4771 8.76607 69.6107 9.37067 69.6542 9.95163C69.6985 10.377 69.6542 10.377 69.234 10.4666C68.7486 10.5562 68.3284 10.7575 68.0853 11.204C67.7987 11.6961 68.0635 12.2111 68.6158 12.2331C68.8814 12.2551 69.1463 12.1883 69.4111 12.1215C69.8973 12.0099 69.9633 12.0099 70.2065 12.4572L70.3393 12.7253L70.8698 14.2685C71.3552 15.9226 71.8639 17.5783 72.3276 19.2552C72.4379 19.6137 72.4822 19.9934 72.5265 20.3511C72.5707 20.5972 72.681 20.7764 72.9024 20.8661C73.168 20.9777 73.4546 20.9777 73.6752 20.8213C73.9408 20.642 74.184 20.4407 74.4045 20.2175C76.0177 18.6742 77.6084 17.1081 79.2208 15.5649C79.4865 15.3196 79.7521 15.0956 80.017 14.8495C80.083 14.7827 80.1715 14.7379 80.3036 14.6702C80.2818 14.8275 80.2818 14.9391 80.2593 15.0507C80.1707 15.8118 80.0613 16.55 79.9944 17.3094C79.9498 17.8251 80.0177 18.3444 80.1933 18.8307C80.3704 19.3 80.6795 19.5689 81.21 19.5461C81.7179 19.5241 82.2042 19.5241 82.7121 19.4793C84.2151 19.3448 85.7172 19.1436 87.1976 18.7859C88.678 18.4273 90.0038 17.7796 91.1743 16.8181C91.8151 16.2803 92.3238 15.6545 92.5001 14.8055C92.699 14.2905 92.6547 13.866 92.4116 13.4855Z" fill="#959595"/>
<path d="M39.6939 10.7571C39.4056 10.7116 39.1107 10.7344 38.8326 10.824C38.4459 10.9617 38.0753 11.1417 37.7273 11.3609C35.6013 12.6897 33.7483 14.4207 32.2694 16.4592C31.8725 16.997 31.4966 17.5551 31.0989 18.0921C30.9886 18.2486 30.8558 18.383 30.7013 18.5843C30.657 18.4726 30.6352 18.4278 30.6352 18.383C30.3696 17.4663 30.0605 16.5717 29.8174 15.6542C29.5096 14.5191 29.2224 13.3785 28.956 12.2328C28.8457 11.7406 28.9117 11.5842 29.3754 11.3609C29.8842 11.1368 30.4139 10.8908 30.9661 10.7571C32.4473 10.4434 33.9269 10.1974 35.4073 9.90729C35.6524 9.86677 35.8906 9.79133 36.1149 9.68322C36.4015 9.52677 36.6003 9.2807 36.556 8.923C36.5343 8.56448 36.2912 8.36403 35.9821 8.2524C35.8718 8.20759 35.7389 8.18477 35.6279 8.16277C35.231 8.13996 34.8333 8.11796 34.4574 8.13996C33.3304 8.20759 32.2702 8.49848 31.2092 8.85618C30.5088 9.10741 29.8015 9.33837 29.088 9.54877C28.7789 9.6384 28.7346 9.59359 28.6469 9.2807C28.6244 9.21389 28.6244 9.14626 28.6026 9.07944C28.5141 8.38685 28.4255 7.69263 28.337 6.97722C28.271 6.50788 28.1824 6.01574 28.1824 5.54559C28.1607 4.80818 28.3152 4.65174 29.022 4.60692C29.6411 4.56211 30.2376 4.56211 30.8558 4.51729C32.2702 4.42766 33.6838 4.2264 35.0539 3.80188C35.7832 3.55581 36.5126 3.28692 37.0648 2.72796C37.3079 2.48188 37.5285 2.191 37.6605 1.87811C37.9487 1.18551 37.5953 0.670551 36.8434 0.692551C36.5126 0.692551 36.1809 0.782181 35.8718 0.89381C34.9436 1.1847 34.0372 1.5424 33.0873 1.83329C32.0714 2.147 31.0329 2.43707 29.9945 2.63833C28.9335 2.8624 27.8733 2.99685 26.8123 3.15329C26.4814 3.19729 26.3486 3.28692 26.3269 3.64463C26.3043 3.82388 26.3043 4.00314 26.3269 4.2044L26.6577 8.36403C26.702 8.98981 26.7688 9.5944 26.7906 10.2202C26.8123 10.4891 26.7463 10.5331 26.4814 10.4891C26.4372 10.4891 26.3704 10.4663 26.3269 10.4663C25.9067 10.3986 25.5307 10.4883 25.1999 10.7571C24.8457 11.0472 24.6919 11.4726 24.824 11.7854C24.9568 12.0983 25.3762 12.2776 25.8181 12.2328C25.8624 12.2328 25.8849 12.2108 25.9284 12.2108L26.7246 12.1431C26.9894 12.1211 27.1222 12.2548 27.1665 12.5017C27.1882 12.6801 27.2551 12.8366 27.2985 13.015C27.6302 14.9616 28.2484 16.8397 28.8892 18.6959C29.0663 19.21 29.3537 19.7022 29.6628 20.1495C30.083 20.7533 30.6127 20.7533 31.1215 20.2391L31.1875 20.1723C32.5114 18.7354 33.9365 17.3975 35.4516 16.1691C36.3355 15.4757 37.2193 14.8043 38.1032 14.1117C38.6975 13.6361 39.2723 13.1359 39.8259 12.6125C40.0916 12.3672 40.2904 12.0535 40.3347 11.651C40.3347 11.1817 40.1359 10.824 39.6939 10.7571ZM127.631 11.2933C127.344 11.3609 127.057 11.4726 126.813 11.6518C126.371 11.9647 125.952 12.3224 125.532 12.6801C124.715 13.4183 123.941 14.2006 123.123 14.9168C122.019 15.9231 120.959 16.9742 120.03 18.1597C120.008 18.1817 119.986 18.2037 119.92 18.2494C119.853 18.0473 119.765 17.8688 119.743 17.6896C119.411 16.0795 119.058 14.4914 118.749 12.8814C118.66 12.3892 118.616 11.8751 118.572 11.3609C118.55 11.2485 118.594 11.1597 118.726 11.1368C119.544 10.8908 120.362 10.6227 121.179 10.3986C121.886 10.2194 122.638 10.0857 123.345 9.92929C123.676 9.86248 124.007 9.79485 124.339 9.70603C124.538 9.6384 124.715 9.52677 124.869 9.39233C125.399 8.923 125.244 8.11796 124.582 7.87188C123.808 7.581 123.08 7.73744 122.417 8.16277C121.091 9.01263 119.566 9.39314 118.086 9.97411C118.066 9.85422 118.044 9.7347 118.02 9.61559C117.887 8.72174 117.755 7.84907 117.666 6.95522C117.6 6.41744 117.6 5.88129 117.578 5.34433C117.578 5.09825 117.666 4.94181 117.931 4.91981C118.007 4.91578 118.081 4.90069 118.152 4.875C119.058 4.71855 119.986 4.60611 120.892 4.40566C122.266 4.11833 123.612 3.70655 124.914 3.17529C125.466 2.95203 125.974 2.66114 126.371 2.191C126.858 1.61003 126.615 0.737366 125.864 0.558921C125.598 0.491292 125.311 0.536107 125.046 0.603736C124.737 0.715366 124.427 0.89381 124.14 1.05107C123.632 1.34114 123.168 1.72166 122.638 1.94492C121.511 2.45988 120.34 2.83959 119.125 3.13048C118.108 3.37655 117.091 3.44337 116.053 3.39937C115.479 3.37655 115.17 3.68944 115.103 4.27122C115.081 4.40566 115.081 4.54011 115.103 4.65174C115.213 5.34433 115.324 6.06055 115.456 6.75396C115.678 7.82707 115.921 8.90018 116.142 9.97411C116.208 10.3098 116.186 10.3318 115.877 10.4663C115.545 10.6227 115.258 10.824 115.059 11.1368C114.904 11.3829 114.86 11.651 115.037 11.9191C115.213 12.188 115.456 12.2776 115.766 12.2108L116.031 12.1431C116.407 12.0763 116.562 12.1431 116.672 12.5017C116.782 12.8146 116.893 13.1494 116.959 13.4851C117.335 15.2745 117.71 17.0858 118.506 18.7635C118.639 19.0536 118.683 19.4121 118.66 19.747C118.639 20.5292 119.168 21.067 119.942 20.9326C120.384 20.8657 120.76 20.6417 121.069 20.306C121.422 19.9263 121.754 19.5237 122.085 19.0984C122.814 18.1589 123.61 17.3091 124.559 16.5937C125.736 15.7014 126.922 14.8216 128.117 13.9545C128.713 13.53 128.956 12.9482 128.912 12.2328C128.912 11.5842 128.316 11.1148 127.631 11.2933ZM71.2008 19.0764C70.5959 18.0916 69.86 17.1959 69.0136 16.4144C67.9309 15.3861 66.8482 14.3798 65.5006 13.7092C64.9926 13.4623 64.5064 13.1943 63.9759 12.9262C64.4179 12.144 64.8816 11.3609 65.3235 10.5779C66.1466 9.21405 66.957 7.84239 67.7546 6.46307C68.2843 5.52359 68.7262 4.54011 68.9911 3.489C69.0796 3.13048 69.1022 2.77196 68.9693 2.43788C68.7922 2.01255 68.4171 1.87811 67.9969 2.10218C67.459 2.39849 66.9142 2.68159 66.3628 2.95122C63.7328 4.2264 61.1037 5.50159 58.452 6.79796C58.2484 6.89592 58.0559 7.01614 57.8781 7.15648C57.5907 7.40174 57.6124 7.78226 57.9223 7.98351C58.1429 8.11796 58.4077 8.22959 58.6509 8.2524C58.9608 8.2744 59.2699 8.16277 59.5573 8.09514C59.8221 8.02833 60.0644 7.91588 60.3301 7.82626C60.5732 7.76026 60.64 7.78226 60.706 8.05033C60.724 8.10037 60.7314 8.15366 60.7278 8.20677L60.9934 10.2194C61.082 10.9356 61.1922 11.629 61.3025 12.3444C61.3468 12.7029 61.28 12.993 60.9483 13.2391C60.4186 13.6196 60.3744 14.2234 60.5732 14.8491C60.6617 15.118 60.9049 15.2973 61.1922 15.2517C61.4128 15.2297 61.4788 15.3193 61.4788 15.5206C61.5456 16.3476 61.6342 17.1974 61.7002 18.0253C61.7219 18.4498 61.7002 18.8751 61.7662 19.2997C61.8105 19.6126 61.899 19.9263 62.0319 20.1943C62.2307 20.5528 62.5615 20.6417 62.96 20.5748C63.3351 20.5072 63.4897 20.2391 63.534 19.9034C63.5783 19.5677 63.6225 19.2108 63.5783 18.8751C63.4861 18.1132 63.383 17.3526 63.2691 16.5937C63.2023 16.1015 63.1363 15.5874 63.0703 15.0952C63.0478 14.8491 63.1146 14.5583 63.3134 14.4466C63.4237 14.3798 63.6668 14.5363 63.8431 14.6031C63.8656 14.6031 63.8874 14.6259 63.9099 14.6479C64.6827 15.1848 65.4121 15.7886 66.0311 16.504C66.5362 17.0903 67.0295 17.6869 67.5107 18.2934C68.174 19.1212 68.8148 19.9483 69.499 20.7541C69.743 21.0442 70.0738 21.2903 70.4055 21.5135C70.7597 21.7376 71.1783 21.8272 71.5542 21.5363C71.9301 21.2234 71.9084 20.8209 71.753 20.4184C71.6521 19.9405 71.4649 19.4855 71.2008 19.0764ZM63.0486 11.2028C62.96 11.3153 62.8497 11.4269 62.762 11.5386C62.7395 11.5386 62.7177 11.5166 62.6734 11.5166V11.0464C62.6734 9.6824 62.6509 8.29559 62.3861 6.95359C62.3643 6.85284 62.3764 6.74761 62.4204 6.65461C62.4645 6.56161 62.5379 6.48617 62.6292 6.44026C62.8063 6.35063 63.0043 6.261 63.1814 6.17137C64.463 5.56759 65.722 4.941 67.0035 4.33803C67.1364 4.2704 67.2692 4.20359 67.4463 4.18077C67.4012 4.33722 67.3795 4.47166 67.3127 4.60611C66.849 5.65722 66.3628 6.68551 65.7002 7.625C64.8217 8.82163 63.9378 10.0143 63.0486 11.2028Z" fill="#959595"/>
<path d="M138.126 17.4888C137.773 15.0289 137.463 12.5689 137.397 10.0862C137.352 8.4093 137.286 6.75359 137.264 5.0767C137.242 3.95878 137.286 2.81804 137.728 1.76692C137.817 1.56567 137.839 1.29759 137.817 1.07433C137.794 0.536555 137.441 0.112036 136.955 0.0232212C136.248 -0.112038 135.541 0.357295 135.453 1.07433C135.408 1.54285 135.387 2.03581 135.474 2.48233C135.669 3.45315 135.744 4.44489 135.696 5.43441C135.673 5.81493 135.696 6.19463 135.696 6.57515C135.74 7.91715 135.784 9.25915 135.828 10.6231C135.894 12.5241 135.939 14.4023 136.159 16.2812C136.182 16.4377 136.115 16.5941 136.093 16.7506C135.939 16.6837 135.784 16.6609 135.651 16.5713C135.143 16.2144 134.746 15.7443 134.436 15.2301C133.795 14.157 133.133 13.0831 132.536 11.9651C131.63 10.2426 130.813 8.49811 129.929 6.77641C129.634 6.21458 129.309 5.66947 128.956 5.14352C128.794 4.91245 128.583 4.72137 128.338 4.58455C128.095 4.42811 127.807 4.45093 127.564 4.62937C127.461 4.70855 127.381 4.8154 127.334 4.93791C127.288 5.06041 127.276 5.1937 127.299 5.32278C127.344 5.54604 127.41 5.7473 127.498 5.94937C127.763 6.70959 128.117 7.447 128.315 8.20804C129.023 10.8912 129.531 13.62 129.907 16.3929C129.995 17.0863 129.995 17.8025 129.708 18.4731C129.664 18.6075 129.641 18.742 129.62 18.8756C129.575 19.2333 129.641 19.591 129.884 19.8591C130.15 20.1728 130.525 20.1728 130.768 19.8591C130.923 19.6578 131.056 19.3897 131.077 19.1665C131.122 18.6287 131.166 18.0706 131.122 17.5116C130.901 15.3646 130.548 13.2395 129.951 11.1601C129.929 11.0705 129.929 10.9809 129.907 10.8912C129.929 10.8912 129.951 10.8692 129.973 10.8692C130.017 10.9589 130.061 11.0485 130.106 11.1153C130.569 12.054 130.99 12.9934 131.475 13.9101C132.403 15.7223 133.464 17.444 134.856 18.9204C135.32 19.4346 135.85 19.8819 136.358 20.3512C136.667 20.6201 137.021 20.7537 137.441 20.7766C137.993 20.7986 138.391 20.5305 138.458 19.9943C138.509 19.659 138.494 19.3166 138.413 18.9872C138.325 18.4951 138.214 18.0029 138.126 17.4888ZM113.358 8.09641C112.883 7.68789 112.364 7.33526 111.811 7.0453C110.574 6.4187 109.314 5.85974 108.077 5.27796C107.724 5.0987 107.37 4.89826 107.038 4.697C106.928 4.62937 106.862 4.47293 106.818 4.33848C106.707 3.89196 106.619 3.42181 106.353 3.0193C106.11 2.68359 105.779 2.46033 105.359 2.54996C104.962 2.61678 104.741 2.92967 104.63 3.31018C104.586 3.44463 104.586 3.60107 104.542 3.80233C104.409 3.75752 104.276 3.75752 104.166 3.7127C103.873 3.59719 103.578 3.48528 103.282 3.377C102.708 3.17574 102.134 3.0193 101.537 3.06411C101.117 3.10892 100.742 3.24337 100.587 3.66789C100.432 4.09322 100.565 4.47293 100.874 4.76381C101.117 4.98707 101.404 5.23315 101.736 5.34559C102.31 5.56885 102.885 5.74811 103.481 5.90456C103.879 6.01618 104.255 6.10581 104.564 6.3967C104.674 6.50833 104.785 6.64278 104.785 6.79922C104.873 7.55944 105.006 8.31967 104.962 9.05789C104.877 10.7244 104.737 12.3875 104.542 14.0446C104.387 15.3646 104.1 16.6617 103.879 17.9809C103.813 18.4063 103.724 18.8528 103.813 19.2561C103.989 20.0831 104.387 20.374 105.16 20.2176C105.403 20.1728 105.647 20.0831 105.867 19.9715C106.353 19.7026 106.84 19.4126 107.303 19.0997C109.447 17.5784 111.215 15.6774 112.805 13.598C113.379 12.837 113.91 12.032 114.242 11.1153C114.639 9.88493 114.352 8.92344 113.358 8.09641ZM112.982 10.8692C112.651 11.6743 112.165 12.3897 111.634 13.0611C110.905 14.0226 110.044 14.8504 109.094 15.5878C108.121 16.326 107.104 17.0643 106.133 17.7797C106.044 17.8465 105.978 17.8913 105.89 17.9361C105.867 17.9141 105.845 17.9141 105.824 17.8913C105.867 17.6012 105.934 17.2883 105.978 16.9966C106.155 15.7663 106.353 14.5367 106.508 13.3071C106.707 11.7191 106.84 10.109 106.84 8.49893C106.84 8.16322 106.818 7.82752 106.795 7.49263C106.774 7.31337 106.84 7.24655 106.994 7.29137C107.193 7.33537 107.392 7.381 107.569 7.44781C108.033 7.64907 108.497 7.89515 108.961 8.11841C110.176 8.70018 111.391 9.28115 112.584 9.86211C113.093 10.109 113.181 10.3551 112.982 10.8692Z" fill="#959595"/>
<path d="M101.78 18.2935C101.383 17.9806 100.941 17.7118 100.41 17.6898C99.9023 17.6678 99.4161 17.6678 98.9082 17.6449C98.2231 17.6229 97.9357 17.376 97.8254 16.6835C97.7812 16.3706 97.7812 16.0569 97.7586 15.744C97.6926 13.8878 97.6041 12.0317 97.5598 10.1527C97.4938 8.14012 97.4495 6.10553 97.4052 4.09212C97.4052 3.86886 97.4278 3.6676 97.472 3.44353C97.4862 3.396 97.5118 3.35277 97.5465 3.31765C97.5812 3.28254 97.6239 3.25665 97.6709 3.24227C98.6425 3.04101 99.6367 2.83975 100.609 2.63931C101.109 2.52856 101.603 2.39396 102.09 2.23597C102.443 2.10234 102.686 1.83346 102.775 1.45375C102.929 0.782344 102.487 0.268196 101.825 0.357826C101.604 0.401081 101.39 0.468568 101.184 0.559085C100.079 1.07323 98.8856 1.29649 97.7151 1.49775C97.3835 1.56538 97.0961 1.47575 96.8755 1.16286C96.4779 0.6039 95.4829 0.73753 95.2398 1.34212C95.1295 1.58738 94.9749 1.69901 94.7318 1.72183C93.8036 1.83346 92.8537 1.94509 91.9038 2.05753C91.6607 2.07953 91.3959 2.10234 91.1528 2.14716C90.6223 2.28079 90.2689 2.81775 90.3132 3.39872C90.3349 3.89086 90.7108 4.29338 91.2631 4.3602C91.4619 4.38301 91.6833 4.40583 91.9038 4.3602C92.6775 4.22657 93.4285 4.04731 94.2013 3.89086C94.6215 3.80123 94.6433 3.80123 94.6875 4.24938C94.8646 5.79183 94.9975 7.3579 95.1963 8.90034C95.4611 11.0702 95.726 13.2392 95.9916 15.3863C96.0576 15.9901 96.1679 16.5938 96.2565 17.1976C96.3008 17.5105 96.2782 17.5561 95.9916 17.6458C95.7818 17.7184 95.5679 17.778 95.3509 17.8242C94.8864 17.9358 94.4227 18.0255 93.9807 18.1371C93.5573 18.2469 93.1643 18.4534 92.832 18.7409C92.5664 18.9869 92.4118 19.2998 92.5004 19.6575C92.5889 20.038 92.8537 20.2165 93.1854 20.3289C93.274 20.3509 93.34 20.3738 93.4285 20.3738L94.5555 20.4406V20.4854C96.2122 20.2841 97.8697 20.1049 99.5047 19.9036C100.256 19.814 101.007 19.6347 101.692 19.3006C102.222 19.0538 102.156 18.6064 101.78 18.2935ZM58.762 9.66138C58.3418 9.28086 57.9224 8.87916 57.4804 8.52064C54.939 6.41842 52.3985 4.3162 49.8353 2.21397C49.4711 1.91508 49.0788 1.65308 48.6641 1.43175C48.4435 1.29731 48.1569 1.25249 47.913 1.22968C47.5379 1.20768 47.2505 1.49857 47.2288 1.87827C47.2288 2.07953 47.2505 2.28079 47.3173 2.48205C47.4493 2.88457 47.6924 3.22027 48.0016 3.53316C48.421 3.93568 48.8629 4.36101 49.2606 4.78553C49.3491 4.87516 49.4159 4.98679 49.4377 5.09923L50.5647 10.9358C50.6532 11.3839 50.6967 11.8304 50.7635 12.3006C50.741 12.3006 50.7192 12.3226 50.6967 12.3226C50.6307 12.2778 50.5864 12.2558 50.5196 12.2109C50.1777 11.9693 49.7654 11.8511 49.3491 11.8752C48.6649 11.8972 47.9798 12.5018 48.4878 13.3957C48.7083 13.7982 49.04 14.0891 49.4377 14.2675C49.7535 14.403 50.0785 14.5155 50.4101 14.604C50.7192 14.6709 50.8955 14.8493 50.9624 15.1402C51.0509 15.4987 51.1394 15.8336 51.228 16.1913C51.4486 17.1088 51.6249 18.0475 51.868 18.9649C51.9783 19.4343 52.1996 19.8816 52.553 20.2393C53.0835 20.7763 53.7903 20.5978 54.0117 19.8596C54.0334 19.77 54.0552 19.6803 54.0552 19.5907C54.1437 18.8981 53.9891 18.2487 53.812 17.6001C53.5915 16.8399 53.3484 16.1245 53.1053 15.3643C53.0167 15.0734 53.0835 15.0058 53.3484 15.0058C54.6525 14.9618 55.9115 14.6929 57.127 14.2683C57.8113 14.0223 58.4521 13.7542 59.0051 13.262C59.4688 12.8139 59.7779 12.2558 59.7119 11.6072C59.6016 10.8689 59.3142 10.1755 58.762 9.66138ZM57.701 12.1433C57.0168 12.5915 56.2649 12.8595 55.4695 13.038C55.0719 13.1276 54.6742 13.1724 54.2765 13.2392C53.746 13.3069 53.2381 13.1496 52.7519 12.9483C52.4645 12.8147 52.3099 12.5686 52.2656 12.2778C52.1771 11.696 52.1111 11.115 52.0225 10.534C51.868 9.34768 51.7134 8.16294 51.5371 6.95538C51.5146 6.84294 51.5146 6.73131 51.4928 6.57486C51.6474 6.64168 51.7577 6.66449 51.868 6.70931C52.0668 6.82094 52.2439 6.93257 52.4202 7.06701C54.2382 8.38485 56 9.78026 57.701 11.2495C58.1872 11.6292 58.1872 11.8304 57.701 12.1433ZM160.707 12.9712C160.596 12.9035 160.486 12.7919 160.376 12.7251C159.403 12.1653 158.453 11.5615 157.459 11.0254C156.045 10.2652 154.609 9.59375 153.172 8.85553C152.068 8.29657 150.985 7.71479 149.902 7.15583C149.726 7.0662 149.571 6.93257 149.35 6.77612C149.549 6.61968 149.682 6.48523 149.836 6.3736C151.361 5.29968 153.062 4.6739 154.852 4.24857C155.404 4.11494 155.957 4.02531 156.509 4.15894C156.929 4.27138 157.349 4.47264 157.746 4.62909C158.188 4.80834 158.63 4.71871 158.895 4.3382C159.16 4.00249 159.116 3.57797 158.807 3.19746C158.431 2.77294 157.967 2.59449 157.415 2.59449C155.691 2.54886 154.079 3.0182 152.554 3.80123C151.803 4.18175 151.051 4.60627 150.323 5.0316C149.792 5.34449 149.24 5.59057 148.621 5.7022C148.4 5.74701 148.179 5.85946 147.98 5.97109C147.582 6.21716 147.516 6.70849 147.715 7.13383C147.892 7.51434 148.202 7.7376 148.532 7.96168C151.206 9.70538 154.012 11.2266 156.863 12.6795C157.525 13.016 158.21 13.3509 158.851 13.7306C159.094 13.865 159.315 14.0671 159.514 14.2683C159.713 14.4476 159.69 14.5812 159.536 14.7817C159.183 15.2298 158.762 15.6323 158.21 15.8556C157.481 16.1465 156.752 16.4374 155.979 16.6606C154.786 16.9963 153.57 17.2196 152.333 17.1984C151.891 17.1756 151.471 17.1088 151.095 16.8619C150.765 16.6386 150.609 16.3258 150.72 15.9452C150.852 15.5427 151.051 15.163 151.273 14.8045C151.493 14.4248 151.759 14.0891 151.979 13.7314C152.201 13.3729 152.333 12.9712 152.311 12.5238C152.289 11.8524 151.825 11.5175 151.184 11.696C150.963 11.7628 150.72 11.8524 150.522 11.9869C149.909 12.3616 149.375 12.8556 148.953 13.4405C148.445 14.1559 148.202 14.9389 148.356 15.8116C148.599 17.1308 149.328 18.0695 150.566 18.5844C151.317 18.8973 152.134 18.9421 152.929 18.9201C154.321 18.8753 155.67 18.5616 157.017 18.1591C158.429 17.7448 159.728 17.0106 160.817 16.012C161.746 15.2518 161.746 13.6418 160.707 12.9712Z" fill="#959595"/>
<path d="M146.611 16.2366C146.5 15.2971 146.455 14.3357 146.345 13.3742C146.146 11.518 145.903 9.63906 145.683 7.78292C145.572 6.81091 145.439 5.84158 145.285 4.87566C145.218 4.47314 145.395 3.95899 145.771 3.80173C145.97 3.7121 146.169 3.62247 146.389 3.55647C147.362 3.22077 148.378 3.13114 149.372 3.04151C150.013 2.9967 150.653 2.90788 151.206 2.52736C151.516 2.3261 151.736 2.05803 151.692 1.65551C151.648 1.25218 151.383 1.00692 151.029 0.849659C150.632 0.693214 150.234 0.6264 149.814 0.716029C149.35 0.805659 148.908 0.939288 148.444 1.05092C146.453 1.58469 144.464 2.12899 142.479 2.68381C141.462 2.9747 140.446 3.19795 139.363 3.15314C139.076 3.19795 138.767 3.22077 138.502 3.3104C138.037 3.48966 137.883 3.89136 138.082 4.36151C138.325 4.92047 138.789 5.18855 139.363 5.30018C140.004 5.41262 140.622 5.25536 141.22 5.09892C141.772 4.94247 142.302 4.76403 142.855 4.62958C143.318 4.51795 143.627 4.6964 143.76 5.16655C143.849 5.52425 143.915 5.88195 143.936 6.26247C144.069 8.94566 144.18 11.6077 144.335 14.2908C144.401 15.2971 144.534 16.2814 144.688 17.2649C144.82 18.0708 145.108 18.8538 145.749 19.4348C146.013 19.6808 146.323 19.8593 146.677 19.7257C147.03 19.5912 147.096 19.2555 147.14 18.9206C147.185 18.4505 147.096 18.0031 146.942 17.5558C146.81 17.1085 146.654 16.6611 146.611 16.2358V16.2366Z" fill="#959595"/>
</g>
<defs>
<clipPath id="clip0_512_748">
<rect width="161" height="22" fill="white" transform="translate(0.5)"/>
</clipPath>
</defs>
</svg>
