<svg width="162" height="22" viewBox="0 0 162 22" fill="none" xmlns="http://www.w3.org/2000/svg">
<g clip-path="url(#clip0_2015_6432)">
<path d="M26.2826 16.9525C25.2441 14.9399 24.4045 12.8597 23.9183 10.6459C23.8297 10.2653 23.8297 10.2653 24.2056 10.1081C24.5808 9.92963 24.9567 9.75119 25.2658 9.50511C25.7086 9.12459 25.6418 8.54363 25.1773 8.18511C24.8832 7.96557 24.5268 7.8481 24.1614 7.85022H23.5423V7.69378C23.6534 6.79911 23.7637 5.90444 23.8523 5.03178C23.9625 4.0703 24.0728 3.10882 24.1171 2.14733C24.1645 1.63672 24.0228 1.12649 23.7194 0.715704C23.4103 0.291186 22.9241 0.112741 22.4821 0.223556C22.0394 0.380001 21.7528 0.738519 21.7093 1.31948C21.6425 2.19133 21.5757 3.042 21.554 3.91385C21.5322 5.30067 21.5757 6.66467 21.5983 8.05148C21.5983 8.20793 21.5983 8.29756 21.4212 8.34237C19.853 8.72207 18.3944 9.39348 17.0025 10.1985C16.9365 10.2433 16.8697 10.2653 16.8037 10.3101C16.7868 10.2701 16.7646 10.2325 16.7377 10.1985C16.2064 8.56563 15.7652 6.91074 15.5221 5.21104C15.3893 4.15993 15.3015 3.10882 14.9916 2.0797C14.9699 2.0357 14.9699 1.96807 14.9699 1.92326C14.9699 1.45393 14.6825 1.16304 14.2188 1.18585C13.9314 1.20785 13.644 1.22985 13.3792 1.31948C12.5179 1.54356 11.6114 1.83444 10.7058 2.12452C10.0207 2.34859 9.31315 2.50504 8.60636 2.54985C8.38579 2.57185 8.29724 2.52704 8.23123 2.30378C8.0984 1.76682 7.61218 1.56556 7.1485 1.87844C6.92713 2.01289 6.7943 2.28096 6.6172 2.48222C6.552 2.54985 6.48518 2.63948 6.41917 2.63948C5.29217 2.63948 4.18771 2.61667 3.06071 2.59467C2.53022 2.57185 2.00053 2.48222 1.44749 2.48222C0.763244 2.46022 0.364769 2.998 0.541869 3.66778C0.652154 4.09311 0.917804 4.428 1.29293 4.62926C1.66887 4.83052 2.08827 5.00978 2.50848 5.12141C3.23781 5.30067 3.96634 5.23304 4.69567 5.14422C5.29217 5.05459 5.88868 4.96496 6.50692 4.87533V5.16622C6.48518 5.97126 6.41837 6.7763 6.41837 7.58133C6.39663 9.818 6.61801 12.0319 6.90539 14.2465C7.05995 15.3416 7.23625 16.4156 7.61218 17.4439C7.83356 18.0704 8.16441 18.6294 8.6289 19.0767C9.02657 19.4573 9.49025 19.7033 10.065 19.4793C10.5287 19.278 10.7935 18.7639 10.7493 18.1153C10.7207 17.7347 10.6466 17.359 10.5287 16.9965C10.263 16.1027 9.93219 15.23 9.64481 14.3353C9.09258 12.524 8.80519 10.6459 8.58462 8.76689C8.43006 7.40289 8.31897 6.01607 8.31897 4.65207C8.31897 4.51763 8.31897 4.406 8.51781 4.38319C10.065 4.29356 11.5671 3.91385 13.0475 3.4217C13.0918 3.3997 13.1361 3.3997 13.1804 3.3997C13.1804 3.48933 13.1804 3.55615 13.2021 3.62296C13.2681 4.38319 13.3124 5.16622 13.4009 5.92644C13.644 7.71578 14.0417 9.4603 14.6382 11.16C14.6825 11.3164 14.6608 11.3613 14.5279 11.4289C14.1303 11.6293 13.7551 11.8306 13.4009 12.0995C12.9181 12.448 12.555 12.9406 12.3625 13.5083C12.1419 14.1341 12.517 14.6262 13.1804 14.5594C13.4634 14.5326 13.7398 14.4568 13.9974 14.3353C14.4702 14.1226 14.9348 13.8915 15.3901 13.6427L15.4336 13.7324C16.0083 14.7835 16.5606 15.8566 17.1571 16.8857C17.4002 17.2874 17.7093 17.6459 18.0184 18.0036C18.1738 18.1829 18.3944 18.2937 18.5932 18.3833C18.9023 18.5178 19.2122 18.3833 19.3225 18.0476C19.3885 17.8024 19.4328 17.5343 19.4328 17.2874C19.4111 16.7284 19.1672 16.2143 18.9466 15.7221C18.4785 14.6579 18.0146 13.5919 17.5547 12.524C17.4887 12.3676 17.5105 12.3007 17.6876 12.2111C18.9031 11.6521 20.1839 11.2716 21.4654 10.9359C21.5983 10.9139 21.7085 10.8691 21.8631 10.8463C21.9516 11.3384 22.0402 11.8078 22.1287 12.2779C22.5722 14.6606 23.276 16.986 24.2274 19.2112C24.4262 19.7033 24.7353 20.1727 25.0453 20.5972C25.2658 20.9329 25.6192 21.179 26.0169 21.2686C26.3711 21.3582 26.6802 21.2686 26.9008 20.9777C27.0336 20.7764 27.1664 20.5532 27.2107 20.3291C27.321 19.9046 27.2993 19.4573 27.1439 19.0547C26.9008 18.3385 26.6359 17.6231 26.2826 16.9525ZM92.4117 13.4855C92.0366 12.9045 91.5503 12.4124 91.0198 11.987C89.6063 10.8243 88.0816 9.84 86.4466 8.99015C84.7449 8.1183 82.9554 7.4697 81.1658 6.84311C80.9375 6.77323 80.7156 6.68354 80.5025 6.57504C80.3037 6.48541 80.282 6.35178 80.4365 6.21652C80.6579 6.01607 80.8785 5.79281 81.1433 5.63556C82.4031 4.85333 83.7732 4.428 85.2311 4.15993C86.2035 3.98067 87.1752 3.91385 88.1476 4.29356C88.2579 4.33837 88.3907 4.36119 88.5235 4.38319C88.8544 4.428 89.1861 4.45082 89.5177 4.31637C89.9371 4.13711 90.1359 3.75741 90.0039 3.31007C89.9154 2.92956 89.6723 2.66148 89.3189 2.48222C88.7666 2.19133 88.1476 2.12452 87.5294 2.12452C86.0264 2.12452 84.5686 2.41541 83.1542 2.90674C81.7181 3.4217 80.393 4.15993 79.3095 5.27785C79.0664 5.54674 78.8233 5.83681 78.647 6.1497C78.4482 6.50822 78.4256 6.93274 78.713 7.26844C78.9561 7.53733 79.2435 7.73778 79.6194 7.78259C79.774 7.80541 79.9286 7.82741 80.0831 7.89422C81.2318 8.29674 82.4031 8.67726 83.5301 9.12459C85.9379 10.0861 88.1033 11.4729 90.1142 13.105C90.3791 13.329 90.6222 13.5971 90.8435 13.866C91.0424 14.1121 91.0641 14.447 90.8653 14.6482C90.5779 14.9391 90.2905 15.2748 89.9371 15.4761C89.4935 15.7272 89.0179 15.9153 88.5235 16.035C87.2194 16.3259 85.9161 16.5492 84.6128 16.7733C83.9495 16.8849 83.2645 16.9525 82.5794 17.0193C82.226 17.0641 82.1383 16.9517 82.1157 16.594C82.1157 16.1915 82.094 15.789 82.1157 15.3864C82.1817 14.7159 82.2703 14.0224 82.3371 13.351C82.3588 13.1278 82.4249 12.9485 82.602 12.8149C83.0882 12.4124 83.4633 11.943 83.6621 11.3156C83.861 10.623 83.4858 10.1089 82.7783 10.0641C82.3806 10.0413 82.0054 10.1537 81.6521 10.333C80.7907 10.7347 80.0388 11.2716 79.3538 11.9202C77.3708 13.7668 75.4898 15.7226 73.7196 17.7787C73.6411 17.8564 73.5675 17.9388 73.499 18.0256C73.4765 17.936 73.4547 17.914 73.4547 17.8692C73.2085 16.7008 72.9729 15.5301 72.748 14.3573C72.6151 13.5971 72.5266 12.8369 72.438 12.0759C72.3938 11.6961 72.4163 11.6741 72.7697 11.5845L73.499 11.3833C74.5817 11.1144 75.6862 10.8463 76.7464 10.5562C77.2055 10.4237 77.6498 10.2435 78.0722 10.0184C78.3379 9.86281 78.6027 9.61674 78.7798 9.37067C79.0447 9.01215 78.9787 8.40919 78.713 8.07348C78.4699 7.76059 77.9837 7.64815 77.52 7.80459C77.1883 7.91704 76.9452 8.1403 76.7472 8.432C76.674 8.55419 76.5743 8.6579 76.4556 8.73526C76.3369 8.81263 76.2023 8.86162 76.0621 8.87852C75.266 9.03496 74.4706 9.21422 73.6536 9.39267C73.1899 9.5043 72.7254 9.63874 72.2392 9.72837C71.8641 9.818 71.7972 9.75037 71.7312 9.36985C71.7095 9.30304 71.7095 9.23622 71.7095 9.16941C71.6652 8.67726 71.5984 8.18511 71.5541 7.69296C71.4909 6.85883 71.4394 6.02383 71.3996 5.18822C71.3778 4.87533 71.5324 4.65207 71.8198 4.53963C71.9969 4.47282 72.1506 4.406 72.3277 4.36037C74.0295 4.02548 75.7522 3.68978 77.454 3.35489C78.0948 3.22044 78.713 3.10882 79.332 2.92956C79.8625 2.79511 80.3037 2.50504 80.5911 2.01289C80.7682 1.744 80.7456 1.45393 80.5911 1.18504C80.414 0.916149 80.1491 0.827334 79.8617 0.894149C79.6412 0.938964 79.3981 1.00659 79.1992 1.11822C78.8016 1.29748 78.4039 1.52074 77.9837 1.722C77.6303 1.87845 77.2769 2.03489 76.9017 2.12452C76.0179 2.34859 75.134 2.54985 74.2501 2.75111C72.8574 3.04119 71.4889 3.4217 70.052 3.37689C69.6326 3.35489 69.3895 3.53333 69.3009 3.95867C69.2349 4.24874 69.1907 4.53963 69.2124 4.83052C69.2567 5.94844 69.3452 7.04437 69.4338 8.16311C69.4772 8.76607 69.6109 9.37067 69.6543 9.95163C69.6986 10.377 69.6543 10.377 69.2341 10.4666C68.7487 10.5562 68.3285 10.7575 68.0854 11.204C67.7988 11.6961 68.0637 12.2111 68.6159 12.2331C68.8815 12.2551 69.1464 12.1883 69.4112 12.1215C69.8974 12.0099 69.9635 12.0099 70.2066 12.4572L70.3394 12.7253L70.8699 14.2685C71.3553 15.9226 71.8641 17.5783 72.3277 19.2552C72.438 19.6137 72.4823 19.9934 72.5266 20.3511C72.5709 20.5972 72.6811 20.7764 72.9025 20.8661C73.1682 20.9777 73.4547 20.9777 73.6753 20.8213C73.941 20.642 74.1841 20.4407 74.4046 20.2175C76.0179 18.6742 77.6085 17.1081 79.221 15.5649C79.4866 15.3196 79.7523 15.0956 80.0171 14.8495C80.0831 14.7827 80.1717 14.7379 80.3037 14.6702C80.282 14.8275 80.282 14.9391 80.2594 15.0507C80.1709 15.8118 80.0614 16.55 79.9946 17.3094C79.95 17.8251 80.0178 18.3444 80.1934 18.8307C80.3705 19.3 80.6796 19.5689 81.2101 19.5461C81.7181 19.5241 82.2043 19.5241 82.7122 19.4793C84.2152 19.3448 85.7173 19.1436 87.1977 18.7859C88.6781 18.4273 90.0039 17.7796 91.1744 16.8181C91.8152 16.2803 92.3239 15.6545 92.5002 14.8055C92.6991 14.2905 92.6548 13.866 92.4117 13.4855Z" fill="#2B2B2B"/>
<path d="M39.6938 10.7571C39.4054 10.7116 39.1106 10.7344 38.8324 10.824C38.4458 10.9617 38.0752 11.1417 37.7272 11.3609C35.6012 12.6897 33.7481 14.4207 32.2693 16.4592C31.8724 16.997 31.4965 17.5551 31.0988 18.0921C30.9885 18.2486 30.8557 18.383 30.7011 18.5843C30.6569 18.4726 30.6351 18.4278 30.6351 18.383C30.3695 17.4663 30.0604 16.5717 29.8172 15.6542C29.5094 14.5191 29.2223 13.3785 28.9559 12.2328C28.8456 11.7406 28.9116 11.5842 29.3753 11.3609C29.8841 11.1368 30.4138 10.8908 30.966 10.7571C32.4472 10.4434 33.9268 10.1974 35.4072 9.90729C35.6523 9.86677 35.8905 9.79133 36.1148 9.68322C36.4013 9.52677 36.6002 9.2807 36.5559 8.923C36.5342 8.56448 36.2911 8.36403 35.9819 8.2524C35.8716 8.20759 35.7388 8.18477 35.6277 8.16277C35.2309 8.13996 34.8332 8.11796 34.4573 8.13996C33.3303 8.20759 32.2701 8.49848 31.2091 8.85618C30.5087 9.10741 29.8013 9.33837 29.0879 9.54877C28.7788 9.6384 28.7345 9.59359 28.6468 9.2807C28.6242 9.21389 28.6242 9.14626 28.6025 9.07944C28.5139 8.38685 28.4254 7.69263 28.3369 6.97722C28.2708 6.50788 28.1823 6.01574 28.1823 5.54559C28.1606 4.80818 28.3151 4.65174 29.0219 4.60692C29.6409 4.56211 30.2375 4.56211 30.8557 4.51729C32.2701 4.42766 33.6837 4.2264 35.0538 3.80188C35.7831 3.55581 36.5124 3.28692 37.0647 2.72796C37.3078 2.48188 37.5283 2.191 37.6604 1.87811C37.9485 1.18551 37.5952 0.670551 36.8433 0.692551C36.5124 0.692551 36.1808 0.782181 35.8716 0.89381C34.9435 1.1847 34.0371 1.5424 33.0872 1.83329C32.0712 2.147 31.0328 2.43707 29.9943 2.63833C28.9334 2.8624 27.8732 2.99685 26.8122 3.15329C26.4813 3.19729 26.3485 3.28692 26.3268 3.64463C26.3042 3.82388 26.3042 4.00314 26.3268 4.2044L26.6576 8.36403C26.7019 8.98981 26.7687 9.5944 26.7904 10.2202C26.8122 10.4891 26.7462 10.5331 26.4813 10.4891C26.4371 10.4891 26.3702 10.4663 26.3268 10.4663C25.9066 10.3986 25.5306 10.4883 25.1998 10.7571C24.8456 11.0472 24.6918 11.4726 24.8238 11.7854C24.9567 12.0983 25.3761 12.2776 25.818 12.2328C25.8623 12.2328 25.8848 12.2108 25.9283 12.2108L26.7244 12.1431C26.9893 12.1211 27.1221 12.2548 27.1664 12.5017C27.1881 12.6801 27.2549 12.8366 27.2984 13.015C27.6301 14.9616 28.2483 16.8397 28.8891 18.6959C29.0662 19.21 29.3536 19.7022 29.6627 20.1495C30.0829 20.7533 30.6126 20.7533 31.1213 20.2391L31.1874 20.1723C32.5113 18.7354 33.9364 17.3975 35.4514 16.1691C36.3353 15.4757 37.2192 14.8043 38.1031 14.1117C38.6974 13.6361 39.2721 13.1359 39.8258 12.6125C40.0915 12.3672 40.2903 12.0535 40.3346 11.651C40.3346 11.1817 40.1357 10.824 39.6938 10.7571ZM127.631 11.2933C127.344 11.3609 127.056 11.4726 126.813 11.6518C126.371 11.9647 125.952 12.3224 125.532 12.6801C124.715 13.4183 123.941 14.2006 123.123 14.9168C122.019 15.9231 120.959 16.9742 120.03 18.1597C120.008 18.1817 119.986 18.2037 119.92 18.2494C119.853 18.0473 119.765 17.8688 119.743 17.6896C119.411 16.0795 119.058 14.4914 118.749 12.8814C118.66 12.3892 118.616 11.8751 118.572 11.3609C118.55 11.2485 118.594 11.1597 118.726 11.1368C119.544 10.8908 120.362 10.6227 121.179 10.3986C121.886 10.2194 122.638 10.0857 123.345 9.92929C123.676 9.86248 124.007 9.79485 124.339 9.70603C124.538 9.6384 124.715 9.52677 124.869 9.39233C125.399 8.923 125.244 8.11796 124.582 7.87188C123.808 7.581 123.08 7.73744 122.416 8.16277C121.091 9.01263 119.566 9.39314 118.086 9.97411C118.066 9.85422 118.044 9.7347 118.019 9.61559C117.887 8.72174 117.755 7.84907 117.666 6.95522C117.6 6.41744 117.6 5.88129 117.578 5.34433C117.578 5.09825 117.666 4.94181 117.931 4.91981C118.006 4.91578 118.081 4.90069 118.152 4.875C119.058 4.71855 119.986 4.60611 120.892 4.40566C122.266 4.11833 123.612 3.70655 124.913 3.17529C125.466 2.95203 125.974 2.66114 126.371 2.191C126.858 1.61003 126.614 0.737366 125.863 0.558921C125.598 0.491292 125.311 0.536107 125.046 0.603736C124.736 0.715366 124.427 0.89381 124.14 1.05107C123.632 1.34114 123.167 1.72166 122.638 1.94492C121.511 2.45988 120.339 2.83959 119.125 3.13048C118.108 3.37655 117.091 3.44337 116.053 3.39937C115.479 3.37655 115.17 3.68944 115.103 4.27122C115.081 4.40566 115.081 4.54011 115.103 4.65174C115.213 5.34433 115.324 6.06055 115.456 6.75396C115.678 7.82707 115.921 8.90018 116.141 9.97411C116.208 10.3098 116.186 10.3318 115.877 10.4663C115.545 10.6227 115.258 10.824 115.059 11.1368C114.904 11.3829 114.86 11.651 115.037 11.9191C115.213 12.188 115.456 12.2776 115.766 12.2108L116.031 12.1431C116.407 12.0763 116.562 12.1431 116.672 12.5017C116.782 12.8146 116.892 13.1494 116.959 13.4851C117.334 15.2745 117.71 17.0858 118.506 18.7635C118.639 19.0536 118.683 19.4121 118.66 19.747C118.639 20.5292 119.168 21.067 119.942 20.9326C120.384 20.8657 120.76 20.6417 121.069 20.306C121.422 19.9263 121.754 19.5237 122.085 19.0984C122.814 18.1589 123.609 17.3091 124.559 16.5937C125.736 15.7014 126.922 14.8216 128.117 13.9545C128.713 13.53 128.956 12.9482 128.912 12.2328C128.912 11.5842 128.315 11.1148 127.631 11.2933ZM71.2007 19.0764C70.5958 18.0916 69.8598 17.1959 69.0135 16.4144C67.9308 15.3861 66.8481 14.3798 65.5005 13.7092C64.9925 13.4623 64.5063 13.1943 63.9758 12.9262C64.4178 12.144 64.8814 11.3609 65.3234 10.5779C66.1465 9.21405 66.9569 7.84239 67.7545 6.46307C68.2842 5.52359 68.7261 4.54011 68.991 3.489C69.0795 3.13048 69.1021 2.77196 68.9692 2.43788C68.7921 2.01255 68.417 1.87811 67.9968 2.10218C67.4589 2.39849 66.914 2.68159 66.3626 2.95122C63.7327 4.2264 61.1036 5.50159 58.4519 6.79796C58.2482 6.89592 58.0558 7.01614 57.8779 7.15648C57.5905 7.40174 57.6123 7.78226 57.9222 7.98351C58.1428 8.11796 58.4076 8.22959 58.6507 8.2524C58.9607 8.2744 59.2698 8.16277 59.5572 8.09514C59.822 8.02833 60.0643 7.91588 60.33 7.82626C60.5731 7.76026 60.6399 7.78226 60.7059 8.05033C60.7239 8.10037 60.7313 8.15366 60.7276 8.20677L60.9933 10.2194C61.0818 10.9356 61.1921 11.629 61.3024 12.3444C61.3467 12.7029 61.2799 12.993 60.9482 13.2391C60.4185 13.6196 60.3742 14.2234 60.5731 14.8491C60.6616 15.118 60.9047 15.2973 61.1921 15.2517C61.4127 15.2297 61.4787 15.3193 61.4787 15.5206C61.5455 16.3476 61.6341 17.1974 61.7001 18.0253C61.7218 18.4498 61.7001 18.8751 61.7661 19.2997C61.8104 19.6126 61.8989 19.9263 62.0317 20.1943C62.2306 20.5528 62.5614 20.6417 62.9599 20.5748C63.335 20.5072 63.4896 20.2391 63.5339 19.9034C63.5781 19.5677 63.6224 19.2108 63.5781 18.8751C63.486 18.1132 63.3829 17.3526 63.269 16.5937C63.2022 16.1015 63.1362 15.5874 63.0702 15.0952C63.0476 14.8491 63.1145 14.5583 63.3133 14.4466C63.4236 14.3798 63.6667 14.5363 63.843 14.6031C63.8655 14.6031 63.8873 14.6259 63.9098 14.6479C64.6826 15.1848 65.4119 15.7886 66.031 16.504C66.5361 17.0903 67.0294 17.6869 67.5106 18.2934C68.1739 19.1212 68.8147 19.9483 69.4989 20.7541C69.7428 21.0442 70.0737 21.2903 70.4053 21.5135C70.7595 21.7376 71.1781 21.8272 71.5541 21.5363C71.93 21.2234 71.9083 20.8209 71.7529 20.4184C71.652 19.9405 71.4648 19.4855 71.2007 19.0764ZM63.0484 11.2028C62.9599 11.3153 62.8496 11.4269 62.7619 11.5386C62.7393 11.5386 62.7176 11.5166 62.6733 11.5166V11.0464C62.6733 9.6824 62.6508 8.29559 62.3859 6.95359C62.3642 6.85284 62.3763 6.74761 62.4203 6.65461C62.4643 6.56161 62.5378 6.48617 62.629 6.44026C62.8061 6.35063 63.0042 6.261 63.1813 6.17137C64.4628 5.56759 65.7219 4.941 67.0034 4.33803C67.1362 4.2704 67.2691 4.20359 67.4462 4.18077C67.4011 4.33722 67.3794 4.47166 67.3125 4.60611C66.8489 5.65722 66.3626 6.68551 65.7001 7.625C64.8215 8.82163 63.9376 10.0143 63.0484 11.2028Z" fill="#2B2B2B"/>
<path d="M138.126 17.4888C137.773 15.0289 137.464 12.5689 137.397 10.0862C137.352 8.4093 137.286 6.75359 137.264 5.0767C137.242 3.95878 137.286 2.81804 137.728 1.76692C137.817 1.56567 137.839 1.29759 137.817 1.07433C137.794 0.536555 137.441 0.112036 136.955 0.0232212C136.248 -0.112038 135.541 0.357295 135.453 1.07433C135.408 1.54285 135.387 2.03581 135.474 2.48233C135.67 3.45315 135.744 4.44489 135.696 5.43441C135.673 5.81493 135.696 6.19463 135.696 6.57515C135.74 7.91715 135.784 9.25915 135.828 10.6231C135.895 12.5241 135.939 14.4023 136.159 16.2812C136.182 16.4377 136.115 16.5941 136.093 16.7506C135.939 16.6837 135.784 16.6609 135.651 16.5713C135.144 16.2144 134.746 15.7443 134.436 15.2301C133.795 14.157 133.133 13.0831 132.536 11.9651C131.631 10.2426 130.813 8.49811 129.929 6.77641C129.634 6.21458 129.31 5.66947 128.956 5.14352C128.794 4.91245 128.583 4.72137 128.338 4.58455C128.095 4.42811 127.808 4.45093 127.564 4.62937C127.461 4.70855 127.381 4.8154 127.335 4.93791C127.288 5.06041 127.276 5.1937 127.3 5.32278C127.344 5.54604 127.41 5.7473 127.498 5.94937C127.763 6.70959 128.117 7.447 128.316 8.20804C129.023 10.8912 129.531 13.62 129.907 16.3929C129.995 17.0863 129.995 17.8025 129.708 18.4731C129.664 18.6075 129.641 18.742 129.62 18.8756C129.575 19.2333 129.641 19.591 129.884 19.8591C130.15 20.1728 130.525 20.1728 130.768 19.8591C130.923 19.6578 131.056 19.3897 131.077 19.1665C131.122 18.6287 131.166 18.0706 131.122 17.5116C130.901 15.3646 130.548 13.2395 129.951 11.1601C129.929 11.0705 129.929 10.9809 129.907 10.8912C129.929 10.8912 129.951 10.8692 129.973 10.8692C130.017 10.9589 130.062 11.0485 130.106 11.1153C130.57 12.054 130.99 12.9934 131.475 13.9101C132.403 15.7223 133.464 17.444 134.856 18.9204C135.32 19.4346 135.85 19.8819 136.358 20.3512C136.667 20.6201 137.022 20.7537 137.441 20.7766C137.993 20.7986 138.391 20.5305 138.458 19.9943C138.509 19.659 138.494 19.3166 138.413 18.9872C138.325 18.4951 138.215 18.0029 138.126 17.4888ZM113.358 8.09641C112.883 7.68789 112.365 7.33526 111.811 7.0453C110.574 6.4187 109.314 5.85974 108.077 5.27796C107.724 5.0987 107.37 4.89826 107.039 4.697C106.928 4.62937 106.862 4.47293 106.818 4.33848C106.707 3.89196 106.619 3.42181 106.354 3.0193C106.11 2.68359 105.78 2.46033 105.359 2.54996C104.962 2.61678 104.741 2.92967 104.63 3.31018C104.586 3.44463 104.586 3.60107 104.542 3.80233C104.409 3.75752 104.277 3.75752 104.166 3.7127C103.873 3.59719 103.578 3.48528 103.282 3.377C102.708 3.17574 102.134 3.0193 101.537 3.06411C101.117 3.10892 100.742 3.24337 100.587 3.66789C100.432 4.09322 100.565 4.47293 100.874 4.76381C101.117 4.98707 101.404 5.23315 101.736 5.34559C102.31 5.56885 102.885 5.74811 103.481 5.90456C103.879 6.01618 104.255 6.10581 104.564 6.3967C104.674 6.50833 104.785 6.64278 104.785 6.79922C104.873 7.55944 105.006 8.31967 104.962 9.05789C104.877 10.7244 104.737 12.3875 104.542 14.0446C104.387 15.3646 104.1 16.6617 103.879 17.9809C103.813 18.4063 103.724 18.8528 103.813 19.2561C103.989 20.0831 104.387 20.374 105.161 20.2176C105.404 20.1728 105.647 20.0831 105.867 19.9715C106.354 19.7026 106.84 19.4126 107.303 19.0997C109.447 17.5784 111.215 15.6774 112.806 13.598C113.38 12.837 113.91 12.032 114.242 11.1153C114.639 9.88493 114.352 8.92344 113.358 8.09641ZM112.982 10.8692C112.651 11.6743 112.165 12.3897 111.634 13.0611C110.905 14.0226 110.044 14.8504 109.094 15.5878C108.121 16.326 107.105 17.0643 106.133 17.7797C106.044 17.8465 105.978 17.8913 105.89 17.9361C105.867 17.9141 105.846 17.9141 105.824 17.8913C105.867 17.6012 105.934 17.2883 105.978 16.9966C106.155 15.7663 106.354 14.5367 106.508 13.3071C106.707 11.7191 106.84 10.109 106.84 8.49893C106.84 8.16322 106.818 7.82752 106.795 7.49263C106.774 7.31337 106.84 7.24655 106.994 7.29137C107.193 7.33537 107.392 7.381 107.569 7.44781C108.033 7.64907 108.497 7.89515 108.961 8.11841C110.176 8.70018 111.391 9.28115 112.584 9.86211C113.093 10.109 113.181 10.3551 112.982 10.8692Z" fill="#2B2B2B"/>
<path d="M101.78 18.2935C101.383 17.9806 100.941 17.7118 100.41 17.6898C99.9022 17.6678 99.416 17.6678 98.908 17.6449C98.223 17.6229 97.9356 17.376 97.8253 16.6835C97.781 16.3706 97.781 16.0569 97.7585 15.744C97.6925 13.8878 97.6039 12.0317 97.5597 10.1527C97.4936 8.14012 97.4494 6.10553 97.4051 4.09212C97.4051 3.86886 97.4276 3.6676 97.4719 3.44353C97.4861 3.396 97.5117 3.35277 97.5464 3.31765C97.5811 3.28254 97.6238 3.25665 97.6707 3.24227C98.6424 3.04101 99.6366 2.83975 100.609 2.63931C101.108 2.52856 101.602 2.39396 102.089 2.23597C102.443 2.10234 102.686 1.83346 102.774 1.45375C102.929 0.782344 102.487 0.268196 101.825 0.357826C101.604 0.401081 101.389 0.468568 101.184 0.559085C100.078 1.07323 98.8855 1.29649 97.715 1.49775C97.3834 1.56538 97.096 1.47575 96.8754 1.16286C96.4777 0.6039 95.4828 0.73753 95.2396 1.34212C95.1294 1.58738 94.9748 1.69901 94.7317 1.72183C93.8035 1.83346 92.8536 1.94509 91.9037 2.05753C91.6606 2.07953 91.3958 2.10234 91.1527 2.14716C90.6222 2.28079 90.2688 2.81775 90.313 3.39872C90.3348 3.89086 90.7107 4.29338 91.2629 4.3602C91.4618 4.38301 91.6832 4.40583 91.9037 4.3602C92.6773 4.22657 93.4284 4.04731 94.2012 3.89086C94.6214 3.80123 94.6431 3.80123 94.6874 4.24938C94.8645 5.79183 94.9973 7.3579 95.1962 8.90034C95.461 11.0702 95.7259 13.2392 95.9915 15.3863C96.0575 15.9901 96.1678 16.5938 96.2564 17.1976C96.3006 17.5105 96.2781 17.5561 95.9915 17.6458C95.7817 17.7184 95.5677 17.778 95.3507 17.8242C94.8863 17.9358 94.4226 18.0255 93.9806 18.1371C93.5572 18.2469 93.1642 18.4534 92.8319 18.7409C92.5662 18.9869 92.4117 19.2998 92.5002 19.6575C92.5888 20.038 92.8536 20.2165 93.1853 20.3289C93.2738 20.3509 93.3398 20.3738 93.4284 20.3738L94.5554 20.4406V20.4854C96.2121 20.2841 97.8696 20.1049 99.5045 19.9036C100.256 19.814 101.007 19.6347 101.692 19.3006C102.222 19.0538 102.155 18.6064 101.78 18.2935ZM58.7619 9.66138C58.3417 9.28086 57.9223 8.87916 57.4803 8.52064C54.9389 6.41842 52.3983 4.3162 49.8352 2.21397C49.471 1.91508 49.0787 1.65308 48.664 1.43175C48.4434 1.29731 48.1568 1.25249 47.9129 1.22968C47.5378 1.20768 47.2504 1.49857 47.2286 1.87827C47.2286 2.07953 47.2504 2.28079 47.3172 2.48205C47.4492 2.88457 47.6923 3.22027 48.0014 3.53316C48.4208 3.93568 48.8628 4.36101 49.2605 4.78553C49.349 4.87516 49.4158 4.98679 49.4376 5.09923L50.5646 10.9358C50.6531 11.3839 50.6966 11.8304 50.7634 12.3006C50.7409 12.3006 50.7191 12.3226 50.6966 12.3226C50.6306 12.2778 50.5863 12.2558 50.5195 12.2109C50.1776 11.9693 49.7653 11.8511 49.349 11.8752C48.6648 11.8972 47.9797 12.5018 48.4877 13.3957C48.7082 13.7982 49.0399 14.0891 49.4376 14.2675C49.7534 14.403 50.0783 14.5155 50.41 14.604C50.7191 14.6709 50.8954 14.8493 50.9622 15.1402C51.0508 15.4987 51.1393 15.8336 51.2279 16.1913C51.4484 17.1088 51.6247 18.0475 51.8679 18.9649C51.9781 19.4343 52.1995 19.8816 52.5529 20.2393C53.0834 20.7763 53.7902 20.5978 54.0116 19.8596C54.0333 19.77 54.055 19.6803 54.055 19.5907C54.1436 18.8981 53.989 18.2487 53.8119 17.6001C53.5914 16.8399 53.3482 16.1245 53.1051 15.3643C53.0166 15.0734 53.0834 15.0058 53.3482 15.0058C54.6523 14.9618 55.9114 14.6929 57.1269 14.2683C57.8112 14.0223 58.452 13.7542 59.005 13.262C59.4687 12.8139 59.7778 12.2558 59.7118 11.6072C59.6015 10.8689 59.3141 10.1755 58.7619 9.66138ZM57.7009 12.1433C57.0166 12.5915 56.2648 12.8595 55.4694 13.038C55.0718 13.1276 54.6741 13.1724 54.2764 13.2392C53.7459 13.3069 53.238 13.1496 52.7517 12.9483C52.4644 12.8147 52.3098 12.5686 52.2655 12.2778C52.177 11.696 52.111 11.115 52.0224 10.534C51.8679 9.34768 51.7133 8.16294 51.537 6.95538C51.5145 6.84294 51.5145 6.73131 51.4927 6.57486C51.6473 6.64168 51.7576 6.66449 51.8679 6.70931C52.0667 6.82094 52.2438 6.93257 52.4201 7.06701C54.2381 8.38485 55.9999 9.78026 57.7009 11.2495C58.1871 11.6292 58.1871 11.8304 57.7009 12.1433ZM160.707 12.9712C160.596 12.9035 160.486 12.7919 160.375 12.7251C159.403 12.1653 158.453 11.5615 157.459 11.0254C156.045 10.2652 154.608 9.59375 153.172 8.85553C152.068 8.29657 150.985 7.71479 149.902 7.15583C149.726 7.0662 149.571 6.93257 149.35 6.77612C149.549 6.61968 149.682 6.48523 149.836 6.3736C151.361 5.29968 153.062 4.6739 154.852 4.24857C155.404 4.11494 155.957 4.02531 156.509 4.15894C156.928 4.27138 157.349 4.47264 157.746 4.62909C158.188 4.80834 158.63 4.71871 158.895 4.3382C159.16 4.00249 159.116 3.57797 158.806 3.19746C158.431 2.77294 157.967 2.59449 157.415 2.59449C155.691 2.54886 154.079 3.0182 152.554 3.80123C151.803 4.18175 151.051 4.60627 150.323 5.0316C149.792 5.34449 149.24 5.59057 148.621 5.7022C148.4 5.74701 148.179 5.85946 147.98 5.97109C147.582 6.21716 147.516 6.70849 147.715 7.13383C147.891 7.51434 148.201 7.7376 148.532 7.96168C151.206 9.70538 154.012 11.2266 156.862 12.6795C157.525 13.016 158.21 13.3509 158.851 13.7306C159.094 13.865 159.314 14.0671 159.514 14.2683C159.713 14.4476 159.69 14.5812 159.536 14.7817C159.182 15.2298 158.762 15.6323 158.21 15.8556C157.481 16.1465 156.752 16.4374 155.979 16.6606C154.786 16.9963 153.57 17.2196 152.333 17.1984C151.891 17.1756 151.471 17.1088 151.095 16.8619C150.765 16.6386 150.609 16.3258 150.72 15.9452C150.852 15.5427 151.051 15.163 151.272 14.8045C151.493 14.4248 151.759 14.0891 151.979 13.7314C152.201 13.3729 152.333 12.9712 152.311 12.5238C152.288 11.8524 151.825 11.5175 151.184 11.696C150.963 11.7628 150.72 11.8524 150.521 11.9869C149.909 12.3616 149.375 12.8556 148.952 13.4405C148.445 14.1559 148.201 14.9389 148.356 15.8116C148.599 17.1308 149.328 18.0695 150.566 18.5844C151.317 18.8973 152.134 18.9421 152.929 18.9201C154.321 18.8753 155.669 18.5616 157.017 18.1591C158.428 17.7448 159.728 17.0106 160.817 16.012C161.746 15.2518 161.746 13.6418 160.707 12.9712Z" fill="#2B2B2B"/>
<path d="M146.611 16.2366C146.5 15.2971 146.455 14.3357 146.345 13.3742C146.146 11.518 145.903 9.63906 145.683 7.78292C145.572 6.81091 145.439 5.84158 145.285 4.87566C145.218 4.47314 145.395 3.95899 145.771 3.80173C145.97 3.7121 146.169 3.62247 146.389 3.55647C147.362 3.22077 148.378 3.13114 149.372 3.04151C150.013 2.9967 150.653 2.90788 151.206 2.52736C151.516 2.3261 151.736 2.05803 151.692 1.65551C151.648 1.25218 151.383 1.00692 151.029 0.849659C150.632 0.693214 150.234 0.6264 149.814 0.716029C149.35 0.805659 148.908 0.939288 148.444 1.05092C146.453 1.58469 144.464 2.12899 142.479 2.68381C141.462 2.9747 140.446 3.19795 139.363 3.15314C139.076 3.19795 138.767 3.22077 138.502 3.3104C138.037 3.48966 137.883 3.89136 138.082 4.36151C138.325 4.92047 138.789 5.18855 139.363 5.30018C140.004 5.41262 140.622 5.25536 141.22 5.09892C141.772 4.94247 142.302 4.76403 142.855 4.62958C143.318 4.51795 143.627 4.6964 143.76 5.16655C143.849 5.52425 143.915 5.88195 143.936 6.26247C144.069 8.94566 144.18 11.6077 144.335 14.2908C144.401 15.2971 144.534 16.2814 144.688 17.2649C144.82 18.0708 145.108 18.8538 145.749 19.4348C146.013 19.6808 146.323 19.8593 146.677 19.7257C147.03 19.5912 147.096 19.2555 147.14 18.9206C147.185 18.4505 147.096 18.0031 146.942 17.5558C146.81 17.1085 146.654 16.6611 146.611 16.2358V16.2366Z" fill="#2B2B2B"/>
</g>
<defs>
<clipPath id="clip0_2015_6432">
<rect width="161" height="22" fill="white" transform="translate(0.5)"/>
</clipPath>
</defs>
</svg>
