<svg width="158" height="34" viewBox="0 0 158 34" fill="none" xmlns="http://www.w3.org/2000/svg">
<path fill-rule="evenodd" clip-rule="evenodd" d="M0.694724 3.85038C0 5.21385 0 6.99874 0 10.5685V22.8265C0 26.3962 0 28.1811 0.694724 29.5446C1.30582 30.7439 2.28092 31.719 3.48026 32.3301C4.84374 33.0249 6.62862 33.0249 10.1984 33.0249H22.4564C26.0261 33.0249 27.811 33.0249 29.1745 32.3301C30.3738 31.719 31.3489 30.7439 31.96 29.5446C32.6548 28.1811 32.6548 26.3962 32.6548 22.8265V10.5685C32.6548 6.99874 32.6548 5.21385 31.96 3.85038C31.3489 2.65104 30.3738 1.67594 29.1745 1.06484C27.811 0.370117 26.0261 0.370117 22.4564 0.370117H10.1984C6.62862 0.370117 4.84374 0.370117 3.48026 1.06484C2.28092 1.67594 1.30582 2.65104 0.694724 3.85038ZM8.36651 8.0827L17.4029 9.11316C19.2773 9.32701 22.1992 11.1638 22.1992 14.7211C22.1992 17.2192 20.356 19.3668 18.3099 19.9338C18.2935 19.9383 18.2874 19.9583 18.2984 19.9712L24.2364 26.9451C24.2698 26.9843 24.2272 27.0418 24.18 27.0212L14.1412 22.6456C13.2141 22.2071 11.3009 20.5608 11.644 17.7211C12.0052 15.7349 13.1688 14.8333 13.578 14.5163L13.5833 14.5122C13.5937 14.5041 13.5947 14.4895 13.5862 14.4795L8.29541 8.21552C8.24808 8.15947 8.29362 8.07439 8.36651 8.0827Z" fill="#041527"/>
<path fill-rule="evenodd" clip-rule="evenodd" d="M0.694724 3.85038C0 5.21385 0 6.99874 0 10.5685V22.8265C0 26.3962 0 28.1811 0.694724 29.5446C1.30582 30.7439 2.28092 31.719 3.48026 32.3301C4.84374 33.0249 6.62862 33.0249 10.1984 33.0249H22.4564C26.0261 33.0249 27.811 33.0249 29.1745 32.3301C30.3738 31.719 31.3489 30.7439 31.96 29.5446C32.6548 28.1811 32.6548 26.3962 32.6548 22.8265V10.5685C32.6548 6.99874 32.6548 5.21385 31.96 3.85038C31.3489 2.65104 30.3738 1.67594 29.1745 1.06484C27.811 0.370117 26.0261 0.370117 22.4564 0.370117H10.1984C6.62862 0.370117 4.84374 0.370117 3.48026 1.06484C2.28092 1.67594 1.30582 2.65104 0.694724 3.85038ZM8.36651 8.0827L17.4029 9.11316C19.2773 9.32701 22.1992 11.1638 22.1992 14.7211C22.1992 17.2192 20.356 19.3668 18.3099 19.9338C18.2935 19.9383 18.2874 19.9583 18.2984 19.9712L24.2364 26.9451C24.2698 26.9843 24.2272 27.0418 24.18 27.0212L14.1412 22.6456C13.2141 22.2071 11.3009 20.5608 11.644 17.7211C12.0052 15.7349 13.1688 14.8333 13.578 14.5163L13.5833 14.5122C13.5937 14.5041 13.5947 14.4895 13.5862 14.4795L8.29541 8.21552C8.24808 8.15947 8.29362 8.07439 8.36651 8.0827Z" fill="url(#paint0_radial_3868_17257)"/>
<path d="M17.4029 9.11316L8.36651 8.0827C8.29362 8.07439 8.24808 8.15947 8.29541 8.21552L13.5862 14.4795C13.5947 14.4895 13.5937 14.5041 13.5833 14.5122L13.578 14.5163C13.1688 14.8333 12.0052 15.7349 11.644 17.7211C11.3009 20.5608 13.2141 22.2071 14.1412 22.6456L24.18 27.0212C24.2272 27.0418 24.2698 26.9843 24.2364 26.9451L18.2984 19.9712C18.2874 19.9583 18.2935 19.9383 18.3099 19.9338C20.356 19.3668 22.1992 17.2192 22.1992 14.7211C22.1992 11.1638 19.2773 9.32701 17.4029 9.11316Z" fill="white"/>
<path d="M42.2771 24.453V12.0498H44.7954L44.9366 13.815C45.8937 12.497 47.196 11.838 48.8435 11.838C49.0004 11.838 49.1495 11.8458 49.2907 11.8615C49.4476 11.8615 49.5888 11.8694 49.7143 11.885V14.3798C49.526 14.3798 49.3378 14.3877 49.1495 14.4033C48.9769 14.4033 48.8043 14.4033 48.6317 14.4033C47.9413 14.419 47.3608 14.5446 46.8901 14.7799C46.435 14.9996 46.0585 15.2977 45.7604 15.6743C45.4779 16.0508 45.274 16.498 45.1484 17.0158C45.0229 17.5179 44.9602 18.0592 44.9602 18.6397V24.453H42.2771Z" fill="white"/>
<path d="M59.2144 22.9232C58.8065 23.5038 58.2652 23.9352 57.5905 24.2177C56.9158 24.4844 56.1626 24.6178 55.3311 24.6178C54.6721 24.6178 54.068 24.5393 53.5188 24.3824C52.9853 24.2255 52.5146 23.9902 52.1067 23.6763C51.6987 23.3469 51.3771 22.9467 51.1417 22.476C50.9064 21.9896 50.7887 21.4405 50.7887 20.8285C50.7887 20.1539 50.9221 19.5812 51.1888 19.1105C51.4555 18.6241 51.8164 18.2318 52.2714 17.9337C52.7421 17.6356 53.2913 17.4159 53.9189 17.2747C54.5465 17.1178 55.2055 17.0393 55.8959 17.0393H59.0732C59.0732 16.1293 58.8692 15.4232 58.4613 14.9211C58.0533 14.419 57.3394 14.1601 56.3195 14.1445C55.7233 14.1445 55.2055 14.2464 54.7662 14.4504C54.3426 14.6544 54.0601 14.9917 53.9189 15.4624H51.1653C51.2594 14.8035 51.4712 14.2464 51.8007 13.7914C52.1459 13.3364 52.5539 12.9598 53.0246 12.6617C53.511 12.3636 54.0444 12.1518 54.625 12.0263C55.2212 11.9007 55.8175 11.838 56.4137 11.838C57.1825 11.838 57.8964 11.94 58.5554 12.1439C59.2144 12.3479 59.7871 12.6931 60.2735 13.1795C60.8227 13.7444 61.1914 14.419 61.3797 15.2036C61.568 15.9881 61.6621 16.8432 61.6621 17.7689V24.453H59.3321L59.2144 22.9232ZM59.0732 18.9457H56.4843C56.0293 18.9457 55.5743 18.9849 55.1192 19.0634C54.6642 19.1261 54.272 19.2909 53.9425 19.5576C53.6286 19.8087 53.4717 20.1774 53.4717 20.6638C53.4717 21.26 53.6836 21.7151 54.1072 22.0289C54.5465 22.327 55.08 22.476 55.7076 22.476C56.194 22.476 56.6412 22.4133 57.0491 22.2878C57.4728 22.1622 57.8337 21.9583 58.1318 21.6758C58.4299 21.3777 58.6574 21.009 58.8143 20.5697C58.9869 20.1146 59.0732 19.5733 59.0732 18.9457Z" fill="white"/>
<path d="M64.3077 24.453V12.0498H66.826L66.9672 13.815C67.9243 12.497 69.2266 11.838 70.8741 11.838C71.031 11.838 71.18 11.8458 71.3212 11.8615C71.4781 11.8615 71.6194 11.8694 71.7449 11.885V14.3798C71.5566 14.3798 71.3683 14.3877 71.18 14.4033C71.0074 14.4033 70.8348 14.4033 70.6623 14.4033C69.9719 14.419 69.3913 14.5446 68.9206 14.7799C68.4656 14.9996 68.089 15.2977 67.7909 15.6743C67.5085 16.0508 67.3045 16.498 67.179 17.0158C67.0535 17.5179 66.9907 18.0592 66.9907 18.6397V24.453H64.3077Z" fill="white"/>
<path d="M74.7727 6.89551C75.2591 6.89551 75.6592 7.04457 75.973 7.34268C76.3025 7.6408 76.4673 8.04875 76.4673 8.56653C76.4673 9.06862 76.3025 9.46873 75.973 9.76684C75.6592 10.065 75.2591 10.214 74.7727 10.214C74.2549 10.214 73.8391 10.065 73.5253 9.76684C73.2115 9.46873 73.0546 9.06862 73.0546 8.56653C73.0546 8.04875 73.2115 7.6408 73.5253 7.34268C73.8391 7.04457 74.2549 6.89551 74.7727 6.89551ZM73.4076 24.453V12.0498H76.0907V24.453H73.4076Z" fill="white"/>
<path d="M82.679 12.0498H86.3976V14.3798H82.679V19.8401C82.679 20.1539 82.6947 20.452 82.7261 20.7344C82.7731 21.0168 82.8516 21.2757 82.9614 21.5111C83.0869 21.7307 83.2595 21.9112 83.4792 22.0524C83.6989 22.1936 83.997 22.2642 84.3735 22.2642C85.0325 22.2642 85.5974 22.0681 86.0681 21.6758L86.9625 23.6763C86.5545 23.9902 86.0838 24.2255 85.5503 24.3824C85.0168 24.5236 84.4912 24.5942 83.9734 24.5942C82.6241 24.5942 81.6277 24.2569 80.9844 23.5822C80.3411 22.8918 80.0195 21.817 80.0195 20.3578V14.3798H78.066V12.0498H80.0195V8.51946H82.679V12.0498Z" fill="white"/>
<path d="M99.886 12.0498V22.476C99.886 23.1821 99.8703 23.9039 99.839 24.6413C99.8233 25.3788 99.6978 26.1005 99.4624 26.8066C99.1015 27.9363 98.4504 28.8228 97.5089 29.4661C96.5675 30.1094 95.3045 30.4311 93.7197 30.4311C92.7783 30.4311 91.8683 30.3055 90.9896 30.0545C90.1266 29.8034 89.3107 29.3876 88.5419 28.8071C88.7145 28.4462 88.8793 28.0697 89.0362 27.6774C89.2087 27.3008 89.3813 26.9243 89.5539 26.5477C90.0717 26.9556 90.6601 27.3008 91.3191 27.5833C91.9938 27.8657 92.7626 28.0069 93.6256 28.0069C94.4572 28.0069 95.1083 27.8657 95.579 27.5833C96.0497 27.3008 96.4028 26.9164 96.6381 26.43C96.8892 25.9593 97.0461 25.4101 97.1088 24.7825C97.1873 24.1706 97.2265 23.543 97.2265 22.8997C96.7872 23.5273 96.238 23.9745 95.579 24.2412C94.9357 24.5079 94.2061 24.6413 93.3902 24.6413C92.4645 24.6413 91.6721 24.5001 91.0131 24.2177C90.3541 23.9352 89.8364 23.543 89.4598 23.0409C89.0832 22.5388 88.8165 21.9426 88.6596 21.2522C88.5027 20.5618 88.4242 19.8087 88.4242 18.9928V12.0498H91.0837V18.475C91.0837 18.9771 91.1151 19.4635 91.1779 19.9342C91.2563 20.3892 91.3976 20.7972 91.6015 21.158C91.8212 21.5032 92.1193 21.7857 92.4959 22.0053C92.8724 22.2093 93.3667 22.3113 93.9786 22.3113C94.6062 22.3113 95.124 22.1858 95.532 21.9347C95.9556 21.6837 96.2851 21.362 96.5205 20.9698C96.7715 20.5618 96.9441 20.0989 97.0382 19.5812C97.1481 19.0634 97.203 18.5299 97.203 17.9807V12.0498H99.886Z" fill="white"/>
<path d="M114.345 22.2642C114.313 22.9546 114.298 23.645 114.298 24.3353C114.298 25.0257 114.203 25.7239 114.015 26.43C113.639 27.7637 112.956 28.76 111.967 29.419C110.979 30.078 109.747 30.4075 108.272 30.4075C107.582 30.4075 106.923 30.3291 106.295 30.1722C105.684 30.0153 105.126 29.7721 104.624 29.4426C104.138 29.1131 103.722 28.6894 103.377 28.1716C103.032 27.6695 102.804 27.0576 102.694 26.3359H105.495C105.621 26.9007 105.95 27.3244 106.484 27.6068C107.033 27.8892 107.637 28.0304 108.296 28.0304C109.049 28.0304 109.645 27.8892 110.085 27.6068C110.54 27.34 110.885 26.9635 111.12 26.4771C111.356 26.0064 111.505 25.4572 111.567 24.8296C111.63 24.2177 111.662 23.5665 111.662 22.8761C111.269 23.4881 110.759 23.9352 110.132 24.2177C109.52 24.5001 108.751 24.6492 107.825 24.6648C106.758 24.6492 105.872 24.4766 105.166 24.1471C104.475 23.8019 103.903 23.339 103.448 22.7585C102.993 22.1779 102.655 21.5111 102.436 20.7579C102.216 20.0048 102.106 19.2046 102.106 18.3573C102.106 17.4159 102.224 16.5529 102.459 15.7684C102.71 14.9839 103.079 14.3014 103.565 13.7208C104.052 13.1403 104.656 12.6853 105.378 12.3558C106.099 12.0263 106.939 11.8615 107.896 11.8615C108.712 11.8615 109.434 12.0027 110.061 12.2851C110.704 12.5519 111.261 12.9677 111.732 13.5325L111.944 12.0498H114.345V22.2642ZM108.178 14.2857C107.582 14.2857 107.064 14.3877 106.625 14.5916C106.201 14.7956 105.848 15.078 105.566 15.4389C105.299 15.7998 105.095 16.2313 104.954 16.7334C104.828 17.2198 104.766 17.7454 104.766 18.3102C104.766 18.8751 104.828 19.4007 104.954 19.8871C105.095 20.3578 105.307 20.7736 105.589 21.1345C105.872 21.4954 106.225 21.7857 106.648 22.0053C107.088 22.2093 107.606 22.3113 108.202 22.3113C108.814 22.3113 109.332 22.1936 109.755 21.9583C110.194 21.7229 110.555 21.4169 110.838 21.0404C111.12 20.6481 111.332 20.2088 111.473 19.7224C111.614 19.236 111.685 18.7339 111.685 18.2161C111.685 17.6826 111.614 17.1727 111.473 16.6863C111.332 16.1999 111.112 15.7841 110.814 15.4389C110.532 15.078 110.171 14.7956 109.732 14.5916C109.292 14.3877 108.775 14.2857 108.178 14.2857Z" fill="white"/>
<path d="M117.028 24.453V12.0498H119.546L119.688 13.815C120.645 12.497 121.947 11.838 123.595 11.838C123.752 11.838 123.901 11.8458 124.042 11.8615C124.199 11.8615 124.34 11.8694 124.465 11.885V14.3798C124.277 14.3798 124.089 14.3877 123.901 14.4033C123.728 14.4033 123.555 14.4033 123.383 14.4033C122.692 14.419 122.112 14.5446 121.641 14.7799C121.186 14.9996 120.81 15.2977 120.511 15.6743C120.229 16.0508 120.025 16.498 119.9 17.0158C119.774 17.5179 119.711 18.0592 119.711 18.6397V24.453H117.028Z" fill="white"/>
<path d="M133.966 22.9232C133.558 23.5038 133.016 23.9352 132.342 24.2177C131.667 24.4844 130.914 24.6178 130.082 24.6178C129.423 24.6178 128.819 24.5393 128.27 24.3824C127.736 24.2255 127.266 23.9902 126.858 23.6763C126.45 23.3469 126.128 22.9467 125.893 22.476C125.657 21.9896 125.54 21.4405 125.54 20.8285C125.54 20.1539 125.673 19.5812 125.94 19.1105C126.207 18.6241 126.567 18.2318 127.023 17.9337C127.493 17.6356 128.042 17.4159 128.67 17.2747C129.298 17.1178 129.957 17.0393 130.647 17.0393H133.824C133.824 16.1293 133.62 15.4232 133.212 14.9211C132.804 14.419 132.091 14.1601 131.071 14.1445C130.474 14.1445 129.957 14.2464 129.517 14.4504C129.094 14.6544 128.811 14.9917 128.67 15.4624H125.916C126.01 14.8035 126.222 14.2464 126.552 13.7914C126.897 13.3364 127.305 12.9598 127.776 12.6617C128.262 12.3636 128.796 12.1518 129.376 12.0263C129.972 11.9007 130.569 11.838 131.165 11.838C131.934 11.838 132.648 11.94 133.307 12.1439C133.966 12.3479 134.538 12.6931 135.025 13.1795C135.574 13.7444 135.942 14.419 136.131 15.2036C136.319 15.9881 136.413 16.8432 136.413 17.7689V24.453H134.083L133.966 22.9232ZM133.824 18.9457H131.235C130.78 18.9457 130.325 18.9849 129.87 19.0634C129.415 19.1261 129.023 19.2909 128.694 19.5576C128.38 19.8087 128.223 20.1774 128.223 20.6638C128.223 21.26 128.435 21.7151 128.858 22.0289C129.298 22.327 129.831 22.476 130.459 22.476C130.945 22.476 131.392 22.4133 131.8 22.2878C132.224 22.1622 132.585 21.9583 132.883 21.6758C133.181 21.3777 133.409 21.009 133.565 20.5697C133.738 20.1146 133.824 19.5733 133.824 18.9457Z" fill="white"/>
<path d="M141.624 12.0498C141.64 12.1753 141.648 12.3008 141.648 12.4264L141.718 13.156C141.734 13.2815 141.742 13.407 141.742 13.5325C142.605 12.3714 143.734 11.7909 145.131 11.7909C146.01 11.7909 146.716 11.9713 147.249 12.3322C147.783 12.6931 148.198 13.1717 148.496 13.7679C148.983 13.1246 149.532 12.6382 150.144 12.3087C150.772 11.9635 151.501 11.7909 152.333 11.7909C153.039 11.7909 153.643 11.9086 154.145 12.1439C154.663 12.3793 155.071 12.7088 155.369 13.1324C155.683 13.5561 155.91 14.0503 156.051 14.6152C156.193 15.1643 156.263 15.7527 156.263 16.3803V24.453H153.58V17.3688C153.58 16.9923 153.557 16.6157 153.51 16.2391C153.462 15.8626 153.361 15.5252 153.204 15.2271C153.062 14.9133 152.851 14.6622 152.568 14.474C152.286 14.27 151.909 14.168 151.438 14.168C150.936 14.168 150.521 14.2935 150.191 14.5446C149.877 14.7799 149.626 15.0702 149.438 15.4154C149.265 15.7606 149.148 16.1528 149.085 16.5922C149.022 17.0158 148.991 17.4394 148.991 17.8631V24.453H146.331V17.3218C146.331 16.9609 146.308 16.6 146.261 16.2391C146.229 15.8626 146.143 15.5252 146.002 15.2271C145.861 14.929 145.649 14.6779 145.366 14.474C145.1 14.27 144.723 14.168 144.237 14.168C143.734 14.168 143.311 14.2935 142.966 14.5446C142.636 14.7956 142.377 15.1094 142.189 15.486C142.001 15.8469 141.875 16.247 141.812 16.6863C141.75 17.1099 141.718 17.5022 141.718 17.8631V24.453H139.059V12.0498H141.624Z" fill="white"/>
<path d="M42.2771 24.453V12.0498H44.7954L44.9366 13.815C45.8937 12.497 47.196 11.838 48.8435 11.838C49.0004 11.838 49.1495 11.8458 49.2907 11.8615C49.4476 11.8615 49.5888 11.8694 49.7143 11.885V14.3798C49.526 14.3798 49.3378 14.3877 49.1495 14.4033C48.9769 14.4033 48.8043 14.4033 48.6317 14.4033C47.9413 14.419 47.3608 14.5446 46.8901 14.7799C46.435 14.9996 46.0585 15.2977 45.7604 15.6743C45.4779 16.0508 45.274 16.498 45.1484 17.0158C45.0229 17.5179 44.9602 18.0592 44.9602 18.6397V24.453H42.2771Z" stroke="white" stroke-width="0.408184"/>
<path d="M59.2144 22.9232C58.8065 23.5038 58.2652 23.9352 57.5905 24.2177C56.9158 24.4844 56.1626 24.6178 55.3311 24.6178C54.6721 24.6178 54.068 24.5393 53.5188 24.3824C52.9853 24.2255 52.5146 23.9902 52.1067 23.6763C51.6987 23.3469 51.3771 22.9467 51.1417 22.476C50.9064 21.9896 50.7887 21.4405 50.7887 20.8285C50.7887 20.1539 50.9221 19.5812 51.1888 19.1105C51.4555 18.6241 51.8164 18.2318 52.2714 17.9337C52.7421 17.6356 53.2913 17.4159 53.9189 17.2747C54.5465 17.1178 55.2055 17.0393 55.8959 17.0393H59.0732C59.0732 16.1293 58.8692 15.4232 58.4613 14.9211C58.0533 14.419 57.3394 14.1601 56.3195 14.1445C55.7233 14.1445 55.2055 14.2464 54.7662 14.4504C54.3426 14.6544 54.0601 14.9917 53.9189 15.4624H51.1653C51.2594 14.8035 51.4712 14.2464 51.8007 13.7914C52.1459 13.3364 52.5539 12.9598 53.0246 12.6617C53.511 12.3636 54.0444 12.1518 54.625 12.0263C55.2212 11.9007 55.8175 11.838 56.4137 11.838C57.1825 11.838 57.8964 11.94 58.5554 12.1439C59.2144 12.3479 59.7871 12.6931 60.2735 13.1795C60.8227 13.7444 61.1914 14.419 61.3797 15.2036C61.568 15.9881 61.6621 16.8432 61.6621 17.7689V24.453H59.3321L59.2144 22.9232ZM59.0732 18.9457H56.4843C56.0293 18.9457 55.5743 18.9849 55.1192 19.0634C54.6642 19.1261 54.272 19.2909 53.9425 19.5576C53.6286 19.8087 53.4717 20.1774 53.4717 20.6638C53.4717 21.26 53.6836 21.7151 54.1072 22.0289C54.5465 22.327 55.08 22.476 55.7076 22.476C56.194 22.476 56.6412 22.4133 57.0491 22.2878C57.4728 22.1622 57.8337 21.9583 58.1318 21.6758C58.4299 21.3777 58.6574 21.009 58.8143 20.5697C58.9869 20.1146 59.0732 19.5733 59.0732 18.9457Z" stroke="white" stroke-width="0.408184"/>
<path d="M64.3077 24.453V12.0498H66.826L66.9672 13.815C67.9243 12.497 69.2266 11.838 70.8741 11.838C71.031 11.838 71.18 11.8458 71.3212 11.8615C71.4781 11.8615 71.6194 11.8694 71.7449 11.885V14.3798C71.5566 14.3798 71.3683 14.3877 71.18 14.4033C71.0074 14.4033 70.8348 14.4033 70.6623 14.4033C69.9719 14.419 69.3913 14.5446 68.9206 14.7799C68.4656 14.9996 68.089 15.2977 67.7909 15.6743C67.5085 16.0508 67.3045 16.498 67.179 17.0158C67.0535 17.5179 66.9907 18.0592 66.9907 18.6397V24.453H64.3077Z" stroke="white" stroke-width="0.408184"/>
<path d="M74.7727 6.89551C75.2591 6.89551 75.6592 7.04457 75.973 7.34268C76.3025 7.6408 76.4673 8.04875 76.4673 8.56653C76.4673 9.06862 76.3025 9.46873 75.973 9.76684C75.6592 10.065 75.2591 10.214 74.7727 10.214C74.2549 10.214 73.8391 10.065 73.5253 9.76684C73.2115 9.46873 73.0546 9.06862 73.0546 8.56653C73.0546 8.04875 73.2115 7.6408 73.5253 7.34268C73.8391 7.04457 74.2549 6.89551 74.7727 6.89551ZM73.4076 24.453V12.0498H76.0907V24.453H73.4076Z" stroke="white" stroke-width="0.408184"/>
<path d="M82.679 12.0498H86.3976V14.3798H82.679V19.8401C82.679 20.1539 82.6947 20.452 82.7261 20.7344C82.7731 21.0168 82.8516 21.2757 82.9614 21.5111C83.0869 21.7307 83.2595 21.9112 83.4792 22.0524C83.6989 22.1936 83.997 22.2642 84.3735 22.2642C85.0325 22.2642 85.5974 22.0681 86.0681 21.6758L86.9625 23.6763C86.5545 23.9902 86.0838 24.2255 85.5503 24.3824C85.0168 24.5236 84.4912 24.5942 83.9734 24.5942C82.6241 24.5942 81.6277 24.2569 80.9844 23.5822C80.3411 22.8918 80.0195 21.817 80.0195 20.3578V14.3798H78.066V12.0498H80.0195V8.51946H82.679V12.0498Z" stroke="white" stroke-width="0.408184"/>
<path d="M99.886 12.0498V22.476C99.886 23.1821 99.8703 23.9039 99.839 24.6413C99.8233 25.3788 99.6978 26.1005 99.4624 26.8066C99.1015 27.9363 98.4504 28.8228 97.5089 29.4661C96.5675 30.1094 95.3045 30.4311 93.7197 30.4311C92.7783 30.4311 91.8683 30.3055 90.9896 30.0545C90.1266 29.8034 89.3107 29.3876 88.5419 28.8071C88.7145 28.4462 88.8793 28.0697 89.0362 27.6774C89.2087 27.3008 89.3813 26.9243 89.5539 26.5477C90.0717 26.9556 90.6601 27.3008 91.3191 27.5833C91.9938 27.8657 92.7626 28.0069 93.6256 28.0069C94.4572 28.0069 95.1083 27.8657 95.579 27.5833C96.0497 27.3008 96.4028 26.9164 96.6381 26.43C96.8892 25.9593 97.0461 25.4101 97.1088 24.7825C97.1873 24.1706 97.2265 23.543 97.2265 22.8997C96.7872 23.5273 96.238 23.9745 95.579 24.2412C94.9357 24.5079 94.2061 24.6413 93.3902 24.6413C92.4645 24.6413 91.6721 24.5001 91.0131 24.2177C90.3541 23.9352 89.8364 23.543 89.4598 23.0409C89.0832 22.5388 88.8165 21.9426 88.6596 21.2522C88.5027 20.5618 88.4242 19.8087 88.4242 18.9928V12.0498H91.0837V18.475C91.0837 18.9771 91.1151 19.4635 91.1779 19.9342C91.2563 20.3892 91.3976 20.7972 91.6015 21.158C91.8212 21.5032 92.1193 21.7857 92.4959 22.0053C92.8724 22.2093 93.3667 22.3113 93.9786 22.3113C94.6062 22.3113 95.124 22.1858 95.532 21.9347C95.9556 21.6837 96.2851 21.362 96.5205 20.9698C96.7715 20.5618 96.9441 20.0989 97.0382 19.5812C97.1481 19.0634 97.203 18.5299 97.203 17.9807V12.0498H99.886Z" stroke="white" stroke-width="0.408184"/>
<path d="M114.345 22.2642C114.313 22.9546 114.298 23.645 114.298 24.3353C114.298 25.0257 114.203 25.7239 114.015 26.43C113.639 27.7637 112.956 28.76 111.967 29.419C110.979 30.078 109.747 30.4075 108.272 30.4075C107.582 30.4075 106.923 30.3291 106.295 30.1722C105.684 30.0153 105.126 29.7721 104.624 29.4426C104.138 29.1131 103.722 28.6894 103.377 28.1716C103.032 27.6695 102.804 27.0576 102.694 26.3359H105.495C105.621 26.9007 105.95 27.3244 106.484 27.6068C107.033 27.8892 107.637 28.0304 108.296 28.0304C109.049 28.0304 109.645 27.8892 110.085 27.6068C110.54 27.34 110.885 26.9635 111.12 26.4771C111.356 26.0064 111.505 25.4572 111.567 24.8296C111.63 24.2177 111.662 23.5665 111.662 22.8761C111.269 23.4881 110.759 23.9352 110.132 24.2177C109.52 24.5001 108.751 24.6492 107.825 24.6648C106.758 24.6492 105.872 24.4766 105.166 24.1471C104.475 23.8019 103.903 23.339 103.448 22.7585C102.993 22.1779 102.655 21.5111 102.436 20.7579C102.216 20.0048 102.106 19.2046 102.106 18.3573C102.106 17.4159 102.224 16.5529 102.459 15.7684C102.71 14.9839 103.079 14.3014 103.565 13.7208C104.052 13.1403 104.656 12.6853 105.378 12.3558C106.099 12.0263 106.939 11.8615 107.896 11.8615C108.712 11.8615 109.434 12.0027 110.061 12.2851C110.704 12.5519 111.261 12.9677 111.732 13.5325L111.944 12.0498H114.345V22.2642ZM108.178 14.2857C107.582 14.2857 107.064 14.3877 106.625 14.5916C106.201 14.7956 105.848 15.078 105.566 15.4389C105.299 15.7998 105.095 16.2313 104.954 16.7334C104.828 17.2198 104.766 17.7454 104.766 18.3102C104.766 18.8751 104.828 19.4007 104.954 19.8871C105.095 20.3578 105.307 20.7736 105.589 21.1345C105.872 21.4954 106.225 21.7857 106.648 22.0053C107.088 22.2093 107.606 22.3113 108.202 22.3113C108.814 22.3113 109.332 22.1936 109.755 21.9583C110.194 21.7229 110.555 21.4169 110.838 21.0404C111.12 20.6481 111.332 20.2088 111.473 19.7224C111.614 19.236 111.685 18.7339 111.685 18.2161C111.685 17.6826 111.614 17.1727 111.473 16.6863C111.332 16.1999 111.112 15.7841 110.814 15.4389C110.532 15.078 110.171 14.7956 109.732 14.5916C109.292 14.3877 108.775 14.2857 108.178 14.2857Z" stroke="white" stroke-width="0.408184"/>
<path d="M117.028 24.453V12.0498H119.546L119.688 13.815C120.645 12.497 121.947 11.838 123.595 11.838C123.752 11.838 123.901 11.8458 124.042 11.8615C124.199 11.8615 124.34 11.8694 124.465 11.885V14.3798C124.277 14.3798 124.089 14.3877 123.901 14.4033C123.728 14.4033 123.555 14.4033 123.383 14.4033C122.692 14.419 122.112 14.5446 121.641 14.7799C121.186 14.9996 120.81 15.2977 120.511 15.6743C120.229 16.0508 120.025 16.498 119.9 17.0158C119.774 17.5179 119.711 18.0592 119.711 18.6397V24.453H117.028Z" stroke="white" stroke-width="0.408184"/>
<path d="M133.966 22.9232C133.558 23.5038 133.016 23.9352 132.342 24.2177C131.667 24.4844 130.914 24.6178 130.082 24.6178C129.423 24.6178 128.819 24.5393 128.27 24.3824C127.736 24.2255 127.266 23.9902 126.858 23.6763C126.45 23.3469 126.128 22.9467 125.893 22.476C125.657 21.9896 125.54 21.4405 125.54 20.8285C125.54 20.1539 125.673 19.5812 125.94 19.1105C126.207 18.6241 126.567 18.2318 127.023 17.9337C127.493 17.6356 128.042 17.4159 128.67 17.2747C129.298 17.1178 129.957 17.0393 130.647 17.0393H133.824C133.824 16.1293 133.62 15.4232 133.212 14.9211C132.804 14.419 132.091 14.1601 131.071 14.1445C130.474 14.1445 129.957 14.2464 129.517 14.4504C129.094 14.6544 128.811 14.9917 128.67 15.4624H125.916C126.01 14.8035 126.222 14.2464 126.552 13.7914C126.897 13.3364 127.305 12.9598 127.776 12.6617C128.262 12.3636 128.796 12.1518 129.376 12.0263C129.972 11.9007 130.569 11.838 131.165 11.838C131.934 11.838 132.648 11.94 133.307 12.1439C133.966 12.3479 134.538 12.6931 135.025 13.1795C135.574 13.7444 135.942 14.419 136.131 15.2036C136.319 15.9881 136.413 16.8432 136.413 17.7689V24.453H134.083L133.966 22.9232ZM133.824 18.9457H131.235C130.78 18.9457 130.325 18.9849 129.87 19.0634C129.415 19.1261 129.023 19.2909 128.694 19.5576C128.38 19.8087 128.223 20.1774 128.223 20.6638C128.223 21.26 128.435 21.7151 128.858 22.0289C129.298 22.327 129.831 22.476 130.459 22.476C130.945 22.476 131.392 22.4133 131.8 22.2878C132.224 22.1622 132.585 21.9583 132.883 21.6758C133.181 21.3777 133.409 21.009 133.565 20.5697C133.738 20.1146 133.824 19.5733 133.824 18.9457Z" stroke="white" stroke-width="0.408184"/>
<path d="M141.624 12.0498C141.64 12.1753 141.648 12.3008 141.648 12.4264L141.718 13.156C141.734 13.2815 141.742 13.407 141.742 13.5325C142.605 12.3714 143.734 11.7909 145.131 11.7909C146.01 11.7909 146.716 11.9713 147.249 12.3322C147.783 12.6931 148.198 13.1717 148.496 13.7679C148.983 13.1246 149.532 12.6382 150.144 12.3087C150.772 11.9635 151.501 11.7909 152.333 11.7909C153.039 11.7909 153.643 11.9086 154.145 12.1439C154.663 12.3793 155.071 12.7088 155.369 13.1324C155.683 13.5561 155.91 14.0503 156.051 14.6152C156.193 15.1643 156.263 15.7527 156.263 16.3803V24.453H153.58V17.3688C153.58 16.9923 153.557 16.6157 153.51 16.2391C153.462 15.8626 153.361 15.5252 153.204 15.2271C153.062 14.9133 152.851 14.6622 152.568 14.474C152.286 14.27 151.909 14.168 151.438 14.168C150.936 14.168 150.521 14.2935 150.191 14.5446C149.877 14.7799 149.626 15.0702 149.438 15.4154C149.265 15.7606 149.148 16.1528 149.085 16.5922C149.022 17.0158 148.991 17.4394 148.991 17.8631V24.453H146.331V17.3218C146.331 16.9609 146.308 16.6 146.261 16.2391C146.229 15.8626 146.143 15.5252 146.002 15.2271C145.861 14.929 145.649 14.6779 145.366 14.474C145.1 14.27 144.723 14.168 144.237 14.168C143.734 14.168 143.311 14.2935 142.966 14.5446C142.636 14.7956 142.377 15.1094 142.189 15.486C142.001 15.8469 141.875 16.247 141.812 16.6863C141.75 17.1099 141.718 17.5022 141.718 17.8631V24.453H139.059V12.0498H141.624Z" stroke="white" stroke-width="0.408184"/>
<defs>
<radialGradient id="paint0_radial_3868_17257" cx="0" cy="0" r="1" gradientUnits="userSpaceOnUse" gradientTransform="translate(29.6854 32.9839) rotate(-133.475) scale(48.5381 58.3103)">
<stop stop-color="#C9F731"/>
<stop offset="1" stop-color="#35CA94"/>
</radialGradient>
</defs>
</svg>
