<svg width="158" height="34" viewBox="0 0 158 34" fill="none" xmlns="http://www.w3.org/2000/svg">
<path fill-rule="evenodd" clip-rule="evenodd" d="M0.825311 4.50554C0 6.12531 0 8.2457 0 12.4865V20.9105C0 25.1512 0 27.2716 0.825311 28.8914C1.55128 30.3162 2.70966 31.4746 4.13445 32.2005C5.75421 33.0258 7.87461 33.0258 12.1154 33.0258H20.5394C24.7801 33.0258 26.9005 33.0258 28.5203 32.2005C29.9451 31.4746 31.1035 30.3162 31.8294 28.8914C32.6548 27.2716 32.6548 25.1512 32.6548 20.9104V12.4865C32.6548 8.2457 32.6548 6.12531 31.8294 4.50554C31.1035 3.08076 29.9451 1.92237 28.5203 1.19641C26.9005 0.371094 24.7801 0.371094 20.5394 0.371094H12.1154C7.8746 0.371094 5.75421 0.371094 4.13445 1.19641C2.70966 1.92237 1.55128 3.08076 0.825311 4.50554ZM8.36655 8.08392L17.4029 9.11438C19.2774 9.32824 22.1992 11.165 22.1992 14.7224C22.1992 17.2205 20.356 19.368 18.3099 19.935C18.2936 19.9395 18.2874 19.9595 18.2984 19.9724L24.2364 26.9463C24.2699 26.9856 24.2272 27.043 24.18 27.0224L14.1412 22.6469C13.2141 22.2083 11.301 20.562 11.6441 17.7223C12.0052 15.7361 13.1688 14.8346 13.578 14.5175L13.5833 14.5134C13.5937 14.5054 13.5947 14.4907 13.5862 14.4807L8.29545 8.21674C8.24811 8.16069 8.29366 8.07561 8.36655 8.08392Z" fill="#6B6B6B"/>
<path d="M42.2771 24.454V12.0508H44.7954L44.9366 13.8159C45.8937 12.4979 47.196 11.8389 48.8435 11.8389C49.0004 11.8389 49.1495 11.8468 49.2907 11.8625C49.4476 11.8625 49.5888 11.8703 49.7143 11.886V14.3808C49.526 14.3808 49.3378 14.3886 49.1495 14.4043C48.9769 14.4043 48.8043 14.4043 48.6317 14.4043C47.9413 14.42 47.3608 14.5455 46.8901 14.7809C46.435 15.0006 46.0585 15.2987 45.7604 15.6752C45.4779 16.0518 45.274 16.499 45.1484 17.0168C45.0229 17.5189 44.9602 18.0602 44.9602 18.6407V24.454H42.2771Z" fill="#6B6B6B"/>
<path d="M59.2144 22.9242C58.8065 23.5047 58.2651 23.9362 57.5905 24.2186C56.9158 24.4854 56.1626 24.6187 55.3311 24.6187C54.6721 24.6187 54.068 24.5403 53.5188 24.3834C52.9853 24.2265 52.5146 23.9911 52.1067 23.6773C51.6987 23.3478 51.3771 22.9477 51.1417 22.477C50.9064 21.9906 50.7887 21.4415 50.7887 20.8295C50.7887 20.1548 50.9221 19.5821 51.1888 19.1114C51.4555 18.625 51.8164 18.2328 52.2714 17.9347C52.7421 17.6365 53.2913 17.4169 53.9189 17.2757C54.5465 17.1188 55.2055 17.0403 55.8959 17.0403H59.0732C59.0732 16.1303 58.8692 15.4242 58.4613 14.9221C58.0533 14.42 57.3394 14.1611 56.3195 14.1454C55.7233 14.1454 55.2055 14.2474 54.7662 14.4514C54.3426 14.6554 54.0601 14.9927 53.9189 15.4634H51.1653C51.2594 14.8044 51.4712 14.2474 51.8007 13.7924C52.1459 13.3374 52.5539 12.9608 53.0246 12.6627C53.511 12.3646 54.0444 12.1528 54.625 12.0272C55.2212 11.9017 55.8175 11.8389 56.4137 11.8389C57.1825 11.8389 57.8964 11.9409 58.5554 12.1449C59.2144 12.3489 59.7871 12.6941 60.2735 13.1805C60.8227 13.7453 61.1914 14.42 61.3797 15.2045C61.568 15.989 61.6621 16.8442 61.6621 17.7699V24.454H59.3321L59.2144 22.9242ZM59.0732 18.9467H56.4843C56.0293 18.9467 55.5743 18.9859 55.1192 19.0644C54.6642 19.1271 54.272 19.2919 53.9425 19.5586C53.6286 19.8097 53.4717 20.1784 53.4717 20.6648C53.4717 21.261 53.6836 21.716 54.1072 22.0298C54.5465 22.328 55.08 22.477 55.7076 22.477C56.194 22.477 56.6412 22.4143 57.0491 22.2887C57.4728 22.1632 57.8337 21.9592 58.1318 21.6768C58.4299 21.3787 58.6574 21.01 58.8143 20.5706C58.9869 20.1156 59.0732 19.5743 59.0732 18.9467Z" fill="#6B6B6B"/>
<path d="M64.3077 24.454V12.0508H66.826L66.9672 13.8159C67.9243 12.4979 69.2266 11.8389 70.8741 11.8389C71.031 11.8389 71.18 11.8468 71.3212 11.8625C71.4781 11.8625 71.6194 11.8703 71.7449 11.886V14.3808C71.5566 14.3808 71.3683 14.3886 71.18 14.4043C71.0074 14.4043 70.8348 14.4043 70.6622 14.4043C69.9719 14.42 69.3913 14.5455 68.9206 14.7809C68.4656 15.0006 68.089 15.2987 67.7909 15.6752C67.5085 16.0518 67.3045 16.499 67.179 17.0168C67.0535 17.5189 66.9907 18.0602 66.9907 18.6407V24.454H64.3077Z" fill="#6B6B6B"/>
<path d="M74.7727 6.89648C75.2591 6.89648 75.6592 7.04554 75.973 7.34366C76.3025 7.64178 76.4673 8.04973 76.4673 8.56751C76.4673 9.0696 76.3025 9.4697 75.973 9.76782C75.6592 10.0659 75.2591 10.215 74.7727 10.215C74.2549 10.215 73.8391 10.0659 73.5253 9.76782C73.2115 9.4697 73.0546 9.0696 73.0546 8.56751C73.0546 8.04973 73.2115 7.64178 73.5253 7.34366C73.8391 7.04554 74.2549 6.89648 74.7727 6.89648ZM73.4076 24.454V12.0508H76.0907V24.454H73.4076Z" fill="#6B6B6B"/>
<path d="M82.679 12.0508H86.3976V14.3808H82.679V19.841C82.679 20.1548 82.6947 20.453 82.7261 20.7354C82.7731 21.0178 82.8516 21.2767 82.9614 21.5121C83.0869 21.7317 83.2595 21.9122 83.4792 22.0534C83.6989 22.1946 83.997 22.2652 84.3735 22.2652C85.0325 22.2652 85.5974 22.0691 86.0681 21.6768L86.9625 23.6773C86.5545 23.9911 86.0838 24.2265 85.5503 24.3834C85.0168 24.5246 84.4912 24.5952 83.9734 24.5952C82.6241 24.5952 81.6277 24.2579 80.9844 23.5832C80.3411 22.8928 80.0195 21.818 80.0195 20.3588V14.3808H78.066V12.0508H80.0195V8.52044H82.679V12.0508Z" fill="#6B6B6B"/>
<path d="M99.886 12.0508V22.477C99.886 23.1831 99.8704 23.9048 99.839 24.6423C99.8233 25.3797 99.6978 26.1015 99.4624 26.8076C99.1015 27.9373 98.4504 28.8238 97.5089 29.4671C96.5675 30.1104 95.3045 30.432 93.7197 30.432C92.7783 30.432 91.8683 30.3065 90.9896 30.0555C90.1266 29.8044 89.3107 29.3886 88.5419 28.8081C88.7145 28.4472 88.8793 28.0706 89.0362 27.6784C89.2087 27.3018 89.3813 26.9252 89.5539 26.5487C90.0717 26.9566 90.6601 27.3018 91.3191 27.5842C91.9938 27.8667 92.7626 28.0079 93.6256 28.0079C94.4572 28.0079 95.1083 27.8667 95.579 27.5842C96.0497 27.3018 96.4028 26.9174 96.6381 26.431C96.8892 25.9603 97.0461 25.4111 97.1088 24.7835C97.1873 24.1716 97.2265 23.544 97.2265 22.9007C96.7872 23.5283 96.238 23.9754 95.579 24.2422C94.9357 24.5089 94.2061 24.6423 93.3902 24.6423C92.4645 24.6423 91.6721 24.5011 91.0131 24.2186C90.3541 23.9362 89.8364 23.544 89.4598 23.0419C89.0832 22.5398 88.8165 21.9435 88.6596 21.2532C88.5027 20.5628 88.4242 19.8097 88.4242 18.9938V12.0508H91.0837V18.476C91.0837 18.9781 91.1151 19.4645 91.1779 19.9352C91.2563 20.3902 91.3976 20.7981 91.6015 21.159C91.8212 21.5042 92.1193 21.7866 92.4959 22.0063C92.8724 22.2103 93.3667 22.3123 93.9786 22.3123C94.6062 22.3123 95.124 22.1867 95.532 21.9357C95.9556 21.6847 96.2851 21.363 96.5205 20.9707C96.7715 20.5628 96.9441 20.0999 97.0382 19.5821C97.1481 19.0644 97.203 18.5309 97.203 17.9817V12.0508H99.886Z" fill="#6B6B6B"/>
<path d="M114.345 22.2652C114.313 22.9556 114.298 23.6459 114.298 24.3363C114.298 25.0267 114.203 25.7249 114.015 26.431C113.639 27.7647 112.956 28.761 111.967 29.42C110.979 30.079 109.747 30.4085 108.272 30.4085C107.582 30.4085 106.923 30.33 106.295 30.1731C105.684 30.0162 105.126 29.773 104.624 29.4435C104.138 29.114 103.722 28.6904 103.377 28.1726C103.032 27.6705 102.804 27.0586 102.694 26.3368H105.495C105.621 26.9017 105.95 27.3253 106.484 27.6078C107.033 27.8902 107.637 28.0314 108.296 28.0314C109.049 28.0314 109.645 27.8902 110.085 27.6078C110.54 27.341 110.885 26.9645 111.12 26.4781C111.356 26.0073 111.505 25.4582 111.567 24.8306C111.63 24.2186 111.662 23.5675 111.662 22.8771C111.269 23.489 110.759 23.9362 110.132 24.2186C109.52 24.5011 108.751 24.6501 107.825 24.6658C106.758 24.6501 105.872 24.4775 105.166 24.148C104.475 23.8028 103.903 23.34 103.448 22.7594C102.993 22.1789 102.655 21.5121 102.436 20.7589C102.216 20.0058 102.106 19.2056 102.106 18.3583C102.106 17.4169 102.224 16.5539 102.459 15.7694C102.71 14.9849 103.079 14.3023 103.565 13.7218C104.052 13.1412 104.656 12.6862 105.378 12.3567C106.099 12.0272 106.939 11.8625 107.896 11.8625C108.712 11.8625 109.434 12.0037 110.061 12.2861C110.704 12.5529 111.261 12.9687 111.732 13.5335L111.944 12.0508H114.345V22.2652ZM108.178 14.2866C107.582 14.2866 107.064 14.3886 106.625 14.5926C106.201 14.7966 105.848 15.079 105.566 15.4399C105.299 15.8008 105.095 16.2322 104.954 16.7343C104.828 17.2207 104.766 17.7464 104.766 18.3112C104.766 18.8761 104.828 19.4017 104.954 19.8881C105.095 20.3588 105.307 20.7746 105.589 21.1355C105.872 21.4964 106.225 21.7866 106.648 22.0063C107.088 22.2103 107.606 22.3123 108.202 22.3123C108.814 22.3123 109.332 22.1946 109.755 21.9592C110.194 21.7239 110.555 21.4179 110.838 21.0413C111.12 20.6491 111.332 20.2098 111.473 19.7234C111.614 19.237 111.685 18.7349 111.685 18.2171C111.685 17.6836 111.614 17.1737 111.473 16.6873C111.332 16.2009 111.112 15.7851 110.814 15.4399C110.532 15.079 110.171 14.7966 109.732 14.5926C109.292 14.3886 108.775 14.2866 108.178 14.2866Z" fill="#6B6B6B"/>
<path d="M117.028 24.454V12.0508H119.546L119.688 13.8159C120.645 12.4979 121.947 11.8389 123.595 11.8389C123.752 11.8389 123.901 11.8468 124.042 11.8625C124.199 11.8625 124.34 11.8703 124.465 11.886V14.3808C124.277 14.3808 124.089 14.3886 123.901 14.4043C123.728 14.4043 123.555 14.4043 123.383 14.4043C122.692 14.42 122.112 14.5455 121.641 14.7809C121.186 15.0006 120.81 15.2987 120.511 15.6752C120.229 16.0518 120.025 16.499 119.9 17.0168C119.774 17.5189 119.711 18.0602 119.711 18.6407V24.454H117.028Z" fill="#6B6B6B"/>
<path d="M133.966 22.9242C133.558 23.5047 133.016 23.9362 132.342 24.2186C131.667 24.4854 130.914 24.6187 130.082 24.6187C129.423 24.6187 128.819 24.5403 128.27 24.3834C127.736 24.2265 127.266 23.9911 126.858 23.6773C126.45 23.3478 126.128 22.9477 125.893 22.477C125.657 21.9906 125.54 21.4415 125.54 20.8295C125.54 20.1548 125.673 19.5821 125.94 19.1114C126.207 18.625 126.567 18.2328 127.023 17.9347C127.493 17.6365 128.042 17.4169 128.67 17.2757C129.298 17.1188 129.957 17.0403 130.647 17.0403H133.824C133.824 16.1303 133.62 15.4242 133.212 14.9221C132.804 14.42 132.091 14.1611 131.071 14.1454C130.474 14.1454 129.957 14.2474 129.517 14.4514C129.094 14.6554 128.811 14.9927 128.67 15.4634H125.916C126.01 14.8044 126.222 14.2474 126.552 13.7924C126.897 13.3374 127.305 12.9608 127.776 12.6627C128.262 12.3646 128.796 12.1528 129.376 12.0272C129.972 11.9017 130.569 11.8389 131.165 11.8389C131.934 11.8389 132.648 11.9409 133.307 12.1449C133.966 12.3489 134.538 12.6941 135.025 13.1805C135.574 13.7453 135.942 14.42 136.131 15.2045C136.319 15.989 136.413 16.8442 136.413 17.7699V24.454H134.083L133.966 22.9242ZM133.824 18.9467H131.235C130.78 18.9467 130.325 18.9859 129.87 19.0644C129.415 19.1271 129.023 19.2919 128.694 19.5586C128.38 19.8097 128.223 20.1784 128.223 20.6648C128.223 21.261 128.435 21.716 128.858 22.0298C129.298 22.328 129.831 22.477 130.459 22.477C130.945 22.477 131.392 22.4143 131.8 22.2887C132.224 22.1632 132.585 21.9592 132.883 21.6768C133.181 21.3787 133.409 21.01 133.565 20.5706C133.738 20.1156 133.824 19.5743 133.824 18.9467Z" fill="#6B6B6B"/>
<path d="M141.624 12.0508C141.64 12.1763 141.648 12.3018 141.648 12.4273L141.718 13.1569C141.734 13.2825 141.742 13.408 141.742 13.5335C142.605 12.3724 143.734 11.7919 145.131 11.7919C146.01 11.7919 146.716 11.9723 147.249 12.3332C147.783 12.6941 148.198 13.1726 148.496 13.7689C148.983 13.1256 149.532 12.6392 150.144 12.3097C150.772 11.9645 151.501 11.7919 152.333 11.7919C153.039 11.7919 153.643 11.9096 154.145 12.1449C154.663 12.3803 155.071 12.7098 155.369 13.1334C155.683 13.557 155.91 14.0513 156.051 14.6161C156.193 15.1653 156.263 15.7537 156.263 16.3813V24.454H153.58V17.3698C153.58 16.9932 153.557 16.6167 153.51 16.2401C153.462 15.8635 153.361 15.5262 153.204 15.2281C153.062 14.9143 152.851 14.6632 152.568 14.4749C152.286 14.271 151.909 14.169 151.438 14.169C150.936 14.169 150.521 14.2945 150.191 14.5455C149.877 14.7809 149.626 15.0712 149.438 15.4164C149.265 15.7615 149.148 16.1538 149.085 16.5931C149.022 17.0168 148.991 17.4404 148.991 17.864V24.454H146.331V17.3227C146.331 16.9619 146.308 16.601 146.261 16.2401C146.229 15.8635 146.143 15.5262 146.002 15.2281C145.861 14.93 145.649 14.6789 145.366 14.4749C145.1 14.271 144.723 14.169 144.237 14.169C143.734 14.169 143.311 14.2945 142.966 14.5455C142.636 14.7966 142.377 15.1104 142.189 15.487C142.001 15.8478 141.875 16.2479 141.812 16.6873C141.75 17.1109 141.718 17.5032 141.718 17.864V24.454H139.059V12.0508H141.624Z" fill="#6B6B6B"/>
<path d="M42.2771 24.454V12.0508H44.7954L44.9366 13.8159C45.8937 12.4979 47.196 11.8389 48.8435 11.8389C49.0004 11.8389 49.1495 11.8468 49.2907 11.8625C49.4476 11.8625 49.5888 11.8703 49.7143 11.886V14.3808C49.526 14.3808 49.3378 14.3886 49.1495 14.4043C48.9769 14.4043 48.8043 14.4043 48.6317 14.4043C47.9413 14.42 47.3608 14.5455 46.8901 14.7809C46.435 15.0006 46.0585 15.2987 45.7604 15.6752C45.4779 16.0518 45.274 16.499 45.1484 17.0168C45.0229 17.5189 44.9602 18.0602 44.9602 18.6407V24.454H42.2771Z" stroke="#6B6B6B" stroke-width="0.408184"/>
<path d="M59.2144 22.9242C58.8065 23.5047 58.2651 23.9362 57.5905 24.2186C56.9158 24.4854 56.1626 24.6187 55.3311 24.6187C54.6721 24.6187 54.068 24.5403 53.5188 24.3834C52.9853 24.2265 52.5146 23.9911 52.1067 23.6773C51.6987 23.3478 51.3771 22.9477 51.1417 22.477C50.9064 21.9906 50.7887 21.4415 50.7887 20.8295C50.7887 20.1548 50.9221 19.5821 51.1888 19.1114C51.4555 18.625 51.8164 18.2328 52.2714 17.9347C52.7421 17.6365 53.2913 17.4169 53.9189 17.2757C54.5465 17.1188 55.2055 17.0403 55.8959 17.0403H59.0732C59.0732 16.1303 58.8692 15.4242 58.4613 14.9221C58.0533 14.42 57.3394 14.1611 56.3195 14.1454C55.7233 14.1454 55.2055 14.2474 54.7662 14.4514C54.3426 14.6554 54.0601 14.9927 53.9189 15.4634H51.1653C51.2594 14.8044 51.4712 14.2474 51.8007 13.7924C52.1459 13.3374 52.5539 12.9608 53.0246 12.6627C53.511 12.3646 54.0444 12.1528 54.625 12.0272C55.2212 11.9017 55.8175 11.8389 56.4137 11.8389C57.1825 11.8389 57.8964 11.9409 58.5554 12.1449C59.2144 12.3489 59.7871 12.6941 60.2735 13.1805C60.8227 13.7453 61.1914 14.42 61.3797 15.2045C61.568 15.989 61.6621 16.8442 61.6621 17.7699V24.454H59.3321L59.2144 22.9242ZM59.0732 18.9467H56.4843C56.0293 18.9467 55.5743 18.9859 55.1192 19.0644C54.6642 19.1271 54.272 19.2919 53.9425 19.5586C53.6286 19.8097 53.4717 20.1784 53.4717 20.6648C53.4717 21.261 53.6836 21.716 54.1072 22.0298C54.5465 22.328 55.08 22.477 55.7076 22.477C56.194 22.477 56.6412 22.4143 57.0491 22.2887C57.4728 22.1632 57.8337 21.9592 58.1318 21.6768C58.4299 21.3787 58.6574 21.01 58.8143 20.5706C58.9869 20.1156 59.0732 19.5743 59.0732 18.9467Z" stroke="#6B6B6B" stroke-width="0.408184"/>
<path d="M64.3077 24.454V12.0508H66.826L66.9672 13.8159C67.9243 12.4979 69.2266 11.8389 70.8741 11.8389C71.031 11.8389 71.18 11.8468 71.3212 11.8625C71.4781 11.8625 71.6194 11.8703 71.7449 11.886V14.3808C71.5566 14.3808 71.3683 14.3886 71.18 14.4043C71.0074 14.4043 70.8348 14.4043 70.6622 14.4043C69.9719 14.42 69.3913 14.5455 68.9206 14.7809C68.4656 15.0006 68.089 15.2987 67.7909 15.6752C67.5085 16.0518 67.3045 16.499 67.179 17.0168C67.0535 17.5189 66.9907 18.0602 66.9907 18.6407V24.454H64.3077Z" stroke="#6B6B6B" stroke-width="0.408184"/>
<path d="M74.7727 6.89648C75.2591 6.89648 75.6592 7.04554 75.973 7.34366C76.3025 7.64178 76.4673 8.04973 76.4673 8.56751C76.4673 9.0696 76.3025 9.4697 75.973 9.76782C75.6592 10.0659 75.2591 10.215 74.7727 10.215C74.2549 10.215 73.8391 10.0659 73.5253 9.76782C73.2115 9.4697 73.0546 9.0696 73.0546 8.56751C73.0546 8.04973 73.2115 7.64178 73.5253 7.34366C73.8391 7.04554 74.2549 6.89648 74.7727 6.89648ZM73.4076 24.454V12.0508H76.0907V24.454H73.4076Z" stroke="#6B6B6B" stroke-width="0.408184"/>
<path d="M82.679 12.0508H86.3976V14.3808H82.679V19.841C82.679 20.1548 82.6947 20.453 82.7261 20.7354C82.7731 21.0178 82.8516 21.2767 82.9614 21.5121C83.0869 21.7317 83.2595 21.9122 83.4792 22.0534C83.6989 22.1946 83.997 22.2652 84.3735 22.2652C85.0325 22.2652 85.5974 22.0691 86.0681 21.6768L86.9625 23.6773C86.5545 23.9911 86.0838 24.2265 85.5503 24.3834C85.0168 24.5246 84.4912 24.5952 83.9734 24.5952C82.6241 24.5952 81.6277 24.2579 80.9844 23.5832C80.3411 22.8928 80.0195 21.818 80.0195 20.3588V14.3808H78.066V12.0508H80.0195V8.52044H82.679V12.0508Z" stroke="#6B6B6B" stroke-width="0.408184"/>
<path d="M99.886 12.0508V22.477C99.886 23.1831 99.8704 23.9048 99.839 24.6423C99.8233 25.3797 99.6978 26.1015 99.4624 26.8076C99.1015 27.9373 98.4504 28.8238 97.5089 29.4671C96.5675 30.1104 95.3045 30.432 93.7197 30.432C92.7783 30.432 91.8683 30.3065 90.9896 30.0555C90.1266 29.8044 89.3107 29.3886 88.5419 28.8081C88.7145 28.4472 88.8793 28.0706 89.0362 27.6784C89.2087 27.3018 89.3813 26.9252 89.5539 26.5487C90.0717 26.9566 90.6601 27.3018 91.3191 27.5842C91.9938 27.8667 92.7626 28.0079 93.6256 28.0079C94.4572 28.0079 95.1083 27.8667 95.579 27.5842C96.0497 27.3018 96.4028 26.9174 96.6381 26.431C96.8892 25.9603 97.0461 25.4111 97.1088 24.7835C97.1873 24.1716 97.2265 23.544 97.2265 22.9007C96.7872 23.5283 96.238 23.9754 95.579 24.2422C94.9357 24.5089 94.2061 24.6423 93.3902 24.6423C92.4645 24.6423 91.6721 24.5011 91.0131 24.2186C90.3541 23.9362 89.8364 23.544 89.4598 23.0419C89.0832 22.5398 88.8165 21.9435 88.6596 21.2532C88.5027 20.5628 88.4242 19.8097 88.4242 18.9938V12.0508H91.0837V18.476C91.0837 18.9781 91.1151 19.4645 91.1779 19.9352C91.2563 20.3902 91.3976 20.7981 91.6015 21.159C91.8212 21.5042 92.1193 21.7866 92.4959 22.0063C92.8724 22.2103 93.3667 22.3123 93.9786 22.3123C94.6062 22.3123 95.124 22.1867 95.532 21.9357C95.9556 21.6847 96.2851 21.363 96.5205 20.9707C96.7715 20.5628 96.9441 20.0999 97.0382 19.5821C97.1481 19.0644 97.203 18.5309 97.203 17.9817V12.0508H99.886Z" stroke="#6B6B6B" stroke-width="0.408184"/>
<path d="M114.345 22.2652C114.313 22.9556 114.298 23.6459 114.298 24.3363C114.298 25.0267 114.203 25.7249 114.015 26.431C113.639 27.7647 112.956 28.761 111.967 29.42C110.979 30.079 109.747 30.4085 108.272 30.4085C107.582 30.4085 106.923 30.33 106.295 30.1731C105.684 30.0162 105.126 29.773 104.624 29.4435C104.138 29.114 103.722 28.6904 103.377 28.1726C103.032 27.6705 102.804 27.0586 102.694 26.3368H105.495C105.621 26.9017 105.95 27.3253 106.484 27.6078C107.033 27.8902 107.637 28.0314 108.296 28.0314C109.049 28.0314 109.645 27.8902 110.085 27.6078C110.54 27.341 110.885 26.9645 111.12 26.4781C111.356 26.0073 111.505 25.4582 111.567 24.8306C111.63 24.2186 111.662 23.5675 111.662 22.8771C111.269 23.489 110.759 23.9362 110.132 24.2186C109.52 24.5011 108.751 24.6501 107.825 24.6658C106.758 24.6501 105.872 24.4775 105.166 24.148C104.475 23.8028 103.903 23.34 103.448 22.7594C102.993 22.1789 102.655 21.5121 102.436 20.7589C102.216 20.0058 102.106 19.2056 102.106 18.3583C102.106 17.4169 102.224 16.5539 102.459 15.7694C102.71 14.9849 103.079 14.3023 103.565 13.7218C104.052 13.1412 104.656 12.6862 105.378 12.3567C106.099 12.0272 106.939 11.8625 107.896 11.8625C108.712 11.8625 109.434 12.0037 110.061 12.2861C110.704 12.5529 111.261 12.9687 111.732 13.5335L111.944 12.0508H114.345V22.2652ZM108.178 14.2866C107.582 14.2866 107.064 14.3886 106.625 14.5926C106.201 14.7966 105.848 15.079 105.566 15.4399C105.299 15.8008 105.095 16.2322 104.954 16.7343C104.828 17.2207 104.766 17.7464 104.766 18.3112C104.766 18.8761 104.828 19.4017 104.954 19.8881C105.095 20.3588 105.307 20.7746 105.589 21.1355C105.872 21.4964 106.225 21.7866 106.648 22.0063C107.088 22.2103 107.606 22.3123 108.202 22.3123C108.814 22.3123 109.332 22.1946 109.755 21.9592C110.194 21.7239 110.555 21.4179 110.838 21.0413C111.12 20.6491 111.332 20.2098 111.473 19.7234C111.614 19.237 111.685 18.7349 111.685 18.2171C111.685 17.6836 111.614 17.1737 111.473 16.6873C111.332 16.2009 111.112 15.7851 110.814 15.4399C110.532 15.079 110.171 14.7966 109.732 14.5926C109.292 14.3886 108.775 14.2866 108.178 14.2866Z" stroke="#6B6B6B" stroke-width="0.408184"/>
<path d="M117.028 24.454V12.0508H119.546L119.688 13.8159C120.645 12.4979 121.947 11.8389 123.595 11.8389C123.752 11.8389 123.901 11.8468 124.042 11.8625C124.199 11.8625 124.34 11.8703 124.465 11.886V14.3808C124.277 14.3808 124.089 14.3886 123.901 14.4043C123.728 14.4043 123.555 14.4043 123.383 14.4043C122.692 14.42 122.112 14.5455 121.641 14.7809C121.186 15.0006 120.81 15.2987 120.511 15.6752C120.229 16.0518 120.025 16.499 119.9 17.0168C119.774 17.5189 119.711 18.0602 119.711 18.6407V24.454H117.028Z" stroke="#6B6B6B" stroke-width="0.408184"/>
<path d="M133.966 22.9242C133.558 23.5047 133.016 23.9362 132.342 24.2186C131.667 24.4854 130.914 24.6187 130.082 24.6187C129.423 24.6187 128.819 24.5403 128.27 24.3834C127.736 24.2265 127.266 23.9911 126.858 23.6773C126.45 23.3478 126.128 22.9477 125.893 22.477C125.657 21.9906 125.54 21.4415 125.54 20.8295C125.54 20.1548 125.673 19.5821 125.94 19.1114C126.207 18.625 126.567 18.2328 127.023 17.9347C127.493 17.6365 128.042 17.4169 128.67 17.2757C129.298 17.1188 129.957 17.0403 130.647 17.0403H133.824C133.824 16.1303 133.62 15.4242 133.212 14.9221C132.804 14.42 132.091 14.1611 131.071 14.1454C130.474 14.1454 129.957 14.2474 129.517 14.4514C129.094 14.6554 128.811 14.9927 128.67 15.4634H125.916C126.01 14.8044 126.222 14.2474 126.552 13.7924C126.897 13.3374 127.305 12.9608 127.776 12.6627C128.262 12.3646 128.796 12.1528 129.376 12.0272C129.972 11.9017 130.569 11.8389 131.165 11.8389C131.934 11.8389 132.648 11.9409 133.307 12.1449C133.966 12.3489 134.538 12.6941 135.025 13.1805C135.574 13.7453 135.942 14.42 136.131 15.2045C136.319 15.989 136.413 16.8442 136.413 17.7699V24.454H134.083L133.966 22.9242ZM133.824 18.9467H131.235C130.78 18.9467 130.325 18.9859 129.87 19.0644C129.415 19.1271 129.023 19.2919 128.694 19.5586C128.38 19.8097 128.223 20.1784 128.223 20.6648C128.223 21.261 128.435 21.716 128.858 22.0298C129.298 22.328 129.831 22.477 130.459 22.477C130.945 22.477 131.392 22.4143 131.8 22.2887C132.224 22.1632 132.585 21.9592 132.883 21.6768C133.181 21.3787 133.409 21.01 133.565 20.5706C133.738 20.1156 133.824 19.5743 133.824 18.9467Z" stroke="#6B6B6B" stroke-width="0.408184"/>
<path d="M141.624 12.0508C141.64 12.1763 141.648 12.3018 141.648 12.4273L141.718 13.1569C141.734 13.2825 141.742 13.408 141.742 13.5335C142.605 12.3724 143.734 11.7919 145.131 11.7919C146.01 11.7919 146.716 11.9723 147.249 12.3332C147.783 12.6941 148.198 13.1726 148.496 13.7689C148.983 13.1256 149.532 12.6392 150.144 12.3097C150.772 11.9645 151.501 11.7919 152.333 11.7919C153.039 11.7919 153.643 11.9096 154.145 12.1449C154.663 12.3803 155.071 12.7098 155.369 13.1334C155.683 13.557 155.91 14.0513 156.051 14.6161C156.193 15.1653 156.263 15.7537 156.263 16.3813V24.454H153.58V17.3698C153.58 16.9932 153.557 16.6167 153.51 16.2401C153.462 15.8635 153.361 15.5262 153.204 15.2281C153.062 14.9143 152.851 14.6632 152.568 14.4749C152.286 14.271 151.909 14.169 151.438 14.169C150.936 14.169 150.521 14.2945 150.191 14.5455C149.877 14.7809 149.626 15.0712 149.438 15.4164C149.265 15.7615 149.148 16.1538 149.085 16.5931C149.022 17.0168 148.991 17.4404 148.991 17.864V24.454H146.331V17.3227C146.331 16.9619 146.308 16.601 146.261 16.2401C146.229 15.8635 146.143 15.5262 146.002 15.2281C145.861 14.93 145.649 14.6789 145.366 14.4749C145.1 14.271 144.723 14.169 144.237 14.169C143.734 14.169 143.311 14.2945 142.966 14.5455C142.636 14.7966 142.377 15.1104 142.189 15.487C142.001 15.8478 141.875 16.2479 141.812 16.6873C141.75 17.1109 141.718 17.5032 141.718 17.864V24.454H139.059V12.0508H141.624Z" stroke="#6B6B6B" stroke-width="0.408184"/>
</svg>
