<svg width="40" height="40" viewBox="0 0 40 40" fill="none" xmlns="http://www.w3.org/2000/svg">
<path d="M39.7124 19.9942C39.7124 23.8916 38.5567 27.7015 36.3914 30.9421C34.2261 34.1827 31.1484 36.7085 27.5477 38.1999C23.9469 39.6914 19.9847 40.0817 16.1622 39.3213C12.3396 38.561 8.82839 36.6842 6.07249 33.9283C3.31658 31.1724 1.43978 27.6611 0.679431 23.8386C-0.0809215 20.016 0.309321 16.0538 1.80081 12.4531C3.29229 8.85231 5.81803 5.77468 9.05864 3.60938C12.2992 1.44408 16.1092 0.288356 20.0066 0.288356C22.5982 0.274744 25.1668 0.775157 27.5637 1.76065C29.9607 2.74613 32.1385 4.19713 33.971 6.0297C35.8036 7.86227 37.2546 10.04 38.2401 12.437C39.2256 14.834 39.726 17.4025 39.7124 19.9942Z" fill="white"/>
<path d="M20 0.277546C23.8974 0.277546 27.7074 1.43327 30.948 3.59857C34.1886 5.76388 36.7143 8.8415 38.2058 12.4423C39.6973 16.043 40.0875 20.0052 39.3272 23.8278C38.5668 27.6503 36.69 31.1616 33.9341 33.9175C31.1782 36.6734 27.667 38.5502 23.8444 39.3105C20.0219 40.0709 16.0597 39.6806 12.4589 38.1891C8.85815 36.6976 5.78052 34.1719 3.61522 30.9313C1.44992 27.6907 0.294199 23.8808 0.294199 19.9833C0.294199 14.757 2.37034 9.7448 6.0659 6.04924C9.76145 2.35369 14.7737 0.277546 20 0.277546ZM20 0C14.6977 0.00660998 9.61446 2.11587 5.86516 5.86517C2.11587 9.61446 0.00660998 14.6977 0 20C0 25.3043 2.10714 30.3914 5.85786 34.1421C9.60859 37.8929 14.6957 40 20 40C25.3043 40 30.3914 37.8929 34.1421 34.1421C37.8929 30.3914 40 25.3043 40 20C39.9941 14.6975 37.8851 9.61381 34.1356 5.86436C30.3862 2.1149 25.3025 0.00587701 20 0Z" fill="#282929"/>
<path d="M27.1823 17.1825C27.1823 17.1825 27.4931 8.57856 27.1823 7.94575C26.8714 7.31294 11.5925 4.32099 11.7479 4.70123C11.9034 5.08147 12.439 6.26382 12.439 6.26382L10.4102 6.81891L12.464 7.88747L10.4185 8.82557L13.1162 10.1134L13.3105 17.46L27.1823 17.1825Z" fill="white"/>
<path d="M13.3121 17.59C13.2745 17.5893 13.2386 17.5743 13.2118 17.548C13.1849 17.5216 13.1692 17.486 13.1678 17.4485L12.9763 10.1906L10.359 8.9389C10.334 8.92777 10.313 8.90937 10.2986 8.8861C10.2843 8.86282 10.2773 8.83577 10.2785 8.80845C10.2788 8.78145 10.2868 8.75507 10.3015 8.73245C10.3163 8.70983 10.3372 8.6919 10.3618 8.68078L12.1409 7.86479L10.3451 6.93224C10.3201 6.91794 10.2997 6.89672 10.2864 6.87112C10.2731 6.84552 10.2675 6.81663 10.2702 6.78791C10.2732 6.75924 10.285 6.73218 10.3038 6.71035C10.3227 6.68853 10.3477 6.67298 10.3757 6.66579L12.238 6.16343C12.0881 5.83315 11.7384 5.0699 11.6163 4.76182C11.6045 4.72293 11.6067 4.68115 11.6224 4.64366C11.6381 4.60618 11.6664 4.57534 11.7023 4.55644C12.1686 4.3455 19.5069 5.84703 19.5819 5.86091C22.9957 6.56032 27.1089 7.48178 27.3116 7.887C27.6307 8.52535 27.3587 16.3078 27.3254 17.1931C27.3241 17.2295 27.309 17.264 27.2833 17.2897C27.2575 17.3155 27.223 17.3305 27.1867 17.3319L13.3093 17.5872L13.3121 17.59ZM10.7587 8.814L13.1789 9.97137C13.2028 9.98242 13.223 10 13.2373 10.0221C13.2515 10.0443 13.2592 10.07 13.2594 10.0963L13.4509 17.2986L27.0507 17.0488C27.1728 13.5989 27.2755 8.44487 27.0507 8.01467C26.8647 7.82316 24.414 7.14317 19.4847 6.13568C15.5991 5.3419 12.6432 4.84509 11.9438 4.81456C12.1464 5.28916 12.56 6.18841 12.5627 6.20229C12.5716 6.22124 12.5762 6.24188 12.5762 6.26279C12.5763 6.28369 12.5718 6.30436 12.5631 6.32337C12.5544 6.34237 12.5417 6.35926 12.5258 6.37286C12.5099 6.38645 12.4913 6.39644 12.4711 6.40212L10.8059 6.85175L12.5322 7.751C12.5558 7.76362 12.5755 7.78244 12.5892 7.80542C12.6029 7.82841 12.6101 7.85469 12.6099 7.88145C12.6085 7.90852 12.5997 7.93469 12.5845 7.95717C12.5694 7.97966 12.5484 7.99761 12.5239 8.00912L10.7587 8.814Z" fill="#282929"/>
<path d="M35.4202 32.2704C33.8035 34.3035 31.8004 35.9964 29.5263 37.2516C27.2522 38.5068 24.7521 39.2994 22.1702 39.5837C20.7285 39.7428 19.2737 39.7428 17.8321 39.5837C15.2505 39.2993 12.7507 38.5069 10.4767 37.2523C8.20261 35.9976 6.19928 34.3054 4.58203 32.2731C7.32322 30.3307 10.3532 28.8321 13.5607 27.8324C17.7555 26.5298 22.2467 26.5298 26.4416 27.8324C29.6482 28.833 32.6779 30.3305 35.4202 32.2704Z" fill="url(#paint0_linear_2701_8736)"/>
<path d="M24.8477 17.5108C25.2223 15.1683 29.1135 14.591 28.9193 17.3526C28.8916 18.3119 28.5248 19.2304 27.884 19.9449C27.2179 20.6221 26.1438 20.9441 25.2751 20.5555" fill="white"/>
<path d="M26.0841 20.8678C25.785 20.87 25.4889 20.8085 25.2154 20.6874C25.1981 20.6799 25.1826 20.669 25.1696 20.6554C25.1566 20.6418 25.1464 20.6258 25.1397 20.6082C25.133 20.5906 25.1298 20.5719 25.1304 20.5531C25.1311 20.5343 25.1354 20.5158 25.1432 20.4987C25.159 20.4644 25.1876 20.4376 25.2229 20.4241C25.2582 20.4106 25.2973 20.4115 25.332 20.4265C26.1008 20.7707 27.1055 20.532 27.7799 19.8465C28.5099 19.1026 28.7264 18.0757 28.7763 17.3485C28.8429 16.3938 28.3766 15.7665 27.5301 15.6833C26.4893 15.5667 25.1876 16.3022 24.9878 17.5539C24.9817 17.5913 24.961 17.6248 24.9304 17.6472C24.8998 17.6695 24.8616 17.6789 24.8241 17.6733C24.7866 17.6671 24.7531 17.6465 24.7308 17.6159C24.7085 17.5852 24.6991 17.547 24.7047 17.5095C24.9323 16.0996 26.3922 15.2642 27.5634 15.4002C28.3489 15.489 29.1538 16.0579 29.0622 17.3818C29.0067 18.1617 28.7846 19.2608 27.9853 20.0657C27.4826 20.574 26.799 20.8624 26.0841 20.8678Z" fill="#282929"/>
<path d="M15.1527 17.5108C14.778 15.1683 10.8896 14.591 11.0811 17.3526C11.1109 18.312 11.4785 19.23 12.1191 19.9449C12.7852 20.6221 13.8593 20.9441 14.728 20.5555" fill="white"/>
<path d="M13.9164 20.8739C13.5607 20.8673 13.2098 20.7904 12.884 20.6475C12.5581 20.5045 12.2638 20.2985 12.018 20.0413C11.2242 19.2364 10.9939 18.1373 10.9411 17.3574C10.8468 16.0335 11.6544 15.4646 12.4399 15.3757C13.6084 15.2397 15.071 16.0752 15.2958 17.4851C15.3013 17.5043 15.3027 17.5245 15.2998 17.5443C15.2969 17.5641 15.2899 17.5831 15.2791 17.6C15.2684 17.6169 15.2542 17.6313 15.2375 17.6423C15.2207 17.6533 15.2019 17.6606 15.1821 17.6637C15.1623 17.6669 15.1421 17.6658 15.1228 17.6606C15.1035 17.6554 15.0855 17.6461 15.07 17.6335C15.0545 17.6208 15.0419 17.6049 15.033 17.587C15.0241 17.5691 15.0191 17.5495 15.0183 17.5295C14.8157 16.2778 13.514 15.5395 12.4732 15.6588C11.6267 15.756 11.1632 16.386 11.2298 17.3241C11.2797 18.0568 11.4935 19.0838 12.2262 19.822C12.8978 20.5076 13.9053 20.7463 14.6714 20.4021C14.6887 20.3942 14.7074 20.3898 14.7264 20.3892C14.7454 20.3886 14.7643 20.3917 14.7821 20.3984C14.7999 20.4051 14.8162 20.4152 14.8301 20.4283C14.8439 20.4413 14.8551 20.4569 14.8629 20.4743C14.8779 20.5089 14.8788 20.5481 14.8653 20.5834C14.8518 20.6187 14.825 20.6473 14.7907 20.663C14.5177 20.7949 14.2196 20.8669 13.9164 20.8739Z" fill="#282929"/>
<path d="M15.6719 29.2233C15.6719 29.2233 16.7238 31.5159 19.7962 31.5159C20.652 31.5392 21.4992 31.3403 22.2551 30.9385C23.0111 30.5367 23.6499 29.9457 24.1093 29.2233L23.6985 20.2197H16.0826L15.6719 29.2233Z" fill="white"/>
<path d="M19.796 31.6601C16.6681 31.6601 15.5523 29.3065 15.5412 29.2843C15.5327 29.2631 15.528 29.2406 15.5273 29.2177L15.927 20.2141C15.9291 20.1773 15.9453 20.1427 15.9721 20.1174C15.999 20.0921 16.0345 20.0781 16.0713 20.0781H23.6983C23.7352 20.0781 23.7707 20.0921 23.7975 20.1174C23.8244 20.1427 23.8405 20.1773 23.8426 20.2141L24.2534 29.2177C24.2535 29.2436 24.2478 29.2692 24.2368 29.2927C23.7614 30.0347 23.1033 30.6421 22.3257 31.0567C21.5481 31.4712 20.677 31.679 19.796 31.6601ZM15.816 29.1955C15.9548 29.4731 17.0122 31.3743 19.796 31.3743C20.6185 31.3926 21.4321 31.2015 22.1603 30.8189C22.8886 30.4363 23.5076 29.8748 23.9592 29.1872L23.5568 20.364H16.2184L15.816 29.1955Z" fill="#282929"/>
<path d="M16.0859 24.071C16.6741 24.9236 17.4647 25.6169 18.3868 26.0887C19.8966 26.9214 22.1531 27.8623 23.9849 27.5819L23.6824 23.774C22.342 23.9417 20.9866 23.951 19.6441 23.8018C18.4617 23.6963 17.2405 23.5825 16.1581 23.1273C15.9721 23.0441 15.8528 23.7018 16.0859 24.071Z" fill="#282929"/>
<path d="M23.2853 27.7672C21.4424 27.7672 19.4329 26.8208 18.32 26.2046C17.3735 25.7274 16.5645 25.0166 15.9692 24.1397C15.8721 23.9774 15.8195 23.7925 15.8165 23.6035C15.8136 23.4144 15.8605 23.2279 15.9525 23.0628C15.9827 23.0246 16.0246 22.9975 16.0717 22.9854C16.1188 22.9734 16.1686 22.9772 16.2134 22.9962C17.2958 23.4541 18.5503 23.5513 19.655 23.6595C20.9872 23.8092 22.3325 23.8008 23.6627 23.6345C23.6813 23.6318 23.7002 23.6328 23.7183 23.6376C23.7364 23.6424 23.7534 23.6508 23.7682 23.6623C23.7831 23.6741 23.7954 23.6888 23.8044 23.7055C23.8135 23.7222 23.8191 23.7405 23.8209 23.7594L24.1207 27.5674C24.1239 27.6022 24.1136 27.6369 24.0918 27.6642C24.0701 27.6916 24.0387 27.7096 24.0041 27.7145C23.7662 27.7503 23.5259 27.768 23.2853 27.7672ZM16.144 23.2682C16.1028 23.3863 16.0867 23.5118 16.0967 23.6365C16.1068 23.7613 16.1427 23.8825 16.2023 23.9926C16.7742 24.8314 17.5496 25.5113 18.456 25.9687C19.655 26.6348 21.9281 27.695 23.8348 27.4647L23.5573 23.9343C22.2523 24.0813 20.935 24.0813 19.63 23.9343C18.517 23.8371 17.2597 23.7261 16.144 23.2682Z" fill="#282929"/>
<path d="M19.6908 24.6726H20.3153C21.738 24.6733 23.1027 24.1092 24.1097 23.1043C25.1167 22.0994 25.6836 20.7358 25.6858 19.3131V10.8008H14.3203V19.3131C14.3225 20.7358 14.8894 22.0994 15.8964 23.1043C16.9034 24.1092 18.2682 24.6733 19.6908 24.6726Z" fill="white"/>
<path d="M25.686 10.8V19.3124C25.686 20.0175 25.5471 20.7157 25.2772 21.3671C25.0073 22.0186 24.6116 22.6104 24.1129 23.1089C23.6141 23.6074 23.0221 24.0027 22.3705 24.2723C21.7189 24.5419 21.0206 24.6805 20.3155 24.6801H19.691C18.9859 24.6805 18.2876 24.5419 17.636 24.2723C16.9845 24.0027 16.3924 23.6074 15.8937 23.1089C15.3949 22.6104 14.9993 22.0186 14.7294 21.3671C14.4594 20.7157 14.3205 20.0175 14.3205 19.3124V10.8H25.686ZM25.686 10.5225H14.3205C14.2469 10.5225 14.1763 10.5517 14.1243 10.6038C14.0722 10.6558 14.043 10.7264 14.043 10.8V19.3124C14.0452 20.8119 14.6418 22.2493 15.7021 23.3096C16.7624 24.3699 18.1999 24.9666 19.6994 24.9688H20.3238C21.8219 24.9644 23.2572 24.3667 24.3157 23.3067C25.3742 22.2466 25.9697 20.8104 25.9719 19.3124V10.8C25.9719 10.7264 25.9427 10.6558 25.8906 10.6038C25.8386 10.5517 25.768 10.5225 25.6944 10.5225H25.686Z" fill="#282929"/>
<path d="M20.0923 19.3592C19.8353 19.3605 19.5785 19.3448 19.3235 19.312C19.2697 19.3067 19.218 19.2882 19.173 19.2582C19.128 19.2282 19.091 19.1876 19.0654 19.1399C18.6685 18.4794 19.7176 15.6651 19.9314 15.1072C19.9378 15.0896 19.9477 15.0735 19.9605 15.0598C19.9732 15.0461 19.9885 15.0351 20.0056 15.0273C20.0226 15.0196 20.041 15.0153 20.0597 15.0147C20.0784 15.0141 20.097 15.0173 20.1145 15.0239C20.1502 15.0376 20.179 15.0648 20.1946 15.0997C20.2102 15.1346 20.2113 15.1742 20.1978 15.2099C19.7232 16.4505 19.0598 18.5737 19.3096 18.9928C19.3291 19.0234 19.343 19.0261 19.3568 19.0289C19.8633 19.0834 20.3741 19.0834 20.8806 19.0289C20.8992 19.0266 20.918 19.028 20.9361 19.033C20.9542 19.0381 20.9711 19.0467 20.9858 19.0583C21.0005 19.0699 21.0128 19.0843 21.0219 19.1007C21.0309 19.1171 21.0367 19.1352 21.0388 19.1538C21.0415 19.1723 21.0405 19.1911 21.0357 19.2091C21.031 19.2272 21.0227 19.2441 21.0113 19.2589C20.9999 19.2736 20.9857 19.286 20.9694 19.2951C20.9531 19.3042 20.9352 19.31 20.9166 19.312C20.643 19.3441 20.3678 19.3598 20.0923 19.3592Z" fill="#282929"/>
<path d="M29.3525 37.4529H29.333C29.2951 37.448 29.2607 37.4284 29.2373 37.3982C29.2139 37.368 29.2034 37.3298 29.2081 37.2919L29.8909 32.1628C29.9003 32.1301 29.9213 32.1019 29.9499 32.0833C29.9785 32.0648 30.0128 32.0572 30.0465 32.0619C30.0803 32.0666 30.1112 32.0834 30.1336 32.1091C30.156 32.1347 30.1684 32.1676 30.1684 32.2017L29.4885 37.328C29.484 37.3614 29.4679 37.3922 29.443 37.415C29.4182 37.4378 29.3861 37.4512 29.3525 37.4529Z" fill="#282929"/>
<path d="M10.6541 37.4494C10.6192 37.4497 10.5855 37.4371 10.5594 37.414C10.5333 37.391 10.5166 37.3591 10.5125 37.3245L9.82142 32.1983C9.8167 32.1604 9.8272 32.1221 9.85061 32.092C9.87402 32.0618 9.90843 32.0421 9.94631 32.0373C9.98379 32.0325 10.0216 32.0426 10.0517 32.0655C10.0818 32.0883 10.1018 32.122 10.1073 32.1594L10.7873 37.2885C10.792 37.3259 10.7819 37.3638 10.7591 37.3939C10.7363 37.424 10.7025 37.4439 10.6652 37.4494H10.6541Z" fill="#282929"/>
<defs>
<linearGradient id="paint0_linear_2701_8736" x1="7.97423" y1="23.9112" x2="39.9088" y2="36.4954" gradientUnits="userSpaceOnUse">
<stop stop-color="#FFB11B"/>
<stop offset="1" stop-color="#FF441B"/>
</linearGradient>
</defs>
</svg>
