<svg width="40" height="40" viewBox="0 0 40 40" fill="none" xmlns="http://www.w3.org/2000/svg">
<path d="M39.7121 19.9926C39.7121 23.8898 38.5564 27.6996 36.3912 30.94C34.226 34.1805 31.1485 36.7061 27.5479 38.1975C23.9473 39.6889 19.9853 40.0792 16.1629 39.3188C12.3405 38.5585 8.82947 36.6818 6.07369 33.926C3.31791 31.1703 1.4412 27.6592 0.680879 23.8368C-0.0794387 20.0144 0.310784 16.0524 1.8022 12.4518C3.29362 8.85123 5.81924 5.77375 9.0597 3.60854C12.3002 1.44334 16.1099 0.28767 20.0072 0.28767C22.5985 0.27443 25.1668 0.775074 27.5635 1.76065C29.9602 2.74622 32.1377 4.19717 33.9701 6.02958C35.8026 7.86199 37.2535 10.0395 38.2391 12.4362C39.2247 14.8329 39.7253 17.4012 39.7121 19.9926Z" fill="white"/>
<path d="M19.9991 0.277534C23.8964 0.277534 27.7061 1.43321 30.9465 3.59841C34.187 5.76361 36.7126 8.8411 38.204 12.4417C39.6955 16.0423 40.0857 20.0043 39.3254 23.8267C38.565 27.649 36.6883 31.1601 33.9326 33.9159C31.1768 36.6717 27.6657 38.5484 23.8433 39.3087C20.0209 40.069 16.0589 39.6788 12.4583 38.1874C8.85775 36.696 5.78026 34.1703 3.61506 30.9299C1.44986 27.6894 0.294187 23.8797 0.294187 19.9824C0.294187 14.7564 2.37023 9.74435 6.06562 6.04897C9.761 2.35358 14.773 0.277534 19.9991 0.277534ZM19.9991 0C14.6968 0.00587674 9.61337 2.1148 5.86409 5.86409C2.1148 9.61337 0.00587727 14.6968 5.28628e-07 19.9991C-0.000953011 24.1471 1.28811 28.1928 3.68862 31.5757C6.08914 34.9586 9.48227 37.5112 13.398 38.88C17.3137 40.2487 21.5582 40.3659 25.5434 39.2152C29.5287 38.0645 33.0574 35.7029 35.6409 32.4576C38.4781 28.9268 40.0163 24.5285 39.9982 19.9991C39.9916 14.697 37.8824 9.61402 34.1333 5.8649C30.3842 2.11577 25.3011 0.00660968 19.9991 0Z" fill="#282929"/>
<path d="M8.90039 25.8635C8.90039 14.5762 10.4296 5.4259 19.8907 5.4259C29.3519 5.4259 30.8783 14.5845 30.8783 25.8635H8.90039Z" fill="white"/>
<path d="M30.8788 26.0049H8.90085C8.88202 26.0049 8.86339 26.0012 8.84603 25.9939C8.82868 25.9866 8.81295 25.9759 8.79977 25.9625C8.78659 25.949 8.77622 25.9331 8.76927 25.9156C8.76232 25.8981 8.75894 25.8794 8.7593 25.8606C8.7593 21.2619 8.98133 15.4559 10.702 11.3539C12.4228 7.25195 15.434 5.27869 19.8773 5.27869C29.6604 5.27869 31.0092 15.17 31.0092 25.8606C31.0094 25.8966 30.9961 25.9313 30.9719 25.958C30.9478 25.9847 30.9146 26.0015 30.8788 26.0049ZM9.04516 25.7274H30.7317C30.7317 21.1786 30.4958 15.4864 28.7889 11.4732C27.1237 7.50173 24.1957 5.57287 19.8801 5.57287C15.5644 5.57287 12.6476 7.51561 10.9685 11.4732C9.28384 15.4781 9.05071 21.1703 9.04516 25.7191V25.7274Z" fill="#282929"/>
<path d="M35.416 32.2708C33.7994 34.3038 31.7964 35.9967 29.5224 37.2518C27.2483 38.5069 24.7484 39.2995 22.1666 39.5838C20.7259 39.7429 19.2721 39.7429 17.8315 39.5838C15.2499 39.3 12.75 38.5079 10.4759 37.2533C8.20193 35.9986 6.19878 34.3062 4.58203 32.2736C7.3231 30.3312 10.353 28.8327 13.5603 27.833C17.7539 26.5304 22.2441 26.5304 26.4378 27.833C29.6447 28.8324 32.6745 30.33 35.416 32.2708V32.2708Z" fill="url(#paint0_linear_2701_6274)"/>
<path d="M24.8452 17.5095C25.2199 15.1671 29.1081 14.5898 28.9166 17.3513C28.8868 18.3106 28.5192 19.2286 27.8787 19.9434C27.2126 20.6206 26.1385 20.9426 25.2726 20.554" fill="white"/>
<path d="M26.0825 20.8692C25.7825 20.8713 25.4855 20.8098 25.211 20.6888C25.1767 20.673 25.1499 20.6445 25.1364 20.6092C25.1229 20.5739 25.1238 20.5347 25.1389 20.5001C25.1552 20.4655 25.1843 20.4387 25.22 20.4252C25.2558 20.4118 25.2953 20.4127 25.3304 20.4279C26.0964 20.7721 27.1038 20.5334 27.7782 19.8479C28.5082 19.1041 28.7219 18.0772 28.7718 17.3501C28.8384 16.3953 28.3749 15.7681 27.5285 15.6849C26.4849 15.5683 25.1861 16.3038 24.9862 17.5554C24.9801 17.5929 24.9595 17.6263 24.9288 17.6487C24.8982 17.671 24.86 17.6804 24.8225 17.6748C24.8038 17.6721 24.7859 17.6657 24.7697 17.6559C24.7535 17.6462 24.7394 17.6333 24.7283 17.6181C24.7172 17.6028 24.7093 17.5855 24.7049 17.5671C24.7006 17.5487 24.7 17.5296 24.7032 17.511C24.928 16.1012 26.3878 15.2658 27.559 15.4018C28.3444 15.4906 29.152 16.0595 29.0577 17.3834C29.0049 18.1632 28.7801 19.2623 27.9808 20.0671C27.4793 20.5754 26.7966 20.8639 26.0825 20.8692Z" fill="#282929"/>
<path d="M15.1537 17.5143C14.779 15.1719 10.888 14.5947 11.0822 17.37C11.1111 18.329 11.4777 19.2471 12.1174 19.9622C12.7835 20.6394 13.8603 20.9613 14.7263 20.5727" fill="white"/>
<path d="M13.9157 20.8717C13.5596 20.865 13.2084 20.788 12.8821 20.6451C12.5558 20.5022 12.261 20.2963 12.0146 20.0391C11.2237 19.2343 10.9933 18.1352 10.9378 17.3581C10.8462 16.0315 11.6511 15.4626 12.4365 15.3738C13.6077 15.2378 15.0675 16.0731 15.2951 17.483C15.3033 17.5031 15.3069 17.5249 15.3056 17.5466C15.3042 17.5683 15.298 17.5894 15.2873 17.6083C15.2767 17.6273 15.2619 17.6436 15.244 17.656C15.2262 17.6685 15.2058 17.6767 15.1843 17.6802C15.1628 17.6836 15.1409 17.6821 15.12 17.6759C15.0992 17.6696 15.0801 17.6588 15.064 17.6441C15.048 17.6294 15.0355 17.6113 15.0274 17.5911C15.0194 17.5709 15.016 17.5491 15.0176 17.5274C14.8177 16.2757 13.5189 15.5403 12.4753 15.6568C11.6427 15.754 11.1626 16.3812 11.2292 17.322C11.282 18.0547 11.5068 19.0816 12.2256 19.8199C12.9 20.5054 13.8908 20.744 14.6734 20.3999C14.708 20.3844 14.7473 20.3834 14.7827 20.3969C14.8181 20.4104 14.8467 20.4375 14.8621 20.4721C14.8776 20.5067 14.8787 20.546 14.8651 20.5814C14.8516 20.6168 14.8246 20.6453 14.79 20.6608C14.5172 20.7934 14.219 20.8653 13.9157 20.8717Z" fill="#282929"/>
<path d="M16.4238 29.2206C16.4238 29.2206 17.287 31.513 19.8097 31.513C21.8246 31.513 23.3566 29.2206 23.3566 29.2206L23.018 20.2174H16.7596L16.4238 29.2206Z" fill="white"/>
<path d="M19.8107 31.6587C17.2213 31.6587 16.2999 29.3052 16.2999 29.2747C16.2972 29.2553 16.2972 29.2357 16.2999 29.2164L16.6385 20.2132C16.6406 20.1769 16.6563 20.1427 16.6826 20.1174C16.7088 20.0922 16.7436 20.0778 16.78 20.0772H23.0384C23.0753 20.0771 23.1108 20.0912 23.1376 20.1165C23.1644 20.1418 23.1806 20.1764 23.1827 20.2132L23.5185 29.2164C23.5214 29.2472 23.5125 29.278 23.4936 29.3024C23.4103 29.3996 21.8783 31.6587 19.8107 31.6587ZM16.5774 29.197C16.6829 29.4579 17.5432 31.3728 19.819 31.3728C21.5952 31.3728 23.0134 29.4717 23.2188 29.1803L22.8885 20.3631H16.8993L16.5774 29.197Z" fill="#282929"/>
<path d="M16.7603 24.0705C17.2138 24.8899 17.8643 25.5833 18.6531 26.0881C19.8909 26.9207 21.7448 27.8616 23.2491 27.5813L23.0021 23.7735C21.899 23.9424 20.7774 23.9517 19.6717 23.8012C18.7003 23.6958 17.6984 23.582 16.8103 23.1268C16.666 23.0436 16.5772 23.7013 16.7603 24.0705Z" fill="#282929"/>
<path d="M22.6833 27.768C21.1569 27.768 19.4972 26.8161 18.5814 26.2C17.7696 25.6859 17.1012 24.9745 16.6387 24.1323C16.4555 23.7771 16.4943 23.197 16.6553 23.0388C16.6844 23.0083 16.7227 22.9882 16.7644 22.9817C16.806 22.9752 16.8486 22.9826 16.8857 23.0028C17.7682 23.4551 18.7951 23.5578 19.6998 23.6605C20.7888 23.8101 21.8937 23.8017 22.9803 23.6355C22.9993 23.6324 23.0187 23.6333 23.0373 23.638C23.056 23.6428 23.0734 23.6514 23.0885 23.6633C23.1036 23.6756 23.116 23.6907 23.1251 23.7079C23.1341 23.725 23.1397 23.7439 23.1413 23.7632L23.3883 27.571C23.3902 27.6048 23.3797 27.6381 23.3587 27.6647C23.3377 27.6913 23.3078 27.7093 23.2745 27.7153C23.0794 27.7508 22.8816 27.7684 22.6833 27.768ZM16.8274 23.2831C16.7648 23.5231 16.7843 23.7771 16.8829 24.0047C17.3215 24.8065 17.9577 25.4829 18.7313 25.9696C19.7082 26.6301 21.5538 27.6792 23.1052 27.4627L22.8748 23.9325C21.8112 24.0767 20.733 24.0767 19.6693 23.9325C18.7646 23.8381 17.7405 23.7299 16.8274 23.2831Z" fill="#282929"/>
<path d="M25.68 14.8264V19.3114C25.6803 20.0163 25.5417 20.7145 25.2721 21.3658C25.0025 22.0172 24.6072 22.6091 24.1087 23.1076C23.6102 23.6061 23.0183 24.0014 22.3669 24.271C21.7156 24.5406 21.0174 24.6792 20.3124 24.6789H19.6852C18.9801 24.6792 18.2819 24.5407 17.6303 24.2711C16.9788 24.0015 16.3867 23.6062 15.888 23.1077C15.3893 22.6093 14.9937 22.0174 14.7238 21.366C14.4539 20.7147 14.3149 20.0165 14.3149 19.3114V14.7875C14.3149 14.7875 16.1661 14.2325 18.0811 10.4802C21.8722 14.8708 25.68 14.8264 25.68 14.8264Z" fill="white"/>
<path d="M20.3127 24.8171H19.6855C18.2253 24.8157 16.8252 24.2357 15.7916 23.2042C14.7581 22.1728 14.1753 20.7738 14.1709 19.3136V14.7898C14.1712 14.7588 14.1813 14.7287 14.1997 14.7038C14.2182 14.6789 14.244 14.6604 14.2736 14.6511C14.293 14.6511 16.097 14.0627 17.9537 10.4187C17.9646 10.3978 17.9804 10.3798 17.9997 10.3663C18.019 10.3527 18.0413 10.3441 18.0647 10.341C18.088 10.3383 18.1117 10.3414 18.1335 10.3502C18.1553 10.3589 18.1745 10.3729 18.1896 10.3909C21.8669 14.6427 25.6053 14.6844 25.683 14.6844C25.702 14.684 25.7209 14.6876 25.7386 14.6947C25.7562 14.7019 25.7723 14.7125 25.7857 14.726C25.8117 14.7539 25.8265 14.7905 25.8273 14.8287V19.3136C25.8236 20.774 25.2411 22.1734 24.2074 23.205C23.1737 24.2367 21.7731 24.8164 20.3127 24.8171ZM14.4595 14.8897V19.3136C14.4639 20.6975 15.0162 22.0233 15.9955 23.0011C16.9749 23.9789 18.3016 24.5291 19.6855 24.5313H20.3127C21.6966 24.5291 23.0233 23.9789 24.0027 23.0011C24.982 22.0233 25.5343 20.6975 25.5387 19.3136V14.9674C24.8032 14.9286 21.4867 14.5456 18.1119 10.7351C16.4578 13.8962 14.8731 14.7204 14.4595 14.8897Z" fill="#282929"/>
<path d="M20.0853 19.3573C19.8274 19.3585 19.5696 19.3428 19.3138 19.3101C19.2602 19.304 19.2088 19.2853 19.1639 19.2553C19.119 19.2254 19.0819 19.1852 19.0557 19.138C18.6616 18.4775 19.7079 15.6633 19.9216 15.1054C19.9283 15.0872 19.9386 15.0705 19.9518 15.0562C19.965 15.042 19.9809 15.0305 19.9985 15.0224C20.0162 15.0142 20.0353 15.0097 20.0547 15.0089C20.0741 15.0082 20.0935 15.0113 20.1117 15.018C20.1299 15.0248 20.1466 15.035 20.1609 15.0482C20.1751 15.0614 20.1867 15.0773 20.1948 15.095C20.2029 15.1126 20.2075 15.1317 20.2082 15.1511C20.2089 15.1705 20.2059 15.1899 20.1991 15.2081C19.7218 16.4487 19.0612 18.5718 19.311 18.9909C19.3149 19.0006 19.3214 19.0091 19.3297 19.0154C19.338 19.0218 19.3478 19.0258 19.3582 19.027C19.8637 19.0816 20.3736 19.0816 20.8791 19.027C20.8987 19.0214 20.9192 19.02 20.9394 19.0231C20.9596 19.0261 20.9788 19.0335 20.9959 19.0447C21.0129 19.0559 21.0273 19.0706 21.0382 19.0879C21.049 19.1051 21.0559 19.1246 21.0586 19.1448C21.0612 19.165 21.0594 19.1855 21.0534 19.205C21.0473 19.2245 21.0372 19.2424 21.0235 19.2576C21.0099 19.2727 20.9932 19.2848 20.9745 19.2929C20.9558 19.301 20.9355 19.305 20.9152 19.3045C20.6399 19.3389 20.3628 19.3565 20.0853 19.3573Z" fill="#282929"/>
<path d="M29.3435 37.4497C29.3061 37.4441 29.2724 37.4242 29.2496 37.3941C29.2267 37.364 29.2166 37.3262 29.2214 37.2887L29.8986 32.1599C29.9041 32.1225 29.924 32.0888 29.9541 32.0659C29.9842 32.0431 30.022 32.033 30.0595 32.0377C30.0974 32.0426 30.1318 32.0623 30.1552 32.0924C30.1786 32.1226 30.1891 32.1608 30.1844 32.1987L29.5017 37.3248C29.4996 37.3434 29.4939 37.3614 29.4848 37.3778C29.4757 37.3942 29.4634 37.4087 29.4487 37.4203C29.434 37.4319 29.4171 37.4405 29.399 37.4455C29.381 37.4506 29.3621 37.452 29.3435 37.4497Z" fill="#282929"/>
<path d="M10.6491 37.4497C10.6145 37.4494 10.5811 37.4365 10.5551 37.4136C10.5291 37.3907 10.5123 37.3592 10.5076 37.3248L9.82764 32.1988C9.82773 32.1647 9.84011 32.1318 9.86251 32.1061C9.8849 32.0804 9.91581 32.0637 9.94955 32.059C9.9833 32.0543 10.0176 32.0619 10.0462 32.0804C10.0748 32.0989 10.0957 32.1272 10.1052 32.1599L10.7851 37.2887C10.7899 37.3262 10.7798 37.3641 10.7569 37.3942C10.7341 37.4243 10.7004 37.4442 10.663 37.4497H10.6491Z" fill="#282929"/>
<defs>
<linearGradient id="paint0_linear_2701_6274" x1="7.97377" y1="23.9119" x2="39.9048" y2="36.4935" gradientUnits="userSpaceOnUse">
<stop stop-color="#FFB11B"/>
<stop offset="1" stop-color="#FF441B"/>
</linearGradient>
</defs>
</svg>
