<svg width="191" height="30" viewBox="0 0 191 30" fill="none" xmlns="http://www.w3.org/2000/svg">
<path fill-rule="evenodd" clip-rule="evenodd" d="M13.3486 1.46759C13.3486 0.429599 14.4723 -0.219147 15.3712 0.29985L25.3572 6.06528C26.1916 6.54701 26.7056 7.43729 26.7056 8.40076V19.9316C26.7056 20.9696 25.582 21.6184 24.683 21.0994L21.9074 19.4968L19.1317 17.8943C18.7145 17.6534 18.4575 17.2083 18.4575 16.7265V12.4504C18.4575 11.9687 18.2005 11.5236 17.7833 11.2827L14.0228 9.11159C13.6056 8.87072 13.3486 8.42558 13.3486 7.94385V4.70573V1.46759Z" fill="#F6F6F6"/>
<path d="M8.24815 12.3924C8.24815 11.9107 7.99114 11.4655 7.57395 11.2247L4.79827 9.62212L2.02259 8.01958C1.12366 7.50058 2.76864e-07 8.14932 2.53999e-07 9.18732L0 20.7182C-2.12231e-08 21.6816 0.514004 22.5719 1.34839 23.0537L11.3344 28.8191C12.2333 29.3381 13.357 28.6893 13.357 27.6513V24.4132V21.1751C13.357 20.6933 13.1 20.2482 12.6828 20.0073L8.92234 17.8362C8.50515 17.5954 8.24815 17.1502 8.24815 16.6685V12.3924Z" fill="url(#paint0_linear_2605_12477)"/>
<path d="M44.7258 7.6975C44.7258 7.53173 44.5914 7.39735 44.4257 7.39735H40.5501C40.3844 7.39735 40.25 7.53173 40.25 7.6975V21.3891C40.25 21.5549 40.3844 21.6893 40.5501 21.6893H44.4257C44.5914 21.6893 44.7258 21.5549 44.7258 21.3891V7.6975Z" fill="#F7F7F7"/>
<path d="M52.4996 21.3891C52.4996 21.5549 52.6339 21.6893 52.7997 21.6893H56.7137C56.8794 21.6893 57.0138 21.5549 57.0138 21.3891V11.0784C57.0138 10.9126 57.1482 10.7782 57.314 10.7782H62.8799C63.0457 10.7782 63.1801 10.6439 63.1801 10.4781V7.6975C63.1801 7.53173 63.0457 7.39735 62.8799 7.39735H46.6526C46.4869 7.39735 46.3525 7.53173 46.3525 7.6975V10.4781C46.3525 10.6439 46.4869 10.7782 46.6526 10.7782H52.1994C52.3652 10.7782 52.4996 10.9126 52.4996 11.0784V21.3891Z" fill="#F7F7F7"/>
<path d="M76.9336 21.6893C77.0665 21.6893 77.1836 21.6018 77.2214 21.4744L79.3683 14.2244C79.4531 13.9382 79.8583 13.9377 79.9437 14.2238L82.1075 21.475C82.1454 21.6021 82.2624 21.6893 82.3951 21.6893H90.2038C90.3292 21.6893 90.4414 21.6113 90.4851 21.4939L95.5827 7.80223C95.6557 7.60611 95.5106 7.39735 95.3014 7.39735H89.0996C88.9667 7.39735 88.8497 7.48472 88.8119 7.61211L86.5199 15.3349C86.4343 15.6234 86.0248 15.6205 85.9433 15.3309L83.7698 7.61611C83.7334 7.48673 83.6154 7.39735 83.4809 7.39735H76.3476C76.2132 7.39735 76.0952 7.48664 76.0587 7.61595L73.8782 15.3392C73.7971 15.6264 73.3919 15.6321 73.3029 15.3471L70.8844 7.60797C70.8452 7.48267 70.7292 7.39735 70.5979 7.39735H63.8917C63.6829 7.39735 63.5379 7.60528 63.6101 7.80123L68.6524 21.4929C68.6959 21.6109 68.8083 21.6893 68.9341 21.6893H76.9336Z" fill="#F7F7F7"/>
<path d="M105.693 7.12842C96.2423 7.12842 94.8976 11.3545 94.8976 14.2168V14.793C94.8976 17.6168 96.2423 21.9582 105.693 21.9582H106.615C116.086 21.9582 117.43 17.6168 117.43 14.793V14.2168C117.43 11.3545 116.086 7.12842 106.615 7.12842H105.693ZM110.726 14.6009C110.726 16.0032 109.747 17.6937 106.154 17.6937C102.562 17.6937 101.583 15.9648 101.583 14.5625V14.332C101.583 12.9489 102.466 11.3545 106.154 11.3545C109.747 11.3545 110.726 12.9489 110.726 14.332V14.6009Z" fill="#F7F7F7"/>
<path d="M125.017 11.405C125.017 11.2392 125.151 11.1048 125.317 11.1048H130.761C131.836 11.1048 132.221 11.5466 132.221 12.1421V12.1613C132.221 12.7568 131.836 13.1986 130.761 13.1986H125.317C125.151 13.1986 125.017 13.0643 125.017 12.8985V11.405ZM125.017 17.564C125.017 17.2325 125.286 16.9637 125.617 16.9637H129.608C131.702 16.9637 132.432 17.8666 132.432 19.4033V21.113C132.432 21.2542 132.441 21.3723 132.462 21.4674C132.496 21.6229 132.656 21.6893 132.815 21.6893H139.123C139.173 21.6893 139.213 21.6491 139.213 21.5994C139.213 21.5828 139.208 21.5666 139.2 21.5523C139.053 21.304 138.944 20.9543 138.944 20.1333V17.9818C138.944 16.2376 137.913 15.0261 136.094 14.5586C136.017 14.5388 136.013 14.4202 136.09 14.3968C137.276 14.0328 138.886 13.1902 138.886 11.2201V11.028C138.886 8.41546 136.677 7.39735 133.085 7.39735H118.844C118.678 7.39735 118.543 7.53173 118.543 7.6975V21.3891C118.543 21.5549 118.678 21.6893 118.844 21.6893H124.717C124.883 21.6893 125.017 21.5549 125.017 21.3891V17.564Z" fill="#F7F7F7"/>
<path d="M146.346 21.6893C146.512 21.6893 146.647 21.5549 146.647 21.3891V16.3559C146.647 16.0923 146.962 15.9567 147.153 16.1382L152.658 21.3597C152.881 21.5713 153.176 21.6893 153.484 21.6893H160.686C160.959 21.6893 161.09 21.3529 160.888 21.1679L153.436 14.3352C153.161 14.083 153.18 13.6435 153.476 13.4164L160.621 7.93565C160.849 7.76109 160.725 7.39735 160.438 7.39735H153.788C153.517 7.39735 153.255 7.48867 153.042 7.65652L147.133 12.3334C146.936 12.4892 146.647 12.349 146.647 12.0981V7.6975C146.647 7.53173 146.512 7.39735 146.346 7.39735H140.473C140.307 7.39735 140.173 7.53173 140.173 7.6975V21.3891C140.173 21.5549 140.307 21.6893 140.473 21.6893H146.346Z" fill="#F7F7F7"/>
<path d="M168.332 7.6975C168.332 7.53173 168.198 7.39735 168.032 7.39735H162.178C162.012 7.39735 161.878 7.53173 161.878 7.6975V21.3891C161.878 21.5549 162.012 21.6893 162.178 21.6893H168.032C168.198 21.6893 168.332 21.5549 168.332 21.3891V7.6975Z" fill="#F7F7F7"/>
<path d="M170.132 7.39735C169.966 7.39735 169.831 7.53173 169.831 7.6975V21.3891C169.831 21.5549 169.966 21.6893 170.132 21.6893H175.986C176.152 21.6893 176.286 21.5549 176.286 21.3891V14.574C176.286 14.3097 176.603 14.1744 176.794 14.3572L184.102 21.3558C184.325 21.5698 184.623 21.6893 184.932 21.6893H190.7C190.866 21.6893 191 21.5549 191 21.3891V7.6975C191 7.53173 190.866 7.39735 190.7 7.39735H184.846C184.68 7.39735 184.546 7.53173 184.546 7.6975V13.91C184.546 14.1754 184.227 14.3102 184.037 14.1253L177.461 7.73685C177.237 7.51914 176.937 7.39735 176.625 7.39735H170.132Z" fill="#F7F7F7"/>
<defs>
<linearGradient id="paint0_linear_2605_12477" x1="6.6785" y1="6.85169" x2="6.6785" y2="29.9867" gradientUnits="userSpaceOnUse">
<stop stop-color="#FFB11B"/>
<stop offset="1" stop-color="#FF441B"/>
</linearGradient>
</defs>
</svg>
