<svg width="75" height="62" viewBox="0 0 75 62" fill="none" xmlns="http://www.w3.org/2000/svg">
<path d="M2.22125 54.919C2.22125 54.8368 2.15456 54.7701 2.07229 54.7701H0.148957C0.0666905 54.7701 0 54.8368 0 54.919V61.7139C0 61.7961 0.0666905 61.8628 0.148957 61.8628H2.07229C2.15456 61.8628 2.22125 61.7961 2.22125 61.7139V54.919Z" fill="#F7F7F7"/>
<path d="M6.07917 61.7139C6.07917 61.7961 6.14586 61.8628 6.22813 61.8628H8.17053C8.2528 61.8628 8.31949 61.7961 8.31949 61.7139V56.5969C8.31949 56.5146 8.38618 56.4479 8.46845 56.4479H11.2307C11.313 56.4479 11.3797 56.3812 11.3797 56.299V54.919C11.3797 54.8368 11.313 54.7701 11.2307 54.7701H3.17748C3.09522 54.7701 3.02853 54.8368 3.02853 54.919V56.299C3.02853 56.3812 3.09522 56.4479 3.17748 56.4479H5.93021C6.01248 56.4479 6.07917 56.5146 6.07917 56.5969V61.7139Z" fill="#F7F7F7"/>
<path d="M18.2052 61.8628C18.2712 61.8628 18.3293 61.8194 18.348 61.7562L19.4135 58.1582C19.4556 58.0161 19.6567 58.0159 19.6991 58.1579L20.7729 61.7565C20.7917 61.8196 20.8498 61.8628 20.9156 61.8628H24.7909C24.8531 61.8628 24.9088 61.8241 24.9305 61.7658L27.4603 54.971C27.4966 54.8737 27.4246 54.7701 27.3207 54.7701H24.2429C24.177 54.7701 24.1189 54.8134 24.1001 54.8766L22.9627 58.7093C22.9202 58.8524 22.717 58.851 22.6765 58.7073L21.5979 54.8786C21.5798 54.8144 21.5212 54.7701 21.4545 54.7701H17.9144C17.8477 54.7701 17.7892 54.8144 17.771 54.8785L16.6889 58.7114C16.6487 58.854 16.4476 58.8568 16.4034 58.7154L15.2031 54.8746C15.1837 54.8124 15.1261 54.7701 15.061 54.7701H11.7328C11.6292 54.7701 11.5572 54.8733 11.5931 54.9705L14.0955 61.7653C14.117 61.8239 14.1728 61.8628 14.2352 61.8628H18.2052Z" fill="#F7F7F7"/>
<path d="M32.4781 54.6366C27.7877 54.6366 27.1204 56.7339 27.1204 58.1544V58.4404C27.1204 59.8418 27.7877 61.9963 32.4781 61.9963H32.9356C37.6356 61.9963 38.3029 59.8418 38.3029 58.4404V58.1544C38.3029 56.7339 37.6356 54.6366 32.9356 54.6366H32.4781ZM34.9758 58.345C34.9758 59.041 34.4896 59.8799 32.7069 59.8799C30.9241 59.8799 30.4379 59.0219 30.4379 58.326V58.2116C30.4379 57.5252 30.8765 56.7339 32.7069 56.7339C34.4896 56.7339 34.9758 57.5252 34.9758 58.2116V58.345Z" fill="#F7F7F7"/>
<path d="M42.0679 56.7589C42.0679 56.6767 42.1346 56.61 42.2169 56.61H44.9184C45.4522 56.61 45.6429 56.8292 45.6429 57.1248V57.1343C45.6429 57.4298 45.4522 57.6491 44.9184 57.6491H42.2169C42.1346 57.6491 42.0679 57.5824 42.0679 57.5002V56.7589ZM42.0679 59.8155C42.0679 59.651 42.2013 59.5176 42.3658 59.5176H44.3464C45.3855 59.5176 45.7478 59.9657 45.7478 60.7284V61.5768C45.7478 61.6469 45.7523 61.7055 45.7626 61.7527C45.7794 61.8299 45.8589 61.8628 45.9379 61.8628H49.0684C49.093 61.8628 49.113 61.8429 49.113 61.8182C49.113 61.81 49.1107 61.8019 49.1065 61.7948C49.0335 61.6716 48.9795 61.498 48.9795 61.0906V60.0229C48.9795 59.1573 48.4678 58.556 47.5654 58.324C47.5271 58.3142 47.5251 58.2553 47.563 58.2437C48.1516 58.0631 48.9509 57.6449 48.9509 56.6672V56.5719C48.9509 55.2753 47.8546 54.7701 46.0719 54.7701H39.0042C38.9219 54.7701 38.8552 54.8368 38.8552 54.919V61.7139C38.8552 61.7961 38.9219 61.8628 39.0042 61.8628H41.919C42.0012 61.8628 42.0679 61.7961 42.0679 61.7139V59.8155Z" fill="#F7F7F7"/>
<path d="M52.6532 61.8628C52.7355 61.8628 52.8022 61.7961 52.8022 61.7139V59.216C52.8022 59.0852 52.9587 59.0179 53.0536 59.1079L55.7853 61.6993C55.896 61.8043 56.0427 61.8628 56.1953 61.8628H59.7694C59.9053 61.8628 59.9702 61.6959 59.8701 61.6041L56.1717 58.2131C56.0351 58.088 56.0447 57.8699 56.1917 57.7572L59.7373 55.0372C59.8503 54.9506 59.789 54.7701 59.6467 54.7701H56.3461C56.2118 54.7701 56.0815 54.8154 55.9763 54.8987L53.0436 57.2197C52.9459 57.297 52.8022 57.2275 52.8022 57.1029V54.919C52.8022 54.8368 52.7355 54.7701 52.6532 54.7701H49.7384C49.6561 54.7701 49.5894 54.8368 49.5894 54.919V61.7139C49.5894 61.7961 49.6561 61.8628 49.7384 61.8628H52.6532Z" fill="#F7F7F7"/>
<path d="M63.5641 54.919C63.5641 54.8368 63.4974 54.7701 63.4151 54.7701H60.5099C60.4276 54.7701 60.3609 54.8368 60.3609 54.919V61.7139C60.3609 61.7961 60.4276 61.8628 60.5099 61.8628H63.4151C63.4974 61.8628 63.5641 61.7961 63.5641 61.7139V54.919Z" fill="#F7F7F7"/>
<path d="M64.4572 54.7701C64.375 54.7701 64.3083 54.8368 64.3083 54.919V61.7139C64.3083 61.7961 64.375 61.8628 64.4572 61.8628H67.3625C67.4448 61.8628 67.5115 61.7961 67.5115 61.7139V58.3317C67.5115 58.2005 67.6687 58.1334 67.7635 58.2241L71.3903 61.6973C71.5012 61.8035 71.6488 61.8628 71.8024 61.8628H74.665C74.7473 61.8628 74.8139 61.7961 74.8139 61.7139V54.919C74.8139 54.8368 74.7473 54.7701 74.665 54.7701H71.7597C71.6775 54.7701 71.6108 54.8368 71.6108 54.919V58.0022C71.6108 58.1338 71.4525 58.2008 71.358 58.109L68.0948 54.9385C67.9836 54.8305 67.8347 54.7701 67.6796 54.7701H64.4572Z" fill="#F7F7F7"/>
<path fill-rule="evenodd" clip-rule="evenodd" d="M34.3711 2.90267C34.3711 1.43745 35.9572 0.521695 37.2262 1.2543L51.3222 9.39269C52.5001 10.0727 53.2256 11.3294 53.2256 12.6894V28.9662C53.2256 30.4314 51.6395 31.3472 50.3706 30.6145L46.4525 28.3524L42.5344 26.0903C41.9454 25.7503 41.5827 25.122 41.5827 24.4419V18.4059C41.5827 17.7259 41.2199 17.0975 40.631 16.7575L35.3228 13.6928C34.7339 13.3528 34.3711 12.7245 34.3711 12.0444V7.47357V2.90267Z" fill="#F6F6F6"/>
<path d="M27.1703 18.3236C27.1703 17.6436 26.8075 17.0153 26.2186 16.6753L22.3005 14.4132L18.3824 12.151C17.1135 11.4184 15.5273 12.3342 15.5273 13.7994L15.5273 30.0762C15.5273 31.4362 16.2529 32.6929 17.4307 33.3729L31.5268 41.5113C32.7957 42.2439 34.3819 41.3281 34.3819 39.8629V35.292V30.7211C34.3819 30.0411 34.0191 29.4128 33.4302 29.0728L28.122 26.0081C27.5331 25.6681 27.1703 25.0397 27.1703 24.3597V18.3236Z" fill="url(#paint0_linear_2614_1152)"/>
<defs>
<linearGradient id="paint0_linear_2614_1152" x1="24.9546" y1="10.5025" x2="24.9546" y2="43.1595" gradientUnits="userSpaceOnUse">
<stop stop-color="#FFB11B"/>
<stop offset="1" stop-color="#FF441B"/>
</linearGradient>
</defs>
</svg>
