<svg width="20" height="15" viewBox="0 0 20 15" fill="none" xmlns="http://www.w3.org/2000/svg">
<path d="M16.1804 1.1767C14.9745 0.632864 13.6819 0.230896 12.3302 0.00232524C12.3182 1.42516e-05 12.3057 0.00150354 12.2946 0.00658716C12.2834 0.0116708 12.2741 0.0200972 12.268 0.0306995C12.1024 0.321536 11.918 0.700647 11.7887 1.00015C10.3551 0.785957 8.89765 0.785957 7.46404 1.00015C7.32007 0.668222 7.15771 0.344569 6.97773 0.0306995C6.97163 0.0199667 6.9624 0.0113496 6.95128 0.00599824C6.94015 0.000646826 6.92766 -0.00118448 6.91547 0.000748823C5.56454 0.229319 4.27193 0.631288 3.06524 1.17592C3.05486 1.18027 3.04606 1.1877 3.04002 1.1972C0.587223 4.80309 -0.0850886 8.31992 0.245156 11.7926C0.246075 11.8011 0.248715 11.8094 0.252916 11.8168C0.257116 11.8243 0.262789 11.8308 0.269589 11.836C1.70122 12.8783 3.29802 13.6723 4.99311 14.1847C5.00493 14.1884 5.01757 14.1884 5.02938 14.1847C5.04119 14.181 5.05162 14.1739 5.05932 14.1642C5.42346 13.6756 5.74818 13.1593 6.02562 12.617C6.04217 12.5855 6.02641 12.5477 5.99331 12.5351C5.48415 12.3433 4.99082 12.112 4.51784 11.8431C4.50935 11.8382 4.50218 11.8313 4.497 11.823C4.49182 11.8147 4.48878 11.8053 4.48816 11.7955C4.48753 11.7857 4.48934 11.776 4.49342 11.7671C4.4975 11.7582 4.50373 11.7504 4.51154 11.7445C4.61085 11.6712 4.71016 11.5948 4.80474 11.5183C4.81325 11.5115 4.82351 11.5071 4.83436 11.5057C4.84522 11.5043 4.85624 11.5059 4.86622 11.5105C7.96137 12.9008 11.3135 12.9008 14.3724 11.5105C14.3824 11.5057 14.3935 11.5038 14.4045 11.5051C14.4155 11.5063 14.426 11.5106 14.4346 11.5175C14.5292 11.5948 14.6277 11.6712 14.7278 11.7445C14.7357 11.7503 14.7421 11.7579 14.7463 11.7668C14.7505 11.7756 14.7524 11.7853 14.752 11.7951C14.7515 11.8048 14.7486 11.8143 14.7436 11.8227C14.7386 11.8311 14.7315 11.8381 14.7231 11.8431C14.2518 12.1142 13.7615 12.3435 13.2469 12.5343C13.239 12.5372 13.2318 12.5417 13.2257 12.5476C13.2197 12.5534 13.215 12.5605 13.212 12.5684C13.2089 12.5762 13.2076 12.5846 13.208 12.593C13.2085 12.6014 13.2107 12.6096 13.2146 12.617C13.4983 13.1585 13.823 13.674 14.1801 14.1634C14.1875 14.1735 14.1978 14.181 14.2097 14.1849C14.2215 14.1889 14.2343 14.1891 14.2463 14.1855C15.9443 13.6745 17.5437 12.8801 18.9769 11.836C18.9839 11.8311 18.9897 11.8248 18.9941 11.8174C18.9984 11.8101 19.0012 11.8019 19.0021 11.7934C19.3962 7.77845 18.3416 4.28999 16.2049 1.19877C16.1996 1.18873 16.191 1.1809 16.1804 1.1767ZM6.48828 9.67795C5.55666 9.67795 4.78819 8.83539 4.78819 7.80209C4.78819 6.76801 5.54168 5.92624 6.48828 5.92624C7.44197 5.92624 8.20334 6.7751 8.18837 7.80209C8.18837 8.83618 7.43488 9.67795 6.48828 9.67795ZM12.774 9.67795C11.8416 9.67795 11.0739 8.83539 11.0739 7.80209C11.0739 6.76801 11.8266 5.92624 12.774 5.92624C13.7277 5.92624 14.489 6.7751 14.4741 7.80209C14.4741 8.83618 13.7284 9.67795 12.774 9.67795Z" fill="#6D7582"/>
</svg>
