<?xml version="1.0" standalone="no"?>
<!DOCTYPE svg PUBLIC "-//W3C//DTD SVG 20010904//EN"
 "http://www.w3.org/TR/2001/REC-SVG-20010904/DTD/svg10.dtd">
<svg version="1.0" xmlns="http://www.w3.org/2000/svg"
 width="928.000000pt" height="928.000000pt" viewBox="0 0 928.000000 928.000000"
 preserveAspectRatio="xMidYMid meet">
<metadata>
Created by potrace 1.14, written by Peter Selinger 2001-2017
</metadata>
<g transform="translate(0.000000,928.000000) scale(0.100000,-0.100000)"
fill="#000000" stroke="none">
<path d="M4854 9195 c-21 -6 -42 -12 -46 -14 -88 -27 -198 -123 -237 -206 -47
-99 -47 -91 -46 -1225 2 -1193 -2 -1131 68 -1236 35 -54 105 -124 124 -124 6
0 13 -3 15 -8 4 -9 147 -92 159 -92 5 0 9 -4 9 -10 0 -5 9 -10 19 -10 11 0 21
-3 23 -8 3 -8 125 -82 135 -82 3 0 17 -8 31 -19 15 -10 47 -29 72 -43 25 -14
65 -37 90 -52 25 -15 53 -29 63 -33 9 -3 17 -9 17 -14 0 -5 4 -9 9 -9 9 0 362
-199 371 -210 3 -3 19 -12 35 -20 91 -45 205 -121 247 -163 51 -51 104 -150
114 -213 4 -21 8 -370 9 -774 2 -817 -2 -774 70 -885 31 -48 115 -134 115
-118 0 4 4 3 8 -3 4 -6 25 -21 47 -33 22 -12 47 -26 55 -31 55 -35 223 -130
231 -130 5 0 9 -4 9 -10 0 -5 5 -10 11 -10 6 0 37 -15 68 -34 31 -18 76 -45
101 -58 25 -14 85 -48 133 -77 49 -28 92 -51 97 -51 5 0 10 -4 12 -8 2 -4 30
-23 63 -41 33 -19 76 -43 95 -54 19 -11 46 -27 60 -34 14 -8 39 -23 55 -33 17
-11 44 -26 60 -34 17 -9 37 -20 45 -26 41 -27 223 -130 231 -130 5 0 9 -5 9
-11 0 -5 4 -8 9 -4 5 3 12 1 15 -4 3 -5 52 -35 108 -67 57 -31 111 -64 121
-72 9 -8 17 -12 17 -8 0 4 20 -7 44 -24 25 -16 49 -30 53 -30 5 0 15 -6 22
-12 6 -7 15 -13 19 -14 4 0 21 -6 37 -13 67 -28 186 -35 260 -16 142 37 268
166 305 314 9 32 12 560 11 1915 0 1029 -3 1887 -5 1906 -25 204 -108 373
-247 510 -80 78 -108 98 -234 170 -16 10 -70 41 -118 69 -49 28 -93 51 -98 51
-5 0 -9 4 -9 9 0 5 -11 12 -25 15 -14 4 -25 11 -25 16 0 6 -5 10 -10 10 -6 0
-54 25 -108 56 -53 31 -113 66 -132 77 -19 11 -48 28 -65 38 -16 11 -43 26
-60 34 -16 9 -39 21 -50 28 -31 19 -93 56 -128 76 -203 114 -533 307 -535 313
-2 4 -9 8 -16 8 -7 0 -33 13 -59 30 -26 16 -47 27 -47 24 0 -2 -6 0 -12 6 -19
15 -79 53 -108 68 -14 7 -43 23 -65 35 -22 13 -56 32 -75 42 -19 11 -37 22
-40 25 -10 10 -153 90 -161 90 -5 0 -9 5 -9 10 0 6 -5 10 -11 10 -6 0 -39 17
-73 37 -33 21 -63 38 -66 38 -3 0 -16 8 -30 16 -64 41 -183 109 -190 109 -4 0
-13 7 -20 15 -7 8 -20 15 -30 15 -10 0 -21 7 -24 16 -4 9 -9 14 -13 11 -3 -4
-18 2 -32 12 -23 16 -51 33 -151 88 -14 8 -38 23 -55 33 -16 11 -37 23 -45 27
-8 4 -37 20 -65 36 -58 34 -101 59 -165 95 -25 14 -62 36 -82 49 -21 12 -42
23 -48 23 -5 0 -10 4 -10 8 0 7 -21 17 -105 49 -50 19 -168 24 -221 8z"/>
<path d="M697 6774 c-1 -1 -20 -5 -41 -8 -22 -4 -45 -11 -53 -17 -7 -6 -13 -8
-13 -4 0 14 -95 -49 -143 -94 -27 -25 -56 -61 -65 -81 -9 -19 -19 -37 -23 -40
-3 -3 -14 -30 -22 -60 -15 -50 -16 -227 -14 -1965 2 -1050 6 -1922 10 -1937 4
-16 9 -39 11 -52 9 -52 92 -244 116 -266 3 -3 18 -23 34 -45 51 -69 150 -158
230 -208 42 -26 81 -47 86 -47 6 0 10 -4 10 -10 0 -5 4 -10 9 -10 8 0 151 -80
161 -90 3 -3 30 -18 60 -34 30 -16 62 -35 71 -42 8 -8 18 -14 22 -14 3 0 145
-80 314 -178 169 -98 351 -202 403 -232 52 -30 97 -56 100 -59 3 -3 35 -22 73
-41 37 -19 67 -37 67 -40 0 -3 15 -12 33 -19 17 -8 56 -30 85 -48 28 -19 60
-37 70 -40 9 -4 33 -18 52 -31 19 -13 51 -31 70 -40 19 -9 40 -20 45 -25 6 -5
35 -23 67 -40 31 -18 122 -70 203 -117 196 -113 185 -107 305 -175 58 -32 107
-62 110 -65 3 -3 19 -12 35 -20 33 -17 93 -54 112 -70 7 -5 17 -10 22 -10 6 0
35 -16 65 -35 30 -19 57 -35 60 -35 3 0 35 -18 71 -40 36 -22 70 -40 75 -40 6
0 10 -4 10 -10 0 -5 4 -10 9 -10 5 0 80 -41 168 -91 185 -107 233 -126 330
-127 164 -1 311 88 385 236 16 30 31 67 35 81 9 39 11 2221 1 2227 -4 3 -8 16
-8 28 0 37 -59 141 -107 189 -37 37 -129 95 -362 228 -107 61 -128 73 -156 90
-16 11 -41 24 -55 31 -14 7 -27 15 -30 18 -3 3 -16 11 -30 18 -14 7 -38 20
-55 31 -29 17 -62 37 -142 82 -74 42 -298 172 -323 188 -14 8 -27 16 -30 16
-20 1 -167 105 -196 139 -44 51 -90 147 -99 206 -3 25 -7 364 -7 754 0 755 -1
773 -50 866 -27 53 -121 149 -169 173 -19 10 -47 26 -64 36 -92 56 -122 72
-137 78 -10 3 -18 9 -18 14 0 5 -5 9 -11 9 -6 0 -39 17 -73 37 -91 56 -138 83
-168 96 -16 6 -28 15 -28 19 0 4 -4 8 -9 8 -5 0 -38 17 -72 38 -35 21 -77 44
-94 52 -16 8 -32 18 -35 21 -3 3 -63 39 -135 79 -71 41 -132 76 -135 79 -3 3
-21 14 -40 23 -19 10 -42 22 -50 28 -58 37 -170 100 -179 100 -6 0 -11 5 -11
10 0 6 -5 10 -11 10 -6 0 -49 23 -97 51 -48 29 -103 61 -122 72 -60 33 -204
117 -220 127 -40 25 -143 68 -170 69 -70 5 -121 7 -123 5z"/>
</g>
</svg>
