<svg width="332" height="170" viewBox="0 0 332 170" fill="none" xmlns="http://www.w3.org/2000/svg">
<g clip-path="url(#clip0_2193_9767)">
<path d="M242.592 152.744C242.592 152.744 238.277 144.122 238.026 138.613C237.775 133.104 233.955 103.815 230.843 93.9912C227.73 84.1674 215.274 70.691 203.54 62.6174C200.968 60.852 189.166 54.2469 189.166 54.2469L187.248 88.969C187.248 88.969 204.255 109.088 205.214 117.71C206.173 126.332 201.158 141.649 204.453 147.387C210.267 157.614 206.827 152.485 213.798 162.606L242.592 152.744Z" fill="white"/>
<path d="M213.804 162.999C213.742 162.999 213.681 162.984 213.627 162.955C213.573 162.926 213.526 162.883 213.492 162.832L212.153 160.838C208.713 155.839 208.713 155.839 207.473 153.541C206.864 152.422 205.951 150.725 204.163 147.575C202.207 144.128 203.075 137.683 204.003 130.834C204.642 126.147 205.297 121.299 204.901 117.723C203.965 109.314 187.194 89.3852 187.026 89.1874C186.967 89.1112 186.935 89.0175 186.935 88.921L188.853 54.1914C188.856 54.1269 188.877 54.0644 188.911 54.0098C188.946 53.9552 188.994 53.9103 189.05 53.8794C189.105 53.8458 189.169 53.828 189.233 53.828C189.298 53.828 189.361 53.8458 189.416 53.8794C189.903 54.1534 201.271 60.5301 203.82 62.2498C214.634 69.6843 227.927 83.2748 231.268 93.8216C234.411 103.714 238.223 132.835 238.474 138.542C238.71 143.907 242.941 152.437 242.986 152.521C243.009 152.57 243.021 152.623 243.021 152.677C243.021 152.731 243.009 152.784 242.986 152.833C242.967 152.885 242.937 152.931 242.898 152.969C242.858 153.008 242.81 153.036 242.758 153.054L213.956 162.946C213.911 162.977 213.859 162.995 213.804 162.999V162.999ZM187.666 88.8297C189.187 90.6484 204.688 109.269 205.624 117.662C206.027 121.33 205.365 126.223 204.718 130.956C203.851 137.363 202.953 143.983 204.787 147.21C206.621 150.436 207.496 152.064 208.105 153.191C209.322 155.474 209.322 155.474 212.746 160.412L213.956 162.17L242.073 152.521C241.221 150.756 237.888 143.549 237.675 138.626C237.432 133.109 233.566 103.744 230.507 94.1107C227.615 84.9793 215.942 71.5867 203.349 62.9119C201.142 61.39 191.874 56.1623 189.545 54.8458L187.666 88.8297Z" fill="#282929"/>
<path d="M90.4019 152.744C90.4019 152.744 94.7164 144.122 94.9675 138.613C95.2187 133.104 99.0386 103.815 102.151 93.9912C105.263 84.1674 117.72 70.691 129.454 62.6174C132.026 60.852 143.828 54.2469 143.828 54.2469L145.746 88.969C145.746 88.969 128.738 109.088 127.78 117.71C126.821 126.332 131.835 141.649 128.541 147.387C122.727 157.614 126.166 152.485 119.196 162.606L90.4019 152.744Z" fill="white"/>
<path d="M119.188 163C119.148 163.008 119.106 163.008 119.066 163L90.2644 153.108C90.2122 153.09 90.1646 153.062 90.1251 153.023C90.0855 152.985 90.0551 152.938 90.0361 152.887C90.0136 152.838 90.002 152.785 90.002 152.731C90.002 152.677 90.0136 152.624 90.0361 152.575C90.0818 152.491 94.3127 143.961 94.5486 138.596C94.7997 132.889 98.612 103.791 101.755 93.8754C105.095 83.3287 118.389 69.7381 129.202 62.3037C131.751 60.5535 143.12 54.1768 143.607 53.9333C143.662 53.8996 143.725 53.8818 143.789 53.8818C143.854 53.8818 143.917 53.8996 143.972 53.9333C144.029 53.9642 144.077 54.009 144.111 54.0636C144.146 54.1182 144.166 54.1807 144.17 54.2452L146.088 88.9749C146.088 89.0714 146.055 89.1651 145.996 89.2412C145.829 89.4391 129.058 109.368 128.122 117.777C127.726 121.353 128.38 126.2 129.019 130.888C129.948 137.736 130.815 144.166 128.86 147.629C127.071 150.779 126.158 152.476 125.55 153.595C124.309 155.877 124.309 155.877 120.87 160.892L119.492 162.886C119.454 162.927 119.406 162.958 119.353 162.978C119.301 162.997 119.244 163.005 119.188 163V163ZM90.9188 152.514L119.036 162.163L120.246 160.405C123.67 155.444 123.67 155.444 124.888 153.184C125.496 152.057 126.409 150.353 128.205 147.203C130.001 144.052 129.141 137.356 128.274 130.949C127.627 126.216 126.965 121.323 127.368 117.655C128.304 109.285 143.797 90.6414 145.327 88.8227L143.447 54.854C141.119 56.1704 131.85 61.4058 129.643 62.92C117.05 71.5796 105.377 84.9875 102.485 94.1189C99.4415 103.752 95.5606 133.117 95.3171 138.634C95.1041 143.542 91.7711 150.749 90.9188 152.514Z" fill="#282929"/>
<path d="M193.936 4.40784H139.049C136.834 4.40784 135.039 6.20326 135.039 8.41803V125.802C135.039 128.017 136.834 129.812 139.049 129.812H193.936C196.151 129.812 197.947 128.017 197.947 125.802V8.41803C197.947 6.20326 196.151 4.40784 193.936 4.40784Z" fill="white"/>
<path d="M193.944 130.192H139.049C137.885 130.19 136.77 129.727 135.947 128.904C135.124 128.081 134.661 126.966 134.659 125.802V8.41801C134.661 7.25415 135.124 6.13854 135.947 5.31556C136.77 4.49259 137.885 4.02936 139.049 4.02734H193.944C195.108 4.02936 196.224 4.49259 197.047 5.31556C197.87 6.13854 198.333 7.25415 198.335 8.41801V125.802C198.333 126.966 197.87 128.081 197.047 128.904C196.224 129.727 195.108 130.19 193.944 130.192V130.192ZM139.049 4.78829C138.087 4.7903 137.165 5.17336 136.485 5.85363C135.805 6.5339 135.422 7.45597 135.42 8.41801V125.802C135.422 126.764 135.805 127.686 136.485 128.366C137.165 129.046 138.087 129.429 139.049 129.431H193.944C194.906 129.429 195.828 129.046 196.508 128.366C197.189 127.686 197.572 126.764 197.574 125.802V8.41801C197.572 7.45597 197.189 6.5339 196.508 5.85363C195.828 5.17336 194.906 4.7903 193.944 4.78829H139.049Z" fill="#282929"/>
<path d="M194.644 15.7531H138.342V112.264H194.644V15.7531Z" fill="white"/>
<path d="M194.652 112.645H138.341C138.241 112.643 138.145 112.602 138.075 112.531C138.004 112.46 137.963 112.365 137.961 112.264V15.7761C137.961 15.6752 138.001 15.5784 138.072 15.5071C138.144 15.4357 138.241 15.3956 138.341 15.3956H194.652C194.752 15.3956 194.849 15.4357 194.921 15.5071C194.992 15.5784 195.032 15.6752 195.032 15.7761V112.264C195.03 112.365 194.989 112.46 194.918 112.531C194.847 112.602 194.752 112.643 194.652 112.645ZM138.722 111.884H194.271V16.1337H138.722V111.884Z" fill="#282929"/>
<path d="M171.845 116.949H161.139C159.777 116.949 158.673 118.053 158.673 119.415V123.509C158.673 124.87 159.777 125.974 161.139 125.974H171.845C173.207 125.974 174.311 124.87 174.311 123.509V119.415C174.311 118.053 173.207 116.949 171.845 116.949Z" fill="white"/>
<path d="M171.822 126.366H161.169C160.415 126.364 159.692 126.064 159.159 125.53C158.626 124.997 158.325 124.274 158.323 123.52V119.426C158.323 118.671 158.623 117.946 159.156 117.411C159.69 116.876 160.414 116.575 161.169 116.573H171.822C172.578 116.575 173.302 116.876 173.835 117.411C174.369 117.946 174.668 118.671 174.668 119.426V123.52C174.666 124.274 174.366 124.997 173.833 125.53C173.299 126.064 172.577 126.364 171.822 126.366V126.366ZM161.169 117.334C160.616 117.336 160.085 117.557 159.694 117.949C159.304 118.341 159.084 118.873 159.084 119.426V123.52C159.084 123.794 159.138 124.065 159.243 124.318C159.348 124.571 159.501 124.801 159.695 124.994C159.888 125.188 160.118 125.342 160.371 125.446C160.624 125.551 160.895 125.605 161.169 125.605H171.822C172.096 125.605 172.367 125.551 172.62 125.446C172.873 125.342 173.103 125.188 173.297 124.994C173.49 124.801 173.644 124.571 173.749 124.318C173.854 124.065 173.907 123.794 173.907 123.52V119.426C173.907 118.873 173.688 118.341 173.297 117.949C172.906 117.557 172.376 117.336 171.822 117.334H161.169Z" fill="#282929" fill-opacity="0.2"/>
<path d="M172.181 10.2226H156.148C156.047 10.2207 155.952 10.18 155.881 10.109C155.81 10.0381 155.769 9.94244 155.767 9.84214C155.767 9.74124 155.807 9.64446 155.879 9.57311C155.95 9.50176 156.047 9.46167 156.148 9.46167H172.181C172.282 9.46167 172.378 9.50176 172.45 9.57311C172.521 9.64446 172.561 9.74124 172.561 9.84214C172.561 9.94305 172.521 10.0398 172.45 10.1112C172.378 10.1825 172.282 10.2226 172.181 10.2226Z" fill="#282929" fill-opacity="0.2"/>
<path d="M176.579 10.2226H174.433C174.332 10.2226 174.236 10.1825 174.164 10.1112C174.093 10.0398 174.053 9.94305 174.053 9.84214C174.053 9.74124 174.093 9.64446 174.164 9.57311C174.236 9.50176 174.332 9.46167 174.433 9.46167H176.579C176.68 9.46167 176.777 9.50176 176.848 9.57311C176.919 9.64446 176.96 9.74124 176.96 9.84214C176.96 9.94305 176.919 10.0398 176.848 10.1112C176.777 10.1825 176.68 10.2226 176.579 10.2226Z" fill="#282929" fill-opacity="0.2"/>
<path d="M194.652 21.5832H138.341C138.241 21.5813 138.145 21.5406 138.075 21.4696C138.004 21.3987 137.963 21.303 137.961 21.2027C137.961 21.1018 138.001 21.0051 138.072 20.9337C138.144 20.8624 138.241 20.8223 138.341 20.8223H194.652C194.752 20.8223 194.849 20.8624 194.921 20.9337C194.992 21.0051 195.032 21.1018 195.032 21.2027C195.03 21.303 194.989 21.3987 194.918 21.4696C194.847 21.5406 194.752 21.5813 194.652 21.5832Z" fill="#282929"/>
<path d="M192.171 25.4956H189.059H188.922H166.39C166.012 25.5074 165.653 25.6655 165.389 25.9366C165.125 26.2077 164.976 26.5706 164.975 26.949V32.6409C164.977 33.0258 165.13 33.3943 165.403 33.6664C165.675 33.9385 166.043 34.0923 166.428 34.0943H188.96C189.345 34.0943 189.715 33.9412 189.987 33.6686C190.26 33.3961 190.413 33.0264 190.413 32.6409V27.3143L192.171 25.4956Z" fill="#282929" fill-opacity="0.2"/>
<path d="M143.98 53.6973H147.092H147.229H169.761C170.146 53.6973 170.516 53.8504 170.789 54.123C171.061 54.3955 171.214 54.7652 171.214 55.1507V64.0081C171.215 64.1992 171.178 64.3887 171.106 64.5655C171.033 64.7423 170.926 64.9029 170.791 65.0381C170.656 65.1732 170.495 65.2802 170.318 65.3529C170.141 65.4256 169.952 65.4625 169.761 65.4615H147.229C146.844 65.4615 146.474 65.3084 146.202 65.0358C145.929 64.7633 145.776 64.3936 145.776 64.0081V55.4931L143.98 53.6973Z" fill="#282929" fill-opacity="0.2"/>
<path d="M143.98 82.2717H147.092H147.229H173.786C174.17 82.2737 174.538 82.4277 174.809 82.7001C175.08 82.9724 175.232 83.341 175.232 83.7251V95.9992C175.232 96.3834 175.08 96.7519 174.809 97.0243C174.538 97.2966 174.17 97.4506 173.786 97.4526H147.229C146.844 97.4506 146.476 97.2969 146.204 97.0247C145.932 96.7526 145.778 96.3841 145.776 95.9992V84.0676L143.98 82.2717Z" fill="#282929" fill-opacity="0.2"/>
<path d="M192.171 69.0818H189.058H188.921H166.39C166.006 69.0918 165.641 69.2535 165.376 69.5315C165.111 69.8096 164.966 70.1814 164.974 70.5656V76.2499C164.974 76.6354 165.128 77.0051 165.4 77.2776C165.673 77.5502 166.042 77.7033 166.428 77.7033H188.96C189.151 77.7043 189.34 77.6674 189.517 77.5947C189.694 77.5221 189.854 77.415 189.989 77.2799C190.125 77.1447 190.232 76.9841 190.304 76.8073C190.377 76.6305 190.414 76.4411 190.413 76.2499V70.9233L192.171 69.0818Z" fill="#282929" fill-opacity="0.2"/>
<path d="M188.366 36.0837H160.652C159.543 36.0837 158.644 36.9832 158.644 38.0926V47.4903C158.644 48.5998 159.543 49.4992 160.652 49.4992H188.366C189.476 49.4992 190.375 48.5998 190.375 47.4903V38.0926C190.375 36.9832 189.476 36.0837 188.366 36.0837Z" fill="#282929" fill-opacity="0.2"/>
<path d="M188.321 102.364H144.673C142.929 102.364 141.515 103.778 141.515 105.522C141.515 107.266 142.929 108.68 144.673 108.68H188.321C190.065 108.68 191.478 107.266 191.478 105.522C191.478 103.778 190.065 102.364 188.321 102.364Z" fill="white"/>
<path d="M188.321 109.057H144.673C143.734 109.057 142.834 108.684 142.171 108.02C141.507 107.357 141.134 106.457 141.134 105.518C141.134 104.58 141.507 103.68 142.171 103.016C142.834 102.353 143.734 101.98 144.673 101.98H188.321C189.259 101.98 190.159 102.353 190.823 103.016C191.486 103.68 191.859 104.58 191.859 105.518C191.859 106.457 191.486 107.357 190.823 108.02C190.159 108.684 189.259 109.057 188.321 109.057V109.057ZM144.673 102.741C143.936 102.741 143.23 103.033 142.709 103.554C142.188 104.075 141.895 104.782 141.895 105.518C141.895 106.255 142.188 106.961 142.709 107.482C143.23 108.003 143.936 108.296 144.673 108.296H188.321C189.057 108.296 189.764 108.003 190.285 107.482C190.805 106.961 191.098 106.255 191.098 105.518C191.098 104.782 190.805 104.075 190.285 103.554C189.764 103.033 189.057 102.741 188.321 102.741H144.673Z" fill="#282929" fill-opacity="0.2"/>
<path d="M122.978 157.099C122.978 157.099 135.411 146.857 136.37 135.115C137.329 123.374 135.411 111.229 136.85 108.589C138.288 105.948 148.309 91.5891 150.516 87.7539C153.393 82.724 149.078 78.1736 145.951 80.0912C142.823 82.0088 130.625 88.9486 124.157 98.293C121.23 101.677 118.81 105.468 116.974 109.547" fill="white"/>
<path d="M122.978 157.479C122.921 157.478 122.865 157.464 122.813 157.439C122.762 157.414 122.717 157.378 122.681 157.334C122.618 157.256 122.588 157.157 122.598 157.057C122.608 156.957 122.657 156.866 122.734 156.802C122.856 156.703 135.061 146.521 135.99 135.084C136.337 129.665 136.362 124.23 136.066 118.808C135.868 113.603 135.731 109.851 136.515 108.405C137.215 107.127 139.909 103.124 142.755 98.8936C145.844 94.3279 149.048 89.5415 150.174 87.5631C151.696 84.8465 151.049 82.3049 149.687 80.9885C149.254 80.4985 148.666 80.1731 148.021 80.0677C147.376 79.9623 146.714 80.0833 146.148 80.4102L145.319 80.92C141.24 83.3855 130.412 89.922 124.469 98.5055C121.562 101.879 119.154 105.651 117.316 109.707C117.273 109.797 117.197 109.867 117.103 109.903C117.01 109.938 116.906 109.936 116.814 109.897C116.723 109.852 116.653 109.775 116.617 109.68C116.582 109.585 116.584 109.48 116.624 109.387C118.481 105.271 120.927 101.447 123.883 98.0337C129.879 89.3589 140.807 82.7539 144.923 80.2732L145.753 79.7634C146.462 79.3499 147.291 79.1916 148.102 79.3148C148.913 79.438 149.658 79.8353 150.212 80.4406C151.787 81.9625 152.586 84.8693 150.836 87.9435C149.694 89.9448 146.483 94.7084 143.386 99.3197C140.548 103.535 137.869 107.523 137.184 108.771C136.5 110.019 136.644 113.892 136.827 118.777C137.123 124.23 137.098 129.695 136.751 135.145C135.792 146.909 123.343 157.289 123.221 157.388C123.153 157.445 123.067 157.477 122.978 157.479V157.479Z" fill="#282929"/>
<path d="M126.113 174.77C126.508 173.067 126.735 171.329 126.79 169.581C126.79 167.374 124.507 164.208 124.507 164.208L125.892 157.101C125.892 157.101 90.1276 143.153 88.6894 145.071C87.2513 146.988 84.3749 157.101 84.3749 157.101C84.3749 157.101 79.8092 159.803 78.3862 162.618C77.5568 164.239 76.1034 170.098 75 174.793L126.113 174.77Z" fill="url(#paint0_linear_2193_9767)"/>
<path d="M210.015 157.099C210.015 157.099 197.581 146.857 196.622 135.115C195.663 123.374 197.581 111.229 196.143 108.589C194.705 105.948 184.683 91.5891 182.476 87.7539C179.6 82.724 183.914 78.1736 187.042 80.0912C190.169 82.0088 202.367 88.9486 208.835 98.293C211.762 101.677 214.182 105.468 216.019 109.547" fill="white"/>
<path d="M210.015 157.479C209.926 157.477 209.84 157.445 209.771 157.388C209.65 157.289 197.201 146.909 196.242 135.145C195.895 129.695 195.869 124.23 196.166 118.777C196.348 113.892 196.493 110.034 195.808 108.771C195.123 107.508 192.445 103.535 189.606 99.3197C186.509 94.7084 183.298 89.9448 182.157 87.9435C180.406 84.8998 181.205 81.9625 182.781 80.4406C183.335 79.8353 184.079 79.438 184.891 79.3148C185.702 79.1916 186.531 79.3499 187.24 79.7634L188.069 80.2732C192.186 82.7539 203.113 89.3589 209.147 98.0794C212.083 101.478 214.515 105.281 216.369 109.372C216.408 109.465 216.411 109.57 216.375 109.665C216.34 109.759 216.269 109.837 216.179 109.882C216.086 109.921 215.983 109.923 215.889 109.887C215.796 109.852 215.719 109.782 215.676 109.691C213.848 105.653 211.453 101.896 208.561 98.5359C202.58 89.9068 191.752 83.3703 187.673 80.9048L186.844 80.3949C186.278 80.0681 185.617 79.9471 184.972 80.0525C184.327 80.1579 183.738 80.4832 183.306 80.9733C181.944 82.2897 181.266 84.8313 182.819 87.5479C183.945 89.5263 187.148 94.2822 190.238 98.8784C193.084 103.109 195.778 107.112 196.478 108.39C197.239 109.836 197.124 113.587 196.927 118.792C196.63 124.215 196.656 129.65 197.003 135.069C197.931 146.483 210.137 156.688 210.258 156.786C210.336 156.85 210.385 156.942 210.395 157.042C210.405 157.142 210.375 157.241 210.312 157.319C210.277 157.366 210.232 157.405 210.181 157.432C210.13 157.46 210.073 157.476 210.015 157.479V157.479Z" fill="#282929"/>
<path d="M120.839 167.324H120.725L88.1562 157.47C88.1077 157.457 88.0623 157.434 88.0228 157.403C87.9833 157.372 87.9505 157.333 87.9263 157.289C87.9021 157.245 87.8871 157.196 87.8822 157.146C87.8772 157.096 87.8824 157.046 87.8975 156.998C87.929 156.902 87.9967 156.822 88.0862 156.775C88.1758 156.728 88.28 156.718 88.3769 156.747L120.945 166.593C120.993 166.607 121.038 166.631 121.077 166.662C121.116 166.693 121.149 166.732 121.173 166.776C121.197 166.819 121.212 166.868 121.217 166.917C121.223 166.967 121.218 167.017 121.204 167.065C121.177 167.141 121.128 167.206 121.063 167.252C120.997 167.299 120.919 167.324 120.839 167.324V167.324Z" fill="#282929"/>
<path d="M206.88 174.77H257.97C256.874 170.098 255.413 164.239 254.584 162.595C253.146 159.779 248.595 157.078 248.595 157.078C248.595 157.078 245.719 146.965 244.281 145.047C242.843 143.13 207.078 157.078 207.078 157.078L208.463 164.185C208.463 164.185 206.18 167.351 206.18 169.558C206.241 171.314 206.475 173.06 206.88 174.77V174.77Z" fill="url(#paint1_linear_2193_9767)"/>
<path d="M242.591 158.072L213.233 166.952Z" fill="white"/>
<path d="M213.249 167.328C213.167 167.327 213.088 167.3 213.022 167.251C212.956 167.201 212.908 167.133 212.884 167.054C212.856 166.957 212.867 166.853 212.916 166.765C212.964 166.676 213.046 166.611 213.143 166.582L242.5 157.702C242.601 157.674 242.709 157.687 242.8 157.738C242.892 157.79 242.959 157.875 242.987 157.976C243.015 158.077 243.002 158.185 242.951 158.276C242.899 158.368 242.814 158.435 242.713 158.463L213.356 167.343L213.249 167.328Z" fill="#282929"/>
<path d="M142.976 23.8584H92.7913C89.6435 23.8584 87.0918 26.4102 87.0918 29.5579V52.5157C87.0918 55.6634 89.6435 58.2152 92.7913 58.2152H142.976C146.124 58.2152 148.675 55.6634 148.675 52.5157V29.5579C148.675 26.4102 146.124 23.8584 142.976 23.8584Z" fill="#1F1F1F"/>
<path d="M103.011 50.4166C108.953 50.4166 113.771 45.5992 113.771 39.6568C113.771 33.7143 108.953 28.897 103.011 28.897C97.0683 28.897 92.251 33.7143 92.251 39.6568C92.251 45.5992 97.0683 50.4166 103.011 50.4166Z" fill="white"/>
<mask id="mask0_2193_9767" style="mask-type:alpha" maskUnits="userSpaceOnUse" x="92" y="28" width="22" height="23">
<path d="M103.01 50.4225C108.952 50.4225 113.77 45.6052 113.77 39.6628C113.77 33.7203 108.952 28.903 103.01 28.903C97.0673 28.903 92.25 33.7203 92.25 39.6628C92.25 45.6052 97.0673 50.4225 103.01 50.4225Z" fill="white"/>
</mask>
<g mask="url(#mask0_2193_9767)">
<path d="M102.211 53.2865L100.689 42.1234L106.016 42.8387L107.903 53.2865L112.469 52.8756C112.347 47.4957 110.384 42.9376 108.984 41.8875C107.302 40.6395 100.842 40.845 100.842 40.845C100.842 40.845 95.6975 43.0289 94.3659 45.4868C93.7876 46.5521 93.4375 49.5502 93.6049 53.2865H102.211Z" fill="url(#paint2_linear_2193_9767)"/>
</g>
<path d="M98.5589 33.9275C98.4312 35.4052 98.6152 36.8933 99.0991 38.2953C99.2198 38.7045 99.4304 39.0815 99.7155 39.3987C100.085 39.709 100.537 39.9047 101.017 39.9618C101.784 40.1101 102.564 40.1865 103.345 40.1901C104.154 40.2611 104.962 40.0456 105.628 39.5813C106.389 38.9421 106.305 38.1431 106.648 37.2985C106.914 36.6517 107.629 36.4462 107.88 35.7385C107.992 35.3715 108.021 34.9842 107.964 34.6047C107.876 33.572 107.457 32.5953 106.769 31.8197C106.308 31.3944 105.768 31.0646 105.179 30.8491C104.59 30.6336 103.964 30.5368 103.338 30.5641C102.166 30.5641 100.88 30.2597 100.758 31.7284C100.545 31.6692 100.321 31.6612 100.104 31.7048C99.8872 31.7484 99.6837 31.8425 99.5101 31.9795C98.9581 32.4852 98.6182 33.1812 98.5589 33.9275V33.9275Z" fill="white"/>
<path d="M103.437 40.5842H103.338C102.534 40.5751 101.731 40.4936 100.941 40.3407C100.378 40.2798 99.8476 40.0489 99.4194 39.6787C99.0825 39.3215 98.8371 38.8881 98.7041 38.4155C98.1973 36.9502 98.008 35.3939 98.1486 33.8498C98.2182 33.0033 98.6105 32.216 99.2443 31.6507C99.5781 31.3947 99.988 31.258 100.409 31.2626C100.728 30.0451 101.93 30.0907 102.844 30.1364H103.323C104.006 30.0989 104.689 30.2003 105.331 30.4344C105.973 30.6685 106.561 31.0305 107.059 31.4985C107.809 32.346 108.263 33.4143 108.353 34.5423C108.418 34.9804 108.384 35.4277 108.254 35.8511C108.09 36.2391 107.828 36.5775 107.493 36.8327C107.291 36.9911 107.125 37.1909 107.006 37.4186C106.916 37.6671 106.842 37.9213 106.785 38.1796C106.692 38.8378 106.368 39.4416 105.872 39.8841C105.164 40.3888 104.305 40.6359 103.437 40.5842V40.5842ZM98.9552 33.9792C98.8275 35.3952 99.0039 36.8221 99.4726 38.1644C99.5708 38.5165 99.7477 38.8418 99.9901 39.1156C100.303 39.3711 100.684 39.5298 101.086 39.5721C101.838 39.7176 102.602 39.794 103.369 39.8004C104.093 39.8583 104.816 39.6736 105.423 39.2754C105.786 38.9415 106.016 38.4873 106.07 37.997C106.135 37.7044 106.221 37.417 106.329 37.1371C106.485 36.7936 106.723 36.4933 107.021 36.262C107.255 36.0897 107.439 35.8587 107.554 35.5924C107.648 35.2819 107.671 34.9543 107.622 34.6336C107.543 33.6845 107.161 32.7858 106.534 32.0692C105.648 31.3114 104.502 30.9268 103.338 30.9962H102.828C101.641 30.943 101.215 30.9962 101.147 31.8105C101.143 31.8694 101.126 31.9268 101.097 31.9782C101.068 32.0296 101.028 32.0738 100.979 32.1072C100.931 32.1399 100.876 32.1616 100.818 32.1708C100.76 32.18 100.701 32.1765 100.644 32.1605C100.494 32.1178 100.336 32.1114 100.182 32.1418C100.029 32.1722 99.8846 32.2386 99.7618 32.3355C99.2848 32.7764 98.9959 33.3841 98.9552 34.0324V33.9792Z" fill="#282929"/>
<path d="M106.039 39.6693L106.564 42.5609C106.37 43.0867 106.007 43.5332 105.532 43.8306C105.057 44.128 104.497 44.2595 103.939 44.2046C103.372 44.1283 102.83 43.9278 102.349 43.6174C101.869 43.3069 101.464 42.8942 101.162 42.4088L100.614 37.0821C100.614 37.0821 101.938 36.1918 101.2 33.2013C102.812 33.7 104.528 33.7552 106.169 33.3611C106.169 33.3611 107.371 36.5571 107.295 38.0409C107.309 38.4164 107.191 38.7849 106.962 39.0825C106.733 39.38 106.406 39.5877 106.039 39.6693V39.6693Z" fill="white"/>
<path d="M104.282 44.6257C104.15 44.6327 104.018 44.6327 103.886 44.6257C103.259 44.533 102.661 44.3019 102.134 43.9492C101.608 43.5964 101.166 43.1309 100.842 42.5864C100.818 42.542 100.805 42.4924 100.804 42.4418L100.256 37.1152C100.249 37.0452 100.262 36.9747 100.293 36.9116C100.324 36.8485 100.372 36.7951 100.431 36.7575C100.431 36.7575 101.496 35.9281 100.85 33.2876C100.834 33.2191 100.838 33.1477 100.859 33.0809C100.88 33.014 100.919 32.954 100.971 32.9071C101.024 32.8587 101.088 32.8258 101.158 32.8124C101.228 32.7989 101.301 32.8054 101.367 32.831C102.907 33.2959 104.542 33.3458 106.108 32.9756C106.2 32.9546 106.298 32.9677 106.381 33.0124C106.465 33.0571 106.53 33.1305 106.564 33.2191C106.618 33.3561 107.797 36.5064 107.721 38.0587C107.727 38.4584 107.617 38.8513 107.404 39.1892C107.19 39.5271 106.882 39.7953 106.519 39.9611L106.983 42.5179C106.998 42.5856 106.998 42.6557 106.983 42.7233C106.778 43.2766 106.41 43.7546 105.928 44.0943C105.446 44.434 104.871 44.6193 104.282 44.6257V44.6257ZM101.542 42.2439C101.811 42.6691 102.17 43.0303 102.593 43.3024C103.016 43.5745 103.494 43.7508 103.992 43.8191C104.445 43.8681 104.902 43.7674 105.292 43.5324C105.682 43.2974 105.985 42.9411 106.153 42.5179L105.621 39.7404C105.605 39.634 105.63 39.5255 105.689 39.436C105.752 39.3533 105.845 39.2986 105.948 39.2839C106.232 39.2172 106.482 39.0504 106.652 38.8142C106.823 38.5779 106.902 38.2881 106.876 37.9979C106.93 36.8716 106.176 34.6192 105.887 33.7898C104.499 34.0677 103.067 34.0469 101.687 33.7289C102.037 35.8292 101.352 36.8412 100.994 37.2141L101.542 42.2439Z" fill="#282929"/>
<path d="M103.908 35.392C103.908 35.392 104.966 36.9139 104.723 37.2259C104.479 37.5378 103.771 37.3248 103.771 37.3248" fill="white"/>
<path d="M104.228 37.7579C104.044 37.7555 103.86 37.7325 103.681 37.6895C103.632 37.6779 103.587 37.6568 103.547 37.6275C103.507 37.5982 103.473 37.5612 103.448 37.5187C103.422 37.4762 103.405 37.429 103.398 37.3799C103.391 37.3308 103.394 37.2809 103.407 37.2329C103.432 37.1362 103.493 37.053 103.578 37.0005C103.663 36.9481 103.765 36.9305 103.863 36.9513C104.027 36.9799 104.194 36.9799 104.358 36.9513C104.156 36.4632 103.9 35.9988 103.597 35.5664C103.568 35.5257 103.548 35.4796 103.537 35.4309C103.527 35.3822 103.526 35.3319 103.535 35.283C103.545 35.2341 103.564 35.1875 103.591 35.146C103.619 35.1045 103.654 35.0689 103.696 35.0414C103.737 35.0125 103.784 34.9922 103.833 34.9816C103.882 34.971 103.933 34.9702 103.983 34.9794C104.032 34.9886 104.08 35.0076 104.122 35.0352C104.164 35.0628 104.2 35.0985 104.228 35.1403C105.454 36.9437 105.134 37.2938 104.989 37.4231C104.891 37.5271 104.774 37.6103 104.643 37.6678C104.512 37.7253 104.371 37.756 104.228 37.7579V37.7579Z" fill="#282929"/>
<path d="M102.919 35.5427C103.02 35.5396 103.096 35.3464 103.089 35.1111C103.081 34.8759 102.994 34.6877 102.893 34.6908C102.792 34.6939 102.716 34.8871 102.724 35.1223C102.731 35.3576 102.818 35.5458 102.919 35.5427Z" fill="#282929"/>
<path d="M105.371 35.3851C105.472 35.382 105.548 35.1888 105.541 34.9535C105.534 34.7183 105.446 34.5301 105.345 34.5332C105.244 34.5363 105.168 34.7295 105.176 34.9647C105.183 35.2 105.271 35.3882 105.371 35.3851Z" fill="#282929"/>
<path d="M101.755 36.156C101.547 35.8856 101.289 35.6582 100.994 35.4864C100.85 35.3772 100.673 35.3184 100.492 35.319C100.345 35.332 100.205 35.3875 100.089 35.4788C99.9141 35.6067 99.7678 35.7694 99.659 35.9567C99.5503 36.144 99.4816 36.3518 99.4572 36.5669C99.4346 36.7687 99.4634 36.9729 99.5409 37.1605C99.6747 37.4474 99.9069 37.6768 100.195 37.8073C100.481 37.9421 100.783 38.0393 101.093 38.0964" fill="white"/>
<path d="M101.131 38.4911H101.04C100.7 38.4286 100.37 38.3212 100.058 38.1715C99.6857 37.9988 99.3864 37.6995 99.2137 37.3268C99.116 37.0859 99.0794 36.8244 99.1072 36.5659C99.1328 36.2974 99.2135 36.0372 99.3445 35.8015C99.4755 35.5658 99.6537 35.3597 99.8681 35.1962C100.058 35.0443 100.294 34.9615 100.538 34.9615C100.781 34.9615 101.017 35.0443 101.207 35.1962C101.53 35.3949 101.811 35.6531 102.037 35.9571C102.067 35.9986 102.088 36.0456 102.1 36.0953C102.112 36.1451 102.114 36.1967 102.106 36.2473C102.098 36.2978 102.08 36.3462 102.053 36.3898C102.026 36.4334 101.991 36.4712 101.949 36.5012C101.908 36.5312 101.861 36.5527 101.811 36.5645C101.761 36.5763 101.71 36.5782 101.659 36.5701C101.609 36.562 101.56 36.544 101.517 36.5171C101.473 36.4903 101.435 36.4552 101.405 36.4137C101.237 36.1895 101.031 35.9964 100.797 35.843C100.716 35.7842 100.622 35.7474 100.523 35.7364C100.449 35.7481 100.381 35.7797 100.325 35.8278C100.195 35.9224 100.087 36.043 100.007 36.182C99.9274 36.3209 99.8774 36.475 99.8605 36.6344C99.8434 36.7705 99.859 36.9088 99.9062 37.0377C100.007 37.237 100.174 37.3955 100.378 37.4866C100.639 37.6023 100.912 37.689 101.192 37.7453C101.274 37.7772 101.343 37.8353 101.388 37.9106C101.433 37.9859 101.452 38.0741 101.441 38.1612C101.431 38.2484 101.392 38.3296 101.33 38.392C101.269 38.4545 101.188 38.4947 101.101 38.5063L101.131 38.4911Z" fill="#282929"/>
<path d="M105.674 38.163L103.109 38.4141C103.239 38.6159 103.417 38.7825 103.627 38.8993C103.836 39.0161 104.072 39.0794 104.312 39.0837C104.868 38.9652 105.356 38.635 105.674 38.163V38.163Z" fill="#282929"/>
<path d="M142.618 34.8386H117.659C117.558 34.8386 117.461 34.7985 117.39 34.7271C117.318 34.6558 117.278 34.559 117.278 34.4581C117.278 34.3572 117.318 34.2604 117.39 34.1891C117.461 34.1177 117.558 34.0776 117.659 34.0776H142.618C142.719 34.0776 142.816 34.1177 142.887 34.1891C142.958 34.2604 142.998 34.3572 142.998 34.4581C142.998 34.559 142.958 34.6558 142.887 34.7271C142.816 34.7985 142.719 34.8386 142.618 34.8386Z" fill="url(#paint3_linear_2193_9767)"/>
<path d="M142.618 41.4143H117.659C117.558 41.4143 117.461 41.3742 117.39 41.3028C117.318 41.2315 117.278 41.1347 117.278 41.0338C117.278 40.9329 117.318 40.8361 117.39 40.7648C117.461 40.6934 117.558 40.6533 117.659 40.6533H142.618C142.719 40.6533 142.816 40.6934 142.887 40.7648C142.958 40.8361 142.998 40.9329 142.998 41.0338C142.998 41.1347 142.958 41.2315 142.887 41.3028C142.816 41.3742 142.719 41.4143 142.618 41.4143Z" fill="url(#paint4_linear_2193_9767)"/>
<path d="M136.645 47.994H117.621C117.52 47.994 117.424 47.9539 117.352 47.8825C117.281 47.8112 117.241 47.7144 117.241 47.6135C117.241 47.5126 117.281 47.4158 117.352 47.3445C117.424 47.2731 117.52 47.233 117.621 47.233H136.645C136.746 47.233 136.843 47.2731 136.914 47.3445C136.985 47.4158 137.025 47.5126 137.025 47.6135C137.025 47.7144 136.985 47.8112 136.914 47.8825C136.843 47.9539 136.746 47.994 136.645 47.994Z" fill="url(#paint5_linear_2193_9767)"/>
<path d="M142.976 58.2169C142.976 58.2169 154.732 58.3919 154.557 58.2169C154.382 58.0418 145.258 49.8464 145.258 49.8464L142.976 58.2169Z" fill="#1F1F1F"/>
<path d="M189.081 43.5704L239.266 43.5704C242.414 43.5704 244.965 41.0187 244.965 37.8709V14.9132C244.965 11.7654 242.414 9.21366 239.266 9.21366L189.081 9.21366C185.934 9.21366 183.382 11.7654 183.382 14.9132V37.8709C183.382 41.0187 185.934 43.5704 189.081 43.5704Z" fill="#1F1F1F"/>
<path d="M199.803 35.7737C205.745 35.7737 210.563 30.9564 210.563 25.0139C210.563 19.0715 205.745 14.2542 199.803 14.2542C193.86 14.2542 189.043 19.0715 189.043 25.0139C189.043 30.9564 193.86 35.7737 199.803 35.7737Z" fill="white"/>
<path d="M239.41 20.192H214.436C214.335 20.192 214.238 20.1519 214.167 20.0805C214.096 20.0092 214.056 19.9124 214.056 19.8115C214.056 19.7106 214.096 19.6138 214.167 19.5425C214.238 19.4711 214.335 19.431 214.436 19.431H239.395C239.496 19.431 239.593 19.4711 239.664 19.5425C239.736 19.6138 239.776 19.7106 239.776 19.8115C239.776 19.9124 239.736 20.0092 239.664 20.0805C239.593 20.1519 239.496 20.192 239.395 20.192H239.41Z" fill="url(#paint6_linear_2193_9767)"/>
<path d="M239.41 26.7716H214.436C214.335 26.7716 214.238 26.7315 214.167 26.6601C214.096 26.5888 214.056 26.492 214.056 26.3911C214.056 26.2902 214.096 26.1934 214.167 26.1221C214.238 26.0507 214.335 26.0106 214.436 26.0106H239.395C239.496 26.0106 239.593 26.0507 239.664 26.1221C239.736 26.1934 239.776 26.2902 239.776 26.3911C239.776 26.4894 239.738 26.584 239.67 26.6549C239.602 26.7258 239.509 26.7676 239.41 26.7716Z" fill="url(#paint7_linear_2193_9767)"/>
<path d="M233.46 33.3512H214.436C214.335 33.3512 214.238 33.3111 214.167 33.2397C214.096 33.1684 214.056 33.0716 214.056 32.9707C214.056 32.8698 214.096 32.773 214.167 32.7016C214.238 32.6303 214.335 32.5902 214.436 32.5902H233.46C233.561 32.5902 233.658 32.6303 233.729 32.7016C233.8 32.773 233.84 32.8698 233.84 32.9707C233.84 33.0716 233.8 33.1684 233.729 33.2397C233.658 33.3111 233.561 33.3512 233.46 33.3512Z" fill="url(#paint8_linear_2193_9767)"/>
<path d="M189.081 43.5703C189.081 43.5703 177.332 43.7453 177.499 43.5703C177.667 43.3952 186.798 35.1998 186.798 35.1998L189.081 43.5703Z" fill="#1F1F1F"/>
<path d="M197.695 16.1566H197.985C198.439 16.2536 198.88 16.4016 199.301 16.598C199.666 16.3933 200.073 16.277 200.491 16.2585C200.908 16.24 201.324 16.3198 201.706 16.4914C204.255 17.4046 208.554 22.891 206.119 25.6228C205.542 26.1066 204.824 26.3897 204.072 26.4294C201.951 26.7864 199.797 26.9013 197.65 26.7718C196.86 26.7731 196.081 26.599 195.367 26.262C193.259 25.113 194.5 20.5853 195.298 18.8352C195.641 18.0114 196.103 17.2423 196.668 16.5523C196.959 16.3129 197.319 16.174 197.695 16.1566V16.1566Z" fill="white"/>
<path d="M199.369 27.1907C198.791 27.1907 198.205 27.1907 197.627 27.1375C196.795 27.128 195.974 26.9385 195.222 26.582C192.901 25.3188 194.081 20.7303 195.009 18.7062C195.356 17.8482 195.839 17.0517 196.44 16.3472C196.784 16.0385 197.219 15.8514 197.68 15.8146V15.8146H198.007C198.454 15.9 198.89 16.0327 199.308 16.2103C199.709 16.0351 200.142 15.9447 200.579 15.9447C201.017 15.9447 201.449 16.0351 201.85 16.2103C203.714 16.8799 206.416 19.7487 207.07 22.4576C207.258 23.0359 207.295 23.6525 207.178 24.2492C207.061 24.8458 206.793 25.4026 206.4 25.8667C205.771 26.4402 204.967 26.7858 204.118 26.8483C202.547 27.0952 200.959 27.2097 199.369 27.1907V27.1907ZM197.756 16.5375C197.454 16.5554 197.166 16.6701 196.934 16.8647C196.397 17.5157 195.96 18.2443 195.641 19.0258C194.743 20.9814 193.792 25.0373 195.557 26.0037C196.23 26.3013 196.96 26.4468 197.695 26.4298C199.816 26.566 201.946 26.4537 204.042 26.095C204.732 26.0526 205.389 25.7854 205.913 25.334C206.232 24.9566 206.447 24.5026 206.536 24.0168C206.626 23.531 206.587 23.0303 206.423 22.5642C205.815 20.1063 203.311 17.3973 201.645 16.8038C201.313 16.6598 200.953 16.5906 200.591 16.6011C200.23 16.6116 199.875 16.7016 199.552 16.8647C199.492 16.911 199.418 16.9361 199.343 16.9361C199.267 16.9361 199.193 16.911 199.133 16.8647C198.768 16.721 198.395 16.5991 198.015 16.4994H197.787L197.756 16.5375Z" fill="#282929"/>
<mask id="mask1_2193_9767" style="mask-type:alpha" maskUnits="userSpaceOnUse" x="189" y="14" width="22" height="22">
<path d="M199.802 35.7741C205.745 35.7741 210.562 30.9568 210.562 25.0143C210.562 19.0718 205.745 14.2545 199.802 14.2545C193.86 14.2545 189.042 19.0718 189.042 25.0143C189.042 30.9568 193.86 35.7741 199.802 35.7741Z" fill="white"/>
</mask>
<g mask="url(#mask1_2193_9767)">
<path d="M196.12 36.3971C196.431 33.0261 196.667 28.7876 196.667 28.7115L201.378 28.9017L201.043 36.3971L210.121 34.7991C209.37 33.1506 208.441 31.589 207.351 30.1421C205.228 27.2885 200.579 27.2657 200.457 27.2657C200.579 27.2657 202.679 27.2657 196.652 26.9233C190.131 26.5504 188.19 34.3197 188.19 34.3197L189.119 34.7991L196.12 36.3971Z" fill="url(#paint9_linear_2193_9767)"/>
</g>
<path d="M197.338 26.0511L196.805 28.9731C196.8 29.2037 196.847 29.4326 196.943 29.6423C197.039 29.8521 197.181 30.0373 197.359 30.1839C197.538 30.3305 197.747 30.4347 197.971 30.4886C198.195 30.5425 198.429 30.5447 198.654 30.495C199.211 30.4453 199.749 30.2736 200.232 29.9921C200.715 29.7107 201.129 29.3264 201.447 28.8666L202.04 25.2445C202.336 23.8905 202.557 22.5213 202.702 21.143C201.287 21.5995 199.544 19.8113 199.103 18.6547C198.992 19.0127 198.975 19.3932 199.054 19.7597C199.132 20.1262 199.304 20.4663 199.552 20.7473C199.159 20.6093 198.803 20.3813 198.514 20.0813C198.225 19.7814 198.009 19.4179 197.886 19.0199C197.465 19.3356 197.073 19.6869 196.714 20.07C196.401 20.5106 196.162 20.9989 196.006 21.5158C195.732 22.4137 195.496 23.7987 195.953 24.6509C196.213 25.281 196.71 25.7838 197.338 26.0511V26.0511Z" fill="white"/>
<path d="M198.456 30.8802C197.945 30.9038 197.445 30.7263 197.064 30.3856C196.693 30.0042 196.483 29.4946 196.478 28.9626C196.478 28.917 196.835 26.9842 196.972 26.2537C196.409 25.923 195.957 25.4332 195.671 24.8459C195.101 23.7425 195.496 22.1065 195.671 21.4521C195.842 20.9073 196.099 20.3934 196.432 19.9302C196.432 19.9302 197.558 18.6822 197.954 18.7431C198.019 18.7522 198.081 18.7801 198.131 18.8233C198.181 18.8665 198.217 18.9232 198.236 18.9866C198.33 19.303 198.493 19.5942 198.715 19.8389C198.637 19.4306 198.664 19.0093 198.791 18.6137C198.813 18.5453 198.855 18.4851 198.912 18.4416C198.97 18.398 199.039 18.3731 199.111 18.3702C199.183 18.37 199.254 18.3916 199.314 18.4324C199.373 18.4731 199.419 18.5311 199.446 18.5985C199.826 19.603 201.432 21.2618 202.611 20.8814C202.665 20.8632 202.722 20.8585 202.778 20.8678C202.833 20.8771 202.886 20.9001 202.931 20.9346C202.975 20.9685 203.01 21.0124 203.034 21.0626C203.058 21.1129 203.069 21.1682 203.068 21.2238C202.99 22.186 202.848 23.1419 202.641 24.085C202.558 24.5187 202.474 24.9448 202.406 25.371L201.804 28.9855C201.797 29.031 201.782 29.0749 201.759 29.1148C201.417 29.6215 200.967 30.0451 200.44 30.3546C199.913 30.6641 199.324 30.8515 198.715 30.903L198.456 30.8802ZM197.17 29.0311C197.192 29.3498 197.324 29.6511 197.543 29.8834C197.698 30.007 197.876 30.0972 198.068 30.1483C198.259 30.1994 198.458 30.2102 198.654 30.1801C199.145 30.1406 199.622 29.9941 200.05 29.7509C200.479 29.5077 200.849 29.1737 201.135 28.7724L201.721 25.2264C201.797 24.8002 201.881 24.3589 201.964 23.9252C202.116 23.1642 202.269 22.3652 202.345 21.5967C201.774 21.5451 201.221 21.3692 200.726 21.0813C200.23 20.7934 199.804 20.4005 199.476 19.9302C199.553 20.1598 199.674 20.3719 199.834 20.5542C199.881 20.6135 199.907 20.6873 199.907 20.7634C199.907 20.8395 199.881 20.9133 199.834 20.9727C199.793 21.0391 199.731 21.0896 199.657 21.1158C199.584 21.1421 199.504 21.1426 199.43 21.1173C198.689 20.8458 198.079 20.3014 197.726 19.5954C197.437 19.8541 197.056 20.2193 196.965 20.303C196.68 20.7101 196.462 21.1595 196.318 21.6347C195.951 22.5538 195.924 23.5738 196.242 24.5111C196.469 25.0404 196.887 25.4645 197.414 25.6982C197.497 25.7214 197.568 25.7751 197.613 25.8484C197.658 25.9217 197.674 26.0094 197.657 26.0939C197.657 26.1471 197.14 28.9018 197.125 29.0159L197.17 29.0311Z" fill="#282929"/>
<path d="M201.926 23.1909C202.012 22.9827 202.168 22.8107 202.367 22.7039C202.552 22.6067 202.753 22.5423 202.961 22.5137C203.073 22.4876 203.19 22.4876 203.303 22.5137C203.382 22.539 203.454 22.5804 203.516 22.6354C203.674 22.7431 203.785 22.906 203.828 23.092C203.849 23.2462 203.83 23.4031 203.775 23.5485C203.731 23.7119 203.665 23.8682 203.577 24.0127C203.404 24.2885 203.131 24.4874 202.816 24.5682C202.483 24.6375 202.137 24.5748 201.85 24.3932" fill="white"/>
<path d="M202.512 24.9091C202.206 24.909 201.907 24.819 201.652 24.6503C201.614 24.631 201.581 24.604 201.554 24.571C201.528 24.538 201.508 24.4997 201.497 24.4587C201.486 24.4177 201.483 24.3748 201.49 24.3328C201.496 24.2908 201.512 24.2506 201.535 24.2148C201.557 24.1791 201.588 24.1485 201.623 24.1251C201.659 24.1017 201.699 24.086 201.741 24.079C201.782 24.072 201.825 24.0739 201.867 24.0845C201.908 24.095 201.946 24.1141 201.98 24.1405C202.086 24.2108 202.206 24.2591 202.331 24.2826C202.456 24.3061 202.585 24.3044 202.71 24.2774C202.835 24.2505 202.953 24.1989 203.057 24.1258C203.162 24.0526 203.251 23.9593 203.319 23.8513C203.397 23.7326 203.453 23.6013 203.486 23.4633C203.526 23.3671 203.542 23.2625 203.532 23.1589C203.501 23.0426 203.428 22.9421 203.326 22.8773C203.297 22.8483 203.26 22.8273 203.22 22.8164C203.152 22.8016 203.082 22.8016 203.014 22.8164C202.84 22.8397 202.67 22.8911 202.512 22.9686C202.374 23.0496 202.265 23.1721 202.2 23.3187C202.189 23.3604 202.168 23.3993 202.141 23.4325C202.113 23.4658 202.078 23.4928 202.039 23.5116C202 23.5304 201.957 23.5407 201.914 23.5417C201.871 23.5428 201.828 23.5346 201.788 23.5176C201.748 23.5007 201.712 23.4754 201.683 23.4435C201.653 23.4116 201.631 23.3738 201.618 23.3326C201.604 23.2915 201.6 23.2479 201.604 23.2048C201.609 23.1617 201.623 23.1201 201.645 23.0828C201.762 22.8142 201.962 22.5901 202.215 22.4436C202.431 22.3281 202.665 22.2532 202.908 22.2229C203.065 22.1848 203.23 22.1848 203.387 22.2229C203.5 22.2595 203.606 22.3162 203.699 22.3903C203.916 22.5479 204.069 22.7771 204.133 23.0371C204.158 23.2401 204.135 23.4462 204.065 23.6383C204.016 23.8263 203.939 24.0059 203.836 24.1709C203.696 24.3977 203.502 24.5861 203.27 24.7189C203.039 24.8518 202.779 24.9249 202.512 24.9319V24.9091Z" fill="#282929"/>
<path d="M198.212 21.6793C198.212 21.6793 196.987 22.874 197.162 23.2012C197.337 23.5284 197.992 23.4447 197.992 23.4447" fill="white"/>
<path d="M197.9 23.7516C197.709 23.7685 197.516 23.7401 197.338 23.6687C197.159 23.5973 197 23.485 196.873 23.3407C196.782 23.1885 196.553 22.8233 197.976 21.4383C198.007 21.4063 198.045 21.3809 198.086 21.3636C198.127 21.3462 198.171 21.3373 198.216 21.3373C198.261 21.3373 198.305 21.3462 198.346 21.3636C198.387 21.3809 198.425 21.4063 198.456 21.4383C198.518 21.5023 198.554 21.5884 198.554 21.678C198.554 21.7677 198.518 21.8537 198.456 21.9177C198.101 22.2442 197.787 22.6121 197.52 23.0135C197.67 23.0568 197.827 23.0748 197.984 23.0668C198.065 23.0789 198.139 23.1198 198.193 23.182C198.246 23.2441 198.275 23.3234 198.275 23.4054C198.275 23.4874 198.246 23.5666 198.193 23.6288C198.139 23.6909 198.065 23.7318 197.984 23.744L197.9 23.7516Z" fill="#282929"/>
<path d="M199.986 22.1682C200.062 22.0041 200.027 21.8269 199.909 21.7722C199.791 21.7176 199.633 21.8063 199.558 21.9703C199.482 22.1343 199.516 22.3116 199.635 22.3663C199.753 22.4209 199.91 22.3322 199.986 22.1682Z" fill="#282929"/>
<path d="M197.395 21.7185C197.471 21.5544 197.436 21.3772 197.318 21.3225C197.2 21.2679 197.043 21.3566 196.967 21.5206C196.891 21.6846 196.925 21.8619 197.044 21.9166C197.162 21.9712 197.319 21.8825 197.395 21.7185Z" fill="#282929"/>
<path d="M196.934 23.9775L199.041 24.1069C199.041 24.2463 199.01 24.3839 198.95 24.5095C198.889 24.6351 198.801 24.7455 198.692 24.8325C198.583 24.9195 198.456 24.9808 198.321 25.012C198.185 25.0431 198.044 25.0433 197.908 25.0124C197.646 24.99 197.403 24.8721 197.223 24.6811C197.043 24.4902 196.94 24.2397 196.934 23.9775Z" fill="#282929"/>
</g>
<defs>
<linearGradient id="paint0_linear_2193_9767" x1="80.6969" y1="138.037" x2="138.022" y2="154.336" gradientUnits="userSpaceOnUse">
<stop stop-color="#FFB11B"/>
<stop offset="1" stop-color="#FF441B"/>
</linearGradient>
<linearGradient id="paint1_linear_2193_9767" x1="211.877" y1="138.014" x2="269.202" y2="154.313" gradientUnits="userSpaceOnUse">
<stop stop-color="#FFB11B"/>
<stop offset="1" stop-color="#FF441B"/>
</linearGradient>
<linearGradient id="paint2_linear_2193_9767" x1="95.6426" y1="37.9783" x2="116.938" y2="43.2856" gradientUnits="userSpaceOnUse">
<stop stop-color="#FFB11B"/>
<stop offset="1" stop-color="#FF441B"/>
</linearGradient>
<linearGradient id="paint3_linear_2193_9767" x1="120.108" y1="33.9033" x2="121.075" y2="39.274" gradientUnits="userSpaceOnUse">
<stop stop-color="#FFB11B"/>
<stop offset="1" stop-color="#FF441B"/>
</linearGradient>
<linearGradient id="paint4_linear_2193_9767" x1="120.108" y1="40.4789" x2="121.075" y2="45.8497" gradientUnits="userSpaceOnUse">
<stop stop-color="#FFB11B"/>
<stop offset="1" stop-color="#FF441B"/>
</linearGradient>
<linearGradient id="paint5_linear_2193_9767" x1="119.417" y1="47.0586" x2="120.649" y2="52.3153" gradientUnits="userSpaceOnUse">
<stop stop-color="#FFB11B"/>
<stop offset="1" stop-color="#FF441B"/>
</linearGradient>
<linearGradient id="paint6_linear_2193_9767" x1="216.885" y1="19.2566" x2="217.853" y2="24.6274" gradientUnits="userSpaceOnUse">
<stop stop-color="#FFB11B"/>
<stop offset="1" stop-color="#FF441B"/>
</linearGradient>
<linearGradient id="paint7_linear_2193_9767" x1="216.885" y1="25.8362" x2="217.853" y2="31.207" gradientUnits="userSpaceOnUse">
<stop stop-color="#FFB11B"/>
<stop offset="1" stop-color="#FF441B"/>
</linearGradient>
<linearGradient id="paint8_linear_2193_9767" x1="216.232" y1="32.4158" x2="217.463" y2="37.6725" gradientUnits="userSpaceOnUse">
<stop stop-color="#FFB11B"/>
<stop offset="1" stop-color="#FF441B"/>
</linearGradient>
<linearGradient id="paint9_linear_2193_9767" x1="190.603" y1="24.7362" x2="213.536" y2="33.4398" gradientUnits="userSpaceOnUse">
<stop stop-color="#FFB11B"/>
<stop offset="1" stop-color="#FF441B"/>
</linearGradient>
<clipPath id="clip0_2193_9767">
<rect width="332" height="170" fill="white"/>
</clipPath>
</defs>
</svg>
