<svg width="332" height="170" viewBox="0 0 332 170" fill="none" xmlns="http://www.w3.org/2000/svg">
<g clip-path="url(#clip0_2193_9510)">
<path d="M189.509 149.978H153.691V159.047H189.509V149.978Z" fill="white"/>
<path d="M85.2276 114.023C85.2276 114.023 83.965 144.054 87.3446 153.948H102.78C103.575 153.949 104.349 154.205 104.988 154.677C105.627 155.15 106.097 155.814 106.331 156.573L107.166 159.33H67.9122C64.963 157.391 62.4798 154.825 60.6405 151.816C58.0394 147.191 59.6343 114.023 59.6343 114.023H85.2276Z" fill="white"/>
<path d="M107.167 159.814H67.9128C67.8233 159.812 67.7355 159.789 67.6564 159.747C64.6379 157.768 62.0987 155.143 60.2234 152.062C57.5558 147.324 59.0937 115.369 59.1601 114.014C59.165 113.891 59.2172 113.776 59.3057 113.691C59.3942 113.606 59.5121 113.559 59.6348 113.559H85.2661C85.3306 113.558 85.3944 113.572 85.4533 113.598C85.5122 113.624 85.5649 113.662 85.6079 113.71C85.6542 113.756 85.6901 113.81 85.7131 113.871C85.736 113.932 85.7455 113.996 85.7408 114.061C85.7408 114.355 84.5446 143.438 87.7248 153.483H102.819C103.717 153.479 104.592 153.766 105.313 154.301C106.033 154.836 106.561 155.59 106.815 156.45L107.651 159.207C107.673 159.277 107.679 159.351 107.668 159.424C107.656 159.496 107.628 159.565 107.584 159.624C107.536 159.688 107.472 159.738 107.399 159.771C107.327 159.805 107.247 159.819 107.167 159.814ZM68.0457 158.866H106.521L105.876 156.724C105.677 156.06 105.268 155.477 104.71 155.064C104.152 154.651 103.476 154.429 102.781 154.431H87.3451C87.246 154.432 87.1494 154.401 87.0691 154.343C86.9889 154.285 86.9292 154.203 86.8989 154.109C83.7187 144.831 84.5826 118.581 84.7345 114.506H60.0525C59.5019 126.068 59.0177 148.072 61.0018 151.598C62.7938 154.502 65.1973 156.982 68.0457 158.866V158.866Z" fill="#282929"/>
<path d="M61.5133 146.059C61.5133 152.314 63.4119 154.19 65.8991 154.19H75.7529C76.4306 154.191 77.0915 154.4 77.6466 154.788C78.2016 155.176 78.6242 155.725 78.8572 156.36L79.9489 159.326H64.7599C60.8773 159.326 58.1148 153.441 57.9914 147.187C57.868 140.932 57.9914 114.019 57.9914 114.019H61.3804C61.3804 114.019 61.5133 139.805 61.5133 146.059Z" fill="#282929"/>
<path d="M79.9489 159.808H64.76C60.3837 159.808 57.6402 153.402 57.5168 147.205C57.3934 141.007 57.5168 114.302 57.5168 114.037C57.5192 113.912 57.57 113.793 57.6585 113.704C57.747 113.616 57.8663 113.565 57.9914 113.563H61.3804C61.5056 113.565 61.6249 113.616 61.7134 113.704C61.8019 113.793 61.8527 113.912 61.8551 114.037C61.8551 114.293 61.9785 139.889 61.9785 146.077C61.9785 153.734 64.9214 153.734 65.8897 153.734H75.7435C76.5184 153.737 77.2738 153.976 77.9085 154.42C78.5431 154.864 79.0266 155.491 79.2939 156.217L80.3856 159.183C80.4091 159.255 80.4162 159.332 80.4064 159.407C80.3965 159.483 80.37 159.555 80.3286 159.619C80.2839 159.677 80.2265 159.724 80.1607 159.757C80.0949 159.79 80.0225 159.808 79.9489 159.808V159.808ZM58.4756 114.501C58.4756 118.131 58.3616 141.452 58.4756 147.186C58.6085 153.62 61.4279 158.861 64.7695 158.861H79.2654L78.411 156.529C78.2163 155.979 77.8568 155.503 77.3813 155.164C76.9058 154.825 76.3373 154.64 75.753 154.634H65.8992C62.6335 154.634 61.0387 151.791 61.0387 146.029C61.0387 140.268 60.9343 118.007 60.9153 114.463L58.4756 114.501Z" fill="#282929"/>
<path d="M114.504 43.7903L120.446 111.585C120.545 112.341 120.481 113.109 120.259 113.839C120.037 114.568 119.662 115.242 119.159 115.816C118.657 116.389 118.037 116.849 117.343 117.166C116.648 117.482 115.894 117.647 115.13 117.65H34.1543C32.5325 117.591 30.9883 116.942 29.8131 115.825C28.6379 114.708 27.913 113.2 27.7749 111.585L21.8323 43.7903C21.7324 43.0342 21.7952 42.2655 22.0165 41.5355C22.2377 40.8055 22.6124 40.131 23.1156 39.557C23.6187 38.983 24.2386 38.5228 24.934 38.2069C25.6295 37.891 26.3844 37.7269 27.1484 37.7253H108.124C109.746 37.7843 111.29 38.4336 112.465 39.5509C113.641 40.6682 114.366 42.1761 114.504 43.7903V43.7903Z" fill="#282929"/>
<path d="M115.131 118.113H34.1549C32.4148 118.05 30.7576 117.355 29.4953 116.158C28.233 114.96 27.4526 113.344 27.3009 111.612L21.3582 43.8171C21.2694 42.9639 21.3603 42.1016 21.6252 41.2856C21.89 40.4696 22.3229 39.7179 22.8961 39.0789C23.4363 38.492 24.0941 38.025 24.8268 37.7083C25.5594 37.3916 26.3506 37.2322 27.149 37.2404H108.125C109.863 37.2956 111.521 37.983 112.787 39.1733C114.053 40.3636 114.839 41.9747 114.998 43.7034L120.941 111.499C121.03 112.352 120.938 113.216 120.672 114.032C120.405 114.848 119.97 115.599 119.393 116.237C118.855 116.832 118.198 117.306 117.463 117.63C116.728 117.953 115.934 118.118 115.131 118.113V118.113ZM27.149 38.1881C26.4831 38.1795 25.8228 38.3109 25.2112 38.5738C24.5995 38.8367 24.05 39.2251 23.5986 39.7138C23.1179 40.253 22.7549 40.8862 22.5326 41.573C22.3104 42.2599 22.2337 42.9854 22.3075 43.7034L28.2502 111.499C28.3633 113.005 29.0276 114.417 30.1166 115.465C31.2056 116.514 32.643 117.126 34.1549 117.184H115.131C115.796 117.19 116.455 117.057 117.065 116.792C117.675 116.528 118.222 116.138 118.672 115.649C119.159 115.108 119.527 114.471 119.751 113.779C119.975 113.086 120.051 112.355 119.972 111.631L114.049 43.8171C113.924 42.3204 113.255 40.921 112.167 39.8837C111.079 38.8464 109.647 38.2432 108.144 38.1881H27.149Z" fill="#282929"/>
<path d="M114.779 43.5155L120.475 108.24C120.569 108.961 120.509 109.694 120.297 110.39C120.086 111.087 119.729 111.73 119.249 112.277C118.77 112.825 118.179 113.265 117.516 113.567C116.854 113.869 116.134 114.027 115.406 114.03H38.1035C36.5549 113.974 35.0805 113.354 33.9579 112.287C32.8354 111.221 32.1422 109.781 32.0089 108.24L26.3131 43.5155C26.2172 42.794 26.2766 42.0604 26.4873 41.3637C26.698 40.667 27.0552 40.0231 27.535 39.4751C28.0147 38.9271 28.6061 38.4876 29.2695 38.1858C29.933 37.8841 30.6533 37.7271 31.3824 37.7253H108.703C110.249 37.7866 111.719 38.4085 112.837 39.4746C113.956 40.5406 114.646 41.9774 114.779 43.5155V43.5155Z" fill="white"/>
<path d="M115.376 114.502H38.1024C36.4231 114.462 34.8173 113.806 33.5916 112.659C32.3659 111.513 31.6061 109.956 31.4573 108.285L25.7614 43.5512C25.6759 42.7236 25.768 41.8874 26.0315 41.0982C26.2951 40.3089 26.724 39.5848 27.2898 38.974C27.8067 38.4113 28.4365 37.9636 29.1381 37.6599C29.8398 37.3563 30.5976 37.2034 31.3624 37.2114H108.683C110.349 37.2678 111.936 37.9315 113.145 39.077C114.354 40.2225 115.1 41.7703 115.243 43.428L120.939 108.162C121.027 108.98 120.94 109.808 120.685 110.59C120.429 111.372 120.011 112.092 119.458 112.701C118.944 113.273 118.314 113.728 117.611 114.039C116.907 114.349 116.145 114.507 115.376 114.502V114.502ZM31.3624 38.1969C30.7302 38.1893 30.1035 38.3144 29.5229 38.5642C28.9423 38.8139 28.4208 39.1828 27.9923 39.6468C27.535 40.159 27.1892 40.7603 26.9767 41.4128C26.7643 42.0653 26.6899 42.7547 26.7582 43.4374L32.4541 108.172C32.5677 109.605 33.2066 110.947 34.2486 111.94C35.2906 112.933 36.6626 113.508 38.1024 113.554H115.376C116.007 113.561 116.632 113.435 117.21 113.185C117.789 112.935 118.309 112.567 118.737 112.104C119.196 111.594 119.544 110.993 119.756 110.34C119.969 109.687 120.042 108.997 119.971 108.314L114.275 43.5796C114.153 42.1565 113.515 40.8269 112.48 39.8409C111.445 38.8548 110.085 38.2803 108.655 38.2253L31.3624 38.1969Z" fill="#282929"/>
<path d="M119.498 97.3685L120.447 108.238C120.542 108.959 120.481 109.692 120.27 110.388C120.059 111.084 119.701 111.728 119.222 112.275C118.742 112.823 118.152 113.262 117.489 113.565C116.826 113.867 116.107 114.025 115.378 114.028H38.1044C36.5558 113.972 35.0814 113.352 33.9589 112.285C32.8364 111.219 32.1432 109.779 32.0099 108.238L31.0605 97.3685H119.498Z" fill="white"/>
<path d="M115.378 114.499H38.1044C36.425 114.459 34.8192 113.803 33.5935 112.657C32.3678 111.51 31.608 109.953 31.4592 108.283L30.5099 97.4129C30.5055 97.3477 30.5142 97.2823 30.5354 97.2205C30.5566 97.1587 30.5898 97.1017 30.6333 97.0528C30.6764 97.0019 30.7303 96.9611 30.791 96.9333C30.8517 96.9054 30.9177 96.8912 30.9845 96.8917H119.47C119.588 96.8935 119.703 96.9389 119.79 97.0193C119.878 97.0997 119.933 97.2095 119.944 97.3277L120.893 108.197C120.981 109.015 120.894 109.843 120.639 110.625C120.384 111.407 119.966 112.127 119.413 112.736C118.9 113.295 118.277 113.74 117.582 114.044C116.887 114.347 116.136 114.502 115.378 114.499ZM31.5257 97.8394L32.475 108.197C32.5948 109.623 33.2339 110.955 34.2713 111.941C35.3087 112.928 36.6724 113.501 38.1044 113.551H115.378C116.009 113.558 116.633 113.432 117.212 113.182C117.791 112.933 118.311 112.564 118.739 112.102C119.198 111.591 119.546 110.99 119.758 110.337C119.971 109.684 120.044 108.994 119.973 108.311L119.023 97.8868L31.5257 97.8394Z" fill="#282929"/>
<path d="M78.1308 108.919C79.7422 107.841 80.0831 105.529 78.8922 103.755C77.7013 101.981 75.4296 101.417 73.8182 102.496C72.2067 103.574 71.8658 105.886 73.0567 107.659C74.2476 109.433 76.5194 109.997 78.1308 108.919Z" fill="white"/>
<path d="M76.3135 109.933C75.1923 109.893 74.1244 109.445 73.3113 108.673C72.4981 107.902 71.9959 106.86 71.8992 105.744C71.8401 105.189 71.8991 104.628 72.0725 104.097C72.246 103.566 72.5298 103.078 72.9055 102.664C73.2547 102.284 73.6803 101.98 74.1546 101.775C74.6289 101.569 75.1413 101.465 75.6585 101.47C76.7787 101.51 77.8453 101.959 78.6569 102.73C79.4685 103.502 79.9688 104.544 80.0633 105.659V105.659C80.1295 106.21 80.0792 106.769 79.9157 107.299C79.7521 107.83 79.479 108.32 79.114 108.739C78.759 109.125 78.3257 109.431 77.8428 109.637C77.3599 109.843 76.8385 109.944 76.3135 109.933ZM75.6585 102.418C75.2726 102.414 74.89 102.49 74.5353 102.641C74.1805 102.793 73.8615 103.017 73.5985 103.299C73.3158 103.619 73.103 103.994 72.9739 104.4C72.8447 104.806 72.802 105.235 72.8485 105.659C72.9196 106.54 73.3113 107.365 73.9496 107.978C74.5879 108.59 75.4287 108.949 76.3135 108.985C76.699 108.99 77.0811 108.913 77.4345 108.759C77.788 108.606 78.1048 108.379 78.364 108.094C78.6487 107.778 78.8634 107.405 78.9942 107C79.1251 106.595 79.1691 106.167 79.1235 105.744V105.744C79.0414 104.872 78.645 104.058 78.0078 103.455C77.3705 102.852 76.5358 102.5 75.6585 102.465V102.418Z" fill="#282929"/>
<path d="M32.4839 42.0383H108.353C109.157 42.07 109.922 42.3937 110.504 42.9486C111.086 43.5035 111.445 44.2514 111.514 45.0519L115.51 90.7098C115.562 91.0853 115.532 91.4674 115.424 91.8306C115.315 92.1938 115.13 92.5297 114.881 92.8159C114.633 93.102 114.325 93.3319 113.98 93.49C113.635 93.6481 113.26 93.7309 112.881 93.7328H37.0121C36.207 93.6989 35.4419 93.3732 34.8601 92.8168C34.2782 92.2603 33.9194 91.5113 33.8509 90.7098L29.8543 45.0519C29.8044 44.6771 29.8351 44.296 29.9442 43.934C30.0533 43.5719 30.2384 43.2372 30.4872 42.9521C30.7359 42.6671 31.0426 42.4381 31.3869 42.2806C31.7312 42.123 32.1051 42.0404 32.4839 42.0383V42.0383Z" fill="#282929"/>
<path d="M45.2426 47.6265H37.7051C37.5792 47.6265 37.4585 47.5766 37.3695 47.4877C37.2805 47.3988 37.2305 47.2783 37.2305 47.1527C37.2305 47.027 37.2805 46.9065 37.3695 46.8176C37.4585 46.7288 37.5792 46.6788 37.7051 46.6788H45.2426C45.3685 46.6788 45.4892 46.7288 45.5783 46.8176C45.6673 46.9065 45.7173 47.027 45.7173 47.1527C45.7173 47.2783 45.6673 47.3988 45.5783 47.4877C45.4892 47.5766 45.3685 47.6265 45.2426 47.6265Z" fill="white"/>
<path d="M62.236 47.6265H47.1895C47.0636 47.6265 46.9429 47.5766 46.8539 47.4877C46.7649 47.3988 46.7148 47.2783 46.7148 47.1527C46.7148 47.027 46.7649 46.9065 46.8539 46.8176C46.9429 46.7288 47.0636 46.6788 47.1895 46.6788H62.236C62.3619 46.6788 62.4826 46.7288 62.5717 46.8176C62.6607 46.9065 62.7107 47.027 62.7107 47.1527C62.7107 47.2783 62.6607 47.3988 62.5717 47.4877C62.4826 47.5766 62.3619 47.6265 62.236 47.6265Z" fill="#73F25F"/>
<path d="M67.5327 50.5751H52.5147C52.3888 50.5751 52.2681 50.5252 52.1791 50.4363C52.09 50.3475 52.04 50.2269 52.04 50.1013C52.04 49.9756 52.09 49.8551 52.1791 49.7662C52.2681 49.6774 52.3888 49.6274 52.5147 49.6274H67.5327C67.6586 49.6274 67.7794 49.6774 67.8684 49.7662C67.9574 49.8551 68.0074 49.9756 68.0074 50.1013C68.0074 50.2269 67.9574 50.3475 67.8684 50.4363C67.7794 50.5252 67.6586 50.5751 67.5327 50.5751Z" fill="#73F25F"/>
<path d="M47.1313 50.5751H39.5938C39.4679 50.5751 39.3472 50.5252 39.2582 50.4363C39.1691 50.3475 39.1191 50.2269 39.1191 50.1013C39.1191 49.9756 39.1691 49.8551 39.2582 49.7662C39.3472 49.6774 39.4679 49.6274 39.5938 49.6274H47.1313C47.2572 49.6274 47.3779 49.6774 47.4669 49.7662C47.5559 49.8551 47.606 49.9756 47.606 50.1013C47.606 50.2269 47.5559 50.3475 47.4669 50.4363C47.3779 50.5252 47.2572 50.5751 47.1313 50.5751Z" fill="white"/>
<path d="M49.02 53.5113H41.4825C41.3566 53.5113 41.2358 53.4613 41.1468 53.3725C41.0578 53.2836 41.0078 53.1631 41.0078 53.0374C41.0078 52.9118 41.0578 52.7912 41.1468 52.7024C41.2358 52.6135 41.3566 52.5636 41.4825 52.5636H49.02C49.1459 52.5636 49.2666 52.6135 49.3556 52.7024C49.4446 52.7912 49.4946 52.9118 49.4946 53.0374C49.4946 53.1631 49.4446 53.2836 49.3556 53.3725C49.2666 53.4613 49.1459 53.5113 49.02 53.5113Z" fill="white"/>
<path d="M70.3799 53.5113H51.5362C51.4103 53.5113 51.2896 53.4613 51.2005 53.3725C51.1115 53.2836 51.0615 53.1631 51.0615 53.0374C51.0615 52.9118 51.1115 52.7912 51.2005 52.7024C51.2896 52.6135 51.4103 52.5636 51.5362 52.5636H70.3799C70.5058 52.5636 70.6266 52.6135 70.7156 52.7024C70.8046 52.7912 70.8546 52.9118 70.8546 53.0374C70.8546 53.1631 70.8046 53.2836 70.7156 53.3725C70.6266 53.4613 70.5058 53.5113 70.3799 53.5113Z" fill="#73F25F"/>
<path d="M50.9096 56.4557H43.3721C43.2462 56.4557 43.1255 56.4058 43.0365 56.3169C42.9475 56.2281 42.8975 56.1075 42.8975 55.9819C42.8975 55.8562 42.9475 55.7357 43.0365 55.6468C43.1255 55.558 43.2462 55.5081 43.3721 55.5081H50.9096C51.0355 55.5081 51.1562 55.558 51.2452 55.6468C51.3343 55.7357 51.3843 55.8562 51.3843 55.9819C51.3843 56.1075 51.3343 56.2281 51.2452 56.3169C51.1562 56.4058 51.0355 56.4557 50.9096 56.4557Z" fill="white"/>
<path d="M74.3769 56.4557H51.9922C51.8663 56.4557 51.7456 56.4058 51.6566 56.3169C51.5676 56.2281 51.5176 56.1075 51.5176 55.9819C51.5176 55.8562 51.5676 55.7357 51.6566 55.6468C51.7456 55.558 51.8663 55.5081 51.9922 55.5081H74.3769C74.5028 55.5081 74.6235 55.558 74.7125 55.6468C74.8016 55.7357 74.8516 55.8562 74.8516 55.9819C74.8516 56.1075 74.8016 56.2281 74.7125 56.3169C74.6235 56.4058 74.5028 56.4557 74.3769 56.4557Z" fill="#73F25F"/>
<path d="M49.0307 59.4042H41.4932C41.3673 59.4042 41.2466 59.3543 41.1576 59.2654C41.0686 59.1766 41.0186 59.056 41.0186 58.9304C41.0186 58.8047 41.0686 58.6842 41.1576 58.5953C41.2466 58.5065 41.3673 58.4565 41.4932 58.4565H49.0307C49.1566 58.4565 49.2773 58.5065 49.3663 58.5953C49.4554 58.6842 49.5054 58.8047 49.5054 58.9304C49.5054 59.056 49.4554 59.1766 49.3663 59.2654C49.2773 59.3543 49.1566 59.4042 49.0307 59.4042Z" fill="white"/>
<path d="M62.7091 59.4042H50.5674C50.4423 59.4018 50.323 59.3511 50.2345 59.2627C50.146 59.1744 50.0952 59.0553 50.0928 58.9304C50.0928 58.8047 50.1428 58.6842 50.2318 58.5953C50.3208 58.5065 50.4415 58.4565 50.5674 58.4565H62.7091C62.835 58.4565 62.9557 58.5065 63.0447 58.5953C63.1337 58.6842 63.1837 58.8047 63.1837 58.9304C63.1837 59.056 63.1337 59.1766 63.0447 59.2654C62.9557 59.3543 62.835 59.4042 62.7091 59.4042Z" fill="#73F25F"/>
<path d="M79.4847 59.4042H67.3526C67.2267 59.4042 67.106 59.3543 67.017 59.2654C66.9279 59.1766 66.8779 59.056 66.8779 58.9304C66.8779 58.8047 66.9279 58.6842 67.017 58.5953C67.106 58.5065 67.2267 58.4565 67.3526 58.4565H79.4847C79.6106 58.4565 79.7314 58.5065 79.8204 58.5953C79.9094 58.6842 79.9594 58.8047 79.9594 58.9304C79.9594 59.056 79.9094 59.1766 79.8204 59.2654C79.7314 59.3543 79.6106 59.4042 79.4847 59.4042Z" fill="#73F25F"/>
<path d="M49.1538 62.3528H41.6163C41.4904 62.3528 41.3696 62.3029 41.2806 62.214C41.1916 62.1252 41.1416 62.0046 41.1416 61.879C41.1416 61.7533 41.1916 61.6328 41.2806 61.5439C41.3696 61.4551 41.4904 61.4052 41.6163 61.4052H49.1538C49.2796 61.4052 49.4004 61.4551 49.4894 61.5439C49.5784 61.6328 49.6284 61.7533 49.6284 61.879C49.626 62.0039 49.5752 62.123 49.4867 62.2113C49.3982 62.2997 49.2789 62.3504 49.1538 62.3528V62.3528Z" fill="white"/>
<path d="M62.8333 62.3528H52.2295C52.1037 62.3528 51.9829 62.3029 51.8939 62.214C51.8049 62.1252 51.7549 62.0046 51.7549 61.879C51.7549 61.7533 51.8049 61.6328 51.8939 61.5439C51.9829 61.4551 52.1037 61.4052 52.2295 61.4052H62.8333C62.9592 61.4052 63.0799 61.4551 63.1689 61.5439C63.258 61.6328 63.308 61.7533 63.308 61.879C63.3055 62.0039 63.2547 62.123 63.1662 62.2113C63.0778 62.2997 62.9584 62.3504 62.8333 62.3528V62.3528Z" fill="#73F25F"/>
<path d="M68.9565 62.3528H64.6182C64.4923 62.3528 64.3716 62.3029 64.2826 62.214C64.1936 62.1252 64.1436 62.0046 64.1436 61.879C64.1436 61.7533 64.1936 61.6328 64.2826 61.5439C64.3716 61.4551 64.4923 61.4052 64.6182 61.4052H68.9565C69.0824 61.4052 69.2032 61.4551 69.2922 61.5439C69.3812 61.6328 69.4312 61.7533 69.4312 61.879C69.4288 62.0039 69.378 62.123 69.2895 62.2113C69.201 62.2997 69.0817 62.3504 68.9565 62.3528V62.3528Z" fill="#73F25F"/>
<path d="M49.267 65.2848H41.7295C41.6037 65.2848 41.4829 65.2349 41.3939 65.146C41.3049 65.0572 41.2549 64.9367 41.2549 64.811C41.2573 64.6861 41.3081 64.567 41.3966 64.4786C41.4851 64.3903 41.6044 64.3396 41.7295 64.3372H49.267C49.3929 64.3372 49.5137 64.3871 49.6027 64.4759C49.6917 64.5648 49.7417 64.6853 49.7417 64.811C49.7417 64.9367 49.6917 65.0572 49.6027 65.146C49.5137 65.2349 49.3929 65.2848 49.267 65.2848Z" fill="white"/>
<path d="M66.7538 65.2848H51.2706C51.1447 65.2848 51.0239 65.2349 50.9349 65.146C50.8459 65.0572 50.7959 64.9367 50.7959 64.811C50.7959 64.6853 50.8459 64.5648 50.9349 64.4759C51.0239 64.3871 51.1447 64.3372 51.2706 64.3372H66.7538C66.8796 64.3372 67.0004 64.3871 67.0894 64.4759C67.1784 64.5648 67.2284 64.6853 67.2284 64.811C67.2284 64.9367 67.1784 65.0572 67.0894 65.146C67.0004 65.2349 66.8796 65.2848 66.7538 65.2848Z" fill="#73F25F"/>
<path d="M76.0758 65.2848H68.5762C68.4503 65.2848 68.3296 65.2349 68.2406 65.146C68.1516 65.0572 68.1016 64.9367 68.1016 64.811C68.1016 64.6853 68.1516 64.5648 68.2406 64.4759C68.3296 64.3871 68.4503 64.3372 68.5762 64.3372H76.0758C76.2016 64.3372 76.3224 64.3871 76.4114 64.4759C76.5004 64.5648 76.5504 64.6853 76.5504 64.811C76.5504 64.9367 76.5004 65.0572 76.4114 65.146C76.3224 65.2349 76.2016 65.2848 76.0758 65.2848Z" fill="#73F25F"/>
<path d="M44.0842 68.2374H40.0782C39.9523 68.2374 39.8316 68.1875 39.7425 68.0987C39.6535 68.0098 39.6035 67.8893 39.6035 67.7636C39.6035 67.638 39.6535 67.5174 39.7425 67.4286C39.8316 67.3397 39.9523 67.2898 40.0782 67.2898H44.0842C44.2101 67.2898 44.3309 67.3397 44.4199 67.4286C44.5089 67.5174 44.5589 67.638 44.5589 67.7636C44.5589 67.8893 44.5089 68.0098 44.4199 68.0987C44.3309 68.1875 44.2101 68.2374 44.0842 68.2374Z" fill="white"/>
<path d="M64.855 68.2374H47.3877C47.2619 68.2374 47.1411 68.1875 47.0521 68.0987C46.9631 68.0098 46.9131 67.8893 46.9131 67.7636C46.9131 67.638 46.9631 67.5174 47.0521 67.4286C47.1411 67.3397 47.2619 67.2898 47.3877 67.2898H64.855C64.9809 67.2898 65.1016 67.3397 65.1906 67.4286C65.2797 67.5174 65.3297 67.638 65.3297 67.7636C65.3297 67.8893 65.2797 68.0098 65.1906 68.0987C65.1016 68.1875 64.9809 68.2374 64.855 68.2374Z" fill="#73F25F"/>
<path d="M47.7397 71.1861H40.2022C40.0763 71.1861 39.9556 71.1361 39.8666 71.0473C39.7775 70.9584 39.7275 70.8379 39.7275 70.7122C39.7275 70.5866 39.7775 70.466 39.8666 70.3772C39.9556 70.2883 40.0763 70.2384 40.2022 70.2384H47.7397C47.8656 70.2384 47.9863 70.2883 48.0753 70.3772C48.1643 70.466 48.2144 70.5866 48.2144 70.7122C48.2144 70.8379 48.1643 70.9584 48.0753 71.0473C47.9863 71.1361 47.8656 71.1861 47.7397 71.1861Z" fill="white"/>
<path d="M56.4726 74.1222H41.4356C41.3097 74.1222 41.189 74.0723 41.1 73.9834C41.0109 73.8946 40.9609 73.7741 40.9609 73.6484C40.9609 73.5227 41.0109 73.4022 41.1 73.3133C41.189 73.2245 41.3097 73.1746 41.4356 73.1746H56.4726C56.5985 73.1746 56.7192 73.2245 56.8083 73.3133C56.8973 73.4022 56.9473 73.5227 56.9473 73.6484C56.9473 73.7741 56.8973 73.8946 56.8083 73.9834C56.7192 74.0723 56.5985 74.1222 56.4726 74.1222Z" fill="white"/>
<path d="M69.4307 74.1222H58.9883C58.8624 74.1222 58.7417 74.0723 58.6527 73.9834C58.5637 73.8946 58.5137 73.7741 58.5137 73.6484C58.5161 73.5235 58.5669 73.4044 58.6554 73.316C58.7439 73.2277 58.8632 73.177 58.9883 73.1746H69.4307C69.5566 73.1746 69.6773 73.2245 69.7663 73.3133C69.8554 73.4022 69.9054 73.5227 69.9054 73.6484C69.9054 73.7741 69.8554 73.8946 69.7663 73.9834C69.6773 74.0723 69.5566 74.1222 69.4307 74.1222Z" fill="#73F25F"/>
<path d="M83.8705 74.1222H70.9219C70.796 74.1222 70.6753 74.0723 70.5863 73.9834C70.4973 73.8946 70.4473 73.7741 70.4473 73.6484C70.4497 73.5235 70.5005 73.4044 70.589 73.316C70.6775 73.2277 70.7968 73.177 70.9219 73.1746H83.8705C83.9964 73.1746 84.1171 73.2245 84.2061 73.3133C84.2951 73.4022 84.3451 73.5227 84.3451 73.6484C84.3451 73.7741 84.2951 73.8946 84.2061 73.9834C84.1171 74.0723 83.9964 74.1222 83.8705 74.1222Z" fill="#73F25F"/>
<path d="M64.1332 77.0667H42.2041C42.0783 77.0667 41.9575 77.0168 41.8685 76.9279C41.7795 76.839 41.7295 76.7185 41.7295 76.5928C41.7295 76.4672 41.7795 76.3467 41.8685 76.2578C41.9575 76.1689 42.0783 76.119 42.2041 76.119H64.1332C64.259 76.119 64.3798 76.1689 64.4688 76.2578C64.5578 76.3467 64.6078 76.4672 64.6078 76.5928C64.6078 76.7185 64.5578 76.839 64.4688 76.9279C64.3798 77.0168 64.259 77.0667 64.1332 77.0667V77.0667Z" fill="white"/>
<path d="M75.4971 77.0667H65.6338C65.5079 77.0667 65.3872 77.0168 65.2982 76.9279C65.2092 76.839 65.1592 76.7185 65.1592 76.5928C65.1592 76.4672 65.2092 76.3467 65.2982 76.2578C65.3872 76.1689 65.5079 76.119 65.6338 76.119H75.4971C75.623 76.119 75.7438 76.1689 75.8328 76.2578C75.9218 76.3467 75.9718 76.4672 75.9718 76.5928C75.9718 76.7185 75.9218 76.839 75.8328 76.9279C75.7438 77.0168 75.623 77.0667 75.4971 77.0667Z" fill="#73F25F"/>
<path d="M106.502 77.0667H77.168C77.0421 77.0667 76.9214 77.0168 76.8324 76.9279C76.7434 76.839 76.6934 76.7185 76.6934 76.5928C76.6934 76.4672 76.7434 76.3467 76.8324 76.2578C76.9214 76.1689 77.0421 76.119 77.168 76.119H106.502C106.628 76.119 106.748 76.1689 106.837 76.2578C106.926 76.3467 106.976 76.4672 106.976 76.5928C106.976 76.7185 106.926 76.839 106.837 76.9279C106.748 77.0168 106.628 77.0667 106.502 77.0667Z" fill="#73F25F"/>
<path d="M52.6087 80.011H42.2422C42.1163 80.011 41.9956 79.9611 41.9066 79.8722C41.8176 79.7834 41.7676 79.6628 41.7676 79.5372C41.7676 79.4115 41.8176 79.291 41.9066 79.2021C41.9956 79.1133 42.1163 79.0634 42.2422 79.0634H52.6087C52.7346 79.0634 52.8553 79.1133 52.9443 79.2021C53.0333 79.291 53.0833 79.4115 53.0833 79.5372C53.0833 79.6628 53.0333 79.7834 52.9443 79.8722C52.8553 79.9611 52.7346 80.011 52.6087 80.011Z" fill="white"/>
<path d="M62.3113 80.011H54.7168C54.5917 80.0086 54.4724 79.9579 54.3839 79.8695C54.2954 79.7812 54.2446 79.6621 54.2422 79.5372C54.2422 79.4115 54.2922 79.291 54.3812 79.2021C54.4702 79.1133 54.591 79.0634 54.7168 79.0634H62.3113C62.4372 79.0634 62.5579 79.1133 62.6469 79.2021C62.736 79.291 62.786 79.4115 62.786 79.5372C62.7835 79.6621 62.7327 79.7812 62.6442 79.8695C62.5558 79.9579 62.4364 80.0086 62.3113 80.011V80.011Z" fill="#73F25F"/>
<path d="M72.0037 80.011H64.4092C64.2841 80.0086 64.1648 79.9579 64.0763 79.8695C63.9878 79.7812 63.937 79.6621 63.9346 79.5372C63.9346 79.4115 63.9846 79.291 64.0736 79.2021C64.1626 79.1133 64.2833 79.0634 64.4092 79.0634H72.0037C72.1296 79.0634 72.2503 79.1133 72.3393 79.2021C72.4283 79.291 72.4783 79.4115 72.4783 79.5372C72.4759 79.6621 72.4251 79.7812 72.3366 79.8695C72.2481 79.9579 72.1288 80.0086 72.0037 80.011V80.011Z" fill="#73F25F"/>
<path d="M60.6876 82.9638H42.3565C42.2314 82.9613 42.112 82.9106 42.0235 82.8223C41.9351 82.734 41.8843 82.6148 41.8818 82.4899C41.8818 82.3643 41.9318 82.2438 42.0209 82.1549C42.1099 82.066 42.2306 82.0161 42.3565 82.0161H60.6876C60.8135 82.0161 60.9342 82.066 61.0233 82.1549C61.1123 82.2438 61.1623 82.3643 61.1623 82.4899C61.1623 82.6156 61.1123 82.7361 61.0233 82.825C60.9342 82.9138 60.8135 82.9638 60.6876 82.9638Z" fill="white"/>
<path d="M72.1179 82.9638H62.9571C62.8312 82.9638 62.7105 82.9138 62.6214 82.825C62.5324 82.7361 62.4824 82.6156 62.4824 82.4899C62.4824 82.3643 62.5324 82.2438 62.6214 82.1549C62.7105 82.066 62.8312 82.0161 62.9571 82.0161H72.1179C72.2438 82.0161 72.3645 82.066 72.4535 82.1549C72.5425 82.2438 72.5926 82.3643 72.5926 82.4899C72.5926 82.5522 72.5803 82.6138 72.5564 82.6713C72.5326 82.7288 72.4976 82.781 72.4535 82.825C72.4095 82.869 72.3571 82.9039 72.2995 82.9277C72.2419 82.9515 72.1802 82.9638 72.1179 82.9638V82.9638Z" fill="#73F25F"/>
<path d="M88.3325 82.9638H74.3682C74.2431 82.9613 74.1238 82.9106 74.0353 82.8223C73.9468 82.734 73.896 82.6148 73.8936 82.4899C73.8936 82.3643 73.9436 82.2438 74.0326 82.1549C74.1216 82.066 74.2423 82.0161 74.3682 82.0161H88.3325C88.4584 82.0161 88.5791 82.066 88.6682 82.1549C88.7572 82.2438 88.8072 82.3643 88.8072 82.4899C88.8072 82.6156 88.7572 82.7361 88.6682 82.825C88.5791 82.9138 88.4584 82.9638 88.3325 82.9638Z" fill="#73F25F"/>
<path d="M103.767 82.9638H89.8028C89.6769 82.9638 89.5562 82.9138 89.4671 82.825C89.3781 82.7361 89.3281 82.6156 89.3281 82.4899C89.3281 82.3643 89.3781 82.2438 89.4671 82.1549C89.5562 82.066 89.6769 82.0161 89.8028 82.0161H103.767C103.893 82.0161 104.014 82.066 104.103 82.1549C104.192 82.2438 104.242 82.3643 104.242 82.4899C104.239 82.6148 104.189 82.734 104.1 82.8223C104.012 82.9106 103.892 82.9613 103.767 82.9638Z" fill="#73F25F"/>
<path d="M58.0399 85.9041H47.1133C46.9874 85.9041 46.8667 85.8542 46.7777 85.7653C46.6887 85.6764 46.6387 85.5559 46.6387 85.4302C46.6411 85.3053 46.6919 85.1862 46.7804 85.0979C46.8689 85.0096 46.9882 84.9588 47.1133 84.9564H58.0399C58.1657 84.9564 58.2865 85.0063 58.3755 85.0952C58.4645 85.1841 58.5145 85.3046 58.5145 85.4302C58.5145 85.5559 58.4645 85.6764 58.3755 85.7653C58.2865 85.8542 58.1657 85.9041 58.0399 85.9041Z" fill="white"/>
<path d="M71.0445 85.9041H60.1084C59.9826 85.9041 59.8618 85.8542 59.7728 85.7653C59.6838 85.6764 59.6338 85.5559 59.6338 85.4302C59.6338 85.3046 59.6838 85.1841 59.7728 85.0952C59.8618 85.0063 59.9826 84.9564 60.1084 84.9564H71.0445C71.1696 84.9588 71.2889 85.0096 71.3774 85.0979C71.4659 85.1862 71.5167 85.3053 71.5191 85.4302C71.5191 85.5559 71.4691 85.6764 71.3801 85.7653C71.2911 85.8542 71.1704 85.9041 71.0445 85.9041Z" fill="#73F25F"/>
<path d="M84.1181 85.9041H73.2295C73.1037 85.9041 72.9829 85.8542 72.8939 85.7653C72.8049 85.6764 72.7549 85.5559 72.7549 85.4302C72.7549 85.3046 72.8049 85.1841 72.8939 85.0952C72.9829 85.0063 73.1037 84.9564 73.2295 84.9564H84.1656C84.2914 84.9564 84.4122 85.0063 84.5012 85.0952C84.5902 85.1841 84.6402 85.3046 84.6402 85.4302C84.6405 85.4967 84.6269 85.5624 84.6001 85.6232C84.5734 85.684 84.5341 85.7386 84.4849 85.7832C84.4356 85.8279 84.3775 85.8618 84.3143 85.8826C84.2512 85.9034 84.1843 85.9107 84.1181 85.9041Z" fill="#73F25F"/>
<path d="M97.6734 86.2359H86.7373C86.6115 86.2359 86.4907 86.1859 86.4017 86.0971C86.3127 86.0082 86.2627 85.8877 86.2627 85.762C86.2627 85.6364 86.3127 85.5158 86.4017 85.427C86.4907 85.3381 86.6115 85.2882 86.7373 85.2882H97.6734C97.7993 85.2882 97.92 85.3381 98.009 85.427C98.098 85.5158 98.148 85.6364 98.148 85.762C98.148 85.8877 98.098 86.0082 98.009 86.0971C97.92 86.1859 97.7993 86.2359 97.6734 86.2359Z" fill="#73F25F"/>
<path d="M56.3969 88.8484H48.8594C48.7335 88.8484 48.6128 88.7985 48.5238 88.7096C48.4348 88.6208 48.3848 88.5003 48.3848 88.3746C48.3848 88.2489 48.4348 88.1284 48.5238 88.0395C48.6128 87.9507 48.7335 87.9008 48.8594 87.9008H56.3969C56.5228 87.9008 56.6435 87.9507 56.7326 88.0395C56.8216 88.1284 56.8716 88.2489 56.8716 88.3746C56.8716 88.5003 56.8216 88.6208 56.7326 88.7096C56.6435 88.7985 56.5228 88.8484 56.3969 88.8484Z" fill="white"/>
<path d="M65.7094 88.8484H58.1719C58.046 88.8484 57.9253 88.7985 57.8363 88.7096C57.7473 88.6208 57.6973 88.5003 57.6973 88.3746C57.6973 88.2489 57.7473 88.1284 57.8363 88.0395C57.9253 87.9507 58.046 87.9008 58.1719 87.9008H65.7094C65.8353 87.9008 65.956 87.9507 66.0451 88.0395C66.1341 88.1284 66.1841 88.2489 66.1841 88.3746C66.1841 88.5003 66.1341 88.6208 66.0451 88.7096C65.956 88.7985 65.8353 88.8484 65.7094 88.8484Z" fill="#73F25F"/>
<path d="M83.1294 89.1422L67.5323 88.8484C67.4064 88.8484 67.2857 88.7985 67.1966 88.7096C67.1076 88.6208 67.0576 88.5003 67.0576 88.3746C67.0576 88.2489 67.1076 88.1284 67.1966 88.0395C67.2857 87.9507 67.4064 87.9008 67.5323 87.9008L83.1104 88.1945C83.1728 88.1958 83.2342 88.2092 83.2913 88.2342C83.3485 88.2592 83.4001 88.2951 83.4433 88.34C83.4865 88.3849 83.5204 88.4378 83.5431 88.4958C83.5658 88.5537 83.5768 88.6156 83.5756 88.6778C83.5757 88.7978 83.5293 88.9131 83.4461 88.9997C83.3629 89.0862 83.2494 89.1373 83.1294 89.1422V89.1422Z" fill="#73F25F"/>
<path d="M87.6109 56.4557H77.4248C77.299 56.4557 77.1782 56.4058 77.0892 56.3169C77.0002 56.2281 76.9502 56.1075 76.9502 55.9819C76.9502 55.8562 77.0002 55.7357 77.0892 55.6468C77.1782 55.558 77.299 55.5081 77.4248 55.5081H87.6109C87.7368 55.5081 87.8575 55.558 87.9466 55.6468C88.0356 55.7357 88.0856 55.8562 88.0856 55.9819C88.0856 56.1075 88.0356 56.2281 87.9466 56.3169C87.8575 56.4058 87.7368 56.4557 87.6109 56.4557Z" fill="#73F25F"/>
<path d="M95.128 56.4837C93.9232 56.5467 92.7159 56.5467 91.5112 56.4837C91.4504 56.4665 91.3937 56.4371 91.3447 56.3974C91.2957 56.3576 91.2553 56.3083 91.226 56.2524C91.1966 56.1965 91.179 56.1353 91.1742 56.0724C91.1694 56.0095 91.1774 55.9463 91.1979 55.8867C91.2328 55.7781 91.3058 55.6857 91.4035 55.6265C91.5011 55.5674 91.6169 55.5453 91.7295 55.5645C92.2421 55.5645 98.8778 55.5645 103.254 55.5645C103.38 55.5645 103.501 55.6144 103.59 55.7032C103.679 55.7921 103.729 55.9126 103.729 56.0383C103.729 56.164 103.679 56.2845 103.59 56.3733C103.501 56.4622 103.38 56.5121 103.254 56.5121L95.128 56.4837Z" fill="#73F25F"/>
<path d="M85.749 50.5751H70.9493C70.8241 50.5727 70.7048 50.522 70.6163 50.4336C70.5278 50.3453 70.477 50.2262 70.4746 50.1013C70.4746 49.9756 70.5246 49.8551 70.6136 49.7662C70.7026 49.6774 70.8234 49.6274 70.9493 49.6274H85.749C85.8749 49.6274 85.9956 49.6774 86.0846 49.7662C86.1736 49.8551 86.2236 49.9756 86.2236 50.1013C86.2212 50.2262 86.1704 50.3453 86.0819 50.4336C85.9934 50.522 85.8741 50.5727 85.749 50.5751V50.5751Z" fill="#73F25F"/>
<path d="M103.445 50.5751H88.7217C88.5958 50.5751 88.4751 50.5252 88.3861 50.4363C88.2971 50.3475 88.2471 50.2269 88.2471 50.1013C88.2471 49.9756 88.2971 49.8551 88.3861 49.7662C88.4751 49.6774 88.5958 49.6274 88.7217 49.6274H103.445C103.571 49.6274 103.692 49.6774 103.781 49.7662C103.87 49.8551 103.92 49.9756 103.92 50.1013C103.92 50.2269 103.87 50.3475 103.781 50.4363C103.692 50.5252 103.571 50.5751 103.445 50.5751Z" fill="#73F25F"/>
<path d="M71.9848 47.6308C68.985 47.6308 66.8966 47.6308 66.8016 47.6308C66.7399 47.6215 66.6806 47.6002 66.6271 47.568C66.5736 47.5359 66.527 47.4935 66.49 47.4433C66.453 47.3931 66.4262 47.3361 66.4113 47.2756C66.3963 47.2151 66.3935 47.1522 66.4029 47.0906C66.4238 46.9727 66.4877 46.8666 66.5825 46.7931C66.6772 46.7195 66.7959 46.6837 66.9155 46.6926C67.4377 46.6926 79.361 46.6926 83.9271 46.6926C84.053 46.6926 84.1737 46.7425 84.2628 46.8314C84.3518 46.9203 84.4018 47.0408 84.4018 47.1664C84.4018 47.2921 84.3518 47.4126 84.2628 47.5015C84.1737 47.5903 84.053 47.6403 83.9271 47.6403L71.9848 47.6308Z" fill="#73F25F"/>
<path d="M87.9618 47.6235C87.8721 47.6217 87.7846 47.5951 87.7092 47.5466C87.6338 47.498 87.5733 47.4295 87.5346 47.3487C87.5076 47.2928 87.492 47.2321 87.4889 47.1702C87.4857 47.1082 87.495 47.0463 87.5163 46.988C87.5375 46.9297 87.5703 46.8762 87.6125 46.8307C87.6548 46.7853 87.7058 46.7487 87.7625 46.7232C87.8859 46.6664 88.0662 46.5716 98.0909 46.6759C98.2168 46.6759 98.3375 46.7258 98.4266 46.8146C98.5156 46.9035 98.5656 47.024 98.5656 47.1497C98.5608 47.2754 98.5079 47.3946 98.4179 47.4827C98.3279 47.5708 98.2075 47.6212 98.0814 47.6235C94.4836 47.6235 88.5884 47.5477 88.0757 47.6235H87.9618Z" fill="white"/>
<path d="M74.5008 68.2374H66.9063C66.7804 68.2374 66.6597 68.1875 66.5707 68.0987C66.4817 68.0098 66.4316 67.8893 66.4316 67.7636C66.4316 67.638 66.4817 67.5174 66.5707 67.4286C66.6597 67.3397 66.7804 67.2898 66.9063 67.2898H74.5008C74.6266 67.2898 74.7474 67.3397 74.8364 67.4286C74.9254 67.5174 74.9754 67.638 74.9754 67.7636C74.9754 67.8893 74.9254 68.0098 74.8364 68.0987C74.7474 68.1875 74.6266 68.2374 74.5008 68.2374Z" fill="#73F25F"/>
<path d="M57.0898 71.1861H51.5079C51.382 71.1861 51.2612 71.1361 51.1722 71.0473C51.0832 70.9584 51.0332 70.8379 51.0332 70.7122C51.0332 70.5866 51.0832 70.466 51.1722 70.3772C51.2612 70.2883 51.382 70.2384 51.5079 70.2384H57.0898C57.2157 70.2384 57.3364 70.2883 57.4254 70.3772C57.5144 70.466 57.5644 70.5866 57.5644 70.7122C57.5644 70.8379 57.5144 70.9584 57.4254 71.0473C57.3364 71.1361 57.2157 71.1861 57.0898 71.1861Z" fill="#73F25F"/>
<path d="M72.5833 71.1861H59.293C59.1671 71.1861 59.0464 71.1361 58.9574 71.0473C58.8684 70.9584 58.8184 70.8379 58.8184 70.7122C58.8184 70.5866 58.8684 70.466 58.9574 70.3772C59.0464 70.2883 59.1671 70.2384 59.293 70.2384H72.5833C72.7092 70.2384 72.8299 70.2883 72.919 70.3772C73.008 70.466 73.058 70.5866 73.058 70.7122C73.058 70.8379 73.008 70.9584 72.919 71.0473C72.8299 71.1361 72.7092 71.1861 72.5833 71.1861Z" fill="white"/>
<path d="M101.09 71.1861H75.2598C75.1339 71.1861 75.0132 71.1361 74.9242 71.0473C74.8352 70.9584 74.7852 70.8379 74.7852 70.7122C74.7852 70.5866 74.8352 70.466 74.9242 70.3772C75.0132 70.2883 75.1339 70.2384 75.2598 70.2384H101.09C101.216 70.2384 101.337 70.2883 101.426 70.3772C101.515 70.466 101.565 70.5866 101.565 70.7122C101.565 70.8379 101.515 70.9584 101.426 71.0473C101.337 71.1361 101.216 71.1861 101.09 71.1861Z" fill="#73F25F"/>
<path d="M242.689 114.029C242.689 114.029 243.952 144.06 240.563 153.953H225.117C224.323 153.954 223.55 154.209 222.913 154.682C222.275 155.155 221.806 155.819 221.576 156.578L220.75 159.326H260.004C262.954 157.387 265.437 154.821 267.276 151.811C269.915 147.187 268.282 114.019 268.282 114.019L242.689 114.029Z" fill="white"/>
<path d="M260.004 159.814H220.75C220.676 159.815 220.603 159.799 220.537 159.766C220.47 159.733 220.413 159.684 220.37 159.624C220.328 159.564 220.299 159.496 220.286 159.424C220.273 159.352 220.276 159.278 220.294 159.207L221.13 156.45C221.386 155.591 221.913 154.838 222.634 154.303C223.354 153.768 224.229 153.481 225.126 153.483H240.22C243.41 143.476 242.223 114.355 242.214 114.061C242.21 113.997 242.218 113.933 242.24 113.873C242.261 113.813 242.294 113.757 242.337 113.71C242.383 113.663 242.437 113.625 242.497 113.599C242.558 113.573 242.623 113.559 242.688 113.559H268.32C268.442 113.561 268.558 113.609 268.646 113.693C268.734 113.778 268.787 113.892 268.794 114.014C268.861 115.369 270.399 147.371 267.731 152.062C265.854 155.144 263.311 157.77 260.289 159.747C260.201 159.794 260.103 159.817 260.004 159.814ZM221.386 158.866H259.861C262.696 156.978 265.086 154.498 266.867 151.598C268.87 148.072 268.377 126.068 267.817 114.506H243.154C243.305 118.581 244.16 144.831 240.989 154.109C240.957 154.204 240.896 154.286 240.814 154.344C240.732 154.402 240.634 154.432 240.533 154.431H225.117C224.423 154.428 223.747 154.649 223.19 155.063C222.634 155.477 222.227 156.06 222.031 156.724L221.386 158.866Z" fill="#282929"/>
<path d="M266.403 146.059C266.403 152.314 264.504 154.19 262.008 154.19H252.163C251.484 154.19 250.821 154.397 250.264 154.786C249.707 155.174 249.283 155.723 249.049 156.36L247.967 159.326H263.156C267.048 159.326 269.801 153.441 269.934 147.187C270.067 140.932 269.934 114.019 269.934 114.019H266.545C266.545 114.019 266.403 139.805 266.403 146.059Z" fill="#282929"/>
<path d="M263.137 159.814H247.948C247.872 159.815 247.796 159.797 247.728 159.763C247.661 159.728 247.602 159.677 247.559 159.615C247.513 159.553 247.484 159.48 247.474 159.404C247.464 159.328 247.474 159.25 247.502 159.179L248.584 156.213C248.852 155.485 249.337 154.857 249.973 154.413C250.61 153.969 251.367 153.731 252.144 153.73H261.988C262.938 153.73 265.909 153.73 265.909 146.073C265.909 139.885 266.032 114.288 266.032 114.033C266.032 113.907 266.082 113.786 266.171 113.698C266.26 113.609 266.381 113.559 266.507 113.559H269.896C270.021 113.561 270.14 113.612 270.229 113.7C270.317 113.789 270.368 113.908 270.371 114.033C270.371 114.307 270.494 141.012 270.371 147.2C270.247 153.389 267.513 159.814 263.137 159.814ZM248.641 158.866H263.137C266.478 158.866 269.307 153.626 269.44 147.191C269.554 141.458 269.44 118.136 269.44 114.506H267.001C267.001 118.051 266.877 140.349 266.877 146.073C266.877 151.797 265.282 154.677 262.007 154.677H252.163C251.577 154.681 251.006 154.865 250.529 155.204C250.052 155.543 249.691 156.021 249.495 156.573L248.641 158.866Z" fill="#282929"/>
<path d="M213.403 43.7844L207.47 111.579C207.375 112.333 207.441 113.098 207.663 113.825C207.886 114.551 208.26 115.222 208.762 115.793C209.263 116.365 209.88 116.823 210.573 117.139C211.265 117.455 212.016 117.621 212.777 117.626H293.762C295.384 117.567 296.928 116.917 298.103 115.8C299.279 114.683 300.004 113.175 300.142 111.561L306.084 43.7654C306.183 43.0095 306.119 42.2414 305.897 41.5121C305.675 40.7828 305.3 40.1089 304.797 39.5353C304.294 38.9617 303.675 38.5014 302.98 38.1851C302.286 37.8687 301.532 37.7035 300.768 37.7004H219.783C218.158 37.7599 216.611 38.4119 215.436 39.5331C214.26 40.6543 213.537 42.1668 213.403 43.7844V43.7844Z" fill="#282929"/>
<path d="M293.762 118.121H212.776C211.975 118.12 211.183 117.952 210.452 117.625C209.721 117.298 209.067 116.821 208.533 116.225C207.958 115.588 207.524 114.836 207.259 114.02C206.994 113.203 206.904 112.34 206.995 111.487L212.938 43.711C213.087 41.9812 213.866 40.3659 215.127 39.1699C216.388 37.974 218.044 37.2803 219.782 37.2196H300.768C301.564 37.2127 302.354 37.3727 303.085 37.6894C303.816 38.0061 304.472 38.4723 305.011 39.058C305.588 39.6945 306.024 40.4458 306.289 41.2626C306.554 42.0793 306.643 42.9429 306.549 43.7963L300.616 111.591C300.469 113.327 299.691 114.95 298.428 116.152C297.165 117.355 295.506 118.055 293.762 118.121ZM219.782 38.1957C218.279 38.2528 216.849 38.8567 215.762 39.8936C214.674 40.9305 214.004 42.3287 213.878 43.8247V43.8247L207.935 111.62C207.859 112.343 207.935 113.074 208.159 113.766C208.383 114.458 208.75 115.096 209.235 115.638C209.685 116.127 210.232 116.517 210.842 116.781C211.452 117.046 212.111 117.179 212.776 117.173H293.762C295.273 117.112 296.709 116.5 297.798 115.452C298.886 114.403 299.551 112.993 299.666 111.487L305.609 43.711C305.687 42.9884 305.612 42.2575 305.39 41.5654C305.168 40.8734 304.802 40.2355 304.318 39.6929C303.867 39.2042 303.317 38.8158 302.705 38.553C302.094 38.2901 301.434 38.1587 300.768 38.1672L219.782 38.1957Z" fill="#282929"/>
<path d="M213.137 43.5155L207.441 108.24C207.348 108.962 207.41 109.695 207.622 110.391C207.835 111.087 208.193 111.73 208.673 112.278C209.153 112.825 209.745 113.265 210.408 113.567C211.071 113.869 211.791 114.027 212.52 114.03H289.86C291.407 113.973 292.881 113.353 294.001 112.287C295.122 111.22 295.814 109.781 295.945 108.24L301.641 43.5155C301.736 42.794 301.677 42.0604 301.466 41.3637C301.256 40.667 300.898 40.0231 300.419 39.4751C299.939 38.9271 299.348 38.4876 298.684 38.1858C298.021 37.8841 297.3 37.7271 296.571 37.7253H219.222C217.674 37.7823 216.201 38.4026 215.08 39.4692C213.959 40.5359 213.268 41.9751 213.137 43.5155V43.5155Z" fill="white"/>
<path d="M289.861 114.493H212.539C211.776 114.5 211.02 114.347 210.32 114.043C209.62 113.74 208.992 113.292 208.476 112.73C207.923 112.121 207.505 111.401 207.25 110.619C206.995 109.837 206.908 109.009 206.995 108.191L212.691 43.457C212.836 41.8002 213.583 40.2534 214.792 39.1084C216 37.9633 217.586 37.2989 219.251 37.2404H296.582C297.337 37.2324 298.086 37.3816 298.781 37.6786C299.476 37.9755 300.101 38.4137 300.616 38.9651C301.17 39.5745 301.588 40.2941 301.844 41.0765C302.099 41.8588 302.185 42.6863 302.097 43.5044L296.401 108.239C296.266 109.899 295.525 111.452 294.32 112.605C293.115 113.757 291.528 114.429 289.861 114.493V114.493ZM213.612 43.5423L207.916 108.277C207.849 108.959 207.924 109.648 208.136 110.301C208.349 110.953 208.694 111.554 209.15 112.067C209.579 112.531 210.1 112.9 210.681 113.15C211.262 113.4 211.888 113.525 212.52 113.517H289.861C291.29 113.462 292.65 112.888 293.685 111.902C294.72 110.915 295.359 109.586 295.48 108.163L301.176 43.4286C301.249 42.7464 301.177 42.0566 300.966 41.4037C300.755 40.7508 300.41 40.1493 299.952 39.638C299.523 39.174 299.002 38.8051 298.421 38.5553C297.841 38.3055 297.214 38.1804 296.582 38.1881H219.223C217.794 38.2432 216.435 38.8181 215.401 39.8043C214.368 40.7906 213.732 42.1201 213.612 43.5423V43.5423Z" fill="#282929"/>
<path d="M208.419 97.3685L207.47 108.238C207.377 108.96 207.439 109.693 207.651 110.389C207.864 111.085 208.222 111.728 208.702 112.276C209.182 112.823 209.773 113.262 210.437 113.565C211.1 113.867 211.819 114.025 212.548 114.028H289.86C291.408 113.971 292.881 113.351 294.002 112.284C295.123 111.218 295.814 109.778 295.945 108.238L296.894 97.3685H208.419Z" fill="white"/>
<path d="M289.861 114.499H212.539C211.776 114.506 211.02 114.353 210.32 114.049C209.62 113.746 208.992 113.298 208.476 112.736C207.923 112.127 207.505 111.407 207.25 110.625C206.995 109.843 206.908 109.015 206.995 108.197L207.945 97.3276C207.954 97.2087 208.009 97.0977 208.097 97.0168C208.185 96.936 208.3 96.8913 208.419 96.8917H296.904C296.971 96.8925 297.037 96.9072 297.097 96.935C297.158 96.9627 297.212 97.0029 297.256 97.0528C297.299 97.1017 297.332 97.1587 297.354 97.2205C297.375 97.2823 297.383 97.3477 297.379 97.4129L296.43 108.283C296.285 109.941 295.536 111.489 294.326 112.634C293.116 113.78 291.527 114.443 289.861 114.499V114.499ZM208.856 97.8394L207.907 108.264C207.84 108.946 207.915 109.635 208.127 110.288C208.339 110.94 208.685 111.541 209.141 112.054C209.569 112.518 210.091 112.887 210.671 113.137C211.252 113.387 211.879 113.512 212.511 113.504H289.861C291.29 113.449 292.65 112.875 293.685 111.889C294.72 110.903 295.359 109.573 295.48 108.15L296.382 97.792L208.856 97.8394Z" fill="#282929"/>
<path d="M254.837 107.641C256.028 105.867 255.687 103.555 254.076 102.477C252.464 101.399 250.192 101.963 249.002 103.737C247.811 105.51 248.152 107.822 249.763 108.9C251.374 109.979 253.646 109.415 254.837 107.641Z" fill="white"/>
<path d="M251.603 109.933C251.086 109.938 250.574 109.834 250.099 109.628C249.625 109.423 249.2 109.12 248.85 108.739C248.475 108.325 248.191 107.837 248.017 107.306C247.844 106.775 247.785 106.214 247.844 105.659C247.941 104.543 248.443 103.501 249.256 102.73C250.069 101.958 251.137 101.51 252.258 101.47C252.775 101.465 253.288 101.569 253.762 101.775C254.237 101.98 254.662 102.284 255.011 102.664C255.385 103.079 255.668 103.568 255.841 104.098C256.014 104.628 256.074 105.189 256.018 105.744C255.919 106.859 255.416 107.9 254.603 108.671C253.791 109.442 252.724 109.891 251.603 109.933V109.933ZM252.258 102.418C251.374 102.454 250.533 102.813 249.894 103.426C249.256 104.038 248.864 104.863 248.793 105.744C248.746 106.167 248.788 106.594 248.917 106.999C249.047 107.404 249.26 107.777 249.543 108.094C249.805 108.379 250.123 108.605 250.478 108.759C250.833 108.912 251.217 108.989 251.603 108.985C252.487 108.947 253.327 108.588 253.965 107.975C254.603 107.363 254.995 106.539 255.068 105.659C255.114 105.236 255.07 104.808 254.939 104.403C254.808 103.998 254.593 103.625 254.309 103.309C254.045 103.032 253.727 102.815 253.373 102.669C253.02 102.524 252.64 102.455 252.258 102.465V102.418Z" fill="#282929"/>
<path d="M295.423 42.0383H219.592C218.787 42.066 218.02 42.3883 217.437 42.944C216.854 43.4996 216.496 44.2499 216.431 45.0519L212.425 90.7098C212.375 91.0858 212.406 91.4682 212.516 91.8313C212.625 92.1945 212.811 92.5303 213.061 92.8162C213.31 93.1022 213.618 93.3318 213.964 93.4899C214.309 93.6479 214.684 93.7307 215.064 93.7328H290.895C291.701 93.7029 292.468 93.3786 293.051 92.8213C293.634 92.2641 293.991 91.5127 294.056 90.7098L298.062 45.0519C298.112 44.6763 298.081 44.2944 297.971 43.9317C297.862 43.569 297.676 43.2338 297.426 42.9486C297.176 42.6634 296.868 42.4346 296.523 42.2776C296.178 42.1207 295.803 42.0391 295.423 42.0383V42.0383Z" fill="#282929"/>
<path d="M232.275 47.6265H224.738C224.612 47.6265 224.491 47.5766 224.402 47.4877C224.313 47.3988 224.263 47.2783 224.263 47.1527C224.263 47.027 224.313 46.9065 224.402 46.8176C224.491 46.7288 224.612 46.6788 224.738 46.6788H232.275C232.401 46.6788 232.522 46.7288 232.611 46.8176C232.7 46.9065 232.75 47.027 232.75 47.1527C232.75 47.2783 232.7 47.3988 232.611 47.4877C232.522 47.5766 232.401 47.6265 232.275 47.6265Z" fill="white"/>
<path d="M249.259 47.6265H234.222C234.096 47.6265 233.975 47.5766 233.886 47.4877C233.797 47.3988 233.747 47.2783 233.747 47.1527C233.747 47.027 233.797 46.9065 233.886 46.8176C233.975 46.7288 234.096 46.6788 234.222 46.6788H249.259C249.385 46.6788 249.505 46.7288 249.594 46.8176C249.683 46.9065 249.733 47.027 249.733 47.1527C249.733 47.2783 249.683 47.3988 249.594 47.4877C249.505 47.5766 249.385 47.6265 249.259 47.6265V47.6265Z" fill="#73F25F"/>
<path d="M253.92 50.5751H238.883C238.757 50.5751 238.636 50.5252 238.547 50.4363C238.458 50.3475 238.408 50.2269 238.408 50.1013C238.408 49.9756 238.458 49.8551 238.547 49.7662C238.636 49.6774 238.757 49.6274 238.883 49.6274H253.92C254.046 49.6274 254.166 49.6774 254.256 49.7662C254.345 49.8551 254.395 49.9756 254.395 50.1013C254.395 50.2269 254.345 50.3475 254.256 50.4363C254.166 50.5252 254.046 50.5751 253.92 50.5751Z" fill="#73F25F"/>
<path d="M233.5 50.5751H225.962C225.837 50.5751 225.716 50.5252 225.627 50.4363C225.538 50.3475 225.488 50.2269 225.488 50.1013C225.488 49.9756 225.538 49.8551 225.627 49.7662C225.716 49.6774 225.837 49.6274 225.962 49.6274H233.5C233.626 49.6274 233.747 49.6774 233.836 49.7662C233.925 49.8551 233.975 49.9756 233.975 50.1013C233.975 50.2269 233.925 50.3475 233.836 50.4363C233.747 50.5252 233.626 50.5751 233.5 50.5751Z" fill="white"/>
<path d="M234.734 53.5113H227.196C227.07 53.5113 226.95 53.4613 226.861 53.3725C226.772 53.2836 226.722 53.1631 226.722 53.0374C226.722 52.9118 226.772 52.7912 226.861 52.7024C226.95 52.6135 227.07 52.5636 227.196 52.5636H234.734C234.859 52.566 234.978 52.6167 235.067 52.7051C235.155 52.7934 235.206 52.9125 235.208 53.0374C235.208 53.1631 235.158 53.2836 235.069 53.3725C234.98 53.4613 234.86 53.5113 234.734 53.5113Z" fill="white"/>
<path d="M256.075 53.5113H237.24C237.114 53.5113 236.994 53.4613 236.905 53.3725C236.816 53.2836 236.766 53.1631 236.766 53.0374C236.768 52.9125 236.819 52.7934 236.907 52.7051C236.996 52.6167 237.115 52.566 237.24 52.5636H256.075C256.2 52.5636 256.321 52.6135 256.41 52.7024C256.499 52.7912 256.549 52.9118 256.549 53.0374C256.549 53.1631 256.499 53.2836 256.41 53.3725C256.321 53.4613 256.2 53.5113 256.075 53.5113Z" fill="#73F25F"/>
<path d="M235.958 56.4557H228.421C228.295 56.4557 228.174 56.4058 228.085 56.3169C227.996 56.2281 227.946 56.1075 227.946 55.9819C227.946 55.8562 227.996 55.7357 228.085 55.6468C228.174 55.558 228.295 55.5081 228.421 55.5081H235.958C236.084 55.5081 236.205 55.558 236.294 55.6468C236.383 55.7357 236.433 55.8562 236.433 55.9819C236.433 56.1075 236.383 56.2281 236.294 56.3169C236.205 56.4058 236.084 56.4557 235.958 56.4557Z" fill="white"/>
<path d="M259.425 56.4557H237.041C236.915 56.4557 236.794 56.4058 236.705 56.3169C236.616 56.2281 236.566 56.1075 236.566 55.9819C236.566 55.8562 236.616 55.7357 236.705 55.6468C236.794 55.558 236.915 55.5081 237.041 55.5081H259.425C259.551 55.5081 259.672 55.558 259.761 55.6468C259.85 55.7357 259.9 55.8562 259.9 55.9819C259.9 56.1075 259.85 56.2281 259.761 56.3169C259.672 56.4058 259.551 56.4557 259.425 56.4557Z" fill="#73F25F"/>
<path d="M233.424 59.4042H225.886C225.76 59.4042 225.64 59.3543 225.551 59.2654C225.462 59.1766 225.412 59.056 225.412 58.9304C225.412 58.8047 225.462 58.6842 225.551 58.5953C225.64 58.5065 225.76 58.4565 225.886 58.4565H233.424C233.55 58.4565 233.67 58.5065 233.759 58.5953C233.848 58.6842 233.898 58.8047 233.898 58.9304C233.896 59.0553 233.845 59.1744 233.757 59.2627C233.668 59.3511 233.549 59.4018 233.424 59.4042Z" fill="white"/>
<path d="M247.103 59.4042H234.961C234.836 59.4042 234.715 59.3543 234.626 59.2654C234.537 59.1766 234.487 59.056 234.487 58.9304C234.487 58.8047 234.537 58.6842 234.626 58.5953C234.715 58.5065 234.836 58.4565 234.961 58.4565H247.103C247.229 58.4565 247.35 58.5065 247.439 58.5953C247.528 58.6842 247.578 58.8047 247.578 58.9304C247.575 59.0553 247.525 59.1744 247.436 59.2627C247.348 59.3511 247.228 59.4018 247.103 59.4042Z" fill="#73F25F"/>
<path d="M263.877 59.4042H251.698C251.572 59.4042 251.451 59.3543 251.362 59.2654C251.273 59.1766 251.223 59.056 251.223 58.9304C251.223 58.8047 251.273 58.6842 251.362 58.5953C251.451 58.5065 251.572 58.4565 251.698 58.4565H263.839C263.965 58.4565 264.086 58.5065 264.175 58.5953C264.264 58.6842 264.314 58.8047 264.314 58.9304C264.312 59.0491 264.267 59.163 264.186 59.2504C264.106 59.3378 263.996 59.3926 263.877 59.4042V59.4042Z" fill="#73F25F"/>
<path d="M232.883 62.3528H225.346C225.22 62.3528 225.099 62.3029 225.01 62.214C224.921 62.1252 224.871 62.0046 224.871 61.879C224.871 61.7533 224.921 61.6328 225.01 61.5439C225.099 61.4551 225.22 61.4052 225.346 61.4052H232.883C233.009 61.4052 233.13 61.4551 233.219 61.5439C233.308 61.6328 233.358 61.7533 233.358 61.879C233.355 62.0039 233.305 62.123 233.216 62.2113C233.128 62.2997 233.008 62.3504 232.883 62.3528V62.3528Z" fill="white"/>
<path d="M246.562 62.3528H235.958C235.832 62.3528 235.711 62.3029 235.622 62.214C235.533 62.1252 235.483 62.0046 235.483 61.879C235.483 61.7533 235.533 61.6328 235.622 61.5439C235.711 61.4551 235.832 61.4052 235.958 61.4052H246.562C246.688 61.4052 246.808 61.4551 246.897 61.5439C246.986 61.6328 247.036 61.7533 247.036 61.879C247.034 62.0039 246.983 62.123 246.895 62.2113C246.806 62.2997 246.687 62.3504 246.562 62.3528Z" fill="#73F25F"/>
<path d="M252.647 62.3528H248.309C248.183 62.3528 248.063 62.3029 247.974 62.214C247.884 62.1252 247.834 62.0046 247.834 61.879C247.834 61.7533 247.884 61.6328 247.974 61.5439C248.063 61.4551 248.183 61.4052 248.309 61.4052H252.647C252.773 61.4052 252.894 61.4551 252.983 61.5439C253.072 61.6328 253.122 61.7533 253.122 61.879C253.12 62.0039 253.069 62.123 252.98 62.2113C252.892 62.2997 252.773 62.3504 252.647 62.3528Z" fill="#73F25F"/>
<path d="M232.341 65.2848H224.803C224.677 65.2848 224.557 65.2349 224.468 65.146C224.379 65.0572 224.329 64.9367 224.329 64.811C224.329 64.6853 224.379 64.5648 224.468 64.4759C224.557 64.3871 224.677 64.3372 224.803 64.3372H232.341C232.466 64.3396 232.585 64.3903 232.674 64.4786C232.762 64.567 232.813 64.6861 232.815 64.811C232.815 64.9367 232.765 65.0572 232.676 65.146C232.587 65.2349 232.467 65.2848 232.341 65.2848Z" fill="white"/>
<path d="M249.799 65.2848H234.335C234.209 65.2848 234.088 65.2349 233.999 65.146C233.91 65.0572 233.86 64.9367 233.86 64.811C233.862 64.6861 233.913 64.567 234.002 64.4786C234.09 64.3903 234.209 64.3396 234.335 64.3372H249.799C249.924 64.3396 250.043 64.3903 250.132 64.4786C250.22 64.567 250.271 64.6861 250.273 64.811C250.273 64.9367 250.223 65.0572 250.134 65.146C250.045 65.2349 249.925 65.2848 249.799 65.2848Z" fill="#73F25F"/>
<path d="M259.188 65.2848H251.698C251.572 65.2848 251.451 65.2349 251.362 65.146C251.273 65.0572 251.223 64.9367 251.223 64.811C251.223 64.6853 251.273 64.5648 251.362 64.4759C251.451 64.3871 251.572 64.3372 251.698 64.3372H259.235C259.36 64.3396 259.48 64.3903 259.568 64.4786C259.657 64.567 259.708 64.6861 259.71 64.811C259.71 64.8774 259.697 64.9432 259.67 65.004C259.643 65.0648 259.604 65.1193 259.555 65.164C259.505 65.2086 259.447 65.2425 259.384 65.2633C259.321 65.2841 259.254 65.2915 259.188 65.2848Z" fill="#73F25F"/>
<path d="M226.494 68.2374H222.488C222.362 68.2374 222.241 68.1875 222.152 68.0987C222.063 68.0098 222.013 67.8893 222.013 67.7636C222.013 67.638 222.063 67.5174 222.152 67.4286C222.241 67.3397 222.362 67.2898 222.488 67.2898H226.494C226.62 67.2898 226.741 67.3397 226.83 67.4286C226.919 67.5174 226.969 67.638 226.969 67.7636C226.969 67.8893 226.919 68.0098 226.83 68.0987C226.741 68.1875 226.62 68.2374 226.494 68.2374Z" fill="white"/>
<path d="M247.265 68.2374H229.798C229.672 68.2374 229.551 68.1875 229.462 68.0987C229.373 68.0098 229.323 67.8893 229.323 67.7636C229.323 67.638 229.373 67.5174 229.462 67.4286C229.551 67.3397 229.672 67.2898 229.798 67.2898H247.265C247.391 67.2898 247.512 67.3397 247.601 67.4286C247.69 67.5174 247.74 67.638 247.74 67.7636C247.74 67.8893 247.69 68.0098 247.601 68.0987C247.512 68.1875 247.391 68.2374 247.265 68.2374Z" fill="#73F25F"/>
<path d="M229.494 71.1861H221.947C221.822 71.1836 221.702 71.1329 221.614 71.0446C221.525 70.9563 221.475 70.8371 221.472 70.7122C221.472 70.5866 221.522 70.466 221.611 70.3772C221.7 70.2883 221.821 70.2384 221.947 70.2384H229.494C229.62 70.2384 229.74 70.2883 229.829 70.3772C229.918 70.466 229.968 70.5866 229.968 70.7122C229.966 70.8371 229.915 70.9563 229.827 71.0446C229.738 71.1329 229.619 71.1836 229.494 71.1861V71.1861Z" fill="white"/>
<path d="M237.563 74.1222H222.526C222.4 74.1222 222.279 74.0723 222.19 73.9834C222.101 73.8946 222.051 73.7741 222.051 73.6484C222.051 73.5227 222.101 73.4022 222.19 73.3133C222.279 73.2245 222.4 73.1746 222.526 73.1746H237.563C237.689 73.1746 237.81 73.2245 237.899 73.3133C237.988 73.4022 238.038 73.5227 238.038 73.6484C238.038 73.7741 237.988 73.8946 237.899 73.9834C237.81 74.0723 237.689 74.1222 237.563 74.1222Z" fill="white"/>
<path d="M250.522 74.1222H240.08C239.954 74.1222 239.833 74.0723 239.744 73.9834C239.655 73.8946 239.605 73.7741 239.605 73.6484C239.607 73.5235 239.658 73.4044 239.747 73.316C239.835 73.2277 239.955 73.177 240.08 73.1746H250.522C250.648 73.1746 250.769 73.2245 250.858 73.3133C250.947 73.4022 250.997 73.5227 250.997 73.6484C250.997 73.7741 250.947 73.8946 250.858 73.9834C250.769 74.0723 250.648 74.1222 250.522 74.1222Z" fill="#73F25F"/>
<path d="M264.989 74.1222H252.021C251.895 74.1222 251.774 74.0723 251.685 73.9834C251.596 73.8946 251.546 73.7741 251.546 73.6484C251.546 73.5227 251.596 73.4022 251.685 73.3133C251.774 73.2245 251.895 73.1746 252.021 73.1746H264.989C265.114 73.1746 265.235 73.2245 265.324 73.3133C265.413 73.4022 265.463 73.5227 265.463 73.6484C265.463 73.7741 265.413 73.8946 265.324 73.9834C265.235 74.0723 265.114 74.1222 264.989 74.1222Z" fill="#73F25F"/>
<path d="M244.57 77.0667H222.641C222.515 77.0667 222.395 77.0168 222.306 76.9279C222.216 76.839 222.167 76.7185 222.167 76.5928C222.167 76.4672 222.216 76.3467 222.306 76.2578C222.395 76.1689 222.515 76.119 222.641 76.119H244.57C244.696 76.119 244.817 76.1689 244.906 76.2578C244.995 76.3467 245.045 76.4672 245.045 76.5928C245.045 76.7185 244.995 76.839 244.906 76.9279C244.817 77.0168 244.696 77.0667 244.57 77.0667Z" fill="white"/>
<path d="M255.923 77.0667H246.06C245.934 77.0667 245.813 77.0168 245.724 76.9279C245.635 76.839 245.585 76.7185 245.585 76.5928C245.585 76.4672 245.635 76.3467 245.724 76.2578C245.813 76.1689 245.934 76.119 246.06 76.119H255.923C256.049 76.119 256.17 76.1689 256.259 76.2578C256.348 76.3467 256.398 76.4672 256.398 76.5928C256.398 76.7185 256.348 76.839 256.259 76.9279C256.17 77.0168 256.049 77.0667 255.923 77.0667Z" fill="#73F25F"/>
<path d="M286.927 77.0667H257.603C257.477 77.0667 257.356 77.0168 257.267 76.9279C257.178 76.839 257.128 76.7185 257.128 76.5928C257.128 76.4672 257.178 76.3467 257.267 76.2578C257.356 76.1689 257.477 76.119 257.603 76.119H286.927C287.053 76.119 287.173 76.1689 287.262 76.2578C287.351 76.3467 287.401 76.4672 287.401 76.5928C287.401 76.7185 287.351 76.839 287.262 76.9279C287.173 77.0168 287.053 77.0667 286.927 77.0667Z" fill="#73F25F"/>
<path d="M232.38 80.011H222.014C221.888 80.011 221.767 79.9611 221.678 79.8722C221.589 79.7834 221.539 79.6628 221.539 79.5372C221.539 79.4115 221.589 79.291 221.678 79.2021C221.767 79.1133 221.888 79.0634 222.014 79.0634H232.38C232.506 79.0634 232.627 79.1133 232.716 79.2021C232.805 79.291 232.855 79.4115 232.855 79.5372C232.855 79.6628 232.805 79.7834 232.716 79.8722C232.627 79.9611 232.506 80.011 232.38 80.011Z" fill="white"/>
<path d="M242.081 80.011H234.439C234.314 80.0086 234.195 79.9579 234.107 79.8695C234.018 79.7812 233.967 79.6621 233.965 79.5372C233.965 79.4115 234.015 79.291 234.104 79.2021C234.193 79.1133 234.314 79.0634 234.439 79.0634H242.081C242.207 79.0634 242.328 79.1133 242.417 79.2021C242.506 79.291 242.556 79.4115 242.556 79.5372C242.554 79.6621 242.503 79.7812 242.414 79.8695C242.326 79.9579 242.207 80.0086 242.081 80.011Z" fill="#73F25F"/>
<path d="M251.774 80.011H244.104C243.978 80.0086 243.859 79.9579 243.771 79.8695C243.682 79.7812 243.631 79.6621 243.629 79.5372C243.629 79.4115 243.679 79.291 243.768 79.2021C243.857 79.1133 243.978 79.0634 244.104 79.0634H251.745C251.871 79.0634 251.992 79.1133 252.081 79.2021C252.17 79.291 252.22 79.4115 252.22 79.5372C252.218 79.6574 252.171 79.7726 252.089 79.8602C252.006 79.9478 251.894 80.0016 251.774 80.011Z" fill="#73F25F"/>
<path d="M239.803 82.9638H221.472C221.346 82.9638 221.225 82.9138 221.136 82.825C221.047 82.7361 220.997 82.6156 220.997 82.4899C220.997 82.3643 221.047 82.2438 221.136 82.1549C221.225 82.066 221.346 82.0161 221.472 82.0161H239.803C239.929 82.0161 240.049 82.066 240.138 82.1549C240.227 82.2438 240.278 82.3643 240.278 82.4899C240.278 82.6156 240.227 82.7361 240.138 82.825C240.049 82.9138 239.929 82.9638 239.803 82.9638Z" fill="white"/>
<path d="M251.233 82.9638H242.063C241.937 82.9613 241.818 82.9106 241.73 82.8223C241.641 82.734 241.59 82.6148 241.588 82.4899C241.588 82.3643 241.638 82.2438 241.727 82.1549C241.816 82.066 241.937 82.0161 242.063 82.0161H251.233C251.359 82.0161 251.479 82.066 251.568 82.1549C251.658 82.2438 251.708 82.3643 251.708 82.4899C251.708 82.6156 251.658 82.7361 251.568 82.825C251.479 82.9138 251.359 82.9638 251.233 82.9638Z" fill="#73F25F"/>
<path d="M267.447 82.9638H253.482C253.357 82.9638 253.236 82.9138 253.147 82.825C253.058 82.7361 253.008 82.6156 253.008 82.4899C253.008 82.3643 253.058 82.2438 253.147 82.1549C253.236 82.066 253.357 82.0161 253.482 82.0161H267.447C267.573 82.0161 267.693 82.066 267.782 82.1549C267.871 82.2438 267.921 82.3643 267.921 82.4899C267.921 82.6156 267.871 82.7361 267.782 82.825C267.693 82.9138 267.573 82.9638 267.447 82.9638Z" fill="#73F25F"/>
<path d="M282.873 82.9638H268.918C268.792 82.9638 268.671 82.9138 268.582 82.825C268.493 82.7361 268.443 82.6156 268.443 82.4899C268.443 82.3643 268.493 82.2438 268.582 82.1549C268.671 82.066 268.792 82.0161 268.918 82.0161H282.873C282.999 82.0161 283.119 82.066 283.208 82.1549C283.297 82.2438 283.347 82.3643 283.347 82.4899C283.347 82.6156 283.297 82.7361 283.208 82.825C283.119 82.9138 282.999 82.9638 282.873 82.9638Z" fill="#73F25F"/>
<path d="M236.51 85.9041H225.564C225.438 85.9041 225.317 85.8542 225.228 85.7653C225.139 85.6764 225.089 85.5559 225.089 85.4302C225.092 85.3053 225.143 85.1862 225.231 85.0979C225.32 85.0096 225.439 84.9588 225.564 84.9564H236.51C236.635 84.9564 236.756 85.0063 236.845 85.0952C236.934 85.1841 236.984 85.3046 236.984 85.4302C236.984 85.5559 236.934 85.6764 236.845 85.7653C236.756 85.8542 236.635 85.9041 236.51 85.9041Z" fill="white"/>
<path d="M249.496 85.9041H238.56C238.434 85.9041 238.313 85.8542 238.224 85.7653C238.135 85.6764 238.085 85.5559 238.085 85.4302C238.085 85.3046 238.135 85.1841 238.224 85.0952C238.313 85.0063 238.434 84.9564 238.56 84.9564H249.496C249.621 84.9588 249.741 85.0096 249.829 85.0979C249.918 85.1862 249.968 85.3053 249.971 85.4302C249.971 85.5559 249.921 85.6764 249.832 85.7653C249.743 85.8542 249.622 85.9041 249.496 85.9041Z" fill="#73F25F"/>
<path d="M262.568 85.9041H251.632C251.506 85.9041 251.385 85.8542 251.296 85.7653C251.207 85.6764 251.157 85.5559 251.157 85.4302C251.16 85.3053 251.21 85.1862 251.299 85.0979C251.387 85.0096 251.507 84.9588 251.632 84.9564H262.568C262.694 84.9564 262.815 85.0063 262.904 85.0952C262.993 85.1841 263.043 85.3046 263.043 85.4302C263.043 85.5559 262.993 85.6764 262.904 85.7653C262.815 85.8542 262.694 85.9041 262.568 85.9041Z" fill="#73F25F"/>
<path d="M276.048 86.2359H265.112C264.986 86.2359 264.866 86.1859 264.777 86.0971C264.688 86.0082 264.638 85.8877 264.638 85.762C264.638 85.6364 264.688 85.5158 264.777 85.427C264.866 85.3381 264.986 85.2882 265.112 85.2882H276.048C276.174 85.2882 276.295 85.3381 276.384 85.427C276.473 85.5158 276.523 85.6364 276.523 85.762C276.523 85.8877 276.473 86.0082 276.384 86.0971C276.295 86.1859 276.174 86.2359 276.048 86.2359Z" fill="#73F25F"/>
<path d="M234.193 88.8484H226.655C226.529 88.8484 226.409 88.7985 226.32 88.7096C226.231 88.6208 226.181 88.5003 226.181 88.3746C226.181 88.2489 226.231 88.1284 226.32 88.0395C226.409 87.9507 226.529 87.9008 226.655 87.9008H234.193C234.319 87.9008 234.439 87.9507 234.528 88.0395C234.617 88.1284 234.667 88.2489 234.667 88.3746C234.667 88.5003 234.617 88.6208 234.528 88.7096C234.439 88.7985 234.319 88.8484 234.193 88.8484Z" fill="white"/>
<path d="M243.505 88.8484H235.958C235.832 88.8484 235.711 88.7985 235.622 88.7096C235.533 88.6208 235.483 88.5003 235.483 88.3746C235.483 88.2489 235.533 88.1284 235.622 88.0395C235.711 87.9507 235.832 87.9008 235.958 87.9008H243.505C243.631 87.9008 243.752 87.9507 243.841 88.0395C243.93 88.1284 243.98 88.2489 243.98 88.3746C243.98 88.5003 243.93 88.6208 243.841 88.7096C243.752 88.7985 243.631 88.8484 243.505 88.8484Z" fill="#73F25F"/>
<path d="M260.859 89.1438L245.347 88.8501C245.285 88.8488 245.224 88.8354 245.167 88.8104C245.109 88.7854 245.058 88.7495 245.015 88.7046C244.971 88.6597 244.937 88.6068 244.915 88.5488C244.892 88.4909 244.881 88.429 244.882 88.3668C244.879 88.3034 244.89 88.2401 244.914 88.1811C244.937 88.1222 244.973 88.0689 245.019 88.025C245.065 87.981 245.119 87.9473 245.179 87.9262C245.239 87.9051 245.303 87.8969 245.366 87.9024L260.878 88.1962C261.002 88.2033 261.119 88.2571 261.206 88.3467C261.292 88.4364 261.341 88.5552 261.343 88.6795C261.342 88.7417 261.329 88.8031 261.304 88.8601C261.279 88.9171 261.243 88.9687 261.198 89.0118C261.153 89.0549 261.1 89.0888 261.042 89.1114C260.983 89.1341 260.921 89.1451 260.859 89.1438V89.1438Z" fill="#73F25F"/>
<path d="M272.658 56.4557H262.472C262.346 56.4557 262.226 56.4058 262.137 56.3169C262.048 56.2281 261.998 56.1075 261.998 55.9819C261.998 55.8562 262.048 55.7357 262.137 55.6468C262.226 55.558 262.346 55.5081 262.472 55.5081H272.658C272.784 55.5081 272.905 55.558 272.994 55.6468C273.083 55.7357 273.133 55.8562 273.133 55.9819C273.133 56.1075 273.083 56.2281 272.994 56.3169C272.905 56.4058 272.784 56.4557 272.658 56.4557V56.4557Z" fill="#73F25F"/>
<path d="M280.177 56.4845C278.962 56.5469 277.744 56.5279 276.532 56.4277C276.406 56.3975 276.297 56.3187 276.23 56.2085C276.162 56.0983 276.141 55.9658 276.171 55.8401C276.201 55.7145 276.28 55.6059 276.391 55.5384C276.501 55.4708 276.634 55.4498 276.76 55.48C277.272 55.48 283.918 55.48 288.284 55.48C288.41 55.48 288.531 55.5299 288.62 55.6188C288.709 55.7076 288.759 55.8282 288.759 55.9538C288.759 56.0795 288.709 56.2 288.62 56.2889C288.531 56.3777 288.41 56.4277 288.284 56.4277L280.177 56.4845Z" fill="#73F25F"/>
<path d="M272.118 50.5751H257.318C257.193 50.5727 257.073 50.522 256.985 50.4336C256.896 50.3453 256.846 50.2262 256.843 50.1013C256.843 49.9756 256.893 49.8551 256.982 49.7662C257.071 49.6774 257.192 49.6274 257.318 49.6274H272.118C272.244 49.6274 272.364 49.6774 272.453 49.7662C272.542 49.8551 272.592 49.9756 272.592 50.1013C272.59 50.2262 272.539 50.3453 272.451 50.4336C272.362 50.522 272.243 50.5727 272.118 50.5751V50.5751Z" fill="#73F25F"/>
<path d="M289.813 50.5751H275.089C274.963 50.5751 274.842 50.5252 274.753 50.4363C274.664 50.3475 274.614 50.2269 274.614 50.1013C274.614 49.9756 274.664 49.8551 274.753 49.7662C274.842 49.6774 274.963 49.6274 275.089 49.6274H289.813C289.939 49.6274 290.059 49.6774 290.148 49.7662C290.237 49.8551 290.287 49.9756 290.287 50.1013C290.287 50.2269 290.237 50.3475 290.148 50.4363C290.059 50.5252 289.939 50.5751 289.813 50.5751Z" fill="#73F25F"/>
<path d="M259.056 47.6308C256.037 47.6308 253.92 47.6308 253.825 47.6308C253.763 47.6215 253.704 47.6002 253.651 47.568C253.597 47.5359 253.55 47.4935 253.513 47.4433C253.476 47.3931 253.45 47.3361 253.435 47.2756C253.42 47.2151 253.417 47.1522 253.426 47.0906C253.447 46.9727 253.511 46.8666 253.606 46.7931C253.701 46.7195 253.819 46.6837 253.939 46.6926C254.471 46.6926 266.394 46.6926 270.96 46.6926C271.086 46.6926 271.207 46.7425 271.296 46.8314C271.385 46.9203 271.435 47.0408 271.435 47.1664C271.432 47.2913 271.381 47.4105 271.293 47.4988C271.205 47.5871 271.085 47.6378 270.96 47.6403L259.056 47.6308Z" fill="#73F25F"/>
<path d="M274.994 47.627C274.901 47.6285 274.81 47.6023 274.732 47.5516C274.654 47.501 274.593 47.4282 274.557 47.3427C274.532 47.2855 274.518 47.2239 274.517 47.1614C274.516 47.0989 274.527 47.0368 274.55 46.9787C274.573 46.9206 274.607 46.8675 274.651 46.8227C274.694 46.7778 274.746 46.742 274.804 46.7172C274.918 46.7172 275.127 46.5751 285.123 46.7172C285.249 46.7172 285.369 46.7672 285.458 46.856C285.548 46.9449 285.597 47.0654 285.597 47.1911C285.597 47.3167 285.548 47.4372 285.458 47.5261C285.369 47.615 285.249 47.6649 285.123 47.6649C281.515 47.6649 275.63 47.5891 275.108 47.6649L274.994 47.627Z" fill="white"/>
<path d="M256.91 68.2374H249.316C249.19 68.2374 249.069 68.1875 248.98 68.0987C248.891 68.0098 248.841 67.8893 248.841 67.7636C248.841 67.638 248.891 67.5174 248.98 67.4286C249.069 67.3397 249.19 67.2898 249.316 67.2898H256.91C257.036 67.2898 257.157 67.3397 257.246 67.4286C257.335 67.5174 257.385 67.638 257.385 67.7636C257.385 67.8893 257.335 68.0098 257.246 68.0987C257.157 68.1875 257.036 68.2374 256.91 68.2374Z" fill="#73F25F"/>
<path d="M238.873 71.1861H233.263C233.137 71.1861 233.016 71.1361 232.927 71.0473C232.838 70.9584 232.788 70.8379 232.788 70.7122C232.788 70.5866 232.838 70.466 232.927 70.3772C233.016 70.2883 233.137 70.2384 233.263 70.2384H238.873C238.999 70.2384 239.12 70.2883 239.209 70.3772C239.298 70.466 239.348 70.5866 239.348 70.7122C239.345 70.8371 239.295 70.9563 239.206 71.0446C239.118 71.1329 238.998 71.1836 238.873 71.1861V71.1861Z" fill="#73F25F"/>
<path d="M254.337 71.1861H241.046C240.921 71.1836 240.802 71.1329 240.714 71.0446C240.625 70.9563 240.574 70.8371 240.572 70.7122C240.572 70.5866 240.622 70.466 240.711 70.3772C240.8 70.2883 240.921 70.2384 241.046 70.2384H254.337C254.463 70.2384 254.583 70.2883 254.672 70.3772C254.761 70.466 254.811 70.5866 254.811 70.7122C254.809 70.8371 254.758 70.9563 254.67 71.0446C254.581 71.1329 254.462 71.1836 254.337 71.1861V71.1861Z" fill="white"/>
<path d="M282.844 71.1861H257.004C256.879 71.1836 256.76 71.1329 256.671 71.0446C256.583 70.9563 256.532 70.8371 256.529 70.7122C256.529 70.5866 256.579 70.466 256.668 70.3772C256.757 70.2883 256.878 70.2384 257.004 70.2384H282.844C282.97 70.2384 283.091 70.2883 283.18 70.3772C283.269 70.466 283.319 70.5866 283.319 70.7122C283.319 70.8379 283.269 70.9584 283.18 71.0473C283.091 71.1361 282.97 71.1861 282.844 71.1861Z" fill="#73F25F"/>
<path d="M168.378 152.18H79.4844V158.89H168.378V152.18Z" fill="white"/>
<path d="M168.377 159.37H79.4834C79.3583 159.368 79.239 159.317 79.1505 159.229C79.062 159.14 79.0112 159.021 79.0088 158.896V152.177C79.0112 152.053 79.062 151.933 79.1505 151.845C79.239 151.757 79.3583 151.706 79.4834 151.704H168.377C168.503 151.704 168.623 151.754 168.712 151.842C168.801 151.931 168.851 152.052 168.851 152.177V158.896C168.851 158.959 168.839 159.02 168.815 159.078C168.791 159.135 168.756 159.187 168.712 159.231C168.668 159.275 168.616 159.31 168.558 159.334C168.501 159.358 168.439 159.37 168.377 159.37ZM79.9581 158.422H167.902V152.689H79.9581V158.422Z" fill="#282929"/>
<path d="M312.387 159.467H20.4746V171.256H312.387V159.467Z" fill="white"/>
<path d="M312.387 171.731H20.4747C20.3495 171.728 20.2302 171.677 20.1417 171.589C20.0532 171.501 20.0024 171.382 20 171.257V159.468C20 159.342 20.05 159.222 20.139 159.133C20.228 159.044 20.3488 158.994 20.4747 158.994H312.387C312.513 158.994 312.633 159.044 312.722 159.133C312.811 159.222 312.861 159.342 312.861 159.468V171.257C312.861 171.382 312.811 171.503 312.722 171.592C312.633 171.681 312.513 171.731 312.387 171.731ZM20.9493 170.783H311.912V159.942H20.9493V170.783Z" fill="#282929"/>
<path d="M234.327 159.525H261.097C261.581 159.525 258.012 148.03 249.411 147.708C240.81 147.386 234.327 159.525 234.327 159.525Z" fill="#282929"/>
<path d="M261.096 159.995H234.326C234.243 159.997 234.162 159.978 234.09 159.938C234.018 159.899 233.957 159.841 233.915 159.771C233.872 159.701 233.849 159.62 233.848 159.538C233.847 159.456 233.868 159.375 233.908 159.304C234.183 158.792 240.648 146.927 249.429 147.23C257.859 147.543 261.637 158.062 261.609 159.427C261.615 159.498 261.607 159.57 261.584 159.639C261.561 159.707 261.525 159.769 261.477 159.823C261.429 159.876 261.37 159.919 261.304 159.949C261.239 159.978 261.168 159.994 261.096 159.995ZM235.151 159.048H260.621C260.175 156.944 256.473 148.443 249.401 148.178H249.078C242.205 148.169 236.651 156.546 235.151 159.048Z" fill="#282929"/>
<path d="M133.984 177.961C133.984 177.961 91.1603 188.214 89.8597 195.777C88.5592 203.339 91.9197 218.122 91.9197 218.122H202.229C202.229 218.122 207.469 186.982 202.229 175.156C196.989 163.329 133.984 177.961 133.984 177.961Z" fill="#282929"/>
<path d="M202.268 218.599H91.9584C91.8503 218.6 91.7452 218.563 91.6607 218.496C91.5761 218.429 91.517 218.335 91.4932 218.23C91.3603 217.623 88.1327 203.266 89.4332 195.694C90.7717 187.924 132.152 177.926 133.918 177.509C134.079 177.509 149.876 173.823 166.118 171.662C188.123 168.743 200.436 169.852 202.695 174.979C207.935 186.796 202.951 216.941 202.695 218.211C202.677 218.313 202.625 218.407 202.548 218.477C202.47 218.548 202.372 218.59 202.268 218.599V218.599ZM92.3381 217.652H201.86C202.439 214.003 206.606 186.199 201.86 175.348C199.781 170.695 187.478 169.748 166.261 172.591C150.122 174.742 134.383 178.371 134.146 178.428C122.317 181.271 91.4268 189.914 90.3825 195.856C89.2149 202.574 91.835 215.32 92.3381 217.652V217.652Z" fill="#282929"/>
<path d="M208.258 127.667L216.184 145.843C216.184 145.843 238.54 149.918 240.126 149.056C241.711 148.193 244.084 145.17 245.584 144.204C247.084 143.237 253.236 144.09 254.299 144.848C255.362 145.606 257.821 148.639 257.555 149.586C257.289 150.534 255.789 149.482 255.789 149.482C255.789 149.482 258.03 150.989 257.574 152.183C257.118 153.377 252.362 150.24 251.48 150.24C250.597 150.24 248.223 156.817 245.584 159.091C242.945 161.366 213.545 165.649 210.811 165.005C208.077 164.36 192.841 142.451 192.841 142.451L195.917 128.634L208.258 127.667Z" fill="white"/>
<path d="M211.732 165.549C211.388 165.558 211.045 165.532 210.706 165.473C207.858 164.8 194.036 144.975 192.47 142.729C192.433 142.674 192.406 142.613 192.393 142.548C192.38 142.482 192.381 142.415 192.394 142.35L195.47 128.533C195.493 128.435 195.547 128.346 195.624 128.28C195.701 128.214 195.796 128.173 195.897 128.164L208.238 127.216C208.337 127.209 208.435 127.233 208.52 127.284C208.605 127.335 208.672 127.41 208.713 127.501L216.535 145.449C227.11 147.344 238.834 149.135 239.917 148.662C240.962 147.933 241.918 147.084 242.764 146.131C243.54 145.284 244.395 144.513 245.318 143.829C247.027 142.71 253.425 143.667 254.564 144.482C255.514 145.165 258.362 148.396 258.001 149.742C257.97 149.886 257.906 150.021 257.814 150.136C257.721 150.252 257.603 150.344 257.469 150.405C257.726 150.659 257.911 150.975 258.007 151.323C258.102 151.671 258.103 152.037 258.01 152.386C257.965 152.498 257.897 152.6 257.81 152.685C257.724 152.769 257.62 152.835 257.507 152.879C256.719 153.182 255.333 152.547 253.311 151.552C252.738 151.242 252.141 150.975 251.527 150.756C250.926 151.58 250.404 152.459 249.97 153.381C248.84 155.504 247.435 158.119 245.878 159.484C244.122 160.991 232.996 162.895 228.297 163.644C221.946 164.62 214.617 165.549 211.732 165.549ZM193.362 142.35C199.229 150.775 209.074 164.146 210.925 164.544C213.773 165.217 242.926 160.754 245.271 158.735C246.685 157.522 248.043 154.945 249.134 152.907C250.378 150.576 250.843 149.77 251.479 149.77C252.282 149.951 253.047 150.272 253.738 150.718C254.688 151.201 256.757 152.206 257.175 152.016C257.346 151.514 256.378 150.528 255.609 149.979L255.495 149.846C255.399 149.772 255.335 149.663 255.316 149.543C255.298 149.423 255.326 149.301 255.396 149.201C255.465 149.102 255.57 149.032 255.689 149.008C255.808 148.983 255.932 149.005 256.036 149.069L256.121 149.135C256.392 149.352 256.724 149.478 257.071 149.496C257.241 148.87 255.172 146.056 254.014 145.212C253.131 144.577 247.169 143.705 245.831 144.577C244.972 145.231 244.172 145.957 243.438 146.747C242.523 147.772 241.483 148.679 240.344 149.448C238.692 150.396 219.848 146.975 216.089 146.283C216.012 146.269 215.94 146.237 215.879 146.189C215.818 146.141 215.769 146.079 215.738 146.008L207.953 128.145L196.315 129.093L193.362 142.35Z" fill="#282929"/>
<path d="M116.184 129.06L110.488 142.981C110.488 142.981 93.4666 133.306 88.9289 132.624C76.0563 130.671 71.3002 138.878 71.0819 140.281C70.8636 141.683 83.5178 140.176 83.5178 140.176C83.5178 140.176 78.1827 142.072 78.6574 144.384C78.9137 145.682 84.9228 142.555 85.9006 142.877C86.8784 143.199 112.633 163.11 121.718 165.005C130.803 166.9 151.65 121.583 151.65 121.583" fill="white"/>
<path d="M171.701 67.3998C172.73 67.007 173.667 66.407 174.454 65.6372C175.559 64.5016 176.444 63.1714 177.065 61.7139C180.417 54.2454 181.538 45.9694 180.292 37.8804C179.789 34.393 179.077 29.5411 176.989 26.6128C175.991 25.3084 174.611 24.3476 173.039 23.8646C172.612 23.7414 168.151 24.0068 168.568 24.4996C166.901 22.5864 164.823 21.0726 162.489 20.0703C160.156 19.0679 157.626 18.6028 155.088 18.7094C150.797 18.88 145.595 20.7468 142.813 24.1584C141.674 25.5609 141.257 26.6602 139.424 27.3141C137.006 28.1231 134.372 28.0015 132.039 26.9729C131.469 26.736 127.767 25.4377 127.786 24.926C127.71 27.3932 128.352 29.8294 129.634 31.9401C130.917 34.0507 132.784 35.7453 135.01 36.819C132.36 36.9945 129.703 36.5769 127.235 35.5966C128.404 38.2842 130.41 40.5244 132.954 41.9855C135.498 43.4465 138.446 44.0507 141.361 43.7085C143.26 46.3998 145.766 48.6837 147.636 51.5266C149.62 54.5402 151.528 57.6769 154.158 60.1882C158.306 64.1115 165.777 69.6458 171.701 67.3998Z" fill="white"/>
<path d="M168.766 68.4076C162.843 68.4076 156.549 63.1007 153.834 60.5041C151.581 58.1938 149.609 55.627 147.957 52.8566L147.274 51.7668C146.233 50.2698 145.091 48.8451 143.856 47.5023C142.907 46.4505 141.958 45.3512 141.141 44.195C138.165 44.4941 135.171 43.8409 132.591 42.33C130.011 40.8191 127.979 38.5286 126.788 35.7894C126.753 35.7032 126.745 35.6089 126.764 35.5181C126.782 35.4272 126.827 35.3438 126.893 35.2782C126.959 35.2126 127.042 35.1677 127.133 35.1491C127.224 35.1305 127.319 35.1389 127.405 35.1734C129.264 35.9068 131.236 36.3171 133.234 36.3864C131.354 35.1319 129.827 33.4197 128.795 31.4115C127.764 29.4034 127.262 27.1658 127.338 24.9103C127.34 24.8476 127.354 24.7859 127.379 24.7287C127.405 24.6716 127.442 24.6202 127.488 24.5777C127.534 24.5352 127.588 24.5024 127.648 24.4814C127.707 24.4604 127.769 24.4516 127.832 24.4554C127.93 24.4528 128.027 24.4805 128.108 24.5348C128.19 24.5891 128.253 24.6673 128.288 24.7587C129.361 25.3939 130.505 25.9027 131.696 26.2749L132.265 26.5024C134.49 27.4846 137.002 27.6028 139.309 26.834C140.337 26.4415 141.198 25.7089 141.749 24.7587C141.958 24.4649 142.186 24.1616 142.451 23.811C145.423 20.1531 150.929 18.3525 155.068 18.182C157.598 18.0965 160.117 18.5549 162.454 19.5261C164.791 20.4973 166.892 21.9586 168.614 23.811C170.105 23.4507 171.64 23.3102 173.171 23.394C174.846 23.9054 176.317 24.9298 177.377 26.3223C179.541 29.3548 180.224 34.2352 180.766 37.7984C182.007 45.9787 180.871 54.3429 177.49 61.8972C176.855 63.4178 175.944 64.8088 174.804 66.0005C173.968 66.8231 172.973 67.4678 171.88 67.8958V67.8958C170.882 68.2548 169.827 68.4282 168.766 68.4076V68.4076ZM141.36 43.2095C141.436 43.2098 141.511 43.228 141.578 43.2626C141.646 43.2972 141.704 43.3472 141.749 43.4085C142.603 44.612 143.648 45.7587 144.597 46.8769C145.84 48.2705 146.988 49.7458 148.033 51.293L148.755 52.3922C150.363 55.0923 152.274 57.6008 154.451 59.8692C157.517 62.7975 165.32 69.3457 171.538 67.0145C172.509 66.6431 173.394 66.0789 174.139 65.3561C175.198 64.2564 176.044 62.9714 176.636 61.5655C179.944 54.1816 181.055 46.0035 179.835 38.0069C179.332 34.5385 178.649 29.7907 176.608 26.9383C175.68 25.6994 174.384 24.7842 172.905 24.3227C171.599 24.2912 170.293 24.4089 169.013 24.6734C168.985 24.7492 168.936 24.8152 168.871 24.8629C168.824 24.9048 168.77 24.9367 168.71 24.9567C168.651 24.9766 168.588 24.9842 168.526 24.9788C168.464 24.9735 168.403 24.9554 168.348 24.9257C168.293 24.896 168.245 24.8552 168.206 24.8061V24.8061C166.587 22.9485 164.569 21.4788 162.303 20.506C160.036 19.5332 157.58 19.0822 155.115 19.1865C151.195 19.3476 145.983 21.0818 143.192 24.4649C142.945 24.7681 142.727 25.0619 142.527 25.3367C141.858 26.4575 140.822 27.3141 139.594 27.7627C137.061 28.6062 134.304 28.4813 131.857 27.4121C131.762 27.4121 131.572 27.2984 131.316 27.2036C130.283 26.8317 129.272 26.4014 128.288 25.9148C128.397 28.1236 129.1 30.2623 130.323 32.1065C131.545 33.9507 133.243 35.4323 135.237 36.3958C135.363 36.4185 135.474 36.4901 135.547 36.5949C135.62 36.6998 135.649 36.8293 135.626 36.955C135.603 37.0806 135.532 37.1922 135.427 37.265C135.321 37.3379 135.192 37.3661 135.066 37.3435C132.734 37.499 130.395 37.2063 128.174 36.4811C129.43 38.7981 131.356 40.6838 133.701 41.8923C136.047 43.1009 138.702 43.5764 141.322 43.2569L141.36 43.2095Z" fill="#282929"/>
<path d="M140.923 53.6003C140.923 53.6003 135.986 63.1811 137.41 64.8964C138.834 66.6116 142.774 64.8964 142.774 64.8964" fill="white"/>
<path d="M139.49 66.1492C139.039 66.1821 138.585 66.1142 138.163 65.9502C137.741 65.7863 137.361 65.5305 137.05 65.2015C135.503 63.3062 139.652 55.0332 140.506 53.3843C140.535 53.3289 140.574 53.2797 140.622 53.2395C140.669 53.1993 140.725 53.1689 140.784 53.15C140.844 53.131 140.906 53.124 140.968 53.1293C141.031 53.1345 141.091 53.1519 141.147 53.1806C141.202 53.2092 141.252 53.2484 141.292 53.2961C141.332 53.3437 141.363 53.3988 141.382 53.4582C141.4 53.5176 141.408 53.5801 141.402 53.6423C141.397 53.7044 141.38 53.7648 141.351 53.8202C138.987 58.3974 137.013 63.6758 137.781 64.5571C138.731 65.7512 141.579 64.8983 142.585 64.4719C142.701 64.4216 142.832 64.4193 142.949 64.4655C143.067 64.5117 143.161 64.6026 143.211 64.7182C143.262 64.8338 143.264 64.9647 143.218 65.082C143.172 65.1993 143.08 65.2934 142.965 65.3437C141.863 65.8152 140.687 66.088 139.49 66.1492Z" fill="#282929"/>
<path d="M140.894 41.665C137.467 45.1429 139.271 51.5111 139.764 55.7282C140.454 61.6542 141.286 67.5612 142.261 73.4493C142.869 77.2399 152.637 76.207 154.232 74.8992L154.336 89.9195L175.136 86.4037L171.785 67.6402C171.785 67.6402 165.139 68.4078 160.497 61.1677C155.855 53.9277 154.574 37.2111 154.574 37.2111C154.574 37.2111 144.245 38.2724 140.894 41.665Z" fill="white"/>
<path d="M154.337 90.3944C154.223 90.3917 154.113 90.3518 154.024 90.2807C153.972 90.2358 153.931 90.1804 153.904 90.1182C153.876 90.0561 153.862 89.9887 153.862 89.9206L153.767 75.7058C151.66 76.5492 146.885 76.9946 144.122 75.9522C143.547 75.8073 143.024 75.5053 142.612 75.0801C142.199 74.6549 141.914 74.1234 141.787 73.5451C140.838 67.6792 139.983 61.709 139.29 55.7956C139.205 55.0943 139.091 54.3267 138.968 53.5212C138.331 49.4653 137.544 44.4143 140.562 41.3534C143.989 37.8755 154.09 36.8046 154.527 36.7667C154.589 36.7589 154.653 36.7641 154.713 36.782C154.774 36.8 154.83 36.8303 154.878 36.871C154.974 36.9559 155.032 37.0751 155.039 37.2026C155.039 37.3637 156.368 53.8719 160.897 60.894C165.32 67.7834 171.472 67.1864 171.728 67.158C171.848 67.1463 171.968 67.1797 172.064 67.2515C172.161 67.3233 172.227 67.4285 172.25 67.5465L175.611 86.3574C175.63 86.484 175.6 86.6131 175.525 86.7175C175.491 86.7688 175.446 86.8121 175.394 86.8448C175.342 86.8775 175.283 86.8987 175.222 86.9071L154.413 90.4229L154.337 90.3944ZM154.232 74.4265C154.298 74.4129 154.366 74.4129 154.432 74.4265C154.514 74.4632 154.584 74.5231 154.633 74.5988C154.682 74.6746 154.708 74.7628 154.707 74.8529L154.802 89.3236L174.586 85.9784L171.386 68.1435C169.792 68.1435 164.21 67.8308 160.099 61.4247C155.837 54.7911 154.403 40.5763 154.137 37.7333C152.087 37.9892 144.018 39.1643 141.236 41.9883C138.455 44.8123 139.338 49.5032 139.898 53.3601C140.031 54.1846 140.154 54.9617 140.24 55.6819C140.923 61.5763 141.768 67.5275 142.727 73.384C142.841 74.1043 143.429 74.6634 144.455 75.0519C147.416 76.1607 152.884 75.3931 153.948 74.5402C154.027 74.4706 154.127 74.4304 154.232 74.4265V74.4265Z" fill="#282929"/>
<path d="M141.919 69.0161C141.919 69.0161 146.827 71.3473 148.763 66.3153Z" fill="white"/>
<path d="M144.427 70.0325C143.485 70.0261 142.554 69.8261 141.693 69.445C141.632 69.4212 141.577 69.3852 141.531 69.3392C141.485 69.2932 141.449 69.2383 141.425 69.1777C141.401 69.1172 141.39 69.0524 141.392 68.9873C141.394 68.9223 141.41 68.8584 141.438 68.7997C141.466 68.741 141.506 68.6887 141.555 68.646C141.604 68.6034 141.662 68.5713 141.724 68.5519C141.786 68.5324 141.852 68.5259 141.917 68.5328C141.982 68.5398 142.044 68.5599 142.101 68.5921C143.317 69.1279 144.688 69.202 145.955 68.8006C146.512 68.5501 147.01 68.1838 147.414 67.7263C147.818 67.2687 148.12 66.7304 148.3 66.1472C148.348 66.0318 148.44 65.9397 148.555 65.8903C148.67 65.8408 148.8 65.8378 148.917 65.8818C149.023 65.9298 149.109 66.0153 149.156 66.122C149.203 66.2286 149.209 66.3489 149.173 66.4599C148.95 67.1631 148.581 67.8115 148.09 68.3633C147.599 68.9151 146.998 69.3579 146.325 69.663C145.721 69.9038 145.077 70.0291 144.427 70.0325Z" fill="#282929"/>
<path d="M152.743 56.1654C152.732 54.6684 153.139 53.1978 153.921 51.9199C154.4 50.8528 155.04 49.8653 155.819 48.9917C156.203 48.5538 156.68 48.2074 157.216 47.9778C157.751 47.7482 158.332 47.6413 158.914 47.665C159.424 47.7349 159.914 47.9121 160.351 48.1849C160.788 48.4577 161.162 48.8199 161.449 49.2475C162.007 50.106 162.37 51.0765 162.512 52.0905C162.852 54.3117 162.601 56.5831 161.784 58.677C160.968 60.771 159.615 62.614 157.86 64.0215L158.154 63.6329" fill="white"/>
<path d="M157.858 64.5599C157.77 64.5622 157.683 64.5395 157.608 64.4944C157.532 64.4494 157.471 64.3839 157.431 64.3055C157.391 64.2271 157.375 64.139 157.383 64.0515C157.391 63.964 157.424 63.8807 157.478 63.8113L157.773 63.4132C157.816 63.3538 157.873 63.3057 157.94 63.2727C158.006 63.2398 158.078 63.223 158.152 63.2237C159.651 61.8506 160.789 60.1308 161.466 58.2157C162.143 56.3005 162.339 54.2486 162.035 52.2404C161.927 51.2891 161.602 50.375 161.086 49.568C160.838 49.1969 160.514 48.882 160.136 48.6437C159.759 48.4053 159.335 48.2489 158.893 48.1845C158.383 48.1668 157.875 48.2632 157.407 48.4665C156.939 48.6698 156.522 48.9749 156.187 49.3596C155.453 50.2107 154.854 51.1696 154.412 52.2025C153.666 53.4052 153.259 54.787 153.235 56.2016C153.241 56.2634 153.235 56.3258 153.217 56.3853C153.199 56.4447 153.169 56.4999 153.13 56.5476C153.09 56.5953 153.041 56.6346 152.985 56.663C152.93 56.6915 152.87 56.7086 152.808 56.7133C152.684 56.7215 152.561 56.6817 152.466 56.6024C152.371 56.523 152.309 56.41 152.295 56.2869C152.286 54.6951 152.723 53.1326 153.558 51.7761C154.033 50.672 154.673 49.6464 155.456 48.7341C155.888 48.2426 156.426 47.8551 157.029 47.6007C157.633 47.3464 158.286 47.2317 158.94 47.2652C159.515 47.3422 160.066 47.541 160.557 47.8483C161.049 48.1556 161.468 48.5642 161.788 49.0468C162.398 49.9674 162.79 51.0139 162.937 52.1077C163.285 54.4128 163.023 56.7687 162.177 58.9415C161.331 61.1143 159.931 63.0284 158.114 64.4936C158.037 64.5395 157.948 64.5625 157.858 64.5599Z" fill="#282929"/>
<path d="M142.284 50.9287C142.745 50.9036 143.066 49.93 143.002 48.7542C142.937 47.5783 142.512 46.6455 142.051 46.6707C141.59 46.6958 141.269 47.6694 141.333 48.8452C141.398 50.0211 141.823 50.9539 142.284 50.9287Z" fill="#282929"/>
<path d="M154.233 74.9025C157.647 74.5785 160.957 73.5524 163.954 71.8889C163.954 71.8889 161.999 81.1096 154.585 82.3131L154.233 74.9025Z" fill="#282929"/>
<path d="M154.584 82.7518C154.473 82.7568 154.365 82.7195 154.28 82.6475C154.228 82.6068 154.186 82.5551 154.156 82.4961C154.127 82.4371 154.111 82.3723 154.109 82.3064L153.758 74.9147C153.753 74.7921 153.795 74.6722 153.877 74.5803C153.958 74.4884 154.072 74.4316 154.195 74.4219C157.526 74.0896 160.756 73.087 163.688 71.4747C163.764 71.4257 163.853 71.3997 163.944 71.3997C164.035 71.3997 164.124 71.4257 164.201 71.4747C164.277 71.5272 164.336 71.6013 164.37 71.6874C164.403 71.7735 164.411 71.8677 164.39 71.958C164.315 72.356 162.283 81.5103 154.622 82.7328L154.584 82.7518ZM154.727 75.3222L155.03 81.7188C160.195 80.5722 162.454 75.1611 163.194 72.8488C160.534 74.1512 157.67 74.9878 154.727 75.3222V75.3222Z" fill="#282929"/>
<path d="M134.782 154.044C134.657 154.037 134.54 153.983 134.454 153.894C134.368 153.804 134.319 153.685 134.316 153.561C134.649 133.186 135.266 98.9193 135.513 98.3317C135.566 98.2169 135.663 98.1277 135.782 98.0834C135.901 98.039 136.033 98.0432 136.149 98.0948C136.251 98.1424 136.333 98.2248 136.38 98.3272C136.427 98.4297 136.436 98.5455 136.405 98.6539C136.196 100.094 135.569 135.167 135.266 153.618C135.254 153.737 135.197 153.847 135.107 153.926C135.018 154.005 134.901 154.047 134.782 154.044Z" fill="#282929"/>
<path d="M205.865 177.967C205.865 177.967 204.84 108.599 194.417 92.6787C183.993 76.7581 157.004 73.0907 144.056 82.5672C131.107 92.0437 133.984 177.967 133.984 177.967H205.865Z" fill="url(#paint0_linear_2193_9510)"/>
<path d="M153.065 78.4911C153.065 78.4911 137.619 79.7799 128.696 87.1621C119.773 94.5443 110.488 132.308 110.488 132.308L138.968 138.714L153.065 78.4911Z" fill="url(#paint1_linear_2193_9510)"/>
<path d="M183.681 82.8123C183.681 82.8123 196.677 84.2812 203.55 98.5244C207.28 106.257 216.84 131.209 216.84 131.209L188.161 134.507L183.681 82.8123Z" fill="url(#paint2_linear_2193_9510)"/>
<path d="M209.217 158.896H164.04C162.613 158.896 161.204 158.592 159.904 158.004C158.605 157.417 157.447 156.56 156.506 155.49C155.565 154.42 154.864 153.161 154.449 151.799C154.034 150.437 153.915 149.002 154.1 147.59L159.056 109.637C159.367 107.226 160.548 105.011 162.378 103.406C164.207 101.801 166.56 100.917 168.995 100.918H214.173C215.598 100.919 217.007 101.222 218.305 101.809C219.604 102.396 220.762 103.253 221.702 104.322C222.643 105.391 223.344 106.648 223.76 108.009C224.175 109.37 224.295 110.803 224.112 112.214L219.156 150.177C218.841 152.587 217.659 154.8 215.83 156.404C214.002 158.008 211.651 158.893 209.217 158.896V158.896Z" fill="#282929"/>
<path d="M209.217 159.375H164.039C162.543 159.379 161.064 159.065 159.699 158.452C158.335 157.839 157.118 156.942 156.129 155.821C155.14 154.7 154.403 153.382 153.966 151.953C153.529 150.525 153.403 149.02 153.597 147.539L158.552 109.576C158.888 107.049 160.133 104.731 162.054 103.052C163.975 101.373 166.442 100.448 168.995 100.45H214.172C215.668 100.445 217.148 100.76 218.512 101.373C219.877 101.986 221.094 102.883 222.083 104.004C223.071 105.124 223.809 106.443 224.246 107.872C224.682 109.3 224.808 110.805 224.615 112.286L219.65 150.249C219.316 152.775 218.073 155.093 216.154 156.772C214.234 158.451 211.769 159.376 209.217 159.375V159.375ZM168.995 101.398C166.673 101.398 164.431 102.24 162.685 103.767C160.939 105.294 159.808 107.402 159.502 109.699L154.546 147.662C154.374 149.008 154.49 150.375 154.888 151.673C155.287 152.97 155.957 154.168 156.855 155.187C157.753 156.205 158.859 157.021 160.097 157.58C161.336 158.139 162.68 158.428 164.039 158.427H209.217C211.538 158.427 213.78 157.585 215.527 156.058C217.273 154.531 218.404 152.423 218.71 150.126L223.665 112.163C223.851 110.815 223.743 109.442 223.35 108.14C222.957 106.837 222.287 105.634 221.386 104.612C220.485 103.591 219.375 102.775 218.13 102.22C216.885 101.665 215.535 101.385 214.172 101.398H168.995Z" fill="#282929"/>
<path d="M180.206 134.508C180.206 134.508 185.608 140.829 185.826 143.207C186.044 145.586 175.137 199.991 175.137 199.991L190.582 195.67C190.582 195.67 201.262 144.932 200.246 141.047C199.23 137.161 192.86 132.196 192.86 132.196L180.206 134.508Z" fill="#282929"/>
<path d="M175.137 200.461C175.019 200.458 174.905 200.414 174.814 200.338C174.757 200.28 174.714 200.21 174.689 200.132C174.665 200.055 174.659 199.972 174.672 199.892C179.058 178.049 185.513 144.928 185.352 143.242C185.19 141.555 181.317 136.542 179.846 134.807C179.793 134.744 179.758 134.668 179.744 134.587C179.729 134.506 179.737 134.423 179.764 134.345C179.792 134.268 179.84 134.199 179.902 134.145C179.965 134.092 180.04 134.055 180.121 134.04L192.775 131.728C192.84 131.715 192.906 131.716 192.97 131.731C193.033 131.745 193.093 131.773 193.146 131.813C193.411 132.021 199.667 136.93 200.74 140.92C201.813 144.909 191.513 193.695 191.076 195.77C191.06 195.855 191.02 195.934 190.961 195.997C190.903 196.061 190.827 196.107 190.744 196.13L175.299 200.442C175.247 200.462 175.192 200.468 175.137 200.461V200.461ZM181.089 134.826C182.523 136.551 186.111 141.081 186.301 143.156C186.51 145.45 177.131 192.434 175.754 199.324L190.184 195.334C193.184 181.043 200.626 144.284 199.791 141.204C198.917 137.859 193.725 133.538 192.728 132.732L181.089 134.826Z" fill="#282929"/>
<path d="M121.642 213.091C121.516 213.091 121.395 213.041 121.306 212.952C121.217 212.863 121.167 212.742 121.167 212.617V200.544C121.174 198.633 121.93 196.8 123.273 195.438C124.616 194.077 126.439 193.293 128.353 193.256L176.141 192.489L184.609 148.944C184.609 148.84 186.65 139.069 181.192 136.397C181.136 136.371 181.086 136.334 181.045 136.288C181.003 136.242 180.972 136.188 180.951 136.13C180.931 136.072 180.922 136.01 180.926 135.949C180.93 135.887 180.946 135.827 180.973 135.772C181.001 135.716 181.039 135.665 181.086 135.624C181.132 135.583 181.187 135.551 181.246 135.531C181.305 135.511 181.368 135.502 181.43 135.506C181.492 135.51 181.553 135.526 181.609 135.554C187.723 138.548 185.625 148.707 185.53 149.134L176.986 193.038C176.966 193.145 176.91 193.241 176.827 193.31C176.744 193.379 176.639 193.417 176.531 193.417L128.363 194.194C126.696 194.229 125.11 194.912 123.941 196.099C122.772 197.285 122.114 198.88 122.107 200.544V212.617C122.107 212.741 122.058 212.86 121.971 212.949C121.884 213.037 121.766 213.088 121.642 213.091V213.091Z" fill="white"/>
<path d="M200.245 143.077C200.183 143.074 200.123 143.058 200.067 143.03C200.011 143.003 199.961 142.965 199.921 142.918C199.88 142.871 199.849 142.817 199.83 142.758C199.811 142.699 199.803 142.637 199.808 142.575C199.903 141.125 199.599 139.676 198.93 138.385C198.261 137.095 197.252 136.01 196.011 135.25C195.904 135.186 195.825 135.084 195.791 134.964C195.758 134.844 195.772 134.715 195.831 134.605C195.893 134.496 195.995 134.416 196.116 134.382C196.237 134.348 196.367 134.364 196.476 134.425C197.874 135.274 199.012 136.488 199.766 137.936C200.521 139.385 200.864 141.012 200.758 142.641C200.753 142.704 200.736 142.764 200.708 142.82C200.679 142.876 200.64 142.925 200.592 142.966C200.545 143.006 200.489 143.037 200.43 143.056C200.37 143.075 200.308 143.083 200.245 143.077V143.077Z" fill="white"/>
<path d="M122.26 165.565C122.043 165.567 121.827 165.545 121.615 165.499C114.457 163.973 97.597 151.824 89.4994 145.977C87.6008 144.622 85.9775 143.447 85.7022 143.324C84.7851 143.49 83.8901 143.76 83.0346 144.129C80.7183 144.963 79.2374 145.437 78.5634 145.077C78.4605 145.02 78.3714 144.942 78.3024 144.847C78.2335 144.752 78.1865 144.643 78.1647 144.527C77.8704 143.068 79.2659 141.845 80.6899 141.002C76.7977 141.391 71.6145 141.722 70.7886 140.86C70.7091 140.784 70.6494 140.69 70.6147 140.586C70.5799 140.482 70.5712 140.371 70.5892 140.263C70.7886 138.936 75.5446 130.17 88.9678 132.198C93.1733 132.833 107.394 140.727 110.232 142.357L114.014 132.994C114.037 132.936 114.071 132.883 114.115 132.839C114.158 132.794 114.21 132.758 114.268 132.734C114.325 132.709 114.387 132.696 114.449 132.695C114.511 132.694 114.573 132.706 114.631 132.729C114.689 132.752 114.742 132.786 114.787 132.829C114.831 132.873 114.867 132.924 114.892 132.982C114.917 133.039 114.93 133.1 114.931 133.163C114.931 133.225 114.92 133.287 114.897 133.345H114.931L110.897 143.21C110.87 143.271 110.831 143.326 110.782 143.372C110.733 143.418 110.675 143.453 110.612 143.475C110.551 143.504 110.485 143.518 110.417 143.518C110.35 143.518 110.284 143.504 110.223 143.475C110.052 143.371 93.2207 133.828 88.8159 133.165C76.1142 131.27 72.0796 139.116 71.5765 140.291C72.6587 140.718 78.421 140.377 83.4239 139.78C83.5414 139.765 83.6601 139.795 83.7567 139.863C83.8533 139.932 83.9208 140.034 83.946 140.149C83.9734 140.262 83.9575 140.381 83.9012 140.483C83.845 140.585 83.7526 140.662 83.6422 140.699C82.3796 141.144 78.8957 142.746 79.0665 144.3C79.5792 144.433 81.6012 143.703 82.7024 143.352C84.5156 142.708 85.4839 142.405 86.0155 142.547C87.4053 143.391 88.7431 144.319 90.0216 145.323C97.4356 150.678 114.817 163.196 121.776 164.693C128.934 166.21 145.433 134.056 151.204 121.537C151.229 121.48 151.265 121.428 151.31 121.385C151.355 121.342 151.409 121.308 151.467 121.286C151.526 121.264 151.588 121.254 151.651 121.256C151.713 121.259 151.774 121.274 151.831 121.3C151.944 121.354 152.031 121.449 152.076 121.565C152.12 121.682 152.117 121.811 152.068 121.926C151.242 123.641 131.858 165.565 122.26 165.565Z" fill="#282929"/>
</g>
<defs>
<linearGradient id="paint0_linear_2193_9510" x1="110" y1="77" x2="232" y2="181.5" gradientUnits="userSpaceOnUse">
<stop stop-color="#FFB11B"/>
<stop offset="1" stop-color="#FF441B"/>
</linearGradient>
<linearGradient id="paint1_linear_2193_9510" x1="110" y1="77" x2="232" y2="181.5" gradientUnits="userSpaceOnUse">
<stop stop-color="#FFB11B"/>
<stop offset="1" stop-color="#FF441B"/>
</linearGradient>
<linearGradient id="paint2_linear_2193_9510" x1="110" y1="77" x2="232" y2="181.5" gradientUnits="userSpaceOnUse">
<stop stop-color="#FFB11B"/>
<stop offset="1" stop-color="#FF441B"/>
</linearGradient>
<clipPath id="clip0_2193_9510">
<rect width="332" height="170" fill="white"/>
</clipPath>
</defs>
</svg>
