<svg width="332" height="170" viewBox="0 0 332 170" fill="none" xmlns="http://www.w3.org/2000/svg">
<g clip-path="url(#clip0_2193_9689)">
<path d="M258.146 55.3523H71.9772C68.5429 55.3523 65.7588 58.1364 65.7588 61.5707V176.309C65.7588 179.743 68.5429 182.527 71.9772 182.527H258.146C261.58 182.527 264.364 179.743 264.364 176.309V61.5707C264.364 58.1364 261.58 55.3523 258.146 55.3523Z" fill="white"/>
<path d="M270.235 182.984H59.484C57.4641 182.984 55.527 182.274 54.0988 181.012C52.6705 179.749 51.8682 178.036 51.8682 176.25V61.4307C51.8682 59.6448 52.6705 57.9321 54.0988 56.6693C55.527 55.4065 57.4641 54.697 59.484 54.697H270.235C272.254 54.697 274.192 55.4065 275.62 56.6693C277.048 57.9321 277.85 59.6448 277.85 61.4307V176.279C277.842 178.06 277.036 179.765 275.608 181.022C274.181 182.278 272.249 182.984 270.235 182.984V182.984ZM59.484 55.6975C57.7527 55.6975 56.0923 56.3055 54.8681 57.388C53.6439 58.4704 52.9561 59.9384 52.9561 61.4692V176.279C52.9561 177.81 53.6439 179.278 54.8681 180.36C56.0923 181.443 57.7527 182.051 59.484 182.051H270.235C271.966 182.051 273.626 181.443 274.85 180.36C276.075 179.278 276.762 177.81 276.762 176.279V61.4307C276.762 59.9 276.075 58.4319 274.85 57.3495C273.626 56.2671 271.966 55.659 270.235 55.659L59.484 55.6975Z" fill="#282929"/>
<path d="M277.306 163.247H52.4123C52.268 163.247 52.1296 163.195 52.0275 163.103C51.9255 163.01 51.8682 162.885 51.8682 162.754C51.8682 162.623 51.9255 162.498 52.0275 162.405C52.1296 162.313 52.268 162.261 52.4123 162.261H277.306C277.451 162.261 277.589 162.313 277.691 162.405C277.793 162.498 277.85 162.623 277.85 162.754C277.85 162.885 277.793 163.01 277.691 163.103C277.589 163.195 277.451 163.247 277.306 163.247Z" fill="#282929"/>
<path d="M257.281 61.3387H72.8521V154.625H257.281V61.3387Z" fill="#73F25F"/>
<path d="M268.969 61.6047H60.7495V154.366H268.969V61.6047Z" fill="#1F1F1F"/>
<path d="M127.02 70.0351C126.675 64.2873 125.348 58.641 123.099 53.3405C122.763 52.5427 121.994 51.6009 121.234 52.0141C121.676 54.4458 122.119 56.887 122.57 59.3186C118.055 56.3336 114.143 52.5253 111.037 48.0928C110.768 47.6339 110.388 47.2504 109.932 46.9779C109.699 46.8538 109.428 46.8234 109.174 46.8932C108.921 46.9629 108.703 47.1274 108.567 47.3527C108.514 47.5649 108.508 47.7864 108.552 48.0009C108.595 48.2154 108.685 48.4175 108.817 48.5925C110.148 50.9743 111.699 53.2267 113.449 55.3204C111.2 52.0141 106.548 46.4108 105.462 47.7372C104.376 49.0635 107.144 54.1478 109.48 57.1657L103.877 50.9665C103.358 50.3995 102.521 49.7843 101.954 50.2745C101.387 50.7647 101.752 51.6681 102.175 52.2929L106.068 58.0596C104.088 56.3296 101.33 52.1583 99.8975 53.129C98.4655 54.0998 102.973 59.5109 105.866 61.5965C108.759 63.6821 111.998 65.3448 114.362 68.0071C115.784 69.7465 116.997 71.6464 117.976 73.6681" fill="white"/>
<path d="M117.91 74.1675C117.829 74.1675 117.75 74.1462 117.681 74.1056C117.612 74.0651 117.555 74.0068 117.515 73.9369C116.557 71.9457 115.366 70.0746 113.969 68.3624C112.239 66.5868 110.284 65.0455 108.154 63.7778C107.289 63.2108 106.395 62.6245 105.54 62.0094C102.983 60.1544 99.0812 55.7333 99.11 53.763C99.0998 53.5759 99.1377 53.3893 99.2202 53.221C99.3026 53.0527 99.4269 52.9084 99.581 52.8019C100.484 52.1868 101.58 52.8884 102.753 54.0321L101.744 52.5328C101.003 51.4275 100.955 50.4471 101.619 49.9185C102.282 49.3899 103.272 49.659 104.175 50.6682L106.184 52.9076C105.031 50.697 104.262 48.4672 105.088 47.4869C105.19 47.3652 105.318 47.2688 105.463 47.2054C105.608 47.142 105.766 47.1134 105.924 47.1217C106.816 47.3327 107.624 47.8084 108.241 48.4865C108.134 48.2858 108.07 48.0655 108.051 47.839C108.033 47.6126 108.062 47.3848 108.135 47.1697C108.201 47.0188 108.298 46.8829 108.418 46.7705C108.539 46.6582 108.681 46.5716 108.837 46.5162C109.04 46.4419 109.256 46.4088 109.472 46.4187C109.688 46.4286 109.9 46.4813 110.096 46.5738C110.618 46.872 111.052 47.3031 111.355 47.8233C114.241 51.9323 117.818 55.5094 121.927 58.3956C121.543 56.3003 121.158 54.2147 120.783 52.1195C120.768 52.0267 120.782 51.9315 120.823 51.8471C120.865 51.7627 120.931 51.6933 121.014 51.6485C121.168 51.5664 121.337 51.518 121.511 51.5064C121.685 51.4948 121.86 51.5203 122.023 51.5813C122.702 51.9078 123.227 52.4874 123.484 53.1959C125.755 58.5417 127.095 64.2369 127.444 70.0347C127.437 70.1416 127.391 70.2424 127.315 70.3181C127.239 70.3939 127.139 70.4395 127.032 70.4466C126.925 70.4536 126.819 70.4216 126.734 70.3564C126.649 70.2913 126.59 70.1975 126.569 70.0924C126.244 64.3962 124.944 58.7982 122.725 53.5419C122.55 53.0613 122.209 52.6591 121.764 52.4078V52.4078C122.18 54.6953 122.6 56.9827 123.023 59.2702C123.037 59.3546 123.026 59.4413 122.992 59.5198C122.958 59.5982 122.902 59.6651 122.83 59.7123C122.759 59.7598 122.676 59.7852 122.59 59.7852C122.505 59.7852 122.421 59.7598 122.35 59.7123C117.763 56.6924 113.78 52.8429 110.605 48.3615C110.37 47.9662 110.039 47.6359 109.644 47.4004C109.461 47.3335 109.26 47.3335 109.077 47.4004C108.985 47.4308 108.909 47.4965 108.865 47.583C108.769 47.7944 108.933 48.1308 109.096 48.4384C109.73 49.5725 110.413 50.6778 111.134 51.7543C112.229 53.0902 113.181 54.3973 113.7 55.1662C113.735 55.2117 113.76 55.2635 113.775 55.3187C113.789 55.374 113.793 55.4316 113.785 55.4883C113.778 55.545 113.759 55.5996 113.73 55.649C113.702 55.6985 113.664 55.7418 113.618 55.7765C113.573 55.8112 113.521 55.8367 113.466 55.8513C113.41 55.866 113.353 55.8697 113.296 55.8621C113.239 55.8545 113.185 55.8358 113.135 55.8071C113.086 55.7784 113.043 55.7403 113.008 55.6948C112.086 54.5887 111.22 53.4372 110.413 52.2444C108.491 49.957 106.616 48.102 105.809 48.0732C105.713 48.0732 105.713 48.0732 105.694 48.0732C104.954 48.9766 106.953 53.3785 109.721 56.9539C109.783 57.0443 109.809 57.1546 109.794 57.2633C109.78 57.372 109.725 57.4713 109.641 57.542C109.557 57.6127 109.45 57.6497 109.34 57.6458C109.231 57.6419 109.127 57.5974 109.048 57.521L103.445 51.2833C103.128 50.9277 102.484 50.3222 102.09 50.6297C101.695 50.9373 102.09 51.6581 102.397 52.0714L106.29 57.8381C106.346 57.9264 106.369 58.0319 106.355 58.1358C106.341 58.2396 106.291 58.3351 106.213 58.4052C106.136 58.4803 106.032 58.5224 105.924 58.5224C105.817 58.5224 105.713 58.4803 105.636 58.4052C104.936 57.7623 104.275 57.0787 103.656 56.358C102.407 54.9548 100.677 53.0518 99.9943 53.4747C99.9943 53.4747 99.9174 53.5227 99.9174 53.6957C99.9174 55.1951 103.454 59.3951 105.972 61.2213C106.809 61.8268 107.702 62.4034 108.558 62.9705C110.754 64.2753 112.767 65.8654 114.546 67.6992C115.993 69.4699 117.225 71.4056 118.217 73.4659C118.245 73.516 118.263 73.5714 118.269 73.6285C118.275 73.6857 118.269 73.7435 118.252 73.7983C118.235 73.8532 118.207 73.904 118.169 73.9476C118.132 73.9913 118.086 74.0269 118.034 74.0522C118.001 74.0991 117.959 74.1384 117.91 74.1675V74.1675Z" fill="#282929"/>
<path d="M222.431 53.6585L219.307 41.1639C215.924 27.6025 211.262 13.6087 196.432 9.44701C192.04 8.19756 187.571 8.69734 184.659 12.6668C181.66 10.1486 176.97 11.5038 173.865 13.8874C166.926 19.212 163.774 27.5545 163.61 35.897C163.418 45.364 162.428 55.2539 157.401 63.5195C155.354 66.8834 152.701 69.8629 150.933 73.371C149.165 76.8791 148.357 81.2233 150.212 84.6833C151.36 86.589 152.966 88.178 154.883 89.3063C164.494 95.5824 176.633 96.2456 188.061 95.4671C199.767 94.6694 212.425 91.9782 219.884 82.9726C223.099 78.9975 225.035 74.1425 225.439 69.046C225.939 63.2408 223.747 58.9446 222.431 53.6585Z" fill="white"/>
<path d="M180.862 96.0922C172.52 96.0922 162.697 94.8716 154.643 89.5951C152.671 88.4115 151.021 86.7612 149.837 84.7895C148.127 81.6082 148.386 77.3312 150.549 73.0639C151.652 71.0123 152.911 69.049 154.316 67.1914C155.277 65.8939 156.238 64.558 157.027 63.1932C162.14 54.793 163.005 44.6244 163.178 35.7821C163.36 26.5265 167.166 18.3762 173.606 13.4361C176.701 11.0525 181.381 9.63967 184.591 11.9464C187.283 8.56322 191.512 7.48677 196.557 8.91884C211.637 13.1958 216.28 27.1032 219.74 40.9913L222.863 53.4859C223.228 54.9276 223.651 56.302 224.065 57.6283C225.189 61.2613 226.246 64.6829 225.891 68.8926C225.472 74.0769 223.499 79.0144 220.23 83.0595C213.973 90.6523 203.766 94.689 188.1 95.7559C185.889 95.9769 183.448 96.0922 180.862 96.0922ZM180.709 11.6772C178.308 11.7903 176.004 12.658 174.125 14.1569C167.906 18.9625 164.225 26.8437 164.052 35.8301C163.879 44.8166 162.986 55.0525 157.776 63.7026C156.921 65.1058 155.96 66.4514 155.018 67.7585C153.642 69.5852 152.405 71.5129 151.318 73.5252C150.356 75.4474 148.377 80.253 150.606 84.4339C151.711 86.2784 153.265 87.8127 155.124 88.8935C165.456 95.6213 178.854 95.6213 188.032 94.9774C203.41 93.9297 213.454 89.9891 219.538 82.5981C222.69 78.6782 224.586 73.898 224.978 68.883C225.314 64.8463 224.276 61.5016 223.18 57.9551C222.767 56.6191 222.344 55.2255 221.979 53.7646L218.846 41.2701C215.453 27.6318 210.907 13.9743 196.279 9.83189C192.857 8.87078 188.119 8.60166 184.986 12.8882C184.951 12.9364 184.906 12.9767 184.855 13.0065C184.804 13.0363 184.747 13.0549 184.688 13.0613C184.628 13.0702 184.567 13.0662 184.509 13.0496C184.451 13.033 184.397 13.0042 184.351 12.9651C183.329 12.1161 182.037 11.6594 180.709 11.6772V11.6772Z" fill="#282929"/>
<path d="M209.725 154.345C207.985 137.199 204.352 96.6299 207.697 85.9999C211.964 72.4001 211.839 68.6133 207.697 67.2677C203.554 65.9221 192.319 58.7522 184.63 67.2677C184.63 67.2677 166.955 77.1961 163.534 94.3232C161.025 106.866 163.947 138.4 165.696 154.345H209.725Z" fill="white"/>
<path d="M183.351 56.9202L183.265 70.2893C183.265 70.2893 184.62 77.7572 192.751 75.4794C195.153 74.7802 197.368 73.5549 199.237 71.8924C201.105 70.2299 202.58 68.172 203.554 65.8682L202.593 42.7245C201.527 38.6759 201.076 34.4897 201.257 30.3068C191.415 30.2107 183.649 22.7524 183.649 22.7524C183.649 22.7524 180.247 27.856 178.777 29.4803C177.594 30.6902 176.567 32.043 175.72 33.5074C174.346 36.0831 174.403 39.2741 174.461 42.1574C174.478 45.5338 174.8 48.9018 175.422 52.2203C176.768 58.4964 183.351 56.9202 183.351 56.9202Z" fill="white"/>
<path d="M189.859 76.3791C188.556 76.4192 187.268 76.0857 186.149 75.418C184.445 74.2457 183.258 72.4631 182.833 70.4394L182.91 57.5124C181.127 57.7959 179.301 57.4565 177.739 56.5513C177.012 56.0683 176.393 55.4397 175.922 54.7051C175.45 53.9705 175.136 53.1461 175 52.2839C174.372 48.9369 174.051 45.5398 174.039 42.1345C173.971 39.3953 173.904 35.9929 175.336 33.2922C176.202 31.7935 177.252 30.4085 178.46 29.169C179.892 27.6024 183.265 22.5565 183.265 22.5085C183.3 22.4539 183.346 22.4082 183.401 22.3748C183.456 22.3414 183.518 22.3214 183.583 22.3162C183.645 22.3084 183.709 22.3147 183.769 22.3347C183.829 22.3546 183.883 22.3877 183.929 22.4316C184.006 22.5085 191.704 29.7745 201.286 29.9283C201.346 29.9278 201.404 29.9395 201.459 29.9626C201.514 29.9858 201.563 30.0199 201.604 30.0629C201.644 30.1028 201.675 30.151 201.695 30.204C201.715 30.2571 201.723 30.3139 201.719 30.3704C201.554 34.1581 201.942 37.9496 202.872 41.6251C202.987 41.9946 203.064 42.3745 203.103 42.7592V42.7592C203.103 42.7592 203.103 43.2013 204.064 65.9029C204.078 65.9597 204.078 66.0192 204.064 66.0759C203.071 68.4451 201.557 70.5606 199.635 72.2658C197.714 73.9711 195.434 75.2224 192.963 75.9274C191.955 76.2228 190.91 76.3749 189.859 76.3791V76.3791ZM183.708 70.3145C184.111 72.0563 185.136 73.591 186.591 74.6299C188.158 75.591 190.186 75.764 192.608 75.0816C194.923 74.4023 197.061 73.223 198.872 71.6271C200.682 70.0312 202.12 68.0575 203.084 65.8453C203.016 64.269 202.171 42.9514 202.123 42.7784C202.078 42.4537 202.011 42.1325 201.921 41.8173C201.009 38.2074 200.623 34.4846 200.777 30.7645C192.127 30.4473 185.332 24.8728 183.65 23.3927C182.795 24.6614 180.267 28.3713 179.017 29.7361C177.859 30.9188 176.855 32.2427 176.028 33.6767C174.692 36.1756 174.769 39.3184 174.827 42.0864C174.838 45.4377 175.16 48.7807 175.788 52.0725C175.9 52.8112 176.163 53.5191 176.559 54.1523C176.956 54.7855 177.479 55.3305 178.095 55.7535C179.638 56.583 181.425 56.8416 183.141 56.484C183.205 56.4685 183.273 56.4683 183.338 56.4833C183.403 56.4983 183.464 56.5281 183.515 56.5705C183.567 56.6122 183.608 56.665 183.636 56.7249C183.665 56.7848 183.679 56.8503 183.679 56.9165L183.602 70.2856L183.708 70.3145Z" fill="#282929"/>
<path d="M183.428 63.5094C183.428 63.5094 188.849 63.7401 192.338 60.1263C195.827 56.5125 195.308 52.8699 195.308 52.8699C195.308 52.8699 189.416 56.8008 183.352 56.9162L183.428 63.5094Z" fill="#282929"/>
<path d="M183.65 63.935H183.391C183.336 63.9338 183.283 63.9218 183.233 63.8999C183.184 63.878 183.139 63.8465 183.101 63.8072C183.064 63.7679 183.034 63.7216 183.015 63.671C182.995 63.6204 182.986 63.5664 182.987 63.5121L182.929 56.9188C182.928 56.8633 182.938 56.8081 182.958 56.7563C182.978 56.7045 183.008 56.6571 183.046 56.617C183.085 56.5768 183.131 56.5446 183.181 56.5222C183.232 56.4998 183.287 56.4876 183.343 56.4863C189.234 56.3614 195.02 52.5265 195.078 52.4881C195.14 52.4553 195.209 52.4381 195.28 52.4381C195.35 52.4381 195.419 52.4553 195.482 52.4881C195.548 52.5168 195.605 52.5619 195.649 52.619C195.693 52.6762 195.721 52.7436 195.731 52.8149C195.731 52.9687 196.231 56.6593 192.646 60.4269C189.465 63.7236 184.823 63.935 183.65 63.935ZM183.756 57.3513L183.823 63.1181C185.111 63.1181 189.234 62.7432 192.012 59.8695C193.705 58.2215 194.731 56.0078 194.895 53.651C193.261 54.6218 188.667 57.1111 183.775 57.3513H183.756Z" fill="#282929"/>
<path d="M188.081 37.6936C188.081 37.6936 183.784 44.1235 184.803 45.2384C185.822 46.3533 188.648 45.6132 188.648 45.6132" fill="white"/>
<path d="M186.783 46.3467C186.369 46.3811 185.953 46.3325 185.558 46.2038C185.164 46.075 184.799 45.8688 184.486 45.5971C183.361 44.3668 186.408 39.542 187.725 37.5333C187.787 37.4381 187.885 37.3716 187.997 37.3482C188.108 37.3248 188.225 37.3464 188.32 37.4083C188.412 37.4742 188.475 37.5726 188.497 37.6834C188.518 37.7942 188.496 37.909 188.436 38.0042C186.244 41.2816 184.697 44.5591 185.12 45.0204C185.812 45.7797 187.85 45.4529 188.58 45.2703C188.634 45.2559 188.691 45.2525 188.746 45.2602C188.802 45.2679 188.856 45.2866 188.904 45.3152C188.952 45.3439 188.994 45.3818 189.028 45.4269C189.061 45.472 189.086 45.5233 189.099 45.5778C189.125 45.6874 189.108 45.8029 189.051 45.8998C188.993 45.9968 188.9 46.0674 188.791 46.0968C188.133 46.2539 187.459 46.3378 186.783 46.3467V46.3467Z" fill="#282929"/>
<path d="M180.237 36.5423C180.267 35.7779 179.961 35.145 179.552 35.1286C179.143 35.1123 178.787 35.7187 178.757 36.4831C178.726 37.2474 179.033 37.8803 179.441 37.8967C179.85 37.913 180.206 37.3066 180.237 36.5423Z" fill="#282929"/>
<path d="M192.149 35.6055C192.179 34.8417 191.872 34.2095 191.463 34.1935C191.055 34.1774 190.7 34.7836 190.67 35.5474C190.64 36.3111 190.946 36.9433 191.355 36.9594C191.763 36.9754 192.119 36.3692 192.149 35.6055Z" fill="#282929"/>
<path d="M185.159 49.0493L188.571 48.1747C188.571 48.1747 189.272 53.1725 187.35 53.6146C185.428 54.0567 185.159 49.0493 185.159 49.0493Z" fill="white"/>
<path d="M187.11 54.0346C186.803 54.0297 186.506 53.9252 186.264 53.7366C184.957 52.7755 184.745 49.4212 184.726 49.0368C184.721 48.9378 184.751 48.8403 184.811 48.7613C184.871 48.6822 184.956 48.6267 185.053 48.6043L188.465 47.7296C188.523 47.7146 188.584 47.7119 188.644 47.7218C188.704 47.7318 188.76 47.7541 188.811 47.7873C188.86 47.822 188.901 47.8663 188.933 47.9175C188.964 47.9687 188.985 48.0258 188.993 48.0853C189.07 48.6331 189.685 53.4867 187.436 53.9961C187.329 54.019 187.22 54.0318 187.11 54.0346ZM185.572 49.3732C185.687 50.6611 186.062 52.5737 186.744 53.0831C186.81 53.1391 186.888 53.1781 186.971 53.1965C187.055 53.215 187.142 53.2123 187.225 53.1888C188.282 52.9485 188.33 50.3054 188.186 48.7004L185.572 49.3732Z" fill="#282929"/>
<path d="M198.162 35.9185C199.066 33.5734 202.007 32.7084 204.313 33.1601C205.06 33.2803 205.754 33.6179 206.31 34.1308C206.865 34.6436 207.257 35.3089 207.437 36.0434C207.615 36.9608 207.615 37.9037 207.437 38.8211C207.171 40.5085 206.608 42.1355 205.774 43.6267C205.389 44.3965 204.818 45.0574 204.111 45.5489C203.656 45.8227 203.127 45.951 202.596 45.9166C202.066 45.8823 201.558 45.687 201.142 45.3567" fill="white"/>
<path d="M202.871 46.4413C202.18 46.4264 201.51 46.2018 200.949 45.7974C200.854 45.7297 200.789 45.6269 200.769 45.5116C200.749 45.3963 200.776 45.2779 200.843 45.1822C200.876 45.1353 200.918 45.0953 200.966 45.0646C201.014 45.0338 201.068 45.0129 201.124 45.0031C201.18 44.9933 201.238 44.9947 201.294 45.0073C201.35 45.0199 201.402 45.0434 201.449 45.0765C201.799 45.3506 202.223 45.5143 202.666 45.5468C203.109 45.5793 203.552 45.4792 203.938 45.2591C204.566 44.7873 205.071 44.1707 205.409 43.4618C206.226 42.0019 206.773 40.4065 207.023 38.7524C207.193 37.8924 207.193 37.0076 207.023 36.1477C206.87 35.4903 206.524 34.8936 206.029 34.4346C205.534 33.9756 204.913 33.6751 204.246 33.5719C202.103 33.1394 199.44 33.9564 198.594 36.0612C198.552 36.1689 198.468 36.2554 198.362 36.3021C198.256 36.3489 198.136 36.3521 198.027 36.3111C197.973 36.2909 197.924 36.2601 197.882 36.2205C197.84 36.1808 197.806 36.1332 197.783 36.0803C197.76 36.0275 197.747 35.9705 197.746 35.9127C197.745 35.855 197.756 35.7976 197.778 35.7441C198.739 33.2067 201.92 32.2071 204.419 32.7069C205.251 32.8413 206.024 33.2201 206.64 33.7951C207.256 34.3702 207.688 35.1155 207.879 35.9363C208.074 36.9101 208.074 37.9131 207.879 38.8869C207.612 40.643 207.029 42.3363 206.158 43.8847C205.745 44.7262 205.123 45.4477 204.352 45.98C203.911 46.2692 203.398 46.429 202.871 46.4413V46.4413Z" fill="#282929"/>
<path d="M200.826 127.647C196.779 126.955 193.069 125.072 189.292 123.476C187.774 122.832 186.217 122.256 184.64 121.765C182.785 121.189 181.017 120.093 179.027 120.035C177.807 120.035 178.124 121.737 178.576 122.381C179.052 122.95 179.624 123.431 180.267 123.803C181.43 124.601 183.871 126.052 184.285 127.446C182.795 127.878 181.161 127.647 179.623 127.82C178.085 127.993 176.298 128.253 174.654 128.57C173.011 128.887 171.435 129.272 169.849 129.723C168.425 129.975 167.026 130.351 165.668 130.848C165.351 131.002 165.005 131.252 164.985 131.607C164.909 132.857 167.725 132.713 168.436 132.636L181.421 131.329C176.875 131.762 172.374 132.575 167.965 133.76C167.535 133.826 167.145 134.048 166.869 134.385C165.793 136.038 170.406 136.125 170.925 136.134C173.328 136.192 175.724 136.134 178.114 135.961L172.28 136.922C170.973 137.143 169.656 137.355 168.378 137.682C167.661 137.817 166.995 138.15 166.456 138.643C166.383 138.706 166.338 138.796 166.331 138.893C166.331 139.027 166.475 139.114 166.59 139.171C167.691 139.616 168.873 139.826 170.06 139.786C172.491 139.833 174.922 139.672 177.326 139.306L170.118 140.075C169.474 140.068 168.85 140.293 168.359 140.709C168.292 140.918 168.298 141.143 168.377 141.347C168.456 141.552 168.602 141.724 168.791 141.834C169.169 142.055 169.594 142.184 170.031 142.208C172.685 142.377 175.346 142.377 177.999 142.208C180.891 142.222 183.781 142.039 186.649 141.661C192.33 140.951 197.852 139.298 202.988 136.768" fill="white"/>
<path d="M172.875 142.787C171.912 142.795 170.949 142.741 169.992 142.624C169.486 142.596 168.994 142.445 168.56 142.182C168.293 142.01 168.09 141.755 167.984 141.455C167.878 141.156 167.874 140.83 167.974 140.529C167.994 140.484 168.02 140.442 168.051 140.404C168.157 140.288 168.276 140.185 168.406 140.096C167.721 140.022 167.052 139.837 166.426 139.548C166.285 139.502 166.161 139.415 166.069 139.299C165.977 139.183 165.921 139.042 165.907 138.895C165.911 138.677 166.001 138.47 166.157 138.318C166.76 137.774 167.502 137.408 168.301 137.261C169.396 136.982 170.521 136.78 171.626 136.598H170.944C168.339 136.54 166.82 136.117 166.407 135.338C166.313 135.152 166.273 134.943 166.294 134.735C166.314 134.528 166.394 134.33 166.522 134.166C166.855 133.739 167.335 133.452 167.868 133.359L169.06 133.041L168.502 133.099C168.06 133.099 165.792 133.33 164.927 132.503C164.806 132.388 164.711 132.247 164.649 132.091C164.588 131.935 164.561 131.767 164.571 131.6C164.611 131.341 164.722 131.099 164.892 130.901C165.062 130.702 165.283 130.555 165.532 130.475C166.428 130.089 167.367 129.814 168.329 129.658C168.829 129.553 169.29 129.447 169.781 129.322C171.366 128.87 172.991 128.486 174.586 128.169C176.182 127.851 177.931 127.582 179.594 127.4C180.19 127.342 180.795 127.332 181.381 127.323C182.15 127.338 182.919 127.283 183.678 127.159C182.799 126.112 181.746 125.224 180.564 124.536L179.863 124.074C179.242 123.7 178.692 123.218 178.238 122.652C177.998 122.304 177.844 121.903 177.791 121.483C177.737 121.063 177.785 120.637 177.931 120.239C178.035 120.036 178.198 119.869 178.399 119.759C178.599 119.65 178.828 119.603 179.055 119.624C180.429 119.728 181.769 120.094 183.006 120.701C183.621 120.951 184.197 121.181 184.793 121.373C186.385 121.867 187.95 122.441 189.484 123.094L191.569 124.007C194.534 125.458 197.665 126.543 200.892 127.236C200.995 127.267 201.083 127.335 201.14 127.426C201.196 127.517 201.218 127.626 201.2 127.732C201.182 127.838 201.127 127.934 201.044 128.002C200.96 128.07 200.855 128.105 200.748 128.101C197.448 127.398 194.246 126.294 191.214 124.814L189.138 123.853C187.581 123.2 186.033 122.623 184.534 122.162C183.904 121.959 183.285 121.725 182.679 121.46C181.536 120.905 180.302 120.563 179.036 120.451C178.973 120.444 178.909 120.455 178.851 120.482C178.793 120.509 178.744 120.551 178.709 120.605C178.641 120.856 178.628 121.12 178.671 121.377C178.714 121.634 178.813 121.879 178.959 122.094C179.352 122.575 179.827 122.982 180.363 123.296L181.045 123.757C182.352 124.622 184.322 125.929 184.726 127.284C184.769 127.392 184.769 127.513 184.726 127.621C184.699 127.671 184.662 127.716 184.618 127.753C184.573 127.789 184.522 127.816 184.467 127.832C183.473 128.076 182.451 128.182 181.429 128.149C180.843 128.149 180.286 128.149 179.728 128.226C178.085 128.409 176.422 128.659 174.788 128.976C173.154 129.293 171.597 129.678 170.031 130.12C169.54 130.254 169.069 130.36 168.522 130.466C167.629 130.609 166.758 130.861 165.927 131.215C165.657 131.35 165.494 131.494 165.484 131.6C165.481 131.642 165.487 131.684 165.504 131.723C165.521 131.761 165.547 131.795 165.581 131.821C165.975 132.196 167.359 132.282 168.464 132.176L181.41 130.927C181.519 130.928 181.624 130.97 181.704 131.043C181.784 131.117 181.834 131.217 181.845 131.326C181.856 131.434 181.826 131.542 181.762 131.63C181.698 131.718 181.603 131.779 181.497 131.802V131.802C176.984 132.232 172.515 133.039 168.137 134.214C167.816 134.263 167.519 134.415 167.291 134.646C167.166 134.839 167.205 134.916 167.214 134.935C167.397 135.281 168.647 135.675 170.972 135.733C173.298 135.79 175.778 135.733 178.133 135.55C178.246 135.539 178.359 135.573 178.447 135.645C178.535 135.717 178.592 135.821 178.604 135.934C178.618 136.047 178.587 136.161 178.519 136.253C178.451 136.344 178.351 136.406 178.238 136.425L172.404 137.386C171.126 137.597 169.809 137.818 168.56 138.145C167.986 138.252 167.443 138.489 166.974 138.837C167.985 139.211 169.059 139.387 170.136 139.356C171.27 139.356 172.404 139.356 173.539 139.289L177.383 138.875C177.497 138.865 177.612 138.899 177.701 138.97C177.791 139.042 177.849 139.146 177.864 139.26C177.878 139.373 177.847 139.487 177.779 139.578C177.711 139.67 177.611 139.731 177.498 139.75C176.22 139.942 174.942 140.077 173.654 140.163L170.194 140.538C169.691 140.543 169.201 140.694 168.781 140.971C168.781 141.077 168.807 141.182 168.857 141.276C168.908 141.37 168.981 141.45 169.069 141.509C169.39 141.682 169.744 141.783 170.107 141.807C171.855 141.98 173.613 142.009 175.365 141.893C176.249 141.893 177.133 141.826 178.027 141.836C180.919 141.846 183.809 141.663 186.677 141.288C192.308 140.598 197.785 138.973 202.882 136.482C202.985 136.432 203.104 136.423 203.214 136.459C203.323 136.495 203.414 136.572 203.468 136.674C203.519 136.779 203.528 136.9 203.492 137.011C203.456 137.122 203.378 137.215 203.276 137.27C198.096 139.826 192.524 141.495 186.792 142.21C183.899 142.584 180.983 142.767 178.065 142.758C177.181 142.758 176.307 142.758 175.432 142.816C174.557 142.874 173.721 142.787 172.875 142.787Z" fill="#282929"/>
<path d="M143.552 100.624C151.328 86.5338 159.843 73.0877 163.688 69.522C166.766 66.64 172.221 64.5184 176.601 63.1738C179.094 62.0077 181.37 61.6226 182.948 61.5166C183.191 61.4649 183.323 61.439 183.323 61.439L183.302 61.4966C184.46 61.4447 185.158 61.5426 185.158 61.5426C185.158 61.5426 186.494 63.5129 183.399 70.3176C181.064 81.2263 178.815 106.215 178.18 114.865C178.032 116.878 177.748 119.851 177.388 123.626C176.672 131.118 175.654 141.771 174.797 154.348H155.258C156.12 145.86 156.969 137.25 157.772 129.102L157.772 129.101L157.778 129.033C158.055 126.23 158.325 123.483 158.59 120.813C152.896 128.431 144.672 137.22 137.882 135.733C126.204 133.177 114.373 70.7041 114.373 70.7041L127.453 66.8597L143.552 100.624Z" fill="url(#paint0_linear_2193_9689)"/>
<path d="M226.669 154.344C226.602 153.777 226.544 153.219 226.496 152.691C226.23 149.707 226.064 145.373 225.947 140.231C234.947 139.499 242.92 138.699 244.864 138.038C256.959 133.904 223.419 72.7598 223.125 72.2244C223.124 72.2217 223.123 72.219 223.122 72.2163C221.498 67.0935 204.265 63.3356 204.265 63.3356C204.265 63.3356 198.658 93.1117 193.978 122.599L190.608 123.122L192.623 131.312C191.383 139.464 190.266 147.361 189.416 154.344H226.669Z" fill="url(#paint1_linear_2193_9689)"/>
<path d="M179.305 44.4207C177.762 44.4207 176.253 43.963 174.969 43.1054C173.686 42.2479 172.686 41.029 172.095 39.603C171.504 38.1769 171.35 36.6078 171.651 35.0939C171.952 33.58 172.695 32.1894 173.787 31.098C174.878 30.0065 176.269 29.2632 177.783 28.9621C179.297 28.661 180.866 28.8155 182.292 29.4062C183.718 29.9969 184.937 30.9972 185.794 32.2806C186.652 33.564 187.11 35.0729 187.11 36.6164C187.107 38.6855 186.284 40.669 184.821 42.1321C183.358 43.5951 181.374 44.4182 179.305 44.4207ZM179.305 29.6868C177.934 29.6849 176.594 30.0897 175.453 30.8499C174.312 31.6102 173.422 32.6918 172.896 33.9579C172.37 35.2239 172.232 36.6176 172.498 37.9624C172.764 39.3073 173.423 40.5429 174.392 41.513C175.361 42.4831 176.596 43.1441 177.94 43.4122C179.285 43.6804 180.679 43.5437 181.945 43.0195C183.212 42.4953 184.295 41.6071 185.057 40.4673C185.819 39.3275 186.225 37.9874 186.225 36.6164C186.228 34.7777 185.501 33.0131 184.203 31.7102C182.906 30.4073 181.144 29.6726 179.305 29.6675V29.6868Z" fill="#282929"/>
<path d="M194.52 43.1371C192.976 43.1371 191.467 42.6794 190.184 41.8219C188.9 40.9643 187.9 39.7455 187.309 38.3194C186.719 36.8934 186.564 35.3242 186.865 33.8103C187.166 32.2964 187.91 30.9058 189.001 29.8144C190.093 28.7229 191.483 27.9797 192.997 27.6785C194.511 27.3774 196.08 27.5319 197.506 28.1226C198.932 28.7133 200.151 29.7136 201.009 30.997C201.866 32.2804 202.324 33.7893 202.324 35.3328C202.321 37.4019 201.498 39.3855 200.035 40.8485C198.572 42.3115 196.589 43.1346 194.52 43.1371V43.1371ZM194.52 28.4128C193.148 28.4109 191.807 28.8159 190.666 29.5767C189.525 30.3374 188.635 31.4195 188.11 32.6862C187.584 33.9528 187.446 35.3469 187.713 36.692C187.98 38.0371 188.64 39.2728 189.61 40.2425C190.58 41.2122 191.815 41.8724 193.16 42.1394C194.506 42.4065 195.9 42.2685 197.166 41.7428C198.433 41.2171 199.515 40.3274 200.276 39.1864C201.037 38.0453 201.442 36.7042 201.44 35.3328C201.437 33.4983 200.707 31.7396 199.41 30.4424C198.113 29.1452 196.354 28.4153 194.52 28.4128V28.4128Z" fill="#282929"/>
<path d="M190.609 123.545C190.505 123.544 190.406 123.508 190.327 123.441C190.247 123.374 190.194 123.282 190.176 123.18C190.16 123.063 190.19 122.944 190.26 122.849C190.33 122.753 190.434 122.689 190.551 122.671L223.479 117.586L215.54 83.3512C215.514 83.2378 215.534 83.1187 215.595 83.0198C215.656 82.9208 215.754 82.85 215.867 82.8226C215.924 82.8084 215.983 82.806 216.041 82.8155C216.099 82.8249 216.154 82.846 216.203 82.8774C216.253 82.9089 216.295 82.9501 216.328 82.9985C216.362 83.0469 216.384 83.1015 216.396 83.159L224.44 117.846C224.453 117.905 224.453 117.966 224.442 118.026C224.43 118.085 224.407 118.141 224.373 118.192C224.338 118.241 224.294 118.282 224.243 118.314C224.192 118.345 224.134 118.366 224.075 118.374L190.676 123.545H190.609Z" fill="#282929"/>
<path d="M159.304 117.345C159.189 117.331 159.083 117.271 159.011 117.179C158.939 117.087 158.906 116.971 158.92 116.855C160.41 104.495 163.255 81.0052 163.293 80.4958H163.726L163.822 80.0537C164.225 80.1402 164.225 80.1402 163.495 86.2241L159.785 116.922C159.784 116.982 159.77 117.042 159.745 117.097C159.72 117.151 159.684 117.2 159.638 117.24C159.593 117.28 159.54 117.31 159.482 117.328C159.425 117.346 159.364 117.352 159.304 117.345V117.345Z" fill="#282929"/>
<path d="M150.011 112.66C149.929 112.661 149.849 112.638 149.78 112.596C149.71 112.553 149.654 112.493 149.617 112.42L129.664 72.4088C129.613 72.3028 129.606 72.1812 129.644 72.07C129.682 71.9587 129.761 71.8665 129.866 71.8129C129.97 71.763 130.09 71.7561 130.2 71.7939C130.31 71.8316 130.4 71.911 130.452 72.0148L150.405 112.026C150.455 112.13 150.464 112.249 150.428 112.358C150.392 112.468 150.315 112.559 150.213 112.612C150.149 112.642 150.081 112.658 150.011 112.66V112.66Z" fill="#282929"/>
<path d="M201.911 105.517C201.806 105.516 201.704 105.478 201.623 105.411C201.543 105.329 201.499 105.218 201.499 105.104C201.499 104.989 201.543 104.878 201.623 104.796L211.532 93.3779L204.804 86.5443C204.726 86.457 204.682 86.3444 204.679 86.2272C204.687 86.1101 204.738 86.0001 204.824 85.9196L211.551 79.6435C209.024 75.799 205.333 70.3015 204.987 69.9266C204.922 69.841 204.891 69.7348 204.899 69.6278C204.907 69.5208 204.953 69.4203 205.029 69.345C205.106 69.2697 205.207 69.2248 205.314 69.2186C205.421 69.2125 205.527 69.2455 205.612 69.3115C206.063 69.7632 211.378 77.8558 212.493 79.4705C212.548 79.5568 212.572 79.6596 212.56 79.7613C212.547 79.863 212.5 79.9572 212.426 80.028L205.756 86.256L212.416 93.0511C212.493 93.1315 212.535 93.2382 212.535 93.3491C212.535 93.46 212.493 93.5666 212.416 93.647L202.209 105.363C202.173 105.408 202.128 105.445 202.077 105.471C202.025 105.498 201.969 105.513 201.911 105.517V105.517Z" fill="#282929"/>
<path d="M176.921 102.696C176.851 102.695 176.782 102.677 176.72 102.644C176.658 102.61 176.605 102.562 176.566 102.503L168.271 90.7392C168.206 90.6481 168.178 90.535 168.194 90.4238C168.21 90.3125 168.269 90.212 168.358 90.1433L176.681 83.5212L171.616 78.2159C171.575 78.1724 171.542 78.1212 171.521 78.0651C171.499 78.0089 171.489 77.9491 171.491 77.8891C171.498 77.772 171.55 77.662 171.635 77.5815L180.785 69.2967C180.871 69.2189 180.983 69.1783 181.099 69.1837C181.214 69.1891 181.323 69.2401 181.4 69.3255C181.478 69.4109 181.519 69.5237 181.513 69.639C181.508 69.7544 181.457 69.8629 181.371 69.9406L172.558 77.9275L177.652 83.2617C177.693 83.305 177.725 83.3564 177.745 83.4128C177.764 83.4691 177.772 83.529 177.767 83.5885C177.763 83.6497 177.746 83.7094 177.718 83.7639C177.69 83.8184 177.651 83.8667 177.604 83.9057L169.233 90.5566L177.258 101.984C177.323 102.081 177.348 102.198 177.328 102.313C177.309 102.428 177.246 102.53 177.152 102.599C177.084 102.65 177.005 102.683 176.921 102.696V102.696Z" fill="#282929"/>
<path d="M119.178 64.8772C119.069 64.8752 118.964 64.8329 118.885 64.7583C118.805 64.6838 118.755 64.5823 118.746 64.4735C118.448 60.975 122.206 59.0143 122.369 58.9374C122.42 58.9107 122.475 58.8942 122.532 58.8889C122.589 58.8837 122.646 58.8897 122.7 58.9067C122.755 58.9236 122.806 58.9512 122.849 58.9879C122.893 59.0245 122.929 59.0694 122.956 59.1201C123.01 59.2234 123.021 59.344 122.987 59.4557C122.953 59.5673 122.876 59.6609 122.773 59.716C122.773 59.716 119.371 61.494 119.62 64.4062C119.628 64.522 119.591 64.6362 119.515 64.7244C119.44 64.8125 119.332 64.8673 119.217 64.8772H119.178Z" fill="#282929"/>
<path d="M71.977 164.854C83.5912 164.854 93.0063 155.439 93.0063 143.825C93.0063 132.211 83.5912 122.795 71.977 122.795C60.3629 122.795 50.9478 132.211 50.9478 143.825C50.9478 155.439 60.3629 164.854 71.977 164.854Z" fill="white"/>
<path d="M71.9776 165.333C67.7234 165.333 63.5647 164.072 60.0274 161.708C56.4901 159.345 53.7331 155.985 52.1051 152.055C50.4771 148.124 50.0511 143.8 50.8811 139.627C51.711 135.455 53.7597 131.622 56.7679 128.614C59.7761 125.605 63.6088 123.557 67.7812 122.727C71.9537 121.897 76.2787 122.323 80.2091 123.951C84.1395 125.579 87.4988 128.336 89.8624 131.873C92.2259 135.41 93.4874 139.569 93.4874 143.823C93.4798 149.526 91.2111 154.993 87.1789 159.025C83.1467 163.057 77.68 165.326 71.9776 165.333V165.333ZM71.9776 123.275C67.9135 123.275 63.9406 124.48 60.5614 126.738C57.1821 128.996 54.5484 132.205 52.9931 135.96C51.4378 139.715 51.0309 143.846 51.8237 147.832C52.6166 151.818 54.5737 155.48 57.4475 158.354C60.3213 161.227 63.9827 163.184 67.9688 163.977C71.9548 164.77 76.0865 164.363 79.8413 162.808C83.596 161.253 86.8053 158.619 89.0632 155.24C91.3212 151.86 92.5263 147.888 92.5263 143.823C92.5289 138.369 90.366 133.137 86.5129 129.277C82.6598 125.417 77.4318 123.244 71.9776 123.236V123.275Z" fill="#282929" fill-opacity="0.2"/>
<path d="M71.1987 128.917H72.8807C72.9422 128.942 73.0069 128.958 73.0729 128.965C75.6141 129.109 78.0687 129.939 80.1756 131.368C82.4946 132.84 84.3504 134.937 85.5289 137.418C86.7074 139.899 87.1605 142.663 86.8361 145.39C86.5628 148.694 85.1254 151.794 82.7802 154.136C81.2185 155.801 79.2893 157.077 77.1465 157.863C75.0038 158.649 72.707 158.923 70.4394 158.663C68.0505 158.445 65.7574 157.617 63.7789 156.261C62.0246 155.11 60.536 153.598 59.4123 151.826C58.2886 150.055 57.5557 148.064 57.2625 145.986C57.1952 145.563 57.1568 145.131 57.0991 144.698V143.007L57.1568 142.699C57.2433 142.065 57.2913 141.421 57.4259 140.777C58.0514 137.776 59.5867 135.042 61.8225 132.945C64.0583 130.849 66.886 129.492 69.9204 129.061C70.2953 129.003 70.7374 129.003 71.1987 128.917ZM82.9436 152.137C84.6361 149.92 85.6058 147.236 85.7212 144.448H79.8103C79.7142 145.515 79.6566 146.553 79.5124 147.591C79.3682 148.629 79.1568 149.648 78.9838 150.619L82.9436 152.137ZM58.3101 144.448C58.4289 147.237 59.4019 149.921 61.0974 152.137L65.086 150.59C64.5838 148.573 64.3097 146.507 64.2691 144.429L58.3101 144.448ZM85.6924 143.247C85.8173 141.046 84.2123 136.702 82.9148 135.558L78.8877 137.086C79.398 139.095 79.6722 141.156 79.7046 143.228L85.6924 143.247ZM65.0956 137.105L61.107 135.558C59.6653 137.077 58.0891 141.44 58.3486 143.247H64.2691C64.297 141.169 64.5679 139.101 65.0764 137.086L65.0956 137.105ZM72.6116 149.792C73.4958 149.869 74.3512 149.908 75.197 150.004C76.0428 150.1 76.8982 150.254 77.7632 150.379C77.7632 150.311 77.7632 150.225 77.8304 150.148C78.2658 148.375 78.5107 146.561 78.5609 144.737C78.5609 144.487 78.5032 144.429 78.2629 144.429H72.8807H72.6116V149.792ZM65.432 144.429C65.4563 146.414 65.721 148.39 66.2201 150.311L71.3621 149.725V144.429H65.432ZM78.5224 143.228C78.4946 141.247 78.2333 139.275 77.7439 137.355L72.5827 137.942V143.228H78.5224ZM66.2201 137.355C65.7201 139.274 65.4554 141.246 65.432 143.228H71.3621V137.942L66.2201 137.355ZM77.3787 136.125C76.9754 134.831 76.3827 133.603 75.6199 132.482C75.1055 131.697 74.4184 131.04 73.6111 130.56C73.294 130.387 72.948 130.282 72.5827 130.128V136.692C74.2027 136.664 75.8157 136.474 77.3979 136.125H77.3787ZM72.5731 151.003V157.462C73.2941 157.337 73.9625 157.002 74.4954 156.501C75.6082 155.423 76.4654 154.109 77.0039 152.656C77.1384 152.32 77.2538 151.974 77.3979 151.599C75.8241 151.254 74.2219 151.055 72.6116 151.003H72.5731ZM71.3525 157.481V151.003C69.7371 151.036 68.1282 151.219 66.5469 151.551C66.8352 152.243 67.0755 152.897 67.3831 153.531C67.8845 154.682 68.6287 155.712 69.5648 156.549C70.0779 157.019 70.7091 157.341 71.3909 157.481H71.3525ZM66.5469 136.116C68.1287 136.445 69.7373 136.628 71.3525 136.663V130.185C70.8607 130.286 70.3956 130.489 69.9877 130.781C69.0201 131.487 68.2384 132.417 67.7099 133.492C67.3543 134.337 66.941 135.212 66.5373 136.116H66.5469ZM82.0882 153.147C80.9765 152.58 79.8067 152.135 78.5993 151.82C78.0264 153.751 77.0428 155.534 75.716 157.049C78.157 156.362 80.3595 155.011 82.0786 153.147H82.0882ZM68.3154 130.676C66.8352 130.676 62.7217 133.251 61.9432 134.616L65.3551 135.894C65.7876 134.933 66.1625 133.972 66.595 133.117C67.0388 132.219 67.6192 131.396 68.3154 130.676V130.676ZM61.9335 153.147C63.6791 155.025 65.9116 156.383 68.3826 157.068C67.0244 155.557 66.0168 153.765 65.432 151.82C64.2168 152.13 63.0401 152.575 61.9239 153.147H61.9335ZM75.7544 130.676C76.4163 131.416 76.9785 132.24 77.4268 133.126C77.8497 134.011 78.2245 134.914 78.6378 135.837C79.8298 135.531 80.9839 135.092 82.0786 134.53C80.3753 132.671 78.1787 131.334 75.7448 130.676H75.7544Z" fill="#282929" fill-opacity="0.2"/>
<path d="M273.678 135.213C282.665 135.213 289.95 127.928 289.95 118.941C289.95 109.955 282.665 102.67 273.678 102.67C264.691 102.67 257.406 109.955 257.406 118.941C257.406 127.928 264.691 135.213 273.678 135.213Z" fill="white"/>
<path d="M273.677 135.727C270.363 135.729 267.123 134.748 264.367 132.908C261.61 131.068 259.462 128.452 258.193 125.39C256.923 122.329 256.591 118.959 257.237 115.709C257.883 112.458 259.479 109.473 261.822 107.129C264.166 104.786 267.151 103.19 270.402 102.544C273.652 101.898 277.022 102.23 280.083 103.5C283.145 104.769 285.761 106.917 287.601 109.674C289.441 112.43 290.422 115.67 290.42 118.984C290.415 123.423 288.649 127.679 285.511 130.818C282.372 133.956 278.116 135.722 273.677 135.727ZM273.677 103.193C270.554 103.191 267.5 104.116 264.902 105.85C262.304 107.584 260.278 110.049 259.081 112.935C257.885 115.82 257.571 118.995 258.179 122.059C258.787 125.123 260.29 127.938 262.498 130.147C264.706 132.356 267.52 133.861 270.584 134.471C273.647 135.082 276.823 134.769 279.709 133.575C282.595 132.38 285.061 130.356 286.797 127.759C288.533 125.161 289.459 122.108 289.459 118.984C289.463 116.908 289.058 114.852 288.267 112.932C287.475 111.012 286.314 109.267 284.849 107.796C283.383 106.326 281.642 105.158 279.726 104.36C277.809 103.562 275.754 103.149 273.677 103.145V103.193Z" fill="#282929" fill-opacity="0.2"/>
<path d="M282.318 127.6H265.018C264.025 127.598 263.074 127.202 262.373 126.499C261.672 125.796 261.279 124.844 261.279 123.852V114.02C261.279 113.027 261.672 112.075 262.373 111.373C263.074 110.67 264.025 110.274 265.018 110.271H282.318C283.31 110.274 284.261 110.67 284.962 111.373C285.663 112.075 286.056 113.027 286.056 114.02V123.852C286.056 124.844 285.663 125.796 284.962 126.499C284.261 127.202 283.31 127.598 282.318 127.6V127.6ZM265.018 111.261C264.28 111.264 263.574 111.559 263.053 112.081C262.532 112.603 262.24 113.311 262.24 114.048V123.881C262.24 124.618 262.532 125.326 263.053 125.848C263.574 126.371 264.28 126.665 265.018 126.668H282.318C282.683 126.668 283.045 126.596 283.383 126.456C283.721 126.315 284.027 126.11 284.285 125.851C284.543 125.592 284.748 125.285 284.887 124.947C285.026 124.608 285.097 124.246 285.095 123.881V114.02C285.097 113.654 285.026 113.292 284.887 112.954C284.748 112.616 284.543 112.308 284.285 112.049C284.027 111.79 283.721 111.585 283.383 111.445C283.045 111.305 282.683 111.232 282.318 111.232L265.018 111.261Z" fill="#282929" fill-opacity="0.2"/>
<path d="M269.698 124.406C269.572 124.402 269.453 124.349 269.364 124.26C269.275 124.171 269.223 124.052 269.218 123.926V113.94C269.218 113.858 269.239 113.778 269.28 113.707C269.32 113.637 269.378 113.578 269.448 113.536C269.519 113.498 269.599 113.478 269.679 113.478C269.76 113.478 269.839 113.498 269.91 113.536L280.184 118.534C280.266 118.573 280.334 118.634 280.382 118.711C280.43 118.787 280.455 118.876 280.453 118.966C280.452 119.056 280.427 119.144 280.379 119.22C280.332 119.297 280.264 119.358 280.184 119.399L269.91 124.387C269.841 124.408 269.769 124.415 269.698 124.406ZM270.179 114.709V123.157L278.829 118.938L270.179 114.709Z" fill="#282929" fill-opacity="0.2"/>
<path d="M72.0827 110.171C88.4211 110.171 101.666 96.9257 101.666 80.5874C101.666 64.249 88.4211 51.0042 72.0827 51.0042C55.7444 51.0042 42.4995 64.249 42.4995 80.5874C42.4995 96.9257 55.7444 110.171 72.0827 110.171Z" fill="white"/>
<path d="M72.083 110.661C66.1346 110.663 60.3193 108.901 55.3725 105.598C50.4257 102.294 46.5696 97.5982 44.292 92.1032C42.0143 86.6081 41.4174 80.5611 42.5767 74.7268C43.736 68.8925 46.5994 63.533 50.8049 59.3262C55.0104 55.1194 60.3689 52.2543 66.2028 51.0931C72.0368 49.9319 78.084 50.5269 83.5798 52.8028C89.0755 55.0787 93.7729 58.9333 97.0778 63.879C100.383 68.8248 102.147 74.6396 102.147 80.5879C102.137 88.5591 98.9662 96.201 93.3307 101.838C87.6951 107.476 80.0542 110.649 72.083 110.661V110.661ZM72.083 51.4853C66.3243 51.4834 60.6944 53.1894 55.9055 56.3876C51.1165 59.5857 47.3836 64.1323 45.179 69.4523C42.9744 74.7723 42.3971 80.6266 43.5201 86.2747C44.643 91.9228 47.4159 97.111 51.4879 101.183C55.5599 105.255 60.7481 108.028 66.3962 109.151C72.0444 110.274 77.8987 109.697 83.2186 107.492C88.5386 105.287 93.0852 101.554 96.2834 96.7655C99.4815 91.9765 101.188 86.3466 101.186 80.5879C101.175 72.8725 98.1061 65.4761 92.6505 60.0205C87.1949 54.5649 79.7984 51.4954 72.083 51.4853V51.4853Z" fill="#282929" fill-opacity="0.2"/>
<path d="M90.9598 94.2605H53.2071C53.0797 94.2605 52.9574 94.2099 52.8673 94.1197C52.7772 94.0296 52.7266 93.9074 52.7266 93.7799V67.4165C52.7266 67.289 52.7772 67.1668 52.8673 67.0767C52.9574 66.9865 53.0797 66.9359 53.2071 66.9359H90.9598C91.0873 66.9359 91.2095 66.9865 91.2996 67.0767C91.3898 67.1668 91.4404 67.289 91.4404 67.4165V93.7799C91.4404 93.9074 91.3898 94.0296 91.2996 94.1197C91.2095 94.2099 91.0873 94.2605 90.9598 94.2605ZM53.6877 93.2994H90.4793V67.897H53.6877V93.2994Z" fill="#282929" fill-opacity="0.2"/>
<path d="M53.2067 94.2564C53.1024 94.2587 53.0005 94.2247 52.9184 94.1603C52.817 94.0837 52.7493 93.9708 52.7296 93.8453C52.7099 93.7198 52.7396 93.5915 52.8126 93.4875L67.7196 73.4194C67.7613 73.3612 67.8161 73.3135 67.8795 73.2802C67.9429 73.2468 68.0132 73.2286 68.0848 73.2272C68.1578 73.2249 68.2304 73.2393 68.297 73.2693C68.3636 73.2992 68.4225 73.344 68.4693 73.4002L80.1276 87.221C80.1686 87.269 80.1998 87.3246 80.2193 87.3846C80.2389 87.4446 80.2464 87.5079 80.2415 87.5708C80.2366 87.6337 80.2194 87.695 80.1907 87.7513C80.1621 87.8075 80.1227 87.8576 80.0748 87.8986C80.0268 87.9397 79.9712 87.9708 79.9112 87.9904C79.8512 88.0099 79.7879 88.0174 79.725 88.0125C79.6621 88.0076 79.6008 87.9904 79.5445 87.9618C79.4882 87.9331 79.4382 87.8937 79.3972 87.8458L68.1233 74.4766L53.5911 94.0642C53.5459 94.1233 53.4877 94.1714 53.4211 94.2047C53.3545 94.238 53.2812 94.2557 53.2067 94.2564Z" fill="#282929" fill-opacity="0.2"/>
<path d="M76.5618 84.2234C76.4656 84.2216 76.372 84.1915 76.2927 84.1369C76.1889 84.065 76.1176 83.955 76.0942 83.8309C76.0709 83.7068 76.0973 83.5785 76.1678 83.4737L82.2036 74.7468C82.2452 74.6884 82.2992 74.6399 82.3616 74.6047C82.4241 74.5694 82.4935 74.5483 82.565 74.5428C82.6364 74.5373 82.7083 74.5476 82.7754 74.5729C82.8424 74.5981 82.9032 74.6378 82.9533 74.6891L91.3054 83.4064C91.3759 83.5023 91.4091 83.6205 91.3989 83.7391C91.3887 83.8576 91.3357 83.9684 91.2498 84.0508C91.1639 84.1331 91.051 84.1814 90.9322 84.1867C90.8133 84.1919 90.6966 84.1537 90.6038 84.0792L82.6649 75.7848L76.9655 84.012C76.9198 84.0767 76.8594 84.1296 76.7892 84.1664C76.719 84.2031 76.6411 84.2227 76.5618 84.2234V84.2234Z" fill="#282929" fill-opacity="0.2"/>
<path d="M77.2251 75.5015C76.6677 75.5034 76.1223 75.3399 75.658 75.0316C75.1936 74.7233 74.8312 74.2842 74.6165 73.7698C74.4019 73.2554 74.3448 72.6889 74.4524 72.142C74.5599 71.5951 74.8274 71.0924 75.2208 70.6976C75.6143 70.3028 76.116 70.0336 76.6626 69.9242C77.2091 69.8148 77.7758 69.87 78.2909 70.0828C78.8061 70.2957 79.2464 70.6566 79.5563 71.1199C79.8662 71.5832 80.0316 72.1281 80.0316 72.6854C80.0316 73.4307 79.7362 74.1455 79.2102 74.6733C78.6841 75.2012 77.9703 75.499 77.2251 75.5015V75.5015ZM77.2251 70.8305C76.8578 70.8286 76.4982 70.9358 76.1919 71.1384C75.8856 71.3411 75.6464 71.6301 75.5045 71.9689C75.3626 72.3077 75.3245 72.6809 75.395 73.0414C75.4655 73.4019 75.6414 73.7333 75.9004 73.9937C76.1595 74.254 76.49 74.4317 76.8501 74.504C77.2101 74.5764 77.5836 74.5402 77.9231 74.4001C78.2626 74.26 78.5529 74.0222 78.7572 73.717C78.9614 73.4117 79.0704 73.0527 79.0705 72.6854C79.0705 72.1951 78.8763 71.7248 78.5305 71.3772C78.1848 71.0296 77.7154 70.833 77.2251 70.8305V70.8305Z" fill="#282929" fill-opacity="0.2"/>
<path d="M201.334 142.786C201.229 142.77 201.134 142.717 201.064 142.637C200.995 142.557 200.957 142.454 200.957 142.348C200.957 142.242 200.995 142.14 201.064 142.06C201.134 141.979 201.229 141.927 201.334 141.911L225.852 140.056C225.91 140.049 225.969 140.055 226.024 140.072C226.08 140.089 226.132 140.117 226.176 140.155C226.22 140.193 226.256 140.24 226.281 140.292C226.307 140.344 226.321 140.401 226.323 140.46C226.328 140.517 226.322 140.575 226.305 140.63C226.287 140.686 226.258 140.737 226.221 140.78C226.183 140.824 226.137 140.86 226.085 140.886C226.034 140.912 225.977 140.927 225.92 140.931L201.401 142.786H201.334Z" fill="#282929"/>
<path d="M263.047 82.5139C278.048 82.5139 290.208 70.3534 290.208 55.3527C290.208 40.352 278.048 28.1915 263.047 28.1915C248.046 28.1915 235.886 40.352 235.886 55.3527C235.886 70.3534 248.046 82.5139 263.047 82.5139Z" fill="white"/>
<path d="M263.048 82.9817C257.58 82.9817 252.235 81.3602 247.69 78.3225C243.144 75.2848 239.601 70.9671 237.509 65.9157C235.417 60.8643 234.87 55.306 235.938 49.9437C237.005 44.5815 239.639 39.6562 243.505 35.7908C247.372 31.9254 252.298 29.2936 257.661 28.2281C263.023 27.1626 268.582 27.7114 273.632 29.805C278.683 31.8986 282.999 35.443 286.035 39.9899C289.072 44.5369 290.691 49.8821 290.689 55.3495C290.679 62.6765 287.763 69.7004 282.581 74.8805C277.399 80.0606 270.375 82.974 263.048 82.9817ZM263.048 28.6689C257.771 28.6689 252.612 30.2337 248.225 33.1654C243.837 36.0971 240.417 40.264 238.398 45.1393C236.378 50.0145 235.85 55.3791 236.88 60.5546C237.909 65.7302 240.45 70.4842 244.181 74.2156C247.913 77.9469 252.667 80.488 257.842 81.5175C263.018 82.547 268.383 82.0186 273.258 79.9992C278.133 77.9798 282.3 74.5601 285.232 70.1725C288.163 65.7849 289.728 60.6264 289.728 55.3495C289.721 48.2757 286.907 41.4938 281.905 36.4919C276.903 31.4899 270.121 28.6765 263.048 28.6689Z" fill="#282929" fill-opacity="0.2"/>
<path d="M280.77 65.5646H245.324C245.197 65.5646 245.075 65.514 244.984 65.4239C244.894 65.3337 244.844 65.2115 244.844 65.0841V45.583C244.844 45.4555 244.894 45.3333 244.984 45.2432C245.075 45.153 245.197 45.1024 245.324 45.1024H280.77C280.898 45.1024 281.02 45.153 281.11 45.2432C281.2 45.3333 281.251 45.4555 281.251 45.583V65.1129C281.244 65.2353 281.19 65.3502 281.1 65.4342C281.011 65.5182 280.893 65.5648 280.77 65.5646V65.5646ZM245.805 64.6035H280.29V46.0635H245.805V64.6035Z" fill="#282929" fill-opacity="0.2"/>
<path d="M263.057 58.2425C262.959 58.241 262.863 58.2145 262.778 58.1656L245.055 45.9787C244.95 45.9073 244.876 45.7968 244.852 45.6715C244.828 45.5463 244.854 45.4165 244.926 45.3107C244.997 45.2049 245.107 45.1318 245.233 45.1075C245.358 45.0831 245.488 45.1096 245.594 45.1809L263.057 57.1853L280.501 45.1809C280.607 45.1096 280.737 45.0831 280.862 45.1075C280.987 45.1318 281.098 45.2049 281.169 45.3107C281.241 45.4165 281.267 45.5463 281.243 45.6715C281.218 45.7968 281.145 45.9073 281.04 45.9787L263.326 58.1656C263.244 58.213 263.152 58.2394 263.057 58.2425V58.2425Z" fill="#282929" fill-opacity="0.2"/>
<path d="M245.324 65.5713C245.246 65.5715 245.169 65.5523 245.1 65.5154C245.032 65.4785 244.973 65.425 244.93 65.3599C244.894 65.3077 244.868 65.2487 244.855 65.1865C244.841 65.1243 244.84 65.06 244.852 64.9974C244.863 64.9348 244.887 64.8751 244.922 64.8219C244.957 64.7686 245.002 64.7228 245.055 64.6871L259.26 54.999C259.366 54.9277 259.496 54.9012 259.621 54.9256C259.746 54.9499 259.857 55.023 259.928 55.1288C260 55.2346 260.026 55.3644 260.002 55.4897C259.977 55.6149 259.904 55.7254 259.799 55.7968L245.593 65.5137C245.512 65.5604 245.418 65.5806 245.324 65.5713V65.5713Z" fill="#282929" fill-opacity="0.2"/>
<path d="M280.77 65.5731C280.673 65.5738 280.579 65.5435 280.501 65.4866L266.305 55.7505C266.253 55.7152 266.208 55.6699 266.173 55.6172C266.138 55.5645 266.114 55.5054 266.102 55.4434C266.09 55.3814 266.09 55.3176 266.103 55.2557C266.116 55.1937 266.14 55.1349 266.176 55.0825C266.211 55.0302 266.256 54.9852 266.309 54.9504C266.362 54.9155 266.421 54.8914 266.483 54.8793C266.545 54.8673 266.609 54.8675 266.67 54.8802C266.732 54.8928 266.791 54.9174 266.844 54.9528L281.039 64.7177C281.092 64.7534 281.137 64.7992 281.172 64.8525C281.207 64.9057 281.231 64.9654 281.242 65.028C281.254 65.0906 281.253 65.1549 281.24 65.2171C281.226 65.2794 281.201 65.3383 281.164 65.3905C281.118 65.4504 281.058 65.4982 280.989 65.53C280.921 65.5618 280.846 65.5766 280.77 65.5731V65.5731Z" fill="#282929" fill-opacity="0.2"/>
<path d="M121.158 46.1701C133.494 46.1701 143.494 36.1697 143.494 23.8337C143.494 11.4977 133.494 1.49731 121.158 1.49731C108.822 1.49731 98.8213 11.4977 98.8213 23.8337C98.8213 36.1697 108.822 46.1701 121.158 46.1701Z" fill="white"/>
<path d="M121.177 46.6531C116.662 46.6531 112.248 45.3141 108.494 42.8055C104.74 40.2968 101.815 36.7313 100.087 32.5597C98.3598 28.3881 97.9084 23.798 98.7899 19.3698C99.6715 14.9416 101.846 10.8743 105.04 7.68235C108.233 4.49039 112.301 2.31713 116.73 1.43744C121.158 0.557763 125.748 1.01118 129.919 2.74034C134.09 4.4695 137.654 7.39673 140.161 11.1518C142.668 14.9069 144.006 19.3211 144.004 23.8362C143.996 29.8869 141.588 35.6875 137.309 39.9652C133.03 44.2428 127.228 46.648 121.177 46.6531ZM121.177 1.97074C116.853 1.97074 112.625 3.25312 109.029 5.65573C105.434 8.05833 102.631 11.4732 100.976 15.4686C99.3212 19.464 98.8882 23.8604 99.7319 28.1019C100.576 32.3434 102.658 36.2394 105.716 39.2974C108.774 42.3553 112.67 44.4378 116.911 45.2815C121.153 46.1252 125.549 45.6921 129.545 44.0372C133.54 42.3823 136.955 39.5797 139.358 35.984C141.76 32.3882 143.043 28.1608 143.043 23.8362C143.037 18.0387 140.732 12.4801 136.633 8.3806C132.533 4.28114 126.975 1.97583 121.177 1.97074V1.97074Z" fill="#282929" fill-opacity="0.2"/>
<path d="M118.188 27.4442H109.644C108.572 27.4443 107.545 27.0193 106.786 26.2625C106.028 25.5058 105.6 24.479 105.598 23.4076V22.3215C105.6 21.25 106.028 20.2233 106.786 19.4665C107.545 18.7098 108.572 18.2848 109.644 18.2848H118.169C118.297 18.2848 118.419 18.3354 118.509 18.4255C118.599 18.5157 118.65 18.6379 118.65 18.7653V26.9637C118.65 27.0879 118.602 27.2073 118.516 27.2969C118.43 27.3865 118.312 27.4393 118.188 27.4442ZM109.644 19.2459C108.827 19.2459 108.044 19.5696 107.466 20.1461C106.887 20.7226 106.561 21.5049 106.559 22.3215V23.4076C106.561 24.2241 106.887 25.0064 107.466 25.5829C108.044 26.1594 108.827 26.4831 109.644 26.4831H117.689V19.2459H109.644Z" fill="#282929" fill-opacity="0.2"/>
<path d="M131.941 34.2362C131.868 34.2353 131.796 34.2189 131.73 34.1882L117.976 27.3931C117.895 27.3534 117.827 27.2919 117.78 27.2154C117.732 27.1389 117.707 27.0506 117.707 26.9606V18.5412C117.708 18.4513 117.734 18.3635 117.781 18.2872C117.828 18.2109 117.896 18.1492 117.976 18.1087L131.749 11.3232C131.819 11.2827 131.899 11.2614 131.98 11.2614C132.061 11.2614 132.14 11.2827 132.21 11.3232C132.28 11.3647 132.338 11.4238 132.379 11.4945C132.419 11.5653 132.441 11.6453 132.441 11.7268V33.7557C132.436 33.8816 132.384 34.0011 132.295 34.0902C132.206 34.1793 132.086 34.2315 131.96 34.2362H131.941ZM118.668 26.6626L131.461 32.9771V12.5246L118.668 18.8391V26.6626Z" fill="#282929" fill-opacity="0.2"/>
<path d="M131.941 27.5069C131.814 27.5069 131.692 27.4563 131.602 27.3661C131.512 27.276 131.461 27.1538 131.461 27.0263C131.461 26.8989 131.512 26.7766 131.602 26.6865C131.692 26.5964 131.814 26.5458 131.941 26.5458C132.491 26.6334 133.052 26.6009 133.588 26.4504C134.123 26.3 134.619 26.0351 135.042 25.6742C135.466 25.3133 135.805 24.8649 136.038 24.3599C136.271 23.855 136.392 23.3055 136.392 22.7494C136.392 22.1932 136.271 21.6437 136.038 21.1388C135.805 20.6338 135.466 20.1854 135.042 19.8245C134.619 19.4636 134.123 19.1988 133.588 19.0483C133.052 18.8978 132.491 18.8653 131.941 18.9529C131.814 18.9529 131.692 18.9023 131.602 18.8122C131.512 18.7221 131.461 18.5998 131.461 18.4724C131.461 18.3449 131.512 18.2227 131.602 18.1326C131.692 18.0425 131.814 17.9918 131.941 17.9918C132.566 17.9918 133.185 18.1149 133.762 18.354C134.339 18.5931 134.864 18.9435 135.306 19.3853C135.747 19.827 136.098 20.3515 136.337 20.9287C136.576 21.5059 136.699 22.1246 136.699 22.7494C136.699 23.3741 136.576 23.9928 136.337 24.57C136.098 25.1472 135.747 25.6717 135.306 26.1134C134.864 26.5552 134.339 26.9057 133.762 27.1447C133.185 27.3838 132.566 27.5069 131.941 27.5069V27.5069Z" fill="#282929" fill-opacity="0.2"/>
<path d="M113.344 36.3988C113.025 36.4001 112.709 36.3384 112.414 36.2172C112.119 36.0961 111.851 35.9179 111.625 35.6929C111.399 35.4678 111.22 35.2004 111.097 34.9059C110.975 34.6114 110.912 34.2957 110.912 33.9768V26.9607C110.912 26.8332 110.963 26.711 111.053 26.6209C111.143 26.5307 111.265 26.4801 111.393 26.4801H115.295C115.421 26.4826 115.542 26.534 115.632 26.6236C115.721 26.7132 115.773 26.834 115.775 26.9607V33.9768C115.773 34.6201 115.516 35.2361 115.06 35.69C114.604 36.144 113.987 36.3988 113.344 36.3988V36.3988ZM111.873 27.4412V33.9768C111.873 34.3668 112.028 34.7409 112.304 35.0166C112.58 35.2924 112.954 35.4473 113.344 35.4473C113.734 35.4473 114.108 35.2924 114.384 35.0166C114.659 34.7409 114.814 34.3668 114.814 33.9768V27.4412H111.873Z" fill="#282929" fill-opacity="0.2"/>
<path d="M112.527 21.8094H108.923C108.795 21.8094 108.673 21.7588 108.583 21.6686C108.493 21.5785 108.442 21.4563 108.442 21.3288C108.442 21.2014 108.493 21.0791 108.583 20.989C108.673 20.8989 108.795 20.8483 108.923 20.8483H112.527C112.655 20.8483 112.777 20.8989 112.867 20.989C112.957 21.0791 113.008 21.2014 113.008 21.3288C113.008 21.4563 112.957 21.5785 112.867 21.6686C112.777 21.7588 112.655 21.8094 112.527 21.8094Z" fill="#282929" fill-opacity="0.2"/>
<path d="M123.743 147.822H99.2345C99.107 147.822 98.9848 147.771 98.8947 147.681C98.8045 147.591 98.7539 147.469 98.7539 147.341C98.7539 147.214 98.8045 147.092 98.8947 147.001C98.9848 146.911 99.107 146.861 99.2345 146.861H123.743C123.87 146.861 123.993 146.911 124.083 147.001C124.173 147.092 124.224 147.214 124.224 147.341C124.224 147.469 124.173 147.591 124.083 147.681C123.993 147.771 123.87 147.822 123.743 147.822Z" fill="#282929" fill-opacity="0.2"/>
<path d="M129.51 141.851H99.2345C99.107 141.851 98.9848 141.8 98.8947 141.71C98.8045 141.62 98.7539 141.498 98.7539 141.37C98.7539 141.243 98.8045 141.121 98.8947 141.031C98.9848 140.94 99.107 140.89 99.2345 140.89H129.51C129.636 140.892 129.757 140.944 129.847 141.033C129.936 141.123 129.988 141.244 129.99 141.37C129.99 141.498 129.94 141.62 129.849 141.71C129.759 141.8 129.637 141.851 129.51 141.851Z" fill="#282929" fill-opacity="0.2"/>
<path d="M128.107 135.972H99.273C99.1456 135.972 99.0233 135.922 98.9332 135.832C98.8431 135.741 98.7925 135.619 98.7925 135.492C98.7925 135.364 98.8431 135.242 98.9332 135.152C99.0233 135.062 99.1456 135.011 99.273 135.011H128.107C128.234 135.011 128.356 135.062 128.446 135.152C128.537 135.242 128.587 135.364 128.587 135.492C128.587 135.619 128.537 135.741 128.446 135.832C128.356 135.922 128.234 135.972 128.107 135.972Z" fill="#282929" fill-opacity="0.2"/>
</g>
<defs>
<linearGradient id="paint0_linear_2193_9689" x1="100.5" y1="34.5" x2="298" y2="164.5" gradientUnits="userSpaceOnUse">
<stop stop-color="#FFB11B"/>
<stop offset="1" stop-color="#FF441B"/>
</linearGradient>
<linearGradient id="paint1_linear_2193_9689" x1="100.5" y1="34.5" x2="298" y2="164.5" gradientUnits="userSpaceOnUse">
<stop stop-color="#FFB11B"/>
<stop offset="1" stop-color="#FF441B"/>
</linearGradient>
<clipPath id="clip0_2193_9689">
<rect width="332" height="170" fill="white"/>
</clipPath>
</defs>
</svg>
