<svg width="237" height="209" viewBox="0 0 237 209" fill="none" xmlns="http://www.w3.org/2000/svg">
<path d="M113.432 203.491C154.193 203.491 187.235 168.664 187.235 125.703C187.235 82.7412 154.193 47.9141 113.432 47.9141C72.6718 47.9141 39.6289 82.7412 39.6289 125.703C39.6289 168.664 72.6718 203.491 113.432 203.491Z" fill="white"/>
<path d="M113.432 47.9141C128.029 47.9141 142.298 52.4764 154.435 61.0239C166.572 69.5714 176.031 81.7203 181.617 95.9343C187.203 110.148 188.665 125.789 185.817 140.878C182.97 155.968 175.941 169.829 165.619 180.707C155.297 191.586 142.147 198.995 127.83 201.996C113.514 204.998 98.6746 203.457 85.1888 197.57C71.703 191.682 60.1765 181.712 52.0669 168.92C43.9573 156.127 39.6288 141.088 39.6288 125.703C39.6277 115.487 41.5358 105.371 45.2444 95.9328C48.9529 86.4945 54.3892 77.9187 61.2427 70.6951C68.0962 63.4715 76.2327 57.7417 85.1875 53.8329C94.1422 49.9241 103.74 47.9129 113.432 47.9141ZM113.432 47.0527C98.6736 47.0527 84.2464 51.6655 71.9752 60.3076C59.7039 68.9498 50.1396 81.2332 44.4917 95.6046C38.8439 109.976 37.3661 125.79 40.2454 141.046C43.1246 156.303 50.2315 170.317 60.6674 181.317C71.1033 192.316 84.3994 199.807 98.8744 202.841C113.349 205.876 128.353 204.319 141.988 198.366C155.623 192.413 167.277 182.332 175.477 169.398C183.676 156.464 188.053 141.258 188.053 125.703C188.032 104.85 180.163 84.8583 166.173 70.1134C152.184 55.3685 133.216 47.075 113.432 47.0527Z" fill="#282929"/>
<path d="M58.0969 74.2307C58.6376 74.4533 59.2308 74.4926 59.7937 74.343L58.8076 73.4067C60.1401 71.8618 61.5437 70.3731 62.9917 68.9405C62.9567 69.5181 62.7856 70.0774 62.494 70.5678C62.2024 71.0582 61.7995 71.4643 61.3216 71.7494C62.8851 71.8431 64.1021 70.8693 65.4702 70.4292C67.0962 70.0226 68.742 69.7101 70.4004 69.4929L67.9842 71.2626C68.4419 71.4506 68.9107 71.607 69.3877 71.7307C69.8408 70.6914 70.436 71.5341 70.969 71.506C72.1682 71.4311 73.4919 72.9292 74.4069 71.3843C74.838 71.4387 75.2634 71.5359 75.6772 71.6745C76.8133 72.0429 77.8956 72.5754 78.893 73.2569C80.0123 74.1932 80.3587 74.3056 81.2115 72.9198L80.0833 72.5079V72.0303L82.3753 71.506C82.4665 72.0781 82.5023 72.6585 82.4819 73.2382C82.3794 73.6034 82.2203 73.9482 82.011 74.2587C82.6857 74.3267 83.3561 74.4361 84.0187 74.5865C84.6533 74.8165 85.2734 75.0885 85.8753 75.401L85.3157 76.5995L88.3805 76.0846L88.4959 76.3748L87.3233 77.1894C89.1 77.7418 90.166 76.7774 90.1749 74.8861L91.6762 74.034C91.1412 73.9848 90.6024 74.055 90.0949 74.24C88.4426 74.6239 86.7637 75.064 85.138 74.1838C84.303 73.7344 84.3474 73.1071 85.138 72.6764C86.1208 72.1109 87.1531 71.6469 88.2205 71.2906C90.0861 70.7289 92.0049 70.3543 93.9326 69.8768L93.6128 69.3619C94.4864 69.0951 95.377 68.8948 96.2778 68.7626C96.8257 68.8429 97.3554 69.0269 97.8413 69.3057L97.3704 68.2383C98.2588 68.6783 98.9872 69.3712 99.5291 69.2401C100.711 68.9592 101.617 69.9236 102.843 69.6708C103.536 69.5304 104.468 70.6071 105.001 70.9723C105.563 71.0411 106.117 71.1697 106.654 71.3562C107.156 71.6915 107.629 72.0738 108.066 72.4985L106.192 72.021C107.036 73.1258 107.968 74.4273 108.972 75.6258C109.674 76.4497 110.429 77.4984 111.344 77.7699C112.597 78.1594 113.747 78.8519 114.702 79.7923C114.886 80.0012 115.026 80.2481 115.115 80.5172C115.204 80.7863 115.239 81.0719 115.217 81.356C115.09 82.1819 114.873 82.9894 114.569 83.7623C114.403 84.1829 114.09 84.5209 113.696 84.707C113.301 84.8932 112.854 84.9137 112.446 84.7641C111.708 84.3802 110.784 83.4439 110.331 83.6593C109.674 83.987 109.354 85.1012 108.892 85.8877C108.801 86.0481 108.718 86.2138 108.643 86.3839C108.217 87.3203 108.27 89.4644 106.645 87.236C105.321 87.5356 105.312 86.3933 105.232 85.6162C105.217 85.2223 105.101 84.8403 104.896 84.5105C104.691 84.1808 104.405 83.9158 104.069 83.7436C103.877 83.6751 103.71 83.5485 103.586 83.3797C103.463 83.2108 103.391 83.0073 103.377 82.7948C103.364 82.5824 103.411 82.3706 103.512 82.1861C103.613 82.0017 103.763 81.8529 103.944 81.7586C104.966 80.9908 105.081 80.2886 104.202 79.2961C103.74 78.7718 103.038 78.4909 102.523 77.9946C102.008 77.4984 101.732 76.843 101.226 76.4123C100.639 75.8898 99.9641 75.4895 99.236 75.2325C98.8184 75.1108 98.2588 75.5228 97.6547 75.7381C98.854 76.74 99.7601 77.4796 100.657 78.2381C101.155 78.6594 101.741 81.1968 101.288 81.487C100.45 82.0174 99.5081 82.3377 98.5342 82.4234C97.6541 82.3161 96.7857 82.1218 95.9402 81.8428C95.505 81.8624 95.0758 81.9573 94.6699 82.1237V82.6855L96.9529 82.9102C97.5492 82.9437 98.1427 83.0187 98.7296 83.135C99.538 83.3222 99.618 83.8934 99.0761 84.4458C98.3299 85.1667 98.5697 85.6723 99.1827 86.2435C100.719 84.9233 101.057 85.0544 101.421 87.1143C101.461 87.5877 101.461 88.064 101.421 88.5375C102.052 88.8183 102.825 89.4738 103.198 89.2865C104.815 88.4719 105.863 89.9794 107.311 90.0917C107.737 88.912 108.546 89.6329 109.292 89.6517C109.787 89.6117 110.255 89.4011 110.624 89.0524C110.829 88.8745 110.962 88.2285 110.838 88.1161C110.529 87.7741 110.324 87.3427 110.25 86.8772C110.176 86.4118 110.235 85.9335 110.42 85.5038C112.366 86.6274 112.348 86.6274 111.904 88.7247C111.834 89.1513 111.804 89.5841 111.815 90.0168L114.702 91.234C115.59 92.1703 116.283 92.9006 116.949 93.5842C117.189 93.8182 117.545 93.9774 117.687 94.2677C117.795 94.5489 117.958 94.8038 118.163 95.0166C118.369 95.2295 118.613 95.3958 118.882 95.5054C119.151 95.615 119.438 95.6656 119.726 95.654C120.014 95.6424 120.296 95.5689 120.556 95.4381C120.512 95.8594 120.467 96.262 120.414 96.7114L122.972 96.5897C122.24 97.5871 121.438 98.526 120.574 99.3986C119.552 100.635 120.387 101.945 120.574 103.209C122.724 103.387 124.873 102.339 126.952 103.659C125.771 106.196 127.743 108.818 126.321 111.299L124.909 111.121L124.074 112.292C121.924 111.758 119.845 111.44 119.197 109.483C119.197 108.724 119.357 108.172 119.197 107.891C118.699 107.161 118.033 106.58 117.474 105.906C117.1 105.447 116.479 104.923 116.505 104.464C116.576 103.003 115.75 103.078 114.986 103.406C114.663 103.59 114.291 103.652 113.929 103.584C113.568 103.516 113.239 103.322 112.996 103.032C112.519 102.624 112.011 102.258 111.477 101.936C111.113 102.423 110.758 102.947 110.358 103.434C109.729 104.321 109.011 105.134 108.217 105.859C106.822 106.927 105.161 107.732 105.765 110.101L104.779 108.668C104.948 108.069 105.063 107.638 105.25 106.964L103.642 107.685C103.695 107.413 103.642 107.217 103.749 107.161C104.69 106.515 105.259 105.288 106.485 105.045C106.855 104.878 107.165 104.593 107.373 104.23C107.737 103.724 107.968 103.116 108.35 102.629C109.292 101.43 109.123 100.756 107.826 100.419C107.719 100.729 107.573 101.022 107.391 101.29C107.249 101.459 106.805 101.44 106.769 101.58C106.432 102.947 105.33 103.35 104.344 103.977C103.731 104.37 102.914 105.129 102.914 105.728C102.914 108.471 101.048 110.147 100.142 112.282C99.7367 111.675 99.3858 111.029 99.0938 110.353C98.9877 109.921 99.0318 109.463 99.2182 109.061C99.5243 108.443 99.8716 107.849 100.258 107.282C99.6801 107.282 99.1294 107.526 98.925 107.339C97.9212 106.402 97.9479 106.346 97.0773 106.88C97.1484 107.882 97.2106 108.752 97.2639 109.473C96.8641 110.091 96.5798 111.018 96.0113 111.299C95.4428 111.58 94.7232 112.928 93.5151 111.805C93.142 111.449 91.8716 112.161 91.0099 112.376C90.9693 112.388 90.9262 112.388 90.8856 112.376L88.7003 111.327C89.1533 113.434 89.5086 115.072 89.8729 116.786C90.1038 117.863 90.4947 118.658 91.7828 118.705C92.2803 118.705 92.76 119.286 93.0087 119.445L91.0011 121.664L91.9871 122.469L91.8539 122.872L89.9262 122.263C89.6597 122.76 89.2954 123.368 88.9845 124.024C88.4693 125.128 87.9807 126.243 87.5099 127.366C87.1368 128.302 86.7814 129.192 86.4527 130.119C86.273 130.81 86.0595 131.492 85.8132 132.16C85.4339 132.887 85.0064 133.585 84.5339 134.248C83.2192 136.27 83.2547 138.658 82.8727 140.933C82.7395 141.739 82.4019 142.029 81.709 141.664C80.4408 141.049 79.207 140.358 78.0135 139.594C76.761 138.733 75.6949 137.544 74.4069 136.739C73.2077 136.104 72.1507 135.207 71.3066 134.108C71.0845 133.771 70.9157 133.405 70.7202 133.059C70.5416 132.689 70.3304 132.338 70.0895 132.01C68.606 130.287 68.908 128.771 70.889 127.741C71.2933 127.486 71.5938 127.082 71.733 126.608C71.8643 125.993 71.9299 125.365 71.9284 124.735C72.4886 125.359 72.9885 126.039 73.4208 126.767C73.9893 127.956 74.9043 127.235 75.6505 127.385L75.8904 125.906C75.9526 125.587 76.0236 125.269 76.1835 124.548C76.4767 125.288 76.6099 125.615 76.6988 125.849L78.9729 120.728C77.7559 119.295 77.5072 119.333 76.6455 121.065C76.529 121.318 76.4252 121.577 76.3345 121.842C76.179 122.325 75.9264 122.766 75.5939 123.137C75.2614 123.507 74.8569 123.797 74.4081 123.988C73.9593 124.178 73.4768 124.264 72.9936 124.239C72.5104 124.215 72.038 124.08 71.6086 123.846C70.9779 125.494 70.8446 125.718 69.0502 125.821C67.2557 125.924 65.3724 125.821 63.7201 125.821L60.7087 129.435L61.597 129.81L59.6071 131.617L58.5322 130.25C58.0703 132.862 57.6439 135.924 56.9687 138.883C56.3607 141.894 55.4679 144.833 54.3037 147.656C52.5929 145.527 51.7357 142.78 51.9141 139.997C52.0256 139.313 51.9422 138.609 51.6742 137.975C51.0346 136.991 49.9953 136.28 49.3912 135.278C48.4407 133.724 46.584 132.928 46.2198 130.896C46.2198 130.634 45.6424 130.381 45.3315 130.287C44.3632 130.025 43.386 129.847 42.3733 129.632C42.2442 130.402 42.0046 131.147 41.6626 131.842C41.0628 132.668 40.5643 133.571 40.1791 134.529C39.8621 131.598 39.702 128.65 39.6994 125.7C39.6579 106.75 46.2026 88.4405 58.0969 74.2307Z" fill="#282929" fill-opacity="0.2"/>
<path d="M160.372 185.716C160.146 185.225 160.002 184.696 159.945 184.153C159.976 183.591 159.845 183.033 159.571 182.551C159.297 182.069 158.892 181.684 158.409 181.447C157.192 180.866 155.903 180.511 154.651 179.977C154.357 179.902 154.095 179.728 153.905 179.481C153.263 178.407 152.753 177.253 152.386 176.044C152.103 174.36 151.919 172.659 151.835 170.951C151.842 170.763 151.805 170.577 151.728 170.408C151.089 169.537 150.351 168.732 149.783 167.805C149.214 166.878 148.264 165.661 148.21 164.546C148.172 164.22 148.198 163.889 148.287 163.574C148.376 163.259 148.525 162.966 148.726 162.715C148.927 162.464 149.175 162.259 149.455 162.113C149.735 161.967 150.04 161.884 150.351 161.869C150.566 161.8 150.752 161.654 150.875 161.457C152.315 159.406 154.429 159.856 156.419 159.827C156.241 158.947 156.667 158.657 157.538 158.442C159.563 157.955 161.189 156.953 161.775 154.528C162.362 152.103 163.552 151.27 166.111 151.12C166.869 150.956 167.578 150.595 168.171 150.071C168.656 149.654 169.099 149.187 169.495 148.676C169.688 148.411 169.905 148.166 170.144 147.946C170.845 147.44 171.352 146.345 172.284 146.56C173.244 146.902 174.283 146.902 175.243 146.56C176.131 146.139 177.019 145.68 178.094 145.146L179.08 147.955C179.755 146.85 179.08 145.755 178.911 144.594C180.875 145.867 183.131 146.597 183.602 149.425L183.726 149.35C179.413 163.583 171.306 176.207 160.372 185.716Z" fill="#282929" fill-opacity="0.2"/>
<path d="M175.198 100.397C172.72 100.987 170.872 99.6761 168.891 98.6649C168.712 98.5644 168.559 98.4216 168.441 98.2478C168.324 98.0739 168.247 97.8737 168.216 97.663C168.246 97.4111 168.325 97.1682 168.447 96.9493C168.569 96.7304 168.732 96.54 168.927 96.3896C169.48 96.1503 170.063 95.9988 170.659 95.9402L169.895 95.4159C170.9 94.8896 171.855 94.2625 172.746 93.5433C173.173 93.1313 173.031 92.1294 173.359 91.5208C173.919 90.5003 174.656 89.5733 175.349 88.5527C176.015 89.5452 176.193 91.3148 177.81 90.8841C178.059 90.8262 178.295 90.7169 178.503 90.5626C178.712 90.4084 178.89 90.2122 179.027 89.9853C183.579 99.2663 186.299 109.424 187.022 119.844C186.76 119.557 186.461 119.311 186.134 119.114C184.108 117.897 183.993 117.513 184.517 115.06C184.589 114.259 184.589 113.454 184.517 112.653L184.011 114.704C183.531 113.768 182.847 113.084 182.776 112.298C182.651 110.902 181.994 110.584 180.875 110.565C180.43 110.512 179.992 110.408 179.569 110.256L179.942 110.078C179.871 109.386 180.04 108.318 179.684 108.075C178.279 107.185 176.822 106.387 175.323 105.687L176.273 107.841L175.944 107.925L171.307 105.322L171.512 104.947L172.089 105.294L171.769 104.152C171.87 104.154 171.969 104.183 172.057 104.237C172.144 104.291 172.216 104.368 172.267 104.461C173.155 105.771 173.555 105.874 174.798 104.929C175.731 104.227 176.069 103.421 175.083 102.429C174.994 102.345 175.225 101.624 175.349 101.614C175.87 101.556 176.397 101.597 176.904 101.736C177.578 101.986 178.239 102.273 178.885 102.597C177.845 101.53 176.788 100.013 175.198 100.397Z" fill="#282929" fill-opacity="0.2"/>
<path d="M111.38 153.283C111.035 153.887 110.909 154.602 111.025 155.296C111.611 157.365 111.62 159.088 110.021 160.82C109.348 161.579 108.833 162.477 108.507 163.457C108.181 164.437 108.052 165.478 108.129 166.513C108.152 166.797 108.083 167.081 107.933 167.318C107.285 168.254 107.676 168.91 108.111 169.846C109.07 171.906 109.976 174.022 108.635 176.447C107.673 177.842 107.076 179.479 106.903 181.194C106.939 183.001 106.334 184.758 105.206 186.119C104.406 186.948 103.933 188.065 103.882 189.246C103.967 189.757 103.89 190.282 103.663 190.742C103.437 191.202 103.074 191.572 102.63 191.793C102.221 191.603 101.796 191.455 101.36 191.353C100.143 191.324 98.9307 191.189 97.7351 190.951C94.7325 190.014 93.2934 187.327 91.7299 184.762C91.4456 184.293 91.6233 183.516 91.5789 182.608C91.4012 182.505 90.9926 182.234 90.5573 182.018C90.2947 181.93 90.0525 181.784 89.8466 181.591C89.6406 181.398 89.4753 181.161 89.3615 180.896C89.2476 180.632 89.1877 180.345 89.1856 180.054C89.1835 179.764 89.2392 179.476 89.3492 179.209C89.4824 178.722 89.7045 178.273 89.8111 177.749C89.8822 177.468 89.9177 177.028 89.8111 176.887C88.8073 175.951 87.7146 175.015 86.7286 174.078C86.089 173.442 85.245 172.73 85.0851 171.915C84.9282 170.666 84.9884 169.397 85.2628 168.17C85.3872 167.337 85.9113 166.569 86.0534 165.736C86.1956 164.902 85.6359 163.77 86.5598 162.927C86.6753 162.824 86.6131 162.328 86.4798 162.131C84.9874 159.949 83.8148 157.384 81.8605 155.736C79.3109 153.564 78.0495 150.717 76.6459 147.862C76.3587 146.996 76.1912 146.091 76.1484 145.174C78.085 145.699 79.7995 146.204 81.5407 146.598C81.7266 146.606 81.9118 146.567 82.0804 146.484C82.249 146.401 82.396 146.276 82.509 146.12C82.7932 145.605 82.7577 144.847 83.0952 144.407C83.7349 143.583 84.5788 142.955 85.2806 142.188C85.6718 141.787 85.975 141.302 86.1689 140.764C86.7463 138.892 88.0611 137.441 88.2654 135.334C88.3898 134.042 89.5268 132.881 90.0421 131.589C90.7468 129.999 91.3696 128.371 91.9076 126.71C92.2985 125.484 92.9469 125.587 93.8708 125.849C94.5483 126.09 95.272 126.147 95.9762 126.018C97.3571 125.6 98.7154 125.103 100.045 124.529C101.244 124.051 102.195 124.604 102.301 125.877C102.381 126.813 102.754 127.291 103.589 126.645C104.424 125.999 106.068 126.345 106.37 124.697C106.37 124.641 106.69 124.697 106.832 124.613C108.093 124.042 109.817 124.772 110.518 123.358C110.181 122.291 109.896 121.392 109.577 120.409C110.161 120.273 110.755 120.188 111.353 120.156C112.881 120.212 114.418 120.269 115.937 120.484C117.019 120.636 118.079 120.931 119.091 121.364C120.708 122.066 122.262 122.684 123.71 121.458C124.297 122.309 124.997 123.065 125.789 123.705C126.248 123.945 126.633 124.316 126.9 124.777C127.167 125.237 127.306 125.768 127.299 126.308C127.299 128.021 128.187 128.62 129.458 129.042C129.785 129.137 130.072 129.345 130.275 129.632C131.03 130.933 131.794 132.253 132.443 133.611C132.904 134.547 133.74 135.399 132.896 136.794C132.469 137.835 132.438 139.007 132.807 140.072C133.188 141.466 133.3 142.928 133.135 144.369C133.135 144.678 132.825 144.978 132.611 145.249C132.398 145.521 132.132 145.643 131.963 145.895C131.262 147.123 130.488 148.302 129.644 149.425C128.676 150.398 127.652 151.308 126.58 152.15C126.3 152.407 125.955 152.573 125.588 152.628C125.221 152.682 124.846 152.624 124.51 152.459C123.406 152.237 122.284 152.124 121.161 152.122C120.729 152.1 120.3 152.031 119.881 151.916C119.029 151.536 118.157 151.207 117.27 150.933C116.381 150.727 115.164 150.137 114.756 151.551C114.383 152.824 113.699 152.777 112.73 152.684C112.477 152.67 112.224 152.717 111.99 152.821C111.756 152.925 111.548 153.082 111.38 153.283Z" fill="#282929" fill-opacity="0.2"/>
<path d="M167.221 72.4477C166.962 72.3626 166.714 72.2431 166.484 72.0919L164.316 73.6836L167.088 73.2623L167.15 73.7023L164.485 74.7416V76.1274L167.657 77.8315L166.2 79.0487C166.273 79.4508 166.273 79.8638 166.2 80.2659C165.196 82.4381 164.174 84.601 163.082 86.717C162.778 87.2614 162.343 87.7106 161.82 88.0185C161.072 88.4384 160.297 88.8044 159.502 89.114C158.915 89.3949 158.356 89.7039 158.178 88.6177C158 87.5316 157.743 86.5579 157.503 85.5279C157.458 85.3407 157.396 85.0785 157.263 85.0129C156.17 84.4137 155.975 83.4493 155.984 82.204C155.984 81.8108 155.344 81.0524 155.051 81.0805C152.901 81.2958 151.551 80.1441 150.387 78.4494C150.067 77.9813 149.499 77.4008 149.064 77.3727C146.248 77.1854 143.876 75.8559 141.371 74.339L144.737 73.9739L143.849 72.8129L141.184 73.9926C141.107 73.732 141.08 73.4577 141.105 73.1859C141.129 72.9141 141.206 72.6503 141.329 72.4103C141.453 72.1702 141.621 71.9586 141.823 71.7881C142.025 71.6176 142.258 71.4917 142.508 71.4178C143.662 70.9496 143.778 70.2942 143.183 69.4515H140.091L140.98 68.3935L138.999 68.0939L139.887 67.1575C138.341 66.0527 140.367 65.5003 140.242 64.667L138.324 64.5359C138.679 63.9741 138.874 63.3 139.265 63.1221C139.892 62.9562 140.54 62.9024 141.184 62.9629C139.407 60.154 136.378 59.2177 133.606 57.86C134.35 57.4363 135.172 57.1876 136.015 57.131C136.859 57.0745 137.704 57.2114 138.492 57.5323C139.926 57.9525 141.387 58.2654 142.863 58.4686C142.73 58.2533 142.463 57.7945 142.188 57.3263C142.756 57.3919 143.325 57.4761 143.893 57.5229C144.204 57.5229 144.524 57.5229 144.844 57.5229L144.888 56.9518L141.415 56.3338C142.596 55.9968 143.725 55.5192 144.862 55.2852C153.273 59.4729 160.858 65.2956 167.221 72.4477Z" fill="#282929" fill-opacity="0.2"/>
<path d="M176.61 85.4609L177.028 86.2193C176.753 86.313 176.468 86.416 176.14 86.5377L176.61 85.4609Z" fill="#282929" fill-opacity="0.2"/>
<path d="M172.578 79.248H172.623C172.848 79.5601 173.061 79.8723 173.262 80.1844L172.578 79.248Z" fill="#282929" fill-opacity="0.2"/>
<path d="M175.322 85.0444C175.219 84.5123 175.246 83.9611 175.402 83.4434C175.713 83.9396 176.006 84.4358 176.291 84.9415L175.322 85.0444Z" fill="#282929" fill-opacity="0.2"/>
<path d="M82.4733 178.263C82.9441 179.331 82.8109 181.372 82.0025 182.102C81.8194 182.275 81.5984 182.398 81.3593 182.46C81.1202 182.521 80.8704 182.52 80.6321 182.455C80.3937 182.39 80.1744 182.264 79.9934 182.088C79.8125 181.912 79.6757 181.692 79.5951 181.447C78.8223 178.769 78.1471 176.072 77.4364 173.376C77.3831 173.17 77.4364 172.907 77.3032 172.748C76.9987 172.252 76.8768 171.655 76.9602 171.071C77.0436 170.486 77.3267 169.954 77.7562 169.574C79.2398 170.745 79.3997 173.319 82.0647 173.188C82.0647 174.125 82.0114 174.949 82.0647 175.791C82.0669 176.634 82.2051 177.47 82.4733 178.263Z" fill="#282929" fill-opacity="0.2"/>
<path d="M118.105 92.5292C117.98 92.1828 117.67 91.6865 117.785 91.5367C117.978 91.3472 118.224 91.2289 118.487 91.1997C119.517 89.6922 120.423 88.3908 121.383 86.9957C120.601 85.535 120.628 84.9919 121.676 84.271C122.316 83.8309 123.781 84.4489 124.448 85.4507C124.758 85.9095 124.314 86.7709 123.159 87.9226L123.319 88.7934C123.097 88.7934 122.929 88.7934 122.84 88.8683C122.431 89.196 121.818 89.4769 121.694 89.9169C121.569 90.357 121.951 90.8532 122.582 90.5817C122.747 90.7075 122.866 90.8893 122.92 91.0967C122.947 91.655 122.947 92.2144 122.92 92.7727L121.809 93.1191L123.772 94.7015L118.442 93.812C118.309 93.1285 118.203 92.8008 118.105 92.5292Z" fill="#282929" fill-opacity="0.2"/>
<path d="M72.9862 64.4673C73.9809 65.6053 75.0495 66.669 76.1842 67.6507C74.7718 69.0927 72.9684 69.2893 70.7742 69.205C71.3783 68.7556 71.8758 68.5402 72.1068 68.1563C72.3377 67.7725 72.5154 67.0141 72.32 66.7519C71.3484 65.5156 70.1367 64.5131 68.7666 63.8119C69.2285 63.4374 69.6549 63.0628 70.1791 62.707C71.2688 62.9636 72.2523 63.5803 72.9862 64.4673Z" fill="#282929" fill-opacity="0.2"/>
<path d="M139.656 85.0523C139.134 85.1879 138.588 85.1879 138.066 85.0523C137.244 84.8257 136.469 84.4382 135.783 83.91C135.268 83.4606 134.095 83.0954 134.655 82.0374C135.202 81.2943 135.848 80.6383 136.574 80.0898L136.68 80.5486L140.713 81.5692L141.699 80.1835L141.539 80.6423L143.316 81.719L143.129 81.9625H141.237L142.952 82.8988L141.051 83.4793L142.01 84.2283C141.202 84.556 140.438 84.8744 139.656 85.0523Z" fill="#282929" fill-opacity="0.2"/>
<path d="M105.037 61.5622C104.149 60.8319 103.456 60.1858 102.692 59.6334C102.555 59.5601 102.402 59.522 102.248 59.522C102.094 59.522 101.942 59.5601 101.804 59.6334C101.582 59.7926 101.537 60.2139 101.378 60.5697H98.8013L98.748 60.0641L106.006 57.0117L105.562 58.051L109.879 57.6578L109.977 58.1353C109.432 58.6835 108.801 59.1272 108.111 59.4461C107.398 59.4935 106.683 59.3949 106.006 59.1559L105.961 59.5023L107.605 60.1296L107.543 60.3637L106.246 60.4948L107.134 60.9723L105.037 61.5622Z" fill="#282929" fill-opacity="0.2"/>
<path d="M124.226 89.9856C123.604 89.5923 123.506 89.0493 124.119 88.7216C124.732 88.3939 125.443 87.7853 126.144 88.7216C126.526 89.1804 126.979 89.5642 127.504 90.0792V92.2795L127.93 92.5043C127.699 92.7009 127.415 93.1129 127.246 93.066C126.281 92.8183 125.345 92.4572 124.457 91.9893C124.234 91.8582 124.403 90.9968 124.368 90.4818C124.359 90.2571 124.323 89.9856 124.226 89.9856Z" fill="#282929" fill-opacity="0.2"/>
<path d="M186.241 134.368C186.419 134.274 186.607 134.202 186.8 134.152C186.8 134.483 186.765 134.811 186.694 135.135C186.163 135.326 185.647 135.558 185.148 135.828C184.615 136.109 184.26 136.765 183.753 137.476L181.311 137.177C183.087 136.165 184.633 135.21 186.241 134.368Z" fill="#282929" fill-opacity="0.2"/>
<path d="M176.629 139.094C176.522 137.84 178.663 137.044 180.582 137.596L179.56 138.832L181.577 138.645C179.996 139.806 178.281 138.954 176.629 139.094Z" fill="#282929" fill-opacity="0.2"/>
<path d="M96.6074 57.1367H103.421C102.535 57.6356 101.578 57.9802 100.587 58.1573C99.2581 58.1755 97.9291 58.1098 96.6074 57.9607V57.1367Z" fill="#282929" fill-opacity="0.2"/>
<path d="M51.2299 151.082C50.8479 150.923 50.3416 150.146 50.4215 149.865C50.7945 148.973 51.2466 148.121 51.7718 147.318L52.1804 147.506C52.1804 148.367 52.1804 149.228 52.1804 150.08C52.1804 150.933 51.9939 151.382 51.2299 151.082Z" fill="#282929" fill-opacity="0.2"/>
<path d="M176.078 90.7227C176.078 90.7227 211.931 131.63 212.499 135.665C213.592 143.474 171.636 183.567 171.636 183.567L162.024 169.738L187.022 139.036L154.153 91.7339L176.078 90.7227Z" fill="#282929"/>
<path d="M111.175 106.008L112.063 106.382V108.789C110.553 108.704 111.246 107.422 110.944 106.729C110.864 106.57 111.086 106.27 111.175 106.008Z" fill="#282929" fill-opacity="0.2"/>
<path d="M146.531 99.7901L199.005 190.097L213.734 181.165L170.303 91.3633L146.531 99.7901Z" fill="#282929"/>
<path d="M171.618 184.023H171.565C171.504 184.016 171.445 183.995 171.391 183.963C171.338 183.931 171.291 183.888 171.254 183.836L161.651 169.997C161.589 169.914 161.556 169.812 161.556 169.707C161.556 169.601 161.589 169.499 161.651 169.417L186.4 139.015L153.789 92.0025C153.741 91.935 153.711 91.8547 153.703 91.7704C153.695 91.6861 153.71 91.6012 153.745 91.525C153.779 91.4484 153.833 91.3833 153.901 91.337C153.968 91.2907 154.047 91.2651 154.127 91.2628L176.042 90.2516C176.106 90.2456 176.17 90.2562 176.229 90.2823C176.288 90.3084 176.34 90.3493 176.38 90.4014C180.066 94.6055 212.349 131.533 212.917 135.578C213.388 138.977 206.61 148.153 192.761 162.862C182.581 173.742 172.018 183.808 171.92 183.901C171.881 183.942 171.833 183.974 171.781 183.995C171.729 184.016 171.674 184.025 171.618 184.023ZM162.575 169.744L171.681 182.853C183.558 171.486 212.917 141.852 212.056 135.709C211.665 132.9 190.265 107.62 175.891 91.1879L155.006 92.1243L187.342 138.734C187.407 138.815 187.443 138.918 187.443 139.024C187.443 139.13 187.407 139.233 187.342 139.314L162.575 169.744Z" fill="#282929"/>
<path d="M199.006 190.57C198.929 190.571 198.854 190.551 198.787 190.511C198.72 190.472 198.664 190.415 198.624 190.346L146.159 100.039C146.133 99.9753 146.119 99.9068 146.119 99.8375C146.119 99.7682 146.133 99.6997 146.159 99.6362C146.182 99.571 146.219 99.5121 146.267 99.4636C146.315 99.415 146.372 99.3781 146.434 99.3553L170.144 90.9285C170.244 90.8915 170.353 90.8938 170.451 90.9352C170.549 90.9765 170.629 91.054 170.677 91.1533L214.117 180.955C214.168 181.062 214.178 181.186 214.145 181.301C214.112 181.416 214.038 181.513 213.939 181.573L199.21 190.514C199.147 190.548 199.077 190.567 199.006 190.57ZM147.198 100.048L199.157 189.475L213.149 180.983L170.082 91.9397L147.198 100.048Z" fill="#282929"/>
<path d="M147.136 35.3301C147.136 35.3301 159.421 36.875 163.899 44.2344C168.376 51.5938 170.543 78.5969 172.809 80.6287C175.074 82.6605 181.319 92.988 181.221 93.4748C181.124 93.9617 145.11 103.1 145.11 103.1C145.11 103.1 143.627 94.3737 140.5 82.9788C137.373 71.5839 136.813 35.3394 147.136 35.3301Z" fill="url(#paint0_linear_2923_15633)"/>
<path d="M156.455 46.9841C156.712 47.3773 169.043 71.8712 169.043 71.8712L185.326 52.2087L193.872 59.6992C193.872 59.6992 179.303 85.3727 170.011 87.854C160.719 90.3352 142.055 54.5214 142.606 50.7761C143.156 47.0309 152.804 41.4599 156.455 46.9841Z" fill="url(#paint1_linear_2923_15633)"/>
<path d="M139.629 34.7474C135.898 34.7474 131.634 35.6181 129.689 38.942C129.053 40.0183 128.717 41.2605 128.717 42.5281C128.717 43.7956 129.053 45.0379 129.689 46.1141C130.358 47.1603 131.304 47.9762 132.41 48.4606C133.515 48.945 134.731 49.0765 135.907 48.8388C137.684 48.4268 139.185 47.1628 140.873 46.4044C143.28 45.3183 145.981 45.2995 148.539 44.7003C149.359 44.571 150.13 44.2085 150.769 43.6516C151.386 42.9803 151.735 42.0859 151.746 41.1517C152.11 34.4945 143.813 34.7474 139.629 34.7474Z" fill="url(#paint2_linear_2923_15633)"/>
<path d="M70.2591 175.611C70.2591 175.611 77.2948 151.651 76.3709 136.623C75.447 121.595 66.1461 120.5 62.9214 120.219C59.6967 119.938 42.6228 117.176 36.2179 125.116C29.813 133.056 18.5488 170.236 18.5488 170.236L70.2591 175.611Z" fill="url(#paint3_linear_2923_15633)"/>
<path d="M71.9647 124.076C75.8645 124.891 87.8838 165.405 82.3761 169.703C73.7858 176.407 47.5531 167.25 47.5531 167.25L50.2182 155.33C50.2182 155.33 69.1487 156.267 69.4951 152.184C69.8416 148.102 58.915 128.889 60.443 126.089C61.9709 123.29 71.9647 124.076 71.9647 124.076Z" fill="url(#paint4_linear_2923_15633)"/>
<path d="M106.281 109.93H108.689L108.76 110.22L106.557 111.634C106.459 110.997 106.361 110.426 106.281 109.93Z" fill="#282929" fill-opacity="0.2"/>
<path d="M191.329 46.7653L193.512 47.9219L203.746 26.4645L201.564 25.308L191.329 46.7653Z" fill="#282929"/>
<path d="M193.498 48.3938C193.43 48.4079 193.361 48.4079 193.293 48.3938L191.117 47.2328C191.064 47.2058 191.017 47.1682 190.979 47.122C190.94 47.0759 190.91 47.0221 190.891 46.9639C190.872 46.9056 190.864 46.8439 190.868 46.7824C190.872 46.7209 190.887 46.6608 190.913 46.6055L201.155 25.0985C201.18 25.0433 201.215 24.994 201.258 24.9535C201.301 24.913 201.352 24.8822 201.406 24.8629C201.461 24.8436 201.519 24.8363 201.577 24.8414C201.634 24.8465 201.691 24.8639 201.742 24.8925L203.9 26.0535C203.953 26.0803 204 26.118 204.038 26.1644C204.077 26.2108 204.106 26.2649 204.124 26.3234C204.143 26.382 204.149 26.4438 204.145 26.5052C204.14 26.5666 204.123 26.6263 204.096 26.6808L193.889 48.141C193.835 48.2513 193.742 48.3353 193.631 48.3751L193.498 48.3938ZM191.908 46.5212L193.302 47.2609L203.136 26.6621L201.742 25.9224L191.908 46.5212Z" fill="#282929"/>
<path d="M185.361 55.983C185.619 55.1497 190.869 48.427 191.064 46.9663C191.26 45.5057 190.087 39.4759 191.26 38.6426C192.433 37.8092 194.591 43.4458 194.591 43.4458C194.591 43.4458 199.184 34.6352 200.49 35.2063C201.796 35.7775 201.378 40.6556 200.65 43.6331C199.921 46.6105 191.589 61.2263 191.589 61.2263L185.361 55.983Z" fill="white"/>
<path d="M191.588 61.6752C191.489 61.6772 191.392 61.6443 191.313 61.5815L185.094 56.3569C185.025 56.2952 184.975 56.2135 184.95 56.1219C184.925 56.0304 184.926 55.933 184.952 55.842C185.54 54.7431 186.221 53.7026 186.987 52.7334C188.399 50.7204 190.54 47.6774 190.647 46.9002C190.663 46.0427 190.619 45.1852 190.513 44.3347C190.229 41.1981 190.105 38.9229 191.02 38.2581C191.134 38.1726 191.267 38.1171 191.406 38.0959C191.544 38.0747 191.686 38.0886 191.819 38.1364C192.867 38.4641 194.049 40.9453 194.662 42.3778C196.776 38.4079 199.379 34.2039 200.676 34.775C202.648 35.6364 201.511 42.0595 201.102 43.7355C200.347 46.7223 192.352 60.8512 191.97 61.4504C191.937 61.5078 191.893 61.5574 191.841 61.596C191.789 61.6347 191.73 61.6616 191.668 61.6752H191.588ZM185.921 55.8607L191.464 60.5422C192.876 58.0423 199.592 46.095 200.223 43.5201C201.111 40.0558 201.111 36.0297 200.321 35.6645C199.619 35.7207 196.98 39.8592 194.991 43.698C194.95 43.7763 194.889 43.8407 194.815 43.8839C194.741 43.927 194.657 43.947 194.573 43.9415C194.49 43.9328 194.41 43.9003 194.343 43.8475C194.275 43.7948 194.223 43.7237 194.191 43.6419C193.187 41.0389 191.952 39.0539 191.526 39.0539C190.957 39.4659 191.242 42.5932 191.384 44.2786C191.509 45.2087 191.554 46.1488 191.517 47.0875C191.393 48.0238 189.847 50.2709 187.688 53.342C187.022 54.2596 186.24 55.3457 185.921 55.8607Z" fill="#282929"/>
<path d="M208.182 178.137C208.182 178.137 214.738 190.365 214.285 190.421C213.832 190.477 203.341 193.736 203.341 193.736C203.341 193.736 197.167 183.811 197.256 183.558C197.345 183.305 208.182 178.137 208.182 178.137Z" fill="white"/>
<path d="M203.341 194.2C203.268 194.2 203.196 194.18 203.132 194.143C203.069 194.105 203.015 194.051 202.977 193.985C196.67 183.863 196.759 183.685 196.839 183.395C196.918 183.105 196.99 182.965 208.005 177.712C208.106 177.662 208.221 177.654 208.326 177.691C208.432 177.727 208.521 177.805 208.574 177.908C215.023 189.949 214.792 190.352 214.694 190.614C214.658 190.686 214.606 190.748 214.543 190.795C214.479 190.842 214.407 190.873 214.33 190.886C213.904 190.951 207.596 192.899 203.474 194.181L203.341 194.2ZM197.825 183.742C198.517 185.052 201.511 189.931 203.537 193.18C205.962 192.431 211.976 190.567 213.753 190.071C213.131 188.498 210.075 182.627 207.996 178.742C204.416 180.446 199.13 183.011 197.825 183.742Z" fill="#282929"/>
<path d="M214.285 190.417C214.285 190.417 232.052 189.396 232.94 192.729C233.829 196.063 207.596 204.564 207.596 204.564L203.332 193.731L214.285 190.417Z" fill="#282929"/>
<path d="M207.605 205.027C207.518 205.028 207.434 205.001 207.361 204.951C207.288 204.901 207.231 204.83 207.197 204.746L202.933 193.923C202.906 193.862 202.893 193.797 202.893 193.731C202.893 193.664 202.906 193.599 202.933 193.539C202.959 193.479 202.997 193.427 203.045 193.385C203.092 193.343 203.148 193.312 203.208 193.295L214.143 189.981H214.241C217.27 189.812 232.417 189.119 233.349 192.63C234.282 196.142 213.966 203.014 207.721 205.037C207.682 205.04 207.643 205.037 207.605 205.027ZM203.945 194.035L207.863 203.997C220.157 199.981 232.994 194.634 232.523 192.855C231.972 190.814 221.588 190.468 214.357 190.88L203.945 194.035Z" fill="#282929"/>
<path d="M170.953 180.392L166.431 185.673L158.223 176.572L164.814 169.287L170.953 180.392Z" fill="white"/>
<path d="M166.431 186.139C166.369 186.138 166.308 186.125 166.252 186.099C166.195 186.073 166.145 186.036 166.102 185.989L157.903 176.888C157.822 176.802 157.776 176.686 157.776 176.565C157.776 176.444 157.822 176.328 157.903 176.242L164.494 168.967C164.541 168.914 164.599 168.873 164.664 168.848C164.729 168.824 164.799 168.817 164.867 168.827C164.936 168.835 165.002 168.86 165.06 168.899C165.119 168.937 165.168 168.99 165.205 169.051L171.334 180.147C171.382 180.233 171.403 180.333 171.394 180.432C171.384 180.531 171.345 180.625 171.281 180.699L166.759 185.98C166.672 186.073 166.555 186.13 166.431 186.139ZM158.835 176.57L166.422 184.997L170.402 180.315L164.734 170.016L158.835 176.57Z" fill="#282929"/>
<path d="M166.43 185.671C166.43 185.671 172.355 204.519 169.246 204.266C166.137 204.014 151.391 184.379 151.391 184.379L158.222 176.57L166.43 185.671Z" fill="#282929"/>
<path d="M169.308 204.736H169.255C166.057 204.474 152.607 186.703 151.088 184.681C151.021 184.595 150.984 184.487 150.984 184.376C150.984 184.265 151.021 184.158 151.088 184.072L157.92 176.263C157.962 176.216 158.013 176.179 158.07 176.153C158.126 176.128 158.187 176.114 158.248 176.113C158.368 176.114 158.483 176.164 158.568 176.254L166.776 185.355C166.817 185.408 166.85 185.468 166.874 185.533C167.762 188.257 171.92 201.965 170.179 204.306C170.077 204.445 169.945 204.557 169.793 204.632C169.642 204.707 169.475 204.743 169.308 204.736ZM151.968 184.4C157.662 191.946 167.194 203.631 169.281 203.8C169.316 203.807 169.351 203.803 169.383 203.788C169.415 203.772 169.441 203.747 169.459 203.716C170.57 202.227 167.958 192.049 166.039 185.926L158.231 177.265L151.968 184.4Z" fill="#282929"/>
<path d="M200.019 152.02C199.937 152.022 199.857 152 199.786 151.958C199.716 151.915 199.658 151.852 199.619 151.777L174.967 102.152C174.932 102.083 174.914 102.006 174.914 101.928C174.914 101.849 174.932 101.772 174.967 101.703L177.57 96.7874C177.597 96.7335 177.634 96.6858 177.679 96.6471C177.724 96.6085 177.775 96.5796 177.831 96.5621C177.886 96.5447 177.944 96.5391 178.002 96.5456C178.059 96.5521 178.115 96.5706 178.165 96.6001C178.217 96.6295 178.262 96.6693 178.299 96.7173C178.336 96.7652 178.363 96.8204 178.38 96.8795C178.396 96.9387 178.402 97.0007 178.395 97.062C178.389 97.1233 178.371 97.1827 178.343 97.2368L175.856 101.918L200.401 151.327C200.454 151.438 200.465 151.567 200.43 151.686C200.395 151.805 200.318 151.904 200.214 151.964C200.153 151.996 200.087 152.015 200.019 152.02Z" fill="white"/>
<path d="M149.711 34.3916C147.419 33.9515 145.145 33.4084 142.907 32.753C141.272 32.2755 139.522 31.6388 138.634 30.122C140.1 29.4104 140.73 27.6314 141.228 26.021L144.559 15.1317C145.334 12.0855 146.531 9.17652 148.112 6.49894C149.303 4.6825 154.411 -0.673187 156.303 2.66007C158.453 0.909174 162.992 -0.364205 165.542 0.95599C166.994 1.76139 168.261 2.89062 169.257 4.26508C170.253 5.63954 170.952 7.2262 171.307 8.91461C171.737 11.721 171.607 14.591 170.925 17.3414C170.842 17.9057 170.674 18.4525 170.427 18.9612C169.974 19.6291 169.397 20.193 168.731 20.6185C164.07 24.1846 160.315 28.9052 157.795 34.3635C157.685 34.7513 157.445 35.0839 157.12 35.2998C156.864 35.3963 156.588 35.4189 156.321 35.3653C154.153 35.1219 151.914 34.8035 149.711 34.3916Z" fill="white"/>
<path d="M156.65 35.8243C156.516 35.8243 156.392 35.8243 156.276 35.8243C154.064 35.6089 151.835 35.2906 149.658 34.888C147.357 34.4573 145.048 33.8955 142.8 33.2401C141.024 32.7157 139.247 32.0135 138.279 30.4311C138.244 30.3751 138.221 30.3118 138.212 30.2454C138.202 30.1791 138.207 30.1115 138.225 30.0473C138.245 29.9842 138.276 29.926 138.317 29.8761C138.358 29.8262 138.409 29.7857 138.465 29.757C139.744 29.139 140.331 27.5286 140.819 25.9369L144.159 15.057C144.949 11.9609 146.173 9.00681 147.793 6.29311C148.788 4.77629 152.163 1.19023 154.633 1.19023H154.731C155.06 1.19921 155.383 1.28242 155.679 1.43425C155.974 1.58608 156.236 1.80299 156.445 2.07035C158.71 0.469267 163.072 -0.794747 165.782 0.600353C167.294 1.43896 168.614 2.61466 169.651 4.04568C170.688 5.4767 171.417 7.12867 171.787 8.88668C172.236 11.7607 172.105 14.702 171.405 17.5194C171.315 18.1343 171.129 18.7291 170.854 19.2797C170.407 19.9744 169.826 20.5616 169.148 21.0025L169.033 21.0868C164.417 24.5939 160.695 29.2477 158.195 34.6352C158.037 35.1077 157.721 35.5036 157.307 35.7494C157.096 35.8278 156.871 35.8534 156.65 35.8243ZM139.3 30.272C140.333 31.3173 141.633 32.0232 143.04 32.3038C145.261 32.9498 147.544 33.5022 149.809 33.9329C151.968 34.3449 154.171 34.6539 156.356 34.8692C156.546 34.9173 156.744 34.9173 156.934 34.8692C157.129 34.7756 157.271 34.4666 157.396 34.1951C159.96 28.6681 163.78 23.8949 168.518 20.3003L168.624 20.216C169.201 19.8458 169.7 19.3551 170.09 18.7741C170.31 18.3117 170.46 17.8156 170.534 17.3041C171.207 14.6128 171.337 11.8028 170.916 9.05522C170.579 7.43424 169.91 5.91052 168.956 4.59075C168.001 3.27099 166.784 2.18709 165.391 1.41494C163.099 0.235193 158.719 1.3494 156.614 3.06284C156.566 3.10452 156.511 3.13455 156.451 3.15074C156.391 3.16693 156.328 3.16889 156.268 3.15647C156.197 3.14815 156.129 3.1216 156.07 3.07915C156.011 3.0367 155.963 2.97966 155.93 2.91303C155.81 2.66494 155.629 2.45565 155.405 2.30731C155.181 2.15897 154.924 2.0771 154.66 2.07035H154.597C152.51 2.07035 149.347 5.45979 148.486 6.7519C146.91 9.39213 145.712 12.2633 144.932 15.2723L141.592 26.1522C141.192 27.6971 140.588 29.3825 139.3 30.272Z" fill="#282929"/>
<path d="M171.032 21.4004C171.032 21.4004 173.804 27.8328 172.862 28.8909C171.921 29.9489 169.54 28.7504 169.54 28.7504" fill="white"/>
<path d="M171.706 29.8238C170.889 29.7801 170.089 29.5636 169.352 29.1872C169.248 29.1309 169.168 29.034 169.13 28.917C169.092 28.8 169.098 28.6719 169.148 28.5598C169.174 28.5044 169.209 28.4549 169.253 28.414C169.297 28.3732 169.348 28.3419 169.403 28.3219C169.459 28.3019 169.517 28.2936 169.575 28.2975C169.634 28.3013 169.691 28.3173 169.743 28.3445C170.285 28.6254 171.964 29.2808 172.542 28.5879C172.941 28.1385 172.044 24.8427 170.632 21.5937C170.583 21.4807 170.58 21.3522 170.622 21.2364C170.663 21.1205 170.747 21.0268 170.854 20.9757C170.907 20.9493 170.964 20.9345 171.022 20.932C171.081 20.9295 171.139 20.9395 171.194 20.9614C171.249 20.9832 171.299 21.0165 171.341 21.0592C171.383 21.1019 171.417 21.1531 171.44 21.2098C172.328 23.2229 174.229 28.0449 173.217 29.2246C173.021 29.4331 172.784 29.5945 172.524 29.6979C172.263 29.8013 171.984 29.8443 171.706 29.8238Z" fill="#282929"/>
<path d="M171.422 13.5864C173.439 15.9739 172.133 20.075 171.698 22.8184C171.106 26.676 170.41 30.5179 169.61 34.3443C169.122 36.7694 163.099 35.8143 162.148 34.9061L161.482 43.0988C161.482 43.0988 159.394 47.3309 154.899 44.1475C150.404 40.964 149.765 37.5559 149.765 37.5559L151.843 26.4138C151.843 26.4138 155.814 27.1067 158.95 22.5094C162.086 17.9121 163.116 10.2344 163.116 10.2344C163.116 10.2344 169.45 11.255 171.422 13.5864Z" fill="white"/>
<path d="M158.044 45.7986C156.819 45.743 155.637 45.3028 154.651 44.5346C150.058 41.2856 149.321 37.7464 149.321 37.5966C149.303 37.5356 149.303 37.4703 149.321 37.4093L151.409 26.3141C151.434 26.1967 151.5 26.0934 151.593 26.0243C151.687 25.9551 151.802 25.9249 151.915 25.9395C152.066 25.9395 155.664 26.5107 158.56 22.1943C161.562 17.7468 162.628 10.2002 162.637 10.1253C162.645 10.0636 162.665 10.0043 162.695 9.95114C162.726 9.89795 162.767 9.85204 162.815 9.8163C162.861 9.77867 162.914 9.75103 162.97 9.73497C163.027 9.7189 163.086 9.71472 163.144 9.72266C163.41 9.72266 169.699 10.7994 171.752 13.2245C173.582 15.3873 172.924 18.7112 172.409 21.3797C172.302 21.904 172.205 22.4003 172.134 22.8497C171.529 26.6979 170.828 30.5743 170.046 34.3944C169.946 34.7959 169.741 35.1601 169.456 35.4461C169.17 35.7322 168.815 35.9289 168.429 36.0142C166.468 36.4897 164.419 36.3531 162.531 35.621L161.927 43.1114C161.917 43.1731 161.899 43.233 161.873 43.2893C161.262 44.4324 160.252 45.2789 159.057 45.6488C158.727 45.7413 158.387 45.7916 158.044 45.7986ZM150.218 37.4936C150.351 38.0179 151.258 41.0047 155.148 43.7575C155.66 44.191 156.254 44.5046 156.889 44.6773C157.525 44.8501 158.188 44.878 158.835 44.7593C159.761 44.4655 160.55 43.8177 161.047 42.9429L161.704 34.8625C161.712 34.7762 161.742 34.6936 161.791 34.624C161.84 34.5545 161.906 34.5007 161.983 34.4686C162.059 34.4366 162.143 34.4276 162.224 34.4426C162.305 34.4576 162.38 34.496 162.442 34.5536C162.966 35.0498 166.271 35.7989 168.154 35.1622C168.749 34.9562 169.095 34.6472 169.175 34.2259C169.948 30.4151 170.65 26.5481 171.254 22.7186C171.334 22.2505 171.432 21.7823 171.538 21.2112C172.018 18.7487 172.622 15.6776 171.085 13.8705C169.531 11.9979 164.867 11.0616 163.446 10.7526C163.161 12.5129 161.998 18.73 159.279 22.7561C156.561 26.7822 153.372 26.9414 152.173 26.8852L150.218 37.4936Z" fill="#282929"/>
<path d="M169.957 31.4498C169.957 31.4498 166.839 32.8168 165.791 29.4648L169.957 31.4498Z" fill="white"/>
<path d="M168.544 32.195C167.815 32.2173 167.101 31.9731 166.523 31.5038C165.945 31.0345 165.539 30.3691 165.373 29.6202C165.352 29.5611 165.343 29.4982 165.346 29.4354C165.349 29.3725 165.364 29.3109 165.39 29.2542C165.416 29.1976 165.453 29.147 165.498 29.1056C165.543 29.0643 165.595 29.0329 165.652 29.0133C165.709 28.9938 165.769 28.9865 165.828 28.992C165.888 28.9974 165.946 29.0155 165.998 29.045C166.051 29.0746 166.098 29.115 166.135 29.164C166.173 29.2129 166.201 29.2694 166.217 29.3299C166.309 29.6845 166.468 30.0158 166.685 30.3039C166.902 30.5919 167.172 30.8307 167.478 31.0059C168.215 31.2959 169.025 31.2959 169.761 31.0059C169.867 30.972 169.981 30.9808 170.081 31.0305C170.181 31.0803 170.259 31.1675 170.301 31.275C170.344 31.3826 170.346 31.5029 170.309 31.6124C170.271 31.7219 170.197 31.8128 170.099 31.8673C169.604 32.0739 169.077 32.1849 168.544 32.195Z" fill="#282929"/>
<path d="M163.641 22.6947C163.686 21.7144 163.467 20.7407 163.01 19.8857C162.759 19.1667 162.402 18.4938 161.953 17.8914C161.722 17.6002 161.435 17.3655 161.109 17.2038C160.784 17.0421 160.429 16.9572 160.07 16.9551C159.753 16.9829 159.445 17.0806 159.167 17.2419C158.888 17.4032 158.645 17.6245 158.453 17.8914C158.071 18.4469 157.816 19.0877 157.707 19.764C157.43 21.2064 157.516 22.7001 157.957 24.0964C158.398 25.4927 159.179 26.7429 160.221 27.7226L160.061 27.4605" fill="white"/>
<path d="M160.221 28.1965C160.116 28.1962 160.016 28.1563 159.937 28.0841C158.832 27.0483 158.004 25.7248 157.536 24.246C157.068 22.7672 156.977 21.1849 157.272 19.6573C157.399 18.9245 157.685 18.2325 158.107 17.6349C158.335 17.3096 158.626 17.04 158.962 16.8445C159.298 16.6489 159.67 16.5321 160.052 16.502C160.48 16.5003 160.903 16.6004 161.289 16.795C161.675 16.9895 162.014 17.2734 162.282 17.6255C162.76 18.2558 163.144 18.9601 163.419 19.7135C163.91 20.6541 164.138 21.7223 164.076 22.794C164.059 22.9151 163.997 23.0241 163.904 23.0977C163.811 23.1712 163.694 23.2033 163.579 23.1872C163.521 23.1804 163.464 23.1612 163.413 23.1308C163.362 23.1005 163.318 23.0596 163.282 23.0107C163.246 22.9617 163.22 22.9057 163.206 22.8459C163.191 22.7862 163.188 22.7239 163.197 22.6629C163.233 21.7668 163.03 20.8779 162.611 20.0974C162.367 19.4256 162.032 18.7948 161.616 18.2248C161.43 17.9862 161.199 17.7913 160.937 17.6526C160.675 17.5139 160.389 17.4345 160.097 17.4196C159.841 17.4475 159.594 17.531 159.371 17.6648C159.148 17.7985 158.953 17.9797 158.8 18.1967C158.469 18.6923 158.245 19.2578 158.142 19.854C157.897 21.1248 157.951 22.4396 158.3 23.6833C158.648 24.927 159.28 26.0619 160.141 26.9886C160.199 26.998 160.254 27.0204 160.303 27.0543C160.353 27.0882 160.394 27.1329 160.425 27.1853L160.594 27.4474C160.639 27.5182 160.666 27.6008 160.67 27.6861C160.674 27.7714 160.656 27.8563 160.617 27.9316C160.579 28.0068 160.522 28.0695 160.452 28.1129C160.382 28.1563 160.302 28.1787 160.221 28.1777V28.1965Z" fill="#282929"/>
<path d="M162.149 34.9085C162.149 34.9085 159.182 33.3636 158.071 30.873C158.071 30.873 157.387 36.7812 161.909 39.2998L162.149 34.9085Z" fill="#282929"/>
<path d="M161.908 39.757C161.837 39.7562 161.767 39.7369 161.704 39.7008C156.969 37.0791 157.618 30.8714 157.626 30.8152C157.64 30.714 157.683 30.6197 157.75 30.5457C157.817 30.4718 157.904 30.4219 158 30.4033C158.094 30.389 158.191 30.4066 158.275 30.4537C158.36 30.5008 158.428 30.5749 158.47 30.6654C159.501 32.9875 162.317 34.4762 162.343 34.4856C162.422 34.5271 162.487 34.5917 162.531 34.6714C162.575 34.7512 162.596 34.8427 162.592 34.935L162.352 39.3169C162.348 39.394 162.326 39.4687 162.287 39.5342C162.248 39.5997 162.194 39.6537 162.13 39.6914C162.064 39.7358 161.987 39.7586 161.908 39.757ZM158.506 32.4631C158.541 33.6421 158.83 34.7972 159.35 35.8417C159.87 36.8861 160.608 37.7926 161.508 38.493L161.686 35.1784C160.48 34.4825 159.402 33.5626 158.506 32.4631Z" fill="#282929"/>
<path d="M169.827 18.5407C170.061 17.8106 170.028 17.1397 169.753 17.0422C169.479 16.9448 169.067 17.4577 168.834 18.1878C168.6 18.9179 168.633 19.5888 168.908 19.6862C169.182 19.7837 169.594 19.2708 169.827 18.5407Z" fill="#282929"/>
<path d="M169.042 72.3444H168.997C168.925 72.3375 168.855 72.3117 168.795 72.2691C168.734 72.2266 168.685 72.1688 168.651 72.1009L157.484 49.9853C157.457 49.9307 157.439 49.8708 157.434 49.8091C157.428 49.7474 157.434 49.6851 157.451 49.6259C157.469 49.5667 157.497 49.5116 157.535 49.464C157.572 49.4165 157.619 49.3772 157.671 49.3486C157.775 49.2924 157.895 49.2815 158.007 49.3183C158.118 49.3551 158.211 49.4366 158.266 49.5453C158.399 49.7981 167.363 67.5411 169.131 71.0804L175.891 62.9345C175.932 62.8906 175.981 62.8558 176.035 62.832C176.089 62.8082 176.148 62.796 176.206 62.796C176.265 62.796 176.323 62.8082 176.377 62.832C176.431 62.8558 176.48 62.8906 176.522 62.9345C176.564 62.9765 176.598 63.0273 176.621 63.0836C176.644 63.14 176.656 63.2008 176.656 63.2622C176.656 63.3236 176.644 63.3844 176.621 63.4407C176.598 63.4971 176.564 63.5479 176.522 63.5899L169.379 72.2039C169.335 72.2506 169.282 72.2872 169.224 72.3113C169.166 72.3355 169.104 72.3468 169.042 72.3444Z" fill="#282929"/>
<path d="M170.143 87.9777C164.085 87.9777 157.893 82.2943 151.719 71.0399C151.674 70.9343 151.667 70.8147 151.701 70.7043C151.734 70.5939 151.806 70.5006 151.901 70.4423C151.996 70.3841 152.108 70.3651 152.215 70.389C152.323 70.4129 152.418 70.478 152.483 70.5717C158.941 82.3317 165.302 87.8372 171.422 86.9477C177.543 86.0583 184.312 73.8394 184.383 73.6803C184.413 73.6262 184.452 73.5789 184.498 73.541C184.545 73.5031 184.599 73.4754 184.656 73.4595C184.713 73.4436 184.772 73.4398 184.83 73.4484C184.889 73.4569 184.945 73.4777 184.996 73.5094C185.047 73.5411 185.091 73.5831 185.126 73.633C185.161 73.6829 185.186 73.7397 185.201 73.8001C185.215 73.8605 185.217 73.9232 185.208 73.9846C185.199 74.046 185.178 74.1049 185.147 74.1578C184.863 74.6727 178.041 86.929 171.547 87.8747C171.082 87.9463 170.613 87.9807 170.143 87.9777Z" fill="#282929"/>
<path d="M161.136 114.744C161.054 114.742 160.974 114.716 160.905 114.669C160.855 114.638 160.811 114.597 160.776 114.548C160.742 114.499 160.717 114.443 160.702 114.384C160.688 114.325 160.686 114.263 160.695 114.203C160.703 114.142 160.724 114.084 160.754 114.032C164.876 106.785 161.927 103.648 161.802 103.517C161.761 103.474 161.728 103.422 161.705 103.365C161.683 103.308 161.671 103.247 161.671 103.185C161.671 103.123 161.683 103.062 161.705 103.005C161.728 102.948 161.761 102.896 161.802 102.853C161.843 102.809 161.891 102.774 161.945 102.751C161.998 102.727 162.055 102.715 162.113 102.715C162.171 102.715 162.228 102.727 162.282 102.751C162.335 102.774 162.384 102.809 162.424 102.853C162.575 103.002 166.049 106.598 161.536 114.528C161.493 114.598 161.433 114.654 161.363 114.692C161.293 114.73 161.215 114.747 161.136 114.744Z" fill="white"/>
<path d="M139.754 47.4313C139.664 47.4328 139.577 47.4047 139.503 47.3509C139.43 47.2971 139.375 47.2205 139.345 47.1317C139.323 47.074 139.313 47.0123 139.315 46.9503C139.316 46.8884 139.329 46.8273 139.353 46.7707C139.377 46.714 139.411 46.663 139.454 46.6205C139.497 46.578 139.547 46.5449 139.602 46.5231C139.887 46.4201 146.656 43.8078 151.329 44.2198C151.387 44.2245 151.444 44.2414 151.496 44.2694C151.548 44.2974 151.595 44.336 151.633 44.383C151.671 44.43 151.699 44.4844 151.717 44.5432C151.735 44.602 151.742 44.6639 151.737 44.7254C151.733 44.787 151.717 44.847 151.69 44.902C151.664 44.957 151.627 45.0059 151.582 45.0459C151.538 45.086 151.486 45.1163 151.43 45.1352C151.375 45.1541 151.316 45.1612 151.258 45.1561C146.816 44.7535 139.976 47.3752 139.913 47.4033C139.862 47.4216 139.808 47.4311 139.754 47.4313Z" fill="#282929"/>
<path d="M206.033 79.5164H208.396C208.396 76.3329 208.547 71.8105 208.547 71.8105L213.078 79.5164H233.065C233.991 79.5164 234.879 79.904 235.534 80.5941C236.189 81.2842 236.557 82.2201 236.557 83.1961V95.7519C236.558 96.236 236.468 96.7155 236.293 97.163C236.118 97.6105 235.861 98.0173 235.537 98.3599C235.213 98.7026 234.828 98.9745 234.403 99.16C233.979 99.3455 233.525 99.441 233.065 99.441H206.033C205.574 99.441 205.119 99.3455 204.695 99.16C204.271 98.9745 203.886 98.7026 203.561 98.3599C203.237 98.0173 202.98 97.6105 202.805 97.163C202.63 96.7155 202.541 96.236 202.542 95.7519V83.1961C202.542 82.2201 202.91 81.2842 203.565 80.5941C204.219 79.904 205.107 79.5164 206.033 79.5164Z" fill="white"/>
<path d="M233.064 99.9109H206.032C204.987 99.9084 203.987 99.4693 203.249 98.6899C202.511 97.9106 202.097 96.8546 202.097 95.7537V83.1978C202.097 82.0977 202.511 81.0427 203.249 80.2648C203.987 79.4869 204.988 79.0499 206.032 79.0499H207.951C207.951 75.932 208.102 71.8403 208.102 71.7935C208.105 71.6938 208.138 71.5979 208.198 71.5201C208.257 71.4424 208.339 71.3872 208.431 71.3628C208.523 71.3356 208.622 71.341 208.712 71.3781C208.802 71.4153 208.878 71.4822 208.928 71.5688L213.325 79.0593H233.064C234.108 79.0593 235.109 79.4963 235.847 80.2742C236.585 81.052 237 82.107 237 83.2071V95.763C236.997 96.8623 236.582 97.9159 235.844 98.6933C235.107 99.4706 234.107 99.9084 233.064 99.9109ZM206.032 79.9862C205.225 79.9887 204.451 80.3278 203.88 80.9296C203.309 81.5313 202.987 82.3468 202.985 83.1978V95.7537C202.985 96.6063 203.306 97.4241 203.877 98.0279C204.448 98.6316 205.223 98.9721 206.032 98.9746H233.064C233.873 98.9721 234.648 98.6316 235.219 98.0279C235.79 97.4241 236.111 96.6063 236.111 95.7537V83.1978C236.109 82.3468 235.787 81.5313 235.216 80.9296C234.645 80.3278 233.872 79.9887 233.064 79.9862H213.077C213.001 79.986 212.927 79.9652 212.862 79.9258C212.796 79.8864 212.742 79.8298 212.703 79.7615L208.946 73.3759C208.901 74.9863 208.848 77.5237 208.839 79.5181C208.837 79.6415 208.789 79.7592 208.707 79.8465C208.624 79.9337 208.512 79.9838 208.395 79.9862H206.032Z" fill="#282929" fill-opacity="0.2"/>
<path d="M21.3551 73.3063H25.1306C25.1306 78.3905 25.3704 85.6188 25.3704 85.6188L32.6193 73.3063H64.5995C66.0815 73.3063 67.5027 72.6859 68.5506 71.5814C69.5985 70.4769 70.1872 68.9789 70.1872 67.417V47.3425C70.1872 45.7805 69.5985 44.2826 68.5506 43.1781C67.5027 42.0736 66.0815 41.4531 64.5995 41.4531H21.3551C19.8747 41.4556 18.4558 42.0772 17.4098 43.1814C16.3639 44.2856 15.7764 45.7822 15.7764 47.3425V67.417C15.7752 68.1899 15.9186 68.9555 16.1985 69.67C16.4783 70.3845 16.8891 71.0338 17.4072 71.5808C17.9254 72.1278 18.5408 72.5618 19.2182 72.8579C19.8956 73.1539 20.6218 73.3063 21.3551 73.3063Z" fill="white"/>
<path d="M25.3436 86.0903H25.2281C25.1364 86.0627 25.0552 86.0054 24.9962 85.9263C24.9371 85.8473 24.9033 85.7507 24.8994 85.6502C24.8994 85.5753 24.6863 78.7871 24.6596 73.7872H21.355C19.7568 73.7847 18.2248 73.1138 17.0956 71.9218C15.9663 70.7298 15.332 69.1141 15.332 67.4296V47.3458C15.332 45.6613 15.9663 44.0457 17.0956 42.8537C18.2248 41.6617 19.7568 40.9908 21.355 40.9883H64.5638C66.1628 40.9908 67.6957 41.6614 68.8264 42.8531C69.9571 44.0448 70.5933 45.6604 70.5957 47.3458V67.4203C70.5933 69.1056 69.9571 70.7213 68.8264 71.913C67.6957 73.1047 66.1628 73.7753 64.5638 73.7778H32.8679L25.7611 85.8749C25.7165 85.9472 25.6541 86.0054 25.5806 86.0433C25.5071 86.0812 25.4252 86.0975 25.3436 86.0903ZM21.355 41.9246C19.9924 41.9271 18.6864 42.4993 17.7237 43.5157C16.7611 44.5321 16.2204 45.9096 16.2204 47.3458V67.4203C16.2204 68.8564 16.7611 70.2339 17.7237 71.2503C18.6864 72.2668 19.9924 72.839 21.355 72.8415H25.1304C25.2475 72.8439 25.3592 72.894 25.442 72.9813C25.5248 73.0685 25.5723 73.1862 25.5746 73.3097C25.5746 76.9144 25.7078 81.6522 25.77 84.0585L32.2371 73.0662C32.2782 72.9984 32.3346 72.9424 32.4013 72.9032C32.4679 72.864 32.5428 72.8428 32.6191 72.8415H64.5994C65.9628 72.839 67.2697 72.2671 68.2338 71.2509C69.1978 70.2348 69.7405 68.8573 69.7428 67.4203V47.3458C69.7405 45.9088 69.1978 44.5313 68.2338 43.5152C67.2697 42.499 65.9628 41.9271 64.5994 41.9246H21.355Z" fill="#282929" fill-opacity="0.2"/>
<path d="M60.1321 128.375C59.3967 128.605 58.6492 128.789 57.8935 128.928C48.0418 130.8 37.0175 130.379 29.1379 123.862L30.2928 119.302L26.9348 122.411L22.4043 118.16C30.1329 111.69 31.1367 101.475 36.2091 93.2355C40.3399 86.5222 49.6586 86.026 56.1168 88.9004C60.6206 90.9303 64.2268 94.6844 66.2083 99.4058C68.3937 104.705 68.3226 110.716 67.8784 116.475C67.3721 122.945 65.4977 126.634 60.1321 128.375Z" fill="white"/>
<path d="M48.112 130.347C41.565 130.347 34.5293 128.887 28.8706 124.196C28.8017 124.14 28.7498 124.064 28.7214 123.978C28.6929 123.891 28.6892 123.798 28.7107 123.709L29.4924 120.638L27.2272 122.763C27.147 122.84 27.0424 122.883 26.934 122.883C26.8256 122.883 26.721 122.84 26.6408 122.763L22.1103 118.522C22.0607 118.477 22.0214 118.421 21.9952 118.357C21.9691 118.294 21.9568 118.226 21.9593 118.157C21.9589 118.088 21.974 118.019 22.0034 117.958C22.0327 117.896 22.0754 117.842 22.1281 117.801C26.8985 113.803 29.0216 108.438 31.278 102.764C32.5173 99.3687 34.0425 96.0973 35.8352 92.9887C39.0243 87.8016 47.277 84.4496 56.267 88.4757C60.8833 90.5579 64.5741 94.4146 66.5895 99.262C68.837 104.711 68.7393 110.797 68.2951 116.556C67.7444 123.718 65.488 127.164 60.2467 128.831C59.4932 129.062 58.728 129.25 57.9548 129.392C54.7076 130.02 51.4135 130.34 48.112 130.347ZM29.6434 123.7C38.0738 130.488 49.5956 130.057 57.8127 128.484C58.5528 128.345 59.2852 128.163 60.0069 127.941C64.8306 126.406 66.9093 123.194 67.4245 116.49C67.8598 110.872 67.9664 104.908 65.7989 99.6365C63.8717 95.0085 60.3465 91.3263 55.9383 89.3371C49.4623 86.4533 40.4457 87.2117 36.5814 93.4943C34.8204 96.551 33.3192 99.7656 32.0953 103.101C29.9632 108.485 27.7513 114.046 23.0875 118.166L26.934 121.771L29.9988 118.962C30.0702 118.892 30.1615 118.848 30.2588 118.838C30.356 118.828 30.4537 118.852 30.5366 118.906C30.6196 118.961 30.6832 119.043 30.7177 119.139C30.7521 119.235 30.7555 119.341 30.7272 119.439L29.6434 123.7Z" fill="#282929"/>
<path d="M20.0669 195.893C18.8143 195.893 9.48674 196.96 5.11611 199.254C0.745477 201.548 -0.213929 201.716 0.67441 204.806C1.56275 207.896 9.24689 208.654 15.101 207.484C18.8742 206.673 22.5137 205.281 25.9033 203.355L20.0669 195.893Z" fill="white"/>
<path d="M9.68271 208.431C5.31208 208.431 1.02139 207.447 0.301839 204.929C-0.586501 201.745 0.443974 201.184 3.95292 199.386L4.93898 198.871C9.38068 196.54 18.726 195.425 20.0408 195.472C20.0998 195.472 20.1581 195.485 20.2118 195.511C20.2655 195.537 20.3132 195.575 20.3517 195.622L26.197 203.112C26.2335 203.16 26.2596 203.216 26.2734 203.276C26.2872 203.336 26.2884 203.398 26.2769 203.459C26.2683 203.52 26.2461 203.578 26.2121 203.629C26.1782 203.679 26.1334 203.72 26.0815 203.749C22.657 205.702 18.9783 207.112 15.1638 207.934C13.355 208.277 11.5203 208.443 9.68271 208.431ZM19.8809 196.324C18.1042 196.38 9.38956 197.495 5.3032 199.639L4.30825 200.154C0.817078 201.961 0.364025 202.195 1.0747 204.685C1.86532 207.438 9.22966 208.225 15.0483 207.073C18.6151 206.297 22.0623 205.001 25.2908 203.225L19.8809 196.324Z" fill="#282929"/>
<path d="M18.8147 195.871C17.9942 196.083 17.2797 196.614 16.8138 197.356C16.3478 198.099 16.1646 199 16.3007 199.878C16.7093 203.156 23.283 203.296 23.665 203.305C24.047 203.315 18.8147 195.871 18.8147 195.871Z" fill="white"/>
<path d="M23.6563 203.732C22.4304 203.732 16.3275 203.414 15.8922 199.987C15.7511 199.002 15.9632 197.997 16.4872 197.168C17.0111 196.339 17.8093 195.745 18.726 195.502C18.8028 195.485 18.8827 195.49 18.9565 195.518C19.0304 195.547 19.0952 195.596 19.1435 195.661C24.2959 203.011 24.1804 203.255 24.0383 203.545C23.9949 203.608 23.937 203.658 23.8702 203.691C23.8034 203.723 23.7298 203.738 23.6563 203.732ZM18.6638 196.373C17.9945 196.6 17.4261 197.075 17.0649 197.711C16.7037 198.346 16.5742 199.099 16.7006 199.828C16.9937 202.206 21.32 202.73 23.0078 202.852C22.3149 201.682 20.4405 198.91 18.6638 196.373Z" fill="#282929"/>
<path d="M67.5576 203.376C67.7531 203.479 69.5386 205.932 77.3294 206.915C85.1201 207.898 87.9894 209.659 89.7661 205.342C91.5428 201.026 90.308 198.245 86.4704 197.009C82.6327 195.773 72.0437 194.753 69.965 196.813C67.8863 198.872 67.5576 203.376 67.5576 203.376Z" fill="white"/>
<path d="M85.938 208.547C84.5061 208.479 83.0809 208.301 81.6739 208.013C80.4036 207.798 78.9556 207.545 77.2855 207.339C74.0253 206.927 69.6725 205.981 67.3983 203.8L67.3272 203.734C67.2631 203.698 67.2115 203.641 67.1796 203.572C67.1477 203.503 67.1372 203.426 67.1496 203.35C67.1496 203.154 67.5138 198.669 69.6814 196.506C71.9822 194.221 82.8554 195.401 86.5598 196.599C87.3882 196.791 88.1681 197.168 88.8469 197.704C89.5256 198.241 90.0877 198.924 90.4951 199.708C91.1792 201.243 91.0459 203.2 90.1132 205.513C89.1804 207.826 87.919 208.547 85.938 208.547ZM67.9846 203.2C70.1078 205.204 74.2652 206.094 77.3833 206.487C79.0711 206.702 80.5191 206.955 81.825 207.17C86.4443 207.957 88.1766 208.256 89.4114 205.176C90.2464 203.097 90.3797 201.375 89.8022 200.073C89.442 199.4 88.9499 198.816 88.3587 198.359C87.7674 197.902 87.0906 197.583 86.3733 197.423C82.4734 196.169 72.1598 195.289 70.2677 197.133C68.5443 198.809 68.0735 202.348 67.9846 203.2Z" fill="#282929"/>
<path d="M65.0703 201.617C65.0703 201.617 68.6237 204.726 70.96 204.36C73.2963 203.995 76.5832 202.647 75.2685 199.95C73.9537 197.254 65.4967 195.662 65.4967 195.662L65.0703 201.617Z" fill="white"/>
<path d="M70.5698 204.816C68.1091 204.816 64.9466 202.063 64.8045 201.942C64.7554 201.897 64.7171 201.84 64.6924 201.777C64.6677 201.713 64.6574 201.645 64.6623 201.576L65.1065 195.621C65.11 195.563 65.1254 195.506 65.1514 195.455C65.1774 195.403 65.2136 195.358 65.2575 195.322C65.3028 195.286 65.3545 195.26 65.4094 195.246C65.4643 195.231 65.5214 195.229 65.5773 195.238C66.4657 195.406 74.2653 196.951 75.6245 199.751C75.8348 200.12 75.9539 200.539 75.971 200.969C75.9881 201.399 75.9025 201.827 75.7222 202.213C74.8338 204.086 71.9023 204.648 71.0228 204.779C70.8732 204.805 70.7216 204.818 70.5698 204.816ZM65.4885 201.408C66.1903 201.988 69.0418 204.217 70.9074 203.927C72.4353 203.683 74.4607 202.99 75.0026 201.81C75.1217 201.545 75.1751 201.252 75.1581 200.959C75.141 200.666 75.0539 200.383 74.9049 200.134C73.9632 198.206 68.4378 196.689 65.8794 196.155L65.4885 201.408Z" fill="#282929"/>
<path d="M22.5898 175.477C22.5898 175.477 26.312 190.814 39.9214 193.744C53.5307 196.675 60.5664 195.889 65.3901 186.207C70.2138 176.526 67.0157 170.608 67.0157 170.608L24.0734 169.672L22.5898 175.477Z" fill="#282929"/>
<path d="M51.1592 195.704C47.3458 195.59 43.5522 195.082 39.8329 194.187C26.1081 191.238 22.1905 175.742 22.1549 175.592C22.1372 175.512 22.1372 175.429 22.1549 175.349L23.6474 169.581C23.6716 169.48 23.728 169.39 23.8071 169.327C23.8863 169.264 23.9835 169.231 24.0826 169.235L67.025 170.171C67.1025 170.171 67.1786 170.193 67.2456 170.234C67.3126 170.275 67.3682 170.334 67.407 170.405C67.5402 170.658 70.6583 176.669 65.7813 186.463C62.3701 193.27 57.804 195.704 51.1592 195.704ZM23.0433 175.47C23.4253 176.875 27.485 190.573 40.0106 193.26C53.0781 196.069 60.1492 195.704 64.9996 185.976C69.1126 177.708 67.2293 172.221 66.7763 171.051L24.4557 170.18L23.0433 175.47Z" fill="#282929"/>
<path d="M44.8875 120.258L45.998 128.283C46.754 129.488 47.901 130.361 49.224 130.738C50.547 131.116 51.9551 130.972 53.1846 130.333C57.9817 128.226 58.0705 124.36 58.0705 124.36L55.7964 109.547C52.2075 105.695 49.7042 100.869 48.5653 95.6055C48.5653 95.6055 44.3279 103.396 38.1895 105.146C38.4119 108.677 38.9171 112.182 39.6996 115.624C40.7656 119.528 44.7632 120.212 44.8875 120.258Z" fill="white"/>
<path d="M50.5379 131.396C49.553 131.372 48.5881 131.099 47.724 130.6C46.8599 130.102 46.1219 129.392 45.572 128.53C45.5385 128.477 45.5172 128.416 45.5099 128.353L44.4439 120.647C43.2512 120.388 42.1447 119.801 41.2367 118.946C40.3287 118.091 39.6515 116.998 39.2737 115.778C38.4784 112.304 37.9672 108.764 37.7458 105.198C37.7403 105.09 37.7699 104.984 37.8298 104.897C37.8896 104.81 37.976 104.748 38.0745 104.72C43.9641 103.044 48.1393 95.4787 48.1838 95.357C48.2279 95.2756 48.2941 95.2101 48.374 95.1689C48.4538 95.1276 48.5435 95.1126 48.6316 95.1257C48.7196 95.1388 48.8019 95.1795 48.8677 95.2424C48.9336 95.3053 48.98 95.3877 49.001 95.4787C50.1192 100.631 52.5556 105.362 56.0456 109.158C56.1199 109.234 56.1697 109.332 56.1877 109.439L58.4619 124.251C58.4619 124.514 58.3197 128.54 53.3095 130.731C52.437 131.145 51.4946 131.371 50.5379 131.396ZM46.3715 128.118C47.0803 129.208 48.1403 129.989 49.3544 130.316C50.5685 130.643 51.854 130.494 52.9719 129.897C57.4136 127.941 57.5824 124.392 57.5824 124.354L55.3349 109.776C52.0166 106.147 49.6423 101.677 48.4414 96.7989C47.1266 98.9056 43.5466 103.943 38.6696 105.516C38.8907 108.89 39.381 112.238 40.1354 115.525C40.926 118.4 43.44 119.429 44.8614 119.785C44.9352 119.801 45.0068 119.826 45.0746 119.86C45.1318 119.896 45.1807 119.945 45.2176 120.003C45.2545 120.061 45.2785 120.128 45.2878 120.197L46.3715 128.118Z" fill="#282929"/>
<path d="M52.7852 109.772C52.8464 109.02 53.1397 108.31 53.6202 107.75C54.0883 107.253 54.6317 106.841 55.2281 106.533C55.5388 106.331 55.8874 106.203 56.2497 106.158C56.5059 106.159 56.7594 106.214 56.9959 106.317C57.576 106.503 58.0738 106.902 58.3995 107.441C58.6055 107.91 58.703 108.423 58.6837 108.939C58.7119 109.496 58.664 110.054 58.5416 110.596C58.4123 111.137 58.1824 111.646 57.8651 112.093C57.5478 112.539 57.1495 112.915 56.6933 113.198C56.2371 113.481 55.7321 113.666 55.2076 113.742C54.6831 113.818 54.1496 113.783 53.638 113.639" fill="white"/>
<path d="M54.6593 114.247C54.2754 114.245 53.8933 114.191 53.5223 114.087C53.4095 114.054 53.3136 113.976 53.2554 113.869C53.1972 113.762 53.1814 113.635 53.2113 113.516C53.2246 113.456 53.2494 113.399 53.2844 113.35C53.3194 113.3 53.3637 113.259 53.4145 113.228C53.4654 113.197 53.5217 113.178 53.58 113.171C53.6382 113.164 53.6972 113.17 53.7532 113.188C54.6735 113.432 55.6475 113.291 56.4715 112.795C57.2848 112.28 57.8747 111.45 58.115 110.483C58.2211 109.979 58.2658 109.463 58.2482 108.947C58.2668 108.508 58.1845 108.072 58.0084 107.674C57.7381 107.226 57.3256 106.894 56.8446 106.737C56.662 106.655 56.4659 106.61 56.2672 106.606C55.9732 106.648 55.6913 106.756 55.4411 106.925C54.8879 107.209 54.3836 107.589 53.9487 108.048C53.5365 108.531 53.284 109.142 53.2291 109.79C53.2157 109.912 53.1588 110.025 53.0697 110.105C52.9807 110.185 52.8662 110.226 52.7494 110.22C52.6323 110.208 52.5243 110.149 52.448 110.055C52.3718 109.96 52.3333 109.838 52.3408 109.715C52.4121 108.861 52.7458 108.056 53.2913 107.421C53.7894 106.88 54.3724 106.433 55.0147 106.101C55.3836 105.861 55.8 105.713 56.2317 105.67C56.5365 105.671 56.8382 105.735 57.12 105.857C57.8034 106.079 58.3872 106.555 58.7635 107.196C59.0039 107.731 59.1226 108.318 59.1099 108.91C59.1281 109.507 59.0744 110.105 58.95 110.689C58.7082 111.702 58.1518 112.6 57.3695 113.242C56.5872 113.883 55.6238 114.23 54.6327 114.228L54.6593 114.247Z" fill="#282929"/>
<path d="M45.9189 107.482C45.9189 107.482 43.7691 111.958 44.4709 112.595C45.1727 113.231 46.8694 112.529 46.8694 112.529" fill="white"/>
<path d="M45.3583 113.326C44.9377 113.351 44.5221 113.219 44.1857 112.951C43.3774 112.221 44.47 109.468 45.5182 107.277C45.5715 107.167 45.664 107.083 45.7755 107.045C45.8871 107.006 46.0085 107.016 46.1134 107.071C46.1661 107.098 46.2131 107.136 46.2516 107.182C46.2901 107.229 46.3193 107.283 46.3375 107.341C46.3558 107.4 46.3626 107.462 46.3577 107.523C46.3528 107.584 46.3362 107.644 46.3089 107.699C45.3317 109.74 44.621 111.875 44.7898 112.277C45.1096 112.549 46.1046 112.343 46.7086 112.099C46.8182 112.053 46.9406 112.055 47.0489 112.104C47.1571 112.153 47.2425 112.246 47.286 112.361C47.3296 112.477 47.3279 112.606 47.2813 112.72C47.2346 112.834 47.1469 112.924 47.0373 112.97C46.4993 113.182 45.9324 113.303 45.3583 113.326Z" fill="#282929"/>
<path d="M49.3043 107.397C49.6662 107.365 49.9259 106.906 49.8845 106.37C49.843 105.834 49.5161 105.424 49.1542 105.455C48.7924 105.487 48.5326 105.946 48.5741 106.482C48.6155 107.018 48.9425 107.428 49.3043 107.397Z" fill="#282929"/>
<path d="M42.5233 108.395C42.8853 108.366 43.1481 107.908 43.1102 107.372C43.0723 106.836 42.7481 106.424 42.386 106.452C42.024 106.481 41.7612 106.939 41.7991 107.475C41.837 108.011 42.1612 108.423 42.5233 108.395Z" fill="#282929"/>
<path d="M46.477 116.898C45.202 116.866 43.9447 116.576 42.7727 116.046C42.7193 116.02 42.6714 115.983 42.6318 115.937C42.5921 115.892 42.5615 115.838 42.5416 115.78C42.5218 115.721 42.5132 115.659 42.5162 115.597C42.5193 115.536 42.534 115.475 42.5594 115.419C42.5833 115.363 42.6176 115.313 42.6602 115.271C42.7028 115.229 42.7529 115.197 42.8076 115.176C42.8622 115.155 42.9203 115.146 42.9784 115.149C43.0365 115.152 43.0934 115.168 43.1458 115.194C43.1458 115.194 46.3349 116.702 48.5557 115.475C49.1481 115.101 49.6478 114.585 50.0138 113.968C50.3798 113.351 50.6016 112.651 50.6611 111.927C50.6823 111.802 50.7494 111.692 50.8477 111.62C50.946 111.548 51.0674 111.52 51.1852 111.543C51.303 111.565 51.4076 111.636 51.4759 111.739C51.5442 111.843 51.5707 111.971 51.5494 112.095C51.4671 112.962 51.1905 113.796 50.7427 114.529C50.2948 115.261 49.6884 115.871 48.9733 116.308C48.199 116.716 47.3422 116.918 46.477 116.898Z" fill="#282929"/>
<path d="M44.8877 120.26C44.8877 120.26 49.7824 120.691 52.3409 118.584C52.3409 118.584 50.1822 125.784 45.6428 125.765L44.8877 120.26Z" fill="#282929"/>
<path d="M45.6159 126.234C45.5076 126.233 45.4029 126.193 45.3201 126.119C45.2373 126.046 45.1816 125.944 45.1629 125.831L44.3989 120.335C44.3874 120.265 44.3916 120.193 44.4112 120.124C44.4308 120.056 44.4653 119.993 44.5119 119.942C44.5584 119.89 44.6159 119.85 44.6795 119.826C44.7432 119.801 44.8114 119.793 44.8786 119.801C44.923 119.801 49.6313 120.185 51.9854 118.21C52.0609 118.15 52.1528 118.117 52.2474 118.117C52.342 118.117 52.434 118.15 52.5095 118.21C52.5874 118.266 52.6464 118.348 52.6783 118.442C52.7102 118.536 52.7133 118.638 52.6871 118.734C52.625 119.015 50.413 126.234 45.6159 126.234ZM45.3583 120.766L45.9802 125.279C48.7962 125.007 50.6084 121.599 51.4079 119.661C49.4889 120.479 47.4265 120.855 45.3583 120.766Z" fill="#282929"/>
<path d="M52.137 159.385C48.9872 159.522 45.8327 159.296 42.7295 158.711C40.4378 158.076 38.0809 157.739 35.7116 157.709C32.5857 157.802 29.5 158.477 26.5972 159.703C26.4773 159.74 26.3696 159.811 26.2863 159.909C26.002 160.321 26.6505 160.724 27.1746 160.752C28.4249 160.808 29.6761 160.669 30.8879 160.34C27.8703 161.448 25.0078 162.978 22.3776 164.89C22.0844 165.106 21.7469 165.452 21.889 165.827C22.0311 166.201 22.6263 166.136 23.0172 165.958L29.8485 162.831C28.0809 163.537 26.4361 164.546 24.9804 165.817C24.7761 165.995 24.5451 166.248 24.5984 166.529C24.6873 167.007 25.3713 166.932 25.7888 166.716C27.875 165.685 29.8698 164.46 31.7496 163.055L27.4944 166.342C27.4411 166.707 27.7965 167.016 28.1429 167.035C28.489 167.019 28.8242 166.902 29.1112 166.698L33.8283 163.954L30.879 166.042C30.4171 166.37 29.8841 166.904 30.0973 167.447C30.3105 167.99 31.2432 167.915 31.8739 167.643C34.294 166.592 36.8176 165.829 39.3982 165.368C40.306 165.08 41.2417 164.901 42.1876 164.834C43.616 165.034 45.025 165.367 46.3983 165.827L52.6878 167.484" fill="white"/>
<path d="M30.8521 168.251C30.661 168.255 30.471 168.22 30.2925 168.148C30.165 168.093 30.0491 168.011 29.9515 167.908C29.854 167.806 29.7766 167.683 29.7239 167.549C29.6361 167.301 29.6361 167.029 29.7239 166.781L29.3331 167.006C28.9794 167.253 28.5668 167.389 28.1427 167.399C27.9831 167.388 27.8273 167.343 27.6852 167.265C27.543 167.188 27.4176 167.081 27.3165 166.95C27.2101 166.806 27.1426 166.635 27.1211 166.454C26.748 166.66 26.366 166.847 25.9929 167.034C25.789 167.151 25.5635 167.22 25.332 167.236C25.1004 167.252 24.8683 167.215 24.6515 167.128C24.5429 167.071 24.4485 166.988 24.376 166.885C24.3034 166.783 24.2548 166.664 24.234 166.538C24.2069 166.389 24.2146 166.235 24.2564 166.09C24.2982 165.945 24.3728 165.813 24.4739 165.705L23.2035 166.285C22.8258 166.471 22.3981 166.51 21.9954 166.397C21.8927 166.358 21.7993 166.295 21.7212 166.215C21.6431 166.134 21.5821 166.037 21.5423 165.929C21.3469 165.452 21.5423 164.927 22.1731 164.497C23.9333 163.224 25.7972 162.117 27.7429 161.192H27.1211C26.8749 161.184 26.6343 161.112 26.4205 160.983C26.2067 160.854 26.0263 160.672 25.8952 160.452C25.8363 160.327 25.8118 160.187 25.8244 160.048C25.8369 159.909 25.8861 159.776 25.9663 159.665C26.0954 159.504 26.2646 159.384 26.4549 159.319C29.4002 158.064 32.5354 157.375 35.7114 157.287C37.8078 157.293 39.8958 157.566 41.9297 158.102L42.8181 158.298C45.8957 158.872 49.0226 159.098 52.1456 158.972C52.2501 158.972 52.3505 159.016 52.4252 159.093C52.4999 159.17 52.5431 159.274 52.5454 159.384C52.5466 159.441 52.5372 159.497 52.5177 159.55C52.4983 159.603 52.4691 159.651 52.432 159.692C52.3949 159.733 52.3505 159.765 52.3014 159.788C52.2522 159.811 52.1993 159.823 52.1456 159.824C48.9657 159.957 45.7816 159.724 42.6493 159.132L41.761 158.944C39.78 158.418 37.7455 158.147 35.7025 158.139C32.6249 158.229 29.5869 158.895 26.7302 160.105H26.6503C26.7918 160.218 26.9619 160.283 27.1389 160.293C28.3358 160.347 29.5337 160.212 30.6922 159.89C30.7934 159.864 30.9004 159.879 30.9912 159.933C31.0821 159.987 31.1499 160.075 31.1808 160.18C31.2119 160.287 31.2025 160.402 31.1544 160.502C31.1063 160.602 31.0234 160.678 30.9232 160.714C27.9554 161.798 25.1405 163.3 22.555 165.18C22.2797 165.377 22.2086 165.536 22.2086 165.564C22.2086 165.592 22.4929 165.611 22.8038 165.47L28.0805 163.055C28.5958 162.793 29.1199 162.549 29.6529 162.334C29.7532 162.296 29.8634 162.301 29.9608 162.346C30.0582 162.391 30.1356 162.474 30.177 162.577C30.2154 162.682 30.2137 162.798 30.1722 162.901C30.1308 163.004 30.0528 163.086 29.9549 163.13L28.427 163.832C27.2685 164.437 26.1805 165.182 25.1845 166.051C24.9536 166.257 24.9447 166.351 24.9447 166.351C25.158 166.382 25.3753 166.343 25.5665 166.238C27.6262 165.214 29.5969 164.001 31.4562 162.615C31.5435 162.548 31.6523 162.521 31.7588 162.538C31.8652 162.556 31.9608 162.617 32.0247 162.708C32.0857 162.801 32.1104 162.915 32.0939 163.027C32.0774 163.138 32.0208 163.239 31.9359 163.308L28.0094 166.444C28.0631 166.499 28.1313 166.535 28.2049 166.547C28.4771 166.526 28.7384 166.425 28.96 166.257L33.6771 163.514C33.7685 163.461 33.8755 163.447 33.9762 163.475C34.0769 163.503 34.1637 163.57 34.2189 163.663C34.2754 163.758 34.2939 163.872 34.2706 163.981C34.2473 164.09 34.184 164.184 34.0946 164.244L31.1453 166.332C30.7811 166.594 30.4168 166.969 30.5146 167.268C30.5256 167.299 30.5434 167.327 30.5666 167.35C30.5897 167.373 30.6175 167.39 30.6478 167.399C31.0197 167.474 31.4045 167.414 31.7405 167.231C34.1871 166.161 36.7412 165.388 39.3535 164.927C39.6556 164.871 39.9576 164.787 40.2419 164.703C40.8826 164.49 41.5512 164.386 42.2229 164.394C43.2527 164.494 44.267 164.727 45.2432 165.087C45.6874 165.218 46.1316 165.358 46.5313 165.461L52.8208 167.128C52.8723 167.141 52.9209 167.165 52.9636 167.198C53.0063 167.231 53.0424 167.273 53.0697 167.32C53.097 167.368 53.1149 167.422 53.1225 167.477C53.1301 167.532 53.1272 167.589 53.1139 167.643C53.1026 167.698 53.0807 167.75 53.0496 167.795C53.0185 167.841 52.9788 167.88 52.9331 167.909C52.8873 167.938 52.8364 167.956 52.7834 167.964C52.7305 167.971 52.6767 167.967 52.6254 167.952L46.3359 166.294C45.9095 166.182 45.4476 166.042 45.0123 165.901C44.0947 165.569 43.1438 165.349 42.1785 165.246C41.5754 165.243 40.9758 165.341 40.4018 165.536C40.082 165.62 39.7711 165.705 39.4424 165.77C36.8917 166.222 34.3975 166.976 32.007 168.017C31.6381 168.166 31.2471 168.245 30.8521 168.251Z" fill="#282929"/>
<path d="M38.1894 128.549C37.1234 129.644 34.1563 147.144 33.0459 155.412L38.1894 128.549Z" fill="white"/>
<path d="M33.0464 155.835H32.9842C32.9315 155.828 32.8807 155.81 32.8346 155.783C32.7886 155.755 32.7482 155.717 32.716 155.673C32.6837 155.629 32.6602 155.578 32.6468 155.524C32.6334 155.47 32.6303 155.413 32.6378 155.358C33.4639 149.281 36.5998 129.581 37.9056 128.205C37.9414 128.156 37.9866 128.117 38.0381 128.088C38.0896 128.06 38.1462 128.043 38.2043 128.04C38.2624 128.036 38.3204 128.046 38.3747 128.068C38.429 128.09 38.4781 128.124 38.5189 128.168C38.5597 128.211 38.5912 128.264 38.6113 128.321C38.6314 128.379 38.6395 128.44 38.6353 128.501C38.6311 128.562 38.6145 128.622 38.5867 128.676C38.5589 128.729 38.5206 128.776 38.4742 128.813C37.5858 129.834 34.6987 146.126 33.4462 155.433C33.4395 155.54 33.3947 155.641 33.3207 155.716C33.2467 155.791 33.1488 155.833 33.0464 155.835Z" fill="#282929"/>
<path d="M61.8194 171.613H61.7661L52.5985 169.74C52.4972 169.723 52.4052 169.668 52.3386 169.586C52.2719 169.503 52.235 169.399 52.2343 169.291L52.1543 157.671C52.1539 157.553 52.1958 157.44 52.2716 157.353C52.3474 157.266 52.4514 157.213 52.5629 157.203L69.1216 155.752L62.3525 129.18C62.3226 129.058 62.3394 128.929 62.3992 128.82C62.4591 128.711 62.5572 128.632 62.6723 128.599C62.7288 128.584 62.7878 128.58 62.8456 128.589C62.9035 128.597 62.9592 128.618 63.0096 128.649C63.0599 128.68 63.1039 128.722 63.139 128.771C63.1741 128.82 63.1996 128.876 63.2141 128.936L70.1254 156.089C70.1395 156.156 70.1402 156.225 70.1273 156.292C70.1143 156.359 70.0882 156.422 70.0505 156.478C70.0127 156.534 69.9643 156.58 69.9084 156.615C69.8524 156.65 69.7902 156.671 69.7257 156.679L53.0515 158.14L53.1226 168.935L61.9349 170.724C62.0527 170.736 62.161 170.797 62.236 170.894C62.311 170.99 62.3465 171.114 62.3347 171.238C62.3229 171.363 62.2648 171.477 62.1732 171.556C62.0815 171.635 61.9639 171.672 61.8461 171.66L61.8194 171.613Z" fill="#282929"/>
<path d="M10.8201 174.628L2.84277 152.129L35.4093 152.803L42.7204 178.467L10.8201 174.628Z" fill="white"/>
<path d="M42.7196 178.939H42.6663L10.766 175.1C10.6844 175.092 10.6067 175.06 10.5421 175.006C10.4775 174.953 10.4288 174.882 10.4018 174.8L2.40676 152.329C2.37954 152.258 2.37014 152.181 2.37948 152.106C2.38883 152.03 2.41659 151.959 2.46006 151.898C2.49566 151.829 2.55054 151.773 2.61727 151.738C2.68399 151.703 2.75936 151.69 2.83317 151.701L35.3997 152.375C35.4943 152.377 35.5858 152.411 35.6609 152.472C35.736 152.533 35.7908 152.617 35.8172 152.713L43.1194 178.367C43.142 178.442 43.1466 178.521 43.1326 178.598C43.1186 178.675 43.0866 178.747 43.0394 178.807C42.9523 178.892 42.8381 178.939 42.7196 178.939ZM11.1303 174.191L42.0889 177.937L35.1154 153.265L3.51719 152.61L11.1303 174.191Z" fill="#282929"/>
<path d="M12.5516 174.835C12.5516 174.835 3.71261 182.4 6.83957 189.338C9.96653 196.276 66.3583 204.198 66.3583 204.198L68.9079 195.134C68.9079 195.134 24.6419 171.296 12.5516 174.835Z" fill="#282929"/>
<path d="M66.3849 204.675H66.3316C64.0131 204.347 9.63779 196.632 6.43977 189.544C3.24175 182.456 11.9031 174.797 12.2762 174.479C12.3236 174.44 12.378 174.411 12.4361 174.394C24.553 170.836 67.3177 193.748 69.1299 194.722C69.2241 194.77 69.2989 194.852 69.3412 194.953C69.3834 195.055 69.3904 195.168 69.3609 195.274L66.8113 204.338C66.7858 204.436 66.73 204.522 66.6528 204.583C66.5756 204.644 66.4814 204.676 66.3849 204.675ZM12.7647 175.265C11.9475 175.996 4.44101 182.943 7.23928 189.141C9.70886 194.6 50.2172 201.416 66.0651 203.692L68.4015 195.387C64.3329 193.224 24.1355 172.119 12.7647 175.265Z" fill="#282929"/>
<path d="M71.8673 171.353C71.8673 171.353 28.01 190.08 17.1367 194.976L23.4617 205.276C23.4617 205.276 63.9611 204.443 75.5717 193.712C87.1823 182.982 86.4095 165.146 71.8673 171.353Z" fill="#282929"/>
<path d="M23.4608 205.755C23.3865 205.755 23.3134 205.735 23.2482 205.698C23.1831 205.66 23.1279 205.606 23.0877 205.54L16.7628 195.24C16.726 195.185 16.702 195.122 16.6928 195.055C16.6835 194.989 16.6892 194.92 16.7095 194.857C16.7257 194.79 16.7566 194.727 16.7998 194.675C16.8431 194.623 16.8973 194.583 16.9582 194.557C27.7071 189.688 71.2358 171.149 71.6977 170.934C76.8678 168.724 80.9453 169.361 82.8819 172.666C86.2754 178.471 81.9936 188.424 75.864 194.089C70.9782 198.602 60.6645 201.935 45.2163 204.004C33.7478 205.54 23.5674 205.765 23.4697 205.765L23.4608 205.755ZM17.7932 195.194L23.6918 204.81C27.103 204.716 64.3867 203.433 75.2777 193.377C82.5266 186.673 84.6764 177.507 82.1268 173.153C80.4123 170.222 76.7968 169.745 72.0353 171.795C71.6 171.973 29.2972 190.006 17.7932 195.194Z" fill="#282929"/>
<path d="M10.6604 165.644C10.6146 165.911 10.5078 166.162 10.3494 166.375L9.46111 167.714C9.48688 167.573 9.54313 167.44 9.62551 167.325C9.70789 167.21 9.81419 167.117 9.93616 167.053C10.0581 166.989 10.1925 166.955 10.3289 166.954C10.4653 166.954 10.6 166.986 10.7226 167.049C10.9661 167.185 11.1684 167.391 11.3066 167.643C11.4448 167.894 11.5133 168.182 11.5043 168.472C11.4864 169.052 11.3564 169.623 11.1223 170.148C10.5182 171.805 9.15019 174.23 7.16031 172.957C5.81891 172.105 5.44581 169.09 5.25037 167.601C4.87727 164.643 5.73008 160.86 9.32786 161.44C9.22307 162.892 8.7096 164.278 7.85321 165.42C8.46616 164.83 10.8292 163.903 10.6604 165.644Z" fill="white"/>
<path d="M8.27925 173.751C7.82219 173.741 7.37662 173.598 6.99115 173.339C5.48986 172.403 5.09899 169.36 4.89467 167.721C4.64594 165.849 4.89467 163.339 6.19165 161.963C6.61586 161.538 7.13296 161.231 7.69705 161.067C8.26113 160.904 8.85475 160.89 9.42521 161.027C9.52725 161.043 9.61968 161.099 9.68395 161.184C9.74821 161.269 9.77955 161.377 9.77166 161.485C9.69727 162.464 9.44386 163.418 9.02545 164.294C9.49091 164.12 9.9991 164.12 10.4646 164.294C10.6921 164.415 10.875 164.612 10.9844 164.855C11.0938 165.097 11.1235 165.371 11.0686 165.633C11.026 165.973 10.9005 166.296 10.7044 166.57L10.9176 166.644C11.2338 166.812 11.4983 167.071 11.6807 167.391C11.863 167.711 11.9558 168.078 11.9481 168.452C11.9327 169.098 11.7937 169.735 11.5395 170.324C11.1575 171.363 10.3224 173.133 8.97215 173.657C8.74778 173.729 8.51356 173.761 8.27925 173.751ZM8.66123 161.822C8.31161 161.809 7.96296 161.87 7.63626 162.002C7.30956 162.133 7.01156 162.334 6.76019 162.59C5.64976 163.742 5.48097 165.914 5.69417 167.562C5.87184 168.995 6.24495 171.869 7.40867 172.609C7.59541 172.746 7.8095 172.835 8.03439 172.871C8.25928 172.907 8.48895 172.887 8.70565 172.815C9.46074 172.543 10.2336 171.485 10.7844 170.006C10.9925 169.532 11.1103 169.02 11.1308 168.498C11.1403 168.29 11.0956 168.084 11.0017 167.9C10.9078 167.717 10.7681 167.565 10.5978 167.459C10.5262 167.427 10.4491 167.41 10.3713 167.41C10.2934 167.41 10.2164 167.427 10.1448 167.459L9.83384 167.955C9.78116 168.033 9.70584 168.091 9.61928 168.12C9.53273 168.148 9.43965 168.146 9.35414 168.114C9.26854 168.082 9.19583 168.019 9.14754 167.938C9.09925 167.857 9.07817 167.761 9.08763 167.665C9.10704 167.496 9.16071 167.333 9.24501 167.188C9.3293 167.042 9.44226 166.918 9.57622 166.822L10.0115 166.139C10.1278 165.98 10.2125 165.799 10.2602 165.605C10.2602 165.212 10.1625 165.146 10.1181 165.128C9.77153 165.082 9.41965 165.112 9.08476 165.217C8.74987 165.321 8.43928 165.498 8.17264 165.736C8.09834 165.811 7.99976 165.852 7.89726 165.852C7.79476 165.852 7.69618 165.811 7.62188 165.736C7.5449 165.663 7.49678 165.561 7.48692 165.452C7.47706 165.343 7.50618 165.234 7.56857 165.146C8.29543 164.184 8.76197 163.032 8.91885 161.813L8.66123 161.822Z" fill="#282929"/>
<path d="M22.9635 193.04C22.8713 193.04 22.7814 193.01 22.7054 192.955C22.6294 192.9 22.5708 192.822 22.5371 192.731C22.4932 192.612 22.4957 192.479 22.5439 192.362C22.5921 192.245 22.6822 192.152 22.7947 192.104C23.0345 192.01 46.3002 182.516 51.3371 179.258C51.3882 179.215 51.4475 179.184 51.5108 179.167C51.5742 179.15 51.6402 179.148 51.7045 179.16C51.7689 179.172 51.8301 179.198 51.8841 179.237C51.9381 179.275 51.9837 179.326 52.0179 179.385C52.0521 179.443 52.0741 179.509 52.0824 179.577C52.0907 179.646 52.0852 179.715 52.0661 179.781C52.0471 179.847 52.0151 179.908 51.9721 179.96C51.9291 180.011 51.8762 180.053 51.8168 180.082C46.7088 183.387 24.0917 192.619 23.1323 193.012C23.0777 193.031 23.0208 193.04 22.9635 193.04Z" fill="white"/>
<path d="M64.0136 49.8875H24.6424C24.5246 49.8875 24.4116 49.8382 24.3283 49.7504C24.245 49.6626 24.1982 49.5435 24.1982 49.4193C24.1982 49.2952 24.245 49.1761 24.3283 49.0883C24.4116 49.0005 24.5246 48.9512 24.6424 48.9512H64.0136C64.1314 48.9512 64.2444 49.0005 64.3277 49.0883C64.411 49.1761 64.4578 49.2952 64.4578 49.4193C64.4578 49.5435 64.411 49.6626 64.3277 49.7504C64.2444 49.8382 64.1314 49.8875 64.0136 49.8875Z" fill="#282929" fill-opacity="0.2"/>
<path d="M64.0127 57.6121H24.6414C24.5236 57.6121 24.4107 57.5628 24.3274 57.475C24.2441 57.3872 24.1973 57.2681 24.1973 57.1439C24.1973 57.0198 24.2441 56.9007 24.3274 56.8129C24.4107 56.7251 24.5236 56.6758 24.6414 56.6758H64.0127C64.1305 56.6758 64.2435 56.7251 64.3267 56.8129C64.41 56.9007 64.4568 57.0198 64.4568 57.1439C64.4568 57.2681 64.41 57.3872 64.3267 57.475C64.2435 57.5628 64.1305 57.6121 64.0127 57.6121Z" fill="#282929" fill-opacity="0.2"/>
<path d="M54.8196 65.3406H24.616C24.4982 65.3406 24.3853 65.2913 24.302 65.2035C24.2187 65.1157 24.1719 64.9966 24.1719 64.8725C24.1719 64.7483 24.2187 64.6292 24.302 64.5414C24.3853 64.4536 24.4982 64.4043 24.616 64.4043H54.8196C54.9374 64.4043 55.0504 64.4536 55.1337 64.5414C55.217 64.6292 55.2638 64.7483 55.2638 64.8725C55.2638 64.9966 55.217 65.1157 55.1337 65.2035C55.0504 65.2913 54.9374 65.3406 54.8196 65.3406Z" fill="#282929" fill-opacity="0.2"/>
<path d="M217.546 95.7711C217.478 95.7689 217.412 95.753 217.35 95.7243C217.276 95.6849 217.214 95.6247 217.17 95.5504C217.126 95.4761 217.102 95.3905 217.102 95.303V84.0673C217.101 83.9842 217.122 83.9027 217.163 83.8316C217.204 83.7605 217.263 83.7027 217.333 83.6647C217.401 83.6208 217.479 83.5977 217.559 83.5977C217.639 83.5977 217.717 83.6208 217.786 83.6647L225.496 88.7863C225.558 88.8256 225.608 88.8805 225.644 88.946C225.68 89.0114 225.699 89.0853 225.701 89.1608C225.704 89.2367 225.69 89.3124 225.659 89.3811C225.628 89.4497 225.581 89.5092 225.523 89.5541L217.812 95.6307C217.743 95.7105 217.648 95.7605 217.546 95.7711ZM217.99 84.9568V94.3667L224.475 89.2638L217.99 84.9568Z" fill="#282929" fill-opacity="0.2"/>
<defs>
<linearGradient id="paint0_linear_2923_15633" x1="12.0005" y1="-11.001" x2="199" y2="197.499" gradientUnits="userSpaceOnUse">
<stop stop-color="#FFB11B"/>
<stop offset="1" stop-color="#FF441B"/>
</linearGradient>
<linearGradient id="paint1_linear_2923_15633" x1="12.0005" y1="-11.001" x2="199" y2="197.499" gradientUnits="userSpaceOnUse">
<stop stop-color="#FFB11B"/>
<stop offset="1" stop-color="#FF441B"/>
</linearGradient>
<linearGradient id="paint2_linear_2923_15633" x1="12.0005" y1="-11.001" x2="199" y2="197.499" gradientUnits="userSpaceOnUse">
<stop stop-color="#FFB11B"/>
<stop offset="1" stop-color="#FF441B"/>
</linearGradient>
<linearGradient id="paint3_linear_2923_15633" x1="12.0005" y1="-11.001" x2="199" y2="197.499" gradientUnits="userSpaceOnUse">
<stop stop-color="#FFB11B"/>
<stop offset="1" stop-color="#FF441B"/>
</linearGradient>
<linearGradient id="paint4_linear_2923_15633" x1="12.0005" y1="-11.001" x2="199" y2="197.499" gradientUnits="userSpaceOnUse">
<stop stop-color="#FFB11B"/>
<stop offset="1" stop-color="#FF441B"/>
</linearGradient>
</defs>
</svg>
