<svg width="332" height="170" viewBox="0 0 332 170" fill="none" xmlns="http://www.w3.org/2000/svg">
<g clip-path="url(#clip0_2782_16743)">
<path d="M148.66 70.8314C148.66 70.8314 149.426 59.3555 148.66 56.1821C147.894 53.0088 143.287 45.3249 141.755 45.8837C140.223 46.4425 140.029 48.6978 141.755 51.6915C141.755 51.6915 131.969 43.9178 128.231 44.0575C124.492 44.1972 122.388 48.8874 122.96 51.1327C123.532 53.378 132.153 57.2698 132.746 59.116C133.338 60.9621 134.85 73.9349 134.85 73.9349" fill="white"/>
<path d="M134.87 74.477C134.745 74.4758 134.625 74.4307 134.531 74.3502C134.438 74.2696 134.377 74.1588 134.359 74.0379C134.359 73.9082 132.827 61.135 132.317 59.2988C132.092 58.5703 129.814 57.1034 127.986 55.9259C125.36 54.2195 122.878 52.6128 122.531 51.2457C122.399 50.3083 122.462 49.3543 122.719 48.4417C122.975 47.5291 123.419 46.6769 124.022 45.9368C124.497 45.2576 125.121 44.6908 125.85 44.2781C126.578 43.8654 127.392 43.6172 128.231 43.5518C131.203 43.4421 137.424 47.8029 140.437 50.0283C140.001 48.9997 139.929 47.8581 140.233 46.7851C140.34 46.4725 140.518 46.1874 140.753 45.9508C140.988 45.7142 141.275 45.5321 141.591 45.4179C141.76 45.3644 141.939 45.3474 142.116 45.368C142.292 45.3887 142.462 45.4466 142.613 45.5377C144.727 46.6354 148.496 53.3014 149.16 56.0656C149.937 59.2789 149.16 70.3856 149.16 70.8546C149.158 70.9206 149.142 70.9854 149.113 71.0452C149.084 71.1049 149.043 71.1583 148.992 71.2021C148.942 71.246 148.883 71.2793 148.818 71.3002C148.754 71.3211 148.686 71.3291 148.619 71.3236C148.485 71.3134 148.361 71.2522 148.273 71.1532C148.185 71.0543 148.141 70.9255 148.149 70.7947C148.149 70.675 148.895 59.3587 148.149 56.2951C147.322 52.8523 142.94 46.2063 141.908 46.316C141.733 46.3845 141.575 46.4897 141.447 46.6242C141.318 46.7587 141.221 46.9192 141.162 47.0944C140.795 48.0923 141.162 49.6491 142.184 51.4153C142.242 51.5149 142.263 51.6315 142.243 51.7447C142.222 51.8578 142.162 51.9603 142.071 52.0341C141.98 52.1087 141.864 52.1496 141.745 52.1496C141.625 52.1496 141.51 52.1087 141.418 52.0341C138.742 49.8985 131.203 44.4001 128.241 44.5098C127.546 44.568 126.874 44.7774 126.273 45.1228C125.672 45.4682 125.158 45.9407 124.768 46.5056C123.741 47.7671 123.268 49.3745 123.45 50.9763C123.706 51.9742 126.351 53.6806 128.486 55.0577C131.224 56.834 132.919 57.9816 133.226 58.9895C133.798 60.9055 135.269 73.3593 135.35 73.8882C135.365 74.0203 135.326 74.1526 135.242 74.257C135.158 74.3614 135.036 74.4296 134.901 74.4471L134.87 74.477Z" fill="#282929"/>
<path d="M173.828 224.488L317.455 191.787V169.204L173.828 183.614V224.488Z" fill="white"/>
<path d="M173.829 224.992C173.711 224.992 173.596 224.954 173.502 224.883C173.441 224.834 173.391 224.774 173.356 224.705C173.32 224.636 173.301 224.56 173.298 224.484V183.569C173.297 183.44 173.346 183.315 173.435 183.219C173.524 183.123 173.646 183.063 173.778 183.05L317.394 168.651C317.468 168.641 317.543 168.648 317.614 168.67C317.684 168.693 317.749 168.73 317.803 168.78C317.857 168.828 317.9 168.887 317.93 168.952C317.96 169.017 317.976 169.088 317.977 169.159V191.742C317.977 191.86 317.938 191.974 317.863 192.066C317.789 192.159 317.685 192.224 317.568 192.251L173.952 224.982L173.829 224.992ZM174.36 184.078V223.845L316.924 191.383V169.768L174.36 184.078Z" fill="#282929"/>
<path d="M16.2998 146.287V170.985L173.828 224.483V175.456L16.2998 146.287Z" fill="white"/>
<path d="M173.829 224.993H173.655L16.1266 171.475C16.0244 171.438 15.9362 171.372 15.8741 171.284C15.8119 171.197 15.7789 171.093 15.7793 170.986V146.288C15.7803 146.213 15.7971 146.138 15.8287 146.07C15.8604 146.001 15.9061 145.939 15.9632 145.889C16.0235 145.84 16.0942 145.805 16.1702 145.786C16.2461 145.767 16.3254 145.764 16.4024 145.779L173.931 174.948C174.052 174.971 174.161 175.034 174.239 175.127C174.317 175.22 174.36 175.336 174.36 175.457V224.484C174.357 224.566 174.335 224.646 174.296 224.718C174.257 224.791 174.202 224.854 174.135 224.903C174.045 224.962 173.938 224.994 173.829 224.993ZM16.8314 170.627L173.298 223.785V175.886L16.8314 146.946V170.627Z" fill="#282929"/>
<path d="M279.855 165.909C279.855 165.909 294.237 83.6314 282.154 71.9858C270.07 60.3402 214.84 58.1648 202.48 61.2982C190.121 64.4316 180.642 147.707 180.642 147.707L279.855 165.909Z" fill="#282929"/>
<path d="M279.856 166.378H279.764L180.529 148.166C180.403 148.142 180.291 148.072 180.215 147.97C180.139 147.868 180.106 147.742 180.121 147.617C180.509 144.204 189.763 63.9824 202.337 60.7991C213.87 57.8752 269.937 59.4918 282.511 71.6164C294.636 83.3019 280.948 162.606 280.356 165.969C280.345 166.035 280.321 166.098 280.284 166.155C280.247 166.212 280.199 166.26 280.142 166.298C280.057 166.353 279.957 166.381 279.856 166.378ZM181.183 147.278L279.406 165.3C280.581 158.414 293.042 83.1721 281.766 72.3149C276.658 67.3852 262.287 63.4735 242.338 61.5674C226.433 60.0506 208.956 60.1305 202.562 61.7471C199.171 62.6053 193.788 70.9378 187.373 105.735C183.859 124.994 181.551 144.094 181.183 147.278Z" fill="#282929"/>
<path d="M256.791 75.5043C261.623 92.7082 250.244 173.599 250.244 173.599L183.696 148.182C183.696 148.182 197.363 132.136 181.02 98.506C174.34 84.7549 181.214 77.55 185.872 73.6781C189.784 70.4249 251.95 58.3003 256.791 75.5043Z" fill="url(#paint0_linear_2782_16743)"/>
<path d="M185.872 73.6822C185.872 73.6822 153.032 99.8074 153.267 94.8678C153.389 92.2633 152.674 66.4873 152.674 66.4873L132.174 67.3655C132.174 67.3655 124.074 109.637 131.152 120.045C140.121 133.217 153.073 128.956 170.335 119.127C192.44 106.533 197.915 101.165 197.915 101.165L185.872 73.6822Z" fill="url(#paint1_linear_2782_16743)"/>
<path d="M322.573 165.16V173.592L174.748 203.669L9.47656 148.385V141.659L322.573 165.16Z" fill="white"/>
<path d="M174.748 204.171C174.694 204.18 174.638 204.18 174.584 204.171L9.31312 148.887C9.21331 148.852 9.12661 148.789 9.06457 148.705C9.00252 148.621 8.96808 148.521 8.96582 148.418V141.662C8.9656 141.593 8.98003 141.524 9.00821 141.461C9.0364 141.398 9.07771 141.341 9.12956 141.294C9.1814 141.247 9.24263 141.211 9.30939 141.189C9.37615 141.166 9.44698 141.157 9.5174 141.163L322.613 164.663C322.742 164.674 322.861 164.73 322.948 164.823C323.035 164.915 323.084 165.037 323.083 165.162V173.595C323.083 173.71 323.043 173.821 322.968 173.91C322.894 173.999 322.79 174.061 322.675 174.084L174.86 204.151L174.748 204.171ZM9.98728 148.028L174.789 203.153L322.062 173.216V165.661L9.98728 142.201V148.028Z" fill="#282929"/>
<path d="M117.148 123.163L322.573 165.155L174.748 192.987L9.47656 141.654L117.148 123.163Z" fill="white"/>
<path d="M174.748 193.496H174.595L9.31329 142.144C9.2037 142.106 9.10983 142.034 9.04606 141.939C8.9823 141.844 8.95217 141.731 8.96028 141.618C8.9684 141.505 9.01432 141.397 9.09099 141.312C9.16767 141.227 9.27088 141.168 9.38479 141.146L117.056 122.664C117.12 122.65 117.186 122.65 117.25 122.664L322.685 164.656C322.804 164.682 322.91 164.746 322.987 164.838C323.063 164.931 323.104 165.046 323.104 165.165C323.1 165.283 323.055 165.397 322.977 165.487C322.9 165.577 322.793 165.64 322.675 165.664L174.85 193.486L174.748 193.496ZM11.6831 141.794L174.779 192.448L319.896 165.135L117.138 123.692L11.6831 141.794Z" fill="#282929"/>
<path d="M183.788 152.424C183.788 152.424 133.747 136.967 132.879 136.967C132.011 136.967 68.752 147.575 68.752 147.575L121.285 165.128L183.788 152.424Z" fill="white"/>
<path d="M121.285 165.674C121.228 165.684 121.169 165.684 121.112 165.674L68.5785 148.111C68.4683 148.075 68.3733 148.005 68.3085 147.911C68.2437 147.817 68.2129 147.705 68.221 147.592C68.2306 147.477 68.279 147.369 68.3585 147.284C68.438 147.199 68.5441 147.142 68.6602 147.123C75.1362 146.035 131.99 136.505 132.879 136.505C133.768 136.505 172.185 148.33 183.952 151.962C184.064 151.992 184.162 152.059 184.229 152.152C184.296 152.245 184.328 152.358 184.319 152.471C184.315 152.586 184.271 152.695 184.195 152.782C184.119 152.869 184.015 152.928 183.901 152.95L121.388 165.664L121.285 165.674ZM70.8768 147.711L121.316 164.576L181.704 152.272C166.873 147.701 134.095 137.643 132.828 137.453C131.796 137.583 92.981 144.059 70.8768 147.761V147.711Z" fill="#282929"/>
<path d="M114.217 158.924C114.15 158.939 114.08 158.939 114.013 158.924L86.1576 146.68C86.057 146.635 85.9741 146.559 85.9213 146.464C85.8685 146.369 85.8487 146.26 85.8648 146.153C85.881 146.046 85.9321 145.948 86.0107 145.872C86.0893 145.796 86.191 145.746 86.3006 145.732L118.875 141.251C118.961 141.226 119.054 141.226 119.14 141.251L148.119 153.286C148.222 153.327 148.308 153.4 148.363 153.494C148.418 153.588 148.44 153.697 148.425 153.805C148.411 153.914 148.36 154.015 148.28 154.092C148.201 154.17 148.097 154.22 147.986 154.234L114.278 158.924H114.217ZM88.1903 146.39L114.299 157.856L146.035 153.456L118.875 142.169L88.1903 146.39Z" fill="#282929" fill-opacity="0.2"/>
<path d="M121.285 165.158L184.074 157.933L183.788 152.425L121.285 160.598V165.158Z" fill="white"/>
<path d="M121.285 165.678C121.154 165.676 121.028 165.631 120.928 165.549C120.872 165.499 120.828 165.439 120.798 165.372C120.768 165.305 120.753 165.233 120.754 165.159V160.599C120.753 160.474 120.799 160.353 120.884 160.259C120.969 160.165 121.086 160.105 121.214 160.09L183.716 151.937C183.788 151.926 183.862 151.929 183.932 151.948C184.002 151.967 184.068 152 184.124 152.045C184.18 152.091 184.226 152.147 184.257 152.211C184.289 152.275 184.307 152.345 184.309 152.416L184.605 157.925C184.611 158.056 184.566 158.184 184.479 158.284C184.392 158.384 184.269 158.448 184.135 158.463L121.346 165.698L121.285 165.678ZM121.806 161.048V164.581L183.522 157.476L183.287 153.005L121.806 161.048Z" fill="#282929"/>
<path d="M121.285 165.156L109.784 83.5171L56.8623 80.8926L68.752 147.603L121.285 165.156Z" fill="white"/>
<path d="M121.285 165.679C121.227 165.689 121.169 165.689 121.111 165.679L68.5778 148.116C68.4877 148.087 68.4076 148.035 68.3462 147.964C68.2849 147.894 68.2448 147.808 68.2305 147.716L56.3408 80.9863C56.3273 80.9104 56.3314 80.8325 56.3526 80.7582C56.3738 80.684 56.4116 80.6153 56.4634 80.5572C56.5156 80.4999 56.5804 80.4549 56.6529 80.4255C56.7254 80.3961 56.8038 80.3832 56.8822 80.3875L109.845 83.0021C109.968 83.0098 110.085 83.0586 110.176 83.1403C110.267 83.222 110.327 83.3317 110.345 83.4511L121.847 165.09C121.858 165.178 121.846 165.267 121.812 165.349C121.778 165.431 121.723 165.503 121.653 165.559C121.602 165.602 121.544 165.634 121.481 165.655C121.418 165.676 121.351 165.684 121.285 165.679ZM69.1907 147.217L120.621 164.401L109.293 84.01L57.4746 81.4453L69.1907 147.217Z" fill="#282929"/>
<path d="M148.578 150.511H148.405L131.04 144.523C130.904 144.513 130.779 144.45 130.691 144.349C130.603 144.248 130.559 144.117 130.57 143.984C130.581 143.852 130.645 143.729 130.748 143.643C130.852 143.557 130.986 143.515 131.122 143.525L141.05 142.008C141.134 141.988 141.222 141.988 141.305 142.008L159.038 148.335C159.147 148.373 159.24 148.446 159.301 148.542C159.363 148.638 159.389 148.752 159.375 148.864C159.361 148.976 159.308 149.081 159.224 149.159C159.14 149.237 159.031 149.285 158.915 149.293L148.701 150.421L148.578 150.511ZM133.256 144.264L148.66 149.503L156.637 148.634L141.071 143.076L133.256 144.264Z" fill="#282929" fill-opacity="0.2"/>
<path d="M257.955 87.1646L261.622 116.014C263.828 133.487 265.34 150.242 258.445 154.453C251.55 158.665 192.051 158.814 192.051 158.814C193.162 153.902 193.424 148.843 192.827 143.846C192.827 143.846 241.857 137 241.315 132.22C240.774 127.44 225.238 94.8584 224.972 87.2644C224.707 79.6703 248.507 81.6661 257.955 87.1646Z" fill="url(#paint2_linear_2782_16743)"/>
<path d="M192.786 143.843C192.786 143.843 182.572 144.262 181.213 142.376C179.855 140.49 177.648 138.145 176.341 137.915C175.033 137.686 159.037 139.482 159.998 141.109C160.958 142.735 167.873 141.338 167.873 141.338C167.873 141.338 161.867 142.835 162.143 144.791C162.418 146.747 163.808 146.537 166.106 145.789C168.404 145.04 173.951 143.733 173.951 143.733C173.951 143.733 165.462 147.575 165.33 149.561C165.197 151.547 169.293 150.559 175.064 147.565C175.064 147.565 168.343 151.697 170.427 152.914C172.51 154.131 177.403 151.617 177.403 151.617C177.403 151.617 179.712 155.259 182.827 156.167C185.942 157.075 192.429 156.995 192.429 156.995C192.429 156.995 195.503 150.27 192.786 143.843Z" fill="white"/>
<path d="M192.021 157.473C190.56 157.473 185.382 157.413 182.634 156.615C179.886 155.817 177.894 153.242 177.179 152.234C175.851 152.863 172.072 154.47 170.111 153.322C169.917 153.216 169.755 153.063 169.641 152.878C169.526 152.692 169.463 152.481 169.457 152.264C169.611 151.404 170.079 150.627 170.775 150.079C168.568 150.947 166.413 151.476 165.371 150.837C165.157 150.696 164.987 150.501 164.879 150.272C164.771 150.044 164.729 149.79 164.758 149.54C164.84 148.293 167.19 146.676 169.529 145.369C168.282 145.688 167.047 146.027 166.229 146.287C164.738 146.766 163.42 147.115 162.521 146.566C162.243 146.372 162.014 146.118 161.851 145.824C161.688 145.53 161.596 145.204 161.582 144.87C161.439 143.872 162.338 143.064 163.492 142.415C161.704 142.485 160.009 142.275 159.488 141.357C159.411 141.22 159.378 141.064 159.39 140.908C159.403 140.752 159.462 140.603 159.559 140.479C160.897 138.663 175.208 137.196 176.444 137.415C178.109 137.705 180.53 140.589 181.643 142.076C182.46 143.223 188.64 143.503 192.767 143.333C192.875 143.327 192.983 143.355 193.075 143.413C193.166 143.47 193.237 143.554 193.277 143.652C196.046 150.209 193.002 156.895 192.869 157.174C192.828 157.262 192.762 157.338 192.679 157.391C192.595 157.444 192.498 157.472 192.399 157.473H192.021ZM177.363 151.057C177.454 151.058 177.542 151.081 177.621 151.124C177.7 151.168 177.766 151.231 177.813 151.306C177.813 151.306 180.06 154.799 182.92 155.627C185.514 156.386 190.642 156.445 192.021 156.445C192.552 155.118 194.483 149.66 192.419 144.371C190.029 144.451 182.123 144.57 180.765 142.674C179.171 140.459 177.179 138.593 176.229 138.423C174.646 138.144 161.929 139.85 160.499 140.988C161.234 141.617 164.707 141.437 167.71 140.838C167.776 140.823 167.844 140.822 167.911 140.833C167.977 140.844 168.041 140.868 168.098 140.903C168.155 140.938 168.204 140.984 168.243 141.038C168.281 141.092 168.309 141.153 168.323 141.217C168.34 141.282 168.344 141.35 168.334 141.416C168.324 141.482 168.301 141.546 168.266 141.603C168.231 141.661 168.184 141.711 168.129 141.751C168.074 141.791 168.012 141.82 167.945 141.836C165.708 142.395 162.46 143.702 162.603 144.72C162.598 144.908 162.636 145.096 162.713 145.268C162.791 145.441 162.907 145.594 163.053 145.718C163.574 146.037 164.789 145.718 165.882 145.339C168.18 144.6 173.533 143.343 173.768 143.273C173.835 143.251 173.906 143.243 173.976 143.248C174.046 143.253 174.115 143.272 174.178 143.303C174.241 143.334 174.297 143.377 174.344 143.429C174.39 143.481 174.425 143.542 174.447 143.607C174.469 143.673 174.478 143.742 174.473 143.811C174.467 143.88 174.448 143.947 174.417 144.008C174.385 144.07 174.341 144.125 174.287 144.17C174.234 144.215 174.172 144.249 174.105 144.271C170.162 146.057 165.862 148.622 165.79 149.67C165.79 149.929 165.872 149.989 165.923 150.029C166.495 150.388 168.987 150.179 174.748 147.125C174.867 147.077 175 147.072 175.122 147.112C175.244 147.152 175.347 147.234 175.412 147.342C175.476 147.451 175.499 147.578 175.475 147.702C175.45 147.825 175.381 147.936 175.279 148.013C172.971 149.44 170.479 151.486 170.489 152.304C170.489 152.354 170.489 152.414 170.632 152.494C172.133 153.372 175.811 151.845 177.098 151.177C177.173 151.114 177.265 151.072 177.363 151.057Z" fill="#282929"/>
<path d="M200.437 143.212C200.316 143.202 200.201 143.15 200.115 143.065C200.028 142.981 199.975 142.87 199.964 142.751C199.953 142.632 199.985 142.513 200.055 142.415C200.125 142.317 200.228 142.246 200.345 142.214L240.366 135.408C237.758 128.64 235.541 121.733 233.727 114.722C229.702 98.9847 229.089 87.0298 231.898 79.1762C231.919 79.1117 231.953 79.0519 231.998 79.0006C232.043 78.9492 232.098 78.9073 232.16 78.8775C232.222 78.8476 232.29 78.8304 232.359 78.8269C232.428 78.8233 232.497 78.8335 232.562 78.8569C232.695 78.9022 232.803 78.9969 232.865 79.1203C232.926 79.2437 232.935 79.3858 232.889 79.5155C226.352 97.8271 241.428 135.249 241.582 135.618C241.617 135.686 241.635 135.761 241.635 135.837C241.635 135.914 241.617 135.989 241.582 136.057C241.543 136.124 241.49 136.181 241.427 136.226C241.363 136.271 241.291 136.302 241.214 136.316L200.56 143.232L200.437 143.212Z" fill="#282929"/>
<path d="M188.997 127.257C188.862 127.257 188.733 127.206 188.636 127.115C188.538 127.024 188.481 126.9 188.476 126.768C188.118 119.543 186.127 113.905 184.39 108.926C183.193 105.988 182.353 102.923 181.888 99.7947C181.816 99.0861 181.745 98.4076 181.683 97.7988C181.111 92.2305 180.662 87.8198 184.043 77.9405C184.087 77.8115 184.182 77.7047 184.306 77.6431C184.43 77.5815 184.574 77.5701 184.707 77.6112C184.772 77.6325 184.832 77.6663 184.884 77.7105C184.936 77.7548 184.978 77.8086 185.009 77.8689C185.039 77.9292 185.057 77.9948 185.061 78.0619C185.065 78.129 185.056 78.1963 185.034 78.2598C181.734 87.9495 182.153 92.0409 182.735 97.6991C182.797 98.3577 182.868 99.0362 182.929 99.7448C183.391 102.791 184.214 105.775 185.381 108.636C187.168 113.686 189.191 119.394 189.548 126.768C189.554 126.904 189.505 127.037 189.411 127.138C189.317 127.238 189.187 127.299 189.048 127.307L188.997 127.257Z" fill="#282929"/>
<path d="M218.742 179.02C228.016 179.02 235.535 176.808 235.535 174.08C235.535 171.352 228.016 169.141 218.742 169.141C209.468 169.141 201.949 171.352 201.949 174.08C201.949 176.808 209.468 179.02 218.742 179.02Z" fill="white"/>
<path d="M206.086 160.648L205.677 160.717C204.476 160.899 203.385 161.506 202.613 162.424C202.174 163.079 201.931 163.842 201.913 164.625C201.895 165.408 202.102 166.181 202.511 166.855C204.288 169.998 208.639 170.846 211.979 171.176C212.452 171.247 212.934 171.209 213.389 171.066C213.615 170.989 213.811 170.846 213.952 170.657C214.092 170.468 214.17 170.242 214.176 170.008C214.151 169.82 214.078 169.64 213.964 169.487C213.85 169.333 213.698 169.211 213.522 169.13C213.171 168.969 212.794 168.867 212.408 168.83C210.299 168.622 208.234 168.107 206.28 167.304C205.166 166.755 203.614 165.497 204.421 164.15C204.702 163.711 205.111 163.364 205.595 163.152C207.506 162.264 209.324 162.933 211.213 163.482C211.35 163.531 211.497 163.552 211.642 163.542C212.01 163.542 212.214 163.072 212.184 162.713C212.122 161.905 211.305 161.376 210.529 161.087C209.113 160.561 207.581 160.41 206.086 160.648Z" fill="white"/>
<path d="M205.667 18.9029C205.667 18.9029 194.871 19.2721 191.704 24.3714C188.538 29.4707 188.967 37.0149 184.891 41.9146C180.815 46.8143 175.821 57.3123 178.405 62.691C180.989 68.0698 207.864 69.4968 221.939 63.2598C236.015 57.0229 236.72 45.8763 235.657 38.7912C234.595 31.706 229.447 12.4663 205.667 18.9029Z" fill="white"/>
<path d="M198.18 67.8611C197.404 67.8611 196.628 67.8611 195.851 67.8611C188.241 67.6516 179.508 66.2445 177.945 62.9415C175.31 57.4629 180.141 46.8652 184.493 41.6361C186.668 39.0116 187.557 35.5389 188.384 32.166C188.933 29.3797 189.903 26.6889 191.265 24.1827C194.442 19.0535 204.605 18.5046 205.565 18.4647C213.676 16.2793 220.427 16.8581 225.637 20.1711C233.349 25.0908 235.555 34.8204 236.148 38.7821C237.343 46.7654 235.882 57.6725 222.123 63.7298C216.188 66.3543 207.373 67.8611 198.18 67.8611ZM214.523 18.1055C211.557 18.1456 208.609 18.5753 205.759 19.3828H205.647C205.535 19.3828 195.085 19.8019 192.092 24.6118C190.78 27.0432 189.851 29.6537 189.334 32.3556C188.466 35.8283 187.557 39.4208 185.249 42.2049C180.979 47.3541 176.474 57.5428 178.844 62.4625C181.122 67.2025 207.322 69.1484 221.694 62.7818C234.871 56.944 236.27 46.5458 235.126 38.832C234.554 35.01 232.43 25.6197 225.065 20.9196C221.924 18.9932 218.272 18.0143 214.564 18.1055H214.523Z" fill="#282929"/>
<path d="M224.891 77.8018C224.891 77.8018 216.117 98.7578 208.813 98.179C201.51 97.6002 201.776 82.0029 201.776 82.0029L224.891 77.8018Z" fill="#282929"/>
<path d="M209.11 98.6844H208.773C201.091 98.0757 201.214 82.6581 201.224 82.0094C201.222 81.8951 201.263 81.7839 201.338 81.6961C201.413 81.6082 201.517 81.5495 201.633 81.5304L224.799 77.3192C224.887 77.3006 224.979 77.3065 225.064 77.3366C225.149 77.3666 225.224 77.4194 225.279 77.4889C225.339 77.5584 225.378 77.6426 225.393 77.7323C225.407 77.8219 225.396 77.9138 225.361 77.9978C225.003 78.846 216.607 98.6844 209.11 98.6844ZM202.235 82.4186C202.235 84.8335 202.746 97.1976 208.854 97.6865C214.278 98.1256 221.336 84.7137 224.054 78.4569L202.235 82.4186Z" fill="#282929"/>
<path d="M203.696 67.4224L201.776 82.0018C201.776 82.0018 204.238 87.9893 214.268 87.0612C220.458 86.4625 224.943 77.8006 224.943 77.8006L226.924 49.2106C226.924 49.2106 213.012 41.7263 204.994 28.7734C204.994 28.7734 198.395 39.4111 193.574 38.3733C193.574 38.3733 192.011 52.7332 193.758 60.0379C195.504 67.3426 203.696 67.4224 203.696 67.4224Z" fill="white"/>
<path d="M212.072 87.6602C203.594 87.6602 201.357 82.4312 201.255 82.1917C201.235 82.1097 201.235 82.0242 201.255 81.9422L203.144 67.8817C201.193 67.7021 194.82 66.5944 193.287 60.1479C191.541 52.8432 193.032 38.9024 193.103 38.3137C193.11 38.2446 193.132 38.1778 193.167 38.1176C193.202 38.0574 193.25 38.0052 193.308 37.9644C193.367 37.9249 193.434 37.8974 193.504 37.8837C193.574 37.87 193.646 37.8703 193.716 37.8846C197.394 38.6829 202.807 31.3882 204.585 28.5142C204.633 28.4443 204.699 28.387 204.775 28.3474C204.852 28.3078 204.937 28.2871 205.024 28.2871C205.11 28.2871 205.196 28.3078 205.272 28.3474C205.349 28.387 205.414 28.4443 205.463 28.5142C213.338 41.1976 227.016 48.7019 227.149 48.7718C227.232 48.8189 227.301 48.8875 227.348 48.9702C227.395 49.0528 227.418 49.1464 227.414 49.2408L225.433 77.8308C225.425 77.8973 225.404 77.9616 225.371 78.0204C225.187 78.3897 220.693 86.9417 214.299 87.5505C213.559 87.6256 212.816 87.6623 212.072 87.6602ZM202.256 81.9322C202.644 82.7505 205.32 87.4107 214.166 86.5625C219.682 86.0336 223.9 78.5793 224.38 77.6612L226.342 49.4902C224.35 48.3526 212.419 41.2076 204.993 29.7217C203.461 32.0069 198.344 39.1719 194.033 38.9324C193.778 41.5469 192.736 53.5517 194.248 59.8885C195.882 66.7141 203.379 66.8738 203.696 66.8738C203.769 66.8745 203.84 66.8904 203.906 66.9203C203.972 66.9503 204.031 66.9936 204.078 67.0475C204.125 67.1013 204.161 67.1644 204.181 67.2326C204.201 67.3007 204.207 67.3723 204.196 67.4426L202.256 81.9322Z" fill="#282929"/>
<path d="M202.664 75.0971C204.368 75.2936 206.096 75.082 207.697 74.4805C209.299 73.8789 210.727 72.9055 211.857 71.6443C215.851 67.2835 214.922 66.4951 214.922 66.4951C211.291 67.6031 207.456 67.9232 203.686 67.4332L202.664 75.0971Z" fill="#282929"/>
<path d="M203.89 75.6769C203.449 75.6812 203.008 75.6478 202.573 75.5772C202.444 75.5551 202.33 75.486 202.252 75.384C202.174 75.2819 202.139 75.1547 202.154 75.0283L203.175 67.3644C203.183 67.299 203.204 67.2358 203.237 67.1785C203.27 67.1212 203.314 67.071 203.368 67.031C203.421 66.9909 203.482 66.9618 203.548 66.9453C203.613 66.9289 203.681 66.9255 203.747 66.9353C207.446 67.4135 211.206 67.1002 214.769 66.0172C214.857 65.9877 214.951 65.9814 215.043 65.999C215.134 66.0165 215.219 66.0572 215.29 66.117C215.433 66.2467 215.729 66.6359 215.382 67.5939C214.593 69.2138 213.529 70.6916 212.236 71.9647C211.195 73.1279 209.912 74.0607 208.473 74.7009C207.034 75.3411 205.472 75.6738 203.89 75.6769ZM203.237 74.679C204.782 74.7784 206.33 74.5275 207.76 73.9459C209.19 73.3643 210.463 72.4677 211.48 71.3261C213.625 68.981 214.268 67.7536 214.462 67.1848C211.104 68.0949 207.599 68.3692 204.135 67.9931L203.237 74.679Z" fill="#282929"/>
<path d="M207.026 44.29C207.026 44.29 202.194 51.9739 203.461 53.2712C204.727 54.5685 208.108 53.5406 208.108 53.5406" fill="white"/>
<path d="M205.596 54.3645C204.693 54.4313 203.799 54.1522 203.103 53.5861C201.704 52.199 205.075 46.4511 206.587 44.0361C206.658 43.9237 206.773 43.8436 206.905 43.8137C207.037 43.7838 207.176 43.8063 207.291 43.8765C207.406 43.9466 207.488 44.0586 207.519 44.1877C207.55 44.3168 207.527 44.4526 207.455 44.565C204.993 48.4768 203.297 52.3587 203.829 52.8776C204.687 53.7258 207.107 53.2668 207.965 53.0173C208.094 52.9799 208.233 52.9934 208.351 53.055C208.47 53.1167 208.559 53.2214 208.599 53.3466C208.637 53.4737 208.624 53.6104 208.561 53.7278C208.498 53.8452 208.391 53.934 208.262 53.9753C207.394 54.2163 206.498 54.3471 205.596 54.3645Z" fill="#282929"/>
<path d="M213.398 45.2775C214.092 45.1929 214.555 44.3485 214.433 43.3914C214.311 42.4344 213.649 41.7271 212.955 41.8117C212.261 41.8963 211.797 42.7407 211.919 43.6978C212.042 44.6548 212.703 45.3621 213.398 45.2775Z" fill="#282929"/>
<path d="M202.438 44.2714C202.61 43.3217 202.191 42.4553 201.502 42.3364C200.813 42.2175 200.116 42.8911 199.944 43.8408C199.772 44.7906 200.191 45.6569 200.88 45.7758C201.569 45.8948 202.267 45.2212 202.438 44.2714Z" fill="#282929"/>
<path d="M206.607 60.1279C205.287 60.1844 203.981 59.8521 202.857 59.1741C201.733 58.4961 200.844 57.5038 200.305 56.3259C200.274 56.2506 200.264 56.1689 200.275 56.0887C200.285 56.0084 200.317 55.9321 200.366 55.8669C200.413 55.8011 200.475 55.7475 200.548 55.711C200.621 55.6745 200.703 55.656 200.785 55.6573C212.378 55.6573 212.439 55.7172 212.633 55.9267C212.684 55.9779 212.722 56.0394 212.745 56.1067C212.768 56.174 212.775 56.2455 212.766 56.3159C212.762 56.4032 212.73 56.4869 212.674 56.5554C212.572 56.6951 210.172 59.9084 207.281 60.108L206.607 60.1279ZM201.622 56.6552C202.219 57.5417 203.06 58.2449 204.049 58.6829C205.038 59.121 206.134 59.276 207.21 59.13C208.854 59.0202 210.396 57.6232 211.224 56.735C209.314 56.6951 204.911 56.6752 201.622 56.6752V56.6552Z" fill="#282929"/>
<path d="M228.609 44.37C228.609 44.37 232.603 27.6251 225.187 21.1287C217.771 14.6324 205.667 18.9034 205.667 18.9034C205.667 18.9034 219.273 18.0751 222.082 24.0826C224.891 30.09 222.633 47.2041 222.633 47.2041L228.609 44.37Z" fill="white"/>
<path d="M222.634 47.705C222.523 47.7073 222.415 47.6721 222.328 47.6052C222.254 47.5515 222.197 47.4799 222.161 47.3975C222.125 47.3152 222.112 47.225 222.123 47.1362C222.123 46.9666 224.33 30.082 221.623 24.2841C218.987 18.6659 205.831 19.3944 205.698 19.3944C205.576 19.4041 205.455 19.3699 205.357 19.2982C205.259 19.2265 205.192 19.1223 205.167 19.0052C205.14 18.8877 205.159 18.7647 205.219 18.6598C205.28 18.5548 205.377 18.4753 205.494 18.4364C205.995 18.2568 217.986 14.1254 225.535 20.7515C233.084 27.3776 229.273 43.7832 229.1 44.4818C229.084 44.554 229.052 44.6219 229.006 44.6806C228.96 44.7393 228.901 44.7872 228.834 44.8211L222.849 47.6551C222.782 47.6868 222.708 47.7038 222.634 47.705ZM209.774 18.4264C214.136 18.6759 220.622 19.7636 222.552 23.875C225.034 29.1938 223.676 42.6855 223.247 46.3578L228.16 44.0227C228.599 42.0269 231.49 27.3178 224.851 21.5C220.326 17.5283 213.87 17.7378 209.774 18.4264Z" fill="#282929"/>
<path d="M233.914 51.1401C234.959 45.874 232.521 40.9829 228.469 40.2153C224.416 39.4477 220.284 43.0945 219.239 48.3605C218.194 53.6266 220.632 58.5177 224.684 59.2853C228.737 60.0529 232.869 56.4061 233.914 51.1401Z" fill="white"/>
<path d="M225.269 59.1313C224.882 59.1328 224.496 59.0994 224.115 59.0316C219.774 58.2232 217.128 53.0441 218.211 47.5157C218.664 44.9829 219.939 42.6596 221.848 40.8896C222.644 40.1015 223.62 39.5095 224.696 39.1625C225.772 38.8155 226.918 38.7234 228.038 38.8938C232.369 39.7021 235.014 44.8812 233.931 50.4096C232.93 55.459 229.182 59.1313 225.269 59.1313ZM226.863 39.8218C225.239 39.8745 223.694 40.5188 222.532 41.628C220.79 43.2547 219.63 45.3853 219.222 47.7053C218.201 52.6948 220.52 57.3451 224.33 58.0436C228.14 58.7422 231.98 55.2595 232.961 50.2599C233.931 45.2704 231.654 40.6202 227.854 39.9216C227.523 39.8416 227.183 39.7981 226.842 39.7919L226.863 39.8218Z" fill="#282929"/>
<path d="M211.633 64.1892C211.497 64.1892 211.367 64.1366 211.272 64.043C211.176 63.9495 211.122 63.8226 211.122 63.6902C211.122 63.5579 211.176 63.431 211.272 63.3374C211.367 63.2438 211.497 63.1913 211.633 63.1913C215.259 63.0017 221.429 62.2433 222.491 60.9959C223.717 59.5389 224.534 54.8787 224.718 53.2122C224.726 53.1467 224.747 53.0833 224.78 53.0258C224.813 52.9683 224.857 52.9177 224.911 52.8769C224.964 52.8361 225.024 52.806 225.09 52.7882C225.155 52.7704 225.223 52.7652 225.29 52.7731C225.357 52.781 225.422 52.8017 225.48 52.834C225.539 52.8663 225.591 52.9097 225.633 52.9616C225.675 53.0135 225.705 53.0729 225.724 53.1364C225.742 53.2 225.747 53.2664 225.739 53.3319C225.739 53.5914 224.953 59.6487 223.267 61.6246C221.582 63.6004 212.675 64.1193 211.663 64.1892H211.633Z" fill="#282929"/>
<path d="M215.105 61.903L209.53 62.3948C208.749 62.4637 208.173 63.1358 208.243 63.896C208.314 64.6563 209.004 65.2167 209.785 65.1478L215.36 64.656C216.141 64.5871 216.717 63.9149 216.646 63.1547C216.576 62.3945 215.886 61.8341 215.105 61.903Z" fill="white"/>
<path d="M209.641 65.6743C209.161 65.6712 208.7 65.4937 208.347 65.1764C207.993 64.8591 207.774 64.4247 207.731 63.9579C207.694 63.4691 207.855 62.9857 208.18 62.6123C208.505 62.2389 208.967 62.0053 209.467 61.9621L215.055 61.4631C215.564 61.4202 216.07 61.5743 216.464 61.8922C216.755 62.1289 216.968 62.4438 217.077 62.7978C217.186 63.1518 217.186 63.5293 217.077 63.8833C216.968 64.2374 216.755 64.5524 216.465 64.7892C216.174 65.026 215.819 65.1741 215.443 65.2152L209.855 65.7042L209.641 65.6743ZM215.238 62.4211H215.146L209.559 62.9101C209.438 62.9225 209.321 62.9582 209.214 63.0152C209.107 63.0723 209.013 63.1494 208.937 63.2422C208.861 63.3351 208.805 63.4417 208.771 63.556C208.738 63.6703 208.728 63.7899 208.742 63.908C208.753 64.0241 208.787 64.137 208.843 64.2398C208.899 64.3427 208.976 64.4335 209.069 64.5067C209.157 64.5844 209.26 64.6431 209.373 64.6792C209.486 64.7153 209.605 64.7279 209.723 64.7163L215.31 64.2173C215.432 64.2075 215.552 64.1736 215.66 64.1175C215.769 64.0614 215.865 63.9845 215.942 63.8912C216.019 63.7979 216.076 63.6903 216.11 63.5748C216.144 63.4594 216.153 63.3385 216.137 63.2194C216.109 62.987 215.992 62.7734 215.81 62.6207C215.649 62.492 215.447 62.4216 215.238 62.4211Z" fill="#282929"/>
<path d="M81.9996 23.7666C65.5031 23.7666 52.1221 33.4762 52.1221 45.4412C52.1221 52.4964 56.7697 58.7632 63.9607 62.7149L70.641 71.9556V65.4891C74.3238 66.5783 78.1518 67.1265 81.9996 67.1157C98.4961 67.1157 111.887 57.416 111.887 45.4412C111.887 33.4663 98.4961 23.7666 81.9996 23.7666Z" fill="white"/>
<path d="M70.6415 72.4515C70.5595 72.4528 70.4784 72.4344 70.4054 72.3978C70.3323 72.3613 70.2696 72.3078 70.2227 72.242L63.6037 63.1211C55.9837 58.86 51.6221 52.4335 51.6221 45.4382C51.6221 33.1838 65.2483 23.2646 82.0001 23.2646C98.7519 23.2646 112.378 33.2437 112.378 45.4382C112.378 57.6326 98.7519 67.6117 82.0001 67.6117C78.3304 67.6086 74.6792 67.1048 71.1523 66.1148V71.9126C71.1529 72.0193 71.1186 72.1234 71.0542 72.2096C70.9899 72.2958 70.8989 72.3596 70.7947 72.3916C70.7485 72.4218 70.6963 72.4422 70.6415 72.4515ZM82.0001 24.2626C65.8101 24.2626 52.6435 33.7626 52.6435 45.4382C52.6435 52.1441 56.8519 58.2313 64.2064 62.2828C64.275 62.315 64.3346 62.3629 64.38 62.4226L70.1308 70.4058V65.4861C70.1316 65.4088 70.1504 65.3327 70.1858 65.2635C70.2212 65.1943 70.2722 65.134 70.3351 65.087C70.4014 65.0422 70.4767 65.012 70.556 64.9982C70.6353 64.9844 70.7168 64.9875 70.7947 65.0071C74.4372 66.0868 78.2244 66.6284 82.0307 66.6138C98.2208 66.6138 111.387 57.1137 111.387 45.4382C111.387 33.7626 98.1901 24.2626 82.0001 24.2626Z" fill="#282929" fill-opacity="0.2"/>
<path d="M67.6591 47.9056C69.0694 47.9056 70.2127 46.7886 70.2127 45.4108C70.2127 44.033 69.0694 42.916 67.6591 42.916C66.2488 42.916 65.1055 44.033 65.1055 45.4108C65.1055 46.7886 66.2488 47.9056 67.6591 47.9056Z" fill="#282929" fill-opacity="0.2"/>
<path d="M81.9999 47.9056C83.4103 47.9056 84.5536 46.7886 84.5536 45.4108C84.5536 44.033 83.4103 42.916 81.9999 42.916C80.5896 42.916 79.4463 44.033 79.4463 45.4108C79.4463 46.7886 80.5896 47.9056 81.9999 47.9056Z" fill="#282929" fill-opacity="0.2"/>
<path d="M96.331 47.9056C97.7413 47.9056 98.8846 46.7886 98.8846 45.4108C98.8846 44.033 97.7413 42.916 96.331 42.916C94.9206 42.916 93.7773 44.033 93.7773 45.4108C93.7773 46.7886 94.9206 47.9056 96.331 47.9056Z" fill="#282929" fill-opacity="0.2"/>
<path d="M265.105 105.952H265.054C264.916 105.937 264.789 105.871 264.7 105.766C264.611 105.662 264.566 105.529 264.574 105.393C266.617 82.2318 274.738 73.9592 275.075 73.6199C275.176 73.5403 275.303 73.4995 275.433 73.5054C275.563 73.5113 275.686 73.5634 275.779 73.6519C275.872 73.7403 275.928 73.859 275.938 73.9855C275.948 74.112 275.909 74.2375 275.831 74.3384C275.749 74.4182 267.659 82.7507 265.616 105.483C265.606 105.609 265.548 105.727 265.454 105.814C265.359 105.901 265.235 105.95 265.105 105.952Z" fill="white"/>
</g>
<defs>
<linearGradient id="paint0_linear_2782_16743" x1="128.251" y1="54.7426" x2="258.001" y2="168" gradientUnits="userSpaceOnUse">
<stop stop-color="#FFB11B"/>
<stop offset="1" stop-color="#FF441B"/>
</linearGradient>
<linearGradient id="paint1_linear_2782_16743" x1="128.251" y1="54.7426" x2="258.001" y2="168" gradientUnits="userSpaceOnUse">
<stop stop-color="#FFB11B"/>
<stop offset="1" stop-color="#FF441B"/>
</linearGradient>
<linearGradient id="paint2_linear_2782_16743" x1="115.5" y1="38" x2="256" y2="180.5" gradientUnits="userSpaceOnUse">
<stop stop-color="#FFB11B"/>
<stop offset="1" stop-color="#FF441B"/>
</linearGradient>
<clipPath id="clip0_2782_16743">
<rect width="332" height="170" fill="white"/>
</clipPath>
</defs>
</svg>
