<svg width="600" height="435" viewBox="0 0 600 435" fill="none" xmlns="http://www.w3.org/2000/svg">
<g clip-path="url(#clip0_2614_462)">
<path d="M351.18 429.959C351.18 429.959 334.713 369.797 332.608 356.696C325.765 314.434 256.557 211.371 256.042 210.257C255.527 209.143 225.311 288.101 232.999 310.437C236.7 321.181 255.439 361.539 263.095 375.758C267.895 384.643 280.667 453.789 280.667 453.789L351.18 429.959Z" fill="#F6F9F6"/>
<path d="M351.517 430.692L351.429 430.733L280.916 454.563C280.809 454.601 280.694 454.615 280.581 454.602C280.467 454.59 280.358 454.552 280.261 454.492C280.159 454.435 280.072 454.356 280.003 454.262C279.935 454.168 279.888 454.059 279.866 453.945C279.743 453.255 267.064 384.813 262.381 376.141C254.951 362.334 235.986 321.564 232.23 310.702C228.157 298.885 234.482 272.298 240.449 251.944C245.79 233.854 254.303 210.117 255.667 209.487C255.866 209.413 256.085 209.417 256.281 209.498C256.477 209.579 256.635 209.732 256.723 209.924C256.791 210.071 257.591 211.302 258.668 212.94C302.848 280.863 329.382 331.853 333.37 356.539C335.472 369.481 351.767 429.153 351.956 429.795C351.997 429.972 351.976 430.158 351.896 430.322C351.816 430.485 351.682 430.616 351.517 430.692V430.692ZM281.283 452.739L350.19 429.437C348.307 422.514 333.766 369.024 331.794 356.787C327.836 332.319 301.389 281.555 257.326 213.809C256.754 212.917 256.339 212.29 256.036 211.825C251.721 221.47 226.785 289.947 233.764 310.172C237.451 320.922 256.397 361.613 263.806 375.376C268.38 383.849 279.69 444.17 281.283 452.739V452.739Z" fill="#3B3B3B"/>
<path d="M210.623 206.034L211.141 197.415L487.765 203.011L487.253 211.645L322.551 344.637L210.623 206.034Z" fill="#F6F9F6"/>
<path d="M322.89 345.37C322.726 345.448 322.54 345.468 322.363 345.427C322.186 345.386 322.028 345.286 321.914 345.145L209.981 206.491C209.837 206.352 209.75 206.164 209.737 205.964L210.234 197.336C210.247 197.128 210.341 196.933 210.494 196.792C210.648 196.652 210.851 196.576 211.059 196.581L487.66 202.205C487.771 202.205 487.88 202.228 487.981 202.274C488.082 202.319 488.172 202.386 488.245 202.469C488.402 202.619 488.497 202.823 488.509 203.041L488.005 211.654C487.999 211.766 487.969 211.877 487.917 211.977C487.866 212.078 487.794 212.166 487.706 212.237L323.009 345.279L322.89 345.37ZM211.448 205.778L322.666 343.498L486.479 211.238L486.903 203.801L211.89 198.225L211.448 205.778Z" fill="#3B3B3B"/>
<path d="M375.834 64.3831L211.122 197.392L323.045 335.993L487.757 202.983L375.834 64.3831Z" fill="#F6F9F6"/>
<path d="M323.387 336.742C323.255 336.807 323.106 336.832 322.959 336.816C322.747 336.784 322.553 336.678 322.412 336.517L210.478 197.864C210.346 197.696 210.284 197.484 210.305 197.271C210.327 197.059 210.43 196.863 210.593 196.725L375.29 63.6827C375.459 63.5504 375.674 63.4896 375.887 63.5133C376.098 63.5336 376.292 63.6355 376.428 63.7973L488.361 202.451C488.429 202.533 488.479 202.627 488.51 202.729C488.541 202.831 488.551 202.938 488.54 203.043C488.53 203.149 488.498 203.252 488.448 203.345C488.398 203.439 488.329 203.522 488.247 203.589L323.55 336.631L323.387 336.742ZM212.266 197.536L323.17 334.885L486.641 202.925L375.737 65.5754L212.266 197.536Z" fill="#3B3B3B"/>
<path d="M252.673 189.876C255.588 188.529 256.859 185.074 255.512 182.159C254.165 179.244 250.71 177.972 247.795 179.319C244.88 180.667 243.609 184.122 244.956 187.037C246.303 189.952 249.758 191.223 252.673 189.876Z" fill="#3B3B3B"/>
<path d="M253.011 190.609C251.884 191.122 250.635 191.309 249.407 191.148C248.179 190.987 247.021 190.484 246.064 189.698C245.107 188.911 244.39 187.872 243.994 186.698C243.598 185.525 243.539 184.263 243.824 183.058C244.109 181.853 244.727 180.751 245.607 179.879C246.486 179.007 247.593 178.399 248.801 178.125C250.009 177.85 251.269 177.92 252.439 178.326C253.61 178.732 254.643 179.458 255.421 180.422V180.422C255.974 181.101 256.387 181.883 256.636 182.723C256.884 183.563 256.964 184.444 256.87 185.315C256.776 186.185 256.51 187.029 256.088 187.796C255.666 188.564 255.095 189.24 254.41 189.785C253.982 190.12 253.511 190.397 253.011 190.609V190.609ZM248.133 180.053C247.756 180.225 247.404 180.448 247.087 180.715C246.113 181.516 245.482 182.659 245.321 183.91C245.16 185.161 245.482 186.427 246.221 187.449C246.961 188.471 248.062 189.172 249.3 189.411C250.539 189.65 251.822 189.408 252.888 188.734C253.954 188.06 254.724 187.005 255.039 185.783C255.355 184.562 255.194 183.267 254.588 182.16C253.982 181.054 252.977 180.22 251.778 179.829C250.579 179.437 249.275 179.517 248.133 180.053Z" fill="#3B3B3B"/>
<path d="M239.126 165.158C237.916 163.659 235.719 163.425 234.22 164.635C232.721 165.846 232.487 168.042 233.698 169.541L246.351 185.211C247.562 186.71 249.758 186.944 251.257 185.733C252.756 184.523 252.99 182.326 251.78 180.827L239.126 165.158Z" fill="#F6F9F6"/>
<path d="M250.869 186.938C250.002 187.336 249.028 187.436 248.098 187.222C247.168 187.008 246.336 186.491 245.731 185.753L233.062 170.079C232.707 169.64 232.442 169.136 232.282 168.595C232.123 168.053 232.071 167.486 232.131 166.925C232.19 166.364 232.36 165.82 232.63 165.324C232.899 164.828 233.264 164.391 233.703 164.036C234.142 163.681 234.646 163.417 235.188 163.257C235.729 163.097 236.296 163.046 236.857 163.105C237.419 163.165 237.963 163.334 238.458 163.604C238.954 163.874 239.392 164.238 239.746 164.677L252.343 180.385C253.053 181.267 253.386 182.394 253.271 183.52C253.155 184.646 252.599 185.682 251.724 186.4V186.4C251.46 186.611 251.173 186.791 250.869 186.938V186.938ZM235.272 164.93C235.068 164.998 234.871 165.089 234.686 165.201C234.135 165.645 233.783 166.288 233.704 166.991C233.626 167.693 233.828 168.399 234.267 168.953L246.937 184.627C247.38 185.177 248.024 185.53 248.726 185.609C249.429 185.687 250.135 185.485 250.689 185.046V185.046C251.227 184.595 251.568 183.952 251.64 183.254C251.678 182.903 251.645 182.548 251.544 182.21C251.443 181.872 251.275 181.557 251.05 181.285L238.461 165.592C238.076 165.147 237.555 164.841 236.979 164.721C236.402 164.602 235.803 164.675 235.272 164.93V164.93Z" fill="#3B3B3B"/>
<path d="M278.885 168.708C281.8 167.361 283.071 163.905 281.724 160.99C280.377 158.075 276.922 156.804 274.007 158.151C271.092 159.498 269.821 162.953 271.168 165.868C272.515 168.784 275.97 170.055 278.885 168.708Z" fill="#3B3B3B"/>
<path d="M279.223 169.441C277.697 170.138 275.963 170.227 274.374 169.69C272.786 169.153 271.461 168.031 270.671 166.551C269.881 165.072 269.685 163.347 270.123 161.728C270.561 160.109 271.599 158.717 273.027 157.837C274.455 156.958 276.164 156.655 277.807 156.992C279.45 157.329 280.903 158.279 281.87 159.65C282.836 161.021 283.244 162.708 283.009 164.369C282.775 166.03 281.916 167.538 280.607 168.588C280.181 168.925 279.716 169.211 279.223 169.441ZM274.351 158.9C273.976 159.073 273.623 159.291 273.298 159.546C272.299 160.344 271.642 161.493 271.461 162.759C271.28 164.025 271.588 165.312 272.323 166.358C273.058 167.404 274.165 168.131 275.417 168.39C276.669 168.649 277.972 168.42 279.062 167.751C280.152 167.082 280.945 166.023 281.28 164.789C281.616 163.555 281.468 162.24 280.868 161.111C280.267 159.982 279.258 159.125 278.048 158.714C276.837 158.303 275.515 158.37 274.351 158.9V158.9Z" fill="#3B3B3B"/>
<path d="M265.343 144C264.132 142.501 261.936 142.267 260.437 143.477C258.938 144.688 258.704 146.884 259.914 148.383L272.568 164.053C273.778 165.552 275.975 165.786 277.474 164.575C278.973 163.365 279.207 161.168 277.996 159.669L265.343 144Z" fill="#F6F9F6"/>
<path d="M277.082 165.77C276.215 166.169 275.24 166.269 274.311 166.054C273.381 165.84 272.549 165.323 271.944 164.586L259.297 148.883C258.581 147.997 258.246 146.862 258.366 145.729C258.486 144.595 259.052 143.556 259.938 142.84C260.825 142.124 261.959 141.789 263.093 141.909C264.226 142.029 265.265 142.595 265.981 143.481L278.578 159.189C279.29 160.077 279.623 161.211 279.503 162.343C279.382 163.475 278.819 164.514 277.937 165.232V165.232C277.673 165.443 277.386 165.623 277.082 165.77V165.77ZM261.485 143.762C261.28 143.831 261.084 143.922 260.899 144.033C260.352 144.479 260.002 145.122 259.923 145.824C259.845 146.525 260.045 147.229 260.48 147.785L273.19 163.547C273.4 163.851 273.67 164.108 273.984 164.302C274.298 164.496 274.648 164.624 275.014 164.676C275.379 164.729 275.751 164.705 276.107 164.608C276.463 164.51 276.794 164.339 277.081 164.107C277.368 163.875 277.604 163.586 277.775 163.259C277.945 162.931 278.045 162.572 278.07 162.204C278.095 161.836 278.044 161.466 277.92 161.119C277.795 160.771 277.601 160.453 277.348 160.185L264.758 144.491C264.375 144.018 263.843 143.689 263.249 143.556C262.655 143.424 262.033 143.496 261.485 143.762V143.762Z" fill="#3B3B3B"/>
<path d="M305.096 147.54C308.011 146.193 309.282 142.738 307.935 139.823C306.588 136.908 303.133 135.637 300.218 136.984C297.303 138.331 296.032 141.786 297.379 144.701C298.726 147.616 302.181 148.887 305.096 147.54Z" fill="#3B3B3B"/>
<path d="M305.434 148.273C303.908 148.97 302.174 149.059 300.585 148.522C298.997 147.985 297.672 146.862 296.882 145.383C296.092 143.903 295.896 142.178 296.334 140.559C296.772 138.94 297.81 137.549 299.238 136.669C300.666 135.789 302.375 135.487 304.018 135.824C305.661 136.16 307.114 137.111 308.081 138.482C309.047 139.852 309.455 141.54 309.22 143.201C308.986 144.861 308.127 146.37 306.819 147.42C306.392 147.757 305.927 148.043 305.434 148.273V148.273ZM300.562 137.731C300.187 137.905 299.834 138.122 299.509 138.378C298.481 139.215 297.824 140.424 297.684 141.742C297.543 143.06 297.929 144.381 298.758 145.415C299.153 145.975 299.658 146.447 300.243 146.803C300.828 147.159 301.479 147.392 302.158 147.486C302.836 147.581 303.526 147.535 304.186 147.352C304.846 147.169 305.461 146.852 305.994 146.422C306.526 145.992 306.965 145.457 307.283 144.85C307.6 144.244 307.79 143.579 307.841 142.896C307.891 142.213 307.801 141.527 307.576 140.88C307.351 140.234 306.995 139.64 306.532 139.136V139.136C306.123 138.623 305.615 138.197 305.039 137.883C304.463 137.568 303.83 137.372 303.177 137.306C302.28 137.193 301.37 137.325 300.542 137.687L300.562 137.731Z" fill="#3B3B3B"/>
<path d="M291.55 122.831C290.34 121.332 288.143 121.098 286.644 122.308C285.145 123.519 284.911 125.715 286.122 127.214L298.775 142.884C299.986 144.383 302.182 144.617 303.681 143.406C305.18 142.196 305.414 139.999 304.204 138.5L291.55 122.831Z" fill="#F6F9F6"/>
<path d="M303.278 144.606C302.574 144.928 301.796 145.053 301.027 144.97C300.466 144.915 299.922 144.747 299.428 144.477C298.933 144.208 298.498 143.841 298.148 143.4L285.552 127.692C285.184 127.254 284.907 126.747 284.738 126.201C284.568 125.655 284.509 125.081 284.565 124.511C284.62 123.942 284.788 123.39 285.06 122.887C285.332 122.383 285.701 121.94 286.146 121.581C286.592 121.222 287.104 120.956 287.654 120.798C288.203 120.64 288.779 120.594 289.347 120.661C289.915 120.728 290.464 120.909 290.961 121.191C291.458 121.473 291.894 121.852 292.243 122.305L304.833 137.998C305.192 138.435 305.46 138.939 305.622 139.481C305.785 140.023 305.837 140.591 305.778 141.154C305.718 141.716 305.547 142.261 305.275 142.757C305.003 143.253 304.634 143.689 304.192 144.041C303.91 144.265 303.604 144.454 303.278 144.606V144.606ZM287.755 122.564C287.551 122.657 287.362 122.781 287.194 122.93C286.644 123.373 286.291 124.017 286.213 124.719C286.134 125.422 286.336 126.127 286.775 126.682L299.372 142.39C299.587 142.663 299.855 142.888 300.161 143.053C300.467 143.218 300.803 143.318 301.149 143.348C301.5 143.388 301.856 143.359 302.195 143.26C302.534 143.161 302.851 142.995 303.125 142.773C303.663 142.322 304.004 141.679 304.076 140.981C304.116 140.632 304.085 140.28 303.984 139.944C303.884 139.608 303.717 139.296 303.493 139.026L290.897 123.318C290.446 122.78 289.803 122.439 289.105 122.367C288.629 122.309 288.147 122.384 287.711 122.584L287.755 122.564Z" fill="#3B3B3B"/>
<path d="M331.314 126.385C334.229 125.038 335.5 121.583 334.153 118.668C332.806 115.753 329.351 114.482 326.436 115.829C323.521 117.176 322.25 120.631 323.597 123.546C324.944 126.461 328.399 127.732 331.314 126.385Z" fill="#3B3B3B"/>
<path d="M331.648 127.103C330.52 127.617 329.27 127.805 328.041 127.644C326.812 127.483 325.653 126.98 324.695 126.193C323.738 125.405 323.021 124.365 322.625 123.19C322.23 122.016 322.172 120.753 322.458 119.547C322.745 118.341 323.364 117.24 324.245 116.369C325.127 115.497 326.235 114.891 327.444 114.618C328.654 114.345 329.915 114.417 331.085 114.826C332.255 115.235 333.287 115.964 334.064 116.93C334.617 117.61 335.03 118.392 335.278 119.232C335.527 120.071 335.607 120.952 335.513 121.823C335.419 122.694 335.153 123.538 334.731 124.305C334.308 125.072 333.738 125.748 333.053 126.294C332.617 126.617 332.146 126.889 331.648 127.103ZM326.776 116.562C326.401 116.736 326.048 116.953 325.723 117.208C324.695 118.044 324.04 119.254 323.902 120.571C323.764 121.889 324.154 123.208 324.986 124.239C325.827 125.251 327.031 125.892 328.341 126.023C329.65 126.154 330.958 125.764 331.982 124.938C332.495 124.527 332.921 124.018 333.237 123.441C333.552 122.864 333.751 122.23 333.82 121.576C333.89 120.922 333.83 120.261 333.643 119.63C333.457 118.999 333.147 118.412 332.733 117.901V117.901C332.027 117.052 331.06 116.461 329.982 116.218C328.905 115.976 327.778 116.097 326.776 116.562V116.562Z" fill="#3B3B3B"/>
<path d="M317.756 101.663C316.545 100.164 314.349 99.9305 312.85 101.141C311.351 102.351 311.117 104.548 312.327 106.047L324.981 121.716C326.191 123.215 328.388 123.449 329.887 122.239C331.386 121.028 331.62 118.832 330.409 117.333L317.756 101.663Z" fill="#F6F9F6"/>
<path d="M329.49 123.438C328.787 123.762 328.008 123.888 327.239 123.803C326.678 123.747 326.134 123.58 325.64 123.31C325.145 123.04 324.71 122.674 324.36 122.233L311.691 106.559C310.988 105.673 310.659 104.548 310.775 103.423C310.833 102.863 311.002 102.32 311.272 101.826C311.541 101.332 311.906 100.896 312.345 100.545C313.228 99.8398 314.35 99.5063 315.474 99.6148C316.036 99.6754 316.58 99.8467 317.075 100.119C317.57 100.391 318.007 100.758 318.359 101.199L330.956 116.907C331.312 117.344 331.578 117.848 331.738 118.389C331.899 118.929 331.95 119.496 331.89 120.057C331.83 120.618 331.659 121.161 331.387 121.655C331.116 122.149 330.749 122.585 330.308 122.936C330.057 123.137 329.783 123.306 329.49 123.438V123.438ZM313.886 101.452C313.678 101.513 313.48 101.604 313.299 101.723C312.759 102.167 312.415 102.805 312.341 103.5C312.268 104.209 312.474 104.918 312.916 105.476L325.586 121.15C325.804 121.42 326.073 121.643 326.378 121.808C326.683 121.972 327.018 122.074 327.363 122.108C328.071 122.178 328.779 121.966 329.332 121.518V121.518C329.882 121.075 330.234 120.432 330.31 119.729C330.386 119.027 330.179 118.324 329.737 117.773L317.14 102.065C316.745 101.613 316.209 101.307 315.619 101.196C315.029 101.085 314.418 101.175 313.886 101.452V101.452Z" fill="#3B3B3B"/>
<path d="M357.527 105.214C360.442 103.867 361.713 100.412 360.366 97.497C359.019 94.5819 355.564 93.3108 352.649 94.6579C349.734 96.0049 348.463 99.46 349.81 102.375C351.157 105.29 354.612 106.561 357.527 105.214Z" fill="#3B3B3B"/>
<path d="M357.831 105.876C356.703 106.39 355.453 106.577 354.224 106.416C352.995 106.255 351.836 105.752 350.879 104.965C349.921 104.178 349.204 103.138 348.808 101.963C348.413 100.788 348.355 99.5259 348.642 98.3199C348.928 97.1139 349.547 96.0125 350.429 95.1411C351.31 94.2696 352.418 93.663 353.628 93.3903C354.837 93.1176 356.098 93.1898 357.268 93.5987C358.439 94.0075 359.471 94.7366 360.247 95.7029C360.8 96.3821 361.213 97.1642 361.462 98.0041C361.71 98.8439 361.79 99.7248 361.696 100.596C361.602 101.466 361.336 102.31 360.914 103.077C360.492 103.845 359.921 104.521 359.236 105.066C358.801 105.39 358.329 105.661 357.831 105.876V105.876ZM352.96 95.3341C352.582 95.5063 352.23 95.7288 351.913 95.9956C351.148 96.6178 350.584 97.4529 350.293 98.3953C350.001 99.3378 349.996 100.345 350.277 101.291C350.558 102.236 351.113 103.077 351.872 103.708C352.631 104.338 353.56 104.729 354.541 104.832C355.522 104.935 356.511 104.744 357.384 104.285C358.257 103.826 358.975 103.118 359.446 102.252C359.917 101.385 360.121 100.398 360.031 99.4159C359.942 98.4335 359.563 97.4997 358.943 96.7323V96.7323C358.237 95.8834 357.27 95.2918 356.193 95.0495C355.115 94.8072 353.988 94.9279 352.987 95.3927L352.96 95.3341Z" fill="#3B3B3B"/>
<path d="M343.965 80.4971C342.755 78.9981 340.558 78.7642 339.059 79.9747C337.56 81.1852 337.326 83.3817 338.537 84.8807L351.19 100.55C352.401 102.049 354.597 102.283 356.096 101.073C357.595 99.8621 357.829 97.6656 356.619 96.1666L343.965 80.4971Z" fill="#F6F9F6"/>
<path d="M355.702 102.268C354.838 102.668 353.864 102.768 352.936 102.552C352.008 102.337 351.179 101.817 350.579 101.077L337.916 85.4177C337.2 84.5312 336.865 83.3965 336.985 82.2632C337.106 81.1299 337.671 80.0907 338.558 79.3744C339.444 78.658 340.579 78.3232 341.712 78.4434C342.845 78.5637 343.885 79.1293 344.601 80.0157L357.197 95.7236C357.551 96.1616 357.816 96.6652 357.975 97.2056C358.134 97.7459 358.185 98.3124 358.125 98.8725C358.065 99.4326 357.894 99.9752 357.624 100.469C357.354 100.964 356.988 101.4 356.549 101.752V101.752C356.29 101.96 356.006 102.134 355.702 102.268V102.268ZM340.12 80.2535C339.924 80.3476 339.739 80.4631 339.568 80.5979C339.017 81.0416 338.664 81.6849 338.586 82.3877C338.507 83.0904 338.71 83.7957 339.149 84.35L351.818 100.024C352.282 100.516 352.914 100.815 353.589 100.861C354.264 100.907 354.931 100.696 355.457 100.271C355.982 99.8456 356.328 99.2375 356.424 98.5681C356.521 97.8988 356.36 97.2178 355.976 96.6616L343.38 80.9537C342.995 80.4862 342.464 80.1626 341.872 80.0355C341.28 79.9084 340.663 79.9852 340.12 80.2535V80.2535Z" fill="#3B3B3B"/>
<path d="M322.889 345.369C322.766 345.424 322.632 345.45 322.497 345.443C322.391 345.437 322.287 345.409 322.191 345.362C322.096 345.315 322.011 345.249 321.941 345.169C321.871 345.089 321.817 344.996 321.783 344.895C321.749 344.795 321.736 344.688 321.743 344.582L322.246 335.969C322.25 335.863 322.275 335.76 322.32 335.664C322.364 335.568 322.427 335.482 322.506 335.411C322.584 335.34 322.676 335.285 322.776 335.25C322.875 335.215 322.981 335.201 323.087 335.207C323.193 335.212 323.298 335.238 323.395 335.284C323.491 335.33 323.578 335.394 323.649 335.474C323.721 335.553 323.776 335.646 323.811 335.747C323.847 335.848 323.861 335.955 323.855 336.062L323.358 344.689C323.345 344.833 323.295 344.972 323.213 345.091C323.131 345.21 323.019 345.305 322.889 345.369V345.369Z" fill="#3B3B3B"/>
<path d="M262.793 217.938C264.299 217.242 264.956 215.457 264.26 213.951C263.564 212.444 261.779 211.788 260.273 212.484C258.767 213.18 258.11 214.965 258.806 216.471C259.502 217.977 261.287 218.634 262.793 217.938Z" fill="#E7E7E7"/>
<path d="M381.895 119.985C380.931 120.789 379.733 121.262 378.479 121.332C377.416 121.379 376.398 121.775 375.583 122.457C374.741 123.099 374.139 124.004 373.87 125.028C373.536 126.24 372.822 127.312 371.832 128.087C370.873 128.889 369.679 129.359 368.431 129.427C367.368 129.474 366.35 129.87 365.534 130.552C364.693 131.194 364.09 132.099 363.822 133.123C363.49 134.33 362.781 135.399 361.799 136.175C360.83 136.973 359.635 137.444 358.382 137.523C357.322 137.556 356.306 137.95 355.501 138.641C354.658 139.287 354.051 140.193 353.774 141.218C353.446 142.427 352.736 143.497 351.75 144.27C350.782 145.068 349.586 145.539 348.334 145.618C347.28 145.682 346.271 146.074 345.449 146.737C344.627 147.401 344.032 148.304 343.747 149.321C343.443 150.558 342.738 151.659 341.743 152.453C340.787 153.261 339.591 153.733 338.341 153.794C337.287 153.859 336.278 154.25 335.456 154.913C334.634 155.577 334.039 156.48 333.754 157.497C333.405 158.698 332.697 159.764 331.724 160.551C330.752 161.337 329.562 161.807 328.314 161.897C327.251 161.944 326.234 162.339 325.418 163.022C324.577 163.664 323.974 164.569 323.706 165.592C323.359 166.795 322.651 167.862 321.678 168.649C320.705 169.435 319.514 169.904 318.266 169.992C317.211 170.057 316.203 170.448 315.381 171.111C314.559 171.775 313.964 172.678 313.679 173.695C313.33 174.896 312.622 175.962 311.649 176.749C310.677 177.535 309.487 178.005 308.239 178.095C307.174 178.132 306.153 178.528 305.343 179.22C304.497 179.857 303.893 180.764 303.63 181.79C303.27 182.985 302.551 184.04 301.571 184.811C300.59 185.583 299.396 186.033 298.15 186.102C297.097 186.176 296.092 186.572 295.273 187.238C294.453 187.903 293.858 188.805 293.57 189.82C293.237 191.03 292.52 192.099 291.525 192.864C290.569 193.673 289.373 194.144 288.123 194.205C287.069 194.27 286.06 194.661 285.238 195.324C284.416 195.988 283.821 196.891 283.536 197.908C283.236 199.117 282.557 200.197 281.598 200.992C280.644 201.802 279.447 202.274 278.197 202.333C277.134 202.38 276.116 202.775 275.3 203.458C275.195 203.542 275.061 203.58 274.927 203.565C274.794 203.55 274.671 203.483 274.587 203.378C274.503 203.273 274.465 203.139 274.48 203.005C274.495 202.871 274.562 202.749 274.667 202.665C275.622 201.855 276.818 201.383 278.069 201.324C279.126 201.26 280.137 200.868 280.961 200.203C281.786 199.538 282.383 198.634 282.671 197.614C283.003 196.407 283.712 195.338 284.694 194.562C285.663 193.764 286.858 193.293 288.11 193.215C289.165 193.15 290.173 192.759 290.995 192.095C291.817 191.431 292.412 190.528 292.697 189.511C293.03 188.304 293.739 187.235 294.721 186.459C295.689 185.661 296.885 185.19 298.137 185.112C299.192 185.047 300.2 184.656 301.022 183.992C301.844 183.328 302.439 182.425 302.724 181.408C303.066 180.24 303.765 179.208 304.723 178.456C305.678 177.647 306.874 177.176 308.125 177.116C309.187 177.069 310.205 176.674 311.021 175.991C311.857 175.344 312.458 174.441 312.733 173.42C313.08 172.218 313.787 171.151 314.76 170.364C315.733 169.577 316.925 169.108 318.173 169.021C319.227 168.956 320.236 168.565 321.058 167.901C321.88 167.238 322.475 166.335 322.76 165.317C323.098 164.108 323.812 163.036 324.798 162.258C325.757 161.455 326.951 160.985 328.2 160.918C329.263 160.871 330.28 160.476 331.096 159.793C331.937 159.151 332.54 158.246 332.808 157.222C333.141 156.015 333.85 154.946 334.832 154.17C335.8 153.373 336.996 152.901 338.248 152.823C339.303 152.758 340.311 152.367 341.133 151.703C341.955 151.04 342.55 150.137 342.835 149.119C343.169 147.908 343.884 146.835 344.873 146.06C345.836 145.261 347.032 144.796 348.282 144.734C349.337 144.661 350.345 144.264 351.167 143.597C351.989 142.931 352.586 142.027 352.877 141.01C353.23 139.811 353.941 138.749 354.915 137.966C355.888 137.182 357.077 136.714 358.323 136.625C359.38 136.577 360.392 136.184 361.205 135.507C362.041 134.859 362.642 133.957 362.917 132.936C363.242 131.72 363.959 130.645 364.955 129.877C365.91 129.067 367.106 128.595 368.357 128.536C369.42 128.489 370.437 128.094 371.253 127.411C372.094 126.769 372.697 125.865 372.966 124.841C373.316 123.637 374.026 122.57 375.001 121.782C375.977 120.994 377.17 120.524 378.42 120.435C379.477 120.386 380.489 119.994 381.302 119.316C382.144 118.67 382.751 117.764 383.029 116.739C383.348 115.526 384.059 114.453 385.052 113.687C385.16 113.604 385.295 113.565 385.43 113.579C385.566 113.592 385.69 113.657 385.78 113.76C385.831 113.856 385.849 113.967 385.831 114.075C385.813 114.182 385.761 114.281 385.682 114.357C384.839 115.003 384.232 115.909 383.955 116.934C383.617 118.147 382.894 119.218 381.895 119.985Z" fill="#E7E7E7"/>
<path d="M390.256 130.337C389.296 131.149 388.095 131.622 386.84 131.684C385.776 131.728 384.758 132.13 383.95 132.824C383.104 133.462 382.5 134.368 382.238 135.395C381.906 136.605 381.188 137.674 380.193 138.439C379.245 139.255 378.054 139.736 376.805 139.809C375.746 139.871 374.732 140.264 373.908 140.932C373.084 141.6 372.49 142.51 372.21 143.534C371.842 144.723 371.12 145.773 370.141 146.543C369.163 147.313 367.973 147.768 366.73 147.845C365.673 147.893 364.661 148.286 363.848 148.963C363.005 149.61 362.399 150.516 362.121 151.541C361.776 152.741 361.071 153.806 360.1 154.592C359.13 155.378 357.941 155.846 356.696 155.934C355.633 155.98 354.615 156.376 353.8 157.058C352.958 157.701 352.356 158.605 352.087 159.629C351.797 160.876 351.108 161.994 350.125 162.813C349.156 163.611 347.961 164.082 346.709 164.161C345.654 164.225 344.646 164.617 343.824 165.28C343.002 165.944 342.407 166.847 342.121 167.864C341.773 169.065 341.065 170.131 340.092 170.917C339.119 171.704 337.929 172.174 336.682 172.264C335.617 172.301 334.596 172.697 333.785 173.388C332.939 174.026 332.336 174.933 332.073 175.959C331.705 177.149 330.984 178.199 330.005 178.969C329.026 179.739 327.836 180.193 326.593 180.271C325.54 180.345 324.535 180.741 323.715 181.406C322.896 182.072 322.301 182.973 322.012 183.989C321.676 185.197 320.959 186.265 319.967 187.033C319.012 187.842 317.816 188.314 316.566 188.374C315.503 188.421 314.485 188.816 313.669 189.499C312.828 190.141 312.226 191.045 311.957 192.069C311.611 193.271 310.903 194.338 309.93 195.125C308.957 195.912 307.766 196.381 306.517 196.469C305.463 196.533 304.455 196.925 303.633 197.588C302.811 198.252 302.216 199.155 301.93 200.172C301.582 201.373 300.873 202.439 299.901 203.226C298.928 204.012 297.738 204.482 296.491 204.572C295.431 204.606 294.415 205.001 293.609 205.69C292.768 206.332 292.165 207.237 291.897 208.26C291.559 209.47 290.845 210.541 289.859 211.319C288.896 212.118 287.7 212.584 286.45 212.645C285.386 212.689 284.368 213.091 283.561 213.785C283.455 213.866 283.321 213.904 283.188 213.889C283.055 213.874 282.933 213.808 282.848 213.705C282.765 213.597 282.726 213.462 282.74 213.327C282.753 213.192 282.818 213.067 282.921 212.977C283.884 212.181 285.075 211.712 286.322 211.637C287.387 211.6 288.408 211.203 289.219 210.512C290.064 209.874 290.668 208.968 290.931 207.941C291.299 206.752 292.02 205.702 292.999 204.932C293.978 204.162 295.168 203.708 296.411 203.63C297.466 203.565 298.474 203.174 299.296 202.51C300.118 201.847 300.713 200.944 300.998 199.927C301.345 198.724 302.053 197.657 303.026 196.87C303.998 196.083 305.19 195.614 306.438 195.527C307.495 195.479 308.507 195.086 309.32 194.409C310.162 193.762 310.769 192.857 311.047 191.831C311.375 190.623 312.085 189.552 313.07 188.779C314.033 187.983 315.224 187.514 316.472 187.439C317.534 187.392 318.552 186.996 319.368 186.314C320.209 185.672 320.812 184.767 321.08 183.743C321.399 182.523 322.101 181.437 323.083 180.647C324.052 179.849 325.248 179.378 326.5 179.299C327.554 179.235 328.562 178.844 329.384 178.18C330.206 177.516 330.801 176.613 331.087 175.596C331.423 174.388 332.14 173.32 333.132 172.552C334.086 171.741 335.283 171.27 336.533 171.211C337.597 171.167 338.615 170.766 339.423 170.072C340.269 169.434 340.873 168.527 341.135 167.501C341.489 166.303 342.2 165.241 343.173 164.457C344.146 163.674 345.335 163.206 346.582 163.116C347.636 163.051 348.644 162.66 349.466 161.997C350.288 161.333 350.883 160.43 351.169 159.413C351.503 158.201 352.217 157.129 353.207 156.354C354.167 155.552 355.36 155.081 356.609 155.013C357.666 154.949 358.677 154.557 359.501 153.892C360.326 153.227 360.923 152.323 361.21 151.303C361.543 150.096 362.252 149.027 363.234 148.251C364.202 147.453 365.398 146.982 366.65 146.903C367.707 146.855 368.719 146.463 369.532 145.785C370.374 145.139 370.981 144.233 371.259 143.208C371.587 141.999 372.297 140.929 373.282 140.156C374.251 139.358 375.446 138.887 376.698 138.808C377.753 138.744 378.761 138.352 379.583 137.689C380.405 137.025 381 136.122 381.286 135.105C381.619 133.893 382.334 132.821 383.324 132.046C384.292 131.248 385.488 130.777 386.74 130.699C387.8 130.665 388.817 130.271 389.622 129.581C390.464 128.934 391.071 128.028 391.349 127.003C391.681 125.796 392.39 124.727 393.372 123.951C393.425 123.908 393.485 123.876 393.55 123.856C393.615 123.836 393.683 123.83 393.751 123.837C393.819 123.843 393.884 123.863 393.944 123.896C394.004 123.928 394.057 123.971 394.1 124.024C394.177 124.129 394.214 124.259 394.202 124.389C394.19 124.52 394.13 124.641 394.035 124.73C393.192 125.377 392.585 126.282 392.308 127.307C391.975 128.515 391.254 129.58 390.256 130.337Z" fill="#E7E7E7"/>
<path d="M352.907 173.805C352.39 174.435 352.026 175.176 351.843 175.969C351.664 176.887 351.168 177.713 350.442 178.302C349.716 178.891 348.806 179.207 347.871 179.193C346.714 179.168 345.589 179.568 344.707 180.317C343.807 181.026 343.187 182.031 342.958 183.154C342.787 184.077 342.283 184.905 341.542 185.48C340.823 186.087 339.904 186.404 338.964 186.369C337.815 186.357 336.699 186.753 335.815 187.486C334.907 188.2 334.284 189.213 334.057 190.345C333.887 191.268 333.383 192.096 332.642 192.671C331.923 193.278 331.003 193.595 330.063 193.56C328.914 193.548 327.798 193.943 326.914 194.677C326.007 195.39 325.384 196.404 325.157 197.536C324.986 198.459 324.482 199.287 323.741 199.862C323.018 200.461 322.102 200.777 321.163 200.751C320.012 200.768 318.901 201.176 318.014 201.91C317.126 202.643 316.516 203.658 316.284 204.785C316.119 205.71 315.614 206.54 314.868 207.112C314.151 207.72 313.236 208.042 312.296 208.016C311.146 207.988 310.024 208.38 309.141 209.118C308.247 209.838 307.631 210.846 307.398 211.969C307.222 212.89 306.719 213.716 305.982 214.296C305.263 214.903 304.344 215.22 303.404 215.185C302.255 215.172 301.139 215.568 300.255 216.302C299.347 217.015 298.724 218.029 298.498 219.16C298.327 220.083 297.823 220.911 297.082 221.487C296.358 222.085 295.442 222.4 294.503 222.376C293.355 222.363 292.238 222.759 291.354 223.493C291.302 223.534 291.258 223.585 291.225 223.644C291.192 223.702 291.172 223.766 291.164 223.833C291.157 223.899 291.163 223.967 291.182 224.031C291.201 224.095 291.232 224.154 291.275 224.206C291.318 224.259 291.371 224.302 291.43 224.334C291.49 224.367 291.556 224.387 291.623 224.393C291.691 224.4 291.759 224.394 291.824 224.374C291.889 224.354 291.95 224.322 292.002 224.279C292.721 223.682 293.632 223.368 294.566 223.397C295.713 223.395 296.826 223.001 297.719 222.281C298.613 221.561 299.233 220.557 299.479 219.436C299.614 218.486 300.106 217.623 300.854 217.022C301.578 216.423 302.494 216.107 303.432 216.133C304.583 216.116 305.694 215.708 306.582 214.974C307.469 214.241 308.079 213.226 308.312 212.099C308.482 211.176 308.986 210.348 309.727 209.772C310.448 209.171 311.361 208.85 312.299 208.868C313.45 208.896 314.571 208.504 315.455 207.766C316.355 207.052 316.973 206.042 317.197 204.915C317.374 203.994 317.876 203.168 318.613 202.588C319.332 201.981 320.251 201.664 321.191 201.699C322.34 201.712 323.456 201.316 324.34 200.582C325.248 199.869 325.871 198.855 326.098 197.724C326.268 196.801 326.772 195.973 327.514 195.397C328.237 194.798 329.153 194.482 330.092 194.508C331.243 194.491 332.354 194.083 333.241 193.349C334.128 192.616 334.739 191.601 334.971 190.474C335.149 189.552 335.647 188.723 336.376 188.133C337.106 187.542 338.02 187.227 338.958 187.244C340.109 187.227 341.22 186.818 342.108 186.085C342.995 185.351 343.605 184.337 343.838 183.21C344.063 182.335 344.591 181.568 345.328 181.044C346.048 180.443 346.961 180.122 347.899 180.141C349.05 180.168 350.172 179.776 351.055 179.038C351.956 178.324 352.573 177.314 352.798 176.187C352.928 175.6 353.174 175.045 353.52 174.554L352.907 173.805Z" fill="#E7E7E7"/>
<path d="M291.863 253.932C293.369 253.236 294.026 251.451 293.33 249.944C292.634 248.438 290.849 247.782 289.343 248.478C287.837 249.174 287.18 250.959 287.876 252.465C288.572 253.971 290.357 254.628 291.863 253.932Z" fill="#E7E7E7"/>
<path d="M383.094 174.677C382.545 175.355 382.15 176.144 381.939 176.99C381.661 178.015 381.054 178.921 380.212 179.567C379.399 180.245 378.387 180.637 377.33 180.686C376.082 180.773 374.89 181.242 373.917 182.029C372.944 182.816 372.237 183.883 371.89 185.085C371.615 186.106 371.014 187.009 370.178 187.656C369.365 188.333 368.353 188.726 367.296 188.774C366.053 188.852 364.863 189.306 363.884 190.076C362.905 190.846 362.184 191.896 361.816 193.086C361.529 194.105 360.931 195.01 360.107 195.675C359.282 196.339 358.271 196.731 357.214 196.796C355.966 196.885 354.776 197.355 353.804 198.142C352.831 198.928 352.123 199.994 351.774 201.195C351.489 202.212 350.894 203.115 350.072 203.779C349.25 204.443 348.242 204.834 347.187 204.899C345.935 204.977 344.74 205.448 343.771 206.246C342.785 207.019 342.076 208.089 341.748 209.298C341.472 210.319 340.871 211.222 340.035 211.869C339.219 212.551 338.202 212.947 337.139 212.994C335.889 213.055 334.693 213.526 333.737 214.334C332.742 215.104 332.027 216.179 331.699 217.393C331.414 218.41 330.819 219.314 329.997 219.977C329.175 220.641 328.166 221.032 327.112 221.097C325.866 221.186 324.677 221.654 323.703 222.438C322.73 223.221 322.019 224.283 321.666 225.482C321.403 226.508 320.799 227.414 319.953 228.052C319.146 228.746 318.128 229.148 317.064 229.192C315.821 229.261 314.629 229.711 313.651 230.481C312.673 231.251 311.956 232.304 311.598 233.497C311.323 234.517 310.722 235.42 309.886 236.067C309.075 236.758 308.054 237.155 306.989 237.192C305.742 237.268 304.552 237.738 303.588 238.533C303.485 238.618 303.419 238.74 303.404 238.873C303.389 239.006 303.426 239.14 303.508 239.246C303.549 239.298 303.6 239.342 303.659 239.375C303.717 239.408 303.781 239.428 303.848 239.436C303.914 239.443 303.981 239.437 304.046 239.418C304.11 239.399 304.169 239.368 304.221 239.325C305.034 238.648 306.046 238.255 307.103 238.207C308.346 238.129 309.536 237.675 310.515 236.905C311.494 236.135 312.215 235.085 312.583 233.895C312.87 232.876 313.468 231.971 314.292 231.306C315.117 230.642 316.128 230.25 317.185 230.185C318.432 230.096 319.623 229.626 320.595 228.839C321.568 228.053 322.276 226.987 322.625 225.786C322.91 224.769 323.505 223.866 324.327 223.202C325.149 222.538 326.157 222.147 327.212 222.082C328.459 221.993 329.65 221.523 330.622 220.736C331.595 219.95 332.303 218.884 332.651 217.683C332.937 216.666 333.532 215.763 334.354 215.099C335.176 214.435 336.184 214.044 337.239 213.98C338.494 213.917 339.695 213.444 340.655 212.632C341.651 211.869 342.363 210.795 342.678 209.58C342.966 208.56 343.563 207.656 344.387 206.991C345.212 206.326 346.223 205.934 347.28 205.87C348.53 205.808 349.726 205.337 350.682 204.529C351.677 203.764 352.394 202.695 352.727 201.485C353.016 200.469 353.61 199.568 354.43 198.903C355.249 198.237 356.254 197.841 357.307 197.767C358.563 197.704 359.763 197.231 360.723 196.419C361.715 195.651 362.432 194.583 362.768 193.375C363.054 192.358 363.649 191.455 364.471 190.791C365.293 190.128 366.301 189.736 367.355 189.672C368.603 189.582 369.793 189.112 370.766 188.326C371.738 187.539 372.446 186.473 372.795 185.272C373.081 184.255 373.676 183.352 374.498 182.688C375.32 182.025 376.328 181.633 377.382 181.569C378.631 181.481 379.822 181.012 380.795 180.225C381.768 179.438 382.475 178.372 382.822 177.169C383.018 176.515 383.341 175.906 383.773 175.377L383.094 174.677Z" fill="#E7E7E7"/>
<path d="M370.323 203.139L370.204 203.497C369.935 204.52 369.333 205.425 368.492 206.067C367.676 206.75 366.658 207.145 365.595 207.192C364.348 207.282 363.157 207.752 362.185 208.538C361.212 209.325 360.504 210.39 360.156 211.592C359.88 212.612 359.279 213.515 358.443 214.162C357.63 214.84 356.618 215.232 355.562 215.28C354.318 215.358 353.128 215.812 352.15 216.582C351.171 217.352 350.449 218.402 350.081 219.592C349.791 220.61 349.194 221.513 348.371 222.18C347.549 222.846 346.542 223.243 345.486 223.317C344.236 223.378 343.041 223.844 342.078 224.643C341.088 225.418 340.374 226.49 340.04 227.702C339.771 228.726 339.169 229.63 338.327 230.272C337.522 230.963 336.506 231.357 335.446 231.39C334.194 231.469 332.998 231.94 332.029 232.738C331.047 233.514 330.338 234.583 330.006 235.79C329.721 236.807 329.126 237.71 328.304 238.374C327.482 239.037 326.473 239.429 325.419 239.493C324.171 239.581 322.979 240.05 322.006 240.837C321.033 241.624 320.326 242.691 319.979 243.893C319.692 244.913 319.095 245.817 318.27 246.482C317.445 247.147 316.435 247.539 315.377 247.603C314.127 247.663 312.931 248.134 311.976 248.944C311.924 248.985 311.88 249.037 311.848 249.095C311.816 249.153 311.796 249.217 311.788 249.284C311.781 249.35 311.786 249.417 311.805 249.481C311.823 249.545 311.854 249.605 311.896 249.657C311.938 249.709 311.989 249.752 312.047 249.784C312.106 249.816 312.17 249.837 312.236 249.844C312.302 249.852 312.369 249.846 312.433 249.827C312.497 249.809 312.557 249.778 312.609 249.736C313.42 249.045 314.44 248.649 315.505 248.612C316.753 248.536 317.944 248.067 318.907 247.271C319.892 246.498 320.602 245.427 320.93 244.219C321.218 243.199 321.815 242.294 322.639 241.63C323.464 240.965 324.475 240.573 325.532 240.509C326.78 240.419 327.97 239.949 328.942 239.162C329.915 238.376 330.623 237.31 330.972 236.109C331.257 235.092 331.852 234.189 332.674 233.525C333.496 232.861 334.505 232.47 335.559 232.406C336.802 232.328 337.992 231.874 338.971 231.104C339.95 230.334 340.671 229.284 341.039 228.094C341.302 227.068 341.906 226.161 342.752 225.523C343.559 224.829 344.577 224.428 345.641 224.384C346.888 224.303 348.078 223.839 349.051 223.055C350.023 222.272 350.729 221.206 351.073 220.006C351.348 218.985 351.949 218.082 352.785 217.435C353.596 216.744 354.617 216.347 355.682 216.31C356.934 216.232 358.129 215.76 359.098 214.963C360.08 214.187 360.789 213.117 361.121 211.911C361.39 210.887 361.992 209.982 362.834 209.34C363.649 208.657 364.667 208.262 365.73 208.215C366.979 208.148 368.172 207.678 369.132 206.875C370.053 206.164 370.732 205.185 371.075 204.073L370.323 203.139Z" fill="#E7E7E7"/>
<path d="M313.546 280.795C315.052 280.099 315.708 278.313 315.012 276.807C314.317 275.301 312.531 274.644 311.025 275.34C309.519 276.036 308.862 277.822 309.558 279.328C310.254 280.834 312.04 281.49 313.546 280.795Z" fill="#E7E7E7"/>
<path d="M326.03 266.345C326.831 265.649 327.85 265.253 328.911 265.227C330.159 265.137 331.349 264.667 332.322 263.881C333.294 263.094 334.003 262.028 334.351 260.827C334.637 259.81 335.232 258.907 336.054 258.243C336.876 257.58 337.884 257.188 338.938 257.124C340.191 257.045 341.386 256.574 342.355 255.776C343.337 255 344.046 253.931 344.378 252.724C344.664 251.707 345.259 250.804 346.081 250.14C346.903 249.477 347.911 249.085 348.965 249.021C350.221 248.958 351.421 248.485 352.381 247.673C353.378 246.91 354.09 245.836 354.405 244.621C354.692 243.602 355.289 242.697 356.114 242.032C356.939 241.367 357.95 240.975 359.007 240.911C360.257 240.85 361.452 240.379 362.408 239.57C363.403 238.805 364.121 237.736 364.453 236.526C364.742 235.511 365.337 234.609 366.156 233.944C366.976 233.279 367.981 232.882 369.034 232.808C370.283 232.728 371.476 232.263 372.451 231.478C373.426 230.693 374.135 229.626 374.48 228.423C374.767 227.404 375.365 226.499 376.189 225.834C377.014 225.169 378.025 224.777 379.082 224.713C380.33 224.623 381.52 224.153 382.492 223.367C383.465 222.58 384.173 221.515 384.522 220.313C384.79 219.29 385.393 218.385 386.234 217.743C386.395 217.668 386.527 217.607 386.64 217.466C386.498 217.158 386.355 216.85 386.213 216.543C386.011 216.663 385.817 216.794 385.63 216.937C384.635 217.702 383.917 218.771 383.585 219.981C383.307 221.002 382.715 221.91 381.894 222.577C381.072 223.244 380.061 223.637 379.005 223.699C377.762 223.777 376.572 224.231 375.593 225.001C374.614 225.771 373.893 226.821 373.524 228.011C373.249 229.031 372.648 229.934 371.812 230.581C371.001 231.272 369.981 231.669 368.916 231.706C367.664 231.784 366.468 232.256 365.5 233.053C364.517 233.829 363.808 234.899 363.476 236.106C363.208 237.129 362.605 238.034 361.764 238.676C360.959 239.366 359.942 239.761 358.882 239.794C357.63 239.873 356.434 240.344 355.466 241.142C354.48 241.915 353.771 242.985 353.442 244.194C353.167 245.215 352.566 246.117 351.73 246.765C350.914 247.447 349.897 247.843 348.834 247.889C347.584 247.951 346.388 248.422 345.432 249.23C344.437 250 343.722 251.074 343.394 252.289C343.109 253.306 342.514 254.209 341.692 254.873C340.87 255.536 339.861 255.928 338.807 255.992C337.561 256.082 336.371 256.55 335.398 257.333C334.425 258.117 333.714 259.179 333.361 260.377C333.072 261.393 332.477 262.294 331.657 262.96C330.838 263.625 329.833 264.021 328.78 264.095C327.525 264.159 326.325 264.627 325.357 265.428C325.251 265.515 325.184 265.64 325.17 265.777C325.156 265.913 325.197 266.049 325.284 266.156C325.371 266.262 325.496 266.329 325.633 266.343C325.769 266.357 325.906 266.315 326.012 266.229L326.03 266.345Z" fill="#E7E7E7"/>
<path d="M239.332 295.002C243.79 275.31 251.831 256.595 261.189 238.766C263.508 234.35 266.113 229.783 270.397 227.234C274.681 224.685 281.179 225.116 283.844 229.383C285.908 232.77 284.937 237.062 283.917 240.86L270.487 290.498C278.45 295.619 284.746 302.952 288.605 311.597C292.464 320.242 293.719 329.825 292.215 339.172" fill="#F6F9F6"/>
<path d="M292.465 340.017C292.313 340.086 292.143 340.109 291.979 340.082C291.769 340.039 291.583 339.917 291.462 339.741C291.341 339.564 291.293 339.348 291.328 339.137C294.615 321.106 285.624 300.957 269.945 291.246C269.793 291.161 269.672 291.03 269.599 290.872C269.526 290.714 269.505 290.537 269.539 290.366L282.969 240.729C283.982 236.916 284.834 232.946 282.977 229.89C280.57 225.913 274.55 225.706 270.693 227.987C266.836 230.267 264.172 234.666 261.791 239.217C250.891 259.947 243.986 277.692 239.998 295.245C239.981 295.354 239.941 295.458 239.881 295.551C239.821 295.644 239.743 295.723 239.652 295.785C239.56 295.846 239.457 295.888 239.349 295.908C239.241 295.928 239.129 295.926 239.022 295.902C238.914 295.877 238.813 295.831 238.724 295.766C238.635 295.7 238.561 295.618 238.505 295.523C238.449 295.427 238.413 295.322 238.4 295.212C238.387 295.103 238.396 294.992 238.427 294.886C242.431 277.254 249.393 259.323 260.398 238.473C262.928 233.746 265.517 229.222 269.919 226.619C274.32 224.015 281.488 224.279 284.412 229.067C286.592 232.667 285.685 237.019 284.56 241.168L271.292 290.232C279.285 295.457 285.585 302.895 289.423 311.638C293.262 320.382 294.472 330.054 292.908 339.474C292.881 339.593 292.826 339.703 292.75 339.797C292.673 339.891 292.575 339.967 292.465 340.017Z" fill="#3B3B3B"/>
<path d="M571.438 234.767L542.458 289.758C542.458 289.758 498.164 258.166 475.148 253.447C459.46 250.524 443.508 249.26 427.555 249.676C423.028 245.309 387.248 231.757 396.788 227.953C406.329 224.149 458.51 225.604 463.308 222.319C468.107 219.034 472.304 204.978 461.642 197.806C450.98 190.634 441.64 182.513 432.547 191.021C418.737 203.95 408.113 220.656 400.87 224.234C393.628 227.812 382.237 225.532 385.136 211.631C388.465 195.734 404.926 170.175 423.155 154.332C441.384 138.489 489.195 157.94 516.303 180.678C537.176 191.387 561.096 222.128 571.438 234.767Z" fill="#F6F9F6"/>
<path d="M542.796 290.49L542.649 290.558C542.538 290.582 542.424 290.584 542.312 290.561C542.201 290.539 542.096 290.495 542.002 290.43C541.557 290.12 497.584 258.877 474.985 254.251C459.361 251.356 443.478 250.097 427.594 250.494C427.486 250.497 427.378 250.478 427.278 250.439C427.177 250.4 427.086 250.341 427.008 250.266C425.597 248.907 420.515 246.381 415.091 243.728C402.45 237.435 394.151 233.067 394.323 229.589C394.394 229.031 394.633 228.508 395.008 228.09C395.384 227.671 395.879 227.377 396.426 227.248C401.43 225.255 417.404 224.67 432.871 224.142C446.522 223.652 460.644 223.14 462.785 221.688C464.925 220.237 467.472 215.43 467.448 210.334C467.488 207.991 466.929 205.676 465.824 203.608C464.719 201.541 463.105 199.789 461.135 198.52C460.045 197.778 458.961 197.051 457.907 196.31C448.667 189.905 440.726 184.465 433.033 191.65C427.102 197.432 421.504 203.547 416.267 209.966C410.125 217.234 405.258 222.989 401.215 224.981C396.592 227.26 390.984 227.022 387.575 224.381C385.231 222.582 382.773 218.878 384.308 211.497C387.742 195.018 404.921 169.126 422.601 153.751C431.084 146.272 446.757 145.844 466.626 152.302C484.909 158.425 501.917 167.842 516.811 180.086C536.126 190.003 557.765 216.656 569.4 230.975C570.367 232.183 571.266 233.28 572.081 234.274C572.18 234.396 572.242 234.546 572.257 234.703C572.273 234.86 572.242 235.018 572.169 235.158L543.182 290.134C543.097 290.292 542.961 290.418 542.796 290.49ZM427.853 248.861C443.76 248.473 459.664 249.74 475.309 252.642C496.911 257.036 536.043 284.234 542.169 288.556L570.473 234.839C569.742 233.949 568.962 232.993 568.127 231.955C556.569 217.725 535.042 191.162 515.975 181.434L515.819 181.328C490.425 159.987 441.928 139.091 423.707 154.912C406.257 170.093 389.321 195.587 385.932 211.778C384.789 217.004 385.761 220.878 388.564 223.017C391.367 225.155 396.387 225.469 400.503 223.442C404.253 221.585 409.262 215.676 415.089 208.802C420.356 202.321 425.994 196.152 431.975 190.323C440.607 182.243 449.481 188.355 458.863 194.837C459.91 195.563 460.986 196.311 462.069 197.038C464.254 198.462 466.044 200.413 467.274 202.712C468.504 205.011 469.135 207.583 469.108 210.19C469.13 215.322 466.874 220.759 463.745 222.881C461.397 224.5 450.498 225.017 432.978 225.605C418.379 226.124 401.827 226.691 397.085 228.598C396.602 228.821 396 229.099 395.995 229.511C395.877 232.181 407.94 238.225 415.869 242.14C420.045 244.042 424.054 246.29 427.853 248.861V248.861Z" fill="#3B3B3B"/>
<path d="M372.109 229.873L378.255 245.715L360.135 246.776L350.506 247.347L358.02 241.276L372.109 229.873Z" fill="#F6F9F6"/>
<path d="M378.578 246.455L378.314 246.577L350.588 248.181C350.42 248.191 350.253 248.147 350.111 248.055C349.97 247.964 349.861 247.83 349.801 247.672C349.736 247.513 349.724 247.338 349.765 247.172C349.807 247.006 349.9 246.857 350.032 246.747L371.635 229.274C371.734 229.194 371.851 229.138 371.976 229.112C372.101 229.086 372.23 229.09 372.353 229.123C372.476 229.157 372.589 229.219 372.684 229.304C372.778 229.39 372.851 229.497 372.896 229.616L379.035 245.479C379.079 245.598 379.096 245.725 379.083 245.852C379.071 245.978 379.029 246.099 378.962 246.207C378.861 246.325 378.727 246.411 378.578 246.455V246.455ZM352.977 246.383L377.099 244.986L371.757 231.192L352.977 246.383Z" fill="#3B3B3B"/>
<path d="M501.313 198.101L378.24 245.721C376.297 243.564 374.738 241.088 373.631 238.403C372.647 235.666 372.132 232.782 372.109 229.873L495.182 182.252L501.313 198.101Z" fill="url(#paint0_linear_2614_462)"/>
<path d="M501.652 198.835L378.579 246.455C378.43 246.515 378.266 246.527 378.11 246.492C377.954 246.456 377.812 246.373 377.703 246.255C373.521 241.822 371.238 235.929 371.344 229.836C371.351 229.674 371.405 229.518 371.499 229.387C371.592 229.255 371.722 229.153 371.872 229.093L494.931 181.48C495.03 181.441 495.136 181.422 495.242 181.424C495.348 181.426 495.453 181.449 495.55 181.491C495.648 181.534 495.736 181.595 495.809 181.672C495.883 181.749 495.941 181.839 495.979 181.938L502.111 197.787C502.149 197.885 502.166 197.99 502.163 198.096C502.16 198.201 502.136 198.305 502.092 198.4C502.007 198.597 501.85 198.753 501.652 198.835ZM378.479 244.776L500.265 197.643L494.716 183.287L372.93 230.419C372.957 235.723 374.931 240.833 378.479 244.776V244.776Z" fill="#3B3B3B"/>
<path d="M520.989 190.454L501.301 198.072L495.17 182.225L514.858 174.608C515.435 174.385 516.051 174.277 516.671 174.292C517.29 174.306 517.9 174.443 518.466 174.693C519.033 174.943 519.544 175.303 519.972 175.751C520.4 176.199 520.735 176.727 520.958 177.305L523.691 184.369C524.138 185.535 524.104 186.83 523.597 187.97C523.091 189.111 522.153 190.004 520.989 190.454V190.454Z" fill="#F6F9F6"/>
<path d="M521.618 191.103L521.296 191.252L501.673 198.843C501.574 198.882 501.469 198.901 501.363 198.899C501.256 198.897 501.151 198.874 501.054 198.831C500.957 198.788 500.869 198.727 500.795 198.65C500.722 198.574 500.664 198.483 500.625 198.384L494.487 182.521C494.446 182.423 494.425 182.317 494.427 182.211C494.428 182.105 494.451 182 494.495 181.903C494.539 181.806 494.602 181.719 494.68 181.648C494.759 181.576 494.852 181.522 494.952 181.487L514.575 173.897C515.25 173.632 515.972 173.503 516.698 173.519C517.423 173.535 518.138 173.695 518.802 173.988C519.466 174.282 520.064 174.705 520.564 175.232C521.063 175.758 521.453 176.379 521.711 177.057L524.457 184.115C524.95 185.425 524.933 186.872 524.408 188.169C523.884 189.467 522.89 190.519 521.625 191.118L521.618 191.103ZM501.772 197.054L520.699 189.73C521.178 189.547 521.616 189.27 521.987 188.915C522.358 188.561 522.654 188.136 522.859 187.665C523.072 187.198 523.19 186.692 523.203 186.178C523.216 185.665 523.125 185.153 522.936 184.676L520.205 177.611C520.021 177.133 519.743 176.696 519.389 176.326C519.035 175.955 518.612 175.658 518.143 175.451C517.674 175.245 517.169 175.133 516.656 175.122C516.144 175.112 515.635 175.202 515.157 175.389L496.23 182.712L501.772 197.054Z" fill="#3B3B3B"/>
<path d="M501.624 179.784L499.364 180.658L505.495 196.505L507.755 195.63L501.624 179.784Z" fill="#3B3B3B"/>
<path d="M506.123 178.041L503.863 178.915L509.994 194.762L512.254 193.887L506.123 178.041Z" fill="#3B3B3B"/>
<path d="M358.021 241.278L360.136 246.777L350.507 247.348L358.021 241.278Z" fill="url(#paint1_linear_2614_462)"/>
<path d="M360.472 247.509C360.391 247.563 360.302 247.605 360.208 247.631L350.573 248.187C350.405 248.197 350.238 248.153 350.096 248.062C349.955 247.97 349.846 247.836 349.786 247.679C349.721 247.52 349.709 247.345 349.75 247.179C349.792 247.012 349.885 246.863 350.017 246.754L357.517 240.69C357.615 240.61 357.731 240.554 357.855 240.528C357.979 240.501 358.107 240.505 358.23 240.539C358.354 240.57 358.469 240.632 358.565 240.718C358.661 240.804 358.734 240.912 358.778 241.033L360.914 246.54C360.953 246.634 360.973 246.735 360.973 246.837C360.973 246.939 360.952 247.04 360.913 247.134C360.874 247.228 360.817 247.313 360.745 247.385C360.672 247.457 360.587 247.514 360.492 247.553L360.472 247.509ZM352.977 246.382L358.993 246.04L357.653 242.602L352.977 246.382Z" fill="#3B3B3B"/>
<path d="M428.739 249.43C428.739 249.43 401.514 250.464 394.58 249.203C383.318 247.165 387.359 230.228 394.105 228.925C398.853 227.994 425.551 225.319 431.112 224.955" fill="#F6F9F6"/>
<path d="M429.078 250.163C428.992 250.22 428.899 250.263 428.8 250.292C427.678 250.33 401.387 251.305 394.453 250.044C389.652 249.166 386.752 245.507 386.74 240.246C386.729 234.985 389.593 229.017 393.94 228.183C398.644 227.272 425.422 224.577 431.055 224.216C431.16 224.207 431.267 224.219 431.367 224.251C431.468 224.284 431.561 224.336 431.641 224.405C431.721 224.475 431.787 224.559 431.833 224.654C431.88 224.749 431.908 224.852 431.914 224.958C431.925 225.172 431.853 225.383 431.711 225.544C431.57 225.706 431.371 225.806 431.157 225.823C425.539 226.178 398.905 228.877 394.246 229.767C391.142 230.365 388.322 235.352 388.396 240.21C388.248 242.133 388.822 244.042 390.006 245.564C391.19 247.086 392.898 248.113 394.798 248.443C401.554 249.663 428.51 248.664 428.712 248.678C428.819 248.673 428.926 248.69 429.027 248.727C429.127 248.764 429.22 248.82 429.298 248.893C429.377 248.966 429.44 249.054 429.484 249.152C429.528 249.25 429.552 249.355 429.555 249.462C429.55 249.612 429.503 249.758 429.418 249.882C429.334 250.006 429.216 250.104 429.078 250.163Z" fill="#3B3B3B"/>
<path d="M651.199 307.457L576.095 224.822L513.679 277.649L606.457 400.586L651.199 307.457Z" fill="#3B3B3B"/>
<path d="M651.546 308.204L608.863 404.148C608.697 404.229 608.508 404.249 608.329 404.205C608.149 404.162 607.991 404.056 607.881 403.908L513.043 278.156C512.918 277.991 512.861 277.783 512.885 277.576C512.909 277.37 513.011 277.18 513.171 277.047L575.572 224.228C575.731 224.093 575.937 224.025 576.145 224.038C576.354 224.051 576.549 224.144 576.69 224.298L651.843 306.999C651.927 307.096 651.987 307.211 652.02 307.335C652.052 307.458 652.056 307.588 652.031 307.713C651.993 307.827 651.93 307.93 651.846 308.016C651.762 308.101 651.659 308.165 651.546 308.204ZM608.772 402.411L649.871 307.199L576.025 225.94L514.804 277.77L608.772 402.411Z" fill="#3B3B3B"/>
<path d="M364.229 440.067L339.254 361.187L263.327 386.505L280.702 478.665L364.229 440.067Z" fill="#3B3B3B"/>
<path d="M364.576 440.815L281.005 479.433C280.893 479.486 280.771 479.512 280.647 479.511C280.523 479.51 280.401 479.48 280.29 479.425C280.182 479.368 280.087 479.287 280.014 479.189C279.941 479.09 279.891 478.976 279.867 478.856L262.485 386.682C262.451 386.491 262.487 386.294 262.586 386.127C262.685 385.96 262.841 385.835 263.026 385.773L338.968 360.448C339.07 360.415 339.177 360.401 339.284 360.409C339.39 360.418 339.494 360.447 339.59 360.495C339.685 360.544 339.77 360.611 339.839 360.693C339.908 360.775 339.96 360.869 339.993 360.971L364.967 439.851C365.023 440.032 365.014 440.227 364.943 440.402C364.872 440.578 364.742 440.724 364.576 440.815V440.815ZM281.281 477.526L363.224 439.66L338.71 362.24L264.229 387.068L281.281 477.526Z" fill="#3B3B3B"/>
<path d="M595.029 245.111L527.946 297.45C525.949 299.008 525.593 301.891 527.151 303.888L534.851 313.757C536.409 315.754 539.292 316.11 541.289 314.552L608.372 262.213C610.369 260.655 610.725 257.772 609.167 255.775L601.467 245.906C599.908 243.909 597.026 243.553 595.029 245.111Z" fill="#F6F9F6"/>
<path d="M540.724 315.805C539.62 316.318 538.375 316.44 537.191 316.153C536.008 315.866 534.958 315.186 534.211 314.224L526.508 304.369C525.628 303.235 525.233 301.799 525.409 300.375C525.493 299.67 525.717 298.989 526.067 298.372C526.417 297.755 526.887 297.214 527.449 296.781L594.518 244.437C595.648 243.564 597.078 243.174 598.495 243.353C599.912 243.532 601.2 244.265 602.077 245.393L609.78 255.248C610.649 256.377 611.038 257.804 610.862 259.217C610.686 260.631 609.959 261.919 608.84 262.8L608.332 262.163L608.84 262.8L541.756 315.15C541.439 315.407 541.092 315.627 540.724 315.805V315.805ZM596.256 245.271C595.995 245.392 595.748 245.542 595.52 245.718L528.436 298.069C527.654 298.693 527.147 299.598 527.022 300.591C526.956 301.084 526.991 301.586 527.124 302.065C527.257 302.545 527.485 302.993 527.795 303.382L535.484 313.245C536.103 314.033 537.007 314.544 538.001 314.668C538.995 314.792 539.997 314.518 540.79 313.906L607.873 261.556C608.661 260.939 609.171 260.034 609.293 259.041C609.414 258.047 609.136 257.046 608.521 256.257L600.825 246.38C600.299 245.709 599.562 245.234 598.733 245.033C597.904 244.832 597.031 244.916 596.256 245.271V245.271Z" fill="#3B3B3B"/>
<path d="M579.574 295.842C590.287 290.892 594.958 278.194 590.008 267.481C585.057 256.769 572.36 252.097 561.647 257.048C550.934 261.998 546.263 274.696 551.213 285.408C556.164 296.121 568.861 300.793 579.574 295.842Z" fill="#F6F9F6"/>
<path d="M579.907 296.56C575.926 298.404 571.487 299.025 567.153 298.345C562.819 297.665 558.783 295.714 555.558 292.74C552.332 289.766 550.062 285.902 549.033 281.637C548.004 277.372 548.263 272.898 549.778 268.78C551.293 264.663 553.995 261.087 557.543 258.506C561.09 255.924 565.324 254.453 569.708 254.279C574.091 254.104 578.429 255.234 582.17 257.525C585.912 259.816 588.89 263.165 590.727 267.149C593.184 272.486 593.424 278.578 591.396 284.091C589.368 289.604 585.236 294.088 579.907 296.56V296.56ZM561.987 257.781C558.293 259.484 555.188 262.244 553.064 265.713C550.939 269.181 549.892 273.201 550.052 277.265C550.213 281.329 551.576 285.254 553.968 288.544C556.36 291.833 559.674 294.339 563.49 295.745C567.307 297.151 571.455 297.393 575.409 296.441C579.363 295.489 582.946 293.386 585.705 290.397C588.464 287.409 590.274 283.669 590.907 279.652C591.54 275.634 590.967 271.519 589.261 267.827C586.971 262.882 582.814 259.048 577.701 257.164C572.588 255.281 566.937 255.503 561.987 257.781V257.781Z" fill="#3B3B3B"/>
<path d="M571.796 279.011C571.674 279.07 571.539 279.096 571.403 279.086C571.275 279.076 571.15 279.036 571.04 278.97C570.929 278.904 570.835 278.813 570.765 278.705C569.897 277.327 565.6 270.416 565.275 269.713C565.189 269.518 565.183 269.297 565.256 269.097C565.33 268.897 565.478 268.734 565.669 268.641C565.864 268.551 566.086 268.542 566.287 268.616C566.488 268.69 566.651 268.841 566.741 269.035C566.938 269.46 569.574 273.74 571.537 276.872L581.089 264.931C581.222 264.764 581.416 264.657 581.628 264.632C581.84 264.608 582.053 264.668 582.221 264.8C582.305 264.864 582.376 264.945 582.428 265.038C582.481 265.13 582.514 265.232 582.526 265.338C582.539 265.443 582.53 265.55 582.5 265.652C582.47 265.754 582.419 265.849 582.352 265.931L572.085 278.789C572.004 278.881 571.906 278.957 571.796 279.011V279.011Z" fill="#E7E7E7"/>
</g>
<defs>
<linearGradient id="paint0_linear_2614_462" x1="430.381" y1="201.644" x2="442.009" y2="226.806" gradientUnits="userSpaceOnUse">
<stop stop-color="#FFB11B"/>
<stop offset="1" stop-color="#FF441B"/>
</linearGradient>
<linearGradient id="paint1_linear_2614_462" x1="353.655" y1="242.994" x2="356.35" y2="248.828" gradientUnits="userSpaceOnUse">
<stop stop-color="#FFB11B"/>
<stop offset="1" stop-color="#FF441B"/>
</linearGradient>
<clipPath id="clip0_2614_462">
<rect width="600" height="435" fill="white"/>
</clipPath>
</defs>
</svg>
