<svg width="500" height="221" viewBox="0 0 500 221" fill="none" xmlns="http://www.w3.org/2000/svg">
<path d="M224.843 236.919C195.487 243.803 165.623 248.314 135.542 250.411C127.909 250.878 120.152 251.158 112.426 251.158C104.7 251.158 96.9427 250.878 89.3256 250.411C59.2393 248.314 29.3706 243.802 0.00853702 236.919C0.00853702 236.919 -1.12857 199.277 22.8441 173.585C46.8167 147.894 87.877 145.653 112.426 145.653C136.975 145.653 178.051 147.94 202.023 173.585C225.996 199.23 224.843 236.919 224.843 236.919Z" fill="url(#paint0_linear_2015_6150)"/>
<path d="M135.542 158.212V250.412C127.909 250.879 120.152 251.159 112.426 251.159C104.7 251.159 96.9427 250.879 89.3257 250.412V158.212H135.542Z" fill="#282929"/>
<path d="M113.018 125.751C136.237 125.751 155.06 104.202 155.06 77.62C155.06 51.0381 136.237 29.4893 113.018 29.4893C89.7993 29.4893 70.9766 51.0381 70.9766 77.62C70.9766 104.202 89.7993 125.751 113.018 125.751Z" fill="white"/>
<path d="M113.018 126.56C89.4034 126.56 70.1816 104.603 70.1816 77.6201C70.1816 48.9564 73.297 28.6802 113.018 28.6802C152.738 28.6802 155.869 48.9097 155.869 77.6201C155.869 104.603 136.648 126.56 113.018 126.56ZM113.018 30.283C74.6522 30.283 71.786 48.9564 71.786 77.6201C71.786 103.716 90.2912 124.957 113.018 124.957C135.744 124.957 154.265 103.716 154.265 77.6201C154.265 49.0965 151.383 30.283 113.018 30.283Z" fill="#282929"/>
<path d="M139.561 94.2242C141.617 81.4018 162.926 78.2429 161.867 93.3528C161.707 98.6054 159.693 103.632 156.181 107.545C152.536 111.248 146.648 113.007 141.898 110.875" fill="white"/>
<path d="M146.352 112.537C144.706 112.547 143.076 112.207 141.57 111.541C141.474 111.499 141.387 111.437 141.315 111.361C141.242 111.284 141.186 111.194 141.148 111.096C141.111 110.998 141.093 110.893 141.096 110.788C141.099 110.683 141.122 110.579 141.165 110.483C141.208 110.387 141.27 110.301 141.346 110.228C141.422 110.156 141.512 110.099 141.611 110.062C141.709 110.024 141.814 110.006 141.919 110.009C142.025 110.012 142.128 110.036 142.224 110.079C144.514 110.951 147.012 111.121 149.398 110.567C151.785 110.012 153.951 108.759 155.62 106.966C158.982 103.185 160.906 98.3433 161.057 93.2882C161.586 85.7877 156.477 84.3872 154.265 84.1227C148.58 83.4847 141.461 87.515 140.355 94.3464C140.362 94.4676 140.341 94.5888 140.294 94.7009C140.248 94.8131 140.176 94.9132 140.085 94.9941C139.995 95.0749 139.887 95.1343 139.77 95.1679C139.653 95.2014 139.53 95.2083 139.411 95.1879C139.291 95.1676 139.177 95.1205 139.078 95.0503C138.979 94.9801 138.897 94.8884 138.838 94.7822C138.779 94.6759 138.745 94.5578 138.738 94.4366C138.731 94.3153 138.751 94.1941 138.797 94.0818C140.044 86.3012 148.05 81.804 154.468 82.5354C158.782 83.0178 163.206 86.1456 162.692 93.4282C162.396 97.692 161.135 103.699 156.789 108.118C155.425 109.504 153.802 110.607 152.011 111.366C150.22 112.124 148.297 112.522 146.352 112.537Z" fill="#282929"/>
<path d="M86.4437 94.2242C84.3876 81.4018 63.0786 78.2429 64.1378 93.3528C64.2997 98.602 66.3071 103.627 69.8077 107.545C73.4683 111.248 79.3407 113.007 84.1072 110.875" fill="white"/>
<path d="M79.699 112.539C75.7759 112.475 72.0388 110.858 69.3093 108.042C65.6717 103.991 63.5764 98.791 63.3901 93.3522C62.8916 86.0851 67.3155 82.9573 71.6146 82.4594C78.0478 81.728 86.0543 86.2874 87.3004 94.0058C87.3322 94.2178 87.28 94.4339 87.155 94.6082C87.0299 94.7825 86.8419 94.9013 86.6306 94.9394C86.4202 94.9709 86.2058 94.9183 86.0338 94.7931C85.8618 94.6679 85.7461 94.4801 85.7116 94.2703C84.6056 87.4389 77.5026 83.3775 71.8016 84.0466C69.5897 84.3111 64.4805 85.7116 64.9945 93.2121C65.2749 97.2114 66.4432 102.829 70.4464 106.89C74.1381 110.641 79.6367 111.948 83.8268 110.003C83.9239 109.958 84.0288 109.934 84.1355 109.93C84.2422 109.927 84.3485 109.944 84.4484 109.982C84.5483 110.019 84.6397 110.076 84.7175 110.149C84.7953 110.222 84.8579 110.31 84.9016 110.407C84.9862 110.601 84.9911 110.821 84.9154 111.019C84.8397 111.217 84.6893 111.377 84.4966 111.465C82.992 112.16 81.3564 112.526 79.699 112.539Z" fill="#282929"/>
<path d="M89.3257 158.21C89.3257 158.21 95.0891 170.752 111.896 170.752C116.587 170.881 121.23 169.793 125.374 167.595C129.518 165.397 133.021 162.163 135.542 158.21L133.283 108.958H91.5687L89.3257 158.21Z" fill="white"/>
<path d="M111.896 171.561C94.7618 171.561 88.6558 158.677 88.5311 158.552C88.502 158.43 88.502 158.302 88.5311 158.179L90.7742 108.912C90.7861 108.706 90.8767 108.512 91.0274 108.37C91.178 108.228 91.3772 108.149 91.5842 108.15H133.299C133.506 108.149 133.705 108.228 133.856 108.37C134.006 108.512 134.097 108.706 134.109 108.912L136.289 158.179C136.298 158.325 136.265 158.47 136.196 158.599C133.591 162.653 129.99 165.974 125.737 168.243C121.483 170.512 116.718 171.655 111.896 171.561ZM90.0888 158.039C90.8521 159.595 96.6466 169.959 111.896 169.959C116.403 170.062 120.861 169.021 124.855 166.934C128.849 164.846 132.247 161.78 134.732 158.023L132.535 109.784H92.3319L90.0888 158.039Z" fill="#282929"/>
<path d="M91.5683 130.015C94.7883 134.684 99.1184 138.48 104.17 141.064C112.441 145.623 124.793 150.759 134.825 149.234L133.174 128.459C125.832 129.377 118.408 129.429 111.055 128.615C104.575 128.039 97.8924 127.417 91.9577 124.911C90.9452 124.413 90.291 128.024 91.5683 130.015Z" fill="#282929"/>
<path d="M131.009 150.244C120.9 150.244 109.887 145.062 103.796 141.685C98.6137 139.07 94.181 135.183 90.9144 130.388C90.3821 129.496 90.0933 128.481 90.0769 127.444C90.0605 126.406 90.3171 125.382 90.8209 124.474C90.9903 124.261 91.2254 124.108 91.4899 124.041C91.7544 123.973 92.0338 123.994 92.2851 124.101C98.2043 126.591 105.074 127.213 111.117 127.727C118.413 128.55 125.781 128.503 133.065 127.587C133.17 127.574 133.277 127.583 133.378 127.613C133.48 127.642 133.575 127.691 133.657 127.758C133.742 127.822 133.813 127.904 133.864 127.998C133.915 128.092 133.945 128.196 133.953 128.302L135.604 149.123C135.618 149.32 135.556 149.515 135.432 149.668C135.308 149.821 135.13 149.921 134.934 149.948C133.636 150.149 132.323 150.248 131.009 150.244ZM91.8957 125.688C91.6803 126.332 91.5982 127.013 91.6545 127.69C91.7107 128.367 91.9041 129.025 92.2228 129.625C95.3639 134.193 99.6068 137.897 104.56 140.393C111.117 144.019 123.548 149.824 134 148.579L132.442 129.298C125.299 130.099 118.089 130.099 110.946 129.298C104.902 128.8 98.0174 128.194 91.8957 125.688Z" fill="#282929"/>
<path d="M111.367 133.329H114.794C122.572 133.296 130.02 130.186 135.508 124.68C140.997 119.174 144.078 111.72 144.078 103.949V57.4214C144.078 57.4214 133.86 60.3624 112.925 60.3624C91.9893 60.3624 81.771 57.4214 81.771 57.4214V103.949C81.773 107.823 82.5412 111.657 84.0316 115.233C85.5219 118.809 87.705 122.055 90.4552 124.785C93.2055 127.516 96.4688 129.676 100.058 131.142C103.646 132.608 107.49 133.351 111.367 133.329Z" fill="white"/>
<path d="M144.078 57.4196V103.948C144.078 111.739 140.979 119.212 135.464 124.722C129.949 130.232 122.469 133.327 114.669 133.327H111.367C103.568 133.323 96.0903 130.226 90.576 124.717C85.0616 119.209 81.9619 111.738 81.9578 103.948V57.4196C81.9578 57.4196 92.1917 60.3607 113.111 60.3607C134.031 60.3607 144.265 57.4196 144.265 57.4196H144.078ZM144.265 55.8635C144.12 55.8408 143.973 55.8408 143.829 55.8635C143.735 55.8635 133.517 58.7423 113.142 58.7423C92.768 58.7423 82.5653 55.8946 82.4718 55.8635C82.322 55.8416 82.1699 55.8416 82.0201 55.8635C81.607 55.8635 81.2108 56.0274 80.9186 56.3193C80.6265 56.6111 80.4624 57.0069 80.4624 57.4196V103.948C80.4706 112.143 83.7257 120.002 89.5165 125.808C95.3073 131.613 103.163 134.893 111.367 134.93H114.794C123.018 134.922 130.903 131.655 136.72 125.847C142.537 120.039 145.81 112.163 145.822 103.948V57.4196C145.822 57.0069 145.658 56.6111 145.366 56.3193C145.074 56.0274 144.678 55.8635 144.265 55.8635Z" fill="#282929"/>
<path d="M48.4834 243.502C48.2831 243.503 48.0899 243.428 47.9426 243.292C47.7953 243.156 47.7047 242.97 47.689 242.771L41.287 180.526C41.2651 180.314 41.3282 180.101 41.4624 179.935C41.5966 179.769 41.7911 179.663 42.0035 179.639C42.2145 179.625 42.4229 179.691 42.5875 179.824C42.752 179.956 42.8605 180.146 42.8914 180.355L49.2778 242.6C49.2886 242.704 49.2785 242.809 49.2483 242.91C49.218 243.01 49.1681 243.104 49.1015 243.185C49.0348 243.266 48.9528 243.333 48.8601 243.382C48.7674 243.431 48.6658 243.461 48.5613 243.471L48.4834 243.502Z" fill="#282929"/>
<path d="M176.384 243.502H176.291C176.186 243.492 176.084 243.462 175.992 243.413C175.899 243.364 175.817 243.297 175.75 243.216C175.684 243.135 175.634 243.041 175.604 242.941C175.573 242.84 175.563 242.735 175.574 242.631L181.976 180.386C182.04 180.219 182.158 180.078 182.311 179.985C182.464 179.891 182.643 179.852 182.821 179.871C182.999 179.891 183.165 179.969 183.294 180.093C183.423 180.217 183.508 180.38 183.534 180.557L177.132 242.802C177.107 242.987 177.019 243.158 176.883 243.285C176.747 243.413 176.57 243.489 176.384 243.502Z" fill="#282929"/>
<path d="M430.55 77.6967C430.55 104.322 496.58 208.613 388.493 208.613C280.406 208.613 346.435 104.353 346.435 77.6967C346.435 51.0404 348.211 29.457 388.493 29.457C428.774 29.457 430.55 51.056 430.55 77.6967Z" fill="white"/>
<path d="M388.446 209.376C361.374 209.376 342.837 202.715 333.367 189.566C317.401 167.391 329.519 131.227 338.367 104.82C342.214 93.3669 345.532 83.47 345.532 77.6657C345.532 48.9553 348.648 28.6479 388.446 28.6479C428.245 28.6479 431.36 48.9553 431.36 77.6657C431.36 83.47 434.662 93.3669 438.51 104.82C447.357 131.274 459.492 167.391 443.51 189.566C434.039 202.746 415.503 209.376 388.446 209.376ZM388.446 30.2507C350.003 30.2507 347.137 49.0175 347.137 77.6657C347.137 83.7345 343.788 93.7404 339.893 105.333C331.155 131.398 319.176 167.111 334.675 188.617C343.834 201.33 361.919 207.773 388.446 207.773C414.973 207.773 433.058 201.33 442.202 188.617C457.7 167.111 445.722 131.398 436.983 105.333C433.105 93.7404 429.74 83.7345 429.74 77.6657C429.74 49.0953 426.874 30.2819 388.446 30.2819V30.2507Z" fill="#282929"/>
<path d="M499.991 236.919C470.635 243.802 440.771 248.314 410.69 250.41C403.057 250.877 395.3 251.157 387.574 251.157C379.848 251.157 372.091 250.877 364.474 250.41C334.387 248.313 304.519 243.802 275.156 236.919C275.156 236.919 274.019 199.276 297.992 173.632C321.965 147.987 363.025 145.699 387.574 145.699C412.123 145.699 453.214 147.987 477.171 173.632C501.128 199.276 499.991 236.919 499.991 236.919Z" fill="url(#paint1_linear_2015_6150)"/>
<path d="M410.69 158.212V250.412C403.057 250.879 395.3 251.159 387.574 251.159C379.848 251.159 372.091 250.879 364.474 250.412V158.212H410.69Z" fill="#282929"/>
<path d="M323.631 243.502C323.431 243.503 323.238 243.428 323.091 243.292C322.943 243.156 322.853 242.97 322.837 242.771L316.435 180.526C316.413 180.314 316.476 180.101 316.61 179.935C316.745 179.769 316.939 179.663 317.151 179.639C317.362 179.625 317.571 179.691 317.735 179.824C317.9 179.956 318.008 180.146 318.039 180.355L324.426 242.6C324.439 242.704 324.43 242.811 324.401 242.912C324.371 243.013 324.322 243.107 324.255 243.189C324.188 243.27 324.105 243.337 324.011 243.386C323.917 243.434 323.815 243.463 323.709 243.471L323.631 243.502Z" fill="#282929"/>
<path d="M451.532 243.501H451.439C451.334 243.491 451.232 243.461 451.14 243.412C451.047 243.362 450.965 243.295 450.898 243.214C450.832 243.133 450.782 243.04 450.752 242.94C450.721 242.839 450.711 242.734 450.722 242.629L457.124 180.385C457.151 180.174 457.259 179.982 457.424 179.849C457.59 179.716 457.8 179.651 458.012 179.669C458.224 179.692 458.419 179.799 458.553 179.965C458.687 180.131 458.75 180.344 458.728 180.556L452.326 242.801C452.3 242.993 452.206 243.17 452.06 243.298C451.914 243.427 451.726 243.499 451.532 243.501Z" fill="#282929"/>
<path d="M415.02 94.2227C417.076 81.3847 438.385 78.2258 437.357 93.3668C437.2 98.6246 435.186 103.657 431.672 107.574C428.027 111.293 422.123 113.052 417.357 110.92" fill="white"/>
<path d="M421.812 112.662C420.166 112.676 418.537 112.342 417.029 111.682C416.921 111.646 416.822 111.588 416.738 111.512C416.654 111.435 416.587 111.342 416.541 111.237C416.495 111.133 416.472 111.02 416.473 110.907C416.474 110.793 416.499 110.681 416.547 110.577C416.594 110.474 416.663 110.381 416.748 110.306C416.834 110.231 416.934 110.175 417.043 110.141C417.152 110.107 417.266 110.097 417.38 110.11C417.493 110.124 417.602 110.161 417.699 110.219C421.889 112.102 427.404 110.795 431.095 107.107C435.099 103.03 436.282 97.397 436.563 93.3977C437.077 85.8817 431.968 84.4656 429.74 84.2166C424.008 83.5786 416.92 87.609 415.815 94.4559C415.744 94.6256 415.619 94.7665 415.458 94.8554C415.297 94.9443 415.111 94.976 414.93 94.9453C414.749 94.9145 414.583 94.8231 414.461 94.6861C414.339 94.5491 414.267 94.3747 414.257 94.1914C415.503 86.4108 423.525 81.8825 429.958 82.6138C434.273 83.1118 438.697 86.2396 438.198 93.5067C437.902 97.786 436.641 103.808 432.279 108.228C429.515 111.032 425.751 112.627 421.812 112.662Z" fill="#282929"/>
<path d="M361.856 94.2227C359.8 81.3847 338.491 78.2258 339.519 93.3668C339.683 98.6232 341.696 103.654 345.205 107.574C348.865 111.293 354.753 113.052 359.52 110.92" fill="white"/>
<path d="M355.065 112.663C351.128 112.6 347.376 110.983 344.629 108.166C340.283 103.746 339.021 97.7243 338.725 93.445C338.211 86.1779 342.635 83.0501 346.949 82.5522C353.383 81.8208 361.42 86.3958 362.651 94.1297C362.671 94.2343 362.669 94.3419 362.646 94.4458C362.622 94.5497 362.578 94.6478 362.515 94.7338C362.452 94.8199 362.373 94.8922 362.281 94.9462C362.189 95.0002 362.087 95.0348 361.981 95.0478C361.773 95.0796 361.56 95.0291 361.389 94.9071C361.217 94.7851 361.1 94.6011 361.062 94.3942C359.972 87.5473 352.822 83.5014 347.136 84.155C344.909 84.4039 339.8 85.82 340.329 93.3361C340.481 98.4031 342.411 103.256 345.781 107.045C347.454 108.837 349.623 110.09 352.012 110.645C354.401 111.199 356.901 111.029 359.193 110.158C359.387 110.071 359.608 110.065 359.806 110.141C360.005 110.217 360.165 110.368 360.252 110.562C360.339 110.756 360.345 110.977 360.269 111.175C360.193 111.374 360.041 111.534 359.847 111.62C358.345 112.303 356.715 112.658 355.065 112.663Z" fill="#282929"/>
<path d="M364.707 158.428C364.707 158.428 370.47 170.986 387.324 170.986C400.752 170.986 410.986 158.428 410.986 158.428L408.742 109.084H366.95L364.707 158.428Z" fill="white"/>
<path d="M387.325 171.78C370.19 171.78 363.96 158.88 363.96 158.755C363.902 158.639 363.876 158.511 363.882 158.382L366.14 109.037C366.152 108.834 366.241 108.642 366.388 108.5C366.535 108.359 366.731 108.278 366.935 108.275H408.727C408.931 108.278 409.127 108.359 409.274 108.5C409.421 108.642 409.51 108.834 409.522 109.037L411.78 158.382C411.783 158.58 411.717 158.772 411.593 158.927C411.188 159.456 400.986 171.78 387.325 171.78ZM365.517 158.257C366.281 159.814 372.075 170.177 387.325 170.177C399.225 170.177 408.712 159.829 410.176 158.148L407.964 109.909H367.714L365.517 158.257Z" fill="#282929"/>
<path d="M366.95 130.2C370.178 134.872 374.52 138.669 379.582 141.248C387.854 145.823 400.237 150.974 410.284 149.433L408.633 128.581C401.275 129.493 393.836 129.54 386.467 128.721C379.972 128.145 373.289 127.523 367.339 125.018C366.327 124.566 365.672 128.177 366.95 130.2Z" fill="#282929"/>
<path d="M406.453 150.493C396.344 150.493 385.3 145.311 379.209 141.934C374.014 139.311 369.571 135.413 366.296 130.606C365.764 129.715 365.475 128.699 365.459 127.662C365.442 126.624 365.699 125.6 366.203 124.693C366.372 124.479 366.607 124.326 366.872 124.259C367.136 124.191 367.416 124.213 367.667 124.319C373.602 126.825 380.471 127.431 386.53 127.945C393.841 128.776 401.225 128.729 408.525 127.805C408.737 127.784 408.949 127.845 409.117 127.976C409.198 128.043 409.265 128.126 409.313 128.22C409.361 128.313 409.39 128.416 409.397 128.521L411.048 149.373C411.066 149.57 411.009 149.766 410.887 149.922C410.766 150.078 410.589 150.182 410.394 150.213C409.089 150.401 407.772 150.494 406.453 150.493ZM367.278 125.844C367.062 126.488 366.98 127.169 367.036 127.846C367.093 128.523 367.286 129.181 367.605 129.781C370.756 134.35 375.002 138.058 379.957 140.565C386.53 144.191 398.992 150.011 409.444 148.75L407.886 129.439C400.733 130.24 393.512 130.24 386.359 129.439C380.3 128.956 373.399 128.35 367.278 125.844Z" fill="#282929"/>
<path d="M419.615 70.2131V104.074C419.615 111.872 416.515 119.35 410.998 124.865C405.48 130.38 397.996 133.481 390.191 133.485H386.764C382.896 133.487 379.065 132.728 375.49 131.251C371.916 129.774 368.668 127.608 365.931 124.877C363.194 122.146 361.023 118.903 359.541 115.334C358.058 111.765 357.295 107.939 357.292 104.074V71.956L375.829 70.3999L377.963 55.7101L382.636 72.3295L395.783 70.5866C397.138 64.72 395.783 52.0377 395.596 51.4619L405.02 69.3262L419.615 70.2131Z" fill="white"/>
<path d="M390.191 134.293H386.764C378.739 134.289 371.044 131.105 365.367 125.439C359.69 119.774 356.495 112.09 356.482 104.074V71.9552C356.482 71.7526 356.559 71.5575 356.698 71.4099C356.837 71.2624 357.028 71.1735 357.23 71.1616L375.128 69.6055L377.168 55.6004C377.193 55.4196 377.279 55.2528 377.413 55.1281C377.546 55.0034 377.718 54.9284 377.9 54.9157C378.087 54.8923 378.276 54.9402 378.429 55.0498C378.582 55.1594 378.688 55.3227 378.726 55.5071L383.197 71.4573L395.082 69.9011C396.188 64.0035 394.91 52.2703 394.786 51.6634C394.749 51.5613 394.733 51.4528 394.738 51.3444C394.743 51.2359 394.769 51.1295 394.816 51.0312C394.862 50.933 394.927 50.8448 395.007 50.7717C395.088 50.6986 395.182 50.6421 395.284 50.6053C395.386 50.5685 395.495 50.5522 395.604 50.5573C395.712 50.5624 395.819 50.5889 395.917 50.6351C396.015 50.6813 396.104 50.7465 396.177 50.8268C396.25 50.9071 396.307 51.0011 396.343 51.1032L405.612 68.5006L419.755 69.4343C419.958 69.4462 420.148 69.5351 420.287 69.6826C420.426 69.8302 420.503 70.0253 420.503 70.2279V104.089C420.491 112.109 417.29 119.797 411.606 125.461C405.922 131.124 398.219 134.302 390.191 134.293ZM358.102 72.7022V104.074C358.111 111.663 361.133 118.94 366.507 124.305C371.881 129.671 379.166 132.686 386.764 132.691H390.191C397.785 132.682 405.067 129.665 410.437 124.3C415.807 118.935 418.828 111.661 418.836 104.074V70.9749L404.988 70.0568C404.853 70.0458 404.723 70.0017 404.609 69.9285C404.495 69.8552 404.4 69.7549 404.334 69.6366L396.78 55.4448C397.138 59.8953 397.449 66.82 396.546 70.7881C396.51 70.9486 396.425 71.0938 396.302 71.2029C396.179 71.3119 396.024 71.3792 395.861 71.395L382.714 73.1379C382.521 73.1642 382.326 73.1206 382.163 73.0149C382 72.9092 381.88 72.7485 381.826 72.5621L378.212 59.5996L376.654 70.4925C376.63 70.6733 376.543 70.8401 376.41 70.9648C376.277 71.0895 376.104 71.1645 375.922 71.1772L358.102 72.7022Z" fill="#282929"/>
<path d="M363.243 183.015C332.946 150.586 281.045 147.707 250 147.707C218.956 147.707 167.054 150.586 136.757 183.015C106.46 215.445 107.909 263 107.909 263C107.909 263 180.045 280.957 250 280.957C319.955 280.957 392.091 262.953 392.091 262.953C392.091 262.953 393.524 215.445 363.243 183.015Z" fill="url(#paint2_linear_2015_6150)"/>
<path d="M279.206 163.519L258.52 234.929L250 264.355L241.464 234.883L220.793 163.519C234.797 159.364 265.203 159.364 279.206 163.519Z" fill="#282929"/>
<path d="M250.748 122.497C280.092 122.497 303.88 95.2564 303.88 61.6531C303.88 28.0497 280.092 0.808838 250.748 0.808838C221.403 0.808838 197.615 28.0497 197.615 61.6531C197.615 95.2564 221.403 122.497 250.748 122.497Z" fill="white"/>
<path d="M250.747 123.291C221.011 123.291 196.805 95.639 196.805 61.6534C196.805 25.5515 200.684 0 250.747 0C300.811 0 304.69 25.5515 304.69 61.6534C304.69 95.639 280.499 123.291 250.747 123.291ZM250.747 1.6028C202.055 1.6028 198.41 25.3803 198.41 61.6534C198.41 94.752 221.899 121.688 250.747 121.688C279.596 121.688 303.085 94.752 303.085 61.6534C303.085 25.3803 299.44 1.6028 250.747 1.6028Z" fill="#282929"/>
<path d="M284.269 82.551C286.854 66.3518 313.786 62.3215 312.447 81.4617C311.995 88.013 309.892 94.7043 305.282 99.3882C300.671 104.072 293.225 106.297 287.213 103.621" fill="white"/>
<path d="M292.867 105.582C290.819 105.594 288.792 105.175 286.917 104.353C286.723 104.262 286.572 104.098 286.497 103.898C286.421 103.698 286.426 103.476 286.512 103.279C286.6 103.087 286.761 102.937 286.959 102.861C287.157 102.785 287.376 102.79 287.571 102.875C292.96 105.302 300.032 103.622 304.705 98.8288C309.799 93.6469 311.294 86.4888 311.653 81.4003C312.12 74.6934 308.833 70.2741 302.867 69.5894C295.562 68.7491 286.465 73.9309 285.063 82.6763C285.025 82.8873 284.906 83.0752 284.731 83.2001C284.557 83.3251 284.341 83.3772 284.128 83.3454C284.024 83.3305 283.924 83.2945 283.834 83.2397C283.743 83.1849 283.665 83.1123 283.604 83.0265C283.543 82.9406 283.5 82.8432 283.478 82.7402C283.455 82.6373 283.454 82.5308 283.474 82.4273C285.032 72.7794 295.063 67.0996 303.039 68.0021C308.397 68.609 313.942 72.4837 313.257 81.5092C312.883 86.8778 311.294 94.425 305.858 99.9492C302.442 103.466 297.772 105.491 292.867 105.582Z" fill="#282929"/>
<path d="M217.289 82.551C214.687 66.3518 187.771 62.3215 189.095 81.4617C189.562 88.013 191.665 94.7043 196.276 99.3882C200.886 104.072 208.332 106.297 214.329 103.621" fill="white"/>
<path d="M208.628 105.582C203.716 105.5 199.038 103.474 195.621 99.9492C190.185 94.425 188.596 86.8778 188.222 81.5092C187.584 72.4837 193.082 68.609 198.425 68.0021C206.431 67.0996 216.447 72.7794 218.005 82.4273C218.051 82.5402 218.071 82.662 218.064 82.7837C218.056 82.9054 218.021 83.0238 217.961 83.1301C217.902 83.2363 217.818 83.3277 217.718 83.3975C217.618 83.4672 217.504 83.5134 217.383 83.5327C217.263 83.5519 217.139 83.5437 217.022 83.5087C216.906 83.4737 216.798 83.4127 216.708 83.3304C216.618 83.248 216.548 83.1464 216.503 83.0332C216.458 82.9199 216.439 82.7979 216.447 82.6763C215.045 73.9309 205.949 68.6712 198.643 69.5894C192.662 70.2741 189.39 74.6934 189.858 81.4003C190.2 86.4888 191.696 93.6469 196.805 98.8288C201.478 103.622 208.581 105.287 213.939 102.875C214.035 102.831 214.139 102.806 214.245 102.803C214.35 102.8 214.455 102.817 214.554 102.855C214.653 102.893 214.743 102.95 214.819 103.022C214.895 103.095 214.956 103.183 214.999 103.279C215.043 103.376 215.068 103.481 215.071 103.588C215.075 103.694 215.057 103.801 215.02 103.9C214.982 104 214.925 104.091 214.852 104.169C214.779 104.247 214.691 104.309 214.594 104.353C212.714 105.177 210.681 105.596 208.628 105.582Z" fill="#282929"/>
<path d="M220.793 163.519C220.793 163.519 228.083 179.376 249.33 179.376C270.577 179.376 279.206 163.519 279.206 163.519L276.371 101.274H223.628L220.793 163.519Z" fill="white"/>
<path d="M249.33 180.184C227.819 180.184 220.139 164.016 220.061 163.86C220.032 163.737 220.032 163.609 220.061 163.486L222.896 101.242C222.904 101.037 222.992 100.843 223.14 100.701C223.288 100.558 223.485 100.479 223.691 100.479H276.434C276.639 100.479 276.837 100.558 276.985 100.701C277.133 100.843 277.22 101.037 277.228 101.242L280.063 163.486C280.079 163.633 280.046 163.781 279.97 163.907C276.69 169.019 272.149 173.202 266.783 176.052C261.417 178.903 255.406 180.326 249.33 180.184ZM221.603 163.346C222.46 165.011 230.031 178.565 249.33 178.565C255.072 178.693 260.751 177.36 265.836 174.693C270.92 172.025 275.242 168.11 278.396 163.315L275.592 102.004H224.407L221.603 163.346Z" fill="#282929"/>
<path d="M223.629 127.913C227.289 133.795 233.364 138.416 239.564 141.918C250.016 147.691 265.639 154.18 278.303 152.25L276.231 125.921C266.925 127.08 257.514 127.142 248.193 126.107C240.015 125.392 231.573 124.551 224.065 121.439C222.834 120.801 221.962 125.345 223.629 127.913Z" fill="#282929"/>
<path d="M273.474 153.355C260.764 153.355 246.869 146.82 239.205 142.587C231.542 138.354 226.292 133.655 222.99 128.364C221.604 126.17 221.744 122.435 222.865 121.128C223.045 120.899 223.294 120.735 223.576 120.662C223.857 120.589 224.155 120.611 224.423 120.723C231.947 123.836 240.623 124.645 248.302 125.314C257.539 126.356 266.868 126.298 276.091 125.143C276.301 125.115 276.514 125.171 276.683 125.298C276.842 125.438 276.942 125.633 276.964 125.843L279.051 152.173C279.069 152.368 279.011 152.562 278.889 152.716C278.767 152.869 278.591 152.97 278.397 152.997C276.767 153.241 275.122 153.361 273.474 153.355ZM223.971 122.233C223.623 123.09 223.47 124.013 223.524 124.937C223.578 125.86 223.837 126.76 224.283 127.57C227.398 132.643 232.71 137.249 239.953 141.264C248.318 145.933 264.175 153.277 277.478 151.597L275.515 126.823C266.437 127.853 257.271 127.853 248.193 126.823C240.452 126.139 231.697 125.345 223.971 122.233Z" fill="#282929"/>
<path d="M248.583 132.067H252.913C262.774 132.067 272.231 128.153 279.204 121.187C286.177 114.221 290.095 104.774 290.095 94.9222V36.1321C290.095 36.1321 277.166 39.8512 250.748 39.8512C224.33 39.8512 211.417 36.1321 211.417 36.1321V94.9222C211.417 104.771 215.332 114.216 222.301 121.182C229.271 128.147 238.724 132.063 248.583 132.067Z" fill="white"/>
<path d="M290.095 36.1343V94.9244C290.095 104.776 286.177 114.224 279.204 121.19C272.231 128.156 262.774 132.069 252.913 132.069H248.582C238.724 132.065 229.271 128.15 222.301 121.184C215.332 114.219 211.416 104.773 211.416 94.9244V36.1343C211.416 36.1343 224.345 39.8534 250.748 39.8534C277.15 39.8534 290.095 36.1343 290.095 36.1343ZM211.416 34.5781C211.07 34.5791 210.732 34.6879 210.451 34.8894C210.248 35.0373 210.084 35.232 209.973 35.4569C209.861 35.6818 209.806 35.9302 209.812 36.1809V94.9711C209.82 105.242 213.907 115.091 221.176 122.355C228.444 129.619 238.301 133.706 248.582 133.718H252.913C263.196 133.706 273.054 129.62 280.325 122.356C287.596 115.092 291.687 105.244 291.699 94.9711V36.1343C291.705 35.8835 291.649 35.6351 291.538 35.4102C291.427 35.1853 291.263 34.9906 291.06 34.8427C290.779 34.6412 290.441 34.5324 290.095 34.5315C289.945 34.5095 289.793 34.5095 289.643 34.5315C289.518 34.5315 276.574 38.1728 250.701 38.1728C224.828 38.1728 211.93 34.5626 211.759 34.5315C211.615 34.5087 211.467 34.5087 211.323 34.5315L211.416 34.5781Z" fill="#282929"/>
<path d="M250 195.808L239.984 188.089L250 180.371L260.016 188.089L250 195.808Z" fill="white"/>
<path d="M258.52 234.928L250 264.354L241.479 234.881L246.62 191.621L246.729 190.719H253.271L253.365 191.652L258.52 234.928Z" fill="white"/>
<path d="M169.172 271.106C168.974 271.106 168.783 271.034 168.636 270.901C168.489 270.769 168.397 270.586 168.377 270.39L160.293 191.697C160.28 191.591 160.288 191.484 160.318 191.382C160.347 191.28 160.396 191.185 160.463 191.102C160.53 191.019 160.613 190.951 160.707 190.9C160.801 190.85 160.904 190.819 161.01 190.81C161.219 190.796 161.425 190.863 161.587 190.996C161.749 191.128 161.855 191.318 161.882 191.526L169.966 270.219C169.988 270.431 169.925 270.643 169.791 270.809C169.657 270.976 169.462 271.082 169.25 271.106H169.172Z" fill="#282929"/>
<path d="M330.828 271.106C330.615 271.082 330.421 270.976 330.287 270.809C330.152 270.643 330.089 270.431 330.111 270.219L338.196 191.526C338.223 191.318 338.328 191.128 338.49 190.996C338.652 190.863 338.859 190.796 339.068 190.81C339.174 190.819 339.277 190.85 339.371 190.9C339.464 190.951 339.547 191.019 339.614 191.102C339.681 191.185 339.73 191.28 339.76 191.382C339.789 191.484 339.797 191.591 339.784 191.697L331.7 270.39C331.69 270.494 331.66 270.596 331.611 270.688C331.562 270.781 331.494 270.863 331.413 270.929C331.332 270.996 331.239 271.046 331.138 271.076C331.038 271.106 330.932 271.116 330.828 271.106Z" fill="#282929"/>
<path d="M107.986 262.534C107.881 262.53 107.777 262.505 107.681 262.461C107.585 262.416 107.499 262.353 107.428 262.274C107.357 262.196 107.302 262.104 107.267 262.005C107.232 261.905 107.217 261.799 107.223 261.694C107.223 261.087 110.338 200.149 143.455 175.594C173.533 153.248 220.279 148.144 220.746 148.097C220.923 148.126 221.085 148.212 221.207 148.341C221.329 148.471 221.405 148.638 221.423 148.815C221.441 148.993 221.399 149.171 221.305 149.323C221.211 149.474 221.069 149.59 220.902 149.653C220.451 149.653 174.172 154.757 144.405 176.839C111.974 200.943 108.843 261.118 108.828 261.725C108.828 261.834 108.806 261.942 108.763 262.042C108.72 262.142 108.658 262.233 108.579 262.308C108.501 262.384 108.408 262.443 108.306 262.482C108.204 262.52 108.095 262.538 107.986 262.534Z" fill="#282929"/>
<path d="M392.107 262.534C391.9 262.534 391.7 262.456 391.55 262.314C391.399 262.172 391.308 261.978 391.297 261.772C391.297 261.165 388.181 200.99 355.704 176.885C325.983 154.804 279.674 149.747 279.206 149.7C279.084 149.718 278.959 149.708 278.841 149.67C278.723 149.632 278.615 149.568 278.526 149.482C278.437 149.396 278.368 149.291 278.326 149.175C278.284 149.058 278.269 148.934 278.283 148.811C278.296 148.688 278.338 148.57 278.404 148.465C278.471 148.361 278.56 148.273 278.666 148.209C278.772 148.144 278.891 148.105 279.014 148.094C279.138 148.082 279.262 148.1 279.378 148.144C279.845 148.144 326.591 153.295 356.669 175.641C389.723 200.196 392.87 261.134 392.901 261.741C392.906 261.952 392.829 262.156 392.687 262.313C392.545 262.469 392.348 262.565 392.138 262.581L392.107 262.534Z" fill="#282929"/>
<defs>
<linearGradient id="paint0_linear_2015_6150" x1="24.7337" y1="121.475" x2="264.398" y2="205.329" gradientUnits="userSpaceOnUse">
<stop stop-color="#FFB11B"/>
<stop offset="1" stop-color="#FF441B"/>
</linearGradient>
<linearGradient id="paint1_linear_2015_6150" x1="299.882" y1="121.532" x2="539.523" y2="205.415" gradientUnits="userSpaceOnUse">
<stop stop-color="#FFB11B"/>
<stop offset="1" stop-color="#FF441B"/>
</linearGradient>
<linearGradient id="paint2_linear_2015_6150" x1="139.16" y1="117.171" x2="442.035" y2="223.224" gradientUnits="userSpaceOnUse">
<stop stop-color="#FFB11B"/>
<stop offset="1" stop-color="#FF441B"/>
</linearGradient>
</defs>
</svg>
