<svg width="332" height="170" viewBox="0 0 332 170" fill="none" xmlns="http://www.w3.org/2000/svg">
<g clip-path="url(#clip0_2698_15388)">
<path d="M128.256 127.742C128.256 127.742 124.672 124.184 124.336 123.185C124 122.186 123.311 115.536 121.942 116.389C120.572 117.242 120.865 122.582 120.865 122.582C120.865 122.582 115.825 114.95 114.447 115.691C113.069 116.432 111.001 120.343 111.199 121.721C111.397 123.099 120.408 133.151 123.484 135.02L128.256 127.742Z" fill="white"/>
<path d="M123.483 135.412C123.404 135.414 123.327 135.393 123.259 135.352C120.313 133.551 110.975 123.37 110.768 121.742C110.562 120.114 112.784 116.057 114.214 115.291C115.524 114.61 118.358 118.228 120.365 121.131C120.365 119.365 120.589 116.703 121.683 116.023C121.801 115.947 121.935 115.901 122.075 115.889C122.215 115.877 122.355 115.899 122.484 115.954C123.414 116.376 123.888 118.633 124.405 121.535C124.477 122.046 124.578 122.552 124.707 123.051C124.931 123.715 127.17 126.092 128.523 127.436C128.594 127.505 128.639 127.597 128.65 127.696C128.661 127.795 128.637 127.895 128.583 127.978L123.802 135.223C123.768 135.277 123.721 135.323 123.666 135.356C123.61 135.389 123.548 135.408 123.483 135.412ZM114.679 116.049C113.447 116.695 111.518 120.502 111.656 121.622C111.793 122.741 120.046 132.035 123.397 134.378L127.704 127.789C126.757 126.841 124.259 124.266 123.923 123.318C123.779 122.78 123.667 122.233 123.587 121.682C123.38 120.51 122.725 116.953 122.165 116.738C121.381 117.246 121.183 120.441 121.304 122.56C121.31 122.656 121.284 122.75 121.23 122.829C121.176 122.908 121.098 122.966 121.007 122.996C120.917 123.025 120.819 123.024 120.729 122.992C120.639 122.96 120.563 122.899 120.511 122.819C118.125 119.149 115.412 116.049 114.679 116.049Z" fill="#282929"/>
<path d="M151.962 122.196C150.239 121.119 147.991 120.025 146.544 118.629C144.235 116.399 142.728 113.065 140.574 110.602C140.303 110.816 140.098 111.103 139.982 111.429C139.866 111.755 139.845 112.107 139.919 112.445C140.084 113.118 140.348 113.762 140.703 114.357C141.357 115.648 141.833 117.021 142.116 118.44C138.093 117.277 133.94 116.623 129.754 116.493C129.552 117.112 129.5 117.77 129.603 118.413C129.706 119.056 129.962 119.665 130.349 120.189C131.126 121.23 132.066 122.14 133.131 122.885C134.398 123.946 135.772 124.873 137.232 125.65C140.505 127.269 144.399 127.372 147.138 129.956C148.379 131.137 150.713 132.282 151.997 130.818C152.531 130.198 152.229 122.368 151.962 122.196Z" fill="white"/>
<path d="M150.412 131.936C149.061 131.821 147.795 131.232 146.837 130.273C145.2 128.723 143.132 128.103 140.944 127.448C139.606 127.088 138.301 126.615 137.042 126.036C135.555 125.245 134.154 124.301 132.864 123.219C131.758 122.452 130.786 121.51 129.987 120.428C129.56 119.845 129.281 119.168 129.171 118.455C129.062 117.741 129.126 117.012 129.358 116.328C129.393 116.248 129.451 116.18 129.525 116.133C129.598 116.085 129.684 116.06 129.771 116.061C133.748 116.168 137.698 116.747 141.539 117.784C141.257 116.649 140.847 115.551 140.315 114.51L140.186 114.243C139.862 113.693 139.629 113.094 139.497 112.469C139.404 112.047 139.436 111.608 139.589 111.204C139.742 110.8 140.009 110.449 140.358 110.195C140.445 110.138 140.55 110.115 140.653 110.129C140.756 110.143 140.85 110.194 140.918 110.273C141.883 111.434 142.766 112.66 143.563 113.942C144.506 115.491 145.612 116.935 146.862 118.249C148.031 119.254 149.311 120.121 150.679 120.833C151.204 121.143 151.73 121.444 152.203 121.746C152.401 121.866 152.453 122.09 152.496 122.401C152.66 123.477 153.013 130.222 152.341 131.014C152.129 131.268 151.866 131.476 151.569 131.624C151.273 131.773 150.949 131.858 150.618 131.876L150.412 131.936ZM130.064 116.931C129.953 117.45 129.953 117.987 130.063 118.506C130.172 119.025 130.39 119.516 130.702 119.946C131.456 120.946 132.366 121.818 133.398 122.53C134.643 123.571 135.991 124.483 137.421 125.252C138.639 125.806 139.901 126.258 141.194 126.604C143.382 127.259 145.648 127.939 147.431 129.636C148.254 130.467 149.349 130.971 150.515 131.057C150.737 131.051 150.956 130.998 151.156 130.901C151.356 130.805 151.534 130.667 151.678 130.497C151.997 129.877 151.867 123.606 151.609 122.469C151.17 122.194 150.704 121.927 150.222 121.608C148.794 120.859 147.458 119.945 146.242 118.886C144.931 117.525 143.775 116.023 142.796 114.407C142.094 113.288 141.329 112.21 140.505 111.177C140.302 111.522 140.232 111.929 140.307 112.323C140.432 112.855 140.635 113.366 140.91 113.839L141.056 114.106C141.726 115.432 142.213 116.843 142.503 118.3C142.52 118.373 142.516 118.449 142.494 118.52C142.471 118.591 142.43 118.655 142.374 118.705C142.321 118.755 142.256 118.791 142.185 118.807C142.113 118.824 142.039 118.821 141.969 118.8C138.092 117.692 134.094 117.064 130.064 116.931Z" fill="#282929"/>
<path d="M191.7 51.8382C193.84 52.1793 195.837 53.1277 197.455 54.5706C199.072 56.0136 200.241 57.8904 200.822 59.9781C201.684 63.3202 201.115 67.2825 203.407 69.8666C204.112 70.6145 204.989 71.1795 205.961 71.5127C206.934 71.8458 207.973 71.9372 208.989 71.7788C211.029 71.4282 212.868 70.3399 214.157 68.721C214.49 70.804 214.2 72.9388 213.323 74.8574C212.446 76.776 211.022 78.3929 209.23 79.5053C207.609 80.3927 205.819 80.9281 203.977 81.0765C202.134 81.2249 200.282 80.983 198.539 80.3666C195.059 79.0975 191.905 77.0702 189.305 74.4318C184.958 70.5563 182.169 65.2325 181.457 59.4527C180.776 53.8624 186.772 51.1233 191.7 51.8382Z" fill="white"/>
<path d="M203.174 81.5204C201.552 81.5131 199.941 81.2486 198.402 80.7365C194.86 79.4493 191.65 77.3896 189.003 74.707C184.586 70.758 181.752 65.3408 181.026 59.4608C180.881 58.452 180.979 57.4232 181.311 56.4598C181.644 55.4965 182.202 54.6265 182.939 53.9222C184.133 52.8752 185.543 52.1051 187.07 51.6673C188.597 51.2295 190.201 51.1347 191.769 51.3898C193.991 51.7475 196.065 52.7342 197.744 54.2332C199.423 55.7322 200.638 57.6808 201.244 59.8484C201.518 61.0219 201.705 62.2137 201.804 63.4145C202.063 65.7488 202.295 67.9539 203.734 69.5646C204.395 70.2442 205.209 70.7553 206.109 71.055C207.008 71.3548 207.966 71.4345 208.903 71.2873C210.837 70.9537 212.582 69.9206 213.804 68.3845C213.856 68.3215 213.926 68.2749 214.004 68.2505C214.082 68.226 214.165 68.2247 214.244 68.2467C214.323 68.266 214.394 68.3082 214.449 68.3679C214.505 68.4277 214.541 68.5024 214.554 68.5826C214.902 70.7514 214.596 72.9745 213.675 74.9688C212.755 76.963 211.261 78.6381 209.385 79.7804C207.507 80.904 205.363 81.5048 203.174 81.5204ZM190.14 52.1564C187.717 52.1027 185.363 52.9604 183.542 54.5596C182.902 55.1719 182.417 55.9285 182.13 56.7662C181.842 57.6039 181.759 58.4983 181.888 59.3747C182.59 65.0589 185.34 70.2924 189.624 74.0954C192.179 76.6801 195.273 78.6684 198.686 79.9182C200.368 80.5172 202.157 80.7569 203.938 80.6219C205.718 80.4869 207.451 79.9801 209.023 79.1344C210.607 78.1458 211.893 76.7469 212.745 75.0863C213.598 73.4256 213.985 71.5652 213.865 69.7024C212.571 71.0237 210.891 71.8987 209.066 72.2004C207.98 72.3717 206.869 72.2753 205.828 71.9196C204.788 71.5638 203.85 70.9594 203.097 70.1589C201.477 68.3329 201.21 65.8521 200.96 63.5178C200.86 62.3581 200.678 61.2069 200.417 60.0724C199.832 57.8005 198.506 55.7884 196.65 54.3534C194.794 52.9185 192.513 52.1424 190.166 52.1478L190.14 52.1564Z" fill="#282929"/>
<path d="M186.884 60.5306C185.829 58.9742 184.327 57.7732 182.577 57.0851C181.239 56.6906 179.821 56.6609 178.468 56.999C177.98 57.0627 177.51 57.2273 177.089 57.4824C176.668 57.7375 176.304 58.0774 176.021 58.4805C175.822 58.9658 175.725 59.4869 175.735 60.0114C175.745 60.5359 175.863 61.0527 176.082 61.5297C177.219 64.9235 181.181 72.5466 185.558 72.3571C191.665 72.1418 188.969 63.2352 186.884 60.5306Z" fill="#282929"/>
<path d="M185.402 72.8384C180.888 72.8384 176.926 65.379 175.703 61.7096C175.468 61.1745 175.347 60.5968 175.347 60.0127C175.347 59.4286 175.468 58.8508 175.703 58.3158C176.006 57.8485 176.408 57.4525 176.879 57.1551C177.351 56.8577 177.881 56.666 178.433 56.5931C179.853 56.2496 181.339 56.2853 182.741 56.6964C184.562 57.3879 186.126 58.6241 187.22 60.2366C188.71 62.1833 190.666 67.4549 189.244 70.573C188.915 71.2579 188.393 71.8325 187.743 72.227C187.094 72.6214 186.343 72.8189 185.583 72.7953L185.402 72.8384ZM180.492 57.2046C179.851 57.2093 179.213 57.2844 178.588 57.4286C178.159 57.4775 177.743 57.6153 177.37 57.8333C176.996 58.0513 176.672 58.3447 176.418 58.6948C176.253 59.1312 176.178 59.596 176.196 60.0618C176.214 60.5277 176.324 60.9854 176.521 61.4081C177.649 64.776 181.466 72.1235 185.54 71.934C186.143 71.9692 186.743 71.8241 187.263 71.5173C187.783 71.2105 188.2 70.7558 188.461 70.2112C189.71 67.5496 187.926 62.5709 186.54 60.7362C185.546 59.2659 184.127 58.1331 182.474 57.4889C181.832 57.2902 181.163 57.1943 180.492 57.2046Z" fill="#282929"/>
<path d="M208.394 169.878L212.873 195.874L164.909 192.308L164.263 160.73L208.394 169.878Z" fill="#282929"/>
<path d="M212.882 196.309L164.909 192.743C164.802 192.736 164.701 192.689 164.627 192.611C164.553 192.532 164.513 192.428 164.513 192.321L163.867 160.743C163.868 160.678 163.882 160.614 163.908 160.555C163.935 160.496 163.974 160.442 164.022 160.399C164.073 160.36 164.131 160.332 164.193 160.317C164.256 160.302 164.321 160.301 164.384 160.313L208.514 169.46C208.599 169.477 208.676 169.518 208.736 169.58C208.796 169.642 208.836 169.72 208.85 169.805L213.338 195.809C213.348 195.871 213.345 195.935 213.328 195.995C213.311 196.056 213.28 196.112 213.239 196.16C213.198 196.207 213.147 196.245 213.09 196.271C213.033 196.297 212.971 196.31 212.908 196.309H212.882ZM165.34 191.916L212.365 195.413L208.058 170.244L164.754 161.269L165.34 191.916Z" fill="#282929"/>
<path d="M166.537 104.117C166.537 104.117 142.245 136.453 138.799 133.162C135.353 129.872 126.739 124.454 126.739 124.454L119.684 134.256C119.684 134.256 140.763 153.895 147.853 151.096C154.942 148.297 175.367 121.723 175.367 121.723L166.537 104.117Z" fill="url(#paint0_linear_2698_15388)"/>
<path d="M188.969 99.8164C188.969 99.8164 200.021 105.028 206.283 120.033C209.617 128.017 210.72 172.671 210.72 172.671C210.72 172.671 178.347 179.889 162.885 171.318C162.885 171.318 163.462 150.499 161.808 136.347C160.947 129.12 160.766 113.796 164.263 107.172C168.992 98.2229 180.38 100.273 188.969 99.8164Z" fill="url(#paint1_linear_2698_15388)"/>
<path d="M196.592 118.719C196.592 118.719 188.03 131.432 186.367 133.956C184.705 136.48 150.558 118.994 150.558 118.994L145.389 130.485C145.389 130.485 193.905 162.846 196.299 157.187C198.694 151.528 203.682 128.762 203.682 128.762" fill="url(#paint2_linear_2698_15388)"/>
<path d="M162.919 150.783C162.808 150.783 162.701 150.74 162.621 150.663C162.54 150.586 162.493 150.481 162.489 150.369C162.489 150.163 161.825 129.835 161.162 124.529C160.482 119.067 163.746 110.816 163.867 110.471C163.888 110.418 163.919 110.37 163.958 110.33C163.998 110.289 164.045 110.257 164.097 110.234C164.149 110.212 164.205 110.2 164.262 110.199C164.318 110.198 164.374 110.209 164.427 110.23C164.532 110.274 164.616 110.357 164.66 110.461C164.705 110.566 164.708 110.683 164.668 110.79C164.668 110.867 161.36 119.179 162.015 124.425C162.67 129.671 163.342 150.163 163.35 150.361C163.352 150.417 163.344 150.474 163.324 150.527C163.304 150.58 163.275 150.629 163.236 150.671C163.198 150.712 163.152 150.746 163.1 150.769C163.049 150.793 162.993 150.807 162.937 150.809L162.919 150.783Z" fill="#282929"/>
<path d="M185.765 64.0096C185.455 63.4842 185.145 62.976 184.826 62.485C181.914 57.9628 176.522 57.4374 171.81 59.2376C170.871 59.5994 169.863 60.2024 169.725 61.2016C167.821 60.3402 165.495 61.2015 164.082 62.7606C159.491 67.6962 159.637 75.526 161.179 81.6245C161.465 83.0505 162.03 84.4059 162.842 85.6126C163.72 86.7073 164.833 87.5904 166.098 88.1967C174.661 92.6328 187.376 89.1701 189.357 78.7217C190.236 73.8205 188.28 68.4026 185.765 64.0096Z" fill="white"/>
<path d="M174.118 90.4739C171.267 90.4913 168.453 89.83 165.909 88.5444C164.569 87.9326 163.39 87.0186 162.463 85.8742C161.62 84.6211 161.034 83.2127 160.74 81.7311C159.775 77.941 158.156 68.466 163.738 62.4709C165.039 61.0755 167.313 59.973 169.415 60.6362C169.643 60.2024 169.957 59.8192 170.338 59.5098C170.718 59.2004 171.157 58.9712 171.629 58.836C176.022 57.1649 181.889 57.1735 185.162 62.2814C185.489 62.781 185.8 63.2978 186.11 63.8319C187.919 66.9586 190.796 73.0657 189.719 78.8196C189.316 80.9724 188.401 82.9966 187.052 84.722C185.702 86.4474 183.958 87.8233 181.966 88.7339C179.514 89.8951 176.832 90.4897 174.118 90.4739ZM168.088 61.2909C166.661 61.3644 165.32 61.9991 164.358 63.0567C159.06 68.7503 160.637 77.8635 161.567 81.5243C161.831 82.896 162.37 84.1999 163.152 85.3574C163.99 86.3932 165.054 87.224 166.262 87.7864C168.645 88.9639 171.263 89.5885 173.921 89.6139C176.579 89.6392 179.208 89.0646 181.613 87.9329C183.474 87.0693 185.102 85.7751 186.363 84.1575C187.625 82.5398 188.483 80.6451 188.866 78.6301C189.891 73.1519 187.143 67.2515 185.36 64.2281C185.059 63.7113 184.749 63.2031 184.43 62.7207C181.441 58.078 176.014 58.0866 171.93 59.6457C171.164 59.9385 170.207 60.4553 170.113 61.265C170.105 61.3303 170.081 61.3927 170.043 61.4467C170.006 61.5007 169.956 61.5448 169.897 61.5751C169.838 61.6068 169.771 61.6233 169.703 61.6233C169.636 61.6233 169.569 61.6068 169.51 61.5751C169.061 61.3807 168.577 61.2838 168.088 61.2909Z" fill="#282929"/>
<path d="M171.353 90.9089L172.05 99.3933C172.05 99.3933 174.54 101.297 179.976 99.4364C185.411 97.5758 185.644 96.1288 185.644 96.1288L184.111 80.4605C184.042 79.7887 181.44 77.6094 180.906 77.1443C179.432 75.8676 177.799 74.7876 176.047 73.9314C175.231 73.5713 174.44 73.157 173.679 72.691C172.731 72.0316 171.967 71.143 171.456 70.1082C170.946 69.0734 170.705 67.9262 170.758 66.7734C170.852 67.7077 170.746 68.6511 170.45 69.5418C170.153 70.4325 169.671 71.2503 169.035 71.9416C168.174 72.8805 166.985 73.5524 166.175 74.5257C164.702 76.369 165.314 77.9712 165.512 80.0471C165.796 82.4072 165.46 84.7415 165.986 87.1103C166.856 91.2965 171.275 90.8572 171.353 90.9089Z" fill="white"/>
<path d="M175.556 100.688C174.234 100.766 172.92 100.435 171.792 99.7404C171.742 99.7043 171.701 99.6579 171.672 99.6043C171.642 99.5508 171.624 99.4914 171.62 99.4303L170.956 91.3335C168.01 91.2387 166.089 89.7916 165.521 87.2506C165.258 85.8683 165.143 84.4622 165.176 83.0557C165.184 82.0837 165.141 81.1118 165.047 80.1443C165.001 79.8342 164.958 79.5471 164.918 79.283C164.668 77.6205 164.435 76.0528 165.779 74.3387C166.271 73.7653 166.823 73.2456 167.424 72.7883C167.863 72.4501 168.277 72.0817 168.665 71.6857C169.653 70.629 170.244 69.262 170.336 67.8182C170.31 67.4713 170.31 67.1229 170.336 66.7759C170.343 66.6677 170.39 66.5659 170.468 66.4909C170.546 66.4159 170.65 66.3731 170.758 66.3711C170.865 66.3706 170.969 66.41 171.048 66.4817C171.128 66.5533 171.178 66.6521 171.189 66.7587C171.215 67.1056 171.215 67.454 171.189 67.801C171.286 68.7102 171.578 69.5878 172.045 70.3741C172.511 71.1604 173.142 71.8369 173.894 72.3576C174.443 72.7176 175.019 73.0344 175.617 73.3051L176.177 73.5721C177.958 74.4477 179.62 75.5478 181.121 76.8453L181.285 76.9917C183.869 79.1968 184.429 79.9721 184.481 80.4372L186.014 96.1226V96.226C185.963 96.5103 185.463 98.0263 180.062 99.8782C178.614 100.391 177.092 100.665 175.556 100.688ZM172.464 99.146C173.058 99.482 175.444 100.541 179.838 99.0341C184.231 97.5267 185.084 96.3121 185.205 96.071C185.075 94.7531 183.688 80.5664 183.68 80.4889C183.671 80.4113 183.284 79.7395 180.785 77.5947L180.622 77.4569C179.178 76.2024 177.577 75.1425 175.858 74.3043L175.307 74.0372C174.658 73.7506 174.033 73.4136 173.437 73.0295C172.265 72.2134 171.365 71.0641 170.853 69.7304C170.527 70.6621 170.011 71.5157 169.337 72.237C168.923 72.6549 168.482 73.0462 168.019 73.4084C167.462 73.831 166.951 74.3102 166.494 74.8383C165.365 76.251 165.555 77.5172 165.796 79.1451C165.842 79.4437 165.885 79.7538 165.925 80.0754C166.026 81.0742 166.072 82.0778 166.063 83.0816C166.029 84.4274 166.138 85.7731 166.391 87.0955C166.882 89.3092 168.553 90.4893 171.232 90.541C171.366 90.5219 171.503 90.5492 171.62 90.6185C171.674 90.6527 171.72 90.6995 171.753 90.7549C171.786 90.8103 171.805 90.8729 171.809 90.9372L172.464 99.146Z" fill="#282929"/>
<path d="M180.82 80.466C180.94 79.6872 181.308 78.968 181.871 78.4159C182.419 77.9229 183.048 77.5293 183.732 77.2531C184.085 77.055 184.481 76.9428 184.886 76.9258C185.17 76.9453 185.447 77.0184 185.704 77.1411C186.332 77.3808 186.854 77.8357 187.177 78.4246C187.374 78.9252 187.448 79.4658 187.393 80.0009C187.382 80.5845 187.292 81.164 187.126 81.7236C186.944 82.2786 186.656 82.7925 186.276 83.2359C185.896 83.6792 185.432 84.0435 184.912 84.3077C183.855 84.8356 182.632 84.9253 181.509 84.5575" fill="white"/>
<path d="M182.913 85.2406C182.389 85.2397 181.868 85.1553 181.371 84.9908C181.317 84.9727 181.268 84.9442 181.225 84.9069C181.182 84.8696 181.147 84.8243 181.122 84.7735C181.097 84.7227 181.082 84.6674 181.078 84.6109C181.074 84.5543 181.082 84.4975 181.1 84.4438C181.118 84.3901 181.146 84.3404 181.184 84.2977C181.221 84.255 181.266 84.22 181.317 84.1948C181.368 84.1696 181.423 84.1547 181.48 84.1509C181.536 84.147 181.593 84.1544 181.647 84.1725C182.149 84.3398 182.679 84.4056 183.207 84.366C183.735 84.3263 184.249 84.182 184.721 83.9415C185.192 83.701 185.611 83.3691 185.953 82.9651C186.295 82.5611 186.553 82.0931 186.712 81.5884C186.871 81.0631 186.955 80.5179 186.962 79.969C187.015 79.5024 186.956 79.0299 186.79 78.5908C186.506 78.1004 186.062 77.723 185.532 77.5227C185.325 77.4264 185.104 77.3653 184.877 77.3418C184.539 77.3697 184.211 77.4665 183.912 77.6261C183.28 77.8835 182.698 78.2477 182.189 78.7028C181.694 79.1933 181.371 79.8309 181.268 80.5203C181.25 80.6345 181.189 80.7372 181.096 80.8059C181.003 80.8745 180.887 80.9035 180.772 80.8864C180.658 80.8692 180.555 80.8074 180.487 80.7145C180.418 80.6216 180.389 80.5053 180.406 80.3911C180.536 79.5174 180.947 78.7099 181.578 78.0912C182.163 77.5662 182.833 77.144 183.559 76.8422C183.975 76.6241 184.434 76.5006 184.903 76.4805C185.243 76.4997 185.577 76.5845 185.885 76.7303C186.621 77.002 187.233 77.5315 187.608 78.2204C187.839 78.7876 187.928 79.4027 187.866 80.0121C187.856 80.6366 187.76 81.2567 187.582 81.8554C187.27 82.8362 186.653 83.6918 185.821 84.2976C184.989 84.9033 183.985 85.2277 182.956 85.2233L182.913 85.2406Z" fill="#282929"/>
<path d="M172.309 76.9531C172.309 76.9531 169.639 81.4839 170.379 82.1988C171.12 82.9138 173.033 82.3022 173.033 82.3022" fill="white"/>
<path d="M171.534 82.9887C171.005 83.0247 170.484 82.8549 170.078 82.5149C169.268 81.7311 170.646 78.9403 171.938 76.7438C172.001 76.6576 172.094 76.5976 172.198 76.5757C172.302 76.5537 172.411 76.5712 172.503 76.6248C172.595 76.6783 172.664 76.7642 172.697 76.8658C172.729 76.9673 172.723 77.0773 172.679 77.1745C171.43 79.302 170.508 81.4813 170.698 81.9206C171.094 82.3082 172.352 82.0756 172.903 81.9206C173.012 81.8853 173.13 81.8944 173.232 81.9461C173.333 81.9978 173.41 82.0878 173.446 82.1962C173.479 82.3059 173.467 82.4239 173.414 82.5253C173.361 82.6266 173.27 82.7032 173.162 82.7389C172.634 82.8997 172.085 82.9838 171.534 82.9887Z" fill="#282929"/>
<path d="M176.052 76.6391C176.447 76.5821 176.703 76.0854 176.623 75.5298C176.543 74.9742 176.157 74.5701 175.762 74.6271C175.366 74.6842 175.11 75.1809 175.191 75.7365C175.271 76.2921 175.656 76.6962 176.052 76.6391Z" fill="#282929"/>
<path d="M169.169 77.3525C169.568 77.3479 169.887 76.8891 169.881 76.3278C169.874 75.7665 169.545 75.3152 169.145 75.3198C168.746 75.3244 168.427 75.7832 168.434 76.3445C168.44 76.9058 168.769 77.3571 169.169 77.3525Z" fill="#282929"/>
<path d="M171.353 90.9122C171.353 90.9122 176.737 91.7047 179.7 89.6719C179.7 89.6719 176.84 97.0624 171.835 96.7265L171.353 90.9122Z" fill="#282929"/>
<path d="M172.171 97.1718H171.8C171.697 97.1657 171.6 97.122 171.527 97.0489C171.454 96.9759 171.41 96.8787 171.404 96.7756L170.93 90.9614C170.922 90.8978 170.93 90.8332 170.952 90.7732C170.975 90.7132 171.012 90.6595 171.06 90.6168C171.108 90.5734 171.166 90.5409 171.228 90.5216C171.291 90.5022 171.357 90.4965 171.421 90.5048C171.473 90.5048 176.668 91.2456 179.459 89.3334C179.531 89.2768 179.621 89.2461 179.713 89.2461C179.805 89.2461 179.894 89.2768 179.967 89.3334C180.038 89.3907 180.09 89.4688 180.114 89.5568C180.139 89.6448 180.136 89.7384 180.105 89.8244C179.984 90.1345 177.202 97.1718 172.171 97.1718ZM171.826 91.4007L172.231 96.3018C175.505 96.2501 177.796 92.5807 178.769 90.6599C176.541 91.4288 174.167 91.6821 171.826 91.4007Z" fill="#282929"/>
<path d="M168.286 99.4409L167.459 103.3L188.969 99.8199L187.307 95.582L168.286 99.4409Z" fill="white"/>
<path d="M167.459 103.716C167.401 103.717 167.344 103.707 167.29 103.684C167.237 103.662 167.189 103.629 167.149 103.587C167.1 103.536 167.064 103.474 167.045 103.407C167.025 103.339 167.023 103.268 167.037 103.199L167.898 99.3316C167.919 99.2513 167.961 99.1783 168.02 99.1205C168.079 99.0627 168.154 99.0225 168.234 99.0043L187.255 95.1454C187.354 95.1254 187.457 95.1402 187.547 95.1873C187.636 95.2343 187.707 95.3108 187.746 95.4038L189.409 99.6503C189.43 99.7108 189.437 99.775 189.431 99.8387C189.425 99.9024 189.406 99.9641 189.374 100.02C189.342 100.075 189.299 100.123 189.247 100.16C189.195 100.198 189.136 100.224 189.073 100.236L167.537 103.682L167.459 103.716ZM168.648 99.7881L168.01 102.76L188.375 99.4694L187.04 96.024L168.648 99.7881Z" fill="#282929"/>
<path d="M171.06 88.9476C170.898 88.9452 170.737 88.9131 170.586 88.8528C168.708 88.1206 169.509 84.6924 169.613 84.3048C169.635 84.2069 169.692 84.1202 169.772 84.0602C169.853 84.0002 169.952 83.9709 170.052 83.9775C173.593 84.1411 173.627 84.2187 173.748 84.5201C173.868 84.8216 173.076 87.4919 172.154 88.4221C172.016 88.5788 171.848 88.706 171.66 88.7963C171.473 88.8866 171.268 88.938 171.06 88.9476ZM170.371 84.8561C170.181 85.838 170.018 87.7072 170.896 88.0517C170.966 88.0775 171.041 88.0855 171.115 88.075C171.189 88.0645 171.259 88.0358 171.318 87.9914C172.042 87.5435 172.645 85.8122 172.852 85.0197C172.335 84.968 171.336 84.9078 170.371 84.8561Z" fill="#282929"/>
<path d="M182.887 133.581C177.451 133.581 156.303 123.029 153.788 121.763C153.687 121.711 153.61 121.621 153.574 121.513C153.539 121.405 153.547 121.287 153.599 121.186C153.65 121.084 153.74 121.007 153.848 120.972C153.956 120.936 154.074 120.945 154.176 120.996C164.513 126.164 180.751 133.555 183.361 132.668C186.272 131.668 192.673 118.162 194.887 113.037C194.932 112.932 195.018 112.849 195.125 112.807C195.231 112.765 195.35 112.767 195.455 112.813C195.56 112.859 195.643 112.944 195.685 113.051C195.727 113.158 195.725 113.277 195.679 113.382C194.818 115.303 187.444 132.177 183.619 133.477C183.382 133.55 183.135 133.585 182.887 133.581Z" fill="#282929"/>
<path d="M187.47 153.393C176.271 153.393 147.276 132.35 145.958 131.385C145.912 131.352 145.873 131.31 145.844 131.261C145.814 131.213 145.794 131.159 145.786 131.103C145.777 131.047 145.779 130.99 145.792 130.935C145.806 130.88 145.83 130.828 145.863 130.782C145.896 130.736 145.938 130.698 145.987 130.668C146.035 130.638 146.089 130.619 146.145 130.61C146.201 130.601 146.258 130.603 146.313 130.617C146.368 130.63 146.42 130.654 146.466 130.687C146.811 130.937 180.983 155.762 189.382 152.221C192.259 151.007 202.071 135.468 205.612 129.585C205.67 129.488 205.765 129.419 205.874 129.392C205.984 129.364 206.1 129.381 206.197 129.438C206.247 129.467 206.291 129.505 206.325 129.551C206.36 129.596 206.384 129.649 206.398 129.704C206.412 129.76 206.414 129.818 206.405 129.874C206.395 129.93 206.375 129.984 206.344 130.033C205.818 130.894 193.422 151.446 189.718 153.014C189.001 153.288 188.237 153.417 187.47 153.393Z" fill="#282929"/>
<path d="M120.864 128.173C120.779 128.172 120.696 128.147 120.626 128.099C120.555 128.052 120.5 127.985 120.468 127.906C119.09 124.633 120.468 122.445 120.468 122.35C120.497 122.299 120.536 122.255 120.583 122.22C120.629 122.184 120.683 122.159 120.74 122.145C120.796 122.131 120.855 122.129 120.913 122.139C120.971 122.148 121.026 122.17 121.075 122.201C121.124 122.233 121.167 122.274 121.199 122.323C121.232 122.371 121.254 122.426 121.265 122.483C121.276 122.541 121.275 122.6 121.263 122.657C121.25 122.714 121.226 122.768 121.192 122.815C121.14 122.901 120.037 124.736 121.192 127.57C121.214 127.623 121.226 127.679 121.227 127.736C121.227 127.793 121.216 127.85 121.195 127.903C121.173 127.956 121.141 128.004 121.1 128.044C121.06 128.085 121.012 128.117 120.959 128.138C120.929 128.154 120.897 128.166 120.864 128.173Z" fill="#282929"/>
<path d="M62.5029 101.523H42.1301C39.7147 101.524 37.3287 102.053 35.1402 103.075C32.9517 104.097 31.0139 105.587 29.4633 107.439C27.9127 109.291 26.787 111.46 26.1656 113.794C25.5441 116.128 25.442 118.57 25.8664 120.947L40.4504 201.967H94.4015L78.7666 115.124C78.08 111.311 76.0752 107.859 73.1025 105.373C70.1298 102.887 66.3782 101.525 62.5029 101.523Z" fill="white"/>
<path d="M94.4012 202.421H40.4501C40.3481 202.422 40.2488 202.388 40.1699 202.323C40.0911 202.258 40.0377 202.168 40.0194 202.068L25.4354 121.048C25.0055 118.609 25.1146 116.106 25.755 113.714C26.3954 111.322 27.5516 109.099 29.1424 107.201C30.7333 105.303 32.7203 103.777 34.9639 102.728C37.2075 101.68 39.6534 101.135 42.1299 101.133H62.5026C66.4793 101.131 70.3299 102.528 73.3804 105.079C76.4309 107.63 78.4869 111.173 79.1884 115.087L94.8663 201.912C94.8777 201.974 94.8753 202.038 94.8593 202.099C94.8434 202.16 94.8143 202.217 94.774 202.265C94.7338 202.314 94.6834 202.353 94.6264 202.38C94.5694 202.406 94.5072 202.42 94.4443 202.421H94.4012ZM40.8033 201.559H93.8843L78.3787 115.199C77.7048 111.484 75.7446 108.125 72.8417 105.71C69.9388 103.296 66.2785 101.98 62.5026 101.994H42.1299C39.774 101.993 37.4466 102.51 35.3122 103.507C33.1777 104.504 31.2883 105.958 29.7773 107.765C28.2664 109.572 27.1708 111.69 26.5679 113.967C25.965 116.244 25.8695 118.626 26.2882 120.944L40.8033 201.559Z" fill="#282929"/>
<path d="M101.844 152.819C101.844 152.819 103.464 175.36 105.092 175.903C106.72 176.446 123.243 178.074 123.243 178.074L121.52 186.739C121.52 186.739 89.6463 188.367 88.0526 182.544C86.4589 176.721 84.5293 148.512 84.5293 148.512L101.844 152.819Z" fill="white"/>
<path d="M111.777 187.367C102.094 187.367 88.7245 186.635 87.6047 182.621C85.9851 176.816 84.1589 149.683 84.0727 148.528C84.0654 148.462 84.0749 148.395 84.1005 148.333C84.1261 148.271 84.1669 148.217 84.2192 148.175C84.2708 148.131 84.3318 148.1 84.3976 148.083C84.4633 148.067 84.532 148.066 84.5982 148.081L101.948 152.387C102.036 152.408 102.115 152.457 102.173 152.527C102.23 152.597 102.263 152.684 102.266 152.775C103.033 163.327 104.36 174.714 105.273 175.498C106.522 175.911 118.703 177.169 123.286 177.625C123.347 177.63 123.406 177.648 123.46 177.677C123.513 177.707 123.56 177.748 123.596 177.798C123.63 177.847 123.654 177.903 123.666 177.963C123.678 178.022 123.678 178.083 123.665 178.142L121.942 186.807C121.922 186.9 121.872 186.983 121.801 187.045C121.73 187.108 121.64 187.145 121.546 187.152C120.417 187.186 116.541 187.367 111.777 187.367ZM84.9686 149.062C85.2529 153.145 86.9672 177.134 88.4144 182.389C89.6635 186.842 112.113 186.695 121.149 186.291L122.743 178.418C119.969 178.142 106.488 176.781 104.971 176.273C103.455 175.765 102.077 161.69 101.448 153.128L84.9686 149.062Z" fill="#282929"/>
<path d="M86.8727 119.992C87.1053 120.552 97.0292 125.402 101.517 137.598C106.005 149.795 106.195 156.497 106.195 156.497H80.7737L86.8727 119.992Z" fill="url(#paint3_linear_2698_15388)"/>
<path d="M65.311 118.175C65.311 118.175 55.999 120.811 54.1125 125.144C52.226 129.476 56.0679 187.791 56.0679 187.791L99.6906 189.143C99.6906 189.143 92.9198 161.235 95.0819 153.922C97.2441 146.609 95.3576 131.707 94.5392 127.642C93.7209 123.576 85.5976 119.786 82.8927 118.167C80.1879 116.547 65.311 118.175 65.311 118.175Z" fill="url(#paint4_linear_2698_15388)"/>
<path d="M58.8765 122.497C58.6698 122.626 55.1809 123.599 55 123.806C51.6834 127.398 49.8313 129.913 48.4616 134.547C46.676 140.974 45.6525 147.589 45.4121 154.255C45.4121 154.255 59.0316 159.139 64.9239 156.262C64.9239 156.262 68.3697 131.877 64.9239 125.175C63.6834 122.789 61.7365 120.627 58.8765 122.497Z" fill="url(#paint5_linear_2698_15388)"/>
<path d="M79.5161 188.99H79.4472C79.3356 188.971 79.236 188.908 79.1699 188.817C79.1038 188.725 79.0766 188.61 79.094 188.499C84.8743 152.864 81.8851 127.557 81.8506 127.342C81.8385 127.229 81.8716 127.116 81.9426 127.027C82.0136 126.938 82.1168 126.881 82.2297 126.868C82.2854 126.86 82.3422 126.863 82.3966 126.877C82.4511 126.891 82.5021 126.916 82.5465 126.951C82.5908 126.986 82.6276 127.029 82.6546 127.078C82.6816 127.128 82.6983 127.182 82.7035 127.238C82.7035 127.488 85.7444 152.907 79.9469 188.671C79.9203 188.764 79.8636 188.846 79.7857 188.904C79.7078 188.961 79.613 188.991 79.5161 188.99Z" fill="#282929"/>
<path d="M67.99 103.579C67.8953 103.39 67.7833 103.123 67.6454 102.718C67.2233 101.633 66.3619 100.995 65.845 99.9358C64.8544 98.015 65.2075 96.1803 65.1042 94.1302C64.9431 91.5629 65.4444 88.9973 66.56 86.6794C66.9849 85.6571 67.7046 84.7845 68.6275 84.1728C69.0935 83.8841 69.6393 83.751 70.1859 83.7928C70.7326 83.8346 71.2517 84.0491 71.6684 84.4054C71.4544 83.8783 71.3966 83.3008 71.502 82.7417C71.6074 82.1827 71.8715 81.6658 72.2628 81.2528C73.0605 80.4414 74.037 79.8279 75.1142 79.4612C76.743 78.7268 78.4976 78.3115 80.2829 78.238C81.1792 78.2085 82.0724 78.3586 82.9098 78.6796C83.7472 79.0007 84.5118 79.486 85.1587 80.1072C86.3733 81.3734 86.8815 83.1392 87.743 84.6466C88.6044 86.154 90.3273 87.5235 91.9985 87.0412C93.3596 86.6622 94.1349 85.2495 94.6518 83.9316C94.9881 85.0955 95.0328 86.3243 94.782 87.5095C94.5311 88.6947 93.9923 89.8 93.2132 90.7278C94.3783 90.3037 95.4284 89.6135 96.2799 88.7122C96.2552 90.1522 95.7 91.5323 94.7207 92.5884C93.5718 93.6524 92.2175 94.4702 90.7408 94.9916C89.9397 95.3361 89.1644 95.4739 88.8456 96.2406C88.5269 97.0072 88.9059 98.1356 88.5786 99.0055C88.0518 100.442 87.2501 101.761 86.2182 102.89C84.5628 104.583 82.406 105.698 80.0675 106.069C77.7383 106.431 75.3628 106.37 73.0553 105.888C71.8432 105.708 70.6749 105.305 69.6095 104.699C68.5241 104.062 68.3518 104.303 67.99 103.579Z" fill="white"/>
<path d="M77.3197 106.794C75.874 106.785 74.4323 106.644 73.0124 106.372C71.7303 106.187 70.4942 105.764 69.3685 105.123C69.0938 104.951 68.8057 104.801 68.5071 104.675C68.2986 104.604 68.107 104.49 67.944 104.342C67.781 104.194 67.6501 104.014 67.5595 103.813C67.4231 103.533 67.3023 103.246 67.1977 102.952C66.9597 102.426 66.6495 101.936 66.2759 101.496C65.9497 101.099 65.6612 100.672 65.4145 100.222C64.7789 98.8221 64.5148 97.2824 64.6478 95.7511C64.6478 95.2601 64.6478 94.7519 64.6478 94.2265C64.4918 91.5846 65.0106 88.9465 66.1553 86.5603C66.6199 85.4629 67.3993 84.5277 68.3951 83.8729C68.7815 83.6467 69.21 83.5018 69.6544 83.447C70.0988 83.3922 70.5496 83.4287 70.9794 83.5541C70.9766 82.6296 71.3103 81.7355 71.9184 81.039C72.7634 80.1746 73.7989 79.5197 74.9421 79.1267C76.6359 78.3746 78.457 77.9508 80.3089 77.8778C81.2607 77.8513 82.2081 78.0152 83.0957 78.3599C83.9833 78.7045 84.7931 79.2229 85.4776 79.8847C86.2505 80.7806 86.8731 81.7958 87.3211 82.8909C87.5795 83.4336 87.8465 83.9934 88.1825 84.5103C88.975 85.854 90.4912 87.0944 91.9384 86.7067C92.8946 86.4311 93.6613 85.5267 94.2988 83.8556C94.3317 83.7697 94.3913 83.6966 94.4688 83.647C94.5463 83.5974 94.6377 83.5739 94.7295 83.58C94.8212 83.5818 94.9099 83.6129 94.9828 83.6687C95.0556 83.7245 95.1087 83.802 95.1344 83.8901C95.6891 85.8281 95.4827 87.9048 94.5572 89.6957C95.091 89.3595 95.5802 88.9572 96.0131 88.4984C96.0735 88.4316 96.1531 88.3851 96.2409 88.3651C96.3288 88.345 96.4206 88.3525 96.5041 88.3864C96.5851 88.4213 96.6542 88.479 96.7031 88.5524C96.752 88.6257 96.7786 88.7117 96.7797 88.7999C96.7645 90.3523 96.1682 91.8428 95.1085 92.9775C93.9179 94.087 92.514 94.9427 90.9822 95.4927L90.474 95.6908C89.8451 95.932 89.4833 96.0784 89.311 96.4919C89.2015 96.878 89.1693 97.2819 89.2162 97.6805C89.2687 98.2088 89.213 98.7422 89.0526 99.2482C88.5085 100.739 87.6773 102.109 86.6061 103.279C84.8828 105.042 82.6391 106.204 80.2055 106.596C79.2514 106.747 78.2856 106.814 77.3197 106.794ZM68.3865 103.348C68.5415 103.667 68.5846 103.684 68.9119 103.831C69.2361 103.975 69.5498 104.142 69.8509 104.33C70.8836 104.915 72.0178 105.297 73.1933 105.459C75.4434 105.933 77.7612 105.995 80.0332 105.64C82.2786 105.287 84.3507 104.221 85.9427 102.599C86.9368 101.513 87.7093 100.243 88.217 98.8606C88.3252 98.4595 88.3574 98.0417 88.3117 97.6288C88.2565 97.1057 88.3153 96.5767 88.484 96.0784C88.6488 95.7514 88.8843 95.465 89.1733 95.2401C89.4623 95.0152 89.7977 94.8572 90.1552 94.7777L90.6204 94.5969C92.0373 94.0904 93.3401 93.3088 94.4538 92.297C95.0676 91.6279 95.5056 90.8169 95.7288 89.9369C95.0281 90.4922 94.2428 90.9313 93.4029 91.2375C93.3096 91.2714 93.2076 91.2734 93.1131 91.2431C93.0185 91.2128 92.9368 91.152 92.8806 91.0701C92.8243 90.9883 92.7969 90.8901 92.8026 90.791C92.8083 90.6919 92.8467 90.5975 92.9118 90.5226C94.0924 89.1117 94.6655 87.2904 94.5055 85.4578C94.2725 85.9465 93.9445 86.384 93.5408 86.7449C93.1371 87.1057 92.6656 87.3826 92.1538 87.5595C90.25 88.1022 88.3893 86.6465 87.39 84.9754C87.0626 84.4241 86.7956 83.8384 86.5285 83.2527C86.1073 82.244 85.5255 81.3103 84.8056 80.4877C84.2036 79.9127 83.4925 79.464 82.7143 79.1681C81.9361 78.8722 81.1065 78.7352 80.2744 78.765C78.5412 78.8404 76.8376 79.2407 75.2522 79.945C74.2346 80.3027 73.3144 80.8926 72.5645 81.6678C72.2373 82.0182 72.0141 82.4527 71.9197 82.9228C71.8254 83.3928 71.8637 83.8799 72.0304 84.3294C72.0788 84.4236 72.0915 84.5322 72.0662 84.6351C72.0409 84.738 71.9792 84.8283 71.8926 84.8893C71.8052 84.9488 71.7 84.9761 71.5947 84.9667C71.4895 84.9573 71.3907 84.9117 71.3154 84.8376C70.97 84.5486 70.5412 84.3777 70.0918 84.3498C69.6423 84.3219 69.1957 84.4385 68.8172 84.6825C67.9674 85.2452 67.3093 86.0535 66.9306 86.9996C65.8854 89.231 65.4202 91.69 65.5781 94.1489C65.5781 94.683 65.5781 95.2084 65.5781 95.7252C65.4584 97.1125 65.6894 98.5076 66.2501 99.7823C66.4705 100.186 66.7301 100.567 67.0254 100.919C67.4543 101.424 67.8056 101.99 68.0677 102.599C68.2056 102.952 68.3089 103.202 68.3951 103.383L68.3865 103.348Z" fill="#282929"/>
<path d="M85.555 114.77L86.4164 120.351C86.4164 120.351 85.555 128.465 79.4042 127.044C77.5513 126.577 75.8217 125.713 74.3345 124.513C72.8474 123.313 71.638 121.805 70.7898 120.093L70.0059 105.355C70.0059 105.355 74.5198 102.891 73.0985 93.0547C78.1379 95.162 83.6526 95.8702 89.0611 95.1047C89.0611 95.1047 91.2491 105.243 90.5514 109.989C90.4434 111.258 89.8762 112.443 88.9564 113.323C88.0365 114.203 86.8271 114.718 85.555 114.77Z" fill="white"/>
<path d="M80.791 127.657C80.2889 127.654 79.7889 127.593 79.3006 127.476C77.3851 126.995 75.5982 126.1 74.0654 124.854C72.5326 123.609 71.291 122.043 70.4277 120.266C70.418 120.215 70.418 120.163 70.4277 120.111L69.6524 105.382C69.6465 105.298 69.6653 105.214 69.7067 105.14C69.748 105.067 69.81 105.007 69.885 104.969C69.885 104.969 74.0975 102.479 72.745 93.1163C72.7323 93.036 72.7425 92.9538 72.7745 92.8791C72.8066 92.8044 72.859 92.7403 72.9259 92.6942C72.9937 92.654 73.0711 92.6328 73.1499 92.6328C73.2287 92.6328 73.3061 92.654 73.3739 92.6942C78.3243 94.7497 83.7333 95.4484 89.0436 94.7184C89.1561 94.7029 89.2704 94.7308 89.3631 94.7964C89.4559 94.862 89.5203 94.9603 89.5432 95.0716C89.6294 95.485 91.7313 105.33 91.0336 110.102C90.9183 111.387 90.3679 112.593 89.4734 113.522C88.5789 114.451 87.3939 115.047 86.1147 115.21L86.8986 120.327C86.9071 120.364 86.9071 120.402 86.8986 120.439C86.8986 120.62 86.3904 124.892 83.7026 126.804C82.8472 127.39 81.8274 127.689 80.791 127.657ZM71.315 119.982C72.1402 121.607 73.3011 123.037 74.7208 124.179C76.1406 125.321 77.7868 126.148 79.5505 126.606C80.1608 126.786 80.8033 126.828 81.4319 126.73C82.0604 126.631 82.6594 126.395 83.1858 126.038C85.3997 124.461 85.951 120.869 86.0113 120.353L85.1499 114.84C85.1399 114.777 85.1441 114.713 85.1619 114.652C85.1798 114.591 85.211 114.534 85.2532 114.487C85.2953 114.439 85.3469 114.4 85.4048 114.374C85.4627 114.347 85.5255 114.333 85.5892 114.332C86.7546 114.279 87.8606 113.802 88.6996 112.992C89.5386 112.182 90.053 111.093 90.1463 109.93C90.7493 105.847 89.1384 97.5264 88.7421 95.6142C83.6588 96.2439 78.4987 95.6107 73.7185 93.7709C74.6919 101.997 71.4787 104.917 70.5397 105.589L71.315 119.982Z" fill="#282929"/>
<path d="M82.4105 101.051C82.4105 101.051 85.3222 106.391 84.4435 107.192C83.5649 107.993 81.3682 107.192 81.3682 107.192" fill="white"/>
<path d="M83.2204 108.026C82.5416 108.009 81.8698 107.884 81.2305 107.655C81.1236 107.618 81.0356 107.54 80.9857 107.439C80.9357 107.337 80.9277 107.22 80.9634 107.113C81.0025 107.005 81.0819 106.917 81.1849 106.867C81.2878 106.818 81.4062 106.81 81.5148 106.846C82.2728 107.113 83.6511 107.371 84.1508 106.915C84.4264 106.501 83.4358 103.874 82.0316 101.299C81.9768 101.198 81.9641 101.08 81.9964 100.97C82.0288 100.86 82.1034 100.768 82.2039 100.713C82.3044 100.658 82.4226 100.645 82.5325 100.678C82.6423 100.71 82.7349 100.785 82.7897 100.885C83.9354 102.995 85.7186 106.656 84.7366 107.552C84.3076 107.893 83.7671 108.062 83.2204 108.026Z" fill="#282929"/>
<path d="M79.5783 101.451C79.911 101.437 80.1548 100.809 80.1228 100.049C80.0908 99.2884 79.7951 98.6833 79.4623 98.6973C79.1296 98.7113 78.8858 99.3391 78.9178 100.1C78.9498 100.86 79.2455 101.465 79.5783 101.451Z" fill="#282929"/>
<path d="M87.2816 101.763C87.6147 101.75 87.86 101.122 87.8295 100.361C87.7991 99.6001 87.5044 98.9938 87.1714 99.0071C86.8383 99.0205 86.593 99.6483 86.6235 100.409C86.6539 101.171 86.9486 101.777 87.2816 101.763Z" fill="#282929"/>
<path d="M73.9855 102.857C73.4421 101.931 72.7255 101.118 71.875 100.463C71.4368 100.075 70.8887 99.8343 70.3071 99.7735C69.8274 99.7715 69.3575 99.9092 68.9547 100.17C68.3511 100.524 67.829 101.002 67.4223 101.572C67.0156 102.142 66.7335 102.791 66.5943 103.477C66.4603 104.114 66.4869 104.774 66.6718 105.398C67.0197 106.363 67.6929 107.176 68.5756 107.698C69.4562 108.207 70.3928 108.611 71.3667 108.904" fill="white"/>
<path d="M71.3672 109.311C71.3217 109.32 71.275 109.32 71.2294 109.311C70.22 109 69.2512 108.569 68.3436 108.028C67.3676 107.453 66.6239 106.554 66.2416 105.487C66.042 104.792 66.0154 104.059 66.1641 103.351C66.3182 102.602 66.6278 101.894 67.073 101.272C67.5182 100.65 68.089 100.129 68.7484 99.7417C69.2225 99.4417 69.7724 99.2833 70.3335 99.2852C71.0078 99.3547 71.6449 99.6281 72.1598 100.069C73.0539 100.759 73.8057 101.616 74.3737 102.593C74.4155 102.693 74.4195 102.805 74.3851 102.908C74.3506 103.011 74.28 103.097 74.1863 103.152C74.0926 103.207 73.9823 103.226 73.8757 103.205C73.7692 103.185 73.6737 103.126 73.607 103.041C73.0907 102.168 72.4123 101.402 71.6084 100.784C71.2386 100.457 70.7798 100.247 70.2904 100.181C69.8946 100.187 69.5087 100.306 69.1792 100.526C68.6306 100.848 68.156 101.282 67.7865 101.8C67.4169 102.318 67.1606 102.908 67.0342 103.532C66.9116 104.102 66.9324 104.694 67.0945 105.254C67.4128 106.117 68.0221 106.842 68.8174 107.304C69.669 107.793 70.5736 108.183 71.5137 108.467C71.5697 108.486 71.6215 108.515 71.6659 108.554C71.7103 108.593 71.7464 108.64 71.7721 108.693C71.7978 108.746 71.8126 108.804 71.8156 108.863C71.8185 108.922 71.8096 108.98 71.7893 109.036C71.7558 109.12 71.6973 109.191 71.6218 109.24C71.5462 109.29 71.4574 109.314 71.3672 109.311Z" fill="#282929"/>
<path d="M85.5547 114.77C82.0302 115.303 78.4274 114.699 75.269 113.047C75.269 113.047 80.5152 121.109 86.3645 119.938L85.5547 114.77Z" fill="#282929"/>
<path d="M85.2102 120.542C79.6797 120.542 75.1141 113.651 74.8729 113.315C74.8162 113.239 74.7856 113.147 74.7856 113.053C74.7856 112.958 74.8162 112.866 74.8729 112.79C74.9351 112.72 75.0188 112.673 75.1108 112.656C75.2028 112.638 75.2979 112.652 75.3811 112.695C78.4593 114.29 81.9635 114.869 85.3911 114.349C85.5078 114.329 85.6276 114.354 85.7271 114.418C85.7754 114.452 85.8163 114.496 85.8474 114.546C85.8785 114.596 85.8991 114.652 85.908 114.711L86.7091 119.939C86.7246 120.049 86.6977 120.162 86.6337 120.253C86.5697 120.344 86.4735 120.407 86.3646 120.43C85.9838 120.501 85.5975 120.538 85.2102 120.542ZM76.5958 114.151C78.3187 116.253 81.9453 120.103 85.8735 119.646L85.2016 115.271C82.2844 115.633 79.323 115.248 76.5958 114.151Z" fill="#282929"/>
<path d="M77.7759 105.031C76.7959 105.032 75.8373 104.743 75.0216 104.2C74.2059 103.657 73.5697 102.884 73.1935 101.979C72.8173 101.074 72.7179 100.078 72.9081 99.1169C73.0982 98.1556 73.5693 97.2722 74.2617 96.5787C74.9541 95.8852 75.8367 95.4126 76.7978 95.2208C77.7589 95.029 78.7552 95.1266 79.6608 95.5012C80.5664 95.8758 81.3406 96.5106 81.8852 97.3253C82.4299 98.14 82.7206 99.0979 82.7206 100.078C82.7206 101.39 82.1999 102.648 81.2729 103.577C80.3458 104.506 79.0881 105.028 77.7759 105.031ZM77.7759 96.0208C76.971 96.0191 76.1837 96.2563 75.5137 96.7024C74.8437 97.1485 74.3212 97.7834 74.0124 98.5266C73.7036 99.2699 73.6224 100.088 73.779 100.878C73.9356 101.667 74.323 102.392 74.8922 102.961C75.4613 103.53 76.1866 103.918 76.9762 104.074C77.7657 104.231 78.5839 104.15 79.3273 103.841C80.0706 103.532 80.7055 103.01 81.1517 102.34C81.5978 101.67 81.835 100.883 81.8333 100.078C81.831 99.0026 81.4028 97.972 80.6424 97.2116C79.882 96.4513 78.8513 96.0231 77.7759 96.0208Z" fill="#282929"/>
<path d="M87.4929 105.031C86.5132 105.031 85.5555 104.74 84.741 104.196C83.9264 103.652 83.2915 102.878 82.9166 101.973C82.5417 101.068 82.4436 100.072 82.6347 99.1116C82.8259 98.1508 83.2976 97.2683 83.9903 96.5757C84.6831 95.883 85.5657 95.4113 86.5265 95.2202C87.4874 95.0291 88.4833 95.1271 89.3884 95.502C90.2935 95.8769 91.0671 96.5117 91.6114 97.3262C92.1557 98.1407 92.4462 99.0983 92.4462 100.078C92.4462 101.391 91.9243 102.651 90.9954 103.58C90.0665 104.509 88.8066 105.031 87.4929 105.031ZM87.4929 96.0208C86.688 96.0191 85.9006 96.2563 85.2307 96.7024C84.5607 97.1485 84.0382 97.7834 83.7294 98.5266C83.4206 99.2699 83.3393 100.088 83.4959 100.878C83.6526 101.667 84.04 102.392 84.6092 102.961C85.1783 103.53 85.9036 103.918 86.6931 104.074C87.4827 104.231 88.3009 104.15 89.0442 103.841C89.7876 103.532 90.4225 103.01 90.8686 102.34C91.3147 101.67 91.552 100.883 91.5503 100.078C91.548 99.0026 91.1198 97.972 90.3594 97.2116C89.599 96.4513 88.5683 96.0231 87.4929 96.0208Z" fill="#282929"/>
<path d="M82.9877 110.125L80.4034 108.867C80.4034 108.867 79.7315 111.003 80.8083 111.451C81.8851 111.899 82.9877 110.125 82.9877 110.125Z" fill="#282929"/>
<path d="M81.1443 111.974C80.9578 111.972 80.7734 111.934 80.6016 111.862C79.206 111.276 79.8779 109.002 79.9555 108.743C79.9759 108.685 80.0078 108.632 80.0492 108.586C80.0906 108.54 80.1408 108.503 80.1967 108.476C80.2535 108.451 80.3152 108.438 80.3776 108.438C80.44 108.438 80.5016 108.451 80.5585 108.476L83.1428 109.734C83.1979 109.761 83.2465 109.8 83.2852 109.847C83.3239 109.895 83.3517 109.95 83.3668 110.01C83.39 110.064 83.402 110.123 83.402 110.182C83.402 110.241 83.39 110.3 83.3668 110.354C83.2376 110.552 82.29 111.974 81.1443 111.974ZM80.6619 109.493C80.5499 110.104 80.524 110.897 80.9375 111.069C81.351 111.241 81.9626 110.733 82.3331 110.294L80.6619 109.493Z" fill="#282929"/>
<path d="M48.4614 152.29C48.4614 152.29 44.3955 184.16 46.6352 186.744C48.8749 189.329 89.2069 183.549 93.4795 183.342C97.7522 183.135 106.177 185.728 105.97 181.258C105.763 176.787 94.9267 176.451 92.084 177.872C89.2413 179.294 61.4689 177.011 61.4689 177.011L62.2787 152.281L48.4614 152.29Z" fill="white"/>
<path d="M51.4078 187.892C48.522 187.892 46.7905 187.625 46.2995 187.031C44.0081 184.326 47.6175 155.496 48.0224 152.223C48.0368 152.118 48.0883 152.023 48.1673 151.953C48.2464 151.884 48.3478 151.845 48.4531 151.844H62.2359C62.3523 151.844 62.4639 151.891 62.546 151.973C62.5868 152.015 62.6185 152.065 62.6392 152.12C62.6599 152.175 62.6693 152.233 62.6666 152.292L61.8655 176.608C69.8509 177.254 89.6465 178.598 91.8517 177.469C94.057 176.341 100.862 176.246 104.299 178.253C104.871 178.527 105.362 178.945 105.723 179.466C106.084 179.987 106.303 180.593 106.358 181.225C106.394 181.607 106.345 181.992 106.214 182.353C106.083 182.713 105.873 183.04 105.6 183.309C104.127 184.705 100.819 184.352 97.6147 184.016C96.2353 183.834 94.8452 183.748 93.454 183.757C92.4117 183.809 89.0693 184.214 84.8397 184.722C69.024 186.686 57.5842 187.892 51.4078 187.892ZM48.8235 152.722C47.2126 165.453 45.3778 184.679 46.9456 186.496C48.5134 188.314 73.9082 185.222 84.7622 183.912C89.1813 183.378 92.3686 182.991 93.4368 182.939C94.877 182.927 96.3162 183.016 97.7439 183.206C100.612 183.508 103.86 183.843 105.049 182.724C105.231 182.539 105.369 182.314 105.453 182.068C105.536 181.822 105.563 181.56 105.531 181.302C105.48 180.816 105.302 180.351 105.015 179.955C104.728 179.559 104.341 179.245 103.894 179.046C100.836 177.245 94.3154 177.263 92.2738 178.288C89.3967 179.718 64.2775 177.685 61.4262 177.426C61.3157 177.42 61.2123 177.37 61.1382 177.288C61.0641 177.206 61.0252 177.098 61.0299 176.987L61.8224 152.705L48.8235 152.722Z" fill="#282929"/>
<path d="M114.378 150.016H150.661L142.133 184.367H105.85L114.378 150.016Z" fill="white"/>
<path d="M142.133 184.799H105.85C105.783 184.797 105.718 184.781 105.658 184.751C105.598 184.722 105.546 184.679 105.505 184.626C105.468 184.575 105.441 184.516 105.428 184.454C105.415 184.391 105.415 184.327 105.428 184.264L113.964 149.913C113.986 149.82 114.039 149.737 114.114 149.677C114.189 149.618 114.282 149.585 114.378 149.586H150.661C150.726 149.586 150.79 149.6 150.848 149.629C150.906 149.657 150.957 149.698 150.997 149.75C151.039 149.801 151.067 149.861 151.081 149.925C151.094 149.99 151.092 150.057 151.075 150.12L142.546 184.471C142.525 184.565 142.472 184.648 142.397 184.707C142.322 184.767 142.229 184.799 142.133 184.799ZM106.401 183.937H141.797L150.11 150.447H114.679L106.401 183.937Z" fill="#282929"/>
<path d="M65.3627 153.215H65.2679C65.2127 153.204 65.1603 153.182 65.1138 153.15C65.0673 153.118 65.0276 153.077 64.9971 153.03C64.9666 152.983 64.9459 152.93 64.9361 152.874C64.9264 152.819 64.928 152.762 64.9406 152.707C64.9923 152.466 70.0403 128.942 63.7949 124.153C63.7067 124.081 63.6494 123.979 63.6349 123.867C63.6205 123.754 63.65 123.641 63.7173 123.55C63.7871 123.46 63.8898 123.401 64.0028 123.386C64.1158 123.372 64.23 123.403 64.3203 123.472C70.9965 128.589 66.0002 151.897 65.7848 152.888C65.7615 152.982 65.7072 153.065 65.6306 153.125C65.554 153.184 65.4596 153.216 65.3627 153.215Z" fill="#282929"/>
<path d="M94.6769 156.925H94.6079C94.5518 156.916 94.4981 156.895 94.4499 156.865C94.4018 156.835 94.36 156.795 94.3272 156.749C94.2944 156.702 94.2711 156.65 94.2586 156.594C94.2462 156.539 94.2449 156.481 94.2547 156.425C94.2547 156.244 97.4679 137.777 94.2547 130.671C94.2273 130.619 94.2109 130.561 94.2064 130.503C94.2018 130.444 94.2094 130.385 94.2285 130.33C94.2476 130.274 94.2779 130.223 94.3175 130.18C94.3572 130.136 94.4053 130.101 94.4589 130.077C94.5125 130.053 94.5705 130.04 94.6293 130.039C94.6881 130.038 94.7464 130.049 94.8007 130.072C94.855 130.094 94.9042 130.128 94.9451 130.17C94.986 130.212 95.0179 130.262 95.0387 130.317C98.3208 137.665 95.2023 155.805 95.0387 156.572C95.0246 156.662 94.9817 156.745 94.9165 156.809C94.8513 156.872 94.7672 156.913 94.6769 156.925Z" fill="#282929"/>
<path d="M133.433 50.2206C133.427 55.7224 131.617 61.0705 128.279 65.4443C124.941 69.8181 120.261 72.9761 114.955 74.4335C114.679 84.1756 105.936 91.0234 105.385 91.4455C110.329 85.4676 110.794 79.5587 110.105 75.2432C109.511 75.2949 108.916 75.3207 108.313 75.3207H88.9829C82.3209 75.3207 75.9318 72.6744 71.221 67.964C66.5102 63.2536 63.8638 56.8649 63.8638 50.2033C63.8638 43.5418 66.5102 37.1531 71.221 32.4427C75.9318 27.7322 82.3209 25.0859 88.9829 25.0859H108.313C111.613 25.0859 114.881 25.7362 117.93 26.9995C120.979 28.2629 123.749 30.1146 126.081 32.4487C128.414 34.7829 130.264 37.5539 131.525 40.6033C132.787 43.6526 133.435 46.9207 133.433 50.2206Z" fill="white"/>
<path d="M105.385 91.8843C105.302 91.8852 105.221 91.8626 105.152 91.8191C105.082 91.7755 105.026 91.7129 104.991 91.6386C104.955 91.5643 104.942 91.4814 104.952 91.3998C104.962 91.3182 104.996 91.2412 105.049 91.178C109.855 85.3724 110.286 79.6271 109.743 75.6734C109.261 75.6734 108.796 75.7251 108.313 75.7251H88.983C82.2067 75.7251 75.708 73.0334 70.9165 68.2422C66.125 63.451 63.4331 56.9528 63.4331 50.177C63.4331 43.4012 66.125 36.903 70.9165 32.1118C75.708 27.3206 82.2067 24.6289 88.983 24.6289H108.313C114.475 24.6245 120.43 26.8467 125.083 30.8862C129.735 34.9256 132.771 40.5101 133.631 46.6108C134.491 52.7116 133.118 58.9176 129.763 64.0857C126.409 69.2537 121.3 73.0355 115.377 74.7345C114.903 84.6057 106.022 91.4708 105.643 91.7637C105.573 91.8326 105.482 91.8753 105.385 91.8843ZM110.105 74.8206C110.208 74.821 110.307 74.8575 110.386 74.9236C110.465 74.9897 110.518 75.0813 110.536 75.1824C111.271 79.75 110.384 84.4307 108.029 88.413C110.725 85.5446 114.352 80.5659 114.524 74.4244C114.527 74.3327 114.56 74.2444 114.617 74.1729C114.675 74.1014 114.754 74.0506 114.843 74.0282C120.602 72.4414 125.591 68.8209 128.886 63.8375C132.18 58.8542 133.556 52.8457 132.759 46.9255C131.962 41.0052 129.046 35.5745 124.551 31.6396C120.056 27.7046 114.287 25.5322 108.313 25.5247H88.983C85.7409 25.5247 82.5305 26.1633 79.5351 27.4039C76.5398 28.6445 73.8182 30.4629 71.5256 32.7553C69.2331 35.0477 67.4145 37.7691 66.1738 40.7642C64.9331 43.7594 64.2945 46.9695 64.2945 50.2114C64.2945 53.4534 64.9331 56.6635 66.1738 59.6586C67.4145 62.6538 69.2331 65.3752 71.5256 67.6676C73.8182 69.96 76.5398 71.7784 79.5351 73.019C82.5305 74.2596 85.7409 74.8982 88.983 74.8982H108.313C108.908 74.8982 109.485 74.8982 110.036 74.8206H110.105Z" fill="#282929"/>
<path d="M218.094 56.5149C218.094 60.7476 219.483 64.8631 222.05 68.2291C224.616 71.5952 228.217 74.0254 232.299 75.1463C232.514 82.6401 239.19 87.9031 239.664 88.2304C238.177 86.5491 237.08 84.5599 236.451 82.4052C235.823 80.2505 235.679 77.9835 236.029 75.7664C236.485 75.7664 236.942 75.8267 237.407 75.8267H252.275C257.397 75.8267 262.31 73.7921 265.932 70.1704C269.554 66.5488 271.588 61.6367 271.588 56.5149C271.588 51.3931 269.554 46.4811 265.932 42.8594C262.31 39.2378 257.397 37.2031 252.275 37.2031H237.407C232.285 37.2031 227.372 39.2378 223.75 42.8594C220.129 46.4811 218.094 51.3931 218.094 56.5149Z" fill="white"/>
<path d="M239.664 88.6621C239.569 88.6609 239.478 88.6275 239.405 88.5673C239.113 88.3434 232.281 83.0632 231.885 75.4746C227.318 74.1479 223.384 71.2177 220.805 67.2224C218.226 63.227 217.176 58.4352 217.847 53.7276C218.519 49.0199 220.867 44.7129 224.461 41.5981C228.054 38.4834 232.651 36.7702 237.407 36.7734H252.275C257.512 36.7734 262.533 38.8534 266.236 42.5559C269.939 46.2583 272.019 51.2799 272.019 56.5159C272.019 61.752 269.939 66.7735 266.236 70.476C262.533 74.1784 257.512 76.2584 252.275 76.2584H237.407C237.071 76.2584 236.735 76.2584 236.399 76.2584C236.132 78.3574 236.315 80.4893 236.936 82.5121C237.556 84.535 238.601 86.4024 240 87.9902C240.071 88.0679 240.11 88.1693 240.11 88.2745C240.11 88.3796 240.071 88.481 240 88.5587C239.954 88.5977 239.9 88.6269 239.842 88.6447C239.785 88.6625 239.724 88.6684 239.664 88.6621ZM237.407 37.6348C232.839 37.6438 228.429 39.3074 224.994 42.3176C221.558 45.3279 219.33 49.4809 218.721 54.0078C218.113 58.5346 219.165 63.1286 221.684 66.9392C224.202 70.7498 228.016 73.5189 232.419 74.7338C232.508 74.7552 232.587 74.8059 232.643 74.8779C232.7 74.9498 232.73 75.0387 232.729 75.13C232.859 79.4368 235.167 82.9426 237.14 85.1994C235.619 82.2895 235.081 78.9654 235.607 75.7244C235.625 75.6187 235.682 75.5236 235.766 75.4569C235.85 75.3903 235.956 75.3567 236.063 75.3626C236.511 75.3626 236.925 75.4229 237.407 75.4229H252.275C257.283 75.4229 262.086 73.4336 265.627 69.8927C269.168 66.3518 271.158 61.5494 271.158 56.5418C271.158 51.5342 269.168 46.7317 265.627 43.1908C262.086 39.6499 257.283 37.6606 252.275 37.6606L237.407 37.6348Z" fill="#282929"/>
<path d="M161.868 1.93359H130.556C123.738 1.93359 117.2 4.64159 112.379 9.46186C107.559 14.2821 104.851 20.8198 104.851 27.6367C104.851 34.4536 107.559 40.9913 112.379 45.8116C117.2 50.6318 123.738 53.3398 130.556 53.3398H138.007C137.817 59.3694 143.175 69.0598 155.623 84.4093C155.623 84.4093 141.883 67.2853 144.235 53.3398H161.868C168.686 53.3398 175.224 50.6318 180.045 45.8116C184.865 40.9913 187.573 34.4536 187.573 27.6367C187.573 24.2613 186.908 20.919 185.617 17.8006C184.325 14.6821 182.431 11.8486 180.045 9.46186C177.658 7.07511 174.824 5.18183 171.705 3.89013C168.587 2.59842 165.244 1.93359 161.868 1.93359Z" fill="white"/>
<path d="M155.623 84.8379C155.558 84.8389 155.494 84.8246 155.436 84.7961C155.377 84.7677 155.326 84.7259 155.287 84.6742C143.296 69.8673 137.645 60.0219 137.568 53.7598H130.556C123.624 53.7598 116.976 51.0064 112.075 46.1054C107.173 41.2043 104.42 34.5571 104.42 27.626C104.42 20.6949 107.173 14.0476 112.075 9.1466C116.976 4.24556 123.624 1.49219 130.556 1.49219H161.868C168.8 1.49219 175.448 4.24556 180.349 9.1466C185.251 14.0476 188.004 20.6949 188.004 27.626C188.004 34.5571 185.251 41.2043 180.349 46.1054C175.448 51.0064 168.8 53.7598 161.868 53.7598H144.64C142.641 67.2574 155.795 83.9076 155.994 84.1315C156.064 84.2208 156.096 84.3343 156.083 84.4472C156.07 84.5602 156.013 84.6634 155.925 84.7345C155.841 84.8055 155.733 84.8424 155.623 84.8379ZM130.556 2.36217C123.852 2.36217 117.424 5.02479 112.684 9.7643C107.944 14.5038 105.281 20.9319 105.281 27.6346C105.281 34.3373 107.944 40.7654 112.684 45.5049C117.424 50.2444 123.852 52.9071 130.556 52.9071H138.007C138.123 52.9073 138.235 52.9538 138.317 53.0363C138.394 53.1212 138.437 53.2317 138.438 53.3464C138.283 58.1528 141.806 65.4055 149.421 75.7418C149.171 75.2853 148.913 74.8202 148.663 74.3378C145.768 68.782 142.581 60.6249 143.813 53.2947C143.829 53.1951 143.881 53.1046 143.959 53.0398C144.036 52.975 144.134 52.9402 144.235 52.9415H161.868C168.572 52.9415 175 50.2789 179.74 45.5394C184.48 40.7999 187.143 34.3717 187.143 27.6691C187.143 20.9664 184.48 14.5383 179.74 9.79875C175 5.05924 168.572 2.39662 161.868 2.39662L130.556 2.36217Z" fill="#282929"/>
<path d="M273.673 101.523H294.046C296.461 101.525 298.846 102.056 301.034 103.078C303.221 104.101 305.158 105.59 306.709 107.442C308.259 109.293 309.385 111.462 310.007 113.795C310.629 116.129 310.732 118.57 310.309 120.947L295.725 201.967H241.766L257.409 115.099C258.1 111.289 260.106 107.843 263.079 105.361C266.051 102.88 269.801 101.522 273.673 101.523Z" fill="white"/>
<path d="M295.725 202.421H241.766C241.703 202.421 241.641 202.407 241.585 202.38C241.528 202.353 241.478 202.314 241.438 202.266C241.393 202.219 241.359 202.164 241.336 202.103C241.314 202.042 241.305 201.977 241.309 201.913L256.944 115.044C257.656 111.13 259.722 107.592 262.781 105.049C265.839 102.506 269.695 101.119 273.673 101.133H294.046C296.527 101.133 298.977 101.677 301.225 102.727C303.473 103.778 305.462 105.309 307.054 107.212C308.645 109.115 309.799 111.345 310.435 113.743C311.07 116.141 311.171 118.649 310.731 121.091L296.147 202.111C296.122 202.202 296.067 202.283 295.99 202.339C295.914 202.395 295.82 202.424 295.725 202.421ZM242.317 201.559H295.398L309.913 120.893C310.332 118.575 310.236 116.194 309.634 113.917C309.032 111.641 307.937 109.524 306.427 107.717C304.917 105.909 303.028 104.456 300.895 103.458C298.762 102.46 296.435 101.943 294.08 101.943H273.673C269.897 101.94 266.241 103.266 263.345 105.688C260.448 108.11 258.497 111.474 257.831 115.19L242.317 201.559Z" fill="#282929"/>
<path d="M249.501 121.863C249.501 121.863 242.79 124.775 232.557 164.01C231.695 167.188 206.834 176.577 206.834 176.577L213.726 181.866C213.726 181.866 244.944 185.622 252.111 177.43C259.278 169.238 249.501 121.863 249.501 121.863Z" fill="url(#paint6_linear_2698_15388)"/>
<path d="M249.501 121.859C249.501 121.859 245.866 135.917 248.596 150.93C251.327 165.944 241.765 186.151 241.765 186.151C241.765 186.151 264.059 200.286 284.079 189.373C284.079 189.373 285.216 136.83 277.937 127.501C270.657 118.172 260.424 110.756 249.501 121.859Z" fill="url(#paint7_linear_2698_15388)"/>
<path d="M266.566 129.092C266.566 129.092 269.52 164.805 266.566 165.485L227.095 174.495L229.369 184.289C229.369 184.289 256.323 188.458 272.251 181.636C288.179 174.814 288.859 136.138 280.667 126.586C272.475 117.033 267.246 124.088 266.566 129.092Z" fill="url(#paint8_linear_2698_15388)"/>
<path d="M252.611 120.858L254.506 152.29L265.722 118.895L252.611 120.858Z" fill="#282929"/>
<path d="M254.506 152.721H254.455C254.355 152.709 254.263 152.664 254.194 152.591C254.125 152.519 254.083 152.425 254.075 152.325L252.18 120.894C252.173 120.787 252.206 120.682 252.273 120.599C252.34 120.515 252.436 120.461 252.542 120.446L265.662 118.482C265.735 118.47 265.81 118.478 265.879 118.503C265.949 118.529 266.01 118.572 266.058 118.628C266.104 118.686 266.135 118.753 266.149 118.825C266.162 118.898 266.158 118.972 266.136 119.042L254.937 152.437C254.903 152.523 254.844 152.596 254.767 152.647C254.689 152.698 254.599 152.724 254.506 152.721ZM253.059 121.23L254.782 150.051L265.068 119.429L253.059 121.23Z" fill="#282929"/>
<path d="M185.31 184.491L166.138 145.973L162.814 147.627L181.986 186.145L185.31 184.491Z" fill="white"/>
<path d="M182 186.583C181.955 186.592 181.908 186.592 181.862 186.583C181.808 186.566 181.758 186.539 181.715 186.502C181.672 186.465 181.637 186.419 181.612 186.368L162.437 147.822C162.394 147.717 162.394 147.599 162.437 147.495C162.453 147.44 162.481 147.39 162.518 147.347C162.555 147.304 162.601 147.269 162.652 147.245L165.977 145.591C166.028 145.566 166.083 145.551 166.14 145.548C166.197 145.544 166.253 145.552 166.307 145.57C166.36 145.589 166.41 145.617 166.452 145.655C166.495 145.693 166.53 145.738 166.554 145.789L185.73 184.309C185.778 184.412 185.785 184.53 185.748 184.638C185.711 184.746 185.633 184.835 185.532 184.886L182.215 186.54C182.148 186.57 182.074 186.585 182 186.583ZM163.401 147.822L182.19 185.55L184.774 184.275L165.986 146.53L163.401 147.822Z" fill="#282929"/>
<path d="M228.388 174.645C228.291 174.645 228.197 174.611 228.121 174.55C228.046 174.489 227.994 174.404 227.974 174.309C227.948 174.198 227.967 174.081 228.027 173.985C228.087 173.888 228.182 173.819 228.293 173.792C241.421 170.846 261.407 165.824 262.647 164.05C263.888 162.276 265.568 143.67 266.378 131.628C266.381 131.572 266.395 131.517 266.42 131.466C266.445 131.416 266.48 131.371 266.522 131.334C266.565 131.297 266.614 131.269 266.668 131.251C266.721 131.234 266.778 131.227 266.834 131.232C266.891 131.235 266.946 131.25 266.997 131.274C267.048 131.299 267.094 131.334 267.131 131.376C267.169 131.419 267.198 131.468 267.216 131.522C267.235 131.575 267.242 131.632 267.239 131.688C267.032 134.781 265.154 161.957 263.354 164.541C261.553 167.125 231.833 173.878 228.439 174.636L228.388 174.645Z" fill="#282929"/>
<path d="M242.075 185.319C235.632 185.319 230.816 184.931 230.748 184.923C230.635 184.912 230.531 184.857 230.458 184.77C230.386 184.683 230.35 184.571 230.36 184.458C230.364 184.401 230.38 184.346 230.406 184.295C230.431 184.245 230.467 184.2 230.51 184.163C230.553 184.126 230.603 184.098 230.657 184.081C230.712 184.063 230.768 184.057 230.825 184.061C231.178 184.061 266.617 186.904 274.646 176.817C282.674 166.731 282.571 150.305 282.571 150.115C282.57 150.059 282.58 150.002 282.6 149.95C282.621 149.897 282.652 149.849 282.691 149.808C282.73 149.767 282.777 149.735 282.829 149.712C282.881 149.689 282.937 149.677 282.993 149.676C283.107 149.678 283.217 149.724 283.298 149.804C283.38 149.884 283.428 149.992 283.432 150.106C283.432 150.27 283.587 166.946 275.318 177.334C271.812 181.736 263.258 184.346 249.811 185.086C247.106 185.267 244.479 185.319 242.075 185.319Z" fill="#282929"/>
<path d="M246.658 168.322C246.546 168.307 246.443 168.25 246.371 168.162C246.299 168.074 246.263 167.962 246.271 167.848C246.716 162.476 246.794 157.08 246.503 151.698C246.038 141.878 246.159 127.967 246.159 127.829C246.161 127.716 246.207 127.607 246.287 127.527C246.367 127.447 246.476 127.401 246.589 127.398C246.704 127.401 246.814 127.448 246.894 127.53C246.975 127.612 247.02 127.723 247.02 127.838C247.02 127.976 246.899 141.861 247.365 151.654C247.655 157.08 247.577 162.519 247.132 167.934C247.127 167.991 247.11 168.046 247.083 168.096C247.057 168.146 247.02 168.191 246.976 168.227C246.932 168.263 246.881 168.29 246.827 168.306C246.772 168.322 246.715 168.328 246.658 168.322Z" fill="#282929"/>
<path d="M251.216 89.4427C250.923 89.4427 249.993 92.8882 249.872 93.181C249.062 95.3258 247.77 97.2466 246.754 99.3225C244.434 104.055 241.61 108.523 238.329 112.648C239.79 112.618 241.23 112.293 242.563 111.692C243.895 111.091 245.092 110.226 246.082 109.151L243.618 115.938C245.263 116.526 247.015 116.754 248.755 116.605C250.496 116.457 252.184 115.935 253.705 115.077C259.055 112.002 260.028 106.188 260.597 100.615L261.984 88.2109L251.216 89.4427Z" fill="white"/>
<path d="M247.735 117.078C246.296 117.082 244.868 116.834 243.514 116.346C243.408 116.305 243.321 116.225 243.273 116.122C243.23 116.017 243.23 115.9 243.273 115.795L245.134 110.678C243.194 112.192 240.815 113.036 238.354 113.081C238.273 113.081 238.194 113.058 238.126 113.015C238.058 112.972 238.003 112.91 237.968 112.838C237.933 112.765 237.919 112.684 237.928 112.603C237.937 112.523 237.968 112.447 238.018 112.384C241.279 108.283 244.086 103.841 246.391 99.1359C246.779 98.3521 247.21 97.5769 247.623 96.8361C248.335 95.6157 248.96 94.3463 249.493 93.0375C249.493 92.9686 249.587 92.7532 249.673 92.4604C250.638 89.2388 250.819 89.0149 251.198 89.0149L261.949 87.8004C262.013 87.7921 262.078 87.7986 262.14 87.8195C262.201 87.8404 262.257 87.8751 262.302 87.921C262.347 87.9677 262.38 88.0234 262.401 88.0844C262.422 88.1453 262.429 88.2101 262.423 88.2741L261.122 100.643C260.51 106.406 259.459 112.289 253.989 115.433C252.086 116.523 249.928 117.091 247.735 117.078ZM244.22 115.674C245.757 116.158 247.377 116.321 248.979 116.152C250.581 115.983 252.131 115.486 253.533 114.692C258.65 111.746 259.649 106.079 260.235 100.549L261.484 88.7134L251.431 89.8504C251.063 90.7837 250.744 91.7353 250.475 92.7015C250.371 93.0289 250.302 93.27 250.276 93.3389C249.731 94.6884 249.086 95.9955 248.347 97.2495C247.942 97.9903 247.485 98.7483 247.141 99.5149C244.949 103.986 242.308 108.223 239.259 112.16C241.769 111.891 244.096 110.719 245.806 108.861C245.875 108.79 245.965 108.743 246.064 108.729C246.162 108.715 246.262 108.734 246.348 108.783C246.434 108.835 246.498 108.915 246.531 109.009C246.564 109.103 246.564 109.206 246.529 109.3L244.22 115.674Z" fill="#282929"/>
<path d="M254.541 112.466L252.611 120.864C252.611 120.864 251.595 126.127 257.203 125.645C258.859 125.486 260.459 124.959 261.887 124.104C263.315 123.249 264.534 122.086 265.455 120.701L267.712 105.446C267.816 104.8 268.729 98.486 269.883 92.9475C263.431 91.621 257.754 89.9844 257.754 89.9844C258.262 90.7338 255.945 90.3978 255.945 90.3978C254.91 90.1928 253.848 90.155 252.801 90.2858C251.724 93.938 249.966 97.8228 249.355 101.535C248.962 103.753 248.766 106.001 248.769 108.254C248.838 112.526 254.541 112.466 254.541 112.466Z" fill="white"/>
<path d="M256.496 126.065C255.883 126.106 255.269 126.016 254.694 125.801C254.119 125.585 253.597 125.249 253.162 124.816C252.734 124.246 252.429 123.593 252.267 122.899C252.105 122.205 252.09 121.485 252.223 120.784L254.041 112.851C251.861 112.731 248.433 111.671 248.373 108.243C248.355 105.97 248.551 103.7 248.958 101.464C249.46 98.9614 250.175 96.5063 251.095 94.1252C251.56 92.8159 252.042 91.455 252.421 90.1629C252.442 90.0911 252.484 90.0269 252.54 89.978C252.597 89.9291 252.666 89.8976 252.74 89.8873C253.83 89.7519 254.935 89.7897 256.014 89.9993C256.464 90.0711 256.921 90.0855 257.375 90.0423C257.366 89.9928 257.367 89.9419 257.379 89.8929C257.391 89.844 257.413 89.7981 257.444 89.7581C257.488 89.69 257.553 89.6376 257.628 89.6082C257.704 89.5789 257.787 89.5741 257.866 89.5944C257.917 89.5944 263.603 91.2483 269.926 92.5489C270.027 92.5741 270.116 92.6354 270.176 92.7212C270.205 92.7636 270.225 92.8113 270.235 92.8616C270.246 92.9118 270.246 92.9637 270.236 93.0141C269.228 97.8463 268.393 103.29 268.083 105.409C268.083 105.495 265.817 120.759 265.817 120.759C265.809 120.81 265.791 120.86 265.765 120.905C264.819 122.356 263.558 123.574 262.075 124.469C260.592 125.364 258.927 125.912 257.202 126.073C256.967 126.082 256.731 126.079 256.496 126.065ZM254.532 112.076C254.591 112.076 254.65 112.089 254.704 112.114C254.757 112.139 254.805 112.176 254.842 112.222C254.88 112.269 254.907 112.323 254.92 112.381C254.934 112.44 254.933 112.5 254.92 112.558L252.99 120.948C252.99 120.948 252.611 123.033 253.748 124.29C254.446 125.065 255.6 125.384 257.194 125.246C258.775 125.089 260.303 124.588 261.67 123.778C263.037 122.969 264.212 121.871 265.111 120.561C265.283 119.363 267.342 105.418 267.35 105.375C267.669 103.23 268.47 97.9927 269.444 93.238C264.275 92.1613 259.615 90.8951 258.15 90.4902L258.09 90.5592C257.685 90.9898 256.367 90.8693 255.91 90.7659C254.994 90.588 254.057 90.5416 253.128 90.6281C252.757 91.8598 252.266 93.1346 251.87 94.375C250.965 96.7145 250.259 99.1263 249.76 101.585C249.364 103.776 249.171 105.999 249.182 108.226C249.251 112.067 254.351 112.059 254.558 112.067L254.532 112.076Z" fill="#282929"/>
<path d="M257.676 99.4102C257.676 99.4102 254.067 103.088 254.601 103.941C255.135 104.794 257.099 104.673 257.099 104.673" fill="white"/>
<path d="M256.815 105.13C256.16 105.13 254.773 105.027 254.23 104.191C253.688 103.356 255.609 100.918 257.366 99.1266C257.405 99.0854 257.451 99.0526 257.503 99.0301C257.555 99.0077 257.611 98.9961 257.667 98.9961C257.724 98.9961 257.78 99.0077 257.832 99.0301C257.884 99.0526 257.93 99.0854 257.969 99.1266C258.009 99.1659 258.041 99.2128 258.063 99.2646C258.084 99.3164 258.096 99.3719 258.096 99.4281C258.096 99.4842 258.084 99.5398 258.063 99.5916C258.041 99.6434 258.009 99.6903 257.969 99.7296C256.289 101.452 254.885 103.33 254.962 103.761C255.247 104.217 256.496 104.295 257.047 104.26C257.104 104.256 257.161 104.262 257.215 104.28C257.269 104.297 257.319 104.325 257.362 104.362C257.405 104.399 257.441 104.444 257.467 104.494C257.493 104.545 257.508 104.6 257.512 104.657C257.517 104.713 257.51 104.771 257.492 104.825C257.474 104.879 257.445 104.929 257.407 104.971C257.37 105.014 257.324 105.049 257.272 105.073C257.22 105.097 257.164 105.111 257.107 105.113L256.815 105.13Z" fill="#282929"/>
<path d="M255.018 97.9623C255.132 97.4662 255.01 97.0148 254.745 96.954C254.481 96.8933 254.174 97.2463 254.06 97.7424C253.946 98.2385 254.068 98.6899 254.333 98.7506C254.597 98.8113 254.904 98.4584 255.018 97.9623Z" fill="#282929"/>
<path d="M261.881 99.8959C261.995 99.3998 261.873 98.9484 261.609 98.8876C261.345 98.8269 261.038 99.1799 260.924 99.676C260.81 100.172 260.932 100.623 261.196 100.684C261.461 100.745 261.767 100.392 261.881 99.8959Z" fill="#282929"/>
<path d="M256.117 95.7277L257.021 94.005L257.668 96.0723L263.077 97.6744L264.576 95.4349L264.421 98.4669L267.273 98.7598C266.523 98.6822 263.164 112.137 262.836 113.248C262.242 115.264 261.527 117.451 259.778 118.623C261.656 119.329 263.741 118.313 265.36 117.124C267.472 115.587 269.318 113.713 270.822 111.577L269.271 119.949C270.016 120.037 270.771 119.961 271.483 119.727C272.196 119.494 272.849 119.108 273.398 118.597C274.488 117.567 275.351 116.32 275.93 114.936C278.42 109.587 277.834 104.6 278.006 98.9665C278.222 92.3684 277.825 86.7782 270.003 83.7462C262.182 80.7142 256.522 81.6703 252.421 85.2449C251.201 86.3577 250.221 87.7078 249.541 89.2127C248.861 90.7175 248.496 92.3454 248.467 93.9964C248.467 93.9964 254.48 95.5727 256.117 95.7277Z" fill="white"/>
<path d="M269.909 120.402C269.672 120.402 269.436 120.385 269.203 120.35C269.145 120.342 269.09 120.322 269.041 120.29C268.992 120.259 268.95 120.218 268.918 120.169C268.851 120.074 268.823 119.957 268.841 119.842L270.073 113.244C268.767 114.823 267.271 116.235 265.619 117.447C263.336 119.109 261.312 119.635 259.589 118.989C259.514 118.962 259.449 118.914 259.4 118.852C259.351 118.789 259.321 118.715 259.313 118.636C259.305 118.557 259.318 118.478 259.351 118.407C259.385 118.335 259.437 118.275 259.503 118.231C261.079 117.18 261.768 115.199 262.388 113.063C262.449 112.865 262.604 112.262 262.828 111.418C264.913 103.458 265.895 100.297 266.472 99.0483L264.344 98.833C264.234 98.8221 264.133 98.7695 264.061 98.6862C263.989 98.6029 263.951 98.4951 263.956 98.385L264.034 96.9121L263.405 97.851C263.353 97.9266 263.278 97.9838 263.191 98.0147C263.105 98.0456 263.011 98.0486 262.923 98.0233L257.513 96.4211C257.445 96.401 257.382 96.3646 257.331 96.3151C257.28 96.2656 257.242 96.2044 257.22 96.1369L256.884 95.0688L256.462 95.8871C256.422 95.9628 256.36 96.0251 256.285 96.0664C256.21 96.1077 256.125 96.1262 256.04 96.1197C254.386 95.9646 248.562 94.3969 248.287 94.3452C248.195 94.3253 248.113 94.2739 248.055 94.2001C247.996 94.1262 247.966 94.0344 247.968 93.9404C247.988 92.2262 248.363 90.5347 249.069 88.9723C249.774 87.4099 250.796 86.0103 252.068 84.8616C256.582 80.9252 262.638 80.3911 270.09 83.2767C278.11 86.3862 278.584 92.2004 278.368 98.9105C278.368 100.03 278.368 101.116 278.325 102.192C278.325 106.559 278.325 110.685 276.258 115.052C275.642 116.487 274.742 117.782 273.613 118.86C272.598 119.794 271.287 120.34 269.909 120.402ZM269.78 119.54C271.013 119.529 272.199 119.066 273.114 118.24C274.162 117.252 274.989 116.054 275.543 114.725C277.498 110.522 277.515 106.49 277.533 102.218C277.533 101.141 277.533 100.039 277.576 98.9191C277.791 92.3124 277.352 87.0236 269.823 84.1208C262.595 81.3214 256.987 81.7865 252.68 85.5421C250.396 87.6361 249.029 90.5446 248.872 93.6389C250.07 93.949 254.213 95.0257 255.841 95.2583L256.617 93.7768C256.655 93.7018 256.715 93.6398 256.789 93.5984C256.862 93.5571 256.946 93.5382 257.03 93.5442C257.116 93.5518 257.198 93.5844 257.265 93.638C257.332 93.6916 257.383 93.7638 257.409 93.8457L257.986 95.6976L262.871 97.1447L264.198 95.1636C264.248 95.0841 264.324 95.024 264.413 94.9928C264.502 94.9615 264.599 94.961 264.689 94.9913C264.778 95.024 264.854 95.0842 264.907 95.1632C264.959 95.2421 264.985 95.3358 264.981 95.4306L264.844 98.0147L267.256 98.2645C267.362 98.2626 267.466 98.2995 267.547 98.3683C267.628 98.4372 267.682 98.5332 267.698 98.6385C267.714 98.7439 267.691 98.8514 267.633 98.941C267.575 99.0307 267.487 99.0963 267.385 99.1258C266.678 100.073 264.387 108.782 263.629 111.676C263.405 112.537 263.25 113.14 263.19 113.338C262.612 115.276 261.984 117.12 260.666 118.377C261.915 118.507 263.388 117.964 265.05 116.749C267.122 115.236 268.932 113.395 270.409 111.297C270.467 111.217 270.55 111.159 270.646 111.132C270.741 111.106 270.843 111.112 270.934 111.15C271.024 111.188 271.098 111.256 271.144 111.343C271.189 111.429 271.203 111.529 271.184 111.624L269.78 119.54Z" fill="#282929"/>
<path d="M254.54 112.463C254.54 112.463 259.037 112.351 260.949 111.18C260.949 111.18 258.193 117.054 253.059 118.932L254.54 112.463Z" fill="#282929"/>
<path d="M253.059 119.328C252.955 119.329 252.854 119.292 252.775 119.225C252.716 119.173 252.672 119.107 252.647 119.033C252.623 118.958 252.619 118.879 252.637 118.803L254.119 112.368C254.14 112.276 254.191 112.194 254.265 112.135C254.338 112.075 254.429 112.042 254.523 112.041C254.567 112.041 258.934 111.912 260.726 110.818C260.799 110.761 260.888 110.73 260.98 110.73C261.072 110.73 261.162 110.761 261.234 110.818C261.304 110.878 261.351 110.96 261.37 111.05C261.389 111.14 261.377 111.234 261.338 111.317C261.226 111.567 258.443 117.347 253.205 119.259C253.161 119.291 253.112 119.314 253.059 119.328ZM254.885 112.885L253.662 118.191C256.832 116.735 258.986 113.703 259.959 112.084C258.306 112.552 256.603 112.821 254.885 112.885Z" fill="#282929"/>
<path d="M254.179 110.14H254.058C253.619 110.079 253.326 109.717 253.197 109.071L252.654 106.677C252.638 106.607 252.64 106.534 252.66 106.464C252.679 106.395 252.716 106.332 252.766 106.281C252.818 106.23 252.881 106.193 252.95 106.172C253.019 106.151 253.092 106.147 253.162 106.16L256.565 106.849C256.633 106.861 256.696 106.889 256.75 106.931C256.804 106.973 256.847 107.028 256.875 107.09C256.905 107.151 256.92 107.217 256.92 107.284C256.92 107.351 256.905 107.418 256.875 107.478C256.376 108.296 255.204 110.14 254.179 110.14ZM253.628 107.168L254.015 108.891C254.101 109.235 254.196 109.304 254.196 109.304C254.437 109.304 255.118 108.589 255.773 107.581L253.628 107.168Z" fill="#282929"/>
</g>
<defs>
<linearGradient id="paint0_linear_2698_15388" x1="131" y1="87" x2="211" y2="208" gradientUnits="userSpaceOnUse">
<stop stop-color="#FFB11B"/>
<stop offset="1" stop-color="#FF441B"/>
</linearGradient>
<linearGradient id="paint1_linear_2698_15388" x1="131" y1="87" x2="211" y2="208" gradientUnits="userSpaceOnUse">
<stop stop-color="#FFB11B"/>
<stop offset="1" stop-color="#FF441B"/>
</linearGradient>
<linearGradient id="paint2_linear_2698_15388" x1="131" y1="87" x2="211" y2="208" gradientUnits="userSpaceOnUse">
<stop stop-color="#FFB11B"/>
<stop offset="1" stop-color="#FF441B"/>
</linearGradient>
<linearGradient id="paint3_linear_2698_15388" x1="39.5" y1="121.5" x2="100.5" y2="204" gradientUnits="userSpaceOnUse">
<stop stop-color="#FFB11B"/>
<stop offset="1" stop-color="#FF441B"/>
</linearGradient>
<linearGradient id="paint4_linear_2698_15388" x1="39.5" y1="121.5" x2="100.5" y2="204" gradientUnits="userSpaceOnUse">
<stop stop-color="#FFB11B"/>
<stop offset="1" stop-color="#FF441B"/>
</linearGradient>
<linearGradient id="paint5_linear_2698_15388" x1="39.5" y1="121.5" x2="100.5" y2="204" gradientUnits="userSpaceOnUse">
<stop stop-color="#FFB11B"/>
<stop offset="1" stop-color="#FF441B"/>
</linearGradient>
<linearGradient id="paint6_linear_2698_15388" x1="222.5" y1="121.5" x2="297.5" y2="201" gradientUnits="userSpaceOnUse">
<stop stop-color="#FFB11B"/>
<stop offset="1" stop-color="#FF441B"/>
</linearGradient>
<linearGradient id="paint7_linear_2698_15388" x1="222.5" y1="121.5" x2="297.5" y2="201" gradientUnits="userSpaceOnUse">
<stop stop-color="#FFB11B"/>
<stop offset="1" stop-color="#FF441B"/>
</linearGradient>
<linearGradient id="paint8_linear_2698_15388" x1="222.5" y1="121.5" x2="297.5" y2="201" gradientUnits="userSpaceOnUse">
<stop stop-color="#FFB11B"/>
<stop offset="1" stop-color="#FF441B"/>
</linearGradient>
<clipPath id="clip0_2698_15388">
<rect width="332" height="170" fill="white"/>
</clipPath>
</defs>
</svg>
