<svg width="332" height="170" viewBox="0 0 332 170" fill="none" xmlns="http://www.w3.org/2000/svg">
<g clip-path="url(#clip0_2698_15267)">
<path d="M161.432 205.491C202.193 205.491 235.235 170.664 235.235 127.703C235.235 84.7412 202.193 49.9141 161.432 49.9141C120.672 49.9141 87.6289 84.7412 87.6289 127.703C87.6289 170.664 120.672 205.491 161.432 205.491Z" fill="white"/>
<path d="M161.432 49.9132C176.029 49.9132 190.298 54.4754 202.435 63.0229C214.572 71.5704 224.031 83.7193 229.617 97.9333C235.203 112.147 236.665 127.788 233.817 142.877C230.97 157.967 223.941 171.828 213.619 182.706C203.297 193.585 190.147 200.994 175.83 203.996C161.514 206.997 146.675 205.457 133.189 199.569C119.703 193.681 108.177 183.711 100.067 170.919C91.9573 158.126 87.6288 143.087 87.6288 127.702C87.6277 117.486 89.5358 107.37 93.2444 97.9318C96.9529 88.4936 102.389 79.9177 109.243 72.6941C116.096 65.4706 124.233 59.7408 133.187 55.832C142.142 51.9232 151.74 49.9119 161.432 49.9132M161.432 49.0518C146.674 49.0518 132.246 53.6645 119.975 62.3067C107.704 70.9488 98.1396 83.2323 92.4917 97.6037C86.8439 111.975 85.3661 127.789 88.2454 143.046C91.1246 158.302 98.2315 172.316 108.667 183.316C119.103 194.315 132.399 201.806 146.874 204.84C161.349 207.875 176.353 206.318 189.988 200.365C203.623 194.412 215.277 184.331 223.477 171.397C231.676 158.463 236.053 143.257 236.053 127.702C236.032 106.849 228.163 86.8573 214.173 72.1124C200.184 57.3675 181.216 49.0741 161.432 49.0518V49.0518Z" fill="#282929"/>
<path d="M106.097 76.2297C106.638 76.4523 107.231 76.4916 107.794 76.342L106.808 75.4057C108.141 73.8608 109.544 72.3721 110.992 70.9395C110.957 71.5171 110.786 72.0764 110.495 72.5668C110.203 73.0573 109.8 73.4634 109.322 73.7485C110.886 73.8421 112.103 72.8683 113.471 72.4283C115.097 72.0217 116.743 71.7091 118.401 71.492L115.985 73.2616C116.442 73.4497 116.911 73.606 117.388 73.7297C117.841 72.6904 118.436 73.5331 118.969 73.505C120.169 73.4301 121.492 74.9282 122.407 73.3833C122.839 73.4377 123.264 73.5349 123.678 73.6736C124.814 74.0419 125.896 74.5744 126.893 75.2559C128.013 76.1922 128.359 76.3046 129.212 74.9188L128.084 74.5069V74.0294L130.376 73.505C130.467 74.0771 130.503 74.6575 130.482 75.2372C130.38 75.6024 130.221 75.9473 130.012 76.2578C130.686 76.3257 131.357 76.4351 132.019 76.5855C132.654 76.8155 133.274 77.0875 133.876 77.4001L133.316 78.5985L136.381 78.0836L136.496 78.3738L135.324 79.1884C137.1 79.7408 138.166 78.7764 138.175 76.8851L139.677 76.0331C139.142 75.9838 138.603 76.054 138.095 76.239C136.443 76.6229 134.764 77.063 133.138 76.1829C132.303 75.7334 132.348 75.1061 133.138 74.6754C134.121 74.11 135.154 73.6459 136.221 73.2897C138.087 72.7279 140.005 72.3534 141.933 71.8758L141.613 71.3609C142.487 71.0941 143.377 70.8938 144.278 70.7616C144.826 70.8419 145.356 71.0259 145.842 71.3047L145.371 70.2373C146.259 70.6774 146.988 71.3702 147.53 71.2392C148.711 70.9583 149.617 71.9227 150.843 71.6699C151.536 71.5294 152.469 72.6062 153.002 72.9713C153.563 73.0401 154.117 73.1687 154.654 73.3552C155.156 73.6906 155.629 74.0729 156.067 74.4975L154.192 74.02C155.036 75.1248 155.969 76.4263 156.973 77.6248C157.674 78.4487 158.43 79.4974 159.345 79.7689C160.598 80.1584 161.748 80.8509 162.702 81.7914C162.886 82.0003 163.027 82.2471 163.116 82.5162C163.204 82.7854 163.239 83.071 163.218 83.355C163.091 84.1809 162.873 84.9884 162.569 85.7613C162.403 86.182 162.091 86.5199 161.696 86.7061C161.302 86.8923 160.854 86.9127 160.446 86.7632C159.709 86.3793 158.785 85.443 158.332 85.6583C157.674 85.986 157.355 87.1002 156.893 87.8867C156.801 88.0471 156.718 88.2128 156.644 88.383C156.218 89.3193 156.271 91.4634 154.645 89.235C153.322 89.5346 153.313 88.3923 153.233 87.6152C153.217 87.2214 153.101 86.8393 152.896 86.5096C152.691 86.1798 152.405 85.9148 152.069 85.7426C151.878 85.6742 151.71 85.5475 151.587 85.3787C151.464 85.2098 151.391 85.0063 151.378 84.7939C151.365 84.5814 151.411 84.3696 151.512 84.1852C151.613 84.0007 151.764 83.8519 151.945 83.7576C152.966 82.9898 153.082 82.2876 152.202 81.2951C151.74 80.7708 151.039 80.4899 150.523 79.9936C150.008 79.4974 149.733 78.842 149.226 78.4113C148.64 77.8889 147.965 77.4885 147.236 77.2315C146.819 77.1098 146.259 77.5218 145.655 77.7371C146.854 78.739 147.761 79.4787 148.658 80.2371C149.155 80.6584 149.742 83.1958 149.289 83.4861C148.451 84.0164 147.509 84.3368 146.535 84.4224C145.655 84.3152 144.786 84.1208 143.941 83.8419C143.506 83.8614 143.076 83.9563 142.67 84.1228V84.6845L144.953 84.9093C145.55 84.9427 146.143 85.0177 146.73 85.134C147.538 85.3212 147.618 85.8924 147.077 86.4448C146.33 87.1658 146.57 87.6714 147.183 88.2425C148.72 86.9223 149.058 87.0534 149.422 89.1133C149.462 89.5868 149.462 90.063 149.422 90.5365C150.052 90.8174 150.825 91.4728 151.198 91.2855C152.815 90.4709 153.863 91.9784 155.311 92.0907C155.738 90.911 156.546 91.632 157.292 91.6507C157.787 91.6107 158.255 91.4001 158.625 91.0514C158.829 90.8735 158.963 90.2275 158.838 90.1151C158.53 89.7731 158.325 89.3417 158.251 88.8763C158.176 88.4108 158.235 87.9326 158.421 87.5028C160.366 88.6264 160.348 88.6264 159.904 90.7237C159.835 91.1503 159.805 91.5831 159.815 92.0158L162.702 93.233C163.591 94.1694 164.284 94.8997 164.95 95.5832C165.19 95.8173 165.545 95.9764 165.687 96.2667C165.796 96.5479 165.958 96.8028 166.164 97.0157C166.369 97.2285 166.614 97.3949 166.882 97.5045C167.151 97.6141 167.438 97.6646 167.726 97.653C168.014 97.6414 168.297 97.568 168.557 97.4371C168.512 97.8584 168.468 98.261 168.414 98.7104L170.973 98.5887C170.24 99.5862 169.439 100.525 168.574 101.398C167.553 102.634 168.388 103.944 168.574 105.208C170.724 105.386 172.874 104.338 174.953 105.658C173.771 108.195 175.743 110.817 174.322 113.298L172.909 113.12L172.074 114.291C169.925 113.757 167.846 113.439 167.197 111.482C167.197 110.723 167.357 110.171 167.197 109.89C166.7 109.16 166.034 108.579 165.474 107.905C165.101 107.446 164.479 106.922 164.506 106.463C164.577 105.002 163.751 105.077 162.987 105.405C162.664 105.589 162.291 105.651 161.93 105.583C161.569 105.515 161.24 105.321 160.997 105.031C160.519 104.623 160.011 104.257 159.478 103.935C159.114 104.422 158.758 104.946 158.358 105.433C157.729 106.32 157.012 107.133 156.218 107.858C154.823 108.926 153.162 109.731 153.766 112.1L152.78 110.667C152.948 110.068 153.064 109.637 153.251 108.963L151.643 109.684C151.696 109.412 151.643 109.216 151.749 109.16C152.691 108.514 153.259 107.287 154.485 107.044C154.855 106.877 155.166 106.592 155.374 106.229C155.738 105.723 155.969 105.115 156.351 104.628C157.292 103.429 157.124 102.755 155.827 102.418C155.72 102.728 155.574 103.021 155.391 103.289C155.249 103.458 154.805 103.439 154.77 103.579C154.432 104.946 153.33 105.349 152.344 105.976C151.731 106.369 150.914 107.128 150.914 107.727C150.914 110.47 149.049 112.146 148.143 114.281C147.737 113.674 147.386 113.028 147.094 112.352C146.988 111.92 147.032 111.462 147.219 111.06C147.525 110.442 147.872 109.848 148.258 109.281C147.681 109.281 147.13 109.525 146.926 109.338C145.922 108.401 145.948 108.345 145.078 108.879C145.149 109.881 145.211 110.751 145.264 111.472C144.865 112.09 144.58 113.017 144.012 113.298C143.443 113.579 142.724 114.927 141.516 113.804C141.142 113.448 139.872 114.16 139.01 114.375C138.97 114.387 138.927 114.387 138.886 114.375L136.701 113.326C137.154 115.433 137.509 117.071 137.873 118.785C138.104 119.862 138.495 120.658 139.783 120.704C140.281 120.704 140.76 121.285 141.009 121.444L139.002 123.663L139.988 124.468L139.854 124.871L137.927 124.262C137.66 124.759 137.296 125.367 136.985 126.023C136.47 127.127 135.981 128.242 135.51 129.365C135.137 130.301 134.782 131.191 134.453 132.118C134.273 132.809 134.06 133.491 133.814 134.159C133.434 134.886 133.007 135.584 132.534 136.247C131.22 138.269 131.255 140.657 130.873 142.932C130.74 143.738 130.402 144.028 129.709 143.663C128.441 143.048 127.207 142.357 126.014 141.593C124.761 140.732 123.695 139.543 122.407 138.738C121.208 138.103 120.151 137.206 119.307 136.107C119.085 135.77 118.916 135.404 118.721 135.058C118.542 134.688 118.331 134.337 118.09 134.009C116.606 132.286 116.909 130.77 118.89 129.74C119.294 129.485 119.594 129.081 119.733 128.607C119.865 127.992 119.93 127.364 119.929 126.734C120.489 127.358 120.989 128.038 121.421 128.766C121.99 129.955 122.905 129.234 123.651 129.384L123.891 127.905C123.953 127.586 124.024 127.268 124.184 126.547C124.477 127.287 124.61 127.614 124.699 127.848L126.973 122.727C125.756 121.294 125.508 121.332 124.646 123.064C124.529 123.317 124.426 123.576 124.335 123.841C124.18 124.324 123.927 124.765 123.594 125.136C123.262 125.506 122.857 125.796 122.409 125.987C121.96 126.177 121.477 126.263 120.994 126.238C120.511 126.214 120.038 126.079 119.609 125.845C118.978 127.493 118.845 127.717 117.051 127.82C115.256 127.923 113.373 127.82 111.721 127.82L108.709 131.434L109.597 131.809L107.608 133.616L106.533 132.249C106.071 134.861 105.644 137.923 104.969 140.882C104.361 143.893 103.468 146.832 102.304 149.655C100.593 147.526 99.7362 144.779 99.9146 141.996C100.026 141.312 99.9426 140.608 99.6747 139.974C99.0351 138.99 97.9958 138.279 97.3917 137.277C96.4412 135.723 94.5845 134.927 94.2203 132.895C94.2203 132.633 93.6429 132.38 93.332 132.286C92.3637 132.024 91.3865 131.846 90.3738 131.631C90.2447 132.401 90.0051 133.146 89.6631 133.841C89.0633 134.667 88.5648 135.57 88.1796 136.528C87.8626 133.597 87.7024 130.649 87.6999 127.699C87.6584 108.749 94.203 90.4396 106.097 76.2297V76.2297Z" fill="#282929" fill-opacity="0.2"/>
<path d="M208.372 187.715C208.146 187.224 208.002 186.695 207.945 186.152C207.976 185.59 207.845 185.032 207.571 184.55C207.297 184.068 206.892 183.683 206.409 183.446C205.192 182.865 203.903 182.51 202.651 181.976C202.357 181.901 202.095 181.727 201.905 181.48C201.263 180.406 200.753 179.252 200.386 178.043C200.103 176.359 199.919 174.658 199.835 172.95C199.842 172.762 199.805 172.576 199.728 172.407C199.089 171.536 198.351 170.731 197.783 169.804C197.214 168.877 196.264 167.66 196.21 166.546C196.172 166.219 196.198 165.888 196.287 165.573C196.376 165.258 196.525 164.965 196.726 164.714C196.927 164.463 197.175 164.258 197.455 164.112C197.735 163.966 198.04 163.883 198.351 163.868C198.566 163.799 198.752 163.653 198.875 163.456C200.315 161.405 202.429 161.855 204.419 161.827C204.241 160.946 204.667 160.656 205.538 160.441C207.563 159.954 209.189 158.952 209.775 156.527C210.362 154.102 211.552 153.269 214.111 153.119C214.869 152.955 215.578 152.594 216.171 152.07C216.656 151.653 217.099 151.186 217.495 150.675C217.688 150.41 217.905 150.165 218.144 149.945C218.845 149.439 219.352 148.344 220.284 148.559C221.244 148.901 222.283 148.901 223.243 148.559C224.131 148.138 225.019 147.679 226.094 147.145L227.08 149.954C227.755 148.849 227.08 147.754 226.911 146.593C228.875 147.866 231.131 148.596 231.602 151.424L231.726 151.349C227.413 165.582 219.306 178.206 208.372 187.715V187.715Z" fill="#282929" fill-opacity="0.2"/>
<path d="M223.198 102.397C220.72 102.987 218.872 101.676 216.891 100.665C216.712 100.564 216.559 100.422 216.441 100.248C216.324 100.074 216.247 99.8737 216.216 99.663C216.246 99.4111 216.325 99.1682 216.447 98.9493C216.569 98.7304 216.732 98.54 216.927 98.3896C217.48 98.1503 218.063 97.9988 218.659 97.9402L217.895 97.4159C218.9 96.8896 219.855 96.2625 220.746 95.5433C221.173 95.1313 221.031 94.1294 221.359 93.5208C221.919 92.5003 222.656 91.5733 223.349 90.5527C224.015 91.5452 224.193 93.3148 225.81 92.8841C226.059 92.8262 226.295 92.7169 226.503 92.5626C226.712 92.4084 226.89 92.2122 227.027 91.9853C231.579 101.266 234.299 111.424 235.022 121.844C234.76 121.557 234.461 121.311 234.134 121.114C232.108 119.897 231.993 119.513 232.517 117.06C232.589 116.259 232.589 115.454 232.517 114.653L232.011 116.704C231.531 115.768 230.847 115.084 230.776 114.298C230.651 112.902 229.994 112.584 228.875 112.565C228.43 112.512 227.992 112.408 227.569 112.256L227.942 112.078C227.871 111.386 228.04 110.318 227.684 110.075C226.279 109.185 224.822 108.387 223.323 107.687L224.273 109.841L223.944 109.925L219.307 107.322L219.512 106.947L220.089 107.294L219.769 106.152C219.87 106.154 219.969 106.183 220.057 106.237C220.144 106.291 220.216 106.368 220.267 106.461C221.155 107.771 221.555 107.874 222.798 106.929C223.731 106.227 224.069 105.421 223.083 104.429C222.994 104.345 223.225 103.624 223.349 103.614C223.87 103.556 224.397 103.597 224.904 103.736C225.578 103.986 226.239 104.273 226.885 104.597C225.845 103.53 224.788 102.013 223.198 102.397Z" fill="#282929" fill-opacity="0.2"/>
<path d="M159.38 155.284C159.035 155.888 158.909 156.603 159.025 157.297C159.611 159.366 159.62 161.089 158.021 162.821C157.348 163.58 156.833 164.478 156.507 165.458C156.181 166.438 156.052 167.479 156.129 168.514C156.152 168.798 156.083 169.082 155.933 169.319C155.285 170.255 155.676 170.911 156.111 171.847C157.07 173.907 157.976 176.023 156.635 178.448C155.673 179.843 155.076 181.48 154.903 183.195C154.939 185.002 154.334 186.759 153.206 188.12C152.406 188.949 151.933 190.066 151.882 191.247C151.967 191.758 151.89 192.283 151.663 192.743C151.437 193.203 151.074 193.572 150.63 193.794C150.221 193.604 149.796 193.456 149.36 193.354C148.143 193.325 146.931 193.19 145.735 192.952C142.733 192.015 141.293 189.328 139.73 186.763C139.446 186.294 139.623 185.517 139.579 184.609C139.401 184.506 138.993 184.234 138.557 184.019C138.295 183.931 138.053 183.785 137.847 183.592C137.641 183.399 137.475 183.162 137.361 182.897C137.248 182.633 137.188 182.346 137.186 182.055C137.183 181.765 137.239 181.477 137.349 181.21C137.482 180.723 137.705 180.274 137.811 179.75C137.882 179.469 137.918 179.029 137.811 178.888C136.807 177.952 135.715 177.016 134.729 176.079C134.089 175.443 133.245 174.731 133.085 173.916C132.928 172.667 132.988 171.398 133.263 170.171C133.387 169.338 133.911 168.57 134.053 167.737C134.196 166.903 133.636 165.77 134.56 164.928C134.675 164.825 134.613 164.329 134.48 164.132C132.987 161.95 131.815 159.385 129.86 157.737C127.311 155.565 126.049 152.718 124.646 149.863C124.359 148.997 124.191 148.092 124.148 147.175C126.085 147.7 127.8 148.205 129.541 148.599C129.727 148.607 129.912 148.568 130.08 148.485C130.249 148.402 130.396 148.277 130.509 148.121C130.793 147.606 130.758 146.848 131.095 146.408C131.735 145.584 132.579 144.956 133.281 144.189C133.672 143.788 133.975 143.302 134.169 142.765C134.746 140.893 136.061 139.441 136.265 137.335C136.39 136.043 137.527 134.882 138.042 133.59C138.747 132 139.37 130.372 139.908 128.711C140.298 127.485 140.947 127.588 141.871 127.85C142.548 128.091 143.272 128.148 143.976 128.019C145.357 127.601 146.715 127.104 148.045 126.53C149.244 126.052 150.195 126.605 150.301 127.878C150.381 128.814 150.754 129.292 151.589 128.646C152.424 128 154.068 128.346 154.37 126.698C154.37 126.642 154.69 126.698 154.832 126.614C156.093 126.043 157.817 126.773 158.518 125.359C158.181 124.292 157.896 123.393 157.577 122.41C158.161 122.274 158.755 122.189 159.353 122.157C160.881 122.213 162.418 122.27 163.937 122.485C165.019 122.637 166.079 122.932 167.091 123.365C168.708 124.067 170.262 124.685 171.71 123.459C172.297 124.31 172.997 125.066 173.789 125.706C174.248 125.946 174.633 126.317 174.9 126.778C175.167 127.238 175.306 127.769 175.299 128.309C175.299 130.022 176.187 130.621 177.458 131.043C177.785 131.138 178.072 131.346 178.275 131.633C179.03 132.934 179.794 134.254 180.443 135.612C180.904 136.548 181.74 137.4 180.896 138.795C180.469 139.836 180.438 141.008 180.807 142.073C181.188 143.467 181.3 144.929 181.135 146.37C181.135 146.679 180.825 146.979 180.611 147.25C180.398 147.522 180.132 147.644 179.963 147.896C179.262 149.124 178.488 150.303 177.644 151.426C176.676 152.399 175.652 153.309 174.58 154.151C174.3 154.408 173.955 154.574 173.588 154.629C173.221 154.683 172.846 154.625 172.51 154.46C171.406 154.238 170.284 154.125 169.161 154.123C168.729 154.101 168.3 154.032 167.881 153.917C167.029 153.537 166.157 153.208 165.27 152.934C164.381 152.728 163.164 152.138 162.756 153.552C162.383 154.825 161.699 154.778 160.73 154.685C160.477 154.671 160.224 154.718 159.99 154.822C159.756 154.925 159.548 155.083 159.38 155.284Z" fill="#282929" fill-opacity="0.2"/>
<path d="M215.221 74.4467C214.962 74.3617 214.714 74.2421 214.484 74.0909L212.316 75.6826L215.088 75.2613L215.15 75.7014L212.485 76.7407V78.1264L215.657 79.8305L214.2 81.0477C214.273 81.4498 214.273 81.8628 214.2 82.2649C213.196 84.4371 212.174 86.6 211.082 88.7161C210.778 89.2604 210.343 89.7097 209.82 90.0175C209.072 90.4374 208.297 90.8034 207.502 91.113C206.915 91.3939 206.356 91.7029 206.178 90.6168C206 89.5306 205.743 88.5569 205.503 87.5269C205.458 87.3397 205.396 87.0775 205.263 87.012C204.17 86.4127 203.975 85.4483 203.984 84.203C203.984 83.8098 203.344 83.0514 203.051 83.0795C200.901 83.2948 199.551 82.1432 198.387 80.4484C198.067 79.9803 197.499 79.3998 197.064 79.3717C194.248 79.1844 191.876 77.8549 189.371 76.3381L192.737 75.9729L191.849 74.8119L189.184 75.9916C189.107 75.731 189.08 75.4567 189.105 75.1849C189.129 74.9131 189.206 74.6494 189.329 74.4093C189.453 74.1692 189.621 73.9576 189.823 73.7872C190.025 73.6167 190.258 73.4907 190.508 73.4168C191.662 72.9486 191.778 72.2932 191.183 71.4505H188.091L188.98 70.3925L186.999 70.0929L187.887 69.1566C186.341 68.0517 188.367 67.4993 188.242 66.666L186.324 66.5349C186.679 65.9731 186.874 65.299 187.265 65.1211C187.892 64.9553 188.54 64.9014 189.184 64.9619C187.407 62.153 184.378 61.2167 181.606 59.859C182.35 59.4353 183.172 59.1866 184.015 59.1301C184.859 59.0735 185.704 59.2104 186.492 59.5313C187.926 59.9515 189.387 60.2644 190.863 60.4676C190.73 60.2523 190.463 59.7935 190.188 59.3253C190.756 59.3909 191.325 59.4751 191.893 59.522C192.204 59.522 192.524 59.522 192.844 59.522L192.888 58.9508L189.415 58.3328C190.596 57.9958 191.725 57.5183 192.862 57.2842C201.273 61.472 208.858 67.2946 215.221 74.4467V74.4467Z" fill="#282929" fill-opacity="0.2"/>
<path d="M224.61 87.4619L225.028 88.2203C224.753 88.314 224.468 88.4169 224.14 88.5387L224.61 87.4619Z" fill="#282929" fill-opacity="0.2"/>
<path d="M220.578 81.248H220.622C220.847 81.5601 221.06 81.8723 221.262 82.1844L220.578 81.248Z" fill="#282929" fill-opacity="0.2"/>
<path d="M223.322 87.0444C223.219 86.5123 223.246 85.9611 223.402 85.4434C223.713 85.9396 224.006 86.4358 224.291 86.9415L223.322 87.0444Z" fill="#282929" fill-opacity="0.2"/>
<path d="M166.105 94.5292C165.98 94.1828 165.67 93.6865 165.785 93.5367C165.978 93.3472 166.224 93.2289 166.487 93.1997C167.517 91.6922 168.423 90.3908 169.383 88.9957C168.601 87.535 168.628 86.9919 169.676 86.271C170.316 85.8309 171.781 86.4489 172.448 87.4507C172.758 87.9095 172.314 88.7709 171.159 89.9226L171.319 90.7934C171.097 90.7934 170.929 90.7934 170.84 90.8683C170.431 91.196 169.818 91.4769 169.694 91.9169C169.569 92.357 169.951 92.8532 170.582 92.5817C170.747 92.7075 170.866 92.8893 170.92 93.0967C170.947 93.655 170.947 94.2144 170.92 94.7727L169.809 95.1191L171.772 96.7015L166.442 95.812C166.309 95.1285 166.203 94.8008 166.105 94.5292Z" fill="#282929" fill-opacity="0.2"/>
<path d="M120.986 66.4673C121.981 67.6053 123.05 68.669 124.184 69.6507C122.772 71.0927 120.968 71.2893 118.774 71.205C119.378 70.7556 119.876 70.5402 120.107 70.1563C120.338 69.7725 120.515 69.0141 120.32 68.7519C119.348 67.5156 118.137 66.5131 116.767 65.8119C117.229 65.4374 117.655 65.0628 118.179 64.707C119.269 64.9636 120.252 65.5803 120.986 66.4673V66.4673Z" fill="#282929" fill-opacity="0.2"/>
<path d="M187.656 87.0523C187.133 87.1879 186.588 87.1879 186.065 87.0523C185.243 86.8257 184.469 86.4382 183.782 85.91C183.267 85.4606 182.095 85.0954 182.654 84.0374C183.202 83.2943 183.848 82.6383 184.573 82.0898L184.68 82.5486L188.713 83.5692L189.699 82.1835L189.539 82.6423L191.316 83.719L191.129 83.9625H189.237L190.951 84.8988L189.05 85.4793L190.01 86.2283C189.201 86.556 188.437 86.8744 187.656 87.0523Z" fill="#282929" fill-opacity="0.2"/>
<path d="M153.037 63.5632C152.149 62.8328 151.456 62.1868 150.692 61.6344C150.554 61.5611 150.402 61.5229 150.248 61.5229C150.093 61.5229 149.941 61.5611 149.803 61.6344C149.581 61.7935 149.537 62.2149 149.377 62.5707H146.801L146.748 62.0651L154.005 59.0127L153.561 60.052L157.878 59.6588L157.976 60.1363C157.432 60.6845 156.8 61.1281 156.111 61.4471C155.398 61.4945 154.683 61.3959 154.005 61.1568L153.961 61.5033L155.604 62.1306L155.542 62.3647L154.245 62.4958L155.133 62.9733L153.037 63.5632Z" fill="#282929" fill-opacity="0.2"/>
<path d="M172.226 91.9866C171.604 91.5933 171.506 91.0503 172.119 90.7225C172.732 90.3948 173.443 89.7862 174.144 90.7225C174.526 91.1813 174.979 91.5652 175.504 92.0802V94.2805L175.93 94.5052C175.699 94.7019 175.415 95.1138 175.246 95.067C174.281 94.8193 173.345 94.4581 172.457 93.9903C172.234 93.8592 172.403 92.9978 172.368 92.4828C172.359 92.2581 172.323 91.9866 172.226 91.9866Z" fill="#282929" fill-opacity="0.2"/>
<path d="M234.24 136.367C234.419 136.273 234.606 136.201 234.8 136.151C234.8 136.482 234.764 136.81 234.693 137.134C234.163 137.325 233.646 137.557 233.148 137.827C232.615 138.108 232.259 138.764 231.753 139.475L229.31 139.176C231.087 138.164 232.632 137.209 234.24 136.367Z" fill="#282929" fill-opacity="0.2"/>
<path d="M224.628 141.093C224.522 139.839 226.663 139.043 228.581 139.595L227.56 140.831L229.576 140.644C227.995 141.805 226.281 140.953 224.628 141.093Z" fill="#282929" fill-opacity="0.2"/>
<path d="M144.607 59.1357H151.42C150.534 59.6346 149.577 59.9792 148.587 60.1563C147.258 60.1745 145.929 60.1088 144.607 59.9597V59.1357Z" fill="#282929" fill-opacity="0.2"/>
<path d="M99.2304 153.082C98.8484 152.923 98.342 152.146 98.422 151.865C98.795 150.973 99.2471 150.121 99.7723 149.318L100.181 149.506C100.181 150.367 100.181 151.228 100.181 152.08C100.181 152.933 99.9944 153.382 99.2304 153.082Z" fill="#282929" fill-opacity="0.2"/>
<path d="M224.078 92.7227C224.078 92.7227 259.931 133.63 260.499 137.665C261.592 145.474 219.636 185.567 219.636 185.567L210.024 171.738L235.022 141.036L202.153 93.7339L224.078 92.7227Z" fill="#282929"/>
<path d="M159.175 108.008L160.064 108.382V110.789C158.553 110.704 159.246 109.422 158.944 108.729C158.864 108.57 159.086 108.27 159.175 108.008Z" fill="#282929" fill-opacity="0.2"/>
<path d="M194.531 101.789L247.005 192.096L261.734 183.164L218.303 93.3623L194.531 101.789Z" fill="#282929"/>
<path d="M219.618 186.023H219.565C219.504 186.016 219.445 185.995 219.391 185.963C219.338 185.931 219.291 185.888 219.254 185.836L209.651 171.997C209.589 171.914 209.556 171.812 209.556 171.707C209.556 171.601 209.589 171.499 209.651 171.417L234.4 141.015L201.789 94.0025C201.741 93.935 201.711 93.8547 201.703 93.7704C201.695 93.6861 201.71 93.6012 201.745 93.525C201.779 93.4484 201.833 93.3833 201.901 93.337C201.968 93.2907 202.047 93.2651 202.127 93.2628L224.042 92.2516C224.106 92.2456 224.17 92.2562 224.229 92.2823C224.288 92.3084 224.34 92.3493 224.38 92.4014C228.066 96.6055 260.349 133.533 260.917 137.578C261.388 140.977 254.61 150.153 240.761 164.862C230.581 175.742 220.018 185.808 219.92 185.901C219.881 185.942 219.833 185.974 219.781 185.995C219.729 186.016 219.674 186.025 219.618 186.023V186.023ZM210.575 171.744L219.681 184.853C231.558 173.486 260.917 143.852 260.056 137.709C259.665 134.9 238.265 109.62 223.891 93.1879L203.006 94.1243L235.342 140.734C235.407 140.815 235.443 140.918 235.443 141.024C235.443 141.13 235.407 141.233 235.342 141.314L210.575 171.744Z" fill="#282929"/>
<path d="M247.006 192.569C246.929 192.57 246.854 192.55 246.787 192.51C246.72 192.471 246.664 192.414 246.624 192.345L194.158 102.038C194.132 101.974 194.119 101.906 194.119 101.837C194.119 101.767 194.132 101.699 194.158 101.635C194.182 101.57 194.219 101.511 194.266 101.463C194.314 101.414 194.371 101.377 194.434 101.354L218.143 92.9276C218.243 92.8905 218.352 92.8928 218.45 92.9342C218.548 92.9755 218.629 93.053 218.677 93.1523L262.116 182.954C262.168 183.061 262.178 183.185 262.145 183.3C262.112 183.415 262.038 183.512 261.939 183.572L247.21 192.513C247.146 192.547 247.077 192.566 247.006 192.569V192.569ZM195.198 102.047L247.157 191.474L261.148 182.982L218.081 93.9388L195.198 102.047Z" fill="#282929"/>
<path d="M195.135 37.3311C195.135 37.3311 207.421 38.876 211.898 46.2353C216.375 53.5947 218.543 80.5979 220.808 82.6297C223.073 84.6615 229.318 94.9889 229.221 95.4758C229.123 95.9627 193.11 105.101 193.11 105.101C193.11 105.101 191.626 96.3747 188.499 84.9798C185.372 73.5849 184.813 37.3404 195.135 37.3311Z" fill="url(#paint0_linear_2698_15267)"/>
<path d="M204.454 48.9851C204.712 49.3783 217.042 73.8722 217.042 73.8722L233.325 54.2097L241.871 61.7001C241.871 61.7001 227.302 87.3737 218.01 89.8549C208.718 92.3362 190.054 56.5224 190.605 52.7771C191.156 49.0319 200.803 43.4608 204.454 48.9851Z" fill="url(#paint1_linear_2698_15267)"/>
<path d="M187.629 36.7483C183.898 36.7483 179.634 37.6191 177.688 40.943C177.053 42.0192 176.716 43.2615 176.716 44.5291C176.716 45.7966 177.053 47.0389 177.688 48.1151C178.358 49.1613 179.304 49.9772 180.409 50.4616C181.515 50.946 182.731 51.0775 183.907 50.8398C185.683 50.4278 187.185 49.1638 188.872 48.4054C191.28 47.3192 193.98 47.3005 196.539 46.7013C197.359 46.572 198.13 46.2094 198.769 45.6526C199.385 44.9813 199.735 44.0869 199.746 43.1527C200.11 36.4955 191.813 36.7483 187.629 36.7483Z" fill="url(#paint2_linear_2698_15267)"/>
<path d="M118.259 177.612C118.259 177.612 125.294 153.652 124.37 138.624C123.447 123.596 114.146 122.501 110.921 122.22C107.696 121.939 90.6224 119.177 84.2174 127.117C77.8125 135.057 66.5483 172.237 66.5483 172.237L118.259 177.612Z" fill="url(#paint3_linear_2698_15267)"/>
<path d="M119.964 126.077C123.864 126.892 135.883 167.406 130.376 171.704C121.785 178.408 95.5527 169.251 95.5527 169.251L98.2177 157.331C98.2177 157.331 117.148 158.268 117.495 154.185C117.841 150.103 106.915 130.89 108.442 128.09C109.97 125.291 119.964 126.077 119.964 126.077Z" fill="url(#paint4_linear_2698_15267)"/>
<path d="M154.281 111.93H156.689L156.76 112.22L154.557 113.634C154.459 112.997 154.361 112.426 154.281 111.93Z" fill="#282929" fill-opacity="0.2"/>
<path d="M239.329 48.7653L241.512 49.9219L251.746 28.4645L249.564 27.308L239.329 48.7653Z" fill="#282929"/>
<path d="M241.498 50.3948C241.43 50.4089 241.361 50.4089 241.293 50.3948L239.117 49.2338C239.064 49.2068 239.017 49.1692 238.979 49.123C238.94 49.0769 238.91 49.0231 238.891 48.9648C238.872 48.9065 238.864 48.8449 238.868 48.7834C238.872 48.7219 238.887 48.6618 238.913 48.6064L249.155 27.0994C249.18 27.0443 249.215 26.995 249.258 26.9545C249.301 26.914 249.352 26.8831 249.406 26.8639C249.461 26.8446 249.519 26.8373 249.577 26.8424C249.634 26.8475 249.691 26.8648 249.742 26.8935L251.9 28.0545C251.953 28.0813 252 28.119 252.038 28.1654C252.077 28.2118 252.106 28.2659 252.124 28.3244C252.143 28.383 252.149 28.4448 252.145 28.5062C252.14 28.5676 252.123 28.6273 252.096 28.6818L241.889 50.142C241.835 50.2523 241.742 50.3363 241.631 50.3761L241.498 50.3948ZM239.908 48.5222L241.302 49.2619L251.136 28.6631L249.742 27.9234L239.908 48.5222Z" fill="#282929"/>
<path d="M233.361 57.983C233.618 57.1497 238.869 50.427 239.064 48.9663C239.259 47.5057 238.087 41.4759 239.259 40.6426C240.432 39.8092 242.591 45.4458 242.591 45.4458C242.591 45.4458 247.183 36.6352 248.489 37.2063C249.795 37.7775 249.378 42.6556 248.649 45.6331C247.921 48.6105 239.588 63.2263 239.588 63.2263L233.361 57.983Z" fill="white"/>
<path d="M239.588 63.6752C239.489 63.6772 239.392 63.6443 239.312 63.5815L233.094 58.3569C233.025 58.2952 232.975 58.2135 232.95 58.1219C232.924 58.0304 232.925 57.933 232.952 57.842C233.539 56.7431 234.22 55.7026 234.986 54.7334C236.399 52.7204 238.539 49.6774 238.646 48.9002C238.663 48.0427 238.618 47.1852 238.513 46.3347C238.229 43.1981 238.104 40.9229 239.019 40.2581C239.134 40.1726 239.266 40.1171 239.405 40.0959C239.544 40.0747 239.686 40.0886 239.819 40.1364C240.867 40.4641 242.048 42.9453 242.661 44.3778C244.776 40.4079 247.378 36.2039 248.675 36.775C250.648 37.6364 249.51 44.0595 249.102 45.7355C248.347 48.7223 240.352 62.8512 239.97 63.4504C239.937 63.5078 239.893 63.5574 239.841 63.596C239.789 63.6347 239.73 63.6616 239.668 63.6752H239.588ZM233.92 57.8607L239.463 62.5422C240.876 60.0423 247.592 48.095 248.222 45.5201C249.111 42.0558 249.111 38.0297 248.32 37.6645C247.618 37.7207 244.98 41.8592 242.99 45.698C242.95 45.7763 242.889 45.8407 242.815 45.8839C242.741 45.927 242.657 45.947 242.573 45.9415C242.489 45.9328 242.409 45.9003 242.342 45.8475C242.275 45.7948 242.222 45.7237 242.191 45.6419C241.187 43.0389 239.952 41.0539 239.526 41.0539C238.957 41.4659 239.241 44.5932 239.383 46.2785C239.509 47.2087 239.553 48.1488 239.517 49.0875C239.392 50.0238 237.847 52.2709 235.688 55.342C235.022 56.2596 234.24 57.3457 233.92 57.8607V57.8607Z" fill="#282929"/>
<path d="M248.019 154.021C247.937 154.023 247.857 154.001 247.786 153.958C247.716 153.916 247.658 153.853 247.619 153.778L222.967 104.153C222.932 104.084 222.914 104.007 222.914 103.929C222.914 103.85 222.932 103.773 222.967 103.704L225.57 98.7883C225.597 98.7344 225.634 98.6868 225.679 98.6481C225.724 98.6094 225.775 98.5805 225.831 98.5631C225.886 98.5457 225.944 98.5401 226.002 98.5466C226.059 98.5531 226.115 98.5716 226.165 98.6011C226.217 98.6305 226.262 98.6703 226.299 98.7182C226.336 98.7662 226.363 98.8213 226.38 98.8805C226.396 98.9397 226.402 99.0017 226.395 99.063C226.389 99.1243 226.371 99.1837 226.343 99.2378L223.856 103.919L248.401 153.328C248.454 153.439 248.465 153.568 248.43 153.687C248.395 153.806 248.318 153.905 248.214 153.965C248.153 153.997 248.087 154.016 248.019 154.021V154.021Z" fill="white"/>
<path d="M197.712 36.3906C195.42 35.9505 193.146 35.4075 190.907 34.752C189.273 34.2745 187.523 33.6378 186.634 32.121C188.1 31.4094 188.731 29.6304 189.228 28.02L192.56 17.1307C193.334 14.0845 194.532 11.1755 196.113 8.49796C197.303 6.68152 202.411 1.32584 204.303 4.65909C206.453 2.9082 210.993 1.63482 213.542 2.95501C214.994 3.76041 216.262 4.88964 217.258 6.2641C218.253 7.63856 218.953 9.22522 219.307 10.9136C219.737 13.72 219.607 16.59 218.925 19.3404C218.842 19.9047 218.674 20.4515 218.428 20.9602C217.975 21.6281 217.398 22.192 216.731 22.6175C212.071 26.1836 208.315 30.9042 205.796 36.3625C205.685 36.7503 205.446 37.0829 205.121 37.2988C204.864 37.3953 204.588 37.4179 204.321 37.3643C202.154 37.1209 199.915 36.8026 197.712 36.3906Z" fill="white"/>
<path d="M204.65 37.8243C204.516 37.8243 204.392 37.8243 204.276 37.8243C202.064 37.6089 199.835 37.2906 197.658 36.888C195.357 36.4573 193.048 35.8955 190.8 35.2401C189.024 34.7157 187.247 34.0135 186.279 32.4311C186.244 32.3751 186.221 32.3118 186.212 32.2454C186.202 32.1791 186.207 32.1115 186.225 32.0473C186.245 31.9842 186.276 31.926 186.317 31.8761C186.358 31.8262 186.409 31.7857 186.465 31.757C187.744 31.139 188.331 29.5286 188.819 27.9369L192.159 17.057C192.949 13.9609 194.173 11.0068 195.793 8.29311C196.788 6.77629 200.163 3.19023 202.633 3.19023H202.731C203.06 3.19921 203.383 3.28242 203.679 3.43425C203.974 3.58608 204.236 3.80299 204.445 4.07035C206.71 2.46927 211.072 1.20525 213.782 2.60035C215.294 3.43896 216.614 4.61466 217.651 6.04568C218.688 7.4767 219.417 9.12867 219.787 10.8867C220.236 13.7607 220.105 16.702 219.405 19.5194C219.315 20.1343 219.129 20.7291 218.854 21.2797C218.407 21.9744 217.826 22.5616 217.148 23.0025L217.033 23.0868C212.417 26.5939 208.695 31.2477 206.195 36.6352C206.037 37.1077 205.721 37.5036 205.307 37.7494C205.096 37.8278 204.871 37.8534 204.65 37.8243V37.8243ZM187.3 32.272C188.333 33.3173 189.633 34.0232 191.04 34.3038C193.261 34.9498 195.544 35.5022 197.809 35.9329C199.968 36.3449 202.171 36.6539 204.356 36.8692C204.546 36.9173 204.744 36.9173 204.934 36.8692C205.129 36.7756 205.271 36.4666 205.396 36.1951C207.96 30.6681 211.78 25.8949 216.518 22.3003L216.624 22.216C217.201 21.8458 217.7 21.3551 218.09 20.7741C218.31 20.3117 218.46 19.8156 218.534 19.3041C219.207 16.6128 219.337 13.8028 218.916 11.0552C218.579 9.43424 217.91 7.91052 216.956 6.59075C216.001 5.27099 214.784 4.18709 213.391 3.41494C211.099 2.23519 206.719 3.3494 204.614 5.06284C204.566 5.10452 204.511 5.13455 204.451 5.15074C204.391 5.16693 204.328 5.16889 204.268 5.15647C204.197 5.14815 204.129 5.1216 204.07 5.07915C204.011 5.0367 203.963 4.97966 203.93 4.91303C203.81 4.66494 203.629 4.45565 203.405 4.30731C203.181 4.15897 202.924 4.0771 202.66 4.07035H202.597C200.51 4.07035 197.347 7.45979 196.486 8.7519C194.91 11.3921 193.712 14.2633 192.932 17.2723L189.592 28.1522C189.192 29.6971 188.588 31.3825 187.3 32.272V32.272Z" fill="#282929"/>
<path d="M219.032 23.4004C219.032 23.4004 221.804 29.8328 220.862 30.8909C219.92 31.9489 217.54 30.7504 217.54 30.7504" fill="white"/>
<path d="M219.707 31.8238C218.89 31.7801 218.089 31.5636 217.353 31.1872C217.248 31.1309 217.169 31.034 217.131 30.917C217.092 30.8 217.099 30.6719 217.149 30.5598C217.174 30.5044 217.21 30.4549 217.254 30.414C217.297 30.3732 217.348 30.3419 217.404 30.3219C217.459 30.3019 217.517 30.2936 217.576 30.2975C217.634 30.3013 217.691 30.3173 217.744 30.3445C218.286 30.6254 219.965 31.2808 220.542 30.5879C220.942 30.1385 220.045 26.8427 218.632 23.5937C218.584 23.4807 218.58 23.3522 218.622 23.2364C218.664 23.1205 218.747 23.0268 218.854 22.9757C218.907 22.9493 218.964 22.9345 219.023 22.932C219.081 22.9295 219.14 22.9395 219.194 22.9614C219.249 22.9832 219.299 23.0165 219.341 23.0592C219.384 23.1019 219.417 23.1531 219.44 23.2098C220.329 25.2229 222.23 30.0449 221.217 31.2246C221.021 31.4331 220.785 31.5945 220.524 31.6979C220.263 31.8013 219.985 31.8443 219.707 31.8238Z" fill="#282929"/>
<path d="M219.423 15.5873C221.439 17.9749 220.134 22.076 219.698 24.8193C219.106 28.6769 218.41 32.5189 217.611 36.3453C217.122 38.7703 211.099 37.8153 210.149 36.9071L209.482 45.0998C209.482 45.0998 207.395 49.3319 202.9 46.1485C198.405 42.965 197.765 39.5568 197.765 39.5568L199.844 28.4148C199.844 28.4148 203.815 29.1076 206.951 24.5104C210.086 19.9131 211.117 12.2354 211.117 12.2354C211.117 12.2354 217.451 13.2559 219.423 15.5873Z" fill="white"/>
<path d="M206.044 47.7986C204.819 47.743 203.637 47.3028 202.651 46.5346C198.058 43.2856 197.321 39.7464 197.321 39.5966C197.303 39.5356 197.303 39.4703 197.321 39.4093L199.409 28.3141C199.434 28.1967 199.5 28.0934 199.593 28.0243C199.687 27.9551 199.802 27.9249 199.915 27.9395C200.066 27.9395 203.664 28.5107 206.56 24.1943C209.562 19.7468 210.628 12.2002 210.637 12.1253C210.645 12.0636 210.665 12.0043 210.695 11.9511C210.726 11.898 210.767 11.852 210.815 11.8163C210.861 11.7787 210.914 11.751 210.97 11.735C211.027 11.7189 211.086 11.7147 211.144 11.7227C211.41 11.7227 217.699 12.7994 219.752 15.2245C221.582 17.3873 220.924 20.7112 220.409 23.3797C220.302 23.904 220.205 24.4003 220.134 24.8497C219.529 28.6979 218.828 32.5743 218.046 36.3944C217.946 36.7959 217.741 37.1601 217.456 37.4461C217.17 37.7322 216.815 37.9289 216.429 38.0142C214.468 38.4897 212.419 38.3531 210.531 37.621L209.927 45.1114C209.917 45.1731 209.899 45.233 209.873 45.2893C209.262 46.4324 208.252 47.2789 207.057 47.6488C206.727 47.7413 206.387 47.7916 206.044 47.7986ZM198.218 39.4936C198.351 40.0179 199.258 43.0047 203.148 45.7575C203.66 46.191 204.254 46.5046 204.889 46.6773C205.525 46.8501 206.188 46.878 206.835 46.7593C207.761 46.4655 208.55 45.8177 209.047 44.9429L209.704 36.8625C209.712 36.7762 209.742 36.6936 209.791 36.624C209.84 36.5545 209.906 36.5007 209.983 36.4686C210.059 36.4366 210.143 36.4276 210.224 36.4426C210.305 36.4576 210.38 36.496 210.442 36.5536C210.966 37.0498 214.271 37.7989 216.154 37.1622C216.749 36.9562 217.095 36.6472 217.175 36.2259C217.948 32.4151 218.65 28.5481 219.254 24.7186C219.334 24.2505 219.432 23.7823 219.538 23.2112C220.018 20.7487 220.622 17.6776 219.085 15.8705C217.531 13.9979 212.867 13.0616 211.446 12.7526C211.161 14.5129 209.998 20.73 207.279 24.7561C204.561 28.7822 201.372 28.9414 200.173 28.8852L198.218 39.4936Z" fill="#282929"/>
<path d="M217.957 33.4508C217.957 33.4508 214.839 34.8178 213.791 31.4658Z" fill="white"/>
<path d="M216.545 34.194C215.816 34.2163 215.102 33.9721 214.524 33.5028C213.946 33.0336 213.539 32.3681 213.374 31.6192C213.353 31.5601 213.344 31.4973 213.347 31.4344C213.35 31.3715 213.365 31.3099 213.391 31.2532C213.417 31.1966 213.453 31.1461 213.498 31.1047C213.543 31.0633 213.596 31.0319 213.653 31.0124C213.709 30.9928 213.769 30.9856 213.829 30.991C213.888 30.9965 213.946 31.0145 213.999 31.0441C214.052 31.0736 214.098 31.1141 214.136 31.163C214.173 31.212 214.201 31.2684 214.217 31.3289C214.31 31.6835 214.469 32.0148 214.686 32.3029C214.902 32.5909 215.172 32.8297 215.479 33.0049C216.215 33.295 217.026 33.295 217.762 33.0049C217.868 32.971 217.981 32.9798 218.081 33.0296C218.181 33.0793 218.26 33.1665 218.302 33.2741C218.344 33.3816 218.347 33.5019 218.309 33.6114C218.272 33.7209 218.197 33.8118 218.1 33.8663C217.604 34.0729 217.078 34.1839 216.545 34.194V34.194Z" fill="#282929"/>
<path d="M211.641 24.6937C211.686 23.7134 211.467 22.7397 211.01 21.8847C210.759 21.1658 210.402 20.4928 209.953 19.8904C209.722 19.5992 209.435 19.3645 209.109 19.2028C208.784 19.0411 208.429 18.9562 208.07 18.9541C207.753 18.9819 207.445 19.0796 207.167 19.2409C206.888 19.4022 206.645 19.6235 206.453 19.8904C206.071 20.4459 205.816 21.0867 205.707 21.763C205.43 23.2055 205.516 24.6992 205.957 26.0955C206.398 27.4918 207.179 28.742 208.221 29.7217L208.061 29.4595" fill="white"/>
<path d="M208.221 30.1955C208.116 30.1952 208.016 30.1553 207.937 30.0831C206.832 29.0473 206.004 27.7238 205.536 26.245C205.068 24.7662 204.977 23.1839 205.272 21.6564C205.399 20.9236 205.685 20.2315 206.107 19.6339C206.335 19.3086 206.626 19.039 206.962 18.8435C207.298 18.648 207.67 18.5311 208.052 18.501C208.48 18.4993 208.903 18.5995 209.289 18.794C209.675 18.9886 210.014 19.2725 210.282 19.6246C210.76 20.2548 211.144 20.9591 211.419 21.7125C211.91 22.6531 212.138 23.7213 212.076 24.793C212.059 24.9141 211.997 25.0232 211.904 25.0967C211.811 25.1702 211.694 25.2024 211.579 25.1862C211.521 25.1794 211.464 25.1602 211.413 25.1299C211.362 25.0995 211.318 25.0587 211.282 25.0097C211.246 24.9608 211.22 24.9047 211.206 24.845C211.191 24.7852 211.188 24.7229 211.197 24.6619C211.233 23.7658 211.03 22.8769 210.611 22.0964C210.367 21.4247 210.032 20.7939 209.616 20.2238C209.43 19.9852 209.199 19.7903 208.937 19.6516C208.675 19.5129 208.389 19.4335 208.097 19.4186C207.841 19.4465 207.594 19.53 207.371 19.6638C207.148 19.7976 206.953 19.9787 206.8 20.1957C206.469 20.6913 206.245 21.2568 206.142 21.853C205.897 23.1238 205.951 24.4386 206.3 25.6823C206.648 26.926 207.28 28.0609 208.141 28.9877C208.199 28.997 208.254 29.0194 208.303 29.0533C208.353 29.0873 208.394 29.1319 208.425 29.1843L208.594 29.4464C208.639 29.5172 208.666 29.5998 208.67 29.6851C208.674 29.7705 208.656 29.8554 208.617 29.9306C208.579 30.0058 208.522 30.0685 208.452 30.1119C208.382 30.1553 208.302 30.1778 208.221 30.1768V30.1955Z" fill="#282929"/>
<path d="M210.149 36.9085C210.149 36.9085 207.182 35.3636 206.071 32.873C206.071 32.873 205.387 38.7812 209.909 41.2998L210.149 36.9085Z" fill="#282929"/>
<path d="M209.909 41.758C209.837 41.7572 209.767 41.7379 209.704 41.7018C204.97 39.0801 205.618 32.8724 205.627 32.8162C205.64 32.7149 205.683 32.6207 205.75 32.5467C205.817 32.4728 205.905 32.4229 206 32.4042C206.095 32.3899 206.191 32.4076 206.276 32.4547C206.36 32.5018 206.429 32.5759 206.471 32.6664C207.501 34.9884 210.317 36.4772 210.344 36.4865C210.422 36.5281 210.487 36.5926 210.532 36.6724C210.576 36.7522 210.597 36.8437 210.593 36.936L210.353 41.3179C210.349 41.395 210.326 41.4697 210.287 41.5352C210.249 41.6006 210.195 41.6547 210.131 41.6924C210.064 41.7368 209.987 41.7596 209.909 41.758V41.758ZM206.506 34.4641C206.542 35.6431 206.83 36.7982 207.35 37.8427C207.87 38.8871 208.608 39.7936 209.509 40.4939L209.687 37.1794C208.48 36.4835 207.403 35.5636 206.506 34.4641V34.4641Z" fill="#282929"/>
<path d="M217.827 20.5397C218.061 19.8096 218.028 19.1387 217.753 19.0413C217.479 18.9438 217.067 19.4567 216.834 20.1868C216.6 20.9169 216.633 21.5878 216.908 21.6853C217.182 21.7827 217.594 21.2699 217.827 20.5397Z" fill="#282929"/>
<path d="M217.042 74.3444H216.998C216.925 74.3375 216.856 74.3117 216.795 74.2691C216.735 74.2266 216.685 74.1688 216.651 74.1009L205.485 51.9853C205.457 51.9307 205.44 51.8708 205.434 51.8091C205.429 51.7474 205.435 51.6851 205.452 51.6259C205.469 51.5667 205.498 51.5116 205.535 51.464C205.573 51.4165 205.619 51.3772 205.671 51.3486C205.775 51.2924 205.896 51.2815 206.007 51.3183C206.119 51.3551 206.212 51.4366 206.267 51.5453C206.4 51.7981 215.363 69.5411 217.131 73.0804L223.891 64.9345C223.933 64.8906 223.982 64.8558 224.036 64.832C224.09 64.8082 224.148 64.796 224.207 64.796C224.265 64.796 224.323 64.8082 224.377 64.832C224.432 64.8558 224.481 64.8906 224.522 64.9345C224.564 64.9765 224.598 65.0273 224.622 65.0836C224.645 65.14 224.657 65.2008 224.657 65.2622C224.657 65.3236 224.645 65.3844 224.622 65.4407C224.598 65.4971 224.564 65.5479 224.522 65.5899L217.38 74.2039C217.336 74.2506 217.283 74.2872 217.225 74.3113C217.167 74.3355 217.105 74.3468 217.042 74.3444V74.3444Z" fill="#282929"/>
<path d="M218.144 89.9777C212.085 89.9777 205.894 84.2943 199.72 73.0399C199.674 72.9343 199.668 72.8147 199.701 72.7043C199.735 72.5939 199.806 72.5006 199.901 72.4423C199.996 72.3841 200.108 72.3651 200.216 72.389C200.324 72.4129 200.419 72.478 200.484 72.5717C206.942 84.3317 213.302 89.8372 219.423 88.9477C225.544 88.0583 232.313 75.8394 232.384 75.6803C232.413 75.6262 232.452 75.5789 232.499 75.541C232.546 75.5031 232.599 75.4754 232.656 75.4595C232.713 75.4436 232.773 75.4398 232.831 75.4484C232.889 75.4569 232.946 75.4777 232.996 75.5094C233.047 75.5411 233.091 75.5831 233.126 75.633C233.162 75.6829 233.187 75.7397 233.201 75.8001C233.215 75.8605 233.218 75.9232 233.209 75.9846C233.199 76.046 233.179 76.1049 233.148 76.1578C232.864 76.6727 226.041 88.929 219.547 89.8747C219.083 89.9463 218.613 89.9807 218.144 89.9777Z" fill="#282929"/>
<path d="M209.136 116.743C209.054 116.741 208.974 116.715 208.905 116.668C208.855 116.637 208.811 116.596 208.776 116.547C208.742 116.498 208.717 116.442 208.702 116.383C208.688 116.324 208.686 116.262 208.695 116.202C208.703 116.141 208.724 116.083 208.754 116.031C212.876 108.784 209.927 105.647 209.802 105.516C209.761 105.473 209.728 105.421 209.705 105.364C209.683 105.307 209.671 105.246 209.671 105.184C209.671 105.122 209.683 105.061 209.705 105.004C209.728 104.947 209.761 104.895 209.802 104.852C209.843 104.808 209.891 104.773 209.945 104.75C209.998 104.726 210.055 104.714 210.113 104.714C210.171 104.714 210.228 104.726 210.282 104.75C210.335 104.773 210.384 104.808 210.424 104.852C210.575 105.001 214.049 108.597 209.536 116.527C209.493 116.597 209.433 116.653 209.363 116.691C209.293 116.729 209.215 116.746 209.136 116.743Z" fill="white"/>
<path d="M187.754 49.4304C187.664 49.4318 187.577 49.4037 187.503 49.3499C187.43 49.2962 187.375 49.2195 187.345 49.1308C187.323 49.073 187.313 49.0113 187.315 48.9494C187.316 48.8874 187.329 48.8263 187.353 48.7697C187.377 48.7131 187.411 48.662 187.454 48.6195C187.497 48.577 187.547 48.5439 187.602 48.5221C187.887 48.4192 194.656 45.8069 199.329 46.2188C199.387 46.2236 199.444 46.2404 199.496 46.2684C199.548 46.2964 199.595 46.335 199.633 46.382C199.671 46.429 199.699 46.4835 199.717 46.5422C199.735 46.601 199.742 46.6629 199.737 46.7244C199.733 46.786 199.717 46.846 199.69 46.901C199.664 46.956 199.627 47.0049 199.582 47.045C199.538 47.085 199.486 47.1153 199.43 47.1343C199.375 47.1532 199.316 47.1603 199.258 47.1551C194.816 46.7525 187.976 49.3742 187.913 49.4023C187.862 49.4206 187.808 49.4301 187.754 49.4304Z" fill="#282929"/>
<path d="M254.033 81.5154H256.396C256.396 78.3319 256.547 73.8096 256.547 73.8096L261.077 81.5154H281.065C281.991 81.5154 282.879 81.9031 283.534 82.5931C284.188 83.2832 284.556 84.2192 284.556 85.1951V97.751C284.557 98.235 284.468 98.7145 284.293 99.162C284.118 99.6095 283.861 100.016 283.537 100.359C283.212 100.702 282.827 100.974 282.403 101.159C281.979 101.345 281.524 101.44 281.065 101.44H254.033C253.573 101.44 253.119 101.345 252.695 101.159C252.27 100.974 251.885 100.702 251.561 100.359C251.237 100.016 250.98 99.6095 250.805 99.162C250.63 98.7145 250.54 98.235 250.542 97.751V85.1951C250.542 84.2192 250.909 83.2832 251.564 82.5931C252.219 81.9031 253.107 81.5154 254.033 81.5154V81.5154Z" fill="white"/>
<path d="M281.065 101.91H254.033C252.988 101.907 251.987 101.468 251.249 100.689C250.511 99.9096 250.097 98.8536 250.097 97.7527V85.1968C250.097 84.0967 250.512 83.0417 251.25 82.2638C251.988 81.4859 252.989 81.0489 254.033 81.0489H255.951C255.951 77.931 256.102 73.8394 256.102 73.7925C256.105 73.6929 256.139 73.5969 256.198 73.5192C256.258 73.4415 256.339 73.3862 256.431 73.3618C256.524 73.3346 256.623 73.34 256.712 73.3771C256.802 73.4143 256.878 73.4812 256.929 73.5678L261.326 81.0583H281.065C282.108 81.0583 283.109 81.4953 283.847 82.2732C284.585 83.051 285 84.1061 285 85.2061V97.7621C284.998 98.8614 284.582 99.915 283.845 100.692C283.107 101.47 282.108 101.907 281.065 101.91ZM254.033 81.9852C253.225 81.9877 252.451 82.3269 251.881 82.9286C251.31 83.5304 250.988 84.3458 250.986 85.1968V97.7527C250.986 98.6053 251.306 99.4231 251.877 100.027C252.449 100.631 253.224 100.971 254.033 100.974H281.065C281.874 100.971 282.649 100.631 283.22 100.027C283.791 99.4231 284.112 98.6053 284.112 97.7527V85.1968C284.109 84.3458 283.788 83.5304 283.217 82.9286C282.646 82.3269 281.872 81.9877 281.065 81.9852H261.077C261.002 81.985 260.928 81.9642 260.862 81.9248C260.797 81.8854 260.742 81.8288 260.704 81.7605L256.946 75.3749C256.902 76.9854 256.849 79.5228 256.84 81.5171C256.837 81.6405 256.79 81.7582 256.707 81.8455C256.624 81.9328 256.513 81.9828 256.395 81.9852H254.033Z" fill="#282929" fill-opacity="0.2"/>
<path d="M69.3551 75.3063H73.1306C73.1306 80.3905 73.3704 87.6188 73.3704 87.6188L80.6193 75.3063H112.6C114.081 75.3063 115.503 74.6859 116.551 73.5814C117.598 72.4769 118.187 70.9789 118.187 69.417V49.3425C118.187 47.7805 117.598 46.2826 116.551 45.1781C115.503 44.0736 114.081 43.4531 112.6 43.4531H69.3551C67.8747 43.4556 66.4558 44.0772 65.4098 45.1814C64.3639 46.2856 63.7764 47.7822 63.7764 49.3425V69.417C63.7752 70.1899 63.9186 70.9555 64.1985 71.67C64.4783 72.3845 64.8891 73.0338 65.4072 73.5808C65.9254 74.1278 66.5408 74.5618 67.2182 74.8579C67.8956 75.1539 68.6218 75.3063 69.3551 75.3063V75.3063Z" fill="white"/>
<path d="M73.3441 88.0903H73.2286C73.1369 88.0627 73.0557 88.0054 72.9966 87.9263C72.9376 87.8473 72.9038 87.7507 72.8999 87.6502C72.8999 87.5753 72.6867 80.7871 72.6601 75.7872H69.3555C67.7573 75.7847 66.2253 75.1138 65.0961 73.9218C63.9668 72.7298 63.3325 71.1141 63.3325 69.4296V49.3458C63.3325 47.6613 63.9668 46.0457 65.0961 44.8537C66.2253 43.6617 67.7573 42.9908 69.3555 42.9883H112.564C114.163 42.9908 115.696 43.6614 116.827 44.8531C117.958 46.0448 118.594 47.6604 118.596 49.3458V69.4203C118.594 71.1056 117.958 72.7213 116.827 73.913C115.696 75.1047 114.163 75.7753 112.564 75.7778H80.8683L73.7616 87.8749C73.717 87.9472 73.6546 88.0054 73.5811 88.0433C73.5076 88.0812 73.4257 88.0975 73.3441 88.0903ZM69.3555 43.9246C67.9929 43.9271 66.6869 44.4993 65.7242 45.5157C64.7615 46.5321 64.2209 47.9096 64.2209 49.3458V69.4203C64.2209 70.8564 64.7615 72.2339 65.7242 73.2503C66.6869 74.2668 67.9929 74.839 69.3555 74.8415H73.1309C73.248 74.8439 73.3597 74.894 73.4425 74.9813C73.5253 75.0685 73.5728 75.1862 73.5751 75.3096C73.5751 78.9144 73.7083 83.6522 73.7705 86.0585L80.2376 75.0662C80.2787 74.9984 80.3351 74.9424 80.4018 74.9032C80.4684 74.864 80.5433 74.8428 80.6196 74.8415H112.6C113.963 74.839 115.27 74.2671 116.234 73.2509C117.198 72.2348 117.741 70.8573 117.743 69.4203V49.3458C117.741 47.9088 117.198 46.5313 116.234 45.5152C115.27 44.499 113.963 43.9271 112.6 43.9246H69.3555Z" fill="#282929" fill-opacity="0.2"/>
<path d="M108.132 130.375C107.396 130.605 106.649 130.789 105.893 130.928C96.0413 132.8 85.017 132.379 77.1374 125.862L78.2923 121.302L74.9343 124.411L70.4038 120.16C78.1324 113.69 79.1362 103.475 84.2086 95.2355C88.3394 88.5222 97.6581 88.026 104.116 90.9004C108.62 92.9303 112.226 96.6844 114.208 101.406C116.393 106.705 116.322 112.716 115.878 118.475C115.372 124.945 113.497 128.634 108.132 130.375Z" fill="white"/>
<path d="M96.1125 132.347C89.5654 132.347 82.5298 130.887 76.8711 126.196C76.8022 126.14 76.7503 126.064 76.7219 125.978C76.6934 125.891 76.6897 125.798 76.7112 125.709L77.4929 122.638L75.2276 124.763C75.1475 124.84 75.0429 124.883 74.9345 124.883C74.826 124.883 74.7215 124.84 74.6413 124.763L70.1108 120.522C70.0612 120.477 70.0219 120.421 69.9957 120.357C69.9696 120.294 69.9573 120.226 69.9598 120.157C69.9594 120.088 69.9745 120.019 70.0039 119.958C70.0332 119.896 70.0759 119.842 70.1286 119.801C74.899 115.803 77.0221 110.438 79.2785 104.764C80.5178 101.369 82.043 98.0973 83.8357 94.9887C87.0248 89.8016 95.2775 86.4496 104.267 90.4757C108.884 92.5579 112.575 96.4146 114.59 101.262C116.837 106.711 116.74 112.797 116.296 118.556C115.745 125.718 113.488 129.164 108.247 130.831C107.494 131.062 106.729 131.25 105.955 131.392C102.708 132.02 99.4139 132.34 96.1125 132.347V132.347ZM77.6439 125.7C86.0743 132.488 97.596 132.057 105.813 130.484C106.553 130.345 107.286 130.163 108.007 129.941C112.831 128.406 114.91 125.194 115.425 118.49C115.86 112.872 115.967 106.908 113.799 101.637C111.872 97.0085 108.347 93.3263 103.939 91.3371C97.4628 88.4533 88.4461 89.2117 84.5819 95.4943C82.8209 98.551 81.3197 101.766 80.0957 105.101C77.9637 110.485 75.7518 116.046 71.088 120.166L74.9345 123.771L77.9993 120.962C78.0706 120.892 78.162 120.848 78.2593 120.838C78.3565 120.828 78.4542 120.852 78.5371 120.906C78.6201 120.961 78.6837 121.043 78.7182 121.139C78.7526 121.235 78.756 121.341 78.7277 121.439L77.6439 125.7Z" fill="#282929"/>
<path d="M92.8875 122.258L93.998 130.283C94.754 131.488 95.901 132.361 97.224 132.738C98.547 133.116 99.9551 132.972 101.185 132.333C105.982 130.226 106.07 126.36 106.07 126.36L103.796 111.547C100.208 107.695 97.7042 102.869 96.5653 97.6055C96.5653 97.6055 92.3279 105.396 86.1895 107.146C86.4119 110.677 86.9171 114.182 87.6996 117.624C88.7656 121.528 92.7632 122.212 92.8875 122.258Z" fill="white"/>
<path d="M98.5374 133.396C97.5526 133.372 96.5876 133.099 95.7235 132.6C94.8594 132.102 94.1214 131.392 93.5716 130.53C93.538 130.477 93.5167 130.416 93.5094 130.353L92.4434 122.647C91.2507 122.388 90.1442 121.801 89.2362 120.946C88.3282 120.091 87.651 118.998 87.2732 117.778C86.4779 114.304 85.9667 110.764 85.7453 107.198C85.7398 107.09 85.7694 106.984 85.8293 106.897C85.8891 106.81 85.9755 106.748 86.074 106.72C91.9637 105.044 96.1389 97.4787 96.1833 97.357C96.2274 97.2756 96.2936 97.2101 96.3735 97.1689C96.4533 97.1276 96.5431 97.1126 96.6311 97.1257C96.7191 97.1388 96.8014 97.1795 96.8673 97.2424C96.9331 97.3053 96.9796 97.3877 97.0006 97.4787C98.1187 102.631 100.555 107.362 104.045 111.158C104.119 111.234 104.169 111.332 104.187 111.439L106.461 126.251C106.461 126.514 106.319 130.54 101.309 132.731C100.437 133.145 99.4941 133.371 98.5374 133.396ZM94.3711 130.118C95.0798 131.208 96.1398 131.989 97.3539 132.316C98.568 132.643 99.8536 132.494 100.971 131.897C105.413 129.941 105.582 126.392 105.582 126.354L103.334 111.776C100.016 108.147 97.6418 103.677 96.4409 98.7989C95.1261 100.906 91.5461 105.943 86.6692 107.516C86.8902 110.89 87.3806 114.238 88.1349 117.525C88.9255 120.4 91.4395 121.429 92.8609 121.785C92.9347 121.801 93.0063 121.826 93.0741 121.86C93.1313 121.896 93.1802 121.945 93.2171 122.003C93.254 122.061 93.278 122.128 93.2873 122.197L94.3711 130.118Z" fill="#282929"/>
<path d="M100.785 111.773C100.846 111.021 101.14 110.311 101.62 109.751C102.088 109.254 102.632 108.842 103.228 108.534C103.539 108.332 103.887 108.204 104.25 108.159C104.506 108.16 104.759 108.214 104.996 108.318C105.576 108.504 106.074 108.903 106.399 109.442C106.606 109.91 106.703 110.424 106.684 110.94C106.712 111.497 106.664 112.055 106.542 112.597C106.412 113.138 106.182 113.647 105.865 114.094C105.548 114.54 105.149 114.916 104.693 115.199C104.237 115.482 103.732 115.667 103.208 115.743C102.683 115.818 102.15 115.784 101.638 115.64" fill="white"/>
<path d="M102.659 116.247C102.275 116.245 101.893 116.191 101.522 116.087C101.41 116.054 101.314 115.976 101.255 115.869C101.197 115.762 101.181 115.635 101.211 115.516C101.225 115.456 101.249 115.399 101.284 115.35C101.319 115.3 101.364 115.259 101.415 115.228C101.465 115.197 101.522 115.178 101.58 115.171C101.638 115.164 101.697 115.17 101.753 115.188C102.674 115.432 103.647 115.291 104.472 114.795C105.285 114.28 105.875 113.45 106.115 112.483C106.221 111.979 106.266 111.463 106.248 110.947C106.267 110.508 106.184 110.072 106.008 109.674C105.738 109.226 105.326 108.894 104.845 108.737C104.662 108.655 104.466 108.61 104.267 108.606C103.973 108.648 103.691 108.756 103.441 108.925C102.888 109.209 102.384 109.589 101.949 110.048C101.536 110.531 101.284 111.142 101.229 111.79C101.216 111.912 101.159 112.025 101.07 112.105C100.981 112.185 100.866 112.226 100.749 112.22C100.632 112.208 100.524 112.149 100.448 112.055C100.372 111.96 100.333 111.838 100.341 111.715C100.412 110.861 100.746 110.056 101.291 109.421C101.789 108.88 102.372 108.433 103.015 108.101C103.384 107.861 103.8 107.713 104.232 107.67C104.537 107.671 104.838 107.735 105.12 107.857C105.803 108.079 106.387 108.555 106.763 109.196C107.004 109.731 107.123 110.318 107.11 110.91C107.128 111.507 107.074 112.105 106.95 112.689C106.708 113.702 106.152 114.6 105.369 115.242C104.587 115.883 103.624 116.23 102.633 116.228L102.659 116.247Z" fill="#282929"/>
<path d="M93.9184 109.482C93.9184 109.482 91.7686 113.958 92.4704 114.595C93.1722 115.231 94.8689 114.529 94.8689 114.529" fill="white"/>
<path d="M93.3583 115.326C92.9377 115.351 92.5221 115.219 92.1857 114.951C91.3774 114.221 92.47 111.468 93.5182 109.277C93.5715 109.167 93.664 109.083 93.7755 109.045C93.8871 109.006 94.0085 109.016 94.1134 109.071C94.1661 109.098 94.2131 109.136 94.2516 109.182C94.2901 109.229 94.3193 109.283 94.3375 109.341C94.3558 109.4 94.3626 109.462 94.3577 109.523C94.3528 109.584 94.3362 109.644 94.3089 109.699C93.3317 111.74 92.621 113.875 92.7898 114.277C93.1096 114.549 94.1046 114.343 94.7086 114.099C94.8182 114.053 94.9406 114.055 95.0489 114.104C95.1571 114.153 95.2425 114.246 95.286 114.361C95.3296 114.477 95.3279 114.606 95.2813 114.72C95.2346 114.834 95.1469 114.924 95.0373 114.97C94.4993 115.182 93.9324 115.303 93.3583 115.326V115.326Z" fill="#282929"/>
<path d="M97.3043 109.397C97.6662 109.365 97.9259 108.906 97.8845 108.37C97.843 107.834 97.5161 107.424 97.1542 107.455C96.7924 107.487 96.5326 107.946 96.5741 108.482C96.6155 109.018 96.9425 109.428 97.3043 109.397Z" fill="#282929"/>
<path d="M90.5233 110.396C90.8853 110.367 91.1481 109.909 91.1102 109.373C91.0723 108.837 90.7481 108.425 90.386 108.453C90.024 108.482 89.7612 108.94 89.7991 109.476C89.837 110.012 90.1612 110.424 90.5233 110.396Z" fill="#282929"/>
<path d="M94.4775 118.898C93.2025 118.866 91.9452 118.576 90.7731 118.046C90.7198 118.02 90.6719 117.983 90.6323 117.937C90.5926 117.892 90.562 117.838 90.5421 117.78C90.5223 117.721 90.5137 117.659 90.5167 117.597C90.5198 117.536 90.5345 117.475 90.5599 117.419C90.5838 117.363 90.6181 117.313 90.6607 117.271C90.7033 117.229 90.7534 117.197 90.8081 117.176C90.8627 117.155 90.9208 117.146 90.9789 117.149C91.037 117.152 91.0939 117.168 91.1462 117.194C91.1462 117.194 94.3354 118.702 96.5562 117.475C97.1486 117.101 97.6483 116.585 98.0143 115.968C98.3803 115.351 98.6021 114.651 98.6616 113.927C98.6828 113.802 98.7499 113.692 98.8482 113.62C98.9465 113.548 99.0679 113.52 99.1857 113.543C99.3035 113.565 99.4081 113.636 99.4764 113.739C99.5447 113.843 99.5711 113.971 99.5499 114.095C99.4675 114.962 99.191 115.796 98.7432 116.529C98.2953 117.261 97.6889 117.871 96.9738 118.308C96.1994 118.716 95.3427 118.918 94.4775 118.898V118.898Z" fill="#282929"/>
<path d="M92.8877 122.26C92.8877 122.26 97.7824 122.691 100.341 120.584C100.341 120.584 98.1822 127.784 93.6428 127.765L92.8877 122.26Z" fill="#282929"/>
<path d="M93.6159 128.235C93.5076 128.234 93.4029 128.194 93.3201 128.12C93.2373 128.047 93.1816 127.945 93.1629 127.832L92.3989 122.336C92.3874 122.266 92.3916 122.194 92.4112 122.125C92.4308 122.057 92.4653 121.994 92.5119 121.942C92.5584 121.891 92.6159 121.851 92.6795 121.827C92.7432 121.802 92.8114 121.794 92.8786 121.802C92.923 121.802 97.6313 122.186 99.9854 120.211C100.061 120.151 100.153 120.118 100.247 120.118C100.342 120.118 100.434 120.151 100.509 120.211C100.587 120.267 100.646 120.349 100.678 120.443C100.71 120.537 100.713 120.639 100.687 120.735C100.625 121.016 98.413 128.235 93.6159 128.235ZM93.3583 122.767L93.9802 127.28C96.7962 127.008 98.6084 123.6 99.4079 121.662C97.4889 122.48 95.4265 122.856 93.3583 122.767V122.767Z" fill="#282929"/>
<path d="M100.136 161.385C96.9867 161.522 93.8322 161.296 90.729 160.711C88.4373 160.076 86.0804 159.739 83.7111 159.709C80.5852 159.802 77.4996 160.477 74.5967 161.703C74.4768 161.74 74.3691 161.811 74.2858 161.909C74.0015 162.321 74.65 162.724 75.1741 162.752C76.4244 162.808 77.6756 162.669 78.8874 162.34C75.8698 163.448 73.0073 164.978 70.3771 166.89C70.084 167.106 69.7464 167.452 69.8885 167.827C70.0307 168.201 70.6258 168.136 71.0167 167.958L77.848 164.831C76.0804 165.537 74.4356 166.546 72.9799 167.817C72.7756 167.995 72.5447 168.248 72.598 168.529C72.6868 169.007 73.3708 168.932 73.7883 168.716C75.8745 167.685 77.8693 166.46 79.7491 165.055L75.4939 168.342C75.4406 168.707 75.796 169.016 76.1424 169.035C76.4885 169.019 76.8237 168.902 77.1107 168.698L81.8278 165.954L78.8785 168.042C78.4166 168.37 77.8836 168.904 78.0968 169.447C78.31 169.99 79.2427 169.915 79.8735 169.643C82.2935 168.592 84.8172 167.829 87.3977 167.368C88.3055 167.08 89.2412 166.901 90.1871 166.834C91.6155 167.034 93.0245 167.367 94.3978 167.827L100.687 169.484" fill="white"/>
<path d="M78.8521 170.251C78.661 170.255 78.471 170.22 78.2925 170.148C78.165 170.093 78.0491 170.011 77.9515 169.908C77.854 169.806 77.7766 169.683 77.7239 169.549C77.6361 169.301 77.6361 169.029 77.7239 168.781L77.3331 169.006C76.9794 169.253 76.5668 169.389 76.1427 169.399C75.9831 169.388 75.8273 169.343 75.6852 169.265C75.543 169.188 75.4176 169.081 75.3165 168.95C75.2101 168.806 75.1426 168.635 75.1211 168.454C74.748 168.66 74.366 168.847 73.9929 169.034C73.789 169.151 73.5635 169.22 73.332 169.236C73.1004 169.252 72.8683 169.215 72.6515 169.128C72.5429 169.071 72.4485 168.988 72.376 168.885C72.3034 168.783 72.2548 168.664 72.234 168.538C72.2069 168.389 72.2146 168.235 72.2564 168.09C72.2982 167.945 72.3728 167.813 72.4739 167.705L71.2035 168.285C70.8258 168.471 70.3981 168.51 69.9954 168.397C69.8927 168.358 69.7993 168.295 69.7212 168.215C69.6431 168.134 69.5821 168.037 69.5423 167.929C69.3469 167.452 69.5423 166.927 70.1731 166.497C71.9333 165.224 73.7972 164.117 75.7429 163.192H75.1211C74.8749 163.184 74.6343 163.112 74.4205 162.983C74.2067 162.854 74.0263 162.672 73.8952 162.452C73.8363 162.327 73.8118 162.187 73.8244 162.048C73.8369 161.909 73.8861 161.776 73.9663 161.665C74.0954 161.504 74.2646 161.384 74.4549 161.319C77.4002 160.064 80.5354 159.375 83.7114 159.287C85.8078 159.293 87.8958 159.566 89.9297 160.102L90.8181 160.298C93.8957 160.872 97.0226 161.098 100.146 160.972C100.25 160.972 100.35 161.016 100.425 161.093C100.5 161.17 100.543 161.274 100.545 161.384C100.547 161.441 100.537 161.497 100.518 161.55C100.498 161.603 100.469 161.651 100.432 161.692C100.395 161.733 100.35 161.765 100.301 161.788C100.252 161.811 100.199 161.823 100.146 161.824C96.9657 161.957 93.7816 161.724 90.6493 161.132L89.761 160.944C87.78 160.418 85.7455 160.147 83.7025 160.139C80.6249 160.229 77.5869 160.895 74.7302 162.105H74.6503C74.7918 162.218 74.9619 162.283 75.1389 162.293C76.3358 162.347 77.5337 162.212 78.6922 161.89C78.7934 161.864 78.9004 161.879 78.9912 161.933C79.0821 161.987 79.1499 162.075 79.1808 162.18C79.2119 162.287 79.2025 162.402 79.1544 162.502C79.1063 162.602 79.0234 162.678 78.9232 162.714C75.9554 163.798 73.1405 165.3 70.555 167.18C70.2797 167.377 70.2086 167.536 70.2086 167.564C70.2086 167.592 70.4929 167.611 70.8038 167.47L76.0805 165.055C76.5958 164.793 77.1199 164.549 77.6529 164.334C77.7532 164.296 77.8634 164.301 77.9608 164.346C78.0582 164.391 78.1356 164.474 78.177 164.577C78.2154 164.682 78.2137 164.798 78.1722 164.901C78.1308 165.004 78.0528 165.086 77.9549 165.13L76.427 165.832C75.2685 166.437 74.1805 167.182 73.1845 168.051C72.9536 168.257 72.9447 168.351 72.9447 168.351C73.158 168.382 73.3753 168.343 73.5665 168.238C75.6262 167.214 77.5969 166.001 79.4562 164.615C79.5435 164.548 79.6523 164.521 79.7588 164.538C79.8652 164.556 79.9608 164.617 80.0247 164.708C80.0857 164.801 80.1104 164.915 80.0939 165.027C80.0774 165.138 80.0208 165.239 79.9359 165.308L76.0094 168.444C76.0631 168.499 76.1313 168.535 76.2049 168.547C76.4771 168.526 76.7384 168.425 76.96 168.257L81.6771 165.514C81.7685 165.461 81.8755 165.447 81.9762 165.475C82.0769 165.503 82.1637 165.57 82.2189 165.663C82.2754 165.758 82.2939 165.872 82.2706 165.981C82.2473 166.09 82.184 166.184 82.0946 166.244L79.1453 168.332C78.7811 168.594 78.4168 168.969 78.5146 169.268C78.5256 169.299 78.5434 169.327 78.5666 169.35C78.5897 169.373 78.6175 169.39 78.6478 169.399C79.0197 169.474 79.4045 169.414 79.7405 169.231C82.1871 168.161 84.7412 167.388 87.3535 166.927C87.6556 166.871 87.9576 166.787 88.2419 166.703C88.8826 166.49 89.5512 166.386 90.2229 166.394C91.2527 166.494 92.267 166.727 93.2432 167.087C93.6874 167.218 94.1316 167.358 94.5313 167.461L100.821 169.128C100.872 169.141 100.921 169.165 100.964 169.198C101.006 169.231 101.042 169.273 101.07 169.32C101.097 169.368 101.115 169.422 101.123 169.477C101.13 169.532 101.127 169.589 101.114 169.643C101.103 169.698 101.081 169.75 101.05 169.795C101.019 169.841 100.979 169.88 100.933 169.909C100.887 169.938 100.836 169.956 100.783 169.964C100.731 169.971 100.677 169.967 100.625 169.952L94.3359 168.294C93.9095 168.182 93.4476 168.042 93.0123 167.901C92.0947 167.569 91.1438 167.349 90.1785 167.246C89.5754 167.243 88.9758 167.341 88.4018 167.536C88.082 167.62 87.7711 167.705 87.4424 167.77C84.8917 168.222 82.3975 168.976 80.007 170.017C79.6381 170.166 79.2471 170.245 78.8521 170.251V170.251Z" fill="#282929"/>
<path d="M86.1894 130.549C85.1234 131.644 82.1563 149.144 81.0459 157.412Z" fill="white"/>
<path d="M81.0464 157.836H80.9842C80.9315 157.829 80.8807 157.811 80.8346 157.784C80.7886 157.756 80.7482 157.718 80.716 157.674C80.6837 157.63 80.6602 157.579 80.6468 157.525C80.6334 157.47 80.6303 157.414 80.6378 157.359C81.4639 151.282 84.5998 131.582 85.9056 130.206C85.9414 130.157 85.9866 130.118 86.0381 130.089C86.0896 130.061 86.1462 130.044 86.2043 130.041C86.2624 130.037 86.3204 130.047 86.3747 130.069C86.429 130.091 86.4781 130.125 86.5189 130.169C86.5597 130.212 86.5912 130.265 86.6113 130.322C86.6314 130.38 86.6395 130.441 86.6353 130.502C86.6311 130.563 86.6145 130.623 86.5867 130.677C86.5589 130.73 86.5206 130.777 86.4742 130.814C85.5858 131.835 82.6987 148.127 81.4462 157.434C81.4395 157.541 81.3947 157.642 81.3207 157.717C81.2467 157.792 81.1488 157.834 81.0464 157.836V157.836Z" fill="#282929"/>
<path d="M109.819 173.613H109.766L100.598 171.74C100.497 171.723 100.405 171.668 100.339 171.586C100.272 171.503 100.235 171.399 100.234 171.291L100.154 159.671C100.154 159.553 100.196 159.44 100.272 159.353C100.347 159.266 100.451 159.213 100.563 159.203L117.122 157.752L110.352 131.18C110.323 131.058 110.339 130.929 110.399 130.82C110.459 130.711 110.557 130.632 110.672 130.599C110.729 130.584 110.788 130.58 110.846 130.589C110.904 130.597 110.959 130.618 111.01 130.649C111.06 130.68 111.104 130.722 111.139 130.771C111.174 130.82 111.2 130.876 111.214 130.936L118.125 158.089C118.14 158.156 118.14 158.225 118.127 158.292C118.114 158.359 118.088 158.422 118.05 158.478C118.013 158.534 117.964 158.58 117.908 158.615C117.852 158.65 117.79 158.671 117.726 158.679L101.052 160.14L101.123 170.935L109.935 172.724C110.053 172.736 110.161 172.797 110.236 172.894C110.311 172.99 110.346 173.114 110.335 173.238C110.323 173.363 110.265 173.477 110.173 173.556C110.082 173.635 109.964 173.672 109.846 173.66L109.819 173.613Z" fill="#282929"/>
<path d="M58.8201 176.629L50.8428 154.13L83.4093 154.804L90.7204 180.468L58.8201 176.629Z" fill="white"/>
<path d="M90.7201 180.939H90.6668L58.7665 177.1C58.6849 177.092 58.6072 177.06 58.5426 177.006C58.478 176.953 58.4293 176.882 58.4023 176.8L50.4073 154.329C50.38 154.258 50.3706 154.181 50.38 154.106C50.3893 154.03 50.4171 153.959 50.4605 153.898C50.4961 153.829 50.551 153.773 50.6178 153.738C50.6845 153.703 50.7598 153.69 50.8337 153.701L83.4002 154.375C83.4948 154.377 83.5863 154.411 83.6614 154.472C83.7365 154.533 83.7912 154.617 83.8177 154.713L91.1199 180.367C91.1425 180.442 91.1471 180.521 91.1331 180.598C91.1191 180.675 91.0871 180.747 91.0399 180.807C90.9528 180.892 90.8386 180.939 90.7201 180.939V180.939ZM59.1307 176.191L90.0894 179.937L83.1159 155.265L51.5177 154.61L59.1307 176.191Z" fill="#282929"/>
<path d="M119.867 173.352C119.867 173.352 76.0095 192.079 65.1362 196.976L71.4612 207.275C71.4612 207.275 111.961 206.442 123.571 195.711C135.182 184.981 134.409 167.145 119.867 173.352Z" fill="#282929"/>
<path d="M58.6599 167.643C58.6141 167.91 58.5074 168.161 58.349 168.374L57.4606 169.713C57.4864 169.572 57.5426 169.439 57.625 169.324C57.7074 169.209 57.8137 169.116 57.9357 169.052C58.0577 168.988 58.192 168.954 58.3284 168.953C58.4648 168.953 58.5995 168.985 58.7221 169.048C58.9656 169.184 59.168 169.39 59.3061 169.642C59.4443 169.893 59.5128 170.181 59.5038 170.471C59.4859 171.051 59.3559 171.622 59.1218 172.147C58.5177 173.804 57.1497 176.229 55.1598 174.956C53.8184 174.104 53.4453 171.089 53.2499 169.6C52.8768 166.642 53.7296 162.859 57.3274 163.439C57.2226 164.891 56.7091 166.277 55.8527 167.419C56.4657 166.829 58.8287 165.902 58.6599 167.643Z" fill="white"/>
<path d="M56.2792 175.752C55.8222 175.742 55.3766 175.599 54.9912 175.34C53.4899 174.404 53.099 171.361 52.8947 169.722C52.6459 167.85 52.8947 165.34 54.1916 163.964C54.6159 163.539 55.133 163.232 55.697 163.068C56.2611 162.905 56.8547 162.891 57.4252 163.028C57.5272 163.044 57.6197 163.1 57.6839 163.185C57.7482 163.27 57.7795 163.378 57.7717 163.486C57.6973 164.465 57.4439 165.418 57.0255 166.295C57.4909 166.121 57.9991 166.121 58.4646 166.295C58.6921 166.416 58.875 166.613 58.9844 166.856C59.0938 167.098 59.1235 167.372 59.0686 167.634C59.026 167.974 58.9005 168.297 58.7044 168.57L58.9176 168.645C59.2338 168.813 59.4983 169.072 59.6807 169.392C59.863 169.712 59.9558 170.079 59.9481 170.452C59.9327 171.099 59.7937 171.736 59.5395 172.325C59.1575 173.364 58.3224 175.134 56.9722 175.658C56.7478 175.73 56.5136 175.762 56.2792 175.752V175.752ZM56.6612 163.823C56.3116 163.81 55.963 163.871 55.6363 164.003C55.3096 164.134 55.0116 164.335 54.7602 164.591C53.6498 165.743 53.481 167.915 53.6942 169.563C53.8718 170.996 54.2449 173.87 55.4087 174.61C55.5954 174.747 55.8095 174.836 56.0344 174.872C56.2593 174.908 56.4889 174.888 56.7056 174.816C57.4607 174.544 58.2336 173.486 58.7844 172.007C58.9925 171.533 59.1103 171.021 59.1308 170.499C59.1403 170.291 59.0956 170.085 59.0017 169.901C58.9078 169.718 58.7681 169.566 58.5978 169.46C58.5262 169.428 58.4491 169.411 58.3713 169.411C58.2934 169.411 58.2164 169.428 58.1448 169.46L57.8338 169.956C57.7812 170.034 57.7058 170.092 57.6193 170.12C57.5327 170.149 57.4396 170.147 57.3541 170.115C57.2685 170.083 57.1958 170.02 57.1475 169.939C57.0993 169.858 57.0782 169.761 57.0876 169.666C57.107 169.497 57.1607 169.334 57.245 169.189C57.3293 169.043 57.4423 168.919 57.5762 168.823L58.0115 168.14C58.1278 167.981 58.2125 167.8 58.2602 167.606V167.606C58.2602 167.213 58.1625 167.147 58.1181 167.129C57.7715 167.083 57.4196 167.113 57.0848 167.218C56.7499 167.322 56.4393 167.499 56.1726 167.737C56.0983 167.812 55.9998 167.853 55.8973 167.853C55.7948 167.853 55.6962 167.812 55.6219 167.737C55.5449 167.664 55.4968 167.562 55.4869 167.453C55.4771 167.344 55.5062 167.235 55.5686 167.147C56.2954 166.185 56.762 165.033 56.9189 163.814L56.6612 163.823Z" fill="#282929"/>
<path d="M112.013 51.8875H72.6419C72.5241 51.8875 72.4111 51.8382 72.3278 51.7504C72.2445 51.6626 72.1978 51.5435 72.1978 51.4193C72.1978 51.2952 72.2445 51.1761 72.3278 51.0883C72.4111 51.0005 72.5241 50.9512 72.6419 50.9512H112.013C112.131 50.9512 112.244 51.0005 112.327 51.0883C112.411 51.1761 112.457 51.2952 112.457 51.4193C112.457 51.5435 112.411 51.6626 112.327 51.7504C112.244 51.8382 112.131 51.8875 112.013 51.8875Z" fill="#282929" fill-opacity="0.2"/>
<path d="M112.013 59.6121H72.6419C72.5241 59.6121 72.4111 59.5628 72.3278 59.475C72.2445 59.3872 72.1978 59.2681 72.1978 59.1439C72.1978 59.0198 72.2445 58.9007 72.3278 58.8129C72.4111 58.7251 72.5241 58.6758 72.6419 58.6758H112.013C112.131 58.6758 112.244 58.7251 112.327 58.8129C112.411 58.9007 112.457 59.0198 112.457 59.1439C112.457 59.2681 112.411 59.3872 112.327 59.475C112.244 59.5628 112.131 59.6121 112.013 59.6121Z" fill="#282929" fill-opacity="0.2"/>
<path d="M102.819 67.3396H72.6156C72.4978 67.3396 72.3848 67.2903 72.3015 67.2025C72.2182 67.1147 72.1714 66.9956 72.1714 66.8715C72.1714 66.7473 72.2182 66.6282 72.3015 66.5404C72.3848 66.4526 72.4978 66.4033 72.6156 66.4033H102.819C102.937 66.4033 103.05 66.4526 103.133 66.5404C103.216 66.6282 103.263 66.7473 103.263 66.8715C103.263 66.9956 103.216 67.1147 103.133 67.2025C103.05 67.2903 102.937 67.3396 102.819 67.3396Z" fill="#282929" fill-opacity="0.2"/>
<path d="M265.545 97.7721C265.478 97.7699 265.412 97.754 265.35 97.7253C265.276 97.6858 265.213 97.6257 265.169 97.5514C265.126 97.4771 265.102 97.3915 265.101 97.304V86.0683C265.101 85.9852 265.122 85.9036 265.163 85.8326C265.203 85.7615 265.262 85.7037 265.332 85.6657C265.4 85.6218 265.479 85.5986 265.559 85.5986C265.639 85.5986 265.717 85.6218 265.785 85.6657L273.496 90.7873C273.557 90.8266 273.608 90.8815 273.644 90.9469C273.679 91.0124 273.699 91.0863 273.7 91.1618C273.704 91.2377 273.689 91.3134 273.658 91.382C273.627 91.4507 273.581 91.5101 273.523 91.555L265.812 97.6317C265.742 97.7114 265.647 97.7614 265.545 97.7721V97.7721ZM265.989 86.9578V96.3677L272.474 91.2648L265.989 86.9578Z" fill="#282929" fill-opacity="0.2"/>
</g>
<defs>
<linearGradient id="paint0_linear_2698_15267" x1="60" y1="-8.99999" x2="247" y2="199.5" gradientUnits="userSpaceOnUse">
<stop stop-color="#FFB11B"/>
<stop offset="1" stop-color="#FF441B"/>
</linearGradient>
<linearGradient id="paint1_linear_2698_15267" x1="60" y1="-8.99999" x2="247" y2="199.5" gradientUnits="userSpaceOnUse">
<stop stop-color="#FFB11B"/>
<stop offset="1" stop-color="#FF441B"/>
</linearGradient>
<linearGradient id="paint2_linear_2698_15267" x1="60" y1="-8.99999" x2="247" y2="199.5" gradientUnits="userSpaceOnUse">
<stop stop-color="#FFB11B"/>
<stop offset="1" stop-color="#FF441B"/>
</linearGradient>
<linearGradient id="paint3_linear_2698_15267" x1="60" y1="-8.99999" x2="247" y2="199.5" gradientUnits="userSpaceOnUse">
<stop stop-color="#FFB11B"/>
<stop offset="1" stop-color="#FF441B"/>
</linearGradient>
<linearGradient id="paint4_linear_2698_15267" x1="60" y1="-8.99999" x2="247" y2="199.5" gradientUnits="userSpaceOnUse">
<stop stop-color="#FFB11B"/>
<stop offset="1" stop-color="#FF441B"/>
</linearGradient>
<clipPath id="clip0_2698_15267">
<rect width="332" height="170" fill="white"/>
</clipPath>
</defs>
</svg>
