<svg width="332" height="170" viewBox="0 0 332 170" fill="none" xmlns="http://www.w3.org/2000/svg">
<g clip-path="url(#clip0_2698_15267)">
<path d="M148.659 70.8314C148.659 70.8314 149.426 59.3555 148.659 56.1821C147.893 53.0088 143.287 45.3249 141.754 45.8837C140.222 46.4425 140.028 48.6978 141.754 51.6915C141.754 51.6915 131.969 43.9178 128.23 44.0575C124.492 44.1972 122.388 48.8874 122.96 51.1327C123.532 53.378 132.153 57.2698 132.745 59.116C133.338 60.9621 134.849 73.9349 134.849 73.9349" fill="white"/>
<path d="M134.87 74.477C134.745 74.4758 134.625 74.4307 134.531 74.3502C134.437 74.2696 134.376 74.1588 134.359 74.0379C134.359 73.9082 132.827 61.135 132.316 59.2988C132.091 58.5703 129.814 57.1034 127.985 55.9259C125.36 54.2195 122.878 52.6128 122.531 51.2457C122.398 50.3083 122.462 49.3543 122.718 48.4417C122.975 47.5291 123.418 46.6769 124.022 45.9368C124.497 45.2576 125.121 44.6908 125.849 44.2781C126.577 43.8654 127.391 43.6172 128.23 43.5518C131.203 43.4421 137.423 47.8029 140.437 50.0283C140 48.9997 139.928 47.8581 140.232 46.7851C140.34 46.4725 140.518 46.1874 140.753 45.9508C140.988 45.7142 141.274 45.5321 141.591 45.4179C141.76 45.3644 141.939 45.3474 142.115 45.368C142.291 45.3887 142.461 45.4466 142.612 45.5377C144.727 46.6354 148.496 53.3014 149.16 56.0656C149.936 59.2789 149.16 70.3856 149.16 70.8546C149.157 70.9206 149.141 70.9854 149.112 71.0452C149.083 71.1049 149.042 71.1583 148.992 71.2021C148.941 71.246 148.882 71.2793 148.818 71.3002C148.754 71.3211 148.686 71.3291 148.618 71.3236C148.485 71.3134 148.361 71.2522 148.273 71.1532C148.185 71.0543 148.14 70.9255 148.149 70.7947C148.149 70.675 148.894 59.3587 148.149 56.2951C147.321 52.8523 142.939 46.2063 141.908 46.316C141.732 46.3845 141.575 46.4897 141.446 46.6242C141.317 46.7587 141.22 46.9192 141.162 47.0944C140.794 48.0923 141.162 49.6491 142.183 51.4153C142.242 51.5149 142.263 51.6315 142.242 51.7447C142.222 51.8578 142.161 51.9603 142.071 52.0341C141.979 52.1087 141.864 52.1496 141.744 52.1496C141.625 52.1496 141.509 52.1087 141.417 52.0341C138.741 49.8985 131.203 44.4001 128.24 44.5098C127.546 44.568 126.873 44.7774 126.272 45.1228C125.671 45.4682 125.157 45.9407 124.768 46.5056C123.741 47.7671 123.267 49.3745 123.45 50.9763C123.705 51.9742 126.351 53.6806 128.486 55.0577C131.223 56.834 132.919 57.9816 133.225 58.9895C133.797 60.9055 135.268 73.3593 135.35 73.8882C135.364 74.0203 135.325 74.1526 135.241 74.257C135.158 74.3614 135.035 74.4296 134.9 74.4471L134.87 74.477Z" fill="#282929"/>
<path d="M173.828 224.488L317.455 191.787V169.204L173.828 183.614V224.488Z" fill="white"/>
<path d="M173.828 224.992C173.71 224.992 173.595 224.954 173.501 224.883C173.44 224.834 173.39 224.774 173.355 224.705C173.32 224.636 173.3 224.56 173.297 224.484V183.569C173.296 183.44 173.345 183.315 173.434 183.219C173.523 183.123 173.645 183.063 173.777 183.05L317.393 168.651C317.467 168.641 317.542 168.648 317.613 168.67C317.683 168.693 317.748 168.73 317.802 168.78C317.856 168.828 317.899 168.887 317.929 168.952C317.959 169.017 317.975 169.088 317.976 169.159V191.742C317.977 191.86 317.937 191.974 317.862 192.066C317.788 192.159 317.684 192.224 317.567 192.251L173.951 224.982L173.828 224.992ZM174.359 184.078V223.845L316.923 191.383V169.768L174.359 184.078Z" fill="#282929"/>
<path d="M16.2993 146.287V170.985L173.828 224.483V175.456L16.2993 146.287Z" fill="white"/>
<path d="M173.828 224.993H173.655L16.1261 171.475C16.0239 171.438 15.9357 171.372 15.8736 171.284C15.8114 171.197 15.7784 171.093 15.7788 170.986V146.288C15.7798 146.213 15.7966 146.138 15.8283 146.07C15.8599 146.001 15.9056 145.939 15.9627 145.889C16.0231 145.84 16.0938 145.805 16.1697 145.786C16.2456 145.767 16.3249 145.764 16.4019 145.779L173.93 174.948C174.051 174.971 174.16 175.034 174.238 175.127C174.317 175.22 174.359 175.336 174.359 175.457V224.484C174.356 224.566 174.335 224.646 174.296 224.718C174.257 224.791 174.202 224.854 174.135 224.903C174.044 224.962 173.937 224.994 173.828 224.993ZM16.8309 170.627L173.297 223.785V175.886L16.8309 146.946V170.627Z" fill="#282929"/>
<path d="M279.855 165.909C279.855 165.909 294.237 83.6314 282.153 71.9858C270.069 60.3402 214.839 58.1648 202.48 61.2982C190.12 64.4316 180.641 147.707 180.641 147.707L279.855 165.909Z" fill="#282929"/>
<path d="M279.855 166.378H279.763L180.529 148.166C180.402 148.142 180.29 148.072 180.214 147.97C180.139 147.868 180.105 147.742 180.12 147.617C180.508 144.204 189.763 63.9824 202.337 60.7991C213.869 57.8752 269.937 59.4918 282.511 71.6164C294.635 83.3019 280.948 162.606 280.356 165.969C280.345 166.035 280.32 166.098 280.283 166.155C280.246 166.212 280.198 166.26 280.141 166.298C280.057 166.353 279.957 166.381 279.855 166.378ZM181.183 147.278L279.406 165.3C280.58 158.414 293.042 83.1721 281.765 72.3149C276.658 67.3852 262.286 63.4735 242.337 61.5674C226.433 60.0506 208.956 60.1305 202.562 61.7471C199.17 62.6053 193.787 70.9378 187.373 105.735C183.859 124.994 181.55 144.094 181.183 147.278Z" fill="#282929"/>
<path d="M256.79 75.5043C261.622 92.7082 250.243 173.599 250.243 173.599L183.695 148.182C183.695 148.182 197.362 132.136 181.019 98.506C174.339 84.7549 181.213 77.55 185.871 73.6781C189.783 70.4249 251.949 58.3003 256.79 75.5043Z" fill="url(#paint0_linear_2698_15267)"/>
<path d="M185.871 73.6822C185.871 73.6822 153.031 99.8074 153.266 94.8678C153.389 92.2633 152.673 66.4873 152.673 66.4873L132.173 67.3655C132.173 67.3655 124.073 109.637 131.151 120.045C140.12 133.217 153.072 128.956 170.334 119.127C192.439 106.533 197.914 101.165 197.914 101.165L185.871 73.6822Z" fill="url(#paint1_linear_2698_15267)"/>
<path d="M322.572 165.16V173.592L174.747 203.669L9.47607 148.385V141.659L322.572 165.16Z" fill="white"/>
<path d="M174.748 204.171C174.694 204.18 174.638 204.18 174.584 204.171L9.31312 148.887C9.21331 148.852 9.12661 148.789 9.06457 148.705C9.00252 148.621 8.96808 148.521 8.96582 148.418V141.662C8.9656 141.593 8.98003 141.524 9.00821 141.461C9.0364 141.398 9.07771 141.341 9.12956 141.294C9.1814 141.247 9.24263 141.211 9.30939 141.189C9.37615 141.166 9.44698 141.157 9.5174 141.163L322.613 164.663C322.742 164.674 322.861 164.73 322.948 164.823C323.035 164.915 323.084 165.037 323.083 165.162V173.595C323.083 173.71 323.043 173.821 322.968 173.91C322.894 173.999 322.79 174.061 322.675 174.084L174.86 204.151L174.748 204.171ZM9.98728 148.028L174.789 203.153L322.062 173.216V165.661L9.98728 142.201V148.028Z" fill="#282929"/>
<path d="M117.147 123.163L322.572 165.155L174.747 192.987L9.47607 141.654L117.147 123.163Z" fill="white"/>
<path d="M174.747 193.496H174.594L9.3128 142.144C9.20321 142.106 9.10934 142.034 9.04558 141.939C8.98181 141.844 8.95168 141.731 8.95979 141.618C8.96791 141.505 9.01383 141.397 9.09051 141.312C9.16719 141.227 9.27039 141.168 9.38431 141.146L117.056 122.664C117.119 122.65 117.186 122.65 117.25 122.664L322.684 164.656C322.803 164.682 322.91 164.746 322.986 164.838C323.062 164.931 323.104 165.046 323.103 165.165C323.099 165.283 323.055 165.397 322.977 165.487C322.899 165.577 322.793 165.64 322.674 165.664L174.85 193.486L174.747 193.496ZM11.6826 141.794L174.778 192.448L319.896 165.135L117.137 123.692L11.6826 141.794Z" fill="#282929"/>
<path d="M183.787 152.424C183.787 152.424 133.746 136.967 132.878 136.967C132.01 136.967 68.751 147.575 68.751 147.575L121.284 165.128L183.787 152.424Z" fill="white"/>
<path d="M121.285 165.674C121.227 165.684 121.168 165.684 121.111 165.674L68.5775 148.111C68.4673 148.075 68.3723 148.005 68.3075 147.911C68.2428 147.817 68.212 147.705 68.22 147.592C68.2296 147.477 68.278 147.369 68.3575 147.284C68.437 147.199 68.5431 147.142 68.6592 147.123C75.1352 146.035 131.989 136.505 132.878 136.505C133.767 136.505 172.184 148.33 183.951 151.962C184.063 151.992 184.161 152.059 184.228 152.152C184.295 152.245 184.327 152.358 184.318 152.471C184.314 152.586 184.27 152.695 184.194 152.782C184.118 152.869 184.014 152.928 183.9 152.95L121.387 165.664L121.285 165.674ZM70.8758 147.711L121.315 164.576L181.703 152.272C166.872 147.701 134.094 137.643 132.827 137.453C131.795 137.583 92.98 144.059 70.8758 147.761V147.711Z" fill="#282929"/>
<path d="M114.216 158.924C114.149 158.939 114.079 158.939 114.012 158.924L86.1566 146.68C86.056 146.635 85.9731 146.559 85.9203 146.464C85.8676 146.369 85.8477 146.26 85.8639 146.153C85.88 146.046 85.9312 145.948 86.0098 145.872C86.0883 145.796 86.19 145.746 86.2996 145.732L118.874 141.251C118.96 141.226 119.053 141.226 119.139 141.251L148.118 153.286C148.221 153.327 148.307 153.4 148.362 153.494C148.418 153.588 148.439 153.697 148.424 153.805C148.41 153.914 148.359 154.015 148.279 154.092C148.2 154.17 148.096 154.22 147.985 154.234L114.277 158.924H114.216ZM88.1893 146.39L114.298 157.856L146.034 153.456L118.874 142.169L88.1893 146.39Z" fill="#282929" fill-opacity="0.2"/>
<path d="M121.285 165.158L184.073 157.933L183.787 152.425L121.285 160.598V165.158Z" fill="white"/>
<path d="M121.285 165.678C121.154 165.676 121.028 165.631 120.927 165.549C120.872 165.499 120.828 165.439 120.798 165.372C120.768 165.305 120.753 165.233 120.753 165.159V160.599C120.753 160.474 120.799 160.353 120.884 160.259C120.969 160.165 121.086 160.105 121.213 160.09L183.716 151.937C183.788 151.926 183.861 151.929 183.932 151.948C184.002 151.967 184.067 152 184.123 152.045C184.179 152.091 184.225 152.147 184.257 152.211C184.289 152.275 184.306 152.345 184.308 152.416L184.605 157.925C184.611 158.056 184.565 158.184 184.478 158.284C184.391 158.384 184.268 158.448 184.135 158.463L121.346 165.698L121.285 165.678ZM121.806 161.048V164.581L183.522 157.476L183.287 153.005L121.806 161.048Z" fill="#282929"/>
<path d="M121.284 165.156L109.783 83.5171L56.8613 80.8926L68.751 147.603L121.284 165.156Z" fill="white"/>
<path d="M121.284 165.679C121.227 165.689 121.168 165.689 121.111 165.679L68.5773 148.116C68.4872 148.087 68.4071 148.035 68.3457 147.964C68.2844 147.894 68.2444 147.808 68.23 147.716L56.3403 80.9863C56.3269 80.9104 56.3309 80.8325 56.3521 80.7582C56.3733 80.684 56.4111 80.6153 56.4629 80.5572C56.5151 80.4999 56.5799 80.4549 56.6524 80.4255C56.7249 80.3961 56.8033 80.3832 56.8817 80.3875L109.844 83.0021C109.967 83.0098 110.084 83.0586 110.175 83.1403C110.266 83.222 110.326 83.3317 110.345 83.4511L121.846 165.09C121.857 165.178 121.846 165.267 121.812 165.349C121.778 165.431 121.723 165.503 121.652 165.559C121.602 165.602 121.544 165.634 121.481 165.655C121.417 165.676 121.351 165.684 121.284 165.679ZM69.1902 147.217L120.62 164.401L109.292 84.01L57.4741 81.4453L69.1902 147.217Z" fill="#282929"/>
<path d="M148.578 150.511H148.404L131.039 144.523C130.904 144.513 130.778 144.45 130.69 144.349C130.602 144.248 130.559 144.117 130.57 143.984C130.58 143.852 130.645 143.729 130.748 143.643C130.851 143.557 130.986 143.515 131.121 143.525L141.05 142.008C141.133 141.988 141.221 141.988 141.305 142.008L159.037 148.335C159.147 148.373 159.24 148.446 159.301 148.542C159.362 148.638 159.388 148.752 159.375 148.864C159.361 148.976 159.307 149.081 159.223 149.159C159.14 149.237 159.03 149.285 158.915 149.293L148.7 150.421L148.578 150.511ZM133.256 144.264L148.659 149.503L156.637 148.634L141.07 143.076L133.256 144.264Z" fill="#282929" fill-opacity="0.2"/>
<path d="M257.955 87.1646L261.622 116.014C263.828 133.487 265.34 150.242 258.445 154.453C251.55 158.665 192.051 158.814 192.051 158.814C193.162 153.902 193.424 148.843 192.827 143.846C192.827 143.846 241.857 137 241.315 132.22C240.774 127.44 225.238 94.8584 224.972 87.2644C224.707 79.6703 248.507 81.6661 257.955 87.1646Z" fill="url(#paint2_linear_2698_15267)"/>
<path d="M192.786 143.843C192.786 143.843 182.572 144.262 181.213 142.376C179.855 140.49 177.648 138.145 176.341 137.915C175.033 137.686 159.037 139.482 159.998 141.109C160.958 142.735 167.873 141.338 167.873 141.338C167.873 141.338 161.867 142.835 162.143 144.791C162.418 146.747 163.808 146.537 166.106 145.789C168.404 145.04 173.951 143.733 173.951 143.733C173.951 143.733 165.462 147.575 165.33 149.561C165.197 151.547 169.293 150.559 175.064 147.565C175.064 147.565 168.343 151.697 170.427 152.914C172.51 154.131 177.403 151.617 177.403 151.617C177.403 151.617 179.712 155.259 182.827 156.167C185.942 157.075 192.429 156.995 192.429 156.995C192.429 156.995 195.503 150.27 192.786 143.843Z" fill="white"/>
<path d="M192.02 157.473C190.559 157.473 185.381 157.413 182.633 156.615C179.885 155.817 177.893 153.242 177.178 152.234C175.85 152.863 172.071 154.47 170.11 153.322C169.916 153.216 169.754 153.063 169.64 152.878C169.525 152.692 169.462 152.481 169.456 152.264C169.61 151.404 170.078 150.627 170.774 150.079C168.568 150.947 166.412 151.476 165.37 150.837C165.157 150.696 164.986 150.501 164.878 150.272C164.77 150.044 164.728 149.79 164.757 149.54C164.839 148.293 167.189 146.676 169.528 145.369C168.281 145.688 167.046 146.027 166.228 146.287C164.737 146.766 163.419 147.115 162.521 146.566C162.242 146.372 162.013 146.118 161.85 145.824C161.687 145.53 161.595 145.204 161.581 144.87C161.438 143.872 162.337 143.064 163.491 142.415C161.703 142.485 160.008 142.275 159.487 141.357C159.411 141.22 159.377 141.064 159.389 140.908C159.402 140.752 159.461 140.603 159.558 140.479C160.896 138.663 175.207 137.196 176.443 137.415C178.108 137.705 180.529 140.589 181.642 142.076C182.459 143.223 188.639 143.503 192.766 143.333C192.874 143.327 192.982 143.355 193.074 143.413C193.165 143.47 193.236 143.554 193.276 143.652C196.045 150.209 193.001 156.895 192.868 157.174C192.827 157.262 192.761 157.338 192.678 157.391C192.594 157.444 192.497 157.472 192.398 157.473H192.02ZM177.362 151.057C177.453 151.058 177.541 151.081 177.62 151.124C177.699 151.168 177.765 151.231 177.812 151.306C177.812 151.306 180.059 154.799 182.919 155.627C185.513 156.386 190.641 156.445 192.02 156.445C192.551 155.118 194.482 149.66 192.418 144.371C190.028 144.451 182.122 144.57 180.764 142.674C179.17 140.459 177.178 138.593 176.228 138.423C174.645 138.144 161.928 139.85 160.498 140.988C161.233 141.617 164.706 141.437 167.709 140.838C167.775 140.823 167.843 140.822 167.91 140.833C167.976 140.844 168.04 140.868 168.097 140.903C168.154 140.938 168.203 140.984 168.242 141.038C168.28 141.092 168.308 141.153 168.322 141.217C168.339 141.282 168.343 141.35 168.333 141.416C168.323 141.482 168.3 141.546 168.265 141.603C168.23 141.661 168.183 141.711 168.128 141.751C168.073 141.791 168.011 141.82 167.944 141.836C165.707 142.395 162.459 143.702 162.602 144.72C162.597 144.908 162.635 145.096 162.712 145.268C162.79 145.441 162.906 145.594 163.052 145.718C163.573 146.037 164.788 145.718 165.881 145.339C168.179 144.6 173.532 143.343 173.767 143.273C173.834 143.251 173.905 143.243 173.975 143.248C174.045 143.253 174.114 143.272 174.177 143.303C174.24 143.334 174.296 143.377 174.343 143.429C174.389 143.481 174.424 143.542 174.446 143.607C174.468 143.673 174.477 143.742 174.472 143.811C174.466 143.88 174.447 143.947 174.416 144.008C174.384 144.07 174.34 144.125 174.286 144.17C174.233 144.215 174.171 144.249 174.104 144.271C170.161 146.057 165.861 148.622 165.789 149.67C165.789 149.929 165.871 149.989 165.922 150.029C166.494 150.388 168.986 150.179 174.747 147.125C174.866 147.077 174.999 147.072 175.121 147.112C175.243 147.152 175.346 147.234 175.411 147.342C175.475 147.451 175.498 147.578 175.474 147.702C175.449 147.825 175.38 147.936 175.278 148.013C172.97 149.44 170.478 151.486 170.488 152.304C170.488 152.354 170.488 152.414 170.631 152.494C172.132 153.372 175.81 151.845 177.097 151.177C177.172 151.114 177.264 151.072 177.362 151.057Z" fill="#282929"/>
<path d="M200.437 143.212C200.315 143.202 200.201 143.15 200.114 143.065C200.028 142.981 199.974 142.87 199.964 142.751C199.953 142.632 199.985 142.513 200.055 142.415C200.124 142.317 200.227 142.246 200.345 142.214L240.366 135.408C237.757 128.64 235.541 121.733 233.726 114.722C229.702 98.9847 229.089 87.0298 231.898 79.1762C231.918 79.1117 231.952 79.0519 231.997 79.0006C232.042 78.9492 232.097 78.9073 232.16 78.8775C232.222 78.8476 232.289 78.8304 232.358 78.8269C232.428 78.8233 232.497 78.8335 232.562 78.8569C232.694 78.9022 232.803 78.9969 232.864 79.1203C232.925 79.2437 232.934 79.3858 232.888 79.5155C226.351 97.8271 241.428 135.249 241.581 135.618C241.616 135.686 241.634 135.761 241.634 135.837C241.634 135.914 241.616 135.989 241.581 136.057C241.543 136.124 241.49 136.181 241.426 136.226C241.363 136.271 241.29 136.302 241.213 136.316L200.559 143.232L200.437 143.212Z" fill="#282929"/>
<path d="M188.997 127.257C188.862 127.257 188.733 127.206 188.636 127.115C188.538 127.024 188.481 126.9 188.476 126.768C188.118 119.543 186.127 113.905 184.39 108.926C183.193 105.988 182.353 102.923 181.888 99.7947C181.816 99.0861 181.745 98.4076 181.683 97.7988C181.111 92.2305 180.662 87.8198 184.043 77.9405C184.087 77.8115 184.182 77.7047 184.306 77.6431C184.43 77.5815 184.574 77.5701 184.707 77.6112C184.772 77.6325 184.832 77.6663 184.884 77.7105C184.936 77.7548 184.978 77.8086 185.009 77.8689C185.039 77.9292 185.057 77.9948 185.061 78.0619C185.065 78.129 185.056 78.1963 185.034 78.2598C181.734 87.9495 182.153 92.0409 182.735 97.6991C182.797 98.3577 182.868 99.0362 182.929 99.7448C183.391 102.791 184.214 105.775 185.381 108.636C187.168 113.686 189.191 119.394 189.548 126.768C189.554 126.904 189.505 127.037 189.411 127.138C189.317 127.238 189.187 127.299 189.048 127.307L188.997 127.257Z" fill="#282929"/>
<path d="M218.741 179.02C228.016 179.02 235.534 176.808 235.534 174.08C235.534 171.352 228.016 169.141 218.741 169.141C209.467 169.141 201.949 171.352 201.949 174.08C201.949 176.808 209.467 179.02 218.741 179.02Z" fill="white"/>
<path d="M206.086 160.648L205.677 160.717C204.476 160.899 203.385 161.506 202.613 162.424C202.174 163.079 201.931 163.842 201.913 164.625C201.895 165.408 202.102 166.181 202.511 166.855C204.288 169.998 208.639 170.846 211.979 171.176C212.452 171.247 212.934 171.209 213.389 171.066C213.615 170.989 213.811 170.846 213.952 170.657C214.092 170.468 214.17 170.242 214.176 170.008C214.151 169.82 214.078 169.64 213.964 169.487C213.85 169.333 213.698 169.211 213.522 169.13C213.171 168.969 212.794 168.867 212.408 168.83C210.299 168.622 208.234 168.107 206.28 167.304C205.166 166.755 203.614 165.497 204.421 164.15C204.702 163.711 205.111 163.364 205.595 163.152C207.506 162.264 209.324 162.933 211.213 163.482C211.35 163.531 211.497 163.552 211.642 163.542C212.01 163.542 212.214 163.072 212.184 162.713C212.122 161.905 211.305 161.376 210.529 161.087C209.113 160.561 207.581 160.41 206.086 160.648Z" fill="white"/>
<path d="M205.667 18.9029C205.667 18.9029 194.87 19.2721 191.704 24.3714C188.537 29.4707 188.966 37.0149 184.891 41.9146C180.815 46.8143 175.82 57.3123 178.404 62.691C180.989 68.0698 207.863 69.4968 221.939 63.2598C236.014 57.0229 236.719 45.8763 235.657 38.7912C234.595 31.706 229.446 12.4663 205.667 18.9029Z" fill="white"/>
<path d="M198.18 67.8611C197.403 67.8611 196.627 67.8611 195.851 67.8611C188.241 67.6516 179.508 66.2445 177.945 62.9415C175.309 57.4629 180.141 46.8652 184.492 41.6361C186.668 39.0116 187.557 35.5389 188.384 32.166C188.932 29.3797 189.903 26.6889 191.264 24.1827C194.441 19.0535 204.605 18.5046 205.565 18.4647C213.675 16.2793 220.427 16.8581 225.636 20.1711C233.348 25.0908 235.555 34.8204 236.147 38.7821C237.342 46.7654 235.882 57.6725 222.123 63.7298C216.188 66.3543 207.373 67.8611 198.18 67.8611ZM214.523 18.1055C211.556 18.1456 208.608 18.5753 205.759 19.3828H205.647C205.534 19.3828 195.085 19.8019 192.092 24.6118C190.78 27.0432 189.85 29.6537 189.334 32.3556C188.466 35.8283 187.557 39.4208 185.248 42.2049C180.978 47.3541 176.474 57.5428 178.844 62.4625C181.121 67.2025 207.322 69.1484 221.694 62.7818C234.87 56.944 236.27 46.5458 235.126 38.832C234.554 35.01 232.429 25.6197 225.064 20.9196C221.924 18.9932 218.271 18.0143 214.564 18.1055H214.523Z" fill="#282929"/>
<path d="M224.891 77.8018C224.891 77.8018 216.116 98.7578 208.813 98.179C201.51 97.6002 201.775 82.0029 201.775 82.0029L224.891 77.8018Z" fill="#282929"/>
<path d="M209.109 98.6844H208.772C201.091 98.0757 201.213 82.6581 201.224 82.0094C201.222 81.8951 201.262 81.7839 201.337 81.6961C201.412 81.6082 201.517 81.5495 201.632 81.5304L224.799 77.3192C224.887 77.3006 224.979 77.3065 225.064 77.3366C225.149 77.3666 225.223 77.4194 225.279 77.4889C225.339 77.5584 225.378 77.6426 225.392 77.7323C225.406 77.8219 225.396 77.9138 225.36 77.9978C225.003 78.846 216.607 98.6844 209.109 98.6844ZM202.235 82.4186C202.235 84.8335 202.746 97.1976 208.854 97.6865C214.278 98.1256 221.336 84.7137 224.053 78.4569L202.235 82.4186Z" fill="#282929"/>
<path d="M203.695 67.4224L201.775 82.0018C201.775 82.0018 204.237 87.9893 214.267 87.0612C220.457 86.4625 224.942 77.8006 224.942 77.8006L226.923 49.2106C226.923 49.2106 213.011 41.7263 204.993 28.7734C204.993 28.7734 198.394 39.4111 193.573 38.3733C193.573 38.3733 192.01 52.7332 193.757 60.0379C195.503 67.3426 203.695 67.4224 203.695 67.4224Z" fill="white"/>
<path d="M212.071 87.6602C203.593 87.6602 201.356 82.4312 201.254 82.1917C201.234 82.1097 201.234 82.0242 201.254 81.9422L203.144 67.8817C201.193 67.7021 194.819 66.5944 193.287 60.1479C191.54 52.8432 193.031 38.9024 193.103 38.3137C193.11 38.2446 193.131 38.1778 193.167 38.1176C193.202 38.0574 193.25 38.0052 193.307 37.9644C193.366 37.9249 193.433 37.8974 193.503 37.8837C193.573 37.87 193.646 37.8703 193.716 37.8846C197.393 38.6829 202.807 31.3882 204.584 28.5142C204.633 28.4443 204.698 28.387 204.775 28.3474C204.851 28.3078 204.937 28.2871 205.023 28.2871C205.11 28.2871 205.195 28.3078 205.272 28.3474C205.348 28.387 205.414 28.4443 205.463 28.5142C213.338 41.1976 227.015 48.7019 227.148 48.7718C227.232 48.8189 227.301 48.8875 227.348 48.9702C227.394 49.0528 227.417 49.1464 227.414 49.2408L225.432 77.8308C225.424 77.8973 225.403 77.9616 225.371 78.0204C225.187 78.3897 220.692 86.9417 214.298 87.5505C213.558 87.6256 212.815 87.6623 212.071 87.6602ZM202.255 81.9322C202.643 82.7505 205.32 87.4107 214.165 86.5625C219.681 86.0336 223.9 78.5793 224.38 77.6612L226.341 49.4902C224.349 48.3526 212.419 41.2076 204.993 29.7217C203.461 32.0069 198.343 39.1719 194.033 38.9324C193.777 41.5469 192.735 53.5517 194.247 59.8885C195.881 66.7141 203.379 66.8738 203.695 66.8738C203.768 66.8745 203.84 66.8904 203.906 66.9203C203.972 66.9503 204.03 66.9936 204.078 67.0475C204.125 67.1013 204.16 67.1644 204.18 67.2326C204.201 67.3007 204.206 67.3723 204.196 67.4426L202.255 81.9322Z" fill="#282929"/>
<path d="M202.664 75.0971C204.368 75.2936 206.096 75.082 207.697 74.4805C209.299 73.8789 210.727 72.9055 211.857 71.6443C215.851 67.2835 214.922 66.4951 214.922 66.4951C211.291 67.6031 207.456 67.9232 203.686 67.4332L202.664 75.0971Z" fill="#282929"/>
<path d="M203.889 75.6769C203.448 75.6812 203.007 75.6478 202.572 75.5772C202.443 75.5551 202.329 75.486 202.251 75.384C202.173 75.2819 202.138 75.1547 202.153 75.0283L203.174 67.3644C203.182 67.299 203.203 67.2358 203.236 67.1785C203.269 67.1212 203.313 67.071 203.367 67.031C203.42 66.9909 203.481 66.9618 203.547 66.9453C203.612 66.9289 203.68 66.9255 203.746 66.9353C207.445 67.4135 211.206 67.1002 214.768 66.0172C214.856 65.9877 214.95 65.9814 215.042 65.999C215.133 66.0165 215.218 66.0572 215.289 66.117C215.432 66.2467 215.728 66.6359 215.381 67.5939C214.592 69.2138 213.528 70.6916 212.235 71.9647C211.194 73.1279 209.911 74.0607 208.472 74.7009C207.033 75.3411 205.471 75.6738 203.889 75.6769ZM203.236 74.679C204.781 74.7784 206.329 74.5275 207.759 73.9459C209.189 73.3643 210.462 72.4677 211.479 71.3261C213.624 68.981 214.267 67.7536 214.461 67.1848C211.103 68.0949 207.598 68.3692 204.134 67.9931L203.236 74.679Z" fill="#282929"/>
<path d="M207.026 44.29C207.026 44.29 202.194 51.9739 203.461 53.2712C204.727 54.5685 208.108 53.5406 208.108 53.5406" fill="white"/>
<path d="M205.595 54.3645C204.692 54.4313 203.799 54.1522 203.103 53.5861C201.704 52.199 205.074 46.4511 206.586 44.0361C206.658 43.9237 206.772 43.8436 206.905 43.8137C207.037 43.7838 207.176 43.8063 207.291 43.8765C207.406 43.9466 207.488 44.0586 207.519 44.1877C207.549 44.3168 207.526 44.4526 207.454 44.565C204.993 48.4768 203.297 52.3587 203.828 52.8776C204.686 53.7258 207.107 53.2668 207.965 53.0173C208.094 52.9799 208.232 52.9934 208.351 53.055C208.469 53.1167 208.558 53.2214 208.598 53.3466C208.637 53.4737 208.623 53.6104 208.56 53.7278C208.497 53.8452 208.39 53.934 208.261 53.9753C207.393 54.2163 206.497 54.3471 205.595 54.3645Z" fill="#282929"/>
<path d="M213.398 45.2775C214.092 45.1929 214.555 44.3485 214.433 43.3914C214.311 42.4344 213.649 41.7271 212.955 41.8117C212.261 41.8963 211.797 42.7407 211.919 43.6978C212.042 44.6548 212.703 45.3621 213.398 45.2775Z" fill="#282929"/>
<path d="M202.437 44.2714C202.609 43.3217 202.19 42.4553 201.501 42.3364C200.812 42.2175 200.115 42.8911 199.943 43.8408C199.771 44.7906 200.19 45.6569 200.879 45.7758C201.568 45.8948 202.266 45.2212 202.437 44.2714Z" fill="#282929"/>
<path d="M206.606 60.1279C205.287 60.1844 203.98 59.8521 202.857 59.1741C201.733 58.4961 200.843 57.5038 200.304 56.3259C200.274 56.2506 200.263 56.1689 200.274 56.0887C200.285 56.0084 200.316 55.9321 200.365 55.8669C200.412 55.8011 200.475 55.7475 200.548 55.711C200.621 55.6745 200.702 55.656 200.784 55.6573C212.378 55.6573 212.439 55.7172 212.633 55.9267C212.683 55.9779 212.721 56.0394 212.744 56.1067C212.767 56.174 212.774 56.2455 212.766 56.3159C212.761 56.4032 212.729 56.4869 212.674 56.5554C212.572 56.6951 210.171 59.9084 207.281 60.108L206.606 60.1279ZM201.622 56.6552C202.218 57.5417 203.06 58.2449 204.049 58.6829C205.038 59.121 206.133 59.276 207.209 59.13C208.854 59.0202 210.396 57.6232 211.223 56.735C209.313 56.6951 204.911 56.6752 201.622 56.6752V56.6552Z" fill="#282929"/>
<path d="M228.609 44.37C228.609 44.37 232.603 27.6251 225.187 21.1287C217.771 14.6324 205.667 18.9034 205.667 18.9034C205.667 18.9034 219.273 18.0751 222.082 24.0826C224.891 30.09 222.633 47.2041 222.633 47.2041L228.609 44.37Z" fill="white"/>
<path d="M222.633 47.705C222.522 47.7073 222.414 47.6721 222.327 47.6052C222.253 47.5515 222.196 47.4799 222.16 47.3975C222.124 47.3152 222.111 47.225 222.122 47.1362C222.122 46.9666 224.329 30.082 221.622 24.2841C218.986 18.6659 205.83 19.3944 205.697 19.3944C205.575 19.4041 205.454 19.3699 205.356 19.2982C205.258 19.2265 205.191 19.1223 205.166 19.0052C205.139 18.8877 205.158 18.7647 205.218 18.6598C205.279 18.5548 205.376 18.4753 205.493 18.4364C205.994 18.2568 217.985 14.1254 225.534 20.7515C233.083 27.3776 229.273 43.7832 229.099 44.4818C229.083 44.554 229.051 44.6219 229.005 44.6806C228.959 44.7393 228.9 44.7872 228.833 44.8211L222.848 47.6551C222.781 47.6868 222.707 47.7038 222.633 47.705ZM209.773 18.4264C214.135 18.6759 220.621 19.7636 222.551 23.875C225.033 29.1938 223.675 42.6855 223.246 46.3578L228.159 44.0227C228.598 42.0269 231.489 27.3178 224.85 21.5C220.325 17.5283 213.869 17.7378 209.773 18.4264Z" fill="#282929"/>
<path d="M233.914 51.1401C234.959 45.874 232.521 40.9829 228.469 40.2153C224.416 39.4477 220.284 43.0945 219.239 48.3605C218.194 53.6266 220.632 58.5177 224.684 59.2853C228.737 60.0529 232.869 56.4061 233.914 51.1401Z" fill="white"/>
<path d="M225.268 59.1313C224.881 59.1328 224.495 59.0994 224.114 59.0316C219.773 58.2232 217.127 53.0441 218.21 47.5157C218.663 44.9829 219.938 42.6596 221.847 40.8896C222.643 40.1015 223.619 39.5095 224.695 39.1625C225.772 38.8155 226.917 38.7234 228.037 38.8938C232.368 39.7021 235.013 44.8812 233.93 50.4096C232.929 55.459 229.181 59.1313 225.268 59.1313ZM226.862 39.8218C225.238 39.8745 223.693 40.5188 222.531 41.628C220.789 43.2547 219.629 45.3853 219.221 47.7053C218.2 52.6948 220.519 57.3451 224.329 58.0436C228.139 58.7422 231.979 55.2595 232.96 50.2599C233.93 45.2704 231.653 40.6202 227.853 39.9216C227.522 39.8416 227.183 39.7981 226.842 39.7919L226.862 39.8218Z" fill="#282929"/>
<path d="M211.632 64.1892C211.497 64.1892 211.367 64.1366 211.271 64.043C211.175 63.9495 211.122 63.8226 211.122 63.6902C211.122 63.5579 211.175 63.431 211.271 63.3374C211.367 63.2438 211.497 63.1913 211.632 63.1913C215.258 63.0017 221.428 62.2433 222.49 60.9959C223.716 59.5389 224.533 54.8787 224.717 53.2122C224.725 53.1467 224.746 53.0833 224.779 53.0258C224.813 52.9683 224.857 52.9177 224.91 52.8769C224.963 52.8361 225.024 52.806 225.089 52.7882C225.154 52.7704 225.222 52.7652 225.289 52.7731C225.356 52.781 225.421 52.8017 225.48 52.834C225.539 52.8663 225.591 52.9097 225.632 52.9616C225.674 53.0135 225.705 53.0729 225.723 53.1364C225.741 53.2 225.747 53.2664 225.739 53.3319C225.739 53.5914 224.952 59.6487 223.267 61.6246C221.581 63.6004 212.674 64.1193 211.663 64.1892H211.632Z" fill="#282929"/>
<path d="M215.105 61.903L209.53 62.3948C208.749 62.4637 208.173 63.1358 208.243 63.896C208.314 64.6563 209.004 65.2167 209.785 65.1478L215.36 64.656C216.141 64.5871 216.717 63.9149 216.646 63.1547C216.576 62.3945 215.886 61.8341 215.105 61.903Z" fill="white"/>
<path d="M209.64 65.6743C209.161 65.6712 208.699 65.4937 208.346 65.1764C207.993 64.8591 207.773 64.4247 207.73 63.9579C207.693 63.4691 207.855 62.9857 208.18 62.6123C208.505 62.2389 208.967 62.0053 209.467 61.9621L215.054 61.4631C215.563 61.4202 216.069 61.5743 216.464 61.8922C216.754 62.1289 216.967 62.4438 217.076 62.7978C217.185 63.1518 217.185 63.5293 217.076 63.8833C216.968 64.2374 216.755 64.5524 216.464 64.7892C216.174 65.026 215.818 65.1741 215.442 65.2152L209.855 65.7042L209.64 65.6743ZM215.238 62.4211H215.146L209.559 62.9101C209.438 62.9225 209.32 62.9582 209.214 63.0152C209.107 63.0723 209.013 63.1494 208.937 63.2422C208.861 63.3351 208.804 63.4417 208.771 63.556C208.737 63.6703 208.727 63.7899 208.742 63.908C208.752 64.0241 208.786 64.137 208.843 64.2398C208.899 64.3427 208.976 64.4335 209.068 64.5067C209.156 64.5844 209.26 64.6431 209.372 64.6792C209.485 64.7153 209.604 64.7279 209.722 64.7163L215.309 64.2173C215.432 64.2075 215.551 64.1736 215.66 64.1175C215.768 64.0614 215.864 63.9845 215.942 63.8912C216.019 63.7979 216.076 63.6903 216.11 63.5748C216.143 63.4594 216.152 63.3385 216.137 63.2194C216.108 62.987 215.992 62.7734 215.81 62.6207C215.648 62.492 215.446 62.4216 215.238 62.4211Z" fill="#282929"/>
<path d="M81.9996 23.7666C65.5031 23.7666 52.1221 33.4762 52.1221 45.4412C52.1221 52.4964 56.7697 58.7632 63.9607 62.7149L70.641 71.9556V65.4891C74.3238 66.5783 78.1518 67.1265 81.9996 67.1157C98.4961 67.1157 111.887 57.416 111.887 45.4412C111.887 33.4663 98.4961 23.7666 81.9996 23.7666Z" fill="white"/>
<path d="M70.6406 72.4515C70.5585 72.4528 70.4774 72.4344 70.4044 72.3978C70.3314 72.3613 70.2686 72.3078 70.2218 72.242L63.6027 63.1211C55.9827 58.86 51.6211 52.4335 51.6211 45.4382C51.6211 33.1838 65.2473 23.2646 81.9991 23.2646C98.751 23.2646 112.377 33.2437 112.377 45.4382C112.377 57.6326 98.751 67.6117 81.9991 67.6117C78.3295 67.6086 74.6783 67.1048 71.1513 66.1148V71.9126C71.1519 72.0193 71.1176 72.1234 71.0532 72.2096C70.9889 72.2958 70.898 72.3596 70.7938 72.3916C70.7475 72.4218 70.6954 72.4422 70.6406 72.4515ZM81.9991 24.2626C65.8091 24.2626 52.6425 33.7626 52.6425 45.4382C52.6425 52.1441 56.8509 58.2313 64.2054 62.2828C64.274 62.315 64.3336 62.3629 64.379 62.4226L70.1298 70.4058V65.4861C70.1306 65.4088 70.1494 65.3327 70.1848 65.2635C70.2202 65.1943 70.2713 65.134 70.3341 65.087C70.4004 65.0422 70.4757 65.012 70.5551 64.9982C70.6344 64.9844 70.7158 64.9875 70.7938 65.0071C74.4362 66.0868 78.2234 66.6284 82.0298 66.6138C98.2198 66.6138 111.386 57.1137 111.386 45.4382C111.386 33.7626 98.1892 24.2626 81.9991 24.2626Z" fill="#282929" fill-opacity="0.2"/>
<path d="M67.6581 47.9056C69.0685 47.9056 70.2118 46.7886 70.2118 45.4108C70.2118 44.033 69.0685 42.916 67.6581 42.916C66.2478 42.916 65.1045 44.033 65.1045 45.4108C65.1045 46.7886 66.2478 47.9056 67.6581 47.9056Z" fill="#282929" fill-opacity="0.2"/>
<path d="M81.9994 47.9056C83.4098 47.9056 84.5531 46.7886 84.5531 45.4108C84.5531 44.033 83.4098 42.916 81.9994 42.916C80.5891 42.916 79.4458 44.033 79.4458 45.4108C79.4458 46.7886 80.5891 47.9056 81.9994 47.9056Z" fill="#282929" fill-opacity="0.2"/>
<path d="M96.3305 47.9056C97.7408 47.9056 98.8841 46.7886 98.8841 45.4108C98.8841 44.033 97.7408 42.916 96.3305 42.916C94.9202 42.916 93.7769 44.033 93.7769 45.4108C93.7769 46.7886 94.9202 47.9056 96.3305 47.9056Z" fill="#282929" fill-opacity="0.2"/>
<path d="M265.105 105.952H265.054C264.916 105.937 264.789 105.871 264.7 105.766C264.611 105.662 264.566 105.529 264.574 105.393C266.617 82.2318 274.738 73.9592 275.075 73.6199C275.176 73.5403 275.303 73.4995 275.433 73.5054C275.563 73.5113 275.686 73.5634 275.779 73.6519C275.872 73.7403 275.928 73.859 275.938 73.9855C275.948 74.112 275.909 74.2375 275.831 74.3384C275.749 74.4182 267.659 82.7507 265.616 105.483C265.606 105.609 265.548 105.727 265.454 105.814C265.359 105.901 265.235 105.95 265.105 105.952Z" fill="white"/>
</g>
<defs>
<linearGradient id="paint0_linear_2698_15267" x1="128.25" y1="54.7426" x2="258" y2="168" gradientUnits="userSpaceOnUse">
<stop stop-color="#FFB11B"/>
<stop offset="1" stop-color="#FF441B"/>
</linearGradient>
<linearGradient id="paint1_linear_2698_15267" x1="128.25" y1="54.7426" x2="258" y2="168" gradientUnits="userSpaceOnUse">
<stop stop-color="#FFB11B"/>
<stop offset="1" stop-color="#FF441B"/>
</linearGradient>
<linearGradient id="paint2_linear_2698_15267" x1="115.5" y1="38" x2="256" y2="180.5" gradientUnits="userSpaceOnUse">
<stop stop-color="#FFB11B"/>
<stop offset="1" stop-color="#FF441B"/>
</linearGradient>
<clipPath id="clip0_2698_15267">
<rect width="332" height="170" fill="white"/>
</clipPath>
</defs>
</svg>
