<svg width="866" height="904" viewBox="0 0 866 904" fill="none" xmlns="http://www.w3.org/2000/svg">
<path d="M463.121 23.2943L5.2016 0.359576C1.45138 0.171748 -0.645717 4.61989 1.88545 7.39345L279.506 311.6C280.35 312.524 280.377 313.924 279.524 314.84C259.151 336.721 204.753 373.786 192.998 474.367C177.093 610.46 277.123 690.63 327.599 711.98L862.667 902.991C864.768 903.742 866.437 901.132 864.874 899.539L541.225 569.649C539.994 568.394 540.451 566.286 542.079 565.623C655.484 519.477 729.485 409.314 722.317 296.585C710.082 104.187 555.63 27.276 463.121 23.2943Z" fill="white"/>
</svg>
