<svg width="16" height="17" viewBox="0 0 16 17" fill="none" xmlns="http://www.w3.org/2000/svg">
<path d="M2.31955 13.234C1.91484 13.6098 1.8914 14.2425 2.26721 14.6472C2.64301 15.052 3.27574 15.0754 3.68045 14.6996L2.31955 13.234ZM14.7326 4.03714C14.7531 3.48524 14.3223 3.02126 13.7703 3.00082L4.77651 2.66771C4.2246 2.64727 3.76063 3.07811 3.74018 3.63001C3.71974 4.18192 4.15058 4.6459 4.70249 4.66634L12.697 4.96243L12.4009 12.957C12.3805 13.5089 12.8113 13.9728 13.3632 13.9933C13.9151 14.0137 14.3791 13.5829 14.3995 13.031L14.7326 4.03714ZM3.68045 14.6996L14.4138 4.73292L13.0529 3.26734L2.31955 13.234L3.68045 14.6996Z" fill="url(#paint0_linear_2015_6218)"/>
<defs>
<linearGradient id="paint0_linear_2015_6218" x1="4.02473" y1="12.7025" x2="10.1455" y2="15.4972" gradientUnits="userSpaceOnUse">
<stop stop-color="#FFB11B"/>
<stop offset="1" stop-color="#FF441B"/>
</linearGradient>
</defs>
</svg>
