<svg width="24" height="25" viewBox="0 0 24 25" fill="none" xmlns="http://www.w3.org/2000/svg">
<path d="M7 11.75C6.58579 11.75 6.25 12.0858 6.25 12.5C6.25 12.9142 6.58579 13.25 7 13.25L7 11.75ZM18.5303 13.0303C18.8232 12.7374 18.8232 12.2626 18.5303 11.9697L13.7574 7.1967C13.4645 6.90381 12.9896 6.90381 12.6967 7.1967C12.4038 7.48959 12.4038 7.96447 12.6967 8.25736L16.9393 12.5L12.6967 16.7426C12.4038 17.0355 12.4038 17.5104 12.6967 17.8033C12.9896 18.0962 13.4645 18.0962 13.7574 17.8033L18.5303 13.0303ZM7 13.25L18 13.25L18 11.75L7 11.75L7 13.25Z" fill="#282929"/>
</svg>
