<svg width="13" height="15" viewBox="0 0 13 15" fill="none" xmlns="http://www.w3.org/2000/svg">
<path d="M1.28009 8.10891L6.58409 2.80491C6.83951 2.54956 7.14273 2.34701 7.47643 2.20884C7.81012 2.07067 8.16777 1.99957 8.52894 1.99962C8.89012 1.99967 9.24775 2.07085 9.58141 2.20911C9.91507 2.34737 10.2182 2.54999 10.4736 2.80541C10.7289 3.06083 10.9315 3.36405 11.0697 3.69775C11.2078 4.03145 11.2789 4.38909 11.2789 4.75027C11.2788 5.11144 11.2077 5.46907 11.0694 5.80273C10.9311 6.13639 10.7285 6.43956 10.4731 6.69491L4.10909 13.0589C3.87451 13.2935 3.55634 13.4253 3.22459 13.4253C2.89284 13.4253 2.57467 13.2935 2.34009 13.0589C2.10551 12.8243 1.97372 12.5062 1.97372 12.1744C1.97372 11.8427 2.10551 11.5245 2.34009 11.2899L7.99709 5.63291C8.12957 5.49074 8.20169 5.30269 8.19827 5.10839C8.19484 4.91409 8.11613 4.7287 7.97871 4.59129C7.8413 4.45388 7.65591 4.37517 7.46161 4.37174C7.26731 4.36831 7.07927 4.44043 6.93709 4.57291L1.28009 10.2299C0.764245 10.7458 0.474445 11.4454 0.474445 12.1749C0.474445 12.9044 0.764245 13.6041 1.28009 14.1199C1.79594 14.6358 2.49557 14.9256 3.22509 14.9256C3.95461 14.9256 4.65424 14.6358 5.17009 14.1199L11.5331 7.75491C12.3148 6.95479 12.7495 5.87874 12.743 4.76016C12.7365 3.64159 12.2893 2.57068 11.4983 1.77971C10.7073 0.988741 9.63642 0.541498 8.51784 0.534984C7.39926 0.52847 6.32322 0.963211 5.52309 1.74491L0.22009 7.04791C0.0876104 7.19009 0.0154875 7.37813 0.0189157 7.57243C0.0223439 7.76674 0.101056 7.95212 0.238469 8.08953C0.375882 8.22695 0.561267 8.30566 0.755568 8.30909C0.949869 8.31251 1.13792 8.24039 1.28009 8.10791V8.10891Z" fill="#6D7582"/>
</svg>
