<svg width="40" height="40" viewBox="0 0 40 40" fill="none" xmlns="http://www.w3.org/2000/svg">
<path d="M26.7046 19.5499L24.3118 21.9427C23.9012 22.3534 23.4136 22.6792 22.877 22.9015C22.3405 23.1237 21.7654 23.2381 21.1846 23.2381C20.6038 23.2381 20.0287 23.1237 19.4921 22.9015C18.9555 22.6792 18.468 22.3534 18.0573 21.9427C17.9561 21.8584 17.8735 21.754 17.8149 21.636C17.7563 21.518 17.7229 21.3891 17.7169 21.2575C17.7109 21.126 17.7324 20.9946 17.78 20.8717C17.8276 20.7489 17.9003 20.6374 17.9935 20.5442C18.0866 20.4511 18.1982 20.3784 18.321 20.3308C18.4438 20.2832 18.5752 20.2617 18.7068 20.2677C18.8384 20.2737 18.9673 20.3071 19.0852 20.3657C19.2032 20.4243 19.3077 20.5068 19.3919 20.6081C19.868 21.0792 20.5108 21.3435 21.1806 21.3435C21.8504 21.3435 22.4932 21.0792 22.9693 20.6081L25.3621 18.2153C25.8365 17.7409 26.103 17.0974 26.103 16.4266C26.103 15.7557 25.8365 15.1123 25.3621 14.6379C24.8877 14.1635 24.2443 13.897 23.5734 13.897C22.9026 13.897 22.2591 14.1635 21.7847 14.6379L21.0266 15.4039C20.8486 15.5819 20.6071 15.6819 20.3554 15.6819C20.1036 15.6819 19.8621 15.5819 19.6841 15.4039C19.5061 15.2259 19.4061 14.9844 19.4061 14.7326C19.4061 14.4809 19.5061 14.2394 19.6841 14.0614L20.4501 13.2954C21.2795 12.466 22.4044 12 23.5774 12C24.7503 12 25.8752 12.466 26.7046 13.2954C27.534 14.1248 28 15.2497 28 16.4226C28 17.5956 27.534 18.7205 26.7046 19.5499ZM18.9734 24.5961L18.2153 25.3621C17.7409 25.8365 17.0974 26.103 16.4266 26.103C15.7557 26.103 15.1123 25.8365 14.6379 25.3621C14.1635 24.8877 13.897 24.2443 13.897 23.5734C13.897 22.9026 14.1635 22.2591 14.6379 21.7847L17.0307 19.3919C17.5068 18.9208 18.1496 18.6565 18.8194 18.6565C19.4892 18.6565 20.132 18.9208 20.6081 19.3919C20.7898 19.5432 21.0214 19.621 21.2575 19.6102C21.4937 19.5995 21.7173 19.5008 21.8844 19.3337C22.0516 19.1665 22.1502 18.9429 22.161 18.7068C22.1718 18.4706 22.0939 18.239 21.9427 18.0573C21.5326 17.6457 21.0452 17.319 20.5085 17.0962C19.9719 16.8733 19.3965 16.7586 18.8154 16.7586C18.2343 16.7586 17.659 16.8733 17.1223 17.0962C16.5857 17.319 16.0983 17.6457 15.6882 18.0573L13.2954 20.4501C12.466 21.2795 12 22.4044 12 23.5774C12 24.7503 12.466 25.8752 13.2954 26.7046C14.1248 27.534 15.2497 28 16.4226 28C17.5956 28 18.7205 27.534 19.5499 26.7046L20.3159 25.9386C20.4939 25.7606 20.5939 25.5191 20.5939 25.2674C20.5939 25.0156 20.4939 24.7741 20.3159 24.5961C20.1379 24.4181 19.8964 24.3181 19.6446 24.3181C19.3929 24.3181 19.1514 24.4181 18.9734 24.5961Z" fill="#6D7582"/>
</svg>
