<svg width="48" height="48" viewBox="0 0 48 48" fill="none" xmlns="http://www.w3.org/2000/svg">
<path d="M8.51163 9.61539C8.51163 8.94436 7.94938 8.40039 7.25581 8.40039C6.56225 8.40039 6 8.94436 6 9.61539V39.5854C6 40.2564 6.56225 40.8004 7.25581 40.8004H37.814C38.5075 40.8004 39.0698 40.2564 39.0698 39.5854C39.0698 38.9144 38.5075 38.3704 37.814 38.3704H8.51163V9.61539Z" fill="url(#paint0_linear_2725_17498)"/>
<path d="M41.6322 17.7645C42.1226 17.29 42.1226 16.5207 41.6322 16.0463C41.1418 15.5718 40.3466 15.5718 39.8562 16.0463L30.2791 25.3121L24.0508 19.2863C23.5604 18.8118 22.7652 18.8118 22.2748 19.2863L12.2283 29.0063C11.7379 29.4807 11.7379 30.25 12.2283 30.7245C12.7187 31.199 13.5138 31.199 14.0043 30.7245L23.1628 21.8637L29.3911 27.8895C29.8815 28.364 30.6766 28.364 31.1671 27.8895L41.6322 17.7645Z" fill="url(#paint1_linear_2725_17498)"/>
<defs>
<linearGradient id="paint0_linear_2725_17498" x1="-10.1021" y1="-0.973354" x2="53.9472" y2="57.0075" gradientUnits="userSpaceOnUse">
<stop stop-color="#FFB11B"/>
<stop offset="1" stop-color="#FF441B"/>
</linearGradient>
<linearGradient id="paint1_linear_2725_17498" x1="-10.1021" y1="-0.973354" x2="53.9472" y2="57.0075" gradientUnits="userSpaceOnUse">
<stop stop-color="#FFB11B"/>
<stop offset="1" stop-color="#FF441B"/>
</linearGradient>
</defs>
</svg>
