<svg width="48" height="48" viewBox="0 0 48 48" fill="none" xmlns="http://www.w3.org/2000/svg">
<path fill-rule="evenodd" clip-rule="evenodd" d="M32.1364 12.7853C29.4384 14.7361 26.3887 17.6275 23.8364 20.1508C23.7905 20.1962 23.7449 20.2415 23.6997 20.2868L27.703 24.292C27.7518 24.2442 27.8008 24.196 27.85 24.1474C30.3964 21.6299 33.2938 18.5885 35.238 15.8898C36.2166 14.5314 36.8979 13.335 37.2 12.3843C37.5086 11.4132 37.336 11.021 37.1514 10.8367L37.1504 10.8356C36.9815 10.6665 36.6053 10.492 35.6338 10.8084C34.6873 11.1166 33.4942 11.8036 32.1364 12.7853ZM26.0575 25.8056L22.1787 21.925C21.056 23.2348 20.2531 24.4334 19.7143 25.4672C20.2892 25.7857 20.8297 26.1889 21.3175 26.677C21.8066 27.1664 22.2106 27.7087 22.5293 28.2856C23.5566 27.7491 24.7359 26.9403 26.0575 25.8056ZM23.2945 30.4026C23.7285 32.6666 23.0695 35.0989 21.3175 36.8517C20.5352 37.6344 19.3781 38.1639 18.222 38.5361C17.0375 38.9174 15.7178 39.1754 14.4894 39.3416C13.2582 39.5082 12.0878 39.5866 11.1897 39.5987C10.7432 39.6047 10.3448 39.5947 10.0307 39.567C9.87663 39.5534 9.7159 39.5333 9.569 39.5009C9.49624 39.4848 9.40216 39.4605 9.30309 39.4218C9.22549 39.3915 9.03649 39.3123 8.86243 39.1381L8.86157 39.1373C8.68805 38.9633 8.60911 38.7746 8.57884 38.6969C8.54021 38.5979 8.51589 38.5038 8.49986 38.431C8.46749 38.284 8.44742 38.1232 8.43383 37.9691C8.40612 37.6548 8.39605 37.2561 8.40207 36.8094C8.41416 35.9108 8.49252 34.7399 8.65898 33.5081C8.82505 32.2792 9.08291 30.9589 9.46404 29.7738C9.83601 28.6172 10.3653 27.4596 11.1476 26.677C12.9009 24.9228 15.3345 24.2638 17.5988 24.7001C18.4913 22.8993 20.0081 20.7943 22.2666 18.5614C24.8183 16.0387 27.9762 13.0365 30.8283 10.9743C32.2455 9.94962 33.663 9.1004 34.9426 8.6837C36.1972 8.27511 37.6624 8.18691 38.7304 9.25647C39.8011 10.327 39.7314 11.793 39.3284 13.0613C38.9187 14.3505 38.0736 15.7751 37.0497 17.1963C34.989 20.0566 31.9773 23.2083 29.4198 25.7368C27.1602 27.9707 25.1075 29.5065 23.2945 30.4026ZM19.7383 28.257C17.8021 26.3199 14.6629 26.3199 12.7268 28.257C12.3229 28.661 11.927 29.4103 11.59 30.4582C11.2622 31.4776 11.0273 32.6593 10.8722 33.8075C10.7174 34.9527 10.646 36.0338 10.6352 36.8395C10.6326 37.0351 10.6336 37.21 10.6374 37.3623C10.7896 37.3661 10.9643 37.3671 11.1596 37.3645C11.9649 37.3536 13.0454 37.2822 14.1902 37.1274C15.3378 36.9721 16.5191 36.7371 17.538 36.4091C18.5854 36.0719 19.3344 35.6758 19.7383 35.2718C21.6745 33.3347 21.6745 30.1941 19.7383 28.257Z" fill="url(#paint0_linear_2725_17504)"/>
<defs>
<linearGradient id="paint0_linear_2725_17504" x1="-5.55477" y1="-0.626177" x2="55.1494" y2="48.8312" gradientUnits="userSpaceOnUse">
<stop stop-color="#FFB11B"/>
<stop offset="1" stop-color="#FF441B"/>
</linearGradient>
</defs>
</svg>
