<svg width="670" height="267" viewBox="0 0 670 267" fill="none" xmlns="http://www.w3.org/2000/svg">
<g clip-path="url(#clip0_2725_16058)">
<path d="M250.411 278.042C250.411 278.042 267.536 257.76 277.46 265.491C287.384 273.222 257.499 406.447 257.499 406.447H217.596C217.596 406.447 221.66 323.919 226.442 308.154C231.224 292.389 250.411 278.042 250.411 278.042Z" fill="#282929"/>
<path d="M257.499 407.317H217.596C217.482 407.318 217.369 407.295 217.265 407.249C217.161 407.204 217.067 407.137 216.991 407.053C216.908 406.977 216.845 406.882 216.806 406.777C216.766 406.672 216.752 406.559 216.764 406.448C216.915 403.064 220.885 323.617 225.648 307.966C230.412 292.314 248.331 278.61 249.843 277.457C251.167 275.907 267.744 256.91 277.97 264.868C288.197 272.826 261.336 392.97 258.255 406.637C258.219 406.817 258.126 406.98 257.99 407.103C257.854 407.225 257.681 407.301 257.499 407.317ZM218.522 405.654H256.837C268.803 352.292 283.963 271.597 277.006 266.191C267.82 259.027 251.28 278.421 251.11 278.61L250.978 278.742C250.789 278.874 231.962 293.146 227.293 308.438C222.794 323.012 218.919 396.713 218.465 405.616L218.522 405.654Z" fill="#282929"/>
<path d="M125.786 277.345C125.786 277.345 124.425 292.184 139.944 302.694C155.463 313.204 207.993 307.703 207.993 307.703L155.974 400.855L200.565 404.522C200.565 404.522 263.68 300.406 262.773 283.054C261.866 265.701 235.837 262.507 235.837 262.507H130.587L125.786 277.345Z" fill="#282929"/>
<path d="M200.527 405.43L155.88 401.649C155.739 401.639 155.603 401.594 155.484 401.518C155.366 401.442 155.268 401.338 155.199 401.215C155.129 401.094 155.093 400.957 155.093 400.818C155.093 400.678 155.129 400.541 155.199 400.421L206.463 308.686C197.39 309.537 153.725 313.015 139.472 303.375C123.726 292.733 124.955 277.422 124.955 277.27C124.955 277.119 124.955 277.157 124.955 277.1L129.756 262.262C129.811 262.094 129.917 261.947 130.06 261.842C130.202 261.737 130.373 261.679 130.55 261.676H235.762C236.953 261.827 262.585 265.173 263.53 283.017C264.456 300.426 203.798 400.685 201.151 404.957C201.094 405.081 201.007 405.189 200.898 405.271C200.79 405.354 200.662 405.408 200.527 405.43ZM157.316 400.137L200.112 403.634C204.573 396.243 262.793 299.424 261.923 283.111C261.053 266.798 235.97 263.377 235.724 263.339H131.193L126.618 277.516C126.618 278.707 126.108 292.317 140.417 301.995C155.539 312.202 207.351 306.929 207.881 306.872C208.032 306.856 208.185 306.883 208.322 306.95C208.459 307.016 208.575 307.121 208.656 307.25C208.734 307.381 208.775 307.532 208.775 307.685C208.775 307.838 208.734 307.988 208.656 308.119L157.316 400.137Z" fill="#282929"/>
<path d="M121.4 227.141C121.741 229.58 121.967 232.018 122.1 234.438C122.931 248.048 121.514 261.866 124.16 275.23C124.448 277.658 125.448 279.946 127.033 281.808C128.431 283.057 130.101 283.963 131.91 284.454C142.779 287.819 154.423 287.327 165.632 289.331C176.842 291.335 188.58 296.892 192.795 307.44C193.13 307.9 193.343 308.438 193.415 309.003C193.486 309.568 193.414 310.142 193.205 310.672C192.996 311.201 192.656 311.67 192.218 312.033C191.779 312.397 191.256 312.644 190.697 312.751C182.229 316.021 171.568 313.866 162.627 313.829C150.113 313.829 137.581 313.318 125.105 312.468C120.81 312.41 116.562 311.564 112.573 309.973C98.2069 303.243 94.4453 281.165 92.763 267.366C90.2884 246.972 89.1707 226.437 89.4172 205.895C89.4172 199.657 91.591 191.397 97.8288 191.34C104.067 191.283 112.459 202.511 115.219 207.54C118.448 213.646 120.542 220.288 121.4 227.141Z" fill="white"/>
<path d="M178.883 315.458C176.01 315.458 173.099 315.269 170.226 315.08C167.353 314.891 165.046 314.74 162.665 314.721C150.189 314.721 137.543 314.21 125.068 313.36C120.653 313.303 116.288 312.425 112.195 310.77C97.8856 304.06 93.746 282.813 91.8557 267.426C89.3812 246.988 88.2635 226.409 88.51 205.823C88.51 198.716 91.0807 190.417 97.8479 190.342C105.201 190.342 113.631 202.704 116.013 207.033C119.289 213.254 121.385 220.028 122.194 227.013C122.516 229.319 122.761 231.814 122.913 234.385C123.215 239.243 123.215 244.176 123.234 248.959C122.99 257.677 123.578 266.4 124.992 275.006C125.251 277.252 126.157 279.373 127.6 281.112C128.925 282.244 130.499 283.047 132.194 283.456C138.804 285.244 145.583 286.34 152.42 286.726C156.824 287.123 161.36 287.52 165.784 288.314C172.4 289.505 188.467 293.682 193.665 307.008C194.014 307.727 194.196 308.516 194.196 309.315C194.196 310.114 194.014 310.902 193.665 311.621C192.998 312.533 192.047 313.197 190.962 313.511C187.09 314.9 182.995 315.56 178.883 315.458ZM97.8856 192.232C92.2149 192.232 90.4758 200.814 90.3246 205.842C90.0776 226.346 91.1953 246.844 93.6704 267.2C95.5606 282.152 99.4546 302.755 112.932 309.069C116.833 310.615 120.985 311.429 125.181 311.469C137.619 312.32 150.208 312.793 162.646 312.83C165.122 312.83 167.674 313.019 170.377 313.19C177.295 313.643 184.422 314.116 190.376 311.81C191.071 311.614 191.691 311.212 192.153 310.657C192.335 310.185 192.409 309.679 192.369 309.175C192.33 308.672 192.179 308.183 191.926 307.746C186.973 295.308 171.776 291.338 165.462 290.223C161.115 289.448 156.616 289.032 152.231 288.635C145.259 288.249 138.347 287.134 131.608 285.308C129.641 284.824 127.815 283.885 126.277 282.567C124.551 280.576 123.458 278.114 123.139 275.498C121.707 266.753 121.119 257.891 121.382 249.034C121.382 244.271 121.382 239.356 121.06 234.555C120.909 232.022 120.682 229.602 120.361 227.334C119.574 220.576 117.549 214.021 114.388 207.997C111.685 203.007 103.783 192.232 97.8856 192.232Z" fill="#282929"/>
<path d="M312.733 245.42C318.132 246.727 322.925 249.834 326.324 254.228C326.558 254.481 326.737 254.779 326.851 255.105C326.965 255.43 327.011 255.775 326.985 256.118C326.777 257.158 325.511 257.574 324.452 257.687C321.023 257.783 317.592 257.549 314.207 256.988C306.949 256.289 299.577 257.328 292.337 256.402C286.061 255.608 293.207 245.892 296.42 244.512C300.843 242.641 308.366 244.248 312.733 245.42Z" fill="white"/>
<path d="M322.543 258.768C320.644 258.727 318.75 258.562 316.873 258.276C315.984 258.163 315.077 258.049 314.17 257.974C310.787 257.7 307.391 257.624 304 257.747C300.09 257.91 296.173 257.79 292.28 257.388C291.481 257.387 290.708 257.098 290.104 256.573C289.5 256.049 289.105 255.325 288.991 254.533C288.462 250.753 293.566 244.78 296.099 243.683C300.522 241.793 307.743 243.078 313.111 244.515C318.727 245.869 323.709 249.104 327.231 253.683C327.545 254.046 327.78 254.47 327.92 254.929C328.059 255.388 328.102 255.872 328.044 256.348C327.779 257.633 326.57 258.465 324.679 258.654C323.97 258.735 323.257 258.773 322.543 258.768ZM307.875 255.819C310.011 255.819 312.166 255.819 314.302 256.083L317.062 256.405C319.471 256.81 321.919 256.937 324.358 256.783C325.152 256.783 325.965 256.424 326.059 255.97C326.154 255.516 325.814 255.138 325.549 254.798C322.29 250.566 317.68 247.578 312.487 246.33C305.323 244.439 299.879 244.08 296.798 245.422C294.643 246.349 290.447 251.736 290.806 254.269C290.806 254.59 290.957 255.308 292.469 255.516C296.268 255.903 300.09 256.017 303.905 255.857L307.875 255.819Z" fill="#282929"/>
<path d="M183.704 146.919L183.175 219.014L152.571 142.08L183.704 146.919Z" fill="#282929"/>
<path d="M183.175 219.957C182.984 219.954 182.798 219.895 182.641 219.787C182.483 219.68 182.36 219.529 182.286 219.353L151.645 142.438C151.581 142.283 151.56 142.114 151.583 141.947C151.607 141.781 151.674 141.624 151.778 141.493C151.881 141.361 152.018 141.26 152.175 141.2C152.331 141.14 152.501 141.124 152.666 141.153L183.78 145.992C184.005 146.024 184.211 146.138 184.357 146.313C184.503 146.487 184.58 146.709 184.574 146.937L184.044 219.012C184.04 219.232 183.961 219.443 183.82 219.612C183.679 219.78 183.485 219.895 183.269 219.938L183.175 219.957ZM154.065 143.27L182.267 214.154L182.759 147.731L154.065 143.27Z" fill="#282929"/>
<path d="M132.853 266.376C132.853 266.376 106.39 203.809 109.414 168.329C111.645 141.978 135.008 130.731 143.703 130.183C151.737 129.673 194.476 123.983 210.051 143.075C225.627 162.166 224.455 263.295 224.455 263.295L132.853 266.376Z" fill="url(#paint0_linear_2725_16058)"/>
<path d="M210.051 143.075C210.051 143.075 221.582 165.228 228.368 176.626C235.154 188.025 249.936 204.356 249.936 204.356C249.936 204.356 302.183 222.938 302.523 223.939C302.863 224.941 297.571 242.502 297.571 242.502C297.571 242.502 242.753 238.551 233.661 234.26C224.569 229.969 206.196 208.893 206.196 208.893L210.051 143.075Z" fill="url(#paint1_linear_2725_16058)"/>
<path d="M122.495 141.054C106.655 151.091 85.8618 247.684 99.3393 258.099C120.454 274.374 179.808 242.202 179.808 242.202L173.815 213.848C173.815 213.848 126.559 215.152 125.916 205.455C125.274 195.758 153.382 150.865 149.696 144.173C146.01 137.482 122.495 141.054 122.495 141.054Z" fill="url(#paint2_linear_2725_16058)"/>
<path d="M171.852 154.874L167.996 160.942L172.23 163.456L172.646 192.547L183.175 219.01L183.704 194.513L174.933 162.624L177.542 159.543L171.852 154.874Z" fill="white"/>
<path d="M183.175 219.953C182.984 219.95 182.798 219.89 182.64 219.783C182.483 219.676 182.36 219.524 182.286 219.348L171.757 192.885C171.739 192.772 171.739 192.657 171.757 192.544L171.342 164.002L167.561 161.752C167.452 161.69 167.357 161.606 167.282 161.505C167.207 161.404 167.154 161.289 167.126 161.166C167.093 161.042 167.086 160.913 167.105 160.786C167.125 160.659 167.171 160.537 167.24 160.429L171.02 154.361C171.092 154.25 171.186 154.156 171.297 154.084C171.407 154.012 171.532 153.965 171.663 153.945C171.796 153.926 171.932 153.935 172.063 153.971C172.193 154.007 172.314 154.069 172.419 154.153L178.09 158.822C178.186 158.902 178.266 159.001 178.324 159.112C178.382 159.223 178.417 159.345 178.427 159.47C178.438 159.594 178.424 159.72 178.385 159.84C178.347 159.959 178.285 160.069 178.203 160.164L175.916 162.849L184.573 194.265C184.583 194.353 184.583 194.441 184.573 194.529L184.044 219.103C184.036 219.319 183.954 219.526 183.814 219.691C183.673 219.855 183.481 219.968 183.269 220.01L183.175 219.953ZM173.591 192.355L182.324 214.32L182.759 194.624L174.026 162.867C173.98 162.718 173.973 162.56 174.006 162.408C174.039 162.256 174.111 162.114 174.215 161.998L176.105 159.673L171.984 156.289L169.224 160.637L172.608 162.641C172.746 162.724 172.861 162.84 172.943 162.979C173.026 163.117 173.073 163.274 173.081 163.435L173.591 192.355Z" fill="#282929"/>
<path d="M149.452 67.2787C150.574 66.8366 151.75 66.5443 152.949 66.4092C157.693 65.861 157.769 66.8817 161.436 63.8195C166.994 59.4174 173.771 56.8306 180.849 56.4097C194.478 55.5213 204.402 62.3451 201.302 77.2025C199.806 83.1415 197.089 88.7037 193.325 93.5343C185.612 104.195 174.743 113.874 161.606 114.875C157.826 115.159 150.416 114.875 147.58 111.681C143.588 107.15 140.822 101.671 139.548 95.7678C138.274 89.8644 138.534 83.7331 140.303 77.9586C141.03 75.4794 142.238 73.1672 143.857 71.1537C145.357 69.4021 147.284 68.0674 149.452 67.2787Z" fill="white"/>
<path d="M159.207 115.978C155.747 115.978 149.604 115.506 146.807 112.406C142.697 107.739 139.858 102.094 138.56 96.013C137.262 89.932 137.551 83.6194 139.397 77.6819C140.18 75.0824 141.464 72.6614 143.177 70.5556C144.775 68.7093 146.799 67.2816 149.075 66.397C150.293 65.9373 151.563 65.6263 152.855 65.4708C154.122 65.3385 155.067 65.2818 155.823 65.2629C157.846 65.2629 158.375 65.1684 160.851 63.0891C166.565 58.5687 173.538 55.9276 180.812 55.5281C188.865 54.9988 195.386 57.1159 199.167 61.4635C202.55 65.3574 203.628 70.9148 202.248 77.5685C200.761 83.6407 197.982 89.3209 194.101 94.2216C187.39 103.522 176.313 114.844 161.702 115.96C161.399 115.922 160.511 115.978 159.207 115.978ZM149.755 68.155C147.767 68.9111 146 70.1522 144.614 71.7654C143.072 73.6883 141.928 75.8987 141.249 78.2678C139.492 83.8862 139.212 89.8626 140.437 95.6204C141.663 101.378 144.351 106.723 148.243 111.139C150.493 113.635 156.693 114.372 161.475 114.013C175.349 112.954 186.048 102.028 192.475 93.0496C196.2 88.3632 198.87 82.9278 200.301 77.1148C201.548 71.0849 200.641 66.0757 197.654 62.6543C194.252 58.7415 188.298 56.8701 180.85 57.3616C173.963 57.7683 167.366 60.2752 161.948 64.5446C161.173 65.3728 160.232 66.0269 159.186 66.4636C158.14 66.9003 157.013 67.1096 155.88 67.0775C154.932 67.0981 153.985 67.1675 153.044 67.2855C151.931 67.4087 150.838 67.6756 149.793 68.0794L149.755 68.155Z" fill="#282929"/>
<path d="M184.875 126.542V147.108C184.875 147.108 180.055 158.449 166.597 155.009C153.138 151.569 151.475 141.909 151.475 141.909L152.079 103.821C152.079 103.821 162.155 98.6035 159.47 76.8467C170.46 81.7445 182.566 83.5924 194.516 82.1961C194.516 82.1961 198.636 105.994 197.181 116.485C195.782 126.579 185.064 126.39 184.875 126.542Z" fill="white"/>
<path d="M171.455 156.6C169.739 156.586 168.032 156.364 166.37 155.938C152.477 152.404 150.624 142.499 150.567 142.083L151.153 103.824C151.155 103.654 151.201 103.488 151.287 103.342C151.374 103.196 151.497 103.076 151.645 102.992C151.645 102.992 161.096 97.6997 158.525 76.9635C158.505 76.7934 158.531 76.6208 158.601 76.4643C158.671 76.3078 158.782 76.1733 158.922 76.0751C159.071 75.9869 159.241 75.9404 159.414 75.9404C159.587 75.9404 159.756 75.9869 159.905 76.0751C170.729 80.8517 182.633 82.6464 194.384 81.2733C194.622 81.2501 194.861 81.3166 195.053 81.4599C195.245 81.6032 195.377 81.813 195.423 82.0483C195.593 83.0312 199.544 106.13 198.107 116.621C197.257 122.84 192.89 126.677 185.802 127.471V147.187C185.828 147.311 185.828 147.44 185.802 147.565C184.494 150.261 182.457 152.537 179.921 154.135C177.385 155.732 174.452 156.586 171.455 156.6ZM153.044 104.372L152.439 141.932C152.439 142.121 154.178 150.873 166.842 154.105C178.638 157.092 183.288 148.302 183.855 146.903V126.545C183.854 126.403 183.886 126.262 183.948 126.134C184.011 126.007 184.102 125.895 184.214 125.808C184.47 125.634 184.775 125.548 185.083 125.562C191.586 124.976 195.423 121.782 196.179 116.3C197.427 107.208 194.289 87.549 193.646 83.1825C182.408 84.3272 171.062 82.6914 160.605 78.419C162.4 96.7356 155.085 102.992 153.044 104.372Z" fill="#282929"/>
<path d="M160.018 103.257C159.576 101.402 158.549 99.7384 157.088 98.5123C155.671 97.4352 154.079 96.6104 152.381 96.0739C151.487 95.6875 150.52 95.5005 149.546 95.5257C148.879 95.6341 148.239 95.8648 147.656 96.2062C146.187 96.9061 145.014 98.1053 144.348 99.5897C143.978 100.815 143.907 102.112 144.14 103.37C144.286 104.775 144.616 106.154 145.123 107.472C145.669 108.776 146.469 109.959 147.476 110.951C148.483 111.944 149.677 112.727 150.989 113.254C152.3 113.782 153.704 114.043 155.118 114.024C156.531 114.005 157.927 113.706 159.224 113.143" fill="white"/>
<path d="M154.972 115.108C153.468 115.113 151.979 114.824 150.586 114.258C149.157 113.674 147.858 112.811 146.764 111.721C145.671 110.631 144.804 109.334 144.216 107.907C143.673 106.51 143.317 105.048 143.157 103.559C142.89 102.109 142.987 100.615 143.441 99.2114C144.199 97.5329 145.543 96.1886 147.222 95.4309C147.922 95.0318 148.692 94.7688 149.49 94.6559C150.61 94.5992 151.729 94.7996 152.76 95.2419C154.561 95.8184 156.249 96.7008 157.75 97.8504C159.33 99.1847 160.448 100.984 160.945 102.992C161.002 103.235 160.96 103.491 160.829 103.703C160.698 103.916 160.488 104.068 160.245 104.126C160 104.183 159.742 104.142 159.526 104.012C159.311 103.881 159.155 103.671 159.092 103.427C158.701 101.777 157.786 100.298 156.484 99.2114C155.147 98.2132 153.651 97.4464 152.061 96.9431C151.298 96.6082 150.473 96.4406 149.641 96.4516C149.087 96.5394 148.554 96.7319 148.072 97.0187C146.812 97.6165 145.797 98.6315 145.199 99.8919C144.876 100.997 144.818 102.163 145.029 103.294C145.18 104.588 145.491 105.858 145.955 107.075C146.447 108.269 147.171 109.354 148.086 110.266C149.001 111.178 150.089 111.899 151.285 112.386C152.481 112.873 153.763 113.118 155.054 113.105C156.346 113.092 157.622 112.822 158.809 112.311C159.04 112.215 159.299 112.212 159.532 112.304C159.765 112.396 159.953 112.575 160.056 112.802C160.106 112.918 160.132 113.042 160.133 113.167C160.134 113.293 160.11 113.417 160.063 113.533C160.015 113.649 159.945 113.755 159.856 113.843C159.768 113.932 159.662 114.002 159.546 114.05C158.109 114.709 156.552 115.069 154.972 115.108Z" fill="#282929"/>
<path d="M184.101 95.8301C184.101 95.8301 191.416 106.226 189.772 108.098C188.127 109.969 183.401 108.873 183.401 108.873" fill="white"/>
<path d="M186.293 110.131C185.251 110.123 184.212 110.009 183.193 109.791C182.942 109.733 182.725 109.578 182.588 109.36C182.452 109.142 182.407 108.879 182.465 108.628C182.523 108.378 182.678 108.16 182.896 108.024C183.114 107.887 183.377 107.843 183.628 107.901C185.253 108.279 188.145 108.487 189.072 107.428C189.487 106.502 186.822 101.285 183.401 96.3322C183.273 96.1265 183.229 95.8795 183.278 95.6424C183.327 95.4052 183.466 95.196 183.664 95.0578C183.863 94.9195 184.108 94.8629 184.347 94.8996C184.586 94.9362 184.802 95.0634 184.951 95.2548C187.843 99.3566 192.512 106.596 190.622 108.676C190.047 109.215 189.363 109.624 188.616 109.876C187.869 110.127 187.077 110.214 186.293 110.131Z" fill="#282929"/>
<path d="M180.029 93.6589C180.113 92.3044 179.403 91.1583 178.445 91.0992C177.486 91.0401 176.641 92.0902 176.558 93.4448C176.474 94.7994 177.183 95.9454 178.142 96.0045C179.101 96.0637 179.945 95.0135 180.029 93.6589Z" fill="#282929"/>
<path d="M193.485 96.0785C194.443 96.0112 195.142 94.8591 195.047 93.5053C194.952 92.1515 194.098 91.1086 193.14 91.1759C192.182 91.2433 191.482 92.3953 191.578 93.7491C191.673 95.103 192.527 96.1458 193.485 96.0785Z" fill="#282929"/>
<path d="M184.44 116.373C180.395 116.373 175.084 115.75 171.568 112.914C171.403 112.748 171.305 112.527 171.293 112.293C171.282 112.059 171.357 111.83 171.506 111.648C171.654 111.467 171.864 111.347 172.096 111.312C172.327 111.277 172.563 111.329 172.759 111.459C178.316 115.92 189.771 114.124 189.771 114.105C190.022 114.065 190.278 114.126 190.484 114.275C190.689 114.424 190.827 114.648 190.867 114.899C190.907 115.15 190.846 115.406 190.697 115.612C190.549 115.817 190.324 115.955 190.073 115.995C188.208 116.262 186.325 116.388 184.44 116.373Z" fill="#282929"/>
<path d="M197.597 106.641C194.914 106.639 192.296 105.813 190.098 104.274C187.901 102.734 186.23 100.556 185.312 98.035C184.394 95.5137 184.273 92.7712 184.967 90.1791C185.66 87.5871 187.134 85.2711 189.189 83.5451C191.243 81.8191 193.778 80.7666 196.451 80.5303C199.124 80.294 201.805 80.8854 204.13 82.2243C206.455 83.5632 208.313 85.5848 209.45 88.0149C210.588 90.4451 210.95 93.1663 210.489 95.8095C209.956 98.8421 208.371 101.59 206.014 103.571C203.656 105.551 200.676 106.638 197.597 106.641ZM197.597 82.3697C194.707 82.3553 191.922 83.4581 189.825 85.4479C187.728 87.4377 186.481 90.1605 186.345 93.048C186.208 95.9354 187.191 98.764 189.091 100.943C190.99 103.123 193.657 104.484 196.536 104.743C199.415 105.002 202.283 104.139 204.541 102.334C206.799 100.529 208.272 97.9211 208.653 95.0557C209.034 92.1902 208.293 89.2884 206.585 86.9562C204.877 84.624 202.334 83.0418 199.487 82.5399C198.863 82.4292 198.231 82.3723 197.597 82.3697Z" fill="#282929"/>
<path d="M172.192 105.636C171.426 105.638 170.66 105.575 169.905 105.447C167.357 105 164.999 103.807 163.128 102.02C161.258 100.233 159.959 97.9318 159.397 95.4069C158.834 92.8819 159.033 90.2469 159.968 87.8349C160.903 85.423 162.532 83.3424 164.65 81.8563C166.33 80.6744 168.265 79.9049 170.298 79.61C172.331 79.3152 174.405 79.5033 176.352 80.1592C178.299 80.8151 180.063 81.9203 181.504 83.3853C182.944 84.8503 184.019 86.6339 184.641 88.5916C185.264 90.5493 185.416 92.6261 185.087 94.6538C184.757 96.6814 183.954 98.603 182.744 100.263C181.534 101.923 179.949 103.274 178.119 104.207C176.289 105.141 174.265 105.63 172.211 105.636H172.192ZM172.192 81.3648C169.397 81.378 166.709 82.4363 164.656 84.3315C162.602 86.2267 161.332 88.8217 161.095 91.6061C160.858 94.3905 161.671 97.1628 163.375 99.3778C165.079 101.593 167.55 103.09 170.302 103.575C173.167 103.948 176.065 103.198 178.39 101.482C180.715 99.7666 182.286 97.2181 182.774 94.3703C183.263 91.5225 182.631 88.5962 181.011 86.2038C179.391 83.8114 176.908 82.1384 174.082 81.5349C173.439 81.4231 172.788 81.3662 172.135 81.3648H172.192Z" fill="#282929"/>
<path d="M184.875 126.546C184.875 126.546 172.078 129.514 164.536 125.204C164.536 125.204 172.891 142.443 184.875 140.647V126.546Z" fill="#282929"/>
<path d="M183.098 141.718C171.624 141.718 164.026 126.293 163.685 125.594C163.602 125.412 163.577 125.209 163.615 125.013C163.652 124.816 163.749 124.636 163.893 124.498C164.041 124.359 164.228 124.272 164.429 124.248C164.63 124.224 164.833 124.265 165.009 124.365C172.135 128.448 184.554 125.651 184.667 125.613C184.806 125.582 184.95 125.582 185.088 125.614C185.227 125.646 185.356 125.709 185.467 125.798C185.578 125.887 185.667 126 185.728 126.128C185.789 126.256 185.821 126.397 185.82 126.539V140.64C185.823 140.865 185.743 141.082 185.597 141.253C185.451 141.423 185.248 141.535 185.026 141.567C184.388 141.662 183.744 141.713 183.098 141.718ZM166.766 127.201C169.451 131.605 175.877 140.432 183.949 139.79V127.692C180.981 128.24 173.061 129.45 166.766 127.201Z" fill="#282929"/>
<path d="M141.343 258.841C141.138 258.845 140.937 258.78 140.773 258.656C140.609 258.533 140.49 258.359 140.436 258.161C140.371 257.918 140.405 257.659 140.528 257.44C140.652 257.222 140.856 257.06 141.097 256.989L167.05 249.693V227.142L125.673 222.908C125.539 222.898 125.408 222.859 125.291 222.794C125.173 222.728 125.071 222.638 124.992 222.53C124.917 222.42 124.865 222.297 124.839 222.167C124.813 222.037 124.814 221.903 124.841 221.774L140.53 151.248C140.557 151.124 140.609 151.006 140.682 150.902C140.754 150.798 140.847 150.709 140.954 150.641C141.061 150.572 141.181 150.526 141.306 150.503C141.431 150.481 141.559 150.484 141.683 150.511C141.807 150.538 141.925 150.59 142.029 150.662C142.133 150.735 142.222 150.828 142.291 150.935C142.359 151.042 142.406 151.161 142.428 151.286C142.45 151.412 142.448 151.54 142.42 151.664L126.92 221.131L168.09 225.346C168.324 225.37 168.541 225.48 168.698 225.654C168.855 225.829 168.942 226.056 168.941 226.291V250.43C168.941 250.634 168.874 250.833 168.752 250.997C168.629 251.161 168.457 251.28 168.26 251.337L141.608 258.898C141.516 258.898 141.426 258.879 141.343 258.841Z" fill="#282929"/>
<path d="M242.378 246.059C241.943 247.023 240.487 246.74 239.561 246.305L226.065 240.124C229.152 241.656 232.041 243.56 234.665 245.794C235.176 246.229 235.724 246.815 235.573 247.477C235.327 248.611 233.683 248.403 232.605 247.893C227.422 245.398 222.469 242.45 217.804 239.084L228.239 247.08C228.239 247.292 228.196 247.503 228.114 247.699C228.033 247.895 227.913 248.073 227.761 248.223C227.61 248.372 227.431 248.49 227.234 248.57C227.037 248.649 226.826 248.689 226.613 248.687C225.744 248.628 224.908 248.334 224.193 247.836L212.644 240.974L219.903 246.059C221.037 246.853 222.341 248.12 221.793 249.405C221.245 250.69 218.901 250.463 217.407 249.783C211.412 247.205 205.148 245.303 198.732 244.112C196.495 243.372 194.179 242.897 191.832 242.694C188.237 243.163 184.689 243.94 181.228 245.019C176.83 246.002 172.419 247.017 167.996 248.063V229.5C175.577 229.933 183.183 229.54 190.679 228.329C196.417 226.95 202.301 226.271 208.202 226.306C216.007 226.699 223.683 228.452 230.885 231.485C231.171 231.599 231.429 231.773 231.641 231.996C232.322 232.979 230.696 233.886 229.505 233.886C226.384 233.968 223.267 233.579 220.262 232.733C227.693 235.48 234.719 239.219 241.149 243.848C241.867 244.415 242.68 245.265 242.378 246.059Z" fill="white"/>
<path d="M219.939 251.359C218.93 251.323 217.939 251.078 217.028 250.64C211.097 248.066 204.896 246.164 198.542 244.969C197.748 244.799 196.973 244.573 196.217 244.365C194.809 243.858 193.327 243.589 191.831 243.571C189.416 243.781 187.032 244.263 184.724 245.007C183.59 245.31 182.475 245.631 181.397 245.858L168.317 248.863C168.181 248.9 168.04 248.905 167.902 248.879C167.765 248.853 167.635 248.796 167.523 248.712C167.415 248.641 167.325 248.546 167.259 248.434C167.194 248.323 167.155 248.198 167.145 248.069V229.507C167.144 229.391 167.167 229.275 167.212 229.168C167.258 229.06 167.325 228.964 167.409 228.883C167.49 228.801 167.588 228.737 167.695 228.695C167.803 228.653 167.918 228.633 168.033 228.638C175.551 229.081 183.094 228.694 190.527 227.485L192.569 227.107C197.71 225.909 202.98 225.356 208.258 225.462C216.155 225.846 223.923 227.619 231.205 230.698C231.645 230.861 232.031 231.143 232.321 231.511C232.506 231.754 232.617 232.046 232.641 232.351C232.664 232.657 232.599 232.962 232.453 233.231C232.126 233.714 231.687 234.111 231.174 234.387C230.66 234.664 230.087 234.812 229.504 234.819C228.748 234.819 228.03 234.819 227.293 234.819C232.323 237.168 237.126 239.978 241.64 243.212C243.038 244.213 243.53 245.385 243.114 246.444C242.932 246.813 242.644 247.119 242.287 247.325C241.93 247.53 241.521 247.625 241.11 247.597C240.456 247.559 239.815 247.399 239.22 247.124L235.326 245.234C235.712 245.508 236.017 245.881 236.21 246.313C236.403 246.745 236.476 247.221 236.422 247.691C236.361 247.962 236.242 248.215 236.072 248.434C235.902 248.653 235.686 248.832 235.44 248.958C234.918 249.137 234.364 249.206 233.815 249.161C233.265 249.115 232.73 248.956 232.245 248.693C231.243 248.183 230.241 247.673 229.258 247.143C229.245 247.63 229.065 248.097 228.748 248.466C228.266 249.017 227.587 249.356 226.858 249.412C225.83 249.357 224.837 249.024 223.985 248.448L222.68 247.673C222.822 248.004 222.895 248.361 222.895 248.722C222.895 249.082 222.822 249.439 222.68 249.771C222.548 250.069 222.358 250.338 222.121 250.562C221.885 250.785 221.605 250.96 221.3 251.075C220.87 251.259 220.407 251.355 219.939 251.359ZM192.058 241.907C193.634 241.975 195.192 242.261 196.689 242.758C197.408 242.966 198.145 243.174 198.901 243.325C205.4 244.542 211.741 246.488 217.803 249.128C218.66 249.605 219.655 249.772 220.62 249.601C220.715 249.57 220.801 249.518 220.873 249.45C220.945 249.381 221.001 249.297 221.036 249.204C221.414 248.353 219.921 247.313 219.467 246.898L216.348 244.762L212.133 241.775C211.951 241.642 211.827 241.445 211.785 241.224C211.742 241.003 211.786 240.774 211.906 240.584C212.026 240.399 212.212 240.267 212.426 240.215C212.641 240.162 212.867 240.193 213.059 240.301L224.684 247.011C225.221 247.449 225.882 247.706 226.574 247.748C226.834 247.734 227.078 247.618 227.255 247.427L217.236 239.733C217.058 239.592 216.941 239.386 216.913 239.16C216.885 238.933 216.947 238.705 217.085 238.524C217.22 238.343 217.422 238.224 217.645 238.192C217.869 238.16 218.096 238.218 218.276 238.354C222.891 241.73 227.793 244.696 232.925 247.219C233.437 247.505 234.033 247.599 234.608 247.484C234.608 247.332 234.608 247.087 234.06 246.557C231.482 244.334 228.645 242.43 225.61 240.887C225.409 240.782 225.257 240.602 225.187 240.387C225.116 240.171 225.132 239.937 225.232 239.733C225.33 239.531 225.505 239.375 225.717 239.3C225.93 239.226 226.163 239.239 226.366 239.337L232.169 241.983L239.863 245.499C240.258 245.697 240.688 245.812 241.129 245.839C241.469 245.839 241.507 245.744 241.526 245.688C241.526 245.537 241.337 245.083 240.638 244.591C234.231 240.005 227.237 236.299 219.845 233.571C219.629 233.501 219.451 233.348 219.348 233.146C219.245 232.944 219.227 232.709 219.297 232.494C219.367 232.278 219.52 232.099 219.722 231.997C219.924 231.894 220.159 231.875 220.374 231.946C223.302 232.76 226.333 233.142 229.372 233.08C229.645 233.078 229.916 233.02 230.166 232.909C230.416 232.799 230.641 232.638 230.827 232.437L230.411 232.267C223.331 229.259 215.772 227.531 208.088 227.163C202.943 227.076 197.807 227.622 192.795 228.789L190.754 229.167C183.491 230.357 176.12 230.762 168.77 230.377V246.954C172.891 246.009 176.898 245.064 180.925 244.157C181.964 243.93 183.061 243.627 184.157 243.325C186.61 242.531 189.148 242.03 191.718 241.832L192.058 241.907Z" fill="#282929"/>
<path d="M214.628 221.585C214.406 221.585 214.192 221.498 214.033 221.343C213.874 221.187 213.782 220.976 213.777 220.754C212.587 194.782 209.6 155.37 209.562 154.973C209.552 154.859 209.564 154.745 209.599 154.637C209.633 154.529 209.689 154.428 209.763 154.342C209.837 154.255 209.928 154.185 210.03 154.134C210.132 154.083 210.243 154.054 210.356 154.046C210.469 154.036 210.583 154.049 210.692 154.083C210.8 154.118 210.901 154.174 210.987 154.248C211.073 154.322 211.144 154.412 211.195 154.514C211.245 154.616 211.275 154.727 211.282 154.84C211.282 155.237 214.307 194.687 215.498 220.678C215.503 220.792 215.485 220.906 215.446 221.014C215.407 221.121 215.347 221.22 215.27 221.304C215.193 221.388 215.099 221.457 214.996 221.505C214.892 221.553 214.78 221.581 214.666 221.585H214.628Z" fill="#282929"/>
<path d="M473.404 6.94824H233.89V178.168H473.404V6.94824Z" fill="white"/>
<path d="M473.404 179.11H233.889C233.639 179.11 233.398 179.01 233.221 178.833C233.044 178.656 232.944 178.415 232.944 178.165V6.94513C232.944 6.69446 233.044 6.45407 233.221 6.27682C233.398 6.09958 233.639 6 233.889 6H473.404C473.655 6 473.895 6.09958 474.072 6.27682C474.249 6.45407 474.349 6.69446 474.349 6.94513V178.165C474.349 178.415 474.249 178.656 474.072 178.833C473.895 179.01 473.655 179.11 473.404 179.11ZM234.835 177.219H472.459V7.89026H234.816L234.835 177.219Z" fill="#282929"/>
<path d="M417.264 122.761C417.079 122.75 416.902 122.685 416.754 122.574C416.607 122.463 416.494 122.311 416.432 122.137L384.846 34.3158L350.122 102.044C350.046 102.184 349.938 102.303 349.807 102.392C349.675 102.481 349.524 102.536 349.366 102.554C349.206 102.567 349.047 102.538 348.901 102.472C348.756 102.406 348.629 102.304 348.534 102.176L314.075 57.2447L292.412 91.9687C292.28 92.1769 292.071 92.3251 291.831 92.3816C291.591 92.4381 291.338 92.3985 291.127 92.2711L272.867 81.2887C272.758 81.2265 272.662 81.1427 272.587 81.0425C272.511 80.9422 272.456 80.8276 272.426 80.7056C272.396 80.5836 272.391 80.4567 272.412 80.3327C272.432 80.2088 272.478 80.0903 272.546 79.9845C272.675 79.7731 272.882 79.6209 273.123 79.5608C273.363 79.5007 273.617 79.5375 273.831 79.6631L291.297 90.1729L313.186 55.0898C313.268 54.9605 313.379 54.8522 313.511 54.7734C313.642 54.6946 313.79 54.6476 313.942 54.6361C314.096 54.6229 314.251 54.6509 314.391 54.7174C314.53 54.7838 314.649 54.8863 314.736 55.0142L349.025 99.851L384.146 31.5183C384.23 31.3517 384.36 31.2134 384.521 31.1207C384.683 31.028 384.868 30.985 385.054 30.9971C385.239 31.0092 385.417 31.0759 385.565 31.1888C385.713 31.3017 385.825 31.4558 385.885 31.6317L417.377 119.34L432.839 86.6382C432.958 86.4304 433.15 86.2752 433.378 86.2037C433.606 86.1321 433.853 86.1496 434.068 86.2527C434.284 86.3557 434.453 86.5366 434.54 86.7589C434.628 86.9813 434.628 87.2285 434.541 87.451L418.171 122.213C418.094 122.386 417.966 122.531 417.804 122.63C417.641 122.728 417.453 122.773 417.264 122.761Z" fill="#D4D4D4"/>
<path d="M291.599 95.7121C293.99 95.7121 295.928 93.774 295.928 91.3834C295.928 88.9927 293.99 87.0547 291.599 87.0547C289.209 87.0547 287.271 88.9927 287.271 91.3834C287.271 93.774 289.209 95.7121 291.599 95.7121Z" fill="white"/>
<path d="M291.524 96.6541C290.481 96.6541 289.461 96.3448 288.594 95.7653C287.727 95.1858 287.051 94.3621 286.651 93.3985C286.252 92.4348 286.148 91.3744 286.351 90.3514C286.555 89.3284 287.057 88.3887 287.795 87.6511C288.532 86.9135 289.472 86.4113 290.495 86.2078C291.518 86.0043 292.578 86.1087 293.542 86.5079C294.506 86.9071 295.329 87.583 295.909 88.4503C296.488 89.3176 296.798 90.3372 296.798 91.3803C296.793 92.7774 296.235 94.116 295.247 95.1039C294.259 96.0919 292.921 96.6491 291.524 96.6541ZM291.524 87.9967C290.855 87.9967 290.2 88.1951 289.644 88.5669C289.088 88.9387 288.654 89.4672 288.398 90.0854C288.142 90.7037 288.075 91.384 288.205 92.0404C288.336 92.6967 288.658 93.2996 289.131 93.7728C289.604 94.246 290.207 94.5683 290.864 94.6988C291.52 94.8294 292.2 94.7624 292.819 94.5063C293.437 94.2502 293.965 93.8165 294.337 93.2601C294.709 92.7036 294.907 92.0495 294.907 91.3803C294.907 90.4829 294.551 89.6223 293.916 88.9877C293.282 88.3532 292.421 87.9967 291.524 87.9967Z" fill="#D4D4D4"/>
<path d="M313.999 59.9132C316.389 59.9132 318.327 57.9752 318.327 55.5845C318.327 53.1939 316.389 51.2559 313.999 51.2559C311.608 51.2559 309.67 53.1939 309.67 55.5845C309.67 57.9752 311.608 59.9132 313.999 59.9132Z" fill="white"/>
<path d="M313.998 60.8582C312.955 60.8582 311.936 60.5489 311.068 59.9694C310.201 59.3899 309.525 58.5662 309.126 57.6026C308.727 56.6389 308.622 55.5785 308.826 54.5555C309.029 53.5325 309.532 52.5928 310.269 51.8552C311.007 51.1177 311.947 50.6154 312.97 50.4119C313.993 50.2084 315.053 50.3128 316.017 50.712C316.98 51.1112 317.804 51.7871 318.383 52.6544C318.963 53.5217 319.272 54.5413 319.272 55.5844C319.272 56.9831 318.717 58.3245 317.728 59.3135C316.739 60.3025 315.397 60.8582 313.998 60.8582ZM313.998 52.2008C313.329 52.2008 312.675 52.3993 312.119 52.771C311.562 53.1428 311.129 53.6713 310.872 54.2895C310.616 54.9078 310.549 55.5881 310.68 56.2445C310.81 56.9008 311.133 57.5037 311.606 57.9769C312.079 58.4501 312.682 58.7724 313.338 58.9029C313.995 59.0335 314.675 58.9665 315.293 58.7104C315.912 58.4543 316.44 58.0206 316.812 57.4642C317.184 56.9077 317.382 56.2536 317.382 55.5844C317.382 54.687 317.025 53.8264 316.391 53.1918C315.756 52.5573 314.896 52.2008 313.998 52.2008Z" fill="#D4D4D4"/>
<path d="M384.997 36.2833C387.387 36.2833 389.325 34.3453 389.325 31.9547C389.325 29.564 387.387 27.626 384.997 27.626C382.606 27.626 380.668 29.564 380.668 31.9547C380.668 34.3453 382.606 36.2833 384.997 36.2833Z" fill="white"/>
<path d="M384.996 37.2107C383.953 37.2107 382.932 36.9009 382.065 36.3206C381.197 35.7403 380.521 34.9155 380.122 33.9507C379.724 32.986 379.62 31.9246 379.825 30.9011C380.03 29.8775 380.535 28.9379 381.274 28.2011C382.013 27.4643 382.955 26.9635 383.979 26.7621C385.003 26.5608 386.064 26.6679 387.028 27.07C387.991 27.472 388.813 28.1509 389.391 29.0207C389.968 29.8905 390.274 30.9119 390.27 31.9558C390.265 33.3512 389.707 34.6878 388.719 35.6727C387.73 36.6577 386.392 37.2107 384.996 37.2107ZM384.996 28.5723C384.327 28.5723 383.673 28.7707 383.117 29.1425C382.56 29.5143 382.127 30.0427 381.87 30.661C381.614 31.2792 381.547 31.9596 381.678 32.6159C381.808 33.2723 382.131 33.8751 382.604 34.3483C383.077 34.8215 383.68 35.1438 384.336 35.2744C384.993 35.4049 385.673 35.3379 386.291 35.0818C386.91 34.8257 387.438 34.392 387.81 33.8356C388.182 33.2792 388.38 32.625 388.38 31.9558C388.38 31.0584 388.024 30.1978 387.389 29.5633C386.754 28.9287 385.894 28.5723 384.996 28.5723Z" fill="#D4D4D4"/>
<path d="M417.264 126.145C419.655 126.145 421.593 124.207 421.593 121.816C421.593 119.425 419.655 117.487 417.264 117.487C414.874 117.487 412.936 119.425 412.936 121.816C412.936 124.207 414.874 126.145 417.264 126.145Z" fill="white"/>
<path d="M417.265 127.087C416.218 127.087 415.196 126.775 414.327 126.192C413.458 125.609 412.782 124.781 412.385 123.813C411.988 122.845 411.889 121.781 412.098 120.756C412.308 119.731 412.818 118.791 413.563 118.057C414.308 117.322 415.255 116.826 416.283 116.631C417.311 116.436 418.373 116.552 419.336 116.963C420.298 117.373 421.116 118.061 421.687 118.938C422.257 119.815 422.553 120.842 422.538 121.888C422.518 123.274 421.954 124.596 420.967 125.569C419.98 126.542 418.65 127.087 417.265 127.087ZM417.265 118.429C416.599 118.429 415.947 118.626 415.393 118.995C414.838 119.363 414.405 119.887 414.146 120.501C413.888 121.115 413.817 121.791 413.941 122.446C414.066 123.1 414.381 123.703 414.847 124.179C415.312 124.655 415.908 124.983 416.559 125.122C417.211 125.261 417.888 125.205 418.508 124.96C419.127 124.716 419.661 124.294 420.041 123.747C420.422 123.201 420.633 122.554 420.648 121.888C420.658 121.438 420.578 120.99 420.413 120.57C420.247 120.151 419.999 119.769 419.684 119.447C419.369 119.125 418.993 118.869 418.577 118.694C418.162 118.519 417.715 118.429 417.265 118.429Z" fill="#D4D4D4"/>
<path d="M349.196 105.939C351.587 105.939 353.525 104.001 353.525 101.61C353.525 99.2193 351.587 97.2812 349.196 97.2812C346.805 97.2812 344.867 99.2193 344.867 101.61C344.867 104.001 346.805 105.939 349.196 105.939Z" fill="white"/>
<path d="M349.196 106.884C348.153 106.884 347.133 106.574 346.266 105.995C345.398 105.415 344.722 104.592 344.323 103.628C343.924 102.664 343.82 101.604 344.023 100.581C344.227 99.5579 344.729 98.6182 345.467 97.8806C346.204 97.1431 347.144 96.6408 348.167 96.4373C349.19 96.2338 350.25 96.3382 351.214 96.7374C352.178 97.1365 353.001 97.8125 353.581 98.6798C354.16 99.5471 354.47 100.567 354.47 101.61C354.465 103.007 353.907 104.345 352.919 105.333C351.931 106.321 350.593 106.879 349.196 106.884ZM349.196 98.2262C348.526 98.2262 347.872 98.4246 347.316 98.7964C346.759 99.1682 346.326 99.6967 346.07 100.315C345.814 100.933 345.747 101.614 345.877 102.27C346.008 102.926 346.33 103.529 346.803 104.002C347.276 104.475 347.879 104.798 348.536 104.928C349.192 105.059 349.872 104.992 350.491 104.736C351.109 104.48 351.637 104.046 352.009 103.49C352.381 102.933 352.579 102.279 352.579 101.61C352.579 101.165 352.492 100.725 352.322 100.315C352.152 99.9044 351.902 99.5314 351.588 99.2172C351.274 98.903 350.901 98.6538 350.491 98.4838C350.08 98.3137 349.64 98.2262 349.196 98.2262Z" fill="#D4D4D4"/>
<path d="M298.499 35.6207H278.443C278.193 35.6207 277.952 35.5212 277.775 35.3439C277.598 35.1667 277.498 34.9263 277.498 34.6756C277.503 34.4264 277.604 34.1889 277.78 34.0126C277.956 33.8364 278.194 33.7353 278.443 33.7305H298.499C298.749 33.7305 298.99 33.83 299.167 34.0073C299.344 34.1845 299.444 34.4249 299.444 34.6756C299.444 34.9263 299.344 35.1667 299.167 35.3439C298.99 35.5212 298.749 35.6207 298.499 35.6207Z" fill="#282929" fill-opacity="0.2"/>
<path d="M298.499 40.819H278.443C278.194 40.8141 277.956 40.713 277.78 40.5368C277.604 40.3606 277.503 40.123 277.498 39.8738C277.498 39.6232 277.598 39.3828 277.775 39.2055C277.952 39.0283 278.193 38.9287 278.443 38.9287H298.499C298.749 38.9287 298.99 39.0283 299.167 39.2055C299.344 39.3828 299.444 39.6232 299.444 39.8738C299.444 40.1245 299.344 40.3649 299.167 40.5421C298.99 40.7194 298.749 40.819 298.499 40.819Z" fill="#282929" fill-opacity="0.2"/>
<path d="M298.499 45.9928H278.443C278.193 45.9928 277.952 45.8932 277.775 45.716C277.598 45.5387 277.498 45.2983 277.498 45.0477C277.503 44.7985 277.604 44.5609 277.78 44.3847C277.956 44.2085 278.194 44.1074 278.443 44.1025H298.499C298.749 44.1025 298.99 44.2021 299.167 44.3794C299.344 44.5566 299.444 44.797 299.444 45.0477C299.444 45.2983 299.344 45.5387 299.167 45.716C298.99 45.8932 298.749 45.9928 298.499 45.9928Z" fill="#282929" fill-opacity="0.2"/>
<path d="M291.524 51.1949H278.5C278.251 51.1901 278.013 51.089 277.837 50.9128C277.661 50.7366 277.56 50.499 277.555 50.2498C277.555 49.9992 277.654 49.7588 277.831 49.5815C278.009 49.4043 278.249 49.3047 278.5 49.3047H291.524C291.774 49.3047 292.015 49.4043 292.192 49.5815C292.369 49.7588 292.469 49.9992 292.469 50.2498C292.464 50.499 292.363 50.7366 292.187 50.9128C292.01 51.089 291.773 51.1901 291.524 51.1949Z" fill="#282929" fill-opacity="0.2"/>
<path d="M433.936 55.7379H413.881C413.63 55.7379 413.39 55.6383 413.212 55.4611C413.035 55.2838 412.936 55.0434 412.936 54.7928C412.94 54.5436 413.042 54.306 413.218 54.1298C413.394 53.9536 413.632 53.8525 413.881 53.8477H433.936C434.187 53.8477 434.427 53.9472 434.605 54.1245C434.782 54.3017 434.881 54.5421 434.881 54.7928C434.881 55.0434 434.782 55.2838 434.605 55.4611C434.427 55.6383 434.187 55.7379 433.936 55.7379Z" fill="#282929" fill-opacity="0.2"/>
<path d="M433.936 60.858H413.881C413.63 60.858 413.39 60.7585 413.212 60.5812C413.035 60.404 412.936 60.1636 412.936 59.9129C412.936 59.6622 413.035 59.4218 413.212 59.2446C413.39 59.0673 413.63 58.9678 413.881 58.9678H433.936C434.187 58.9678 434.427 59.0673 434.605 59.2446C434.782 59.4218 434.881 59.6622 434.881 59.9129C434.881 60.1636 434.782 60.404 434.605 60.5812C434.427 60.7585 434.187 60.858 433.936 60.858Z" fill="#282929" fill-opacity="0.2"/>
<path d="M427.188 66.0387H413.956C413.705 66.0387 413.465 65.9391 413.288 65.7619C413.11 65.5846 413.011 65.3442 413.011 65.0936C413.016 64.8444 413.117 64.6068 413.293 64.4306C413.469 64.2544 413.707 64.1533 413.956 64.1484H427.188C427.438 64.1484 427.679 64.248 427.856 64.4253C428.033 64.6025 428.133 64.8429 428.133 65.0936C428.133 65.3442 428.033 65.5846 427.856 65.7619C427.679 65.9391 427.438 66.0387 427.188 66.0387Z" fill="#282929" fill-opacity="0.2"/>
<path d="M439.494 138.622H267.802C267.551 138.622 267.311 138.522 267.133 138.345C266.956 138.168 266.856 137.927 266.856 137.677C266.856 137.426 266.956 137.186 267.133 137.008C267.311 136.831 267.551 136.731 267.802 136.731H439.494C439.744 136.731 439.985 136.831 440.162 137.008C440.339 137.186 440.439 137.426 440.439 137.677C440.439 137.927 440.339 138.168 440.162 138.345C439.985 138.522 439.744 138.622 439.494 138.622Z" fill="#282929" fill-opacity="0.2"/>
<path d="M439.494 148.524H267.802C267.551 148.524 267.311 148.424 267.133 148.247C266.956 148.07 266.856 147.83 266.856 147.579C266.856 147.328 266.956 147.088 267.133 146.911C267.311 146.733 267.551 146.634 267.802 146.634H439.494C439.744 146.634 439.985 146.733 440.162 146.911C440.339 147.088 440.439 147.328 440.439 147.579C440.439 147.83 440.339 148.07 440.162 148.247C439.985 148.424 439.744 148.524 439.494 148.524Z" fill="#282929" fill-opacity="0.2"/>
<path d="M411.178 158.447H267.802C267.551 158.447 267.311 158.347 267.133 158.17C266.956 157.993 266.856 157.752 266.856 157.502C266.856 157.251 266.956 157.011 267.133 156.833C267.311 156.656 267.551 156.557 267.802 156.557H411.178C411.428 156.557 411.669 156.656 411.846 156.833C412.023 157.011 412.123 157.251 412.123 157.502C412.123 157.752 412.023 157.993 411.846 158.17C411.669 158.347 411.428 158.447 411.178 158.447Z" fill="#282929" fill-opacity="0.2"/>
<path d="M489.169 254.737C489.169 254.737 373.863 264.831 372.918 293.639C371.973 322.446 458.641 398.075 458.641 398.075L489.169 371.971C489.169 371.971 413.88 307.872 424.9 296.796C435.92 285.719 463.537 295.208 463.537 295.208L489.169 254.737Z" fill="#282929"/>
<path d="M458.641 398.909C458.439 398.909 458.244 398.835 458.093 398.702C457.866 398.512 436.166 379.515 414.844 357.248C386.093 327.212 371.708 305.795 372.086 293.622C373.013 264.399 484.368 254.324 489.112 253.927C489.266 253.908 489.422 253.935 489.561 254.006C489.699 254.077 489.813 254.188 489.887 254.324C489.97 254.454 490.013 254.605 490.013 254.758C490.013 254.912 489.97 255.063 489.887 255.193L464.312 295.664C464.209 295.821 464.056 295.94 463.879 296.002C463.701 296.063 463.507 296.064 463.329 296.004C463.064 296.004 436.147 286.817 425.524 297.403C425.201 297.754 424.956 298.17 424.807 298.623C424.657 299.076 424.605 299.556 424.654 300.03C425.316 316.381 489.037 370.801 489.679 371.35C489.86 371.516 489.968 371.747 489.982 371.992C489.982 372.112 489.955 372.231 489.902 372.339C489.85 372.447 489.774 372.542 489.679 372.616L459.133 398.72C458.994 398.836 458.821 398.903 458.641 398.909ZM487.562 255.723C473.366 257.121 374.563 267.782 373.75 293.679C372.918 320.596 451.25 390.517 458.641 396.981L487.902 371.973C480.341 365.49 423.634 316.362 423.029 300.144C422.969 299.44 423.057 298.731 423.289 298.064C423.52 297.396 423.888 296.785 424.371 296.269C434.9 285.759 458.944 292.866 463.253 294.265L487.562 255.723Z" fill="#282929"/>
<path d="M558.561 267.325C558.561 267.325 551.642 292.9 540.244 295.868C528.846 298.836 494.141 306.945 481.192 312.88C468.244 318.816 438.681 408.924 438.681 408.924H388.06C388.06 408.924 434.012 308.741 445.826 291.728C457.64 274.716 481.192 258.517 481.192 258.517L558.561 267.325Z" fill="#282929"/>
<path d="M438.681 409.74H388.059C387.92 409.742 387.783 409.709 387.66 409.642C387.538 409.576 387.434 409.48 387.36 409.362C387.295 409.24 387.262 409.103 387.262 408.965C387.262 408.827 387.295 408.69 387.36 408.568C389.25 404.466 433.463 308.063 445.202 291.202C456.94 274.341 480.55 257.99 480.72 257.782C480.801 257.724 480.893 257.682 480.99 257.659C481.087 257.637 481.188 257.634 481.287 257.65L558.655 266.515C558.776 266.526 558.894 266.564 558.998 266.626C559.103 266.688 559.193 266.773 559.26 266.874C559.325 266.974 559.369 267.086 559.389 267.203C559.408 267.32 559.403 267.44 559.373 267.555C559.071 268.614 552.19 293.622 540.471 296.665L533.023 298.555C517.788 302.336 492.269 308.725 481.552 313.677C471.571 318.233 449.682 378.173 439.493 409.23C439.427 409.388 439.313 409.523 439.168 409.614C439.022 409.705 438.852 409.749 438.681 409.74ZM389.364 408.077H438.076C440.854 399.684 468.112 317.911 480.833 312.089C491.702 307.137 517.296 300.748 532.588 296.967L540.036 295.077C549.639 292.582 556.122 272.659 557.483 268.065L481.4 259.351C478.83 261.242 457.451 276.364 446.506 292.166C435.562 307.969 394.581 396.754 389.364 408.077Z" fill="#282929"/>
<path d="M553.873 227.142C553.532 229.58 553.306 232.018 553.154 234.438C552.342 248.048 553.74 261.866 551.094 275.23C550.806 277.658 549.806 279.946 548.221 281.808C546.79 283.05 545.087 283.937 543.249 284.397C532.399 287.762 520.736 287.271 509.546 289.274C498.356 291.278 486.58 296.835 482.383 307.383C482.067 307.958 481.888 308.599 481.862 309.255C481.836 309.912 481.962 310.565 482.232 311.163C482.798 311.893 483.578 312.429 484.462 312.695C492.931 315.965 503.592 313.81 512.533 313.772C525.059 313.772 537.572 313.318 550.073 312.411C554.368 312.35 558.615 311.504 562.606 309.916C576.953 303.187 580.714 281.108 582.397 267.31C584.877 246.916 586.002 226.381 585.761 205.838C585.761 199.601 583.588 191.34 577.331 191.283C571.074 191.227 562.719 202.455 559.94 207.483C556.744 213.614 554.688 220.275 553.873 227.142Z" fill="white"/>
<path d="M496.296 315.451C492.156 315.582 488.028 314.941 484.123 313.561C483.037 313.248 482.087 312.583 481.42 311.671C481.07 310.952 480.889 310.164 480.889 309.365C480.889 308.566 481.07 307.777 481.42 307.059C486.731 293.827 502.685 289.555 509.301 288.364C513.724 287.57 518.261 287.173 522.665 286.776C529.502 286.39 536.28 285.294 542.891 283.506C544.587 283.102 546.161 282.298 547.484 281.162C548.925 279.422 549.831 277.301 550.093 275.057C551.496 266.436 552.072 257.701 551.813 248.971C551.813 244.189 551.813 239.255 552.134 234.397C552.285 231.845 552.531 229.35 552.852 227.025C553.683 220.005 555.805 213.2 559.109 206.951C561.491 202.622 569.94 190.26 577.293 190.26C584.06 190.26 586.556 198.634 586.745 205.741C586.976 226.36 585.84 246.971 583.342 267.439C581.452 282.826 577.331 304.072 563.003 310.783C558.911 312.439 554.545 313.317 550.13 313.372C537.655 314.223 525.009 314.695 512.533 314.733C510.114 314.733 507.6 314.922 504.972 315.092C502.345 315.262 499.15 315.451 496.296 315.451ZM554.799 227.271C554.478 229.558 554.251 231.978 554.1 234.492C553.816 239.293 553.797 244.208 553.779 248.952C554.041 257.809 553.452 266.671 552.021 275.416C551.702 278.032 550.61 280.494 548.883 282.485C547.347 283.833 545.514 284.798 543.533 285.302C536.794 287.128 529.882 288.243 522.911 288.629C518.563 289.026 514.045 289.442 509.679 290.217C503.384 291.332 488.187 295.301 483.215 307.739C482.963 308.177 482.811 308.665 482.772 309.169C482.732 309.673 482.807 310.179 482.989 310.65C483.451 311.205 484.07 311.607 484.765 311.803C490.72 314.109 497.865 313.694 504.764 313.183C507.467 313.013 510.019 312.843 512.495 312.824C524.933 312.824 537.541 312.314 549.96 311.463C554.137 311.418 558.27 310.604 562.152 309.062C575.63 302.73 579.599 282.145 581.414 267.193C583.895 246.838 585.02 226.34 584.779 205.835C584.779 200.807 583.059 192.282 577.218 192.226C571.301 192.226 563.4 203 560.697 207.934C557.538 213.959 555.514 220.514 554.724 227.271H554.799Z" fill="#282929"/>
<path d="M518.128 86.2206C518.128 86.2206 503.894 126.918 497.562 135.367L534.478 149.204L541.416 83.5176L518.128 86.2206Z" fill="white"/>
<path d="M534.479 150.246C534.367 150.272 534.251 150.272 534.139 150.246L497.222 136.428C497.086 136.375 496.963 136.291 496.864 136.183C496.765 136.075 496.692 135.947 496.65 135.806C496.608 135.666 496.598 135.518 496.622 135.374C496.646 135.229 496.702 135.092 496.787 134.973C502.987 126.693 517.107 86.4307 517.24 86.0149C517.301 85.8477 517.408 85.7009 517.548 85.5907C517.689 85.4806 517.857 85.4115 518.034 85.3911L541.322 82.7636C541.46 82.7439 541.6 82.7576 541.732 82.8037C541.864 82.8497 541.982 82.9268 542.078 83.0283C542.184 83.1249 542.266 83.2459 542.315 83.3809C542.364 83.5158 542.38 83.6608 542.361 83.8033L535.367 149.357C535.355 149.5 535.309 149.638 535.234 149.759C535.158 149.881 535.055 149.983 534.933 150.057C534.801 150.159 534.644 150.224 534.479 150.246ZM499.018 135.01L533.666 147.978L540.358 84.6917L518.828 87.1301C517.089 92.0259 505.274 125.276 499.018 134.973V135.01Z" fill="#282929"/>
<path d="M402.841 166.14C402.841 166.14 394.562 157.18 394.051 153.967C393.541 150.754 392.861 139.544 390.139 141.51C387.417 143.476 388.059 151.491 388.059 151.491C388.059 151.491 376.718 137.957 373.448 140.849C370.177 143.741 368.741 146.519 368.514 152.512C368.287 158.504 396.754 183.171 396.754 183.171" fill="white"/>
<path d="M396.755 184.119C396.527 184.118 396.306 184.038 396.131 183.893C393.182 181.322 367.323 158.639 367.569 152.477C367.815 146.314 369.176 143.347 372.824 140.152C373.4 139.676 374.14 139.446 374.884 139.509C378.381 139.793 384.128 145.653 387.039 148.961C387.039 146.258 387.53 142.288 389.591 140.814C389.854 140.606 390.168 140.472 390.5 140.425C390.832 140.379 391.171 140.421 391.481 140.549C393.22 141.324 393.938 144.859 394.713 151.569C394.827 152.514 394.921 153.327 395.016 153.894C395.356 156.03 400.441 162.193 403.579 165.576C403.667 165.664 403.737 165.768 403.785 165.884C403.833 165.999 403.858 166.122 403.858 166.247C403.858 166.372 403.833 166.495 403.785 166.611C403.737 166.726 403.667 166.83 403.579 166.918C403.402 167.091 403.164 167.188 402.917 167.188C402.67 167.188 402.432 167.091 402.255 166.918C401.386 165.973 393.749 157.656 393.201 154.253C393.106 153.667 393.012 152.817 392.899 151.834C392.634 149.622 391.859 142.912 390.781 142.383C389.118 143.649 388.891 148.696 389.099 151.588C389.117 151.788 389.069 151.988 388.964 152.158C388.858 152.329 388.7 152.46 388.513 152.533C388.33 152.615 388.124 152.633 387.929 152.585C387.734 152.537 387.561 152.426 387.436 152.269C385.016 149.377 377.984 141.816 374.828 141.57C374.712 141.544 374.592 141.546 374.477 141.576C374.362 141.605 374.255 141.662 374.166 141.74C370.915 144.575 369.762 147.411 369.554 152.722C369.403 156.692 386.566 173.175 397.473 182.626C397.661 182.793 397.775 183.027 397.793 183.278C397.811 183.529 397.73 183.776 397.568 183.968C397.451 184.051 397.318 184.107 397.178 184.133C397.037 184.16 396.893 184.155 396.755 184.119Z" fill="#282929"/>
<path d="M387.284 163.834C387.102 163.836 386.923 163.785 386.768 163.688C386.614 163.591 386.491 163.451 386.415 163.286C385.519 161.319 385.13 159.159 385.282 157.003C385.434 154.848 386.122 152.764 387.284 150.942C387.429 150.737 387.651 150.597 387.899 150.555C388.147 150.512 388.402 150.57 388.607 150.715C388.813 150.861 388.952 151.082 388.995 151.33C389.037 151.578 388.979 151.833 388.834 152.038C387.858 153.589 387.282 155.358 387.16 157.186C387.038 159.014 387.373 160.844 388.135 162.51C388.237 162.739 388.245 162.998 388.156 163.232C388.068 163.466 387.89 163.655 387.662 163.758C387.543 163.808 387.414 163.834 387.284 163.834Z" fill="#282929"/>
<path d="M573.049 254.58C571.839 258.36 568.04 260.818 562.652 262.368C561.821 265.449 561.291 267.169 561.291 267.169L471.712 256.905L489.084 197.437C489.084 197.437 477.345 214.355 462.223 221.916C447.101 229.477 392 178.61 392 178.61L405.572 159.708C421.937 171.253 439.817 180.483 458.707 187.135C484.982 163.016 500.387 146.722 507.854 146.438C528.042 145.682 544.903 144.642 561.235 155.341C569.892 161.012 570.969 157.685 572.992 170.312C573.805 175.567 574.235 180.873 574.277 186.19V186.436C575.771 206.926 577.321 241.14 573.049 254.58Z" fill="url(#paint3_linear_2725_16058)"/>
<path d="M548.976 153.894L558.56 155.482L541.68 176.842C528.977 192.852 513.685 212.095 512.815 212.757C511.946 213.418 509.148 187.465 507.145 167.863C505.992 156.087 505.122 146.635 505.122 146.635L522.134 149.471L525.197 136.107C525.197 136.107 512.872 136.239 512.702 126.939C512.69 122.066 513.114 117.201 513.968 112.403C515.311 104.35 519.11 95.9577 521.529 88.0564C523.801 87.7637 526.106 87.8403 528.353 88.2832C528.353 88.2832 533.306 89.0204 532.285 87.4326C533.022 87.6027 544.988 91.0241 558.522 93.8028C556.008 105.825 554.042 119.472 553.834 120.89L548.976 153.894Z" fill="white"/>
<path d="M530.301 120.188C528.883 120.188 525.859 119.961 524.744 118.146C523.629 116.332 527.73 111.058 531.53 107.183C531.614 107.083 531.718 107.002 531.834 106.945C531.951 106.887 532.079 106.855 532.209 106.849C532.339 106.843 532.469 106.864 532.59 106.91C532.712 106.957 532.823 107.028 532.915 107.12C533.008 107.211 533.081 107.321 533.129 107.442C533.178 107.563 533.201 107.692 533.196 107.822C533.192 107.953 533.161 108.081 533.106 108.198C533.05 108.316 532.97 108.421 532.872 108.506C529.243 112.287 526.199 116.275 526.369 117.22C526.974 118.184 529.677 118.354 530.887 118.279C531.138 118.264 531.384 118.349 531.572 118.515C531.76 118.682 531.874 118.916 531.889 119.167C531.904 119.418 531.819 119.664 531.652 119.852C531.486 120.04 531.251 120.154 531.001 120.169L530.301 120.188Z" fill="#282929"/>
<path d="M512.684 213.686C512.552 213.683 512.423 213.651 512.306 213.591C511.455 213.232 510.642 212.873 506.181 167.922C505.028 156.127 504.159 146.676 504.159 146.676C504.151 146.533 504.174 146.389 504.226 146.256C504.278 146.122 504.358 146.001 504.461 145.901C504.567 145.803 504.693 145.731 504.83 145.688C504.968 145.646 505.113 145.634 505.255 145.655L521.436 148.358L524.063 137.017C519.3 136.733 511.928 134.408 511.795 126.961C511.785 122.03 512.215 117.108 513.081 112.254C514.161 106.817 515.717 101.485 517.731 96.3196C518.714 93.5031 519.753 90.6488 520.585 87.7945C520.632 87.622 520.729 87.4672 520.863 87.3495C520.998 87.2318 521.164 87.1564 521.341 87.1329C523.713 86.8206 526.12 86.8972 528.468 87.3597C529.405 87.5074 530.357 87.5455 531.303 87.4732C531.299 87.2622 531.365 87.0559 531.492 86.8872C531.596 86.7297 531.747 86.6087 531.923 86.5409C532.099 86.4732 532.292 86.4621 532.475 86.5091L533.269 86.736C542.266 89.1933 550.829 91.2726 558.674 92.8793C558.795 92.9041 558.911 92.9526 559.014 93.0221C559.117 93.0916 559.205 93.1806 559.273 93.2842C559.342 93.3878 559.389 93.5038 559.413 93.6257C559.437 93.7476 559.436 93.8729 559.411 93.9945C557.332 103.918 555.631 115.014 554.761 120.742L549.979 153.141L558.636 154.596C558.798 154.624 558.951 154.693 559.079 154.795C559.208 154.898 559.309 155.031 559.373 155.182C559.429 155.337 559.444 155.503 559.418 155.665C559.391 155.827 559.324 155.98 559.222 156.108L542.361 177.468C519.035 206.862 514.007 213.062 513.308 213.534C513.118 213.643 512.902 213.695 512.684 213.686ZM506.162 147.735C506.427 150.646 507.164 158.471 508.053 167.733C511.02 197.751 512.419 207.826 513.062 210.964C517.258 205.992 534.1 184.784 540.849 176.259L556.727 156.165L548.731 154.823C548.486 154.781 548.268 154.645 548.123 154.443C547.978 154.242 547.918 153.991 547.956 153.746L552.871 120.42C553.702 114.75 555.347 104.221 557.351 94.5049C549.79 92.9171 541.624 90.9323 533.042 88.5884L532.947 88.7018C532.021 89.6848 529.167 89.3634 528.127 89.1744C526.174 88.7836 524.176 88.6753 522.192 88.853C521.398 91.4994 520.415 94.2403 519.489 96.8866C517.522 101.958 515.991 107.187 514.914 112.519C514.079 117.262 513.661 122.069 513.667 126.885C513.818 135.108 524.725 135.108 525.216 135.108C525.495 135.141 525.755 135.267 525.953 135.467C526.044 135.576 526.107 135.704 526.14 135.842C526.173 135.979 526.174 136.123 526.142 136.261L523.061 149.625C523.007 149.859 522.865 150.064 522.665 150.197C522.465 150.331 522.221 150.383 521.984 150.343L506.162 147.735Z" fill="#282929"/>
<path d="M526.362 104.674C526.609 103.595 526.348 102.615 525.779 102.484C525.209 102.353 524.546 103.121 524.298 104.2C524.05 105.278 524.311 106.258 524.881 106.389C525.451 106.52 526.114 105.752 526.362 104.674Z" fill="#282929"/>
<path d="M541.23 108.86C541.478 107.782 541.217 106.801 540.647 106.67C540.077 106.539 539.414 107.308 539.166 108.386C538.919 109.465 539.18 110.445 539.749 110.576C540.319 110.707 540.982 109.939 541.23 108.86Z" fill="#282929"/>
<path d="M528.732 99.8145L530.623 96.034L532.022 100.514L543.741 103.992L547.068 99.2096L546.709 105.693L552.871 106.336C552.871 106.336 541.265 135.314 541.7 153.309C541.7 153.309 576.556 162.93 585.591 156.692C585.591 156.692 575.686 121.042 576.14 106.771C576.594 92.4992 575.743 80.307 558.788 73.8045C541.832 67.3021 529.697 69.3057 520.737 77.0747C518.098 79.4769 515.978 82.3924 514.505 85.6427C513.033 88.893 512.24 92.4096 512.174 95.9773C512.174 95.9773 525.198 99.4931 528.732 99.8145Z" fill="white"/>
<path d="M575.157 159.702C561.641 159.702 542.55 154.503 541.472 154.201C541.277 154.145 541.104 154.03 540.979 153.87C540.853 153.71 540.781 153.515 540.773 153.312C540.376 137.17 549.374 112.785 551.566 107.134L546.708 106.642C546.468 106.618 546.245 106.503 546.087 106.32C545.929 106.137 545.847 105.901 545.858 105.659L546.028 102.502L544.686 104.506C544.576 104.677 544.413 104.809 544.222 104.88C544.032 104.952 543.823 104.96 543.627 104.903L531.908 101.425C531.759 101.383 531.624 101.303 531.515 101.194C531.406 101.085 531.326 100.95 531.284 100.801L530.565 98.5139L529.658 100.253C529.567 100.416 529.432 100.55 529.268 100.64C529.104 100.731 528.919 100.773 528.732 100.763C525.14 100.423 512.532 97.0773 512.003 96.9828C511.808 96.9336 511.634 96.8221 511.508 96.6652C511.382 96.5083 511.31 96.3146 511.304 96.1133C511.344 92.3946 512.154 88.7245 513.683 85.3345C515.212 81.9445 517.427 78.9081 520.188 76.4168C529.961 67.8918 543.098 66.7387 559.222 72.9955C576.593 79.7248 577.633 92.3139 577.179 106.85C576.726 120.838 586.498 156.148 586.63 156.507C586.687 156.696 586.682 156.898 586.618 157.084C586.553 157.271 586.432 157.433 586.271 157.547C583.776 159.116 579.807 159.702 575.157 159.702ZM542.663 152.556C547.445 153.823 575.875 161.025 584.513 156.337C583.096 151.176 574.779 120.138 575.213 106.793C575.667 92.5029 574.722 81.048 558.466 74.6589C542.833 68.5912 530.679 69.6119 521.36 77.74C516.416 82.2683 513.461 88.5661 513.137 95.2627C515.727 95.9432 524.668 98.2493 528.259 98.7597L529.923 95.5651C530.009 95.3995 530.143 95.2632 530.306 95.1734C530.47 95.0835 530.657 95.0442 530.843 95.0604C531.029 95.0766 531.206 95.1475 531.352 95.2643C531.497 95.381 531.605 95.5383 531.662 95.7164L532.909 99.7048L543.476 102.843L546.33 98.5706C546.443 98.3946 546.611 98.2609 546.808 98.1906C547.005 98.1203 547.22 98.1174 547.419 98.1822C547.618 98.2471 547.789 98.3761 547.907 98.549C548.025 98.7219 548.082 98.9289 548.069 99.1377L547.767 104.808L553.041 105.357C553.188 105.369 553.33 105.417 553.455 105.496C553.58 105.575 553.684 105.683 553.759 105.81C553.82 105.941 553.851 106.082 553.851 106.226C553.851 106.37 553.82 106.512 553.759 106.642C553.664 106.963 542.531 134.939 542.663 152.575V152.556Z" fill="#282929"/>
<path d="M528.09 126.656C522.589 126.656 518.638 121.911 518.411 121.722C518.331 121.628 518.269 121.518 518.231 121.4C518.193 121.282 518.178 121.158 518.187 121.034C518.197 120.91 518.231 120.79 518.287 120.679C518.344 120.568 518.421 120.47 518.515 120.389C518.61 120.309 518.719 120.247 518.837 120.209C518.955 120.17 519.079 120.156 519.203 120.165C519.327 120.175 519.448 120.209 519.558 120.265C519.669 120.321 519.767 120.399 519.848 120.493C519.848 120.493 523.477 124.765 528.09 124.765H528.203C531.001 124.765 533.622 123.184 536.066 120.021C536.225 119.84 536.446 119.726 536.686 119.703C536.925 119.679 537.165 119.748 537.355 119.895C537.546 120.042 537.673 120.256 537.711 120.494C537.749 120.732 537.695 120.975 537.56 121.174C534.743 124.765 531.605 126.599 528.222 126.656H528.09Z" fill="#282929"/>
<path d="M525.33 136.07C525.33 136.07 535.065 135.824 539.205 133.291C539.205 133.291 533.231 146.012 522.192 150.001L525.33 136.07Z" fill="#282929"/>
<path d="M522.135 150.951C522.02 150.953 521.906 150.933 521.799 150.891C521.691 150.849 521.594 150.786 521.511 150.705C521.388 150.593 521.297 150.449 521.247 150.29C521.197 150.131 521.191 149.961 521.228 149.798L524.422 135.867C524.471 135.665 524.584 135.483 524.744 135.351C524.904 135.218 525.103 135.14 525.311 135.13C525.405 135.13 534.856 134.865 538.732 132.483C538.908 132.379 539.113 132.334 539.317 132.354C539.521 132.375 539.713 132.46 539.866 132.597C540.015 132.732 540.116 132.912 540.153 133.11C540.191 133.308 540.163 133.513 540.074 133.693C539.828 134.222 533.798 146.811 522.456 150.894C522.354 150.933 522.245 150.952 522.135 150.951ZM526.105 136.982L523.458 148.456C530.282 145.299 534.932 138.797 537.068 135.224C533.494 136.269 529.806 136.872 526.086 137.02L526.105 136.982Z" fill="#282929"/>
<path d="M539.147 265.136C523.025 264.873 506.94 263.516 491.002 261.072C490.799 261.044 490.61 260.949 490.466 260.802C490.322 260.654 490.232 260.464 490.208 260.259L488.318 242.529C488.292 242.305 488.346 242.08 488.47 241.893C488.595 241.706 488.782 241.569 488.999 241.508C490.889 240.997 534.554 229.202 541.567 229.656C541.721 229.655 541.874 229.621 542.014 229.555C542.155 229.49 542.279 229.396 542.379 229.278C546.368 225.497 546.368 201.132 546.028 192.096C546.028 191.846 546.127 191.605 546.304 191.428C546.482 191.251 546.722 191.151 546.973 191.151C547.224 191.151 547.464 191.251 547.641 191.428C547.818 191.605 547.918 191.846 547.918 192.096C548.05 195.499 548.995 225.573 543.684 230.696C543.397 230.999 543.046 231.236 542.658 231.39C542.269 231.543 541.851 231.61 541.434 231.584C536.217 231.206 506.124 238.88 490.284 243.171L492.08 259.39C497.902 260.278 538.051 266.1 559.808 261.658C559.929 261.633 560.055 261.632 560.176 261.656C560.298 261.68 560.414 261.727 560.518 261.796C560.622 261.864 560.711 261.952 560.78 262.055C560.85 262.158 560.898 262.274 560.923 262.395C560.95 262.517 560.953 262.643 560.931 262.766C560.908 262.889 560.861 263.006 560.792 263.11C560.723 263.214 560.634 263.303 560.53 263.372C560.426 263.441 560.309 263.488 560.186 263.51C553.242 264.734 546.196 265.278 539.147 265.136Z" fill="#282929"/>
<path d="M541.68 176.839C528.978 192.85 513.686 212.092 512.816 212.754C511.947 213.416 509.149 187.462 507.146 167.86L541.68 176.839Z" fill="#282929"/>
<path d="M512.684 213.661C512.56 213.69 512.43 213.69 512.306 213.661C511.455 213.283 510.643 212.943 506.201 167.993C506.181 167.841 506.201 167.687 506.257 167.545C506.313 167.403 506.404 167.277 506.522 167.18C506.639 167.084 506.777 167.017 506.925 166.984C507.072 166.951 507.226 166.953 507.373 166.991L541.851 176.007C542.003 176.051 542.143 176.13 542.258 176.238C542.373 176.347 542.46 176.482 542.512 176.631C542.561 176.779 542.57 176.936 542.541 177.088C542.511 177.24 542.443 177.382 542.342 177.501C519.035 206.894 513.988 213.075 513.308 213.567C513.113 213.657 512.897 213.69 512.684 213.661ZM508.28 169.146C511.153 198.142 512.514 207.953 513.157 211.034C517.164 206.289 532.815 186.593 540.055 177.463L508.28 169.146Z" fill="#282929"/>
<path d="M488.393 242.694C488.393 242.694 471.721 241.295 464.236 244.792C456.75 248.289 448.962 252.656 450.683 255.472C452.403 258.289 491.89 260.198 491.89 260.198L488.393 242.694Z" fill="white"/>
<path d="M491.892 261.147C479.87 260.561 451.724 258.897 449.928 255.968C449.73 255.646 449.604 255.285 449.558 254.91C449.513 254.534 449.548 254.154 449.663 253.794C450.155 252.187 452.158 249.389 463.859 243.946C471.42 240.392 487.828 241.696 488.432 241.772C488.639 241.782 488.836 241.862 488.991 242C489.146 242.137 489.249 242.324 489.283 242.528L492.78 260.013C492.812 260.15 492.812 260.294 492.78 260.431C492.747 260.569 492.684 260.697 492.595 260.807C492.505 260.916 492.392 261.004 492.264 261.063C492.135 261.122 491.995 261.15 491.854 261.147H491.892ZM480.739 243.378C475.446 243.378 468.622 243.794 464.634 245.647C453.935 250.637 451.78 253.208 451.402 254.342C451.355 254.443 451.331 254.552 451.331 254.663C451.331 254.774 451.355 254.884 451.402 254.985C452.971 256.459 472.365 258.274 490.625 259.2L487.525 243.605C486.429 243.511 483.839 243.378 480.739 243.378Z" fill="#282929"/>
<path d="M610.354 258.46H59.6465V275.151H610.354V258.46Z" fill="white"/>
<path d="M610.354 276.096H59.6463C59.3956 276.096 59.1552 275.996 58.978 275.819C58.8007 275.642 58.7012 275.401 58.7012 275.151V258.46C58.7012 258.209 58.8007 257.969 58.978 257.791C59.1552 257.614 59.3956 257.515 59.6463 257.515H610.354C610.604 257.515 610.845 257.614 611.022 257.791C611.199 257.969 611.299 258.209 611.299 258.46V275.151C611.299 275.401 611.199 275.642 611.022 275.819C610.845 275.996 610.604 276.096 610.354 276.096ZM60.5914 274.206H609.409V259.405H60.5914V274.206Z" fill="#282929"/>
<path d="M217.879 257.761L236.725 194.834H315.794L299.028 257.231L217.879 257.761Z" fill="white"/>
<path d="M217.804 258.71C217.657 258.708 217.513 258.673 217.382 258.608C217.251 258.542 217.137 258.448 217.048 258.331C216.962 258.213 216.905 258.076 216.882 257.931C216.859 257.787 216.87 257.639 216.915 257.5L235.818 194.573C235.875 194.377 235.995 194.204 236.158 194.082C236.322 193.959 236.521 193.893 236.725 193.893H315.814C315.957 193.895 316.098 193.931 316.226 193.997C316.354 194.062 316.465 194.156 316.551 194.271C316.642 194.383 316.705 194.515 316.734 194.656C316.764 194.798 316.759 194.944 316.721 195.083L299.936 257.462C299.885 257.663 299.768 257.842 299.603 257.969C299.438 258.096 299.236 258.163 299.028 258.161L217.898 258.691L217.804 258.71ZM237.349 195.783L219.089 256.819L298.234 256.309L314.49 195.821L237.349 195.783Z" fill="#282929"/>
<path d="M273.725 228.675C278.088 225.138 279.738 219.943 277.411 217.073C275.084 214.202 269.66 214.742 265.297 218.279C260.934 221.815 259.284 227.01 261.611 229.881C263.939 232.751 269.362 232.212 273.725 228.675Z" fill="url(#paint4_linear_2725_16058)"/>
</g>
<defs>
<linearGradient id="paint0_linear_2725_16058" x1="95" y1="76" x2="303" y2="294.5" gradientUnits="userSpaceOnUse">
<stop stop-color="#FFB11B"/>
<stop offset="1" stop-color="#FF441B"/>
</linearGradient>
<linearGradient id="paint1_linear_2725_16058" x1="95" y1="76" x2="303" y2="294.5" gradientUnits="userSpaceOnUse">
<stop stop-color="#FFB11B"/>
<stop offset="1" stop-color="#FF441B"/>
</linearGradient>
<linearGradient id="paint2_linear_2725_16058" x1="95" y1="76" x2="303" y2="294.5" gradientUnits="userSpaceOnUse">
<stop stop-color="#FFB11B"/>
<stop offset="1" stop-color="#FF441B"/>
</linearGradient>
<linearGradient id="paint3_linear_2725_16058" x1="408" y1="77" x2="632" y2="288" gradientUnits="userSpaceOnUse">
<stop stop-color="#FFB11B"/>
<stop offset="1" stop-color="#FF441B"/>
</linearGradient>
<linearGradient id="paint4_linear_2725_16058" x1="248" y1="189.5" x2="282" y2="252.5" gradientUnits="userSpaceOnUse">
<stop stop-color="#FFB11B"/>
<stop offset="1" stop-color="#FF441B"/>
</linearGradient>
<clipPath id="clip0_2725_16058">
<rect width="670" height="267" fill="white"/>
</clipPath>
</defs>
</svg>
