<svg width="48" height="48" viewBox="0 0 48 48" fill="none" xmlns="http://www.w3.org/2000/svg">
<path fill-rule="evenodd" clip-rule="evenodd" d="M22.3984 37.5956C20.8522 37.5956 19.5988 36.3422 19.5988 34.796L19.5988 12.3992C19.5988 10.853 20.8522 9.59961 22.3984 9.59961L37.7962 9.59961C39.3424 9.59961 40.5958 10.853 40.5958 12.3992V34.796C40.5958 36.3422 39.3424 37.5956 37.7962 37.5956H22.3984ZM21.6985 34.796C21.6985 35.1826 22.0118 35.4959 22.3984 35.4959H37.7962C38.1827 35.4959 38.4961 35.1826 38.4961 34.796V12.3992C38.4961 12.0127 38.1827 11.6993 37.7962 11.6993L22.3984 11.6993C22.0118 11.6993 21.6985 12.0127 21.6985 12.3992L21.6985 34.796Z" fill="url(#paint0_linear_2725_17509)"/>
<path fill-rule="evenodd" clip-rule="evenodd" d="M17.0383 12.6296C17.2976 13.1482 17.0874 13.7788 16.5688 14.0381C16.249 14.198 16.1554 14.2855 16.1273 14.3202C16.1209 14.3281 16.119 14.3315 16.1157 14.3417C16.111 14.3564 16.0993 14.4021 16.0993 14.4989V32.6963C16.0993 32.7932 16.111 32.8388 16.1157 32.8536C16.119 32.8638 16.1209 32.8672 16.1273 32.8751C16.1553 32.9097 16.2489 32.9972 16.5688 33.1571C17.0874 33.4164 17.2976 34.047 17.0383 34.5656C16.779 35.0842 16.1484 35.2944 15.6298 35.0351C15.2497 34.8451 14.8184 34.5946 14.4965 34.1977C14.1401 33.7583 13.9996 33.2471 13.9996 32.6963V14.4989C13.9996 13.9481 14.1401 13.437 14.4965 12.9975C14.8184 12.6007 15.2497 12.3501 15.6298 12.1601C16.1484 11.9008 16.779 12.111 17.0383 12.6296Z" fill="url(#paint1_linear_2725_17509)"/>
<path fill-rule="evenodd" clip-rule="evenodd" d="M11.4088 14.6731C11.6992 15.175 11.5277 15.8172 11.0258 16.1076C10.8162 16.2288 10.6667 16.3463 10.578 16.4504C10.5001 16.5418 10.5001 16.5834 10.5001 16.5983V30.5966C10.5001 30.6116 10.5001 30.6535 10.578 30.7448C10.6667 30.8489 10.8162 30.9664 11.0258 31.0877C11.5277 31.378 11.6992 32.0202 11.4088 32.5221C11.1185 33.024 10.4763 33.1955 9.9744 32.9052C9.42167 32.5854 8.40039 31.8661 8.40039 30.5966V16.5986C8.40039 15.3291 9.42167 14.6098 9.9744 14.2901C10.4763 13.9997 11.1185 14.1712 11.4088 14.6731Z" fill="url(#paint2_linear_2725_17509)"/>
<defs>
<linearGradient id="paint0_linear_2725_17509" x1="-6" y1="1.5" x2="49.5" y2="53.5" gradientUnits="userSpaceOnUse">
<stop stop-color="#FFB11B"/>
<stop offset="1" stop-color="#FF441B"/>
</linearGradient>
<linearGradient id="paint1_linear_2725_17509" x1="-6" y1="1.5" x2="49.5" y2="53.5" gradientUnits="userSpaceOnUse">
<stop stop-color="#FFB11B"/>
<stop offset="1" stop-color="#FF441B"/>
</linearGradient>
<linearGradient id="paint2_linear_2725_17509" x1="-6" y1="1.5" x2="49.5" y2="53.5" gradientUnits="userSpaceOnUse">
<stop stop-color="#FFB11B"/>
<stop offset="1" stop-color="#FF441B"/>
</linearGradient>
</defs>
</svg>
