<svg width="40" height="40" viewBox="0 0 40 40" fill="none" xmlns="http://www.w3.org/2000/svg">
<path fill-rule="evenodd" clip-rule="evenodd" d="M5.59127 18.6405C5.63326 18.0437 6.02716 17.5295 6.59241 17.3336L28.6017 9.70611C29.0559 9.54874 29.56 9.66647 29.8974 10.0087C30.2348 10.3509 30.3455 10.8566 30.1817 11.3085L22.2455 33.2084C22.0416 33.7708 21.522 34.1574 20.9247 34.191C20.4119 34.2199 19.9202 33.9833 19.6227 33.5645L14.0149 25.6694L6.19942 19.9511C5.7849 19.6478 5.55523 19.1528 5.59127 18.6405ZM15.6701 25.1828L20.801 32.4063L28.3729 11.5119L7.37407 18.7892L14.5248 24.0212L20.2257 18.3999C20.5464 18.0836 21.0629 18.0872 21.3791 18.408C21.6954 18.7288 21.6918 19.2452 21.371 19.5615L15.6701 25.1828Z" fill="#989898"/>
</svg>
