<svg width="379" height="320" viewBox="0 0 379 320" fill="none" xmlns="http://www.w3.org/2000/svg">
<rect width="379" height="320" fill="#080808"/>
<rect x="0.5" y="0.5" width="378" height="319" stroke="#989898" stroke-opacity="0.4"/>
<circle cx="190" cy="160" r="80" fill="#1B1C21"/>
<path d="M189.995 108.571L189.287 110.915V178.927L189.995 179.615L222.361 160.954L189.995 108.571Z" fill="#343434"/>
<path d="M189.987 108.571L157.619 160.954L189.987 179.615V146.604V108.571Z" fill="#6D7582"/>
<path d="M189.994 185.592L189.596 186.066V210.293L189.994 211.428L222.381 166.94L189.994 185.592Z" fill="#3C3C3B"/>
<path d="M189.987 211.428V185.592L157.619 166.94L189.987 211.428Z" fill="#6D7582"/>
<path d="M189.982 179.614L222.349 160.953L189.982 146.604V179.614Z" fill="#141414"/>
<path d="M157.619 160.953L189.987 179.614V146.604L157.619 160.953Z" fill="#393939"/>
<g clip-path="url(#clip0_2644_15968)">
<ellipse cx="63.9999" cy="63.9999" rx="27.7333" ry="27.7333" fill="#6D7582"/>
<path d="M64 96C46.326 96 32 81.674 32 64C32 46.326 46.326 32 64 32C81.674 32 96 46.326 96 64C96 81.674 81.674 96 64 96ZM56.232 60.808L64 53.04L71.772 60.812L76.292 56.292L64 44L51.712 56.288L56.232 60.808ZM44 64L48.52 68.52L53.04 64L48.52 59.48L44 64ZM56.232 67.192L51.706 71.706L51.712 71.712L64 84L76.292 71.708V71.706L71.772 67.186L64 74.96L56.232 67.192ZM74.96 64L79.48 68.52L84 64L79.48 59.48L74.96 64ZM68.584 63.996H68.586L64 59.412L60.61 62.8L60.22 63.19L59.418 63.994L59.41 64L59.418 64.006L63.998 68.588L68.586 64.002L68.588 64L68.584 63.998V63.996Z" fill="#1B1C21"/>
</g>
<circle cx="315" cy="64" r="32" fill="#1B1C21"/>
<path d="M327.795 59.083H319.917V66.9611H327.795V59.083Z" fill="#6D7582"/>
<path d="M312.039 69.9224C312.039 71.5427 310.698 72.8836 309.078 72.8836C307.457 72.8836 306.116 71.5427 306.116 69.9224C306.116 68.3021 307.457 66.9611 309.078 66.9611H312.039V59.083H309.078C303.099 59.083 298.238 63.944 298.238 69.9224C298.238 75.9008 303.099 80.7617 309.078 80.7617C315.056 80.7617 319.917 75.9008 319.917 69.9224V66.9611H312.039V69.9224Z" fill="#6D7582"/>
<path d="M319.917 59.083H312.039V66.9611H319.917V59.083Z" fill="#535353" fill-opacity="0.3"/>
<path d="M322.878 55.1164H331.762V47.2383H322.878C316.9 47.2383 312.039 52.0992 312.039 58.0777V59.0834H319.917V58.0777C319.917 56.4573 321.258 55.1164 322.878 55.1164Z" fill="#6D7582"/>
<g clip-path="url(#clip1_2644_15968)">
<circle cx="63.9999" cy="256" r="27.7333" fill="#6D7582"/>
<path d="M64 224C81.674 224 96 238.326 96 256C96 273.674 81.674 288 64 288C46.326 288 32 273.674 32 256C32 238.326 46.326 224 64 224ZM81.412 263.034H52.68C52.3694 263.034 52.0711 263.156 51.85 263.374L46.174 269.004C46.0916 269.085 46.0354 269.19 46.0125 269.303C45.9896 269.417 46.0012 269.534 46.0456 269.641C46.0901 269.748 46.1654 269.84 46.2621 269.904C46.3587 269.967 46.4722 270.001 46.588 270H75.32C75.6306 270 75.9289 269.878 76.15 269.66L81.826 264.028C81.9077 263.946 81.9633 263.843 81.9858 263.729C82.0083 263.616 81.9966 263.499 81.9522 263.392C81.9078 263.286 81.8328 263.195 81.7366 263.131C81.6404 263.067 81.5274 263.033 81.412 263.034ZM75.32 252.45H46.588L46.452 252.464C46.3506 252.487 46.2572 252.537 46.1817 252.609C46.1062 252.681 46.0513 252.771 46.0227 252.871C45.9941 252.971 45.9929 253.077 46.0191 253.178C46.0454 253.279 46.0982 253.371 46.172 253.444L51.852 259.076L51.992 259.196C52.192 259.336 52.432 259.416 52.68 259.416H81.412L81.548 259.402C81.6494 259.379 81.7428 259.329 81.8183 259.257C81.8938 259.185 81.9487 259.095 81.9773 258.995C82.0059 258.895 82.0071 258.789 81.9809 258.688C81.9546 258.587 81.9018 258.495 81.828 258.422L76.148 252.79L76.008 252.67C75.8073 252.527 75.5667 252.45 75.32 252.45ZM81.412 242H52.68C52.3694 242 52.0711 242.122 51.85 242.34L46.174 247.972C46.0923 248.054 46.0367 248.157 46.0142 248.271C45.9917 248.384 46.0034 248.501 46.0478 248.608C46.0922 248.714 46.1672 248.805 46.2634 248.869C46.3596 248.933 46.4726 248.967 46.588 248.966H75.32C75.6306 248.966 75.9289 248.844 76.15 248.626L81.826 242.996C81.9084 242.915 81.9646 242.81 81.9875 242.697C82.0104 242.583 81.9988 242.466 81.9544 242.359C81.9099 242.252 81.8346 242.16 81.7379 242.096C81.6413 242.033 81.5278 241.999 81.412 242Z" fill="#1B1C21"/>
</g>
<g filter="url(#filter0_d_2644_15968)">
<path d="M346.042 263.742C341.768 280.885 324.403 291.318 307.256 287.043C290.116 282.769 279.682 265.405 283.959 248.263C288.231 231.118 305.596 220.684 322.738 224.958C339.884 229.232 350.317 246.598 346.042 263.742Z" fill="#1B1C21"/>
<path d="M329.11 251.441C329.748 247.183 326.505 244.894 322.072 243.367L323.51 237.599L319.999 236.724L318.598 242.34C317.675 242.11 316.727 241.893 315.785 241.678L317.195 236.025L313.686 235.15L312.247 240.916C311.483 240.742 310.733 240.57 310.004 240.389L310.008 240.371L305.166 239.162L304.232 242.912C304.232 242.912 306.837 243.509 306.782 243.546C308.204 243.901 308.461 244.842 308.418 245.588L306.78 252.159C306.878 252.184 307.005 252.22 307.145 252.276C307.028 252.247 306.903 252.215 306.774 252.184L304.478 261.389C304.304 261.821 303.863 262.469 302.869 262.223C302.904 262.274 300.316 261.586 300.316 261.586L298.573 265.605L303.143 266.744C303.993 266.957 304.826 267.18 305.646 267.39L304.193 273.224L307.7 274.099L309.139 268.327C310.097 268.587 311.028 268.827 311.938 269.053L310.504 274.798L314.015 275.673L315.468 269.85C321.456 270.983 325.958 270.526 327.853 265.111C329.381 260.751 327.777 258.236 324.627 256.596C326.921 256.067 328.649 254.558 329.11 251.441ZM321.088 262.69C320.003 267.05 312.661 264.693 310.28 264.102L312.209 256.373C314.589 256.967 322.222 258.143 321.088 262.69ZM322.174 251.378C321.184 255.344 315.073 253.329 313.091 252.835L314.839 245.825C316.821 246.319 323.205 247.241 322.174 251.378Z" fill="#6D7582"/>
</g>
<defs>
<filter id="filter0_d_2644_15968" x="280" y="222" width="70" height="70.001" filterUnits="userSpaceOnUse" color-interpolation-filters="sRGB">
<feFlood flood-opacity="0" result="BackgroundImageFix"/>
<feColorMatrix in="SourceAlpha" type="matrix" values="0 0 0 0 0 0 0 0 0 0 0 0 0 0 0 0 0 0 127 0" result="hardAlpha"/>
<feOffset dy="1"/>
<feGaussianBlur stdDeviation="1.5"/>
<feColorMatrix type="matrix" values="0 0 0 0 0.129412 0 0 0 0 0.105882 0 0 0 0 0.305882 0 0 0 0.15 0"/>
<feBlend mode="normal" in2="BackgroundImageFix" result="effect1_dropShadow_2644_15968"/>
<feBlend mode="normal" in="SourceGraphic" in2="effect1_dropShadow_2644_15968" result="shape"/>
</filter>
<clipPath id="clip0_2644_15968">
<rect width="64" height="64" fill="white" transform="translate(32 32)"/>
</clipPath>
<clipPath id="clip1_2644_15968">
<rect x="32" y="224" width="64" height="64" fill="white"/>
</clipPath>
</defs>
</svg>
