<svg width="40" height="40" viewBox="0 0 40 40" fill="none" xmlns="http://www.w3.org/2000/svg">
<path fill-rule="evenodd" clip-rule="evenodd" d="M26.78 10.6541C24.5317 12.2797 21.9902 14.6892 19.8633 16.792C19.8251 16.8298 19.7871 16.8676 19.7494 16.9053L23.0855 20.243C23.1262 20.2032 23.167 20.163 23.208 20.1225C25.33 18.0246 27.7445 15.4901 29.3647 13.2412C30.1802 12.1092 30.748 11.1122 30.9997 10.32C31.2568 9.51068 31.113 9.18386 30.9592 9.03023L30.9583 9.02935C30.8176 8.88845 30.504 8.74303 29.6945 9.00666C28.9057 9.26354 27.9115 9.83604 26.78 10.6541ZM21.7142 21.5044L18.4819 18.2705C17.5463 19.362 16.8772 20.3609 16.4283 21.2223C16.9073 21.4877 17.3577 21.8238 17.7642 22.2305C18.1719 22.6383 18.5085 23.0903 18.7741 23.571C19.6302 23.124 20.613 22.4499 21.7142 21.5044ZM19.4117 25.3352C19.7734 27.2219 19.2243 29.2488 17.7642 30.7095C17.1124 31.3617 16.1481 31.803 15.1847 32.1131C14.1976 32.4309 13.0978 32.6459 12.0742 32.7843C11.0482 32.9231 10.0729 32.9885 9.32442 32.9986C8.95237 33.0036 8.62034 32.9952 8.35858 32.9721C8.2302 32.9608 8.09626 32.9441 7.97384 32.9171C7.91321 32.9037 7.83481 32.8834 7.75225 32.8511C7.68758 32.8259 7.53008 32.7599 7.38503 32.6148L7.38432 32.6141C7.23971 32.4691 7.17393 32.3118 7.14871 32.2471C7.11652 32.1646 7.09625 32.0862 7.08289 32.0255C7.05592 31.9031 7.03919 31.769 7.02786 31.6406C7.00477 31.3787 6.99639 31.0464 7.0014 30.6742C7.01148 29.9254 7.07678 28.9496 7.21549 27.9231C7.35389 26.899 7.56877 25.7988 7.88638 24.8112C8.19635 23.8473 8.63744 22.8827 9.28932 22.2305C10.7505 20.7687 12.7784 20.2195 14.6654 20.5831C15.4091 19.0824 16.6731 17.3283 18.5552 15.4675C20.6816 13.3653 23.3132 10.8634 25.6899 9.14496C26.871 8.29103 28.0522 7.58334 29.1185 7.23609C30.164 6.8956 31.385 6.8221 32.275 7.7134C33.1672 8.60547 33.1091 9.82714 32.7733 10.8841C32.4319 11.9584 31.7277 13.1456 30.8745 14.3299C29.1572 16.7135 26.6474 19.3399 24.5161 21.447C22.6332 23.3086 20.9226 24.5884 19.4117 25.3352ZM16.4483 23.5472C14.8348 21.9329 12.2188 21.9329 10.6053 23.5472C10.2687 23.8839 9.93885 24.5083 9.65803 25.3815C9.38484 26.231 9.18911 27.2158 9.05981 28.1726C8.93083 29.127 8.87136 30.0278 8.86233 30.6993C8.86013 30.8622 8.86097 31.008 8.86416 31.1349C8.99099 31.1381 9.13656 31.139 9.29932 31.1368C9.97041 31.1277 10.8708 31.0682 11.8248 30.9391C12.7812 30.8098 13.7656 30.6139 14.6147 30.3406C15.4875 30.0596 16.1117 29.7295 16.4483 29.3928C18.0617 27.7786 18.0617 25.1614 16.4483 23.5472Z" fill="#989898"/>
</svg>
