<svg width="40" height="40" viewBox="0 0 40 40" fill="none" xmlns="http://www.w3.org/2000/svg">
<path fill-rule="evenodd" clip-rule="evenodd" d="M33.7641 12.8364C33.7641 12.5351 33.6021 12.257 33.3398 12.1086C33.0776 11.9601 32.7558 11.9642 32.4974 12.1192L25.4003 16.3774V13.9516C25.4003 12.8737 24.5266 12 23.4488 12H8.95155C7.87374 12 7 12.8737 7 13.9516V26.2184C7 27.2963 7.87374 28.17 8.95155 28.17H23.4488C24.5266 28.17 25.4003 27.2963 25.4003 26.2184V23.7926L32.4974 28.0508C32.7558 28.2058 33.0776 28.2099 33.3398 28.0614C33.6021 27.913 33.7641 27.6349 33.7641 27.3336V12.8364ZM25.4003 21.8418L32.0914 25.8564V14.3136L25.4003 18.3282V21.8418ZM23.7276 17.8547V13.9516C23.7276 13.7976 23.6028 13.6728 23.4488 13.6728H8.95155C8.79758 13.6728 8.67276 13.7976 8.67276 13.9516V26.2184C8.67276 26.3724 8.79758 26.4972 8.95155 26.4972H23.4488C23.6028 26.4972 23.7276 26.3724 23.7276 26.2184V22.3153V17.8547Z" fill="#989898"/>
</svg>
