<svg width="416" height="353" viewBox="0 0 416 353" fill="none" xmlns="http://www.w3.org/2000/svg">
<path d="M122.576 336.049C122.576 336.049 122.515 289.1 124.468 278.643C126.422 268.186 113.84 171.187 113.823 170.192C113.806 169.196 65.885 200.608 62.3615 208.868C58.838 217.127 76.5854 266.858 74.2107 274.547C71.836 282.237 65.0946 315.555 65.0946 315.555L122.576 336.049Z" fill="white"/>
<path d="M122.673 336.801C122.567 336.809 122.461 336.794 122.36 336.758L64.8492 316.263C64.6756 316.207 64.5275 316.086 64.4346 315.925C64.3417 315.763 64.3108 315.573 64.3483 315.393C64.6232 314.02 71.1476 281.931 73.5011 274.304C74.5605 270.917 71.15 257.696 67.8514 244.916C63.8472 229.323 59.6335 213.206 61.6706 208.558C63.7078 203.909 77.3494 193.654 88.5433 185.734C92.2214 183.139 112.499 169.144 113.942 169.436C114.109 169.476 114.259 169.572 114.369 169.709C114.479 169.845 114.541 170.015 114.546 170.19C114.573 170.414 114.89 173.041 115.324 176.653C118.173 199.707 126.834 269.839 125.157 278.818C123.252 289.074 123.307 335.604 123.246 336.078C123.238 336.26 123.17 336.431 123.052 336.564C122.935 336.697 122.775 336.783 122.601 336.809L122.673 336.801ZM65.9228 315.066L121.863 335.071C121.86 327.97 121.946 288.225 123.748 278.568C124.826 272.778 121.514 238.56 113.893 176.829C113.534 173.843 113.333 172.172 113.223 171.261C106.829 174.691 66.1572 201.832 63.025 209.206C61.2528 213.374 65.5222 229.953 69.2919 244.574C72.9351 258.754 76.0911 271.079 74.9117 274.81C72.7401 281.754 66.9256 310.356 65.9228 315.066Z" fill="#282929"/>
<path d="M126.063 376.941L127.596 315.659L63.6831 291.242L43.907 382.148L126.063 376.941Z" fill="#282929"/>
<path d="M126.154 377.684L44.0183 382.934C43.9028 382.945 43.7857 382.927 43.6768 382.883C43.5679 382.838 43.4705 382.768 43.3928 382.677C43.3171 382.585 43.2625 382.477 43.2331 382.362C43.2036 382.246 43.2001 382.126 43.2227 382.01L62.9639 291.063C62.9904 290.961 63.037 290.866 63.1011 290.784C63.1652 290.701 63.2454 290.634 63.3368 290.584C63.4281 290.535 63.5288 290.506 63.6326 290.498C63.7365 290.49 63.8413 290.504 63.9408 290.539L127.839 314.957C127.989 315.009 128.12 315.11 128.211 315.243C128.302 315.377 128.349 315.536 128.345 315.696L126.855 376.974C126.846 377.162 126.769 377.337 126.64 377.468C126.51 377.599 126.337 377.675 126.154 377.684ZM44.8494 381.329L125.34 376.245L126.843 316.183L64.2365 292.243L44.8494 381.329Z" fill="#282929"/>
<path d="M283.99 34.259L100.509 52.7921C95.3357 53.3147 91.662 58.0318 92.3036 63.3281L122.43 312.02C123.071 317.317 127.785 321.187 132.959 320.664L316.44 302.131C321.613 301.608 325.287 296.891 324.646 291.595L294.519 42.9027C293.878 37.6064 289.164 33.7365 283.99 34.259Z" fill="white"/>
<path d="M316.535 302.902L133.036 321.437C130.36 321.699 127.665 320.866 125.54 319.119C123.415 317.372 122.034 314.854 121.699 312.116L91.5662 63.3763C91.2383 60.6376 91.9836 57.905 93.6388 55.7764C95.2941 53.6478 97.7245 52.2966 100.398 52.0185L283.898 33.4837C286.575 33.2173 289.274 34.0486 291.402 35.7955C293.53 37.5424 294.914 40.0623 295.249 42.8028L325.382 291.543C325.71 294.284 324.963 297.019 323.305 299.149C321.646 301.278 319.212 302.628 316.535 302.902ZM100.584 53.5469C98.2962 53.7819 96.2165 54.9366 94.801 56.7574C93.3855 58.5782 92.7498 60.9163 93.0335 63.2584L123.166 311.999C123.45 314.341 124.629 316.496 126.447 317.99C128.264 319.484 130.569 320.196 132.858 319.969L316.357 301.434C318.646 301.199 320.727 300.044 322.145 298.224C323.563 296.403 324.202 294.065 323.922 291.721L293.789 42.9806C293.502 40.6375 292.318 38.4832 290.499 36.9895C288.68 35.4959 286.372 34.7849 284.083 35.0121L100.584 53.5469Z" fill="#282929"/>
<path d="M285.442 51.6029L108.006 69.5254L136.48 304.582L313.917 286.659L285.442 51.6029Z" fill="white"/>
<path d="M311.517 286.795L134.076 304.718C133.882 304.738 133.686 304.678 133.532 304.551C133.378 304.424 133.278 304.241 133.254 304.043L104.779 68.9826C104.754 68.7839 104.808 68.5856 104.929 68.4312C105.049 68.2768 105.225 68.1791 105.42 68.1595L282.86 50.2367C283.054 50.2171 283.25 50.2772 283.404 50.4039C283.559 50.5305 283.659 50.7133 283.683 50.912L312.158 285.972C312.182 286.171 312.128 286.369 312.008 286.524C311.888 286.678 311.711 286.776 311.517 286.795ZM134.627 303.146L310.604 285.371L282.31 51.8091L106.333 69.584L134.627 303.146Z" fill="#282929"/>
<path d="M239.386 30.4013L213.591 33.0144C212.039 28.0934 208.877 23.8364 204.647 20.9735C200.417 18.1107 195.382 16.8206 190.408 17.3246C185.433 17.8285 180.828 20.0951 177.382 23.7355C173.937 27.3758 171.866 32.163 171.525 37.2757L145.834 39.8783C144.196 40.0443 142.705 40.8709 141.689 42.1769C140.672 43.4829 140.213 45.1616 140.413 46.8448L143.08 68.943C143.287 70.6254 144.135 72.1718 145.438 73.2428C146.741 74.3138 148.393 74.8221 150.031 74.6561L243.583 65.1791C245.22 65.0133 246.709 64.1863 247.723 62.8801C248.737 61.5739 249.193 59.8955 248.99 58.2141L246.321 36.1007C246.115 34.4223 245.268 32.8797 243.968 31.8113C242.668 30.7428 241.02 30.2357 239.386 30.4013ZM192.958 38.0215C191.871 38.1346 190.768 37.914 189.788 37.3876C188.809 36.8611 187.996 36.0526 187.454 35.0642C186.911 34.0759 186.663 32.9522 186.742 31.8354C186.82 30.7187 187.22 29.6591 187.892 28.7907C188.564 27.9224 189.478 27.2844 190.517 26.9575C191.557 26.6306 192.675 26.6295 193.731 26.9543C194.787 27.2791 195.733 27.9153 196.45 28.7822C197.166 29.6492 197.62 30.708 197.755 31.8245C197.931 33.3174 197.526 34.8065 196.627 35.9672C195.729 37.1279 194.41 37.8663 192.958 38.0215Z" fill="url(#paint0_linear_2671_14053)"/>
<path d="M183.171 138.308L140.217 142.644C140.038 142.662 139.858 142.607 139.715 142.49C139.573 142.373 139.481 142.205 139.458 142.022L133.766 95.0566C133.743 94.8735 133.793 94.6907 133.904 94.5485C134.015 94.4062 134.178 94.3162 134.357 94.2981L177.311 89.9618C177.489 89.9477 177.667 90.0046 177.809 90.1206C177.95 90.2365 178.043 90.4026 178.069 90.5842L183.762 137.549C183.78 137.731 183.729 137.912 183.619 138.053C183.509 138.195 183.348 138.286 183.171 138.308ZM140.723 141.18L182.327 136.98L176.803 91.4108L135.199 95.6108L140.723 141.18Z" fill="#282929" fill-opacity="0.2"/>
<path d="M189.024 100.968C188.845 101.382 188.629 101.776 188.377 102.147L163.979 133.453C163.866 133.695 163.694 133.901 163.479 134.054C163.265 134.207 163.014 134.301 162.751 134.328C162.489 134.354 162.222 134.312 161.976 134.206C161.73 134.1 161.512 133.932 161.344 133.719L143.674 118.726C143.445 118.606 143.249 118.428 143.104 118.209C142.96 117.991 142.872 117.74 142.85 117.48C142.827 117.22 142.871 116.96 142.976 116.725C143.081 116.491 143.244 116.289 143.45 116.141L146.942 112.128C147.056 111.924 147.216 111.751 147.409 111.624C147.602 111.497 147.822 111.418 148.053 111.395C148.284 111.372 148.518 111.404 148.736 111.49C148.955 111.576 149.152 111.712 149.312 111.888C152.774 114.803 156.251 117.71 159.741 120.612C159.911 120.824 160.13 120.991 160.377 121.097C160.624 121.203 160.892 121.245 161.156 121.218C161.419 121.192 161.671 121.098 161.887 120.945C162.102 120.792 162.276 120.586 162.391 120.344L181.381 96.1733C181.497 95.9413 181.668 95.7436 181.879 95.5975C182.09 95.4515 182.334 95.3615 182.59 95.3357C182.846 95.3098 183.106 95.3489 183.347 95.4493C183.588 95.5497 183.802 95.7085 183.971 95.9117C185.346 97.054 186.72 98.1812 188.08 99.325C188.392 99.633 188.685 99.96 188.959 100.304L189.024 100.968Z" fill="url(#paint1_linear_2671_14053)"/>
<path d="M267.859 97.6568L205.416 104.436C205.247 104.427 205.086 104.351 204.96 104.222C204.835 104.093 204.755 103.92 204.735 103.735C204.714 103.549 204.754 103.363 204.848 103.21C204.942 103.058 205.083 102.949 205.246 102.904L267.689 96.1251C267.858 96.1342 268.02 96.21 268.145 96.3387C268.27 96.4674 268.35 96.6404 268.371 96.8262C268.391 97.012 268.351 97.1981 268.257 97.3506C268.163 97.5031 268.022 97.6118 267.859 97.6568Z" fill="#282929" fill-opacity="0.2"/>
<path d="M252.871 114.08L207.034 119.029C206.853 119.049 206.671 118.988 206.527 118.861C206.383 118.733 206.289 118.549 206.267 118.35C206.245 118.15 206.295 117.951 206.408 117.796C206.52 117.641 206.685 117.542 206.866 117.523L252.703 112.574C252.884 112.554 253.067 112.615 253.211 112.742C253.355 112.869 253.448 113.053 253.47 113.253C253.493 113.453 253.442 113.652 253.33 113.807C253.217 113.962 253.053 114.06 252.871 114.08Z" fill="#282929" fill-opacity="0.2"/>
<path d="M190.208 201.764L147.254 206.101C147.165 206.112 147.074 206.104 146.987 206.079C146.901 206.053 146.819 206.01 146.748 205.952C146.677 205.893 146.619 205.822 146.575 205.74C146.532 205.659 146.504 205.57 146.495 205.478L140.804 158.528C140.782 158.345 140.832 158.162 140.943 158.02C141.054 157.878 141.216 157.788 141.395 157.77L184.349 153.433C184.528 153.419 184.706 153.476 184.847 153.592C184.989 153.708 185.082 153.874 185.108 154.056L190.799 201.006C190.821 201.189 190.771 201.372 190.661 201.514C190.55 201.656 190.387 201.746 190.208 201.764ZM147.761 204.652L189.366 200.452L183.842 154.883L142.238 159.083L147.761 204.652Z" fill="#282929" fill-opacity="0.2"/>
<path d="M196.062 164.445C195.883 164.858 195.666 165.253 195.415 165.624L171.013 196.9C170.9 197.141 170.728 197.348 170.513 197.501C170.298 197.654 170.048 197.748 169.785 197.774C169.522 197.801 169.256 197.759 169.01 197.653C168.764 197.546 168.546 197.379 168.378 197.166L150.708 182.173C150.479 182.052 150.282 181.874 150.138 181.656C149.994 181.438 149.906 181.186 149.883 180.926C149.861 180.666 149.904 180.407 150.009 180.172C150.115 179.937 150.278 179.736 150.484 179.587L153.976 175.574C154.09 175.37 154.25 175.198 154.443 175.071C154.636 174.943 154.856 174.865 155.087 174.842C155.317 174.818 155.552 174.851 155.77 174.936C155.989 175.022 156.186 175.159 156.346 175.335C159.808 178.249 163.285 181.157 166.775 184.058C166.945 184.271 167.164 184.438 167.411 184.544C167.658 184.65 167.926 184.691 168.19 184.665C168.453 184.638 168.705 184.544 168.92 184.391C169.136 184.239 169.31 184.032 169.425 183.791L188.418 159.65C188.535 159.418 188.706 159.22 188.917 159.074C189.128 158.928 189.372 158.838 189.628 158.812C189.884 158.786 190.144 158.825 190.385 158.926C190.626 159.026 190.84 159.185 191.009 159.388C192.382 160.515 193.756 161.643 195.118 162.802C195.43 163.11 195.723 163.437 195.996 163.781L196.062 164.445Z" fill="url(#paint2_linear_2671_14053)"/>
<path d="M274.897 161.125L212.454 167.903C212.285 167.894 212.123 167.819 211.998 167.69C211.873 167.561 211.793 167.388 211.772 167.202C211.752 167.017 211.792 166.83 211.886 166.678C211.98 166.525 212.121 166.417 212.284 166.372L274.727 159.593C274.896 159.602 275.057 159.678 275.182 159.806C275.308 159.935 275.388 160.108 275.408 160.294C275.429 160.48 275.389 160.666 275.295 160.818C275.201 160.971 275.06 161.08 274.897 161.125Z" fill="#282929" fill-opacity="0.2"/>
<path d="M259.91 177.555L214.073 182.505C213.892 182.524 213.709 182.464 213.565 182.336C213.421 182.209 213.328 182.025 213.305 181.825C213.283 181.626 213.334 181.426 213.446 181.271C213.558 181.116 213.723 181.018 213.904 180.999L259.741 176.049C259.922 176.03 260.105 176.09 260.249 176.218C260.393 176.345 260.486 176.529 260.509 176.729C260.531 176.928 260.48 177.128 260.368 177.283C260.256 177.438 260.091 177.536 259.91 177.555Z" fill="#282929" fill-opacity="0.2"/>
<path d="M197.216 264.966L154.262 269.303C154.083 269.321 153.903 269.265 153.76 269.149C153.618 269.032 153.526 268.863 153.503 268.68L147.814 221.745C147.792 221.562 147.842 221.379 147.953 221.237C148.063 221.095 148.226 221.005 148.405 220.987L191.359 216.65C191.538 216.636 191.716 216.693 191.857 216.809C191.999 216.925 192.092 217.091 192.118 217.273L197.811 264.238C197.821 264.416 197.766 264.589 197.656 264.724C197.546 264.859 197.389 264.946 197.216 264.966ZM154.769 267.854L196.374 263.654L190.848 218.069L149.244 222.269L154.769 267.854Z" fill="#282929" fill-opacity="0.2"/>
<path d="M203.069 227.622C202.89 228.035 202.674 228.43 202.422 228.801L178.02 260.077C177.182 261.153 176.448 261.243 175.385 260.343C169.486 255.357 163.596 250.359 157.715 245.35C157.485 245.23 157.289 245.051 157.145 244.833C157 244.615 156.913 244.363 156.89 244.103C156.868 243.843 156.911 243.584 157.016 243.349C157.122 243.115 157.285 242.913 157.491 242.764L160.983 238.751C161.097 238.547 161.257 238.375 161.449 238.248C161.642 238.12 161.863 238.042 162.094 238.019C162.324 237.995 162.558 238.028 162.777 238.114C162.996 238.199 163.193 238.336 163.353 238.512L173.784 247.251C173.954 247.463 174.173 247.63 174.42 247.736C174.667 247.842 174.935 247.884 175.198 247.857C175.462 247.83 175.713 247.736 175.929 247.584C176.145 247.431 176.318 247.224 176.434 246.983L195.429 222.857C195.545 222.625 195.717 222.427 195.928 222.281C196.139 222.135 196.383 222.045 196.639 222.019C196.895 221.993 197.155 222.032 197.396 222.133C197.636 222.233 197.851 222.392 198.02 222.595C199.395 223.738 200.768 224.865 202.129 226.009C202.441 226.317 202.734 226.644 203.007 226.988L203.069 227.622Z" fill="url(#paint3_linear_2671_14053)"/>
<path d="M281.904 224.308L219.46 231.089C219.28 231.104 219.099 231.042 218.956 230.914C218.813 230.787 218.719 230.605 218.693 230.405C218.671 230.204 218.721 230.004 218.833 229.848C218.946 229.692 219.111 229.593 219.292 229.573L281.735 222.793C281.916 222.773 282.099 222.834 282.243 222.962C282.387 223.091 282.48 223.275 282.503 223.476C282.521 223.676 282.469 223.875 282.357 224.03C282.246 224.185 282.083 224.285 281.904 224.308Z" fill="#282929" fill-opacity="0.2"/>
<path d="M266.917 240.741L221.08 245.69C220.899 245.71 220.716 245.649 220.572 245.522C220.428 245.394 220.335 245.211 220.312 245.011C220.294 244.812 220.346 244.615 220.458 244.461C220.569 244.307 220.732 244.208 220.911 244.184L266.748 239.235C266.929 239.22 267.109 239.282 267.252 239.408C267.395 239.535 267.49 239.716 267.516 239.914C267.538 240.114 267.487 240.313 267.375 240.468C267.263 240.623 267.098 240.721 266.917 240.741Z" fill="#282929" fill-opacity="0.2"/>
<path d="M80.9387 220.122C90.2541 207.06 101.87 195.781 114.215 185.64C117.266 183.12 120.58 180.573 124.509 180.055C128.438 179.536 133.08 181.976 133.685 186.005C134.157 189.169 132.139 192.039 130.278 194.5L105.181 226.928C109.467 233.315 111.854 240.8 112.047 248.456C112.241 256.112 110.231 263.601 106.268 269.994" fill="white"/>
<path d="M106.356 270.744C106.186 270.766 106.013 270.724 105.869 270.627C105.706 270.511 105.592 270.336 105.551 270.139C105.511 269.942 105.547 269.739 105.652 269.573C109.515 263.295 111.471 255.956 111.28 248.455C111.089 240.955 108.76 233.619 104.579 227.349C104.488 227.215 104.441 227.055 104.446 226.893C104.45 226.732 104.505 226.577 104.603 226.453L129.656 194.103C131.56 191.638 133.4 188.998 132.972 186.193C132.425 182.536 128.108 180.457 124.636 180.975C121.165 181.493 117.834 183.784 114.702 186.373C100.351 198.157 89.8125 209.07 81.5522 220.723C81.4383 220.883 81.2655 220.989 81.0721 221.017C80.8786 221.045 80.6802 220.993 80.5205 220.873C80.3608 220.752 80.2529 220.573 80.2206 220.374C80.1882 220.176 80.2341 219.974 80.348 219.814C88.6851 208.063 99.3019 197.066 113.759 185.18C117.068 182.467 120.374 179.967 124.435 179.556C128.496 179.146 133.766 181.643 134.441 186.12C134.957 189.522 132.947 192.468 130.836 195.181L106.095 226.923C110.369 233.401 112.724 240.968 112.87 248.691C113.017 256.414 110.948 263.955 106.919 270.384C106.859 270.484 106.777 270.569 106.68 270.631C106.582 270.694 106.471 270.732 106.356 270.744Z" fill="#282929"/>
<path d="M344.882 281.087L312.571 310.664L236.113 233.48C235.67 228.972 230.246 209.534 237.188 212.126C244.129 214.718 271.998 240.737 276.138 241.26C280.279 241.782 289.043 236.163 286.519 227.085C283.996 218.007 280.417 202.662 271.521 202.908C258.03 203.284 246.695 213.625 241.151 212.045C235.607 210.465 230.372 203.725 238.357 197.547C247.502 190.553 268.283 184.509 285.547 184.678C302.811 184.846 319.981 218.622 324.295 244.196C330.757 260.085 341.218 274.097 344.882 281.087Z" fill="white"/>
<path d="M312.662 311.408C312.552 311.42 312.44 311.406 312.335 311.366C312.229 311.327 312.134 311.264 312.056 311.181L235.612 234.009C235.48 233.883 235.396 233.714 235.376 233.532C235.267 232.633 234.989 231.067 234.637 229.267C233.085 221.229 231.894 213.852 234.361 211.691C234.785 211.359 235.294 211.154 235.831 211.1C236.368 211.046 236.914 211.144 237.407 211.383C241.099 212.725 250.096 220.163 258.811 227.357C266.127 233.401 274.414 240.243 276.208 240.487C278.002 240.731 281.54 239.342 283.846 236.59C284.923 235.355 285.669 233.854 286.014 232.227C286.358 230.6 286.291 228.899 285.817 227.285L285.317 225.484C282.922 216.727 279.3 203.48 271.57 203.684C264.344 203.883 257.64 207.049 252.27 209.594C247.515 211.835 243.771 213.609 240.98 212.844C239.272 212.426 237.694 211.55 236.411 210.307C235.128 209.064 234.188 207.501 233.689 205.78C233.235 203.625 233.593 200.341 237.904 197.008C247.393 189.661 268.779 183.828 285.538 183.987C303.725 184.184 320.764 219.082 325.023 244.071C329.432 254.886 335.75 264.931 340.375 272.265C342.521 275.66 344.375 278.598 345.537 280.849C345.613 280.996 345.639 281.163 345.613 281.324C345.587 281.486 345.51 281.633 345.393 281.743L313.083 311.335C312.954 311.402 312.807 311.427 312.662 311.408ZM236.827 233.143L312.564 309.627L343.942 280.903C342.798 278.803 341.074 276.079 339.111 272.969C334.448 265.564 328.088 255.416 323.602 244.457C323.588 244.403 323.582 244.348 323.582 244.292C319.547 220.419 302.739 185.589 285.577 185.41C269.069 185.241 248.097 190.94 238.824 198.114C235.884 200.398 234.616 202.909 235.141 205.405C235.576 206.853 236.381 208.163 237.472 209.201C238.562 210.239 239.899 210.965 241.342 211.305C243.595 211.912 247.313 210.171 251.618 208.127C257.131 205.537 263.963 202.328 271.495 202.083C280.364 201.856 284.217 215.792 286.744 225.021L287.244 226.822C287.787 228.683 287.865 230.642 287.47 232.517C287.076 234.393 286.221 236.124 284.986 237.552C282.603 240.403 278.769 242.292 276.073 241.942C273.949 241.671 267.788 236.709 257.911 228.495C249.679 221.738 240.397 214.026 236.967 212.763C235.881 212.372 235.48 212.731 235.346 212.851C233.302 214.575 235.124 223.982 236.102 228.997C236.419 230.756 236.694 232.17 236.827 233.143Z" fill="#282929"/>
<path d="M211.356 221.201L214.368 233.391L201.352 232.245L194.413 231.631L200.302 228.008L211.356 221.201Z" fill="white"/>
<path d="M214.456 234.139L214.324 234.153L194.375 232.394C194.218 232.381 194.068 232.317 193.948 232.21C193.827 232.104 193.743 231.962 193.707 231.804C193.666 231.648 193.675 231.483 193.732 231.335C193.789 231.186 193.892 231.061 194.025 230.978L210.95 220.571C211.048 220.505 211.16 220.464 211.278 220.452C211.396 220.441 211.516 220.458 211.627 220.503C211.735 220.553 211.831 220.627 211.907 220.72C211.983 220.813 212.037 220.922 212.065 221.039L215.032 233.225C215.053 233.33 215.053 233.438 215.032 233.541C215.011 233.645 214.97 233.743 214.91 233.829C214.851 233.915 214.775 233.987 214.687 234.041C214.599 234.096 214.5 234.131 214.398 234.145L214.456 234.139ZM196.78 231.066L213.368 232.538L210.856 222.384L196.78 231.066Z" fill="#282929"/>
<path d="M307.068 211.238L214.643 233.151C213.431 231.331 212.522 229.318 211.955 227.198C211.484 225.062 211.369 222.867 211.616 220.709L304.026 198.797L307.068 211.238Z" fill="url(#paint4_linear_2671_14053)"/>
<path d="M214.763 233.957C214.634 233.97 214.503 233.947 214.383 233.891C214.263 233.835 214.159 233.748 214.081 233.638C212.805 231.749 211.855 229.651 211.273 227.44C210.777 225.216 210.651 222.931 210.901 220.682C210.918 220.529 210.981 220.387 211.08 220.274C211.179 220.161 211.31 220.083 211.455 220.05L303.857 198.085C304.05 198.047 304.251 198.087 304.42 198.197C304.589 198.306 304.713 198.478 304.766 198.676L307.745 211.077C307.773 211.176 307.781 211.279 307.767 211.379C307.753 211.48 307.718 211.576 307.665 211.661C307.615 211.745 307.549 211.817 307.47 211.873C307.392 211.929 307.303 211.968 307.209 211.987L214.822 233.951L214.763 233.957ZM212.34 221.437C212.175 223.328 212.303 225.241 212.717 227.106C213.206 228.951 213.977 230.71 215.002 232.315L306.165 210.648L303.503 199.769L212.34 221.437Z" fill="#282929"/>
<path d="M322.115 207.365L307.382 210.805L304.358 198.677L319.09 195.237C319.962 195.033 320.886 195.192 321.66 195.678C322.433 196.164 322.993 196.938 323.215 197.829L324.563 203.238C324.786 204.129 324.653 205.064 324.193 205.838C323.734 206.612 322.986 207.162 322.115 207.365Z" fill="white"/>
<path d="M307.466 211.562C307.286 211.578 307.104 211.528 306.954 211.42C306.804 211.312 306.696 211.153 306.65 210.973L303.686 198.809C303.661 198.712 303.656 198.612 303.67 198.513C303.683 198.415 303.716 198.321 303.765 198.237C303.869 198.071 304.029 197.951 304.217 197.901L318.911 194.465C319.971 194.219 321.094 194.415 322.035 195.009C322.975 195.603 323.656 196.547 323.929 197.634L325.271 203.052C325.538 204.141 325.375 205.283 324.816 206.228C324.258 207.173 323.35 207.845 322.291 208.097L307.597 211.534L307.466 211.562ZM305.255 199.215L307.905 209.901L321.889 206.627C322.566 206.46 323.145 206.026 323.5 205.42C323.856 204.813 323.961 204.082 323.791 203.384L322.45 197.967C322.363 197.62 322.212 197.293 322.003 197.004C321.794 196.715 321.532 196.469 321.232 196.281C320.932 196.093 320.601 195.966 320.256 195.908C319.911 195.85 319.561 195.862 319.224 195.943L305.255 199.215Z" fill="#282929"/>
<path d="M309.164 197.655L307.522 198.044L310.464 210.022L312.105 209.633L309.164 197.655Z" fill="#282929"/>
<path d="M312.54 196.846L310.898 197.234L313.84 209.212L315.482 208.824L312.54 196.846Z" fill="#282929"/>
<path d="M200.235 228.048L201.285 232.285L194.346 231.671L200.235 228.048Z" fill="url(#paint5_linear_2671_14053)"/>
<path d="M201.417 233.029L201.27 233.044L194.352 232.43C194.195 232.417 194.045 232.353 193.925 232.247C193.805 232.14 193.72 231.998 193.684 231.841C193.644 231.685 193.652 231.52 193.71 231.372C193.767 231.223 193.869 231.098 194.002 231.015L199.867 227.369C199.965 227.303 200.078 227.262 200.196 227.25C200.314 227.238 200.433 227.255 200.545 227.3C200.652 227.35 200.748 227.424 200.824 227.517C200.9 227.61 200.954 227.719 200.982 227.836L202.029 232.051C202.057 232.156 202.062 232.265 202.046 232.371C202.029 232.477 201.99 232.578 201.931 232.666C201.873 232.754 201.796 232.828 201.706 232.883C201.617 232.938 201.517 232.972 201.412 232.984L201.417 233.029ZM196.712 231.108L200.314 231.431L199.779 229.225L196.712 231.108Z" fill="#282929"/>
<path d="M239.665 238.191C239.665 238.191 229.043 227.429 225.828 223.383C220.564 216.786 230.646 209.463 234.871 212.022C237.903 213.833 253.796 225.342 257.015 227.834" fill="white"/>
<path d="M239.757 238.946C239.646 238.958 239.534 238.943 239.428 238.904C239.323 238.864 239.227 238.801 239.148 238.718C238.724 238.289 228.474 227.887 225.26 223.84C224.161 222.491 223.588 220.783 223.654 219.054C223.72 217.324 224.42 215.699 225.616 214.499C228.021 211.622 232.474 209.68 235.357 211.369C238.241 213.057 254.311 224.684 257.567 227.234C257.645 227.295 257.712 227.371 257.763 227.457C257.813 227.544 257.847 227.64 257.862 227.738C257.876 227.837 257.872 227.938 257.849 228.034C257.825 228.13 257.783 228.22 257.726 228.299C257.668 228.378 257.595 228.444 257.511 228.493C257.428 228.543 257.335 228.575 257.238 228.587C257.142 228.6 257.043 228.593 256.948 228.567C256.853 228.541 256.764 228.496 256.685 228.435C253.402 225.903 237.606 214.446 234.623 212.676C232.698 211.53 228.946 212.869 226.749 215.497C225.809 216.454 225.259 217.742 225.205 219.112C225.151 220.481 225.597 221.835 226.457 222.912C229.618 226.888 240.138 237.552 240.241 237.664C240.312 237.733 240.37 237.815 240.41 237.907C240.45 237.998 240.472 238.096 240.474 238.196C240.476 238.295 240.459 238.393 240.423 238.484C240.388 238.576 240.334 238.658 240.266 238.727C240.201 238.797 240.122 238.853 240.034 238.89C239.947 238.928 239.852 238.947 239.757 238.946Z" fill="#282929"/>
<path d="M334.824 252.176L289.37 296.211L336.6 392.156L409.302 344.126L334.824 252.176Z" fill="#282929"/>
<path d="M337.92 394.465C337.771 394.481 337.62 394.45 337.487 394.377C337.354 394.304 337.244 394.191 337.173 394.055L288.711 296.549C288.636 296.405 288.608 296.242 288.632 296.083C288.655 295.925 288.729 295.78 288.842 295.67L334.289 251.624C334.362 251.553 334.449 251.499 334.545 251.465C334.64 251.432 334.742 251.421 334.844 251.431C334.945 251.439 335.043 251.468 335.134 251.516C335.224 251.565 335.303 251.631 335.367 251.712L409.822 343.656C409.909 343.757 409.969 343.88 409.994 344.012C410.019 344.143 410.009 344.278 409.965 344.402C409.92 344.527 409.844 344.636 409.743 344.718C409.642 344.8 409.52 344.851 409.391 344.868L337.98 394.474L337.92 394.465ZM290.279 296.39L338.235 392.9L407.885 343.578L334.765 253.352L290.279 296.39Z" fill="#282929"/>
<defs>
<linearGradient id="paint0_linear_2671_14053" x1="118.264" y1="-3.05159" x2="258.143" y2="89.0908" gradientUnits="userSpaceOnUse">
<stop stop-color="#FFB11B"/>
<stop offset="1" stop-color="#FF441B"/>
</linearGradient>
<linearGradient id="paint1_linear_2671_14053" x1="116.599" y1="95.1961" x2="204.301" y2="140.712" gradientUnits="userSpaceOnUse">
<stop stop-color="#FFB11B"/>
<stop offset="1" stop-color="#FF441B"/>
</linearGradient>
<linearGradient id="paint2_linear_2671_14053" x1="123.637" y1="158.678" x2="211.299" y2="204.217" gradientUnits="userSpaceOnUse">
<stop stop-color="#FFB11B"/>
<stop offset="1" stop-color="#FF441B"/>
</linearGradient>
<linearGradient id="paint3_linear_2671_14053" x1="130.648" y1="221.891" x2="218.269" y2="267.453" gradientUnits="userSpaceOnUse">
<stop stop-color="#FFB11B"/>
<stop offset="1" stop-color="#FF441B"/>
</linearGradient>
<linearGradient id="paint4_linear_2671_14053" x1="219.497" y1="201.67" x2="308.04" y2="244.353" gradientUnits="userSpaceOnUse">
<stop stop-color="#FFB11B"/>
<stop offset="1" stop-color="#FF441B"/>
</linearGradient>
<linearGradient id="paint5_linear_2671_14053" x1="194.611" y1="227.621" x2="202.47" y2="228.682" gradientUnits="userSpaceOnUse">
<stop stop-color="#FFB11B"/>
<stop offset="1" stop-color="#FF441B"/>
</linearGradient>
</defs>
</svg>
