<svg width="40" height="40" viewBox="0 0 40 40" fill="none" xmlns="http://www.w3.org/2000/svg">
<path fill-rule="evenodd" clip-rule="evenodd" d="M8.96239 8C7.87859 8 7 8.87859 7 9.96239V20.6153C7 21.6991 7.87859 22.5777 8.96239 22.5777H10.3641V24.3079C10.3641 25.2103 11.0956 25.9418 11.998 25.9418C12.4314 25.9418 12.847 25.7697 13.1534 25.4632L16.0389 22.5777H22.9794C24.0632 22.5777 24.9418 21.6991 24.9418 20.6153V9.96239C24.9418 8.87859 24.0632 8 22.9794 8H8.96239ZM8.68205 9.96239C8.68205 9.80756 8.80756 9.68205 8.96239 9.68205H22.9794C23.1343 9.68205 23.2598 9.80756 23.2598 9.96239V20.6153C23.2598 20.7702 23.1343 20.8957 22.9794 20.8957H15.6906C15.4675 20.8957 15.2536 20.9843 15.0959 21.142L12.0461 24.1918V21.7367C12.0461 21.2722 11.6696 20.8957 11.2051 20.8957H8.96239C8.80756 20.8957 8.68205 20.7702 8.68205 20.6153V9.96239Z" fill="#989898"/>
<path d="M32.2307 16.6906C32.2307 16.5357 32.1052 16.4102 31.9503 16.4102H28.0256C27.5611 16.4102 27.1845 16.0337 27.1845 15.5692C27.1845 15.1047 27.5611 14.7282 28.0256 14.7282H31.9503C33.0341 14.7282 33.9127 15.6068 33.9127 16.6906V27.3435C33.9127 28.4273 33.0341 29.3059 31.9503 29.3059H30.5486V31.0361C30.5486 31.9385 29.8171 32.67 28.9147 32.67C28.4813 32.67 28.0657 32.4979 27.7593 32.1914L24.8738 29.3059H19.0547C17.9709 29.3059 17.0923 28.4273 17.0923 27.3435V25.7013C17.0923 25.2368 17.4688 24.8603 17.9333 24.8603C18.3978 24.8603 18.7743 25.2368 18.7743 25.7013V27.3435C18.7743 27.4984 18.8998 27.6239 19.0547 27.6239H25.2222C25.4452 27.6239 25.6591 27.7125 25.8169 27.8702L28.8666 30.9199V28.4649C28.8666 28.0004 29.2431 27.6239 29.7076 27.6239H31.9503C32.1052 27.6239 32.2307 27.4984 32.2307 27.3435V16.6906Z" fill="#989898"/>
</svg>
