<svg width="46" height="46" viewBox="0 0 46 46" fill="none" xmlns="http://www.w3.org/2000/svg">
<path fill-rule="evenodd" clip-rule="evenodd" d="M28.1774 22.8101C28.1774 25.7744 25.7744 28.1774 22.8101 28.1774C19.8457 28.1774 17.4427 25.7744 17.4427 22.8101C17.4427 19.8457 19.8457 17.4427 22.8101 17.4427C25.7744 17.4427 28.1774 19.8457 28.1774 22.8101ZM26.1647 22.8101C26.1647 24.6628 24.6628 26.1647 22.8101 26.1647C20.9574 26.1647 19.4555 24.6628 19.4555 22.8101C19.4555 20.9574 20.9574 19.4555 22.8101 19.4555C24.6628 19.4555 26.1647 20.9574 26.1647 22.8101Z" fill="#989898"/>
<path fill-rule="evenodd" clip-rule="evenodd" d="M22.8101 8.0498C22.4507 8.0498 22.0941 8.06267 21.7408 8.08798C20.7163 8.1614 19.9354 8.91492 19.7115 9.83684L19.2392 11.7824C19.2137 11.8874 19.119 12.0134 18.9381 12.0787C18.6045 12.1991 18.2782 12.3346 17.96 12.4843C17.7862 12.566 17.6302 12.5439 17.5379 12.4877L15.828 11.4459C15.0182 10.9525 13.9338 10.9715 13.1574 11.6432C12.6169 12.1108 12.1108 12.6169 11.6432 13.1574C10.9715 13.9338 10.9525 15.0182 11.4459 15.828L12.4877 17.5379C12.5439 17.6302 12.566 17.7862 12.4843 17.96C12.3346 18.2782 12.1991 18.6045 12.0787 18.9381C12.0134 19.119 11.8874 19.2137 11.7824 19.2392L9.83684 19.7115C8.91492 19.9354 8.1614 20.7163 8.08798 21.7408C8.06267 22.0941 8.0498 22.4507 8.0498 22.8101C8.0498 23.1694 8.06267 23.526 8.08798 23.8793C8.1614 24.9038 8.91492 25.6847 9.83684 25.9086L11.7824 26.381C11.8874 26.4064 12.0134 26.5011 12.0787 26.682C12.1991 27.0156 12.3346 27.3419 12.4843 27.6601C12.566 27.8339 12.5439 27.9899 12.4877 28.0822L11.4459 29.7921C10.9525 30.6019 10.9715 31.6863 11.6432 32.4627C12.1108 33.0032 12.6169 33.5093 13.1574 33.9769C13.9338 34.6486 15.0182 34.6676 15.828 34.1742L17.5379 33.1324C17.6302 33.0762 17.7862 33.0541 17.96 33.1359C18.2782 33.2856 18.6045 33.421 18.9381 33.5414C19.119 33.6067 19.2137 33.7327 19.2392 33.8377L19.7115 35.7833C19.9354 36.7052 20.7163 37.4587 21.7408 37.5321C22.0941 37.5574 22.4507 37.5703 22.8101 37.5703C23.1694 37.5703 23.526 37.5574 23.8793 37.5321C24.9038 37.4587 25.6847 36.7052 25.9086 35.7833L26.381 33.8377C26.4064 33.7327 26.5011 33.6067 26.682 33.5414C27.0156 33.421 27.3419 33.2856 27.6601 33.1359C27.8339 33.0541 27.9899 33.0762 28.0822 33.1324L29.7921 34.1742C30.6019 34.6676 31.6863 34.6486 32.4627 33.9769C33.0032 33.5093 33.5093 33.0032 33.9769 32.4627C34.6486 31.6863 34.6676 30.6019 34.1742 29.7921L33.1324 28.0822C33.0762 27.9899 33.0541 27.8339 33.1359 27.6601C33.2856 27.3419 33.421 27.0156 33.5414 26.682C33.6067 26.5011 33.7327 26.4064 33.8377 26.381L35.7833 25.9086C36.7052 25.6847 37.4587 24.9038 37.5321 23.8793C37.5574 23.526 37.5703 23.1694 37.5703 22.8101C37.5703 22.4507 37.5574 22.0941 37.5321 21.7408C37.4587 20.7163 36.7052 19.9354 35.7833 19.7115L33.8377 19.2392C33.7327 19.2137 33.6067 19.119 33.5414 18.9381C33.421 18.6045 33.2856 18.2782 33.1359 17.96C33.0541 17.7862 33.0762 17.6302 33.1324 17.5379L34.1742 15.828C34.6676 15.0182 34.6486 13.9338 33.9769 13.1574C33.5093 12.6169 33.0032 12.1108 32.4627 11.6432C31.6863 10.9715 30.6019 10.9525 29.7921 11.4459L28.0822 12.4877C27.9899 12.5439 27.8339 12.566 27.6601 12.4843C27.3419 12.3346 27.0156 12.1991 26.682 12.0787C26.5011 12.0134 26.4064 11.8874 26.381 11.7824L25.9086 9.83684C25.6847 8.91492 24.9038 8.1614 23.8793 8.08798C23.526 8.06267 23.1694 8.0498 22.8101 8.0498ZM21.8847 10.0956C22.1901 10.0737 22.4987 10.0626 22.8101 10.0626C23.1214 10.0626 23.43 10.0737 23.7354 10.0956C23.8099 10.1009 23.9165 10.1629 23.9526 10.3117L24.425 12.2573C24.6293 13.0985 25.2639 13.7068 25.9988 13.972C26.2731 14.071 26.5415 14.1824 26.8033 14.3055C27.5108 14.6384 28.39 14.657 29.1295 14.2065L30.8394 13.1647C30.9701 13.0851 31.0893 13.1165 31.1458 13.1654C31.613 13.5696 32.0505 14.0071 32.4547 14.4743C32.5036 14.5308 32.5351 14.65 32.4554 14.7807L31.4136 16.4906C30.9631 17.2301 30.9817 18.1093 31.3146 18.8168C31.4377 19.0787 31.5491 19.347 31.6481 19.6213C31.9133 20.3562 32.5216 20.9908 33.3628 21.1951L35.3084 21.6675C35.4572 21.7036 35.5192 21.8102 35.5245 21.8847C35.5464 22.1901 35.5575 22.4987 35.5575 22.8101C35.5575 23.1214 35.5464 23.43 35.5245 23.7354C35.5192 23.8099 35.4572 23.9165 35.3084 23.9526L33.3628 24.425C32.5216 24.6293 31.9133 25.2639 31.6481 25.9988C31.5491 26.2731 31.4377 26.5415 31.3146 26.8033C30.9817 27.5108 30.9631 28.39 31.4136 29.1295L32.4554 30.8394C32.5351 30.9701 32.5036 31.0893 32.4547 31.1458C32.0505 31.613 31.613 32.0505 31.1458 32.4547C31.0893 32.5036 30.9701 32.5351 30.8394 32.4554L29.1295 31.4136C28.39 30.9631 27.5108 30.9817 26.8033 31.3146C26.5415 31.4377 26.2731 31.5491 25.9988 31.6481C25.2639 31.9133 24.6293 32.5216 24.425 33.3628L23.9526 35.3084C23.9165 35.4572 23.8099 35.5192 23.7354 35.5245C23.43 35.5464 23.1214 35.5575 22.8101 35.5575C22.4987 35.5575 22.1901 35.5464 21.8847 35.5245C21.8102 35.5192 21.7036 35.4572 21.6675 35.3084L21.1951 33.3628C20.9908 32.5216 20.3562 31.9133 19.6213 31.6481C19.347 31.5491 19.0787 31.4377 18.8168 31.3146C18.1093 30.9817 17.2301 30.9631 16.4906 31.4136L14.7807 32.4554C14.65 32.5351 14.5308 32.5036 14.4743 32.4547C14.0071 32.0505 13.5696 31.613 13.1654 31.1458C13.1165 31.0893 13.0851 30.9701 13.1647 30.8394L14.2065 29.1295C14.657 28.39 14.6384 27.5108 14.3055 26.8033C14.1824 26.5415 14.071 26.2731 13.972 25.9988C13.7068 25.2639 13.0985 24.6293 12.2573 24.425L10.3117 23.9526C10.1629 23.9165 10.1009 23.8099 10.0956 23.7354C10.0737 23.43 10.0626 23.1214 10.0626 22.8101C10.0626 22.4987 10.0737 22.1901 10.0956 21.8847C10.1009 21.8102 10.1629 21.7036 10.3117 21.6675L12.2573 21.1951C13.0985 20.9908 13.7068 20.3562 13.972 19.6213C14.071 19.347 14.1824 19.0787 14.3055 18.8168C14.6384 18.1093 14.657 17.2301 14.2065 16.4906L13.1647 14.7807C13.0851 14.65 13.1165 14.5308 13.1654 14.4743C13.5696 14.0071 14.0071 13.5696 14.4743 13.1654C14.5308 13.1165 14.65 13.0851 14.7807 13.1647L16.4906 14.2065C17.2301 14.657 18.1093 14.6384 18.8168 14.3055C19.0787 14.1824 19.347 14.071 19.6213 13.972C20.3562 13.7068 20.9908 13.0985 21.1951 12.2573L21.6675 10.3117C21.7036 10.1629 21.8102 10.1009 21.8847 10.0956Z" fill="#989898"/>
</svg>
