<svg width="40" height="40" viewBox="0 0 40 40" fill="none" xmlns="http://www.w3.org/2000/svg">
<path d="M8.89975 9.21637C8.89975 9.04151 9.04151 8.89975 9.21637 8.89975H26.3141C26.489 8.89975 26.6308 9.04151 26.6308 9.21637V21.8814C26.6308 22.406 27.056 22.8313 27.5806 22.8313C28.1052 22.8313 28.5305 22.406 28.5305 21.8814V9.21637C28.5305 7.9923 27.5382 7 26.3141 7H9.21637C7.9923 7 7 7.9923 7 9.21637V30.1136C7 31.3377 7.9923 32.33 9.21637 32.33H18.0819C18.6065 32.33 19.0317 31.9047 19.0317 31.3801C19.0317 30.8555 18.6065 30.4303 18.0819 30.4303H9.21637C9.04151 30.4303 8.89975 30.2885 8.89975 30.1136V9.21637Z" fill="url(#paint0_linear_2698_14576)"/>
<path d="M12.3826 13.3325C11.858 13.3325 11.4327 13.7578 11.4327 14.2824C11.4327 14.807 11.858 15.2323 12.3826 15.2323H23.1479C23.6725 15.2323 24.0977 14.807 24.0977 14.2824C24.0977 13.7578 23.6725 13.3325 23.1479 13.3325H12.3826Z" fill="url(#paint1_linear_2698_14576)"/>
<path d="M11.4327 19.3484C11.4327 18.8238 11.858 18.3985 12.3826 18.3985H18.0819C18.6065 18.3985 19.0317 18.8238 19.0317 19.3484C19.0317 19.873 18.6065 20.2983 18.0819 20.2983H12.3826C11.858 20.2983 11.4327 19.873 11.4327 19.3484Z" fill="url(#paint2_linear_2698_14576)"/>
<path d="M32.0518 25.086C32.4227 24.7151 32.4227 24.1137 32.0518 23.7427C31.6808 23.3718 31.0794 23.3718 30.7085 23.7427L24.4144 30.0368L21.9198 27.5422C21.5488 27.1713 20.9474 27.1713 20.5765 27.5422C20.2055 27.9132 20.2055 28.5146 20.5765 28.8855L23.7427 32.0518C24.1137 32.4227 24.7151 32.4227 25.086 32.0518L32.0518 25.086Z" fill="url(#paint3_linear_2698_14576)"/>
<defs>
<linearGradient id="paint0_linear_2698_14576" x1="-1" y1="-0.500001" x2="37.5" y2="32" gradientUnits="userSpaceOnUse">
<stop stop-color="#FFB11B"/>
<stop offset="1" stop-color="#FF441B"/>
</linearGradient>
<linearGradient id="paint1_linear_2698_14576" x1="-1" y1="-0.500001" x2="37.5" y2="32" gradientUnits="userSpaceOnUse">
<stop stop-color="#FFB11B"/>
<stop offset="1" stop-color="#FF441B"/>
</linearGradient>
<linearGradient id="paint2_linear_2698_14576" x1="-1" y1="-0.500001" x2="37.5" y2="32" gradientUnits="userSpaceOnUse">
<stop stop-color="#FFB11B"/>
<stop offset="1" stop-color="#FF441B"/>
</linearGradient>
<linearGradient id="paint3_linear_2698_14576" x1="-1" y1="-0.500001" x2="37.5" y2="32" gradientUnits="userSpaceOnUse">
<stop stop-color="#FFB11B"/>
<stop offset="1" stop-color="#FF441B"/>
</linearGradient>
</defs>
</svg>
