<svg width="40" height="40" viewBox="0 0 40 40" fill="none" xmlns="http://www.w3.org/2000/svg">
<path fill-rule="evenodd" clip-rule="evenodd" d="M25.2622 8.50851L10.0714 21.7174C10.0211 21.7609 9.98541 21.8187 9.96898 21.8831C9.95255 21.9475 9.9562 22.0154 9.97946 22.0777C10.0027 22.1399 10.0445 22.1936 10.0991 22.2314C10.1537 22.2693 10.2186 22.2895 10.2851 22.2894H17.3866C17.5479 22.2893 17.7067 22.329 17.8489 22.4051C17.9911 22.4813 18.1122 22.5914 18.2015 22.7257C18.2908 22.86 18.3454 23.0143 18.3606 23.1749C18.3757 23.3354 18.3509 23.4972 18.2883 23.6459L14.9539 31.5501L29.5674 18.9523C29.6177 18.9088 29.6534 18.851 29.6698 18.7866C29.6863 18.7222 29.6826 18.6543 29.6593 18.5921C29.6361 18.5298 29.5943 18.4762 29.5397 18.4383C29.4851 18.4005 29.4202 18.3802 29.3537 18.3803H22.4372C22.275 18.3802 22.1153 18.3398 21.9726 18.2626C21.83 18.1854 21.7087 18.0739 21.6199 17.9381C21.5311 17.8023 21.4775 17.6466 21.4639 17.485C21.4503 17.3233 21.4771 17.1608 21.542 17.0121L25.2622 8.50851ZM24.6732 6.43017C24.9726 6.16921 25.3519 6.01802 25.7488 6.00151C26.1456 5.985 26.5362 6.10417 26.8562 6.33937C27.1762 6.57456 27.4066 6.91176 27.5093 7.2954C27.612 7.67904 27.581 8.08623 27.4213 8.44988L23.9318 16.4258H29.3537C31.4685 16.4258 32.4445 19.0527 30.8431 20.4326L14.7519 34.3047C14.4962 34.5261 14.1731 34.6544 13.8352 34.6687C13.4973 34.683 13.1645 34.5824 12.891 34.3834C12.6176 34.1845 12.4195 33.8987 12.3291 33.5728C12.2388 33.2469 12.2614 32.9 12.3934 32.5886L15.9168 24.244H10.2851C8.17547 24.244 7.19689 21.6275 8.7892 20.2437L24.6732 6.43147V6.43017Z" fill="#989898"/>
</svg>
