<svg width="258" height="269" viewBox="0 0 258 269" fill="none" xmlns="http://www.w3.org/2000/svg">
<path d="M161.343 100.751L31.6169 126.545C27.0612 127.451 24.1043 131.887 25.0123 136.454L38.7923 205.759C39.7004 210.326 44.1296 213.294 48.6852 212.388L178.411 186.594C182.967 185.688 185.924 181.252 185.016 176.685L171.236 107.38C170.328 102.813 165.898 99.8453 161.343 100.751Z" fill="white"/>
<path d="M178.491 187.042L48.774 212.833C46.4684 213.289 44.0757 212.81 42.1208 211.5C40.166 210.19 38.8088 208.157 38.3469 205.846L24.5687 136.55C24.1114 134.238 24.5872 131.84 25.8917 129.88C27.1963 127.921 29.2231 126.56 31.5281 126.097L161.245 100.305C163.552 99.8517 165.945 100.333 167.9 101.645C169.855 102.956 171.212 104.99 171.674 107.301L185.452 176.597C185.909 178.909 185.433 181.306 184.128 183.264C182.823 185.222 180.796 186.581 178.491 187.042ZM31.7057 126.99C29.6357 127.404 27.8152 128.625 26.644 130.384C25.4729 132.144 25.0468 134.298 25.4595 136.373L39.2377 205.669C39.6525 207.743 40.8707 209.568 42.6252 210.743C44.3797 211.919 46.5271 212.349 48.5964 211.94L178.313 186.149C180.382 185.735 182.201 184.516 183.372 182.758C184.544 181.001 184.971 178.849 184.561 176.774L170.783 107.478C170.37 105.403 169.153 103.576 167.398 102.398C165.643 101.221 163.493 100.789 161.423 101.198L31.7057 126.99Z" fill="#282929"/>
<path d="M130.237 164.314L84.673 173.374C83.0889 173.689 82.0607 175.232 82.3764 176.82L86.1193 195.644C86.435 197.232 87.9752 198.264 89.5593 197.949L135.123 188.89C136.707 188.575 137.736 187.032 137.42 185.444L133.677 166.62C133.361 165.032 131.821 163.999 130.237 164.314Z" fill="white"/>
<path d="M135.211 189.335L89.6382 198.396C88.7604 198.569 87.8501 198.385 87.1067 197.885C86.3634 197.386 85.8478 196.611 85.6729 195.732L81.9283 176.898C81.7536 176.02 81.9342 175.108 82.4304 174.363C82.9267 173.619 83.6979 173.103 84.5744 172.928L130.147 163.867C131.024 163.693 131.934 163.875 132.677 164.373C133.42 164.871 133.936 165.644 134.111 166.523L137.855 185.356C138.03 186.236 137.85 187.148 137.354 187.894C136.859 188.64 136.088 189.158 135.211 189.335ZM84.7519 173.821C84.1117 173.949 83.5483 174.326 83.1859 174.87C82.8234 175.413 82.6914 176.08 82.8191 176.721L86.5637 195.554C86.6258 195.873 86.7502 196.177 86.9296 196.447C87.1089 196.718 87.3398 196.95 87.609 197.132C87.8781 197.313 88.1802 197.439 88.498 197.502C88.8158 197.566 89.1429 197.567 89.4607 197.503L135.034 188.442C135.351 188.379 135.653 188.253 135.923 188.073C136.192 187.892 136.423 187.66 136.602 187.39C136.782 187.12 136.906 186.817 136.968 186.498C137.03 186.179 137.029 185.852 136.965 185.533L133.22 166.7C133.092 166.058 132.716 165.493 132.173 165.129C131.63 164.766 130.965 164.633 130.325 164.76L84.7519 173.821Z" fill="#989898" fill-opacity="0.4"/>
<path d="M157.731 107.781L37.6343 131.66C35.1056 132.163 33.4643 134.626 33.9683 137.161L40.5698 170.362C41.0738 172.897 43.5324 174.545 46.0611 174.042L166.157 150.163C168.686 149.66 170.328 147.197 169.824 144.662L163.222 111.461C162.718 108.926 160.259 107.279 157.731 107.781Z" fill="white"/>
<path d="M166.246 150.611L46.1499 174.49C44.8176 174.753 43.4355 174.475 42.3061 173.719C41.1767 172.962 40.3922 171.787 40.1244 170.453L33.5247 137.26C33.2589 135.924 33.5331 134.537 34.2869 133.404C35.0408 132.27 36.2127 131.484 37.5456 131.216L157.642 107.337C158.976 107.074 160.359 107.353 161.49 108.112C162.62 108.87 163.403 110.047 163.669 111.384L170.269 144.576C170.532 145.912 170.256 147.297 169.502 148.428C168.748 149.559 167.578 150.344 166.246 150.611ZM37.7231 132.109C36.6265 132.33 35.6624 132.977 35.0423 133.91C34.4222 134.842 34.1968 135.984 34.4155 137.083L41.0152 170.276C41.2337 171.375 41.8787 172.342 42.8083 172.965C43.738 173.588 44.8761 173.815 45.9723 173.597L166.069 149.719C167.165 149.501 168.129 148.855 168.75 147.924C169.371 146.993 169.597 145.852 169.378 144.753L162.778 111.561C162.56 110.461 161.915 109.493 160.985 108.868C160.056 108.244 158.917 108.014 157.82 108.23L37.7231 132.109Z" fill="#989898" fill-opacity="0.4"/>
<path d="M52.3298 218.422L82.777 212.368C83.2005 210.2 83.8025 208.072 84.5768 206.004C88.0537 198.156 93.8806 192.578 95.5743 182.142C97.268 171.705 96.9579 163.765 93.8429 162.908C90.7278 162.052 89.58 174.069 86.4834 177.637C86.4834 177.637 81.0196 164.548 82.0303 158.035C83.041 151.522 86.6696 146.066 85.3359 142.525C84.0022 138.984 82.5139 140.301 80.264 143.144C79.0891 144.64 77.5062 149.02 77.5062 149.02C77.337 146.987 77.6232 144.941 78.3438 143.033C80.2867 138.368 73.395 137.844 69.9979 146.094C69.9979 146.094 70.3967 138.227 67.1688 141.18C63.9408 144.133 61.9058 153.459 61.9058 153.459C61.9058 153.459 61.673 141.716 57.6356 145.675C53.5983 149.634 54.7429 164.565 56.6395 170.937C58.536 177.308 62.88 192.077 59.8388 198.298C58.8809 200.326 55.8901 208.431 52.3298 218.422Z" fill="white"/>
<path d="M82.8657 212.815L52.4185 218.869C52.3395 218.884 52.2579 218.878 52.1816 218.853C52.1052 218.827 52.0366 218.783 51.9822 218.723C51.9268 218.663 51.8891 218.589 51.8731 218.508C51.8572 218.428 51.8636 218.345 51.8916 218.268C56.0728 206.696 58.5765 199.914 59.463 198.085C62.4597 191.92 57.9485 176.776 56.2474 171.061C54.246 164.349 53.1441 149.492 57.3508 145.36C58.2277 144.508 59.0509 144.224 59.7989 144.539C61.3037 145.168 61.9448 148.253 62.2068 150.642C63.0852 147.608 64.7183 142.874 66.9017 140.862C67.6824 140.131 68.3969 139.906 69.0113 140.201C70.0334 140.685 70.3546 142.58 70.4498 144.13C72.244 140.905 74.5286 139.494 76.2424 139.265C76.6876 139.173 77.1492 139.203 77.5793 139.351C78.0093 139.499 78.392 139.76 78.6876 140.106C78.9771 140.572 79.1375 141.107 79.1522 141.656C79.1668 142.204 79.0353 142.747 78.7711 143.227C78.3397 144.304 78.0723 145.44 77.978 146.597C78.4784 145.289 79.1252 144.042 79.9061 142.881C81.4571 140.901 82.5783 139.787 83.7165 139.97C84.5376 140.094 85.1802 140.857 85.7546 142.349C86.5975 144.586 85.6177 147.436 84.4879 150.742C83.6033 153.12 82.9287 155.571 82.472 158.068C81.6259 163.5 85.474 173.818 86.598 176.677C87.7568 174.505 88.6574 172.204 89.2816 169.822C90.6151 165.537 91.7771 161.834 93.9536 162.395C98.5095 163.652 96.9102 176.659 96.0267 182.136C94.8946 189.063 91.9665 193.897 89.1079 198.568C87.5716 200.996 86.1896 203.519 84.9703 206.121C84.2066 208.161 83.6112 210.26 83.1902 212.397C83.1863 212.492 83.1529 212.584 83.0947 212.658C83.0366 212.733 82.9565 212.788 82.8657 212.815ZM53.0249 217.82L82.4209 211.975C82.8403 209.876 83.4309 207.815 84.1867 205.813C85.4248 203.174 86.8313 200.619 88.3974 198.162C91.1865 193.56 94.0664 188.81 95.1682 182.056C96.9334 171.234 96.3965 164.062 93.7713 163.341C92.4266 162.958 91.2395 166.768 90.1935 170.123C89.2509 173.16 88.2656 176.308 86.8733 177.922C86.8241 177.982 86.7594 178.027 86.6862 178.053C86.6131 178.079 86.5342 178.085 86.4581 178.069C86.3822 178.059 86.3101 178.029 86.249 177.983C86.1879 177.936 86.1397 177.875 86.1092 177.804C85.8904 177.263 80.6063 164.519 81.626 157.958C82.0889 155.407 82.7779 152.903 83.6847 150.475C84.7556 147.338 85.6801 144.629 84.9171 142.701C84.4885 141.57 84.0276 140.929 83.6233 140.851C82.8894 140.747 81.7646 142.029 80.6645 143.435C79.5645 144.842 78.0031 149.145 77.9834 149.186C77.9491 149.282 77.8833 149.364 77.7966 149.418C77.7099 149.473 77.6075 149.496 77.5058 149.485C77.404 149.471 77.3095 149.424 77.2366 149.351C77.1636 149.279 77.1163 149.184 77.1017 149.082C76.9222 146.97 77.2214 144.845 77.9769 142.865C78.1726 142.53 78.2791 142.15 78.2862 141.762C78.2933 141.374 78.2008 140.99 78.0175 140.648C77.8158 140.432 77.5612 140.274 77.2792 140.188C76.9973 140.103 76.6979 140.093 76.411 140.16C74.7382 140.362 72.1701 142.117 70.4698 146.279C70.4287 146.378 70.3541 146.459 70.2592 146.508C70.1643 146.557 70.0552 146.571 69.951 146.548C69.8468 146.524 69.7542 146.464 69.6894 146.379C69.6247 146.294 69.592 146.189 69.5971 146.082C69.6785 144.209 69.4505 141.386 68.6634 141.013C68.3464 140.863 67.8349 141.271 67.5604 141.52C64.5018 144.347 62.4544 153.471 62.4347 153.558C62.4112 153.667 62.349 153.763 62.2597 153.828C62.1704 153.894 62.0603 153.925 61.95 153.914C61.8397 153.901 61.7379 153.848 61.6623 153.766C61.5868 153.685 61.5424 153.579 61.537 153.467C61.4836 150.638 60.8739 145.941 59.4919 145.371C59.1179 145.213 58.5781 145.432 58.0344 146.004C54.2751 149.685 55.1884 164.291 57.1579 170.797C59.0491 177.142 63.4803 192.023 60.3285 198.479C59.4384 200.244 56.9902 206.746 53.0249 217.82Z" fill="#282929"/>
<path d="M126.688 148.05C124.54 147.076 123.297 152.094 126.002 158.574C128.708 165.054 139.614 177.757 146.985 182.465C148.924 183.694 152.411 188.422 156.515 194.717L186.098 188.835C176.066 176.478 167.505 165.973 166.821 165.33C165.091 163.706 161.292 152.003 160.265 144.883C159.289 138.377 157.532 132.013 155.033 125.928C153.247 121.929 151.468 120.854 149.375 121.27C147.281 121.686 149.977 129.793 149.977 129.793C148.047 125.024 143.677 119.952 140.713 119.947C137.749 119.943 143.325 129.778 143.325 129.778C141.579 126.96 133.425 118.454 130.97 120.548C130.179 121.225 128.057 122.334 132.991 128.287C137.925 134.24 138.601 137.875 138.601 137.875C128.535 126.509 122.769 128.11 121.453 131.175C120.136 134.241 125.27 134.909 130.185 139.882C135.1 144.856 135.811 159.752 135.811 159.752C131.151 157.829 128.844 149.023 126.688 148.05ZM150.777 131.722L150.757 131.624L150.777 131.722ZM150.651 131.413L150.466 130.949L150.651 131.413ZM150.355 130.673C150.327 130.531 150.243 130.389 150.174 130.227L150.355 130.673Z" fill="white"/>
<path d="M186.169 189.285L156.586 195.167C156.496 195.183 156.404 195.173 156.321 195.136C156.238 195.1 156.168 195.039 156.119 194.962C151.588 188.01 148.425 183.932 146.728 182.849C139.485 178.228 128.411 165.614 125.564 158.745C123.396 153.522 123.684 149.288 125.074 147.944C125.302 147.71 125.598 147.555 125.919 147.499C126.24 147.444 126.571 147.491 126.864 147.634C127.881 148.091 128.76 149.764 129.893 151.878C131.276 154.453 132.968 157.607 135.21 158.962C134.978 155.842 133.865 144.376 129.762 140.18C128.082 138.535 126.217 137.093 124.204 135.882C121.75 134.3 119.959 133.161 120.938 130.962C121.231 130.301 121.69 129.728 122.27 129.299C122.85 128.869 123.531 128.598 124.247 128.512C126.268 128.194 130.564 128.797 137.35 135.914C136.105 133.237 134.497 130.745 132.572 128.509C130.235 125.697 129.181 123.614 129.32 122.119C129.367 121.742 129.495 121.38 129.695 121.057C129.894 120.734 130.16 120.458 130.475 120.247L130.609 120.127C130.854 119.929 131.141 119.79 131.447 119.719C131.754 119.648 132.073 119.649 132.38 119.719C134.75 120.093 138.372 123.309 140.931 126.077C139.889 123.768 138.968 121.139 139.603 120.047C139.716 119.857 139.879 119.702 140.073 119.598C140.268 119.494 140.487 119.445 140.708 119.456C143.154 119.462 146.251 122.42 148.474 125.914C148.119 124.128 147.933 122.308 148.446 121.398C148.53 121.246 148.645 121.112 148.784 121.008C148.923 120.903 149.082 120.83 149.252 120.793C151.773 120.291 153.66 121.773 155.407 125.714C157.926 131.837 159.697 138.243 160.682 144.791C161.719 152.011 165.552 163.511 167.092 164.969C167.706 165.543 174.025 173.245 186.413 188.512C186.464 188.571 186.499 188.643 186.514 188.719C186.529 188.796 186.524 188.875 186.5 188.95C186.479 189.03 186.437 189.103 186.379 189.162C186.321 189.22 186.248 189.263 186.169 189.285ZM156.711 194.214L185.216 188.546C170.436 170.329 166.851 166.038 166.454 165.671C164.608 163.931 160.787 152.122 159.761 144.955C158.791 138.492 157.046 132.169 154.562 126.123C152.606 121.732 150.853 121.44 149.41 121.727C149.361 121.737 149.315 121.759 149.276 121.791C149.237 121.823 149.207 121.864 149.187 121.91C148.538 123.023 149.554 127.249 150.356 129.652L150.368 129.714C150.398 129.772 150.411 129.837 150.406 129.902C150.453 129.944 150.49 129.997 150.511 130.057L150.692 130.504C150.71 130.549 150.72 130.598 150.721 130.647C150.756 130.685 150.784 130.73 150.802 130.779L150.994 131.233C150.985 131.31 151.001 131.388 151.039 131.456L150.977 131.469L151.055 131.536C151.064 131.559 151.069 131.583 151.069 131.608C151.079 131.704 151.058 131.8 151.009 131.883C150.961 131.966 150.888 132.031 150.8 132.07C150.716 132.104 150.624 132.113 150.536 132.096C150.447 132.079 150.365 132.037 150.299 131.974C150.29 131.949 150.284 131.922 150.283 131.894C150.274 131.872 150.269 131.847 150.269 131.823L150.253 131.742C150.241 131.705 150.233 131.666 150.23 131.626C150.203 131.594 150.18 131.558 150.162 131.519L150.093 131.217L150.079 131.146C150.067 131.111 150.06 131.075 150.058 131.039C150.011 130.995 149.975 130.942 149.953 130.883L149.771 130.436C149.751 130.382 149.74 130.325 149.737 130.267C149.696 130.224 149.664 130.174 149.643 130.118C149.635 130.105 149.632 130.089 149.634 130.074C147.642 125.179 143.347 120.528 140.791 120.526C140.559 120.525 140.497 120.584 140.477 120.671C139.844 121.726 142.027 126.555 143.769 129.634C143.818 129.737 143.827 129.854 143.794 129.963C143.761 130.072 143.688 130.165 143.59 130.223C143.493 130.281 143.377 130.3 143.266 130.276C143.154 130.252 143.056 130.188 142.99 130.095C141.46 127.615 135.4 121.263 132.322 120.78C132.152 120.735 131.973 120.729 131.8 120.764C131.627 120.798 131.465 120.871 131.324 120.978L131.164 121.103C130.944 121.24 130.757 121.423 130.617 121.64C130.476 121.858 130.384 122.104 130.349 122.36C130.229 123.572 131.25 125.495 133.393 128.077C138.35 134.053 139.018 137.736 139.048 137.888C139.063 137.986 139.046 138.086 139 138.173C138.954 138.261 138.882 138.331 138.793 138.375C138.705 138.418 138.605 138.43 138.509 138.411C138.413 138.391 138.327 138.341 138.262 138.267C130.895 129.947 126.465 129.231 124.489 129.541C123.923 129.601 123.383 129.81 122.923 130.145C122.463 130.481 122.1 130.933 121.869 131.454C121.225 132.873 122.304 133.642 124.797 135.235C126.865 136.486 128.78 137.975 130.503 139.67C135.479 144.715 136.243 159.221 136.271 159.874C136.276 159.95 136.261 160.027 136.227 160.095C136.194 160.164 136.143 160.222 136.08 160.265C136.021 160.313 135.951 160.346 135.877 160.361C135.802 160.376 135.725 160.372 135.652 160.35C132.776 159.158 130.801 155.466 129.213 152.505C128.243 150.702 127.33 148.999 126.598 148.671C126.468 148.603 126.318 148.581 126.174 148.61C126.03 148.639 125.9 148.716 125.805 148.829C124.845 149.772 124.39 153.538 126.504 158.632C129.243 165.235 140.328 177.856 147.322 182.342C149.028 183.237 152.132 187.206 156.711 194.214Z" fill="#282929"/>
<path d="M88.6188 208.216C87.8972 208.36 53.0677 203.737 53.0677 203.737C53.0677 203.737 43.5751 233.538 40.7278 242.83L85.0186 241.199L88.6188 208.216Z" fill="#282929"/>
<path d="M179.722 176.558L146.658 189.806L170.458 235.727L220.795 234.049L179.722 176.558Z" fill="#282929"/>
<path d="M144.274 14.9074L14.5485 40.701C9.99288 41.6068 7.03592 46.0433 7.94396 50.6102L21.724 119.915C22.632 124.482 27.0612 127.45 31.6169 126.544L161.343 100.751C165.898 99.8447 168.855 95.4082 167.947 90.8413L154.167 21.5363C153.259 16.9694 148.83 14.0016 144.274 14.9074Z" fill="white"/>
<path d="M161.422 101.198L31.7054 126.99C29.3998 127.446 27.0071 126.966 25.0522 125.657C23.0974 124.347 21.7401 122.313 21.2783 120.003L7.49829 50.6982C7.05183 48.3912 7.53403 46.0018 8.83962 44.0517C10.1452 42.1015 12.1681 40.7491 14.4666 40.2896L144.184 14.4978C146.489 14.0419 148.882 14.5214 150.837 15.8313C152.792 17.1412 154.149 19.1744 154.611 21.4847L168.391 90.7897C168.837 93.0967 168.355 95.4861 167.049 97.4362C165.744 99.3864 163.721 100.739 161.422 101.198ZM14.6441 41.1826C12.5758 41.5964 10.7563 42.8156 9.58503 44.573C8.41372 46.3304 7.98618 48.4824 8.39619 50.5568L22.1762 119.862C22.5909 121.935 23.8092 123.76 25.5637 124.936C27.3181 126.111 29.4656 126.542 31.5349 126.133L161.252 100.341C163.32 99.9273 165.14 98.708 166.311 96.9506C167.482 95.1932 167.91 93.0413 167.5 90.9668L153.713 21.6261C153.29 19.5607 152.069 17.746 150.317 16.5778C148.565 15.4097 146.424 14.983 144.361 15.3908L14.6441 41.1826Z" fill="#282929"/>
<path d="M147.906 21.7605L15.0176 48.1829L29.2681 119.854L162.156 93.4319L147.906 21.7605Z" fill="#1F1F1F"/>
<path d="M162.246 93.8789L29.393 120.294C29.2749 120.318 29.1523 120.293 29.0521 120.226C28.9519 120.159 28.8824 120.055 28.8588 119.936L14.6083 48.2649C14.5848 48.1464 14.6091 48.0235 14.676 47.9232C14.7429 47.8229 14.8468 47.7533 14.9649 47.7298L147.817 21.3145C147.936 21.291 148.058 21.3156 148.158 21.3827C148.259 21.4498 148.328 21.554 148.352 21.6725L162.602 93.3438C162.626 93.4623 162.601 93.5852 162.534 93.6855C162.468 93.7859 162.364 93.8554 162.246 93.8789ZM29.6252 119.32L161.623 93.0745L147.55 22.2961L15.5522 48.5413L29.6252 119.32Z" fill="#282929"/>
<path d="M149.713 30.8508L16.8603 57.2661C16.7421 57.2896 16.6195 57.2651 16.5193 57.1979C16.4191 57.1308 16.3496 57.0266 16.3261 56.9082C16.3025 56.7897 16.3269 56.6668 16.3938 56.5665C16.4606 56.4662 16.5646 56.3966 16.6827 56.3731L149.535 29.9578C149.653 29.9343 149.776 29.9589 149.876 30.026C149.976 30.0931 150.046 30.1974 150.069 30.3158C150.093 30.4342 150.069 30.5571 150.002 30.6574C149.935 30.7578 149.831 30.8273 149.713 30.8508Z" fill="#282929"/>
<path d="M21.1954 52.753C22.0071 52.5916 22.534 51.8011 22.3722 50.9873C22.2104 50.1736 21.4212 49.6447 20.6094 49.8061C19.7977 49.9675 19.2708 50.7581 19.4326 51.5718C19.5944 52.3856 20.3836 52.9144 21.1954 52.753Z" fill="url(#paint0_linear_2015_8822)"/>
<path d="M27.8682 51.4273C28.68 51.2659 29.2069 50.4754 29.0451 49.6617C28.8833 48.8479 28.094 48.3191 27.2823 48.4805C26.4705 48.6419 25.9437 49.4324 26.1055 50.2461C26.2673 51.0599 27.0565 51.5887 27.8682 51.4273Z" fill="url(#paint1_linear_2015_8822)"/>
<path d="M34.4298 50.1226C35.2415 49.9612 35.7684 49.1707 35.6066 48.357C35.4448 47.5432 34.6556 47.0144 33.8438 47.1758C33.0321 47.3372 32.5052 48.1277 32.667 48.9414C32.8288 49.7552 33.618 50.284 34.4298 50.1226Z" fill="url(#paint2_linear_2015_8822)"/>
<path d="M39.6274 118.26C39.5093 118.283 39.3866 118.259 39.2865 118.192C39.1863 118.124 39.1168 118.02 39.0932 117.902L26.5614 54.8745C26.5379 54.7561 26.5622 54.6332 26.6291 54.5328C26.696 54.4325 26.7999 54.3629 26.9181 54.3394C27.0362 54.3159 27.1588 54.3404 27.259 54.4076C27.3592 54.4747 27.4287 54.5789 27.4522 54.6974L39.984 117.725C40.0076 117.843 39.9832 117.966 39.9163 118.066C39.8495 118.167 39.7455 118.236 39.6274 118.26Z" fill="#282929"/>
<path d="M52.4272 55.0227L33.7206 58.7422C33.6025 58.7657 33.4798 58.7411 33.3797 58.674C33.2795 58.6069 33.21 58.5027 33.1864 58.3842C33.1629 58.2658 33.1872 58.1429 33.2541 58.0426C33.321 57.9422 33.4249 57.8727 33.5431 57.8492L52.2497 54.1297C52.3678 54.1062 52.4904 54.1307 52.5906 54.1979C52.6908 54.265 52.7603 54.3692 52.7838 54.4877C52.8074 54.6061 52.783 54.729 52.7162 54.8293C52.6493 54.9297 52.5453 54.9992 52.4272 55.0227Z" fill="white"/>
<path d="M63.1604 52.8878L57.0585 54.1011C56.9404 54.1245 56.8177 54.1 56.7176 54.0329C56.6174 53.9658 56.5479 53.8615 56.5243 53.7431C56.5008 53.6247 56.5251 53.5018 56.592 53.4015C56.6589 53.3011 56.7628 53.2316 56.8809 53.2081L62.9829 51.9948C63.101 51.9713 63.2236 51.9958 63.3238 52.063C63.424 52.1301 63.4935 52.2343 63.517 52.3528C63.5406 52.4712 63.5162 52.5941 63.4494 52.6944C63.3825 52.7948 63.2785 52.8643 63.1604 52.8878Z" fill="url(#paint3_linear_2015_8822)"/>
<path d="M79.7297 49.5937L66.8222 52.1601C66.704 52.1836 66.5814 52.1591 66.4812 52.092C66.381 52.0249 66.3115 51.9206 66.288 51.8022C66.2645 51.6838 66.2888 51.5609 66.3557 51.4606C66.4225 51.3602 66.5265 51.2906 66.6446 51.2672L79.5522 48.7007C79.6703 48.6772 79.7929 48.7018 79.8931 48.7689C79.9933 48.836 80.0628 48.9402 80.0863 49.0587C80.098 49.1173 80.098 49.1776 80.0864 49.2363C80.0748 49.2949 80.0518 49.3506 80.0187 49.4003C79.9856 49.45 79.943 49.4927 79.8934 49.5258C79.8438 49.559 79.7882 49.5821 79.7297 49.5937Z" fill="url(#paint4_linear_2015_8822)"/>
<path d="M47.5805 61.852L34.8065 64.3918C34.6884 64.4153 34.5658 64.3908 34.4656 64.3237C34.3654 64.2566 34.2959 64.1523 34.2724 64.0339C34.2488 63.9155 34.2732 63.7926 34.34 63.6922C34.4069 63.5919 34.5109 63.5223 34.629 63.4988L47.4029 60.959C47.5211 60.9355 47.6437 60.96 47.7439 61.0271C47.844 61.0943 47.9136 61.1985 47.9371 61.3169C47.9582 61.4351 47.9329 61.5568 47.8664 61.6566C47.7999 61.7563 47.6974 61.8263 47.5805 61.852Z" fill="white"/>
<path d="M104.182 50.5968L51.4647 61.0786C51.3469 61.0997 51.2254 61.0742 51.1258 61.0074C51.0262 60.9407 50.9563 60.8379 50.9306 60.7207C50.907 60.6022 50.9314 60.4794 50.9982 60.379C51.0651 60.2787 51.1691 60.2091 51.2872 60.1856L104.004 49.7038C104.122 49.6803 104.245 49.7048 104.345 49.772C104.445 49.8391 104.515 49.9433 104.538 50.0617C104.55 50.1204 104.55 50.1807 104.538 50.2394C104.527 50.298 104.504 50.3537 104.471 50.4034C104.438 50.4531 104.395 50.4957 104.345 50.5289C104.296 50.5621 104.24 50.5852 104.182 50.5968Z" fill="url(#paint5_linear_2015_8822)"/>
<path d="M133.943 44.679L108.208 49.7959C108.09 49.8194 107.967 49.7949 107.867 49.7277C107.767 49.6606 107.697 49.5564 107.674 49.438C107.65 49.3195 107.675 49.1966 107.741 49.0963C107.808 48.9959 107.912 48.9264 108.03 48.9029L133.765 43.786C133.883 43.7625 134.006 43.787 134.106 43.8541C134.206 43.9213 134.276 44.0255 134.299 44.1439C134.321 44.2621 134.295 44.3838 134.229 44.4835C134.162 44.5833 134.06 44.6533 133.943 44.679Z" fill="white"/>
<path d="M81.9208 60.6133L35.8759 69.7685C35.7578 69.792 35.6351 69.7675 35.5349 69.7004C35.4348 69.6333 35.3653 69.529 35.3417 69.4106C35.3182 69.2922 35.3425 69.1693 35.4094 69.069C35.4763 68.9686 35.5802 68.899 35.6983 68.8756L81.7433 59.7204C81.8614 59.6969 81.9841 59.7214 82.0842 59.7885C82.1844 59.8556 82.2539 59.9599 82.2775 60.0783C82.301 60.1967 82.2767 60.3196 82.2098 60.42C82.1429 60.5203 82.039 60.5899 81.9208 60.6133Z" fill="white"/>
<path d="M101.777 56.6654L85.9472 59.8127C85.829 59.8362 85.7064 59.8117 85.6062 59.7446C85.5061 59.6775 85.4365 59.5732 85.413 59.4548C85.3919 59.3366 85.4172 59.2149 85.4837 59.1152C85.5502 59.0154 85.6527 58.9454 85.7696 58.9197L101.599 55.7724C101.717 55.7489 101.84 55.7734 101.94 55.8405C102.04 55.9077 102.11 56.0119 102.133 56.1303C102.157 56.2487 102.132 56.3716 102.065 56.472C101.999 56.5723 101.895 56.6419 101.777 56.6654Z" fill="url(#paint6_linear_2015_8822)"/>
<path d="M44.1818 78.2435L37.7948 79.5134C37.6767 79.5369 37.5541 79.5124 37.4539 79.4453C37.3537 79.3781 37.2842 79.2739 37.2607 79.1555C37.2371 79.0371 37.2614 78.9142 37.3283 78.8138C37.3952 78.7135 37.4991 78.6439 37.6173 78.6204L44.0042 77.3505C44.1221 77.3294 44.2436 77.3549 44.3432 77.4217C44.4428 77.4884 44.5127 77.5912 44.5384 77.7084C44.562 77.8268 44.5376 77.9497 44.4707 78.0501C44.4038 78.1504 44.2999 78.22 44.1818 78.2435Z" fill="white"/>
<path d="M64.2339 74.2574L48.0839 77.4685C47.9658 77.492 47.8431 77.4675 47.7429 77.4003C47.6428 77.3332 47.5733 77.229 47.5497 77.1106C47.5286 76.9924 47.5539 76.8707 47.6204 76.7709C47.6869 76.6712 47.7894 76.6011 47.9063 76.5755L64.0564 73.3644C64.1745 73.3409 64.2971 73.3654 64.3973 73.4325C64.4975 73.4996 64.567 73.6039 64.5905 73.7223C64.6141 73.8407 64.5897 73.9636 64.5229 74.064C64.456 74.1643 64.352 74.2339 64.2339 74.2574Z" fill="url(#paint7_linear_2015_8822)"/>
<path d="M52.4128 81.8245L38.8105 84.529C38.6923 84.5525 38.5697 84.528 38.4695 84.4609C38.3693 84.3938 38.2998 84.2895 38.2763 84.1711C38.2527 84.0527 38.2771 83.9298 38.3439 83.8294C38.4108 83.7291 38.5148 83.6595 38.6329 83.6361L52.2353 80.9315C52.3534 80.908 52.476 80.9325 52.5762 80.9996C52.6764 81.0667 52.7459 81.171 52.7694 81.2894C52.793 81.4078 52.7686 81.5307 52.7018 81.6311C52.6349 81.7314 52.5309 81.801 52.4128 81.8245Z" fill="white"/>
<path d="M81.8271 75.9749L55.4687 81.2158C55.3508 81.2369 55.2293 81.2114 55.1297 81.1446C55.0301 81.0779 54.9602 80.9751 54.9345 80.8579C54.9109 80.7395 54.9353 80.6166 55.0022 80.5162C55.069 80.4159 55.173 80.3463 55.2911 80.3228L81.6496 75.0819C81.7677 75.0584 81.8904 75.0829 81.9905 75.1501C82.0907 75.2172 82.1602 75.3214 82.1838 75.4399C82.2073 75.5583 82.183 75.6812 82.1161 75.7815C82.0492 75.8819 81.9453 75.9514 81.8271 75.9749Z" fill="url(#paint8_linear_2015_8822)"/>
<path d="M99.8033 72.402L85.5507 75.2358C85.4328 75.2569 85.3113 75.2314 85.2118 75.1646C85.1122 75.0979 85.0422 74.9951 85.0165 74.8779C84.993 74.7595 85.0173 74.6366 85.0842 74.5362C85.1511 74.4359 85.255 74.3663 85.3731 74.3428L99.6258 71.509C99.7439 71.4855 99.8665 71.51 99.9667 71.5771C100.067 71.6442 100.136 71.7485 100.16 71.8669C100.183 71.9853 100.159 72.1082 100.092 72.2086C100.025 72.3089 99.9215 72.3785 99.8033 72.402Z" fill="white"/>
<path d="M59.2278 86.0588L39.8798 89.9057C39.7617 89.9292 39.639 89.9047 39.5388 89.8376C39.4387 89.7705 39.3692 89.6662 39.3456 89.5478C39.3221 89.4294 39.3464 89.3065 39.4133 89.2062C39.4802 89.1058 39.5841 89.0362 39.7022 89.0128L59.0502 85.1658C59.1681 85.1447 59.2895 85.1702 59.3891 85.237C59.4887 85.3037 59.5587 85.4065 59.5844 85.5237C59.6079 85.6421 59.5836 85.765 59.5167 85.8654C59.4498 85.9657 59.3459 86.0353 59.2278 86.0588Z" fill="white"/>
<path d="M95.5094 78.8436L63.2538 85.2571C63.1357 85.2806 63.013 85.256 62.9129 85.1889C62.8127 85.1218 62.7432 85.0175 62.7196 84.8991C62.6961 84.7807 62.7204 84.6578 62.7873 84.5575C62.8542 84.4571 62.9581 84.3876 63.0763 84.3641L95.3318 77.9507C95.4497 77.9296 95.5711 77.9551 95.6707 78.0218C95.7703 78.0886 95.8403 78.1913 95.866 78.3086C95.8895 78.427 95.8652 78.5499 95.7983 78.6503C95.7314 78.7506 95.6275 78.8202 95.5094 78.8436Z" fill="url(#paint9_linear_2015_8822)"/>
<path d="M126.164 72.6548L100.153 77.8266C100.035 77.8501 99.9124 77.8256 99.8123 77.7585C99.7121 77.6914 99.6426 77.5871 99.6191 77.4687C99.5979 77.3506 99.6233 77.2288 99.6898 77.1291C99.7562 77.0293 99.8587 76.9593 99.9757 76.9337L125.987 71.7618C126.105 71.7383 126.228 71.7629 126.328 71.83C126.428 71.8971 126.497 72.0014 126.521 72.1198C126.544 72.2382 126.52 72.3611 126.453 72.4614C126.386 72.5618 126.282 72.6313 126.164 72.6548Z" fill="white"/>
<path d="M61.1379 95.6657L41.7899 99.5127C41.6718 99.5362 41.5492 99.5117 41.449 99.4445C41.3488 99.3774 41.2793 99.2732 41.2558 99.1547C41.2322 99.0363 41.2566 98.9134 41.3234 98.8131C41.3903 98.7127 41.4943 98.6432 41.6124 98.6197L60.9604 94.7727C61.0785 94.7492 61.2011 94.7737 61.3013 94.8409C61.4015 94.908 61.471 95.0122 61.4945 95.1306C61.5157 95.2488 61.4903 95.3705 61.4238 95.4703C61.3573 95.57 61.2549 95.6401 61.1379 95.6657Z" fill="white"/>
<path d="M71.6318 93.5818L64.8173 94.9368C64.6992 94.9602 64.5765 94.9357 64.4763 94.8686C64.3762 94.8015 64.3067 94.6972 64.2831 94.5788C64.2596 94.4604 64.2839 94.3375 64.3508 94.2372C64.4177 94.1368 64.5216 94.0673 64.6397 94.0438L71.4543 92.6888C71.5724 92.6653 71.6951 92.6898 71.7952 92.757C71.8954 92.8241 71.9649 92.9283 71.9885 93.0468C72.0096 93.1649 71.9842 93.2866 71.9177 93.3864C71.8513 93.4861 71.7488 93.5562 71.6318 93.5818Z" fill="url(#paint10_linear_2015_8822)"/>
<path d="M88.53 90.2195L74.9276 92.9241C74.8095 92.9475 74.6869 92.923 74.5867 92.8559C74.4865 92.7888 74.417 92.6845 74.3935 92.5661C74.3699 92.4477 74.3943 92.3248 74.4611 92.2245C74.528 92.1241 74.632 92.0546 74.7501 92.0311L88.3525 89.3265C88.4706 89.303 88.5932 89.3275 88.6934 89.3946C88.7936 89.4618 88.8631 89.566 88.8866 89.6844C88.9102 89.8028 88.8858 89.9257 88.8189 90.0261C88.7521 90.1264 88.6481 90.196 88.53 90.2195Z" fill="url(#paint11_linear_2015_8822)"/>
<path d="M55.56 101.984L42.786 104.524C42.6679 104.547 42.5453 104.523 42.4451 104.456C42.3449 104.388 42.2754 104.284 42.2519 104.166C42.2283 104.047 42.2527 103.924 42.3195 103.824C42.3864 103.724 42.4904 103.654 42.6085 103.631L55.3824 101.091C55.5005 101.067 55.6232 101.092 55.7234 101.159C55.8235 101.226 55.893 101.33 55.9166 101.449C55.9377 101.567 55.9124 101.689 55.8459 101.788C55.7794 101.888 55.6769 101.958 55.56 101.984Z" fill="white"/>
<path d="M112.161 90.7284L58.8915 101.32C58.7734 101.344 58.6507 101.319 58.5506 101.252C58.4504 101.185 58.3809 101.081 58.3573 100.962C58.3338 100.844 58.3581 100.721 58.425 100.62C58.4919 100.52 58.5958 100.451 58.714 100.427L111.983 89.8354C112.101 89.812 112.224 89.8365 112.324 89.9036C112.424 89.9707 112.494 90.075 112.517 90.1934C112.529 90.252 112.529 90.3124 112.517 90.371C112.506 90.4296 112.483 90.4854 112.45 90.535C112.417 90.5847 112.374 90.6274 112.324 90.6606C112.275 90.6937 112.219 90.7168 112.161 90.7284Z" fill="url(#paint12_linear_2015_8822)"/>
<path d="M143.579 84.4816L116.187 89.928C116.069 89.9515 115.947 89.9269 115.846 89.8598C115.746 89.7927 115.677 89.6884 115.653 89.57C115.63 89.4516 115.654 89.3287 115.721 89.2284C115.788 89.128 115.892 89.0585 116.01 89.035L143.402 83.5886C143.52 83.5651 143.642 83.5896 143.743 83.6568C143.843 83.7239 143.912 83.8281 143.936 83.9466C143.957 84.0647 143.932 84.1864 143.865 84.2862C143.799 84.3859 143.696 84.456 143.579 84.4816Z" fill="url(#paint13_linear_2015_8822)"/>
<path d="M89.9461 100.976L42.8856 110.333C42.7675 110.357 42.6449 110.332 42.5447 110.265C42.4445 110.198 42.375 110.094 42.3515 109.976C42.3279 109.857 42.3523 109.734 42.4191 109.634C42.486 109.534 42.59 109.464 42.7081 109.44L89.7686 100.083C89.8867 100.06 90.0093 100.084 90.1095 100.152C90.2097 100.219 90.2792 100.323 90.3027 100.441C90.3144 100.5 90.3144 100.56 90.3028 100.619C90.2912 100.678 90.2682 100.733 90.2351 100.783C90.2019 100.833 90.1594 100.875 90.1098 100.908C90.0602 100.942 90.0046 100.965 89.9461 100.976Z" fill="white"/>
<path d="M108.412 97.3032L93.9726 100.174C93.8544 100.198 93.7318 100.173 93.6316 100.106C93.5314 100.039 93.4619 99.9348 93.4384 99.8164C93.4173 99.6982 93.4426 99.5765 93.5091 99.4767C93.5756 99.377 93.678 99.3069 93.795 99.2813L108.235 96.4102C108.353 96.3868 108.475 96.4113 108.576 96.4784C108.676 96.5455 108.745 96.6498 108.769 96.7682C108.792 96.8866 108.768 97.0095 108.701 97.1098C108.634 97.2102 108.53 97.2797 108.412 97.3032Z" fill="url(#paint14_linear_2015_8822)"/>
<path d="M22.7288 62.3295C23.5357 62.169 24.0593 61.3833 23.8985 60.5745C23.7377 59.7657 22.9533 59.24 22.1464 59.4004C21.3396 59.5609 20.8159 60.3466 20.9767 61.1554C21.1376 61.9642 21.922 62.4899 22.7288 62.3295Z" fill="white"/>
<path d="M23.7855 67.6422C24.5923 67.4818 25.116 66.696 24.9552 65.8872C24.7943 65.0784 24.0099 64.5528 23.2031 64.7132C22.3963 64.8736 21.8726 65.6593 22.0334 66.4682C22.1942 67.277 22.9786 67.8026 23.7855 67.6422Z" fill="white"/>
<path d="M24.8411 72.9549C25.648 72.7945 26.1717 72.0088 26.0108 71.2C25.85 70.3911 25.0656 69.8655 24.2587 70.0259C23.4519 70.1864 22.9282 70.9721 23.089 71.7809C23.2499 72.5897 24.0343 73.1154 24.8411 72.9549Z" fill="white"/>
<path d="M26.8109 82.859C27.6177 82.6986 28.1414 81.9128 27.9806 81.104C27.8197 80.2952 27.0353 79.7696 26.2285 79.93C25.4216 80.0904 24.8979 80.8761 25.0588 81.685C25.2196 82.4938 26.004 83.0194 26.8109 82.859Z" fill="white"/>
<path d="M27.8675 88.1727C28.6743 88.0123 29.198 87.2266 29.0372 86.4177C28.8764 85.6089 28.0919 85.0833 27.2851 85.2437C26.4783 85.4041 25.9546 86.1899 26.1154 86.9987C26.2762 87.8075 27.0607 88.3331 27.8675 88.1727Z" fill="white"/>
<path d="M28.9232 93.4842C29.73 93.3238 30.2537 92.5381 30.0929 91.7293C29.932 90.9204 29.1476 90.3948 28.3408 90.5552C27.5339 90.7157 27.0103 91.5014 27.1711 92.3102C27.3319 93.119 28.1163 93.6447 28.9232 93.4842Z" fill="white"/>
<path d="M30.7679 102.764C31.5747 102.604 32.0984 101.818 31.9376 101.009C31.7768 100.2 30.9923 99.6746 30.1855 99.835C29.3787 99.9954 28.855 100.781 29.0158 101.59C29.1766 102.399 29.9611 102.924 30.7679 102.764Z" fill="white"/>
<path d="M31.8245 108.076C32.6314 107.915 33.1551 107.13 32.9942 106.321C32.8334 105.512 32.049 104.986 31.2421 105.147C30.4353 105.307 29.9116 106.093 30.0724 106.902C30.2333 107.711 31.0177 108.236 31.8245 108.076Z" fill="white"/>
<path d="M32.8792 113.38C33.686 113.219 34.2097 112.433 34.0489 111.625C33.8881 110.816 33.1037 110.29 32.2968 110.45C31.49 110.611 30.9663 111.397 31.1271 112.205C31.2879 113.014 32.0724 113.54 32.8792 113.38Z" fill="white"/>
<path d="M220.086 156.392C232.493 153.925 240.547 141.842 238.073 129.404C235.6 116.965 223.537 108.882 211.13 111.349C198.722 113.816 190.669 125.899 193.142 138.337C195.615 150.776 207.678 158.859 220.086 156.392Z" fill="white"/>
<path d="M220.174 156.837C215.643 157.738 210.946 157.272 206.676 155.497C202.407 153.723 198.757 150.72 196.188 146.868C193.62 143.016 192.248 138.488 192.246 133.857C192.244 129.226 193.612 124.699 196.178 120.85C198.744 117.001 202.391 114.002 206.659 112.232C210.927 110.462 215.624 110.001 220.156 110.907C224.688 111.813 228.852 114.045 232.121 117.322C235.389 120.598 237.616 124.771 238.519 129.314C239.723 135.405 238.467 141.723 235.028 146.883C231.589 152.042 226.247 155.622 220.174 156.837ZM211.22 111.804C206.865 112.67 202.864 114.811 199.725 117.957C196.586 121.103 194.45 125.113 193.585 129.478C192.721 133.844 193.168 138.369 194.87 142.482C196.572 146.596 199.452 150.112 203.146 152.586C206.84 155.06 211.183 156.382 215.624 156.383C220.065 156.385 224.406 155.066 228.097 152.594C231.788 150.121 234.664 146.607 236.36 142.495C238.057 138.382 238.498 133.857 237.628 129.491C236.458 123.641 233.02 118.493 228.069 115.177C223.118 111.861 217.058 110.648 211.22 111.804Z" fill="#282929"/>
<path d="M228.747 148.356L228.753 148.35C229.687 147.526 229.776 146.099 228.954 145.163L225.314 141.021C224.492 140.085 223.068 139.993 222.135 140.817L222.128 140.823C221.195 141.647 221.105 143.073 221.928 144.01L225.567 148.152C226.39 149.088 227.813 149.179 228.747 148.356Z" fill="white"/>
<path d="M227.775 149.329C227.544 149.377 227.307 149.393 227.071 149.376C226.716 149.355 226.369 149.262 226.049 149.104C225.73 148.946 225.445 148.726 225.212 148.456L221.611 144.317C221.139 143.775 220.899 143.068 220.943 142.35C220.988 141.632 221.313 140.961 221.849 140.482C222.389 140.009 223.094 139.769 223.811 139.815C224.527 139.86 225.197 140.187 225.675 140.724L229.278 144.872C229.75 145.415 229.988 146.123 229.942 146.842C229.896 147.56 229.569 148.231 229.031 148.708C228.674 149.022 228.241 149.236 227.775 149.329ZM223.301 140.797C222.989 140.859 222.698 141 222.456 141.206C222.099 141.525 221.882 141.973 221.852 142.451C221.823 142.93 221.983 143.401 222.297 143.763L225.898 147.902C226.231 148.197 226.659 148.36 227.103 148.36C227.546 148.361 227.975 148.198 228.307 147.904C228.639 147.609 228.852 147.203 228.906 146.762C228.96 146.321 228.85 145.875 228.599 145.508L224.998 141.369C224.683 141.009 224.24 140.787 223.764 140.751C223.608 140.749 223.453 140.764 223.301 140.797Z" fill="#282929"/>
<path d="M218.298 147.399C226.086 145.851 231.141 138.267 229.588 130.459C228.036 122.652 220.464 117.579 212.676 119.127C204.889 120.676 199.834 128.26 201.386 136.067C202.938 143.874 210.51 148.948 218.298 147.399Z" fill="white"/>
<path d="M218.415 147.848C217.149 148.1 215.856 148.185 214.567 148.103C212.621 147.984 210.717 147.479 208.966 146.618C207.215 145.756 205.651 144.556 204.365 143.086C202.207 140.628 200.918 137.526 200.697 134.261C200.476 130.995 201.337 127.749 203.145 125.026C204.953 122.303 207.607 120.254 210.697 119.198C213.786 118.142 217.138 118.138 220.232 119.186C223.326 120.234 225.99 122.275 227.81 124.994C229.63 127.712 230.505 130.956 230.299 134.222C230.093 137.488 228.818 140.593 226.671 143.056C224.524 145.52 221.625 147.204 218.424 147.847L218.415 147.848ZM212.794 119.576C210.398 120.055 208.171 121.158 206.337 122.774C204.502 124.389 203.125 126.461 202.344 128.781C201.562 131.1 201.404 133.585 201.885 135.987C202.366 138.388 203.469 140.621 205.084 142.46C206.697 144.303 208.766 145.688 211.083 146.476C213.399 147.263 215.881 147.426 218.279 146.947C220.676 146.468 222.905 145.365 224.742 143.748C226.578 142.131 227.956 140.058 228.738 137.736C229.52 135.415 229.679 132.928 229.197 130.524C228.715 128.121 227.611 125.886 225.995 124.046C224.379 122.205 222.308 120.823 219.99 120.038C217.673 119.254 215.191 119.094 212.794 119.576Z" fill="#282929"/>
<path d="M217.794 144.862C224.184 143.591 228.332 137.368 227.059 130.961C225.785 124.555 219.571 120.391 213.181 121.662C206.79 122.933 202.642 129.156 203.916 135.563C205.19 141.969 211.403 146.132 217.794 144.862Z" fill="#282929"/>
<defs>
<linearGradient id="paint0_linear_2015_8822" x1="19.3287" y1="49.3588" x2="22.8652" y2="49.2387" gradientUnits="userSpaceOnUse">
<stop stop-color="#FFB11B"/>
<stop offset="1" stop-color="#FF441B"/>
</linearGradient>
<linearGradient id="paint1_linear_2015_8822" x1="26.0016" y1="48.0331" x2="29.5381" y2="47.913" gradientUnits="userSpaceOnUse">
<stop stop-color="#FFB11B"/>
<stop offset="1" stop-color="#FF441B"/>
</linearGradient>
<linearGradient id="paint2_linear_2015_8822" x1="32.5631" y1="46.7284" x2="36.0996" y2="46.6083" gradientUnits="userSpaceOnUse">
<stop stop-color="#FFB11B"/>
<stop offset="1" stop-color="#FF441B"/>
</linearGradient>
<linearGradient id="paint3_linear_2015_8822" x1="57.1641" y1="52.939" x2="61.1239" y2="56.3663" gradientUnits="userSpaceOnUse">
<stop stop-color="#FFB11B"/>
<stop offset="1" stop-color="#FF441B"/>
</linearGradient>
<linearGradient id="paint4_linear_2015_8822" x1="67.6763" y1="50.8493" x2="71.0164" y2="56.04" gradientUnits="userSpaceOnUse">
<stop stop-color="#FFB11B"/>
<stop offset="1" stop-color="#FF441B"/>
</linearGradient>
<linearGradient id="paint5_linear_2015_8822" x1="56.698" y1="58.897" x2="58.6322" y2="65.2082" gradientUnits="userSpaceOnUse">
<stop stop-color="#FFB11B"/>
<stop offset="1" stop-color="#FF441B"/>
</linearGradient>
<linearGradient id="paint6_linear_2015_8822" x1="87.1227" y1="58.438" x2="90.2072" y2="63.942" gradientUnits="userSpaceOnUse">
<stop stop-color="#FFB11B"/>
<stop offset="1" stop-color="#FF441B"/>
</linearGradient>
<linearGradient id="paint7_linear_2015_8822" x1="49.2947" y1="76.0867" x2="52.3541" y2="81.6176" gradientUnits="userSpaceOnUse">
<stop stop-color="#FFB11B"/>
<stop offset="1" stop-color="#FF441B"/>
</linearGradient>
<linearGradient id="paint8_linear_2015_8822" x1="57.8024" y1="79.6108" x2="60.2959" y2="85.6204" gradientUnits="userSpaceOnUse">
<stop stop-color="#FFB11B"/>
<stop offset="1" stop-color="#FF441B"/>
</linearGradient>
<linearGradient id="paint9_linear_2015_8822" x1="66.2363" y1="83.523" x2="68.5361" y2="89.6531" gradientUnits="userSpaceOnUse">
<stop stop-color="#FFB11B"/>
<stop offset="1" stop-color="#FF441B"/>
</linearGradient>
<linearGradient id="paint10_linear_2015_8822" x1="65.0012" y1="93.7592" x2="68.9307" y2="97.4927" gradientUnits="userSpaceOnUse">
<stop stop-color="#FFB11B"/>
<stop offset="1" stop-color="#FF441B"/>
</linearGradient>
<linearGradient id="paint11_linear_2015_8822" x1="75.8582" y1="91.598" x2="79.1331" y2="96.8763" gradientUnits="userSpaceOnUse">
<stop stop-color="#FFB11B"/>
<stop offset="1" stop-color="#FF441B"/>
</linearGradient>
<linearGradient id="paint12_linear_2015_8822" x1="64.1855" y1="99.1264" x2="66.1135" y2="105.44" gradientUnits="userSpaceOnUse">
<stop stop-color="#FFB11B"/>
<stop offset="1" stop-color="#FF441B"/>
</linearGradient>
<linearGradient id="paint13_linear_2015_8822" x1="118.635" y1="88.3003" x2="121.089" y2="94.3357" gradientUnits="userSpaceOnUse">
<stop stop-color="#FFB11B"/>
<stop offset="1" stop-color="#FF441B"/>
</linearGradient>
<linearGradient id="paint14_linear_2015_8822" x1="94.9953" y1="98.8299" x2="98.1952" y2="104.202" gradientUnits="userSpaceOnUse">
<stop stop-color="#FFB11B"/>
<stop offset="1" stop-color="#FF441B"/>
</linearGradient>
</defs>
</svg>
