<svg width="276" height="209" viewBox="0 0 276 209" fill="none" xmlns="http://www.w3.org/2000/svg">
<path d="M253.729 17.831L38.7606 0.629095C34.2486 0.268037 30.2967 3.65032 29.934 8.18364L18.0753 156.379C17.7125 160.912 21.0762 164.88 25.5883 165.241L240.557 182.443C245.069 182.804 249.02 179.421 249.383 174.888L261.242 26.6931C261.605 22.1598 258.241 18.1921 253.729 17.831Z" fill="white"/>
<path d="M240.513 182.975L25.5452 165.774C23.2548 165.576 21.1348 164.479 19.6447 162.722C18.1546 160.964 17.4144 158.687 17.5844 156.383L29.4466 8.14479C29.6312 5.83807 30.7203 3.6988 32.4742 2.19761C34.2282 0.696414 36.5034 -0.0437358 38.7993 0.139985L253.768 17.3419C256.064 17.5257 258.192 18.6182 259.685 20.3792C261.178 22.1402 261.913 24.4255 261.728 26.7322L249.869 174.938C249.781 176.083 249.47 177.2 248.952 178.224C248.434 179.249 247.72 180.161 246.851 180.907C245.982 181.654 244.975 182.221 243.887 182.576C242.799 182.931 241.653 183.067 240.513 182.975ZM38.7175 1.16195C36.6904 0.999732 34.6814 1.65247 33.1319 2.97683C31.5823 4.30118 30.6188 6.18886 30.4529 8.22532L18.5934 156.431C18.4333 158.468 19.0843 160.485 20.4036 162.039C21.7228 163.593 23.6024 164.557 25.6296 164.719L240.598 181.921C242.623 182.08 244.63 181.426 246.177 180.102C247.724 178.777 248.686 176.891 248.852 174.857L260.711 26.6508C260.871 24.6158 260.221 22.6006 258.905 21.0472C257.588 19.4938 255.711 18.5288 253.686 18.3639L38.7175 1.16195Z" fill="#282929"/>
<path d="M251.638 39.0836L37.4375 21.9432L26.6611 156.614L240.861 173.754L251.638 39.0836Z" fill="#1F1F1F"/>
<path d="M240.816 174.302L26.6161 157.162C26.4726 157.151 26.3396 157.082 26.2463 156.972C26.1529 156.862 26.107 156.719 26.1185 156.575L36.895 21.9048C36.9065 21.7606 36.9746 21.6269 37.0842 21.5331C37.1938 21.4393 37.336 21.393 37.4795 21.4045L251.734 38.5493C251.877 38.5608 252.01 38.6291 252.103 38.7391C252.197 38.8492 252.243 38.992 252.231 39.1362L241.455 173.807C241.449 173.883 241.427 173.957 241.391 174.024C241.355 174.092 241.305 174.151 241.245 174.197C241.185 174.244 241.116 174.278 241.042 174.296C240.968 174.314 240.891 174.316 240.816 174.302ZM27.2766 156.121L240.449 173.179L251.138 39.5958L37.966 22.5376L27.2766 156.121Z" fill="#282929"/>
<path d="M252.648 26.4536L38.4482 9.31311L37.4373 21.9463L251.637 39.0867L252.648 26.4536Z" fill="#282929"/>
<path d="M251.593 39.6286L37.3933 22.4881C37.2498 22.4767 37.1168 22.4084 37.0235 22.2983C36.9302 22.1882 36.8842 22.0454 36.8958 21.9012L37.9067 9.26808C37.9182 9.12391 37.9863 8.99021 38.0959 8.89638C38.2055 8.80256 38.3477 8.7563 38.4912 8.76778L252.745 25.9126C252.889 25.9241 253.022 25.9923 253.115 26.1024C253.208 26.2125 253.254 26.3553 253.243 26.4995L252.232 39.1326C252.226 39.2089 252.205 39.283 252.169 39.3504C252.132 39.4177 252.083 39.4766 252.022 39.5234C251.962 39.5702 251.893 39.6037 251.819 39.6218C251.745 39.64 251.668 39.6423 251.593 39.6286ZM38.0538 21.4468L251.226 38.505L252.15 26.9591L38.9778 9.90087L38.0538 21.4468Z" fill="#282929"/>
<path d="M79.3111 38.7871L60.9156 37.3151C60.8463 37.311 60.7786 37.2931 60.7164 37.2623C60.6542 37.2316 60.5987 37.1887 60.5532 37.1362C60.5077 37.0836 60.4731 37.0225 60.4515 36.9563C60.4298 36.8901 60.4215 36.8203 60.4271 36.7508C60.4384 36.6095 60.5051 36.4785 60.6125 36.3865C60.72 36.2946 60.8593 36.2493 61 36.2605L79.3955 37.7325C79.4646 37.7381 79.532 37.7574 79.5936 37.7894C79.6551 37.8214 79.7097 37.8654 79.7541 37.9189C79.7985 37.9724 79.8319 38.0343 79.8521 38.1009C79.8724 38.1675 79.8793 38.2375 79.8723 38.3068C79.8682 38.3759 79.8503 38.4434 79.8196 38.5053C79.7889 38.5673 79.7461 38.6223 79.6936 38.6672C79.6412 38.7121 79.5803 38.7458 79.5146 38.7665C79.4488 38.7871 79.3796 38.7941 79.3111 38.7871Z" fill="white"/>
<path d="M120.81 42.1081L84.0191 39.164C83.9504 39.16 83.8832 39.1421 83.8216 39.1113C83.7599 39.0805 83.7051 39.0375 83.6605 38.9848C83.6159 38.9322 83.5823 38.871 83.5619 38.805C83.5414 38.7389 83.5345 38.6694 83.5415 38.6006C83.5456 38.531 83.5635 38.463 83.5941 38.4005C83.6247 38.3379 83.6675 38.2822 83.7198 38.2364C83.7722 38.1907 83.8331 38.1559 83.899 38.1341C83.9648 38.1123 84.0344 38.1039 84.1035 38.1094L120.895 41.0535C121.035 41.0648 121.166 41.1317 121.257 41.2395C121.349 41.3474 121.394 41.4874 121.382 41.6287C121.377 41.6981 121.357 41.7658 121.325 41.8277C121.294 41.8895 121.25 41.9444 121.196 41.9891C121.143 42.0337 121.082 42.0673 121.015 42.0877C120.949 42.1081 120.879 42.1151 120.81 42.1081Z" fill="#D9D9D9"/>
<path d="M120.81 42.1081L84.0191 39.164C83.9504 39.16 83.8832 39.1421 83.8216 39.1113C83.7599 39.0805 83.7051 39.0375 83.6605 38.9848C83.6159 38.9322 83.5823 38.871 83.5619 38.805C83.5414 38.7389 83.5345 38.6694 83.5415 38.6006C83.5456 38.531 83.5635 38.463 83.5941 38.4005C83.6247 38.3379 83.6675 38.2822 83.7198 38.2364C83.7722 38.1907 83.8331 38.1559 83.899 38.1341C83.9648 38.1123 84.0344 38.1039 84.1035 38.1094L120.895 41.0535C121.035 41.0648 121.166 41.1317 121.257 41.2395C121.349 41.3474 121.394 41.4874 121.382 41.6287C121.377 41.6981 121.357 41.7658 121.325 41.8277C121.294 41.8895 121.25 41.9444 121.196 41.9891C121.143 42.0337 121.082 42.0673 121.015 42.0877C120.949 42.1081 120.879 42.1151 120.81 42.1081Z" fill="url(#paint0_linear_2015_9135)"/>
<path d="M132.905 50.8689L96.1142 47.9248C95.9707 47.9133 95.8377 47.845 95.7444 47.735C95.6511 47.6249 95.6051 47.4821 95.6167 47.3379C95.6282 47.1937 95.6963 47.06 95.8059 46.9662C95.9155 46.8724 96.0577 46.8261 96.2012 46.8376L132.992 49.7817C133.136 49.7931 133.269 49.8614 133.362 49.9715C133.455 50.0816 133.501 50.2244 133.49 50.3686C133.478 50.5127 133.41 50.6464 133.301 50.7403C133.191 50.8341 133.049 50.8803 132.905 50.8689Z" fill="#D9D9D9"/>
<path d="M132.905 50.8689L96.1142 47.9248C95.9707 47.9133 95.8377 47.845 95.7444 47.735C95.6511 47.6249 95.6051 47.4821 95.6167 47.3379C95.6282 47.1937 95.6963 47.06 95.8059 46.9662C95.9155 46.8724 96.0577 46.8261 96.2012 46.8376L132.992 49.7817C133.136 49.7931 133.269 49.8614 133.362 49.9715C133.455 50.0816 133.501 50.2244 133.49 50.3686C133.478 50.5127 133.41 50.6464 133.301 50.7403C133.191 50.8341 133.049 50.8803 132.905 50.8689Z" fill="url(#paint1_linear_2015_9135)"/>
<path d="M83.0098 46.8772L64.6142 45.4052C64.4707 45.3937 64.3377 45.3254 64.2444 45.2154C64.1511 45.1053 64.1051 44.9625 64.1167 44.8183C64.1282 44.6741 64.1963 44.5404 64.3059 44.4466C64.4155 44.3528 64.5577 44.3065 64.7012 44.318L83.0968 45.79C83.2403 45.8015 83.3733 45.8698 83.4666 45.9799C83.5599 46.0899 83.6058 46.2328 83.5943 46.3769C83.5828 46.5211 83.5147 46.6548 83.4051 46.7486C83.2955 46.8425 83.1533 46.8887 83.0098 46.8772Z" fill="white"/>
<path d="M86.7203 54.9525L68.3247 53.4805C68.1841 53.4692 68.0537 53.4023 67.9623 53.2944C67.8709 53.1866 67.8258 53.0466 67.8371 52.9053C67.8427 52.8359 67.862 52.7682 67.8939 52.7063C67.9258 52.6444 67.9696 52.5896 68.0229 52.5449C68.0762 52.5003 68.1378 52.4667 68.2041 52.4463C68.2704 52.4259 68.3401 52.4189 68.4091 52.4259L86.8047 53.8979C86.8734 53.9019 86.9406 53.9199 87.0022 53.9507C87.0639 53.9815 87.1186 54.0245 87.1633 54.0771C87.2079 54.1298 87.2415 54.191 87.2619 54.257C87.2824 54.323 87.2893 54.3925 87.2823 54.4613C87.2782 54.5309 87.2603 54.5989 87.2297 54.6615C87.1991 54.724 87.1563 54.7798 87.104 54.8255C87.0516 54.8713 86.9907 54.9061 86.9249 54.9279C86.859 54.9497 86.7894 54.9581 86.7203 54.9525Z" fill="white"/>
<path d="M138.855 59.1237L92.8551 55.4428C92.7859 55.4372 92.7186 55.4179 92.657 55.3859C92.5954 55.3539 92.5408 55.3099 92.4964 55.2564C92.452 55.2029 92.4187 55.141 92.3984 55.0744C92.3781 55.0078 92.3713 54.9378 92.3783 54.8685C92.3823 54.7994 92.4002 54.7319 92.4309 54.67C92.4616 54.608 92.5045 54.553 92.5569 54.5081C92.6093 54.4632 92.6703 54.4294 92.736 54.4088C92.8017 54.3882 92.8709 54.3812 92.9394 54.3882L138.939 58.0691C139.008 58.0732 139.076 58.0911 139.138 58.1218C139.201 58.1526 139.256 58.1955 139.302 58.248C139.347 58.3006 139.382 58.3617 139.403 58.4279C139.425 58.4941 139.433 58.5639 139.428 58.6334C139.416 58.7747 139.35 58.9057 139.242 58.9977C139.135 59.0896 138.995 59.1349 138.855 59.1237Z" fill="#D9D9D9"/>
<path d="M138.855 59.1237L92.8551 55.4428C92.7859 55.4372 92.7186 55.4179 92.657 55.3859C92.5954 55.3539 92.5408 55.3099 92.4964 55.2564C92.452 55.2029 92.4187 55.141 92.3984 55.0744C92.3781 55.0078 92.3713 54.9378 92.3783 54.8685C92.3823 54.7994 92.4002 54.7319 92.4309 54.67C92.4616 54.608 92.5045 54.553 92.5569 54.5081C92.6093 54.4632 92.6703 54.4294 92.736 54.4088C92.8017 54.3882 92.8709 54.3812 92.9394 54.3882L138.939 58.0691C139.008 58.0732 139.076 58.0911 139.138 58.1218C139.201 58.1526 139.256 58.1955 139.302 58.248C139.347 58.3006 139.382 58.3617 139.403 58.4279C139.425 58.4941 139.433 58.5639 139.428 58.6334C139.416 58.7747 139.35 58.9057 139.242 58.9977C139.135 59.0896 138.995 59.1349 138.855 59.1237Z" fill="url(#paint2_linear_2015_9135)"/>
<path d="M90.4175 63.0253L72.0219 61.5533C71.8834 61.5393 71.7559 61.4714 71.6668 61.364C71.5776 61.2567 71.534 61.1184 71.5451 60.979C71.5562 60.8406 71.6216 60.7122 71.7268 60.6222C71.832 60.5321 71.9685 60.4877 72.1063 60.4987L90.5019 61.9707C90.5711 61.9748 90.6388 61.9927 90.701 62.0235C90.7633 62.0542 90.8187 62.0971 90.8642 62.1496C90.9097 62.2022 90.9443 62.2634 90.966 62.3295C90.9876 62.3957 90.9959 62.4656 90.9903 62.535C90.979 62.6763 90.9123 62.8073 90.8049 62.8993C90.6975 62.9912 90.5581 63.0366 90.4175 63.0253Z" fill="white"/>
<path d="M147.748 67.612L93.0591 63.2357C92.9185 63.2245 92.7881 63.1576 92.6967 63.0497C92.6052 62.9418 92.5602 62.8019 92.5715 62.6606C92.5771 62.5911 92.5963 62.5235 92.6282 62.4616C92.6601 62.3997 92.704 62.3448 92.7573 62.3002C92.8106 62.2555 92.8722 62.222 92.9385 62.2015C93.0048 62.1811 93.0745 62.1742 93.1435 62.1812L147.832 66.5574C147.902 66.5615 147.969 66.5794 148.032 66.6101C148.094 66.6409 148.149 66.6838 148.195 66.7363C148.24 66.7889 148.275 66.85 148.297 66.9162C148.318 66.9824 148.326 67.0522 148.321 67.1217C148.31 67.263 148.243 67.394 148.135 67.486C148.028 67.5779 147.889 67.6232 147.748 67.612Z" fill="#D9D9D9"/>
<path d="M147.748 67.612L93.0591 63.2357C92.9185 63.2245 92.7881 63.1576 92.6967 63.0497C92.6052 62.9418 92.5602 62.8019 92.5715 62.6606C92.5771 62.5911 92.5963 62.5235 92.6282 62.4616C92.6601 62.3997 92.704 62.3448 92.7573 62.3002C92.8106 62.2555 92.8722 62.222 92.9385 62.2015C93.0048 62.1811 93.0745 62.1742 93.1435 62.1812L147.832 66.5574C147.902 66.5615 147.969 66.5794 148.032 66.6101C148.094 66.6409 148.149 66.6838 148.195 66.7363C148.24 66.7889 148.275 66.85 148.297 66.9162C148.318 66.9824 148.326 67.0522 148.321 67.1217C148.31 67.263 148.243 67.394 148.135 67.486C148.028 67.5779 147.889 67.6232 147.748 67.612Z" fill="url(#paint3_linear_2015_9135)"/>
<path d="M84.9189 70.3661L66.5234 68.894C66.3799 68.8826 66.2469 68.8143 66.1535 68.7042C66.0602 68.5941 66.0143 68.4513 66.0258 68.3071C66.0374 68.163 66.1054 68.0293 66.2151 67.9354C66.3247 67.8416 66.4669 67.7954 66.6104 67.8068L85.0059 69.2789C85.1494 69.2904 85.2825 69.3586 85.3758 69.4687C85.4691 69.5788 85.515 69.7216 85.5035 69.8658C85.4919 70.0099 85.4239 70.1436 85.3143 70.2375C85.2046 70.3313 85.0624 70.3775 84.9189 70.3661Z" fill="white"/>
<path d="M118.334 73.0398L88.6738 70.6664C88.5303 70.6549 88.3972 70.5866 88.3039 70.4765C88.2106 70.3665 88.1647 70.2237 88.1762 70.0795C88.1878 69.9353 88.2558 69.8016 88.3655 69.7078C88.4751 69.614 88.6173 69.5677 88.7608 69.5792L118.421 71.9526C118.564 71.9641 118.697 72.0324 118.791 72.1424C118.884 72.2525 118.93 72.3953 118.918 72.5395C118.907 72.6837 118.839 72.8174 118.729 72.9112C118.62 73.005 118.477 73.0513 118.334 73.0398Z" fill="#D9D9D9"/>
<path d="M118.334 73.0398L88.6738 70.6664C88.5303 70.6549 88.3972 70.5866 88.3039 70.4765C88.2106 70.3665 88.1647 70.2237 88.1762 70.0795C88.1878 69.9353 88.2558 69.8016 88.3655 69.7078C88.4751 69.614 88.6173 69.5677 88.7608 69.5792L118.421 71.9526C118.564 71.9641 118.697 72.0324 118.791 72.1424C118.884 72.2525 118.93 72.3953 118.918 72.5395C118.907 72.6837 118.839 72.8174 118.729 72.9112C118.62 73.005 118.477 73.0513 118.334 73.0398Z" fill="url(#paint4_linear_2015_9135)"/>
<path d="M159.324 76.3201L129.685 73.9484C129.542 73.9369 129.409 73.8686 129.316 73.7585C129.222 73.6485 129.176 73.5056 129.188 73.3615C129.199 73.2173 129.268 73.0836 129.377 72.9898C129.487 72.8959 129.629 72.8497 129.772 72.8612L159.433 75.2346C159.576 75.2461 159.709 75.3144 159.802 75.4244C159.896 75.5345 159.942 75.6773 159.93 75.8215C159.919 75.9657 159.851 76.0994 159.741 76.1932C159.631 76.287 159.489 76.3333 159.346 76.3218L159.324 76.3201Z" fill="#D9D9D9"/>
<path d="M159.324 76.3201L129.685 73.9484C129.542 73.9369 129.409 73.8686 129.316 73.7585C129.222 73.6485 129.176 73.5056 129.188 73.3615C129.199 73.2173 129.268 73.0836 129.377 72.9898C129.487 72.8959 129.629 72.8497 129.772 72.8612L159.433 75.2346C159.576 75.2461 159.709 75.3144 159.802 75.4244C159.896 75.5345 159.942 75.6773 159.93 75.8215C159.919 75.9657 159.851 76.0994 159.741 76.1932C159.631 76.287 159.489 76.3333 159.346 76.3218L159.324 76.3201Z" fill="url(#paint5_linear_2015_9135)"/>
<path d="M84.3008 78.093L65.9052 76.621C65.7617 76.6095 65.6287 76.5412 65.5354 76.4311C65.4421 76.3211 65.3961 76.1782 65.4077 76.0341C65.4192 75.8899 65.4873 75.7562 65.5969 75.6624C65.7065 75.5686 65.8487 75.5223 65.9922 75.5338L84.3878 77.0058C84.5313 77.0173 84.6643 77.0856 84.7576 77.1956C84.8509 77.3057 84.8969 77.4485 84.8853 77.5927C84.8738 77.7369 84.8057 77.8706 84.6961 77.9644C84.5865 78.0582 84.4443 78.1045 84.3008 78.093Z" fill="white"/>
<path d="M117.717 80.7677L91.8222 78.6956C91.6787 78.6841 91.5457 78.6159 91.4524 78.5058C91.3591 78.3957 91.3131 78.2529 91.3247 78.1087C91.3362 77.9645 91.4043 77.8309 91.5139 77.737C91.6235 77.6432 91.7657 77.5969 91.9092 77.6084L117.804 79.6805C117.947 79.692 118.08 79.7603 118.173 79.8704C118.267 79.9804 118.313 80.1232 118.301 80.2674C118.29 80.4116 118.222 80.5453 118.112 80.6391C118.002 80.7329 117.86 80.7792 117.717 80.7677Z" fill="#D9D9D9"/>
<path d="M117.717 80.7677L91.8222 78.6956C91.6787 78.6841 91.5457 78.6159 91.4524 78.5058C91.3591 78.3957 91.3131 78.2529 91.3247 78.1087C91.3362 77.9645 91.4043 77.8309 91.5139 77.737C91.6235 77.6432 91.7657 77.5969 91.9092 77.6084L117.804 79.6805C117.947 79.692 118.08 79.7603 118.173 79.8704C118.267 79.9804 118.313 80.1232 118.301 80.2674C118.29 80.4116 118.222 80.5453 118.112 80.6391C118.002 80.7329 117.86 80.7792 117.717 80.7677Z" fill="url(#paint6_linear_2015_9135)"/>
<path d="M132.671 81.9648L122.088 81.1179C121.944 81.1064 121.811 81.0382 121.718 80.9281C121.625 80.818 121.579 80.6752 121.59 80.531C121.602 80.3869 121.67 80.2532 121.78 80.1593C121.889 80.0655 122.031 80.0192 122.175 80.0307L132.758 80.8776C132.901 80.8891 133.034 80.9573 133.128 81.0674C133.221 81.1775 133.267 81.3203 133.255 81.4645C133.244 81.6086 133.176 81.7423 133.066 81.8362C132.956 81.93 132.814 81.9762 132.671 81.9648Z" fill="#D9D9D9"/>
<path d="M132.671 81.9648L122.088 81.1179C121.944 81.1064 121.811 81.0382 121.718 80.9281C121.625 80.818 121.579 80.6752 121.59 80.531C121.602 80.3869 121.67 80.2532 121.78 80.1593C121.889 80.0655 122.031 80.0192 122.175 80.0307L132.758 80.8776C132.901 80.8891 133.034 80.9573 133.128 81.0674C133.221 81.1775 133.267 81.3203 133.255 81.4645C133.244 81.6086 133.176 81.7423 133.066 81.8362C132.956 81.93 132.814 81.9762 132.671 81.9648Z" fill="url(#paint7_linear_2015_9135)"/>
<path d="M83.6812 85.8271L65.2857 84.3551C65.2164 84.351 65.1487 84.333 65.0865 84.3023C65.0243 84.2716 64.9688 84.2287 64.9233 84.1762C64.8778 84.1236 64.8432 84.0624 64.8216 83.9963C64.7999 83.9301 64.7916 83.8602 64.7972 83.7908C64.8085 83.6495 64.8752 83.5185 64.9827 83.4265C65.0901 83.3346 65.2294 83.2892 65.3701 83.3005L83.7656 84.7725C83.8348 84.778 83.9021 84.7974 83.9637 84.8294C84.0252 84.8614 84.0798 84.9054 84.1242 84.9589C84.1686 85.0124 84.202 85.0742 84.2223 85.1408C84.2425 85.2075 84.2494 85.2775 84.2424 85.3468C84.2384 85.4159 84.2204 85.4834 84.1897 85.5453C84.159 85.6073 84.1162 85.6623 84.0638 85.7072C84.0113 85.7521 83.9504 85.7858 83.8847 85.8064C83.8189 85.827 83.7497 85.8341 83.6812 85.8271Z" fill="white"/>
<path d="M126.392 89.245L88.519 86.2144C88.3812 86.2033 88.2535 86.1378 88.164 86.0321C88.0744 85.9265 88.0303 85.7894 88.0414 85.651C88.0525 85.5115 88.1176 85.382 88.2226 85.2902C88.3277 85.1983 88.4644 85.1515 88.6034 85.1598L126.477 88.1904C126.617 88.2017 126.748 88.2686 126.839 88.3765C126.93 88.4843 126.975 88.6243 126.964 88.7656C126.959 88.835 126.939 88.9027 126.907 88.9646C126.876 89.0265 126.832 89.0814 126.778 89.126C126.725 89.1707 126.664 89.2042 126.597 89.2246C126.531 89.2451 126.461 89.252 126.392 89.245Z" fill="#D9D9D9"/>
<path d="M126.392 89.245L88.519 86.2144C88.3812 86.2033 88.2535 86.1378 88.164 86.0321C88.0744 85.9265 88.0303 85.7894 88.0414 85.651C88.0525 85.5115 88.1176 85.382 88.2226 85.2902C88.3277 85.1983 88.4644 85.1515 88.6034 85.1598L126.477 88.1904C126.617 88.2017 126.748 88.2686 126.839 88.3765C126.93 88.4843 126.975 88.6243 126.964 88.7656C126.959 88.835 126.939 88.9027 126.907 88.9646C126.876 89.0265 126.832 89.0814 126.778 89.126C126.725 89.1707 126.664 89.2042 126.597 89.2246C126.531 89.2451 126.461 89.252 126.392 89.245Z" fill="url(#paint8_linear_2015_9135)"/>
<path d="M149.267 91.0761L130.872 89.604C130.802 89.5999 130.735 89.582 130.672 89.5513C130.61 89.5206 130.555 89.4777 130.509 89.4251C130.464 89.3726 130.429 89.3114 130.408 89.2452C130.386 89.1791 130.378 89.1092 130.383 89.0397C130.394 88.8985 130.461 88.7674 130.569 88.6755C130.676 88.5835 130.815 88.5382 130.956 88.5494L149.352 90.0215C149.49 90.0354 149.618 90.1034 149.707 90.2107C149.796 90.3181 149.84 90.4563 149.828 90.5958C149.817 90.7342 149.752 90.8625 149.647 90.9526C149.541 91.0427 149.405 91.0871 149.267 91.0761Z" fill="#D9D9D9"/>
<path d="M149.267 91.0761L130.872 89.604C130.802 89.5999 130.735 89.582 130.672 89.5513C130.61 89.5206 130.555 89.4777 130.509 89.4251C130.464 89.3726 130.429 89.3114 130.408 89.2452C130.386 89.1791 130.378 89.1092 130.383 89.0397C130.394 88.8985 130.461 88.7674 130.569 88.6755C130.676 88.5835 130.815 88.5382 130.956 88.5494L149.352 90.0215C149.49 90.0354 149.618 90.1034 149.707 90.2107C149.796 90.3181 149.84 90.4563 149.828 90.5958C149.817 90.7342 149.752 90.8625 149.647 90.9526C149.541 91.0427 149.405 91.0871 149.267 91.0761Z" fill="url(#paint9_linear_2015_9135)"/>
<path d="M70.0903 92.516L60.3515 91.7367C60.208 91.7252 60.075 91.6569 59.9817 91.5468C59.8884 91.4368 59.8424 91.294 59.854 91.1498C59.8655 91.0056 59.9336 90.8719 60.0432 90.7781C60.1528 90.6843 60.295 90.638 60.4385 90.6495L70.1773 91.4288C70.3208 91.4403 70.4539 91.5086 70.5472 91.6186C70.6405 91.7287 70.6864 91.8715 70.6749 92.0157C70.6633 92.1599 70.5953 92.2936 70.4857 92.3874C70.376 92.4812 70.2338 92.5275 70.0903 92.516Z" fill="white"/>
<path d="M120.851 96.5774L78.1738 93.1623C78.0303 93.1508 77.8972 93.0825 77.8039 92.9724C77.7106 92.8624 77.6647 92.7196 77.6762 92.5754C77.6878 92.4312 77.7558 92.2975 77.8655 92.2037C77.9751 92.1099 78.1173 92.0636 78.2608 92.0751L120.938 95.4902C121.082 95.5017 121.215 95.57 121.308 95.68C121.402 95.7901 121.448 95.9329 121.436 96.0771C121.424 96.2213 121.356 96.355 121.247 96.4488C121.137 96.5426 120.995 96.5889 120.851 96.5774Z" fill="#D9D9D9"/>
<path d="M120.851 96.5774L78.1738 93.1623C78.0303 93.1508 77.8972 93.0825 77.8039 92.9724C77.7106 92.8624 77.6647 92.7196 77.6762 92.5754C77.6878 92.4312 77.7558 92.2975 77.8655 92.2037C77.9751 92.1099 78.1173 92.0636 78.2608 92.0751L120.938 95.4902C121.082 95.5017 121.215 95.57 121.308 95.68C121.402 95.7901 121.448 95.9329 121.436 96.0771C121.424 96.2213 121.356 96.355 121.247 96.4488C121.137 96.5426 120.995 96.5889 120.851 96.5774Z" fill="url(#paint10_linear_2015_9135)"/>
<path d="M78.1172 100.948L59.7216 99.4759C59.5781 99.4644 59.4451 99.3961 59.3518 99.2861C59.2585 99.176 59.2125 99.0332 59.2241 98.889C59.2356 98.7448 59.3037 98.6111 59.4133 98.5173C59.5229 98.4235 59.6651 98.3772 59.8086 98.3887L78.2042 99.8607C78.3477 99.8722 78.4807 99.9405 78.574 100.051C78.6673 100.161 78.7133 100.303 78.7017 100.448C78.6902 100.592 78.6221 100.725 78.5125 100.819C78.4029 100.913 78.2607 100.959 78.1172 100.948Z" fill="white"/>
<path d="M98.5544 110.367L61.7632 107.423C61.6941 107.417 61.6268 107.398 61.5652 107.366C61.5036 107.334 61.449 107.29 61.4046 107.236C61.3602 107.183 61.3269 107.121 61.3066 107.054C61.2863 106.988 61.2795 106.918 61.2865 106.848C61.2905 106.779 61.3084 106.712 61.3391 106.65C61.3698 106.588 61.4127 106.533 61.4651 106.488C61.5175 106.443 61.5785 106.409 61.6442 106.389C61.7099 106.368 61.7791 106.361 61.8476 106.368L98.6387 109.312C98.708 109.316 98.7757 109.334 98.8379 109.365C98.9001 109.396 98.9556 109.439 99.0011 109.491C99.0466 109.544 99.0812 109.605 99.1028 109.671C99.1245 109.737 99.1328 109.807 99.1272 109.877C99.1159 110.018 99.0492 110.149 98.9418 110.241C98.8343 110.333 98.695 110.378 98.5544 110.367Z" fill="white"/>
<path d="M130.195 112.898L104.647 110.854C104.578 110.849 104.511 110.829 104.449 110.797C104.387 110.765 104.333 110.721 104.288 110.668C104.244 110.614 104.211 110.552 104.19 110.486C104.17 110.419 104.163 110.349 104.17 110.28C104.174 110.211 104.192 110.143 104.223 110.081C104.254 110.019 104.296 109.964 104.349 109.919C104.401 109.874 104.462 109.841 104.528 109.82C104.594 109.8 104.663 109.792 104.731 109.799L130.28 111.844C130.349 111.848 130.417 111.866 130.479 111.897C130.541 111.927 130.596 111.97 130.642 112.023C130.687 112.075 130.722 112.136 130.744 112.203C130.765 112.269 130.774 112.339 130.768 112.408C130.757 112.549 130.69 112.68 130.583 112.772C130.475 112.864 130.336 112.91 130.195 112.898Z" fill="#D9D9D9"/>
<path d="M130.195 112.898L104.647 110.854C104.578 110.849 104.511 110.829 104.449 110.797C104.387 110.765 104.333 110.721 104.288 110.668C104.244 110.614 104.211 110.552 104.19 110.486C104.17 110.419 104.163 110.349 104.17 110.28C104.174 110.211 104.192 110.143 104.223 110.081C104.254 110.019 104.296 109.964 104.349 109.919C104.401 109.874 104.462 109.841 104.528 109.82C104.594 109.8 104.663 109.792 104.731 109.799L130.28 111.844C130.349 111.848 130.417 111.866 130.479 111.897C130.541 111.927 130.596 111.97 130.642 112.023C130.687 112.075 130.722 112.136 130.744 112.203C130.765 112.269 130.774 112.339 130.768 112.408C130.757 112.549 130.69 112.68 130.583 112.772C130.475 112.864 130.336 112.91 130.195 112.898Z" fill="url(#paint11_linear_2015_9135)"/>
<path d="M165.482 115.721L133.852 113.19C133.783 113.185 133.716 113.165 133.654 113.133C133.592 113.101 133.538 113.057 133.494 113.004C133.449 112.95 133.416 112.889 133.395 112.822C133.375 112.755 133.368 112.685 133.375 112.616C133.379 112.547 133.397 112.479 133.428 112.418C133.459 112.356 133.502 112.301 133.554 112.256C133.606 112.211 133.667 112.177 133.733 112.156C133.799 112.136 133.868 112.129 133.937 112.136L165.566 114.667C165.704 114.678 165.832 114.743 165.921 114.849C166.011 114.955 166.055 115.092 166.044 115.23C166.033 115.37 165.967 115.499 165.862 115.591C165.757 115.683 165.621 115.73 165.482 115.721Z" fill="#D9D9D9"/>
<path d="M165.482 115.721L133.852 113.19C133.783 113.185 133.716 113.165 133.654 113.133C133.592 113.101 133.538 113.057 133.494 113.004C133.449 112.95 133.416 112.889 133.395 112.822C133.375 112.755 133.368 112.685 133.375 112.616C133.379 112.547 133.397 112.479 133.428 112.418C133.459 112.356 133.502 112.301 133.554 112.256C133.606 112.211 133.667 112.177 133.733 112.156C133.799 112.136 133.868 112.129 133.937 112.136L165.566 114.667C165.704 114.678 165.832 114.743 165.921 114.849C166.011 114.955 166.055 115.092 166.044 115.23C166.033 115.37 165.967 115.499 165.862 115.591C165.757 115.683 165.621 115.73 165.482 115.721Z" fill="url(#paint12_linear_2015_9135)"/>
<path d="M116.354 119.568L62.7906 115.282C62.6499 115.271 62.5196 115.204 62.4281 115.096C62.3367 114.988 62.2917 114.848 62.303 114.707C62.3085 114.637 62.3278 114.57 62.3597 114.508C62.3916 114.446 62.4355 114.391 62.4887 114.346C62.542 114.302 62.6036 114.268 62.6699 114.248C62.7362 114.227 62.8059 114.22 62.8749 114.227L116.438 118.513C116.508 118.518 116.575 118.536 116.638 118.566C116.7 118.597 116.755 118.64 116.801 118.692C116.846 118.745 116.881 118.806 116.903 118.872C116.924 118.938 116.933 119.008 116.927 119.078C116.916 119.219 116.849 119.35 116.741 119.442C116.634 119.534 116.495 119.579 116.354 119.568Z" fill="white"/>
<path d="M144.11 121.789L120.012 119.861C119.872 119.85 119.741 119.783 119.65 119.675C119.558 119.567 119.513 119.427 119.525 119.286C119.53 119.216 119.549 119.149 119.581 119.087C119.613 119.025 119.657 118.97 119.71 118.925C119.764 118.881 119.825 118.847 119.892 118.827C119.958 118.806 120.028 118.799 120.097 118.806L144.195 120.735C144.264 120.739 144.331 120.757 144.392 120.788C144.454 120.818 144.509 120.861 144.553 120.914C144.598 120.967 144.632 121.028 144.652 121.094C144.672 121.16 144.679 121.229 144.672 121.298C144.668 121.368 144.65 121.436 144.62 121.498C144.589 121.561 144.546 121.617 144.494 121.662C144.442 121.708 144.381 121.743 144.315 121.765C144.249 121.787 144.18 121.795 144.11 121.789Z" fill="#D9D9D9"/>
<path d="M144.11 121.789L120.012 119.861C119.872 119.85 119.741 119.783 119.65 119.675C119.558 119.567 119.513 119.427 119.525 119.286C119.53 119.216 119.549 119.149 119.581 119.087C119.613 119.025 119.657 118.97 119.71 118.925C119.764 118.881 119.825 118.847 119.892 118.827C119.958 118.806 120.028 118.799 120.097 118.806L144.195 120.735C144.264 120.739 144.331 120.757 144.392 120.788C144.454 120.818 144.509 120.861 144.553 120.914C144.598 120.967 144.632 121.028 144.652 121.094C144.672 121.16 144.679 121.229 144.672 121.298C144.668 121.368 144.65 121.436 144.62 121.498C144.589 121.561 144.546 121.617 144.494 121.662C144.442 121.708 144.381 121.743 144.315 121.765C144.249 121.787 144.18 121.795 144.11 121.789Z" fill="url(#paint13_linear_2015_9135)"/>
<path d="M219.844 127.849L148.188 122.115C148.049 122.101 147.922 122.033 147.833 121.926C147.744 121.819 147.7 121.68 147.711 121.541C147.722 121.403 147.788 121.274 147.893 121.184C147.998 121.094 148.135 121.05 148.272 121.061L219.928 126.795C219.998 126.799 220.065 126.817 220.128 126.847C220.19 126.878 220.245 126.921 220.291 126.974C220.336 127.026 220.371 127.087 220.393 127.153C220.414 127.22 220.422 127.289 220.417 127.359C220.406 127.5 220.339 127.631 220.231 127.723C220.124 127.815 219.985 127.86 219.844 127.849Z" fill="#D9D9D9"/>
<path d="M219.844 127.849L148.188 122.115C148.049 122.101 147.922 122.033 147.833 121.926C147.744 121.819 147.7 121.68 147.711 121.541C147.722 121.403 147.788 121.274 147.893 121.184C147.998 121.094 148.135 121.05 148.272 121.061L219.928 126.795C219.998 126.799 220.065 126.817 220.128 126.847C220.19 126.878 220.245 126.921 220.291 126.974C220.336 127.026 220.371 127.087 220.393 127.153C220.414 127.22 220.422 127.289 220.417 127.359C220.406 127.5 220.339 127.631 220.231 127.723C220.124 127.815 219.985 127.86 219.844 127.849Z" fill="url(#paint14_linear_2015_9135)"/>
<path d="M87.2868 125.023L61.955 122.996C61.8115 122.984 61.6785 122.916 61.5852 122.806C61.4919 122.696 61.4459 122.553 61.4575 122.409C61.469 122.265 61.5371 122.131 61.6467 122.037C61.7563 121.943 61.8985 121.897 62.042 121.909L87.3738 123.936C87.5173 123.947 87.6503 124.016 87.7436 124.126C87.8369 124.236 87.8829 124.379 87.8713 124.523C87.8598 124.667 87.7917 124.801 87.6821 124.894C87.5725 124.988 87.4303 125.034 87.2868 125.023Z" fill="white"/>
<path d="M110.984 126.919L92.329 125.426C92.1856 125.414 92.0525 125.346 91.9592 125.236C91.8659 125.126 91.82 124.983 91.8315 124.839C91.843 124.695 91.9111 124.561 92.0207 124.467C92.1304 124.373 92.2726 124.327 92.416 124.339L111.071 125.831C111.215 125.843 111.348 125.911 111.441 126.021C111.534 126.131 111.58 126.274 111.569 126.418C111.557 126.562 111.489 126.696 111.38 126.79C111.27 126.884 111.128 126.93 110.984 126.919Z" fill="#D9D9D9"/>
<path d="M110.984 126.919L92.329 125.426C92.1856 125.414 92.0525 125.346 91.9592 125.236C91.8659 125.126 91.82 124.983 91.8315 124.839C91.843 124.695 91.9111 124.561 92.0207 124.467C92.1304 124.373 92.2726 124.327 92.416 124.339L111.071 125.831C111.215 125.843 111.348 125.911 111.441 126.021C111.534 126.131 111.58 126.274 111.569 126.418C111.557 126.562 111.489 126.696 111.38 126.79C111.27 126.884 111.128 126.93 110.984 126.919Z" fill="url(#paint15_linear_2015_9135)"/>
<path d="M134.661 128.814L116.006 127.321C115.862 127.309 115.729 127.241 115.636 127.131C115.543 127.021 115.497 126.878 115.508 126.734C115.52 126.59 115.588 126.456 115.697 126.362C115.807 126.269 115.949 126.222 116.093 126.234L134.748 127.727C134.892 127.738 135.025 127.806 135.118 127.916C135.211 128.026 135.257 128.169 135.246 128.313C135.234 128.458 135.166 128.591 135.056 128.685C134.947 128.779 134.805 128.825 134.661 128.814Z" fill="#D9D9D9"/>
<path d="M134.661 128.814L116.006 127.321C115.862 127.309 115.729 127.241 115.636 127.131C115.543 127.021 115.497 126.878 115.508 126.734C115.52 126.59 115.588 126.456 115.697 126.362C115.807 126.269 115.949 126.222 116.093 126.234L134.748 127.727C134.892 127.738 135.025 127.806 135.118 127.916C135.211 128.026 135.257 128.169 135.246 128.313C135.234 128.458 135.166 128.591 135.056 128.685C134.947 128.779 134.805 128.825 134.661 128.814Z" fill="url(#paint16_linear_2015_9135)"/>
<path d="M106.124 134.308L61.3365 130.724C61.2672 130.72 61.1995 130.702 61.1373 130.672C61.0751 130.641 61.0196 130.598 60.9741 130.545C60.9286 130.493 60.894 130.432 60.8724 130.366C60.8507 130.299 60.8424 130.23 60.848 130.16C60.8593 130.019 60.926 129.888 61.0334 129.796C61.1409 129.704 61.2802 129.658 61.4209 129.67L106.209 133.254C106.349 133.265 106.48 133.332 106.571 133.44C106.663 133.548 106.708 133.688 106.696 133.829C106.691 133.898 106.671 133.966 106.639 134.028C106.608 134.09 106.564 134.145 106.51 134.189C106.457 134.234 106.396 134.267 106.329 134.288C106.263 134.308 106.193 134.315 106.124 134.308Z" fill="white"/>
<path d="M134.042 136.543L111.643 134.751C111.574 134.747 111.507 134.729 111.446 134.698C111.384 134.667 111.329 134.624 111.285 134.572C111.24 134.519 111.206 134.458 111.186 134.392C111.165 134.326 111.159 134.256 111.165 134.187C111.17 134.118 111.188 134.05 111.218 133.987C111.249 133.925 111.291 133.869 111.344 133.823C111.396 133.778 111.457 133.743 111.523 133.721C111.589 133.699 111.658 133.691 111.728 133.696L134.127 135.489C134.196 135.494 134.263 135.514 134.325 135.546C134.386 135.578 134.441 135.622 134.485 135.675C134.53 135.729 134.563 135.79 134.583 135.857C134.604 135.924 134.611 135.994 134.604 136.063C134.6 136.132 134.582 136.2 134.551 136.262C134.52 136.323 134.477 136.379 134.425 136.423C134.373 136.468 134.312 136.502 134.246 136.523C134.18 136.543 134.111 136.55 134.042 136.543Z" fill="#D9D9D9"/>
<path d="M134.042 136.543L111.643 134.751C111.574 134.747 111.507 134.729 111.446 134.698C111.384 134.667 111.329 134.624 111.285 134.572C111.24 134.519 111.206 134.458 111.186 134.392C111.165 134.326 111.159 134.256 111.165 134.187C111.17 134.118 111.188 134.05 111.218 133.987C111.249 133.925 111.291 133.869 111.344 133.823C111.396 133.778 111.457 133.743 111.523 133.721C111.589 133.699 111.658 133.691 111.728 133.696L134.127 135.489C134.196 135.494 134.263 135.514 134.325 135.546C134.386 135.578 134.441 135.622 134.485 135.675C134.53 135.729 134.563 135.79 134.583 135.857C134.604 135.924 134.611 135.994 134.604 136.063C134.6 136.132 134.582 136.2 134.551 136.262C134.52 136.323 134.477 136.379 134.425 136.423C134.373 136.468 134.312 136.502 134.246 136.523C134.18 136.543 134.111 136.55 134.042 136.543Z" fill="url(#paint17_linear_2015_9135)"/>
<path d="M173.648 139.713L139.541 136.983C139.472 136.979 139.405 136.961 139.343 136.931C139.281 136.9 139.227 136.857 139.182 136.804C139.137 136.751 139.104 136.69 139.083 136.624C139.063 136.558 139.056 136.489 139.063 136.42C139.067 136.35 139.085 136.282 139.116 136.22C139.146 136.157 139.189 136.101 139.241 136.056C139.294 136.01 139.355 135.975 139.42 135.953C139.486 135.932 139.556 135.923 139.625 135.929L173.733 138.658C173.802 138.664 173.87 138.683 173.932 138.715C173.994 138.747 174.05 138.791 174.095 138.844C174.14 138.897 174.175 138.959 174.196 139.026C174.218 139.093 174.226 139.163 174.22 139.233C174.215 139.303 174.195 139.37 174.163 139.432C174.131 139.494 174.088 139.549 174.034 139.594C173.981 139.638 173.919 139.672 173.853 139.692C173.787 139.713 173.717 139.72 173.648 139.713Z" fill="#D9D9D9"/>
<path d="M173.648 139.713L139.541 136.983C139.472 136.979 139.405 136.961 139.343 136.931C139.281 136.9 139.227 136.857 139.182 136.804C139.137 136.751 139.104 136.69 139.083 136.624C139.063 136.558 139.056 136.489 139.063 136.42C139.067 136.35 139.085 136.282 139.116 136.22C139.146 136.157 139.189 136.101 139.241 136.056C139.294 136.01 139.355 135.975 139.42 135.953C139.486 135.932 139.556 135.923 139.625 135.929L173.733 138.658C173.802 138.664 173.87 138.683 173.932 138.715C173.994 138.747 174.05 138.791 174.095 138.844C174.14 138.897 174.175 138.959 174.196 139.026C174.218 139.093 174.226 139.163 174.22 139.233C174.215 139.303 174.195 139.37 174.163 139.432C174.131 139.494 174.088 139.549 174.034 139.594C173.981 139.638 173.919 139.672 173.853 139.692C173.787 139.713 173.717 139.72 173.648 139.713Z" fill="url(#paint18_linear_2015_9135)"/>
<path d="M211.304 142.726L177.24 140C177.171 139.996 177.103 139.978 177.041 139.947C176.978 139.916 176.923 139.873 176.877 139.821C176.832 139.768 176.797 139.707 176.776 139.641C176.754 139.575 176.746 139.505 176.751 139.435C176.763 139.294 176.829 139.163 176.937 139.071C177.044 138.979 177.184 138.934 177.324 138.945L211.388 141.671C211.529 141.682 211.659 141.749 211.751 141.857C211.842 141.965 211.887 142.105 211.876 142.246C211.87 142.316 211.851 142.383 211.819 142.445C211.787 142.507 211.744 142.562 211.69 142.607C211.637 142.651 211.575 142.685 211.509 142.705C211.443 142.726 211.373 142.733 211.304 142.726Z" fill="#D9D9D9"/>
<path d="M211.304 142.726L177.24 140C177.171 139.996 177.103 139.978 177.041 139.947C176.978 139.916 176.923 139.873 176.877 139.821C176.832 139.768 176.797 139.707 176.776 139.641C176.754 139.575 176.746 139.505 176.751 139.435C176.763 139.294 176.829 139.163 176.937 139.071C177.044 138.979 177.184 138.934 177.324 138.945L211.388 141.671C211.529 141.682 211.659 141.749 211.751 141.857C211.842 141.965 211.887 142.105 211.876 142.246C211.87 142.316 211.851 142.383 211.819 142.445C211.787 142.507 211.744 142.562 211.69 142.607C211.637 142.651 211.575 142.685 211.509 142.705C211.443 142.726 211.373 142.733 211.304 142.726Z" fill="url(#paint19_linear_2015_9135)"/>
<path d="M98.7642 141.497L72.0474 139.359C71.9782 139.355 71.9105 139.337 71.8482 139.306C71.786 139.276 71.7305 139.233 71.685 139.18C71.6395 139.128 71.6049 139.067 71.5833 139C71.5616 138.934 71.5534 138.864 71.5589 138.795C71.5645 138.725 71.5838 138.657 71.6156 138.594C71.6474 138.532 71.6912 138.476 71.7444 138.431C71.7976 138.385 71.8592 138.351 71.9256 138.329C71.9921 138.307 72.0622 138.299 72.1318 138.305L98.8486 140.442C98.9178 140.448 98.9851 140.467 99.0467 140.499C99.1082 140.531 99.1628 140.575 99.2072 140.629C99.2516 140.682 99.285 140.744 99.3053 140.811C99.3256 140.877 99.3324 140.947 99.3254 141.017C99.3214 141.086 99.3035 141.153 99.2728 141.215C99.2421 141.277 99.1992 141.332 99.1468 141.377C99.0943 141.422 99.0334 141.456 98.9677 141.476C98.9019 141.497 98.8327 141.504 98.7642 141.497Z" fill="white"/>
<path d="M130.491 144.036L103.774 141.898C103.705 141.894 103.638 141.876 103.576 141.845C103.515 141.814 103.46 141.771 103.415 141.719C103.371 141.666 103.337 141.605 103.317 141.539C103.296 141.473 103.289 141.403 103.296 141.334C103.3 141.265 103.318 141.197 103.349 141.134C103.38 141.072 103.422 141.016 103.475 140.97C103.527 140.924 103.588 140.89 103.654 140.868C103.72 140.846 103.789 140.838 103.858 140.843L130.575 142.981C130.645 142.987 130.713 143.006 130.775 143.038C130.837 143.07 130.892 143.114 130.938 143.167C130.983 143.22 131.017 143.282 131.039 143.349C131.06 143.416 131.068 143.486 131.063 143.556C131.057 143.626 131.038 143.693 131.006 143.755C130.974 143.817 130.93 143.872 130.877 143.917C130.824 143.961 130.762 143.995 130.696 144.015C130.63 144.036 130.56 144.043 130.491 144.036Z" fill="#D9D9D9"/>
<path d="M130.491 144.036L103.774 141.898C103.705 141.894 103.638 141.876 103.576 141.845C103.515 141.814 103.46 141.771 103.415 141.719C103.371 141.666 103.337 141.605 103.317 141.539C103.296 141.473 103.289 141.403 103.296 141.334C103.3 141.265 103.318 141.197 103.349 141.134C103.38 141.072 103.422 141.016 103.475 140.97C103.527 140.924 103.588 140.89 103.654 140.868C103.72 140.846 103.789 140.838 103.858 140.843L130.575 142.981C130.645 142.987 130.713 143.006 130.775 143.038C130.837 143.07 130.892 143.114 130.938 143.167C130.983 143.22 131.017 143.282 131.039 143.349C131.06 143.416 131.068 143.486 131.063 143.556C131.057 143.626 131.038 143.693 131.006 143.755C130.974 143.817 130.93 143.872 130.877 143.917C130.824 143.961 130.762 143.995 130.696 144.015C130.63 144.036 130.56 144.043 130.491 144.036Z" fill="url(#paint20_linear_2015_9135)"/>
<path d="M162.445 146.592L135.728 144.454C135.659 144.45 135.591 144.432 135.529 144.401C135.467 144.371 135.411 144.328 135.366 144.275C135.32 144.223 135.286 144.162 135.264 144.095C135.242 144.029 135.234 143.959 135.24 143.89C135.245 143.82 135.264 143.752 135.296 143.689C135.328 143.627 135.372 143.571 135.425 143.526C135.478 143.48 135.54 143.445 135.606 143.424C135.673 143.402 135.743 143.394 135.812 143.4L162.529 145.537C162.598 145.543 162.666 145.562 162.727 145.594C162.789 145.626 162.844 145.67 162.888 145.724C162.932 145.777 162.966 145.839 162.986 145.906C163.006 145.972 163.013 146.042 163.006 146.112C163.002 146.181 162.984 146.248 162.953 146.31C162.923 146.372 162.88 146.427 162.827 146.472C162.775 146.517 162.714 146.551 162.648 146.571C162.583 146.592 162.513 146.599 162.445 146.592Z" fill="#D9D9D9"/>
<path d="M162.445 146.592L135.728 144.454C135.659 144.45 135.591 144.432 135.529 144.401C135.467 144.371 135.411 144.328 135.366 144.275C135.32 144.223 135.286 144.162 135.264 144.095C135.242 144.029 135.234 143.959 135.24 143.89C135.245 143.82 135.264 143.752 135.296 143.689C135.328 143.627 135.372 143.571 135.425 143.526C135.478 143.48 135.54 143.445 135.606 143.424C135.673 143.402 135.743 143.394 135.812 143.4L162.529 145.537C162.598 145.543 162.666 145.562 162.727 145.594C162.789 145.626 162.844 145.67 162.888 145.724C162.932 145.777 162.966 145.839 162.986 145.906C163.006 145.972 163.013 146.042 163.006 146.112C163.002 146.181 162.984 146.248 162.953 146.31C162.923 146.372 162.88 146.427 162.827 146.472C162.775 146.517 162.714 146.551 162.648 146.571C162.583 146.592 162.513 146.599 162.445 146.592Z" fill="url(#paint21_linear_2015_9135)"/>
<path d="M195.467 150.114L168.739 147.976C168.596 147.964 168.463 147.896 168.369 147.786C168.276 147.676 168.23 147.533 168.242 147.389C168.253 147.244 168.321 147.111 168.431 147.017C168.54 146.923 168.683 146.877 168.826 146.888L195.554 149.027C195.697 149.039 195.83 149.107 195.924 149.217C196.017 149.327 196.063 149.47 196.051 149.614C196.04 149.758 195.972 149.892 195.862 149.986C195.753 150.08 195.61 150.126 195.467 150.114Z" fill="#D9D9D9"/>
<path d="M195.467 150.114L168.739 147.976C168.596 147.964 168.463 147.896 168.369 147.786C168.276 147.676 168.23 147.533 168.242 147.389C168.253 147.244 168.321 147.111 168.431 147.017C168.54 146.923 168.683 146.877 168.826 146.888L195.554 149.027C195.697 149.039 195.83 149.107 195.924 149.217C196.017 149.327 196.063 149.47 196.051 149.614C196.04 149.758 195.972 149.892 195.862 149.986C195.753 150.08 195.61 150.126 195.467 150.114Z" fill="url(#paint22_linear_2015_9135)"/>
<path d="M93.818 148.883L75.4224 147.411C75.3537 147.407 75.2865 147.389 75.2249 147.358C75.1633 147.328 75.1085 147.285 75.0639 147.232C75.0192 147.179 74.9857 147.118 74.9652 147.052C74.9447 146.986 74.9378 146.917 74.9448 146.848C74.9489 146.778 74.9668 146.71 74.9974 146.648C75.0281 146.585 75.0708 146.529 75.1231 146.484C75.1755 146.438 75.2364 146.403 75.3023 146.381C75.3682 146.359 75.4377 146.351 75.5068 146.357L93.9024 147.829C94.043 147.84 94.1734 147.907 94.2648 148.015C94.3563 148.123 94.4013 148.263 94.39 148.404C94.3844 148.473 94.3652 148.541 94.3333 148.603C94.3013 148.665 94.2575 148.72 94.2042 148.764C94.1509 148.809 94.0893 148.842 94.023 148.863C93.9567 148.883 93.887 148.89 93.818 148.883Z" fill="white"/>
<path d="M116.562 150.704L98.1665 149.232C98.0973 149.228 98.0296 149.21 97.9674 149.179C97.9051 149.148 97.8497 149.105 97.8042 149.053C97.7587 149 97.7241 148.939 97.7024 148.873C97.6808 148.807 97.6725 148.737 97.6781 148.667C97.6894 148.526 97.7561 148.395 97.8635 148.303C97.9709 148.211 98.1103 148.166 98.2509 148.177L116.646 149.649C116.716 149.655 116.783 149.674 116.845 149.706C116.906 149.738 116.961 149.782 117.005 149.835C117.05 149.889 117.083 149.951 117.103 150.017C117.123 150.084 117.13 150.154 117.123 150.223C117.119 150.292 117.101 150.36 117.071 150.422C117.04 150.484 116.997 150.539 116.945 150.584C116.892 150.629 116.831 150.662 116.766 150.683C116.7 150.704 116.631 150.711 116.562 150.704Z" fill="#D9D9D9"/>
<path d="M116.562 150.704L98.1665 149.232C98.0973 149.228 98.0296 149.21 97.9674 149.179C97.9051 149.148 97.8497 149.105 97.8042 149.053C97.7587 149 97.7241 148.939 97.7024 148.873C97.6808 148.807 97.6725 148.737 97.6781 148.667C97.6894 148.526 97.7561 148.395 97.8635 148.303C97.9709 148.211 98.1103 148.166 98.2509 148.177L116.646 149.649C116.716 149.655 116.783 149.674 116.845 149.706C116.906 149.738 116.961 149.782 117.005 149.835C117.05 149.889 117.083 149.951 117.103 150.017C117.123 150.084 117.13 150.154 117.123 150.223C117.119 150.292 117.101 150.36 117.071 150.422C117.04 150.484 116.997 150.539 116.945 150.584C116.892 150.629 116.831 150.662 116.766 150.683C116.7 150.704 116.631 150.711 116.562 150.704Z" fill="url(#paint23_linear_2015_9135)"/>
<path d="M159.026 154.891L121.064 151.066C120.995 151.06 120.928 151.041 120.866 151.009C120.804 150.977 120.75 150.933 120.705 150.879C120.661 150.826 120.628 150.764 120.607 150.697C120.587 150.631 120.58 150.561 120.587 150.491C120.591 150.42 120.61 150.351 120.642 150.288C120.674 150.224 120.719 150.168 120.774 150.123C120.829 150.078 120.892 150.045 120.96 150.026C121.029 150.007 121.1 150.003 121.17 150.013L159.132 153.838C159.276 153.85 159.409 153.918 159.502 154.028C159.595 154.138 159.641 154.281 159.63 154.425C159.618 154.569 159.55 154.703 159.44 154.797C159.331 154.891 159.189 154.937 159.045 154.925L159.026 154.891Z" fill="#D9D9D9"/>
<path d="M159.026 154.891L121.064 151.066C120.995 151.06 120.928 151.041 120.866 151.009C120.804 150.977 120.75 150.933 120.705 150.879C120.661 150.826 120.628 150.764 120.607 150.697C120.587 150.631 120.58 150.561 120.587 150.491C120.591 150.42 120.61 150.351 120.642 150.288C120.674 150.224 120.719 150.168 120.774 150.123C120.829 150.078 120.892 150.045 120.96 150.026C121.029 150.007 121.1 150.003 121.17 150.013L159.132 153.838C159.276 153.85 159.409 153.918 159.502 154.028C159.595 154.138 159.641 154.281 159.63 154.425C159.618 154.569 159.55 154.703 159.44 154.797C159.331 154.891 159.189 154.937 159.045 154.925L159.026 154.891Z" fill="url(#paint24_linear_2015_9135)"/>
<path d="M180.081 70.2004L155.193 68.2089C155.124 68.2034 155.056 68.184 154.995 68.152C154.933 68.12 154.879 68.076 154.834 68.0225C154.79 67.969 154.757 67.9072 154.736 67.8405C154.716 67.7739 154.709 67.7039 154.716 67.6346C154.72 67.5655 154.738 67.498 154.769 67.4361C154.8 67.3741 154.842 67.3191 154.895 67.2742C154.947 67.2293 155.008 67.1956 155.074 67.175C155.14 67.1544 155.209 67.1473 155.277 67.1543L180.165 69.1459C180.235 69.15 180.302 69.1679 180.365 69.1986C180.427 69.2293 180.482 69.2722 180.528 69.3248C180.573 69.3773 180.608 69.4385 180.63 69.5047C180.651 69.5708 180.659 69.6407 180.654 69.7102C180.643 69.8514 180.576 69.9825 180.468 70.0744C180.361 70.1664 180.222 70.2117 180.081 70.2004Z" fill="#D9D9D9"/>
<path d="M180.081 70.2004L155.193 68.2089C155.124 68.2034 155.056 68.184 154.995 68.152C154.933 68.12 154.879 68.076 154.834 68.0225C154.79 67.969 154.757 67.9072 154.736 67.8405C154.716 67.7739 154.709 67.7039 154.716 67.6346C154.72 67.5655 154.738 67.498 154.769 67.4361C154.8 67.3741 154.842 67.3191 154.895 67.2742C154.947 67.2293 155.008 67.1956 155.074 67.175C155.14 67.1544 155.209 67.1473 155.277 67.1543L180.165 69.1459C180.235 69.15 180.302 69.1679 180.365 69.1986C180.427 69.2293 180.482 69.2722 180.528 69.3248C180.573 69.3773 180.608 69.4385 180.63 69.5047C180.651 69.5708 180.659 69.6407 180.654 69.7102C180.643 69.8514 180.576 69.9825 180.468 70.0744C180.361 70.1664 180.222 70.2117 180.081 70.2004Z" fill="url(#paint25_linear_2015_9135)"/>
<path d="M198.471 71.7488C193.601 71.3592 189.987 71.07 189.823 70.9474C189.758 70.9235 189.699 70.8871 189.648 70.8403C189.598 70.7934 189.557 70.737 189.528 70.6742C189.47 70.5474 189.464 70.4026 189.512 70.2715C189.56 70.1404 189.658 70.0338 189.784 69.9752C189.91 69.9165 190.055 69.9106 190.185 69.9588C191.128 70.1546 207.559 71.4038 218.428 72.2188C218.497 72.2229 218.565 72.2408 218.627 72.2715C218.689 72.3023 218.744 72.3451 218.79 72.3977C218.835 72.4503 218.87 72.5114 218.892 72.5776C218.913 72.6438 218.922 72.7136 218.916 72.7831C218.905 72.9244 218.838 73.0554 218.731 73.1473C218.623 73.2393 218.484 73.2846 218.343 73.2734C212.541 72.831 204.531 72.2337 198.471 71.7488Z" fill="#D9D9D9"/>
<path d="M198.471 71.7488C193.601 71.3592 189.987 71.07 189.823 70.9474C189.758 70.9235 189.699 70.8871 189.648 70.8403C189.598 70.7934 189.557 70.737 189.528 70.6742C189.47 70.5474 189.464 70.4026 189.512 70.2715C189.56 70.1404 189.658 70.0338 189.784 69.9752C189.91 69.9165 190.055 69.9106 190.185 69.9588C191.128 70.1546 207.559 71.4038 218.428 72.2188C218.497 72.2229 218.565 72.2408 218.627 72.2715C218.689 72.3023 218.744 72.3451 218.79 72.3977C218.835 72.4503 218.87 72.5114 218.892 72.5776C218.913 72.6438 218.922 72.7136 218.916 72.7831C218.905 72.9244 218.838 73.0554 218.731 73.1473C218.623 73.2393 218.484 73.2846 218.343 73.2734C212.541 72.831 204.531 72.2337 198.471 71.7488Z" fill="url(#paint26_linear_2015_9135)"/>
<path d="M177.347 54.4258L141.205 51.5337C141.062 51.5222 140.929 51.4539 140.835 51.3439C140.742 51.2338 140.696 51.091 140.707 50.9468C140.719 50.8026 140.787 50.6689 140.897 50.5751C141.006 50.4813 141.149 50.435 141.292 50.4465L177.434 53.3386C177.577 53.3501 177.71 53.4184 177.804 53.5284C177.897 53.6385 177.943 53.7813 177.931 53.9255C177.92 54.0697 177.852 54.2034 177.742 54.2972C177.633 54.391 177.49 54.4373 177.347 54.4258Z" fill="#D9D9D9"/>
<path d="M177.347 54.4258L141.205 51.5337C141.062 51.5222 140.929 51.4539 140.835 51.3439C140.742 51.2338 140.696 51.091 140.707 50.9468C140.719 50.8026 140.787 50.6689 140.897 50.5751C141.006 50.4813 141.149 50.435 141.292 50.4465L177.434 53.3386C177.577 53.3501 177.71 53.4184 177.804 53.5284C177.897 53.6385 177.943 53.7813 177.931 53.9255C177.92 54.0697 177.852 54.2034 177.742 54.2972C177.633 54.391 177.49 54.4373 177.347 54.4258Z" fill="url(#paint27_linear_2015_9135)"/>
<path d="M220.575 57.8845L184.563 55.0027C184.42 54.9913 184.287 54.923 184.194 54.8129C184.1 54.7028 184.054 54.56 184.066 54.4158C184.077 54.2717 184.145 54.138 184.255 54.0442C184.365 53.9503 184.507 53.9041 184.65 53.9155L220.619 56.7938C220.763 56.8053 220.896 56.8736 220.989 56.9836C221.082 57.0937 221.128 57.2365 221.117 57.3807C221.105 57.5249 221.037 57.6586 220.927 57.7524C220.818 57.8462 220.676 57.8925 220.532 57.881L220.575 57.8845Z" fill="#D9D9D9"/>
<path d="M220.575 57.8845L184.563 55.0027C184.42 54.9913 184.287 54.923 184.194 54.8129C184.1 54.7028 184.054 54.56 184.066 54.4158C184.077 54.2717 184.145 54.138 184.255 54.0442C184.365 53.9503 184.507 53.9041 184.65 53.9155L220.619 56.7938C220.763 56.8053 220.896 56.8736 220.989 56.9836C221.082 57.0937 221.128 57.2365 221.117 57.3807C221.105 57.5249 221.037 57.6586 220.927 57.7524C220.818 57.8462 220.676 57.8925 220.532 57.881L220.575 57.8845Z" fill="url(#paint28_linear_2015_9135)"/>
<path d="M144.061 44.013C137.384 43.4787 132.298 43.0718 132.093 43.0553C131.957 43.0204 131.841 42.9333 131.769 42.8128C131.698 42.6924 131.676 42.5484 131.709 42.4119C131.741 42.2787 131.824 42.1634 131.94 42.0908C132.055 42.0183 132.195 41.9942 132.328 42.0237C133.242 42.1626 159.932 44.2326 173.934 45.3531C174.075 45.3644 174.205 45.4313 174.297 45.5392C174.388 45.647 174.433 45.787 174.422 45.9283C174.416 45.9977 174.397 46.0654 174.365 46.1273C174.333 46.1892 174.289 46.244 174.236 46.2887C174.183 46.3333 174.121 46.3669 174.055 46.3873C173.989 46.4077 173.919 46.4147 173.85 46.4077C167.977 45.9049 154.168 44.8218 144.061 44.013Z" fill="#D9D9D9"/>
<path d="M144.061 44.013C137.384 43.4787 132.298 43.0718 132.093 43.0553C131.957 43.0204 131.841 42.9333 131.769 42.8128C131.698 42.6924 131.676 42.5484 131.709 42.4119C131.741 42.2787 131.824 42.1634 131.94 42.0908C132.055 42.0183 132.195 41.9942 132.328 42.0237C133.242 42.1626 159.932 44.2326 173.934 45.3531C174.075 45.3644 174.205 45.4313 174.297 45.5392C174.388 45.647 174.433 45.787 174.422 45.9283C174.416 45.9977 174.397 46.0654 174.365 46.1273C174.333 46.1892 174.289 46.244 174.236 46.2887C174.183 46.3333 174.121 46.3669 174.055 46.3873C173.989 46.4077 173.919 46.4147 173.85 46.4077C167.977 45.9049 154.168 44.8218 144.061 44.013Z" fill="url(#paint29_linear_2015_9135)"/>
<path d="M183.601 47.1654C183.504 47.1556 183.412 47.1184 183.336 47.058C183.26 46.9976 183.203 46.9167 183.171 46.8247C183.129 46.6857 183.14 46.5359 183.203 46.4051C183.266 46.2743 183.376 46.1721 183.51 46.1188C183.949 45.946 192.358 46.597 208.485 48.1172C208.622 48.1338 208.748 48.2025 208.837 48.3092C208.925 48.416 208.97 48.5527 208.962 48.6915C208.956 48.761 208.937 48.8286 208.905 48.8905C208.873 48.9524 208.829 49.0073 208.776 49.052C208.723 49.0966 208.661 49.1301 208.595 49.1506C208.528 49.171 208.459 49.1779 208.39 49.1709C198.994 48.3206 184.707 47.0898 183.805 47.2036C183.734 47.2107 183.664 47.1975 183.601 47.1654Z" fill="white"/>
<path d="M144.409 98.4625L125.775 96.9714C125.632 96.9599 125.499 96.8917 125.405 96.7816C125.312 96.6715 125.266 96.5287 125.278 96.3845C125.289 96.2404 125.357 96.1067 125.467 96.0128C125.577 95.919 125.719 95.8728 125.862 95.8842L144.496 97.3753C144.639 97.3868 144.772 97.4551 144.866 97.5652C144.959 97.6752 145.005 97.818 144.993 97.9622C144.982 98.1064 144.914 98.2401 144.804 98.3339C144.695 98.4277 144.552 98.474 144.409 98.4625Z" fill="#D9D9D9"/>
<path d="M144.409 98.4625L125.775 96.9714C125.632 96.9599 125.499 96.8917 125.405 96.7816C125.312 96.6715 125.266 96.5287 125.278 96.3845C125.289 96.2404 125.357 96.1067 125.467 96.0128C125.577 95.919 125.719 95.8728 125.862 95.8842L144.496 97.3753C144.639 97.3868 144.772 97.4551 144.866 97.5652C144.959 97.6752 145.005 97.818 144.993 97.9622C144.982 98.1064 144.914 98.2401 144.804 98.3339C144.695 98.4277 144.552 98.474 144.409 98.4625Z" fill="url(#paint30_linear_2015_9135)"/>
<path d="M101.036 102.782L87.3261 101.685C87.1826 101.673 87.0496 101.605 86.9563 101.495C86.863 101.385 86.817 101.242 86.8286 101.098C86.8401 100.954 86.9082 100.82 87.0178 100.726C87.1274 100.632 87.2696 100.586 87.4131 100.597L101.123 101.695C101.267 101.706 101.4 101.774 101.493 101.884C101.586 101.994 101.632 102.137 101.621 102.281C101.609 102.426 101.541 102.559 101.432 102.653C101.322 102.747 101.18 102.793 101.036 102.782Z" fill="#D9D9D9"/>
<path d="M101.036 102.782L87.3261 101.685C87.1826 101.673 87.0496 101.605 86.9563 101.495C86.863 101.385 86.817 101.242 86.8286 101.098C86.8401 100.954 86.9082 100.82 87.0178 100.726C87.1274 100.632 87.2696 100.586 87.4131 100.597L101.123 101.695C101.267 101.706 101.4 101.774 101.493 101.884C101.586 101.994 101.632 102.137 101.621 102.281C101.609 102.426 101.541 102.559 101.432 102.653C101.322 102.747 101.18 102.793 101.036 102.782Z" fill="url(#paint31_linear_2015_9135)"/>
<path d="M138.823 105.805L106.241 103.198C106.098 103.187 105.965 103.118 105.871 103.008C105.778 102.898 105.732 102.755 105.744 102.611C105.755 102.467 105.823 102.333 105.933 102.24C106.042 102.146 106.185 102.099 106.328 102.111L138.91 104.718C139.053 104.73 139.186 104.798 139.28 104.908C139.373 105.018 139.419 105.161 139.407 105.305C139.396 105.449 139.328 105.583 139.218 105.677C139.109 105.771 138.966 105.817 138.823 105.805Z" fill="white"/>
<path d="M208.466 111.378L145.348 106.327C145.204 106.316 145.071 106.247 144.978 106.137C144.884 106.027 144.839 105.884 144.85 105.74C144.862 105.596 144.93 105.462 145.039 105.368C145.149 105.275 145.291 105.228 145.435 105.24L208.553 110.291C208.696 110.302 208.83 110.37 208.923 110.481C209.016 110.591 209.062 110.733 209.051 110.878C209.039 111.022 208.971 111.155 208.861 111.249C208.752 111.343 208.609 111.389 208.466 111.378Z" fill="#D9D9D9"/>
<path d="M208.466 111.378L145.348 106.327C145.204 106.316 145.071 106.247 144.978 106.137C144.884 106.027 144.839 105.884 144.85 105.74C144.862 105.596 144.93 105.462 145.039 105.368C145.149 105.275 145.291 105.228 145.435 105.24L208.553 110.291C208.696 110.302 208.83 110.37 208.923 110.481C209.016 110.591 209.062 110.733 209.051 110.878C209.039 111.022 208.971 111.155 208.861 111.249C208.752 111.343 208.609 111.389 208.466 111.378Z" fill="url(#paint32_linear_2015_9135)"/>
<path d="M45.9412 18.1289C46.9572 18.2102 47.847 17.4486 47.9287 16.4279C48.0104 15.4071 47.253 14.5137 46.237 14.4324C45.2211 14.3511 44.3312 15.1127 44.2496 16.1334C44.1679 17.1542 44.9253 18.0476 45.9412 18.1289Z" fill="#D9D9D9"/>
<path d="M45.9412 18.1289C46.9572 18.2102 47.847 17.4486 47.9287 16.4279C48.0104 15.4071 47.253 14.5137 46.237 14.4324C45.2211 14.3511 44.3312 15.1127 44.2496 16.1334C44.1679 17.1542 44.9253 18.0476 45.9412 18.1289Z" fill="url(#paint33_linear_2015_9135)"/>
<path d="M52.3924 18.6447C53.4084 18.726 54.2982 17.9644 54.3799 16.9437C54.4615 15.9229 53.7041 15.0295 52.6882 14.9482C51.6722 14.8669 50.7824 15.6285 50.7007 16.6493C50.6191 17.67 51.3764 18.5634 52.3924 18.6447Z" fill="white"/>
<path d="M58.8406 19.1624C59.8566 19.2437 60.7464 18.4821 60.8281 17.4614C60.9098 16.4406 60.1524 15.5472 59.1364 15.4659C58.1205 15.3846 57.2307 16.1462 57.149 17.167C57.0673 18.1877 57.8247 19.0811 58.8406 19.1624Z" fill="white"/>
<path d="M165.575 200.425L96.7434 194.917L106.431 171.708L159.702 175.971L165.575 200.425Z" fill="white"/>
<path d="M165.533 200.97L96.7011 195.462C96.6148 195.458 96.5308 195.433 96.4563 195.389C96.3818 195.345 96.319 195.284 96.2735 195.21C96.2279 195.136 96.2009 195.053 96.1947 194.966C96.1886 194.88 96.2035 194.793 96.2382 194.713L105.925 171.505C105.969 171.397 106.046 171.305 106.145 171.244C106.244 171.183 106.36 171.156 106.475 171.166L159.747 175.429C159.862 175.437 159.972 175.483 160.06 175.559C160.148 175.635 160.21 175.737 160.236 175.851L166.109 200.304C166.13 200.388 166.131 200.476 166.112 200.561C166.092 200.645 166.052 200.724 165.995 200.789C165.938 200.855 165.867 200.905 165.786 200.937C165.706 200.968 165.619 200.979 165.533 200.97ZM97.5347 194.434L164.873 199.823L159.27 176.485L106.778 172.284L97.5347 194.434Z" fill="#282929"/>
<path d="M171.256 200.882L91.0624 194.464C89.2158 194.317 87.5986 195.698 87.4504 197.551C87.3021 199.403 88.679 201.025 90.5256 201.172L170.719 207.59C172.566 207.737 174.183 206.355 174.331 204.503C174.48 202.651 173.103 201.029 171.256 200.882Z" fill="white"/>
<path d="M170.687 208.144L90.4827 201.726C89.4524 201.644 88.4972 201.153 87.8273 200.363C87.1573 199.573 86.8275 198.547 86.9103 197.512C86.9932 196.477 87.4819 195.517 88.269 194.843C89.0561 194.17 90.0771 193.838 91.1074 193.92L171.312 200.338C172.342 200.421 173.297 200.911 173.967 201.701C174.637 202.491 174.967 203.517 174.884 204.552C174.802 205.587 174.313 206.547 173.526 207.221C172.739 207.894 171.718 208.227 170.687 208.144ZM91.0204 195.007C90.2771 194.948 89.5405 195.187 88.9726 195.673C88.4048 196.159 88.0522 196.852 87.9924 197.599C87.9327 198.346 88.1706 199.085 88.654 199.656C89.1373 200.226 89.8264 200.579 90.5697 200.639L170.774 207.057C171.518 207.116 172.254 206.877 172.822 206.391C173.39 205.905 173.743 205.212 173.802 204.465C173.862 203.719 173.624 202.979 173.141 202.409C172.657 201.838 171.968 201.485 171.225 201.425L91.0204 195.007Z" fill="#282929"/>
<path d="M99.3162 188.766C100.445 188.265 160.944 182.099 160.944 182.099L159.465 175.952L106.193 171.689L99.3162 188.766Z" fill="#282929"/>
<path d="M99.261 189.307C99.1372 189.296 99.0216 189.24 98.936 189.149C98.8628 189.075 98.8136 188.98 98.7947 188.877C98.7757 188.774 98.7879 188.668 98.8297 188.572L105.707 171.496C105.746 171.39 105.819 171.3 105.915 171.241C106.01 171.181 106.122 171.155 106.234 171.166L159.505 175.429C159.616 175.435 159.722 175.477 159.806 175.549C159.891 175.621 159.95 175.718 159.974 175.827L161.455 181.963C161.47 182.037 161.47 182.113 161.454 182.187C161.438 182.261 161.408 182.331 161.364 182.392C161.32 182.453 161.264 182.505 161.199 182.543C161.135 182.582 161.063 182.606 160.989 182.615C144.409 184.309 101.021 188.813 99.471 189.269C99.4039 189.294 99.3327 189.307 99.261 189.307ZM106.572 172.254L100.185 188.101C107.479 187.043 149.819 182.706 160.316 181.632L159.075 176.455L106.572 172.254Z" fill="#282929"/>
<defs>
<linearGradient id="paint0_linear_2015_9135" x1="87.7658" y1="38.1593" x2="88.4363" y2="45.7312" gradientUnits="userSpaceOnUse">
<stop stop-color="#FFB11B"/>
<stop offset="1" stop-color="#FF441B"/>
</linearGradient>
<linearGradient id="paint1_linear_2015_9135" x1="99.8461" y1="46.8785" x2="100.575" y2="54.6737" gradientUnits="userSpaceOnUse">
<stop stop-color="#FFB11B"/>
<stop offset="1" stop-color="#FF441B"/>
</linearGradient>
<linearGradient id="paint2_linear_2015_9135" x1="97.6147" y1="54.5189" x2="98.0412" y2="62.1465" gradientUnits="userSpaceOnUse">
<stop stop-color="#FFB11B"/>
<stop offset="1" stop-color="#FF441B"/>
</linearGradient>
<linearGradient id="paint3_linear_2015_9135" x1="98.7651" y1="62.3876" x2="99.0322" y2="70.0426" gradientUnits="userSpaceOnUse">
<stop stop-color="#FFB11B"/>
<stop offset="1" stop-color="#FF441B"/>
</linearGradient>
<linearGradient id="paint4_linear_2015_9135" x1="91.6213" y1="69.5573" x2="92.6464" y2="77.2591" gradientUnits="userSpaceOnUse">
<stop stop-color="#FFB11B"/>
<stop offset="1" stop-color="#FF441B"/>
</linearGradient>
<linearGradient id="paint5_linear_2015_9135" x1="132.633" y1="72.8393" x2="133.658" y2="80.5411" gradientUnits="userSpaceOnUse">
<stop stop-color="#FFB11B"/>
<stop offset="1" stop-color="#FF441B"/>
</linearGradient>
<linearGradient id="paint6_linear_2015_9135" x1="94.3555" y1="77.5534" x2="95.5919" y2="85.1725" gradientUnits="userSpaceOnUse">
<stop stop-color="#FFB11B"/>
<stop offset="1" stop-color="#FF441B"/>
</linearGradient>
<linearGradient id="paint7_linear_2015_9135" x1="122.937" y1="79.841" x2="125.859" y2="86.1047" gradientUnits="userSpaceOnUse">
<stop stop-color="#FFB11B"/>
<stop offset="1" stop-color="#FF441B"/>
</linearGradient>
<linearGradient id="paint8_linear_2015_9135" x1="92.3848" y1="85.2191" x2="93.021" y2="92.7999" gradientUnits="userSpaceOnUse">
<stop stop-color="#FFB11B"/>
<stop offset="1" stop-color="#FF441B"/>
</linearGradient>
<linearGradient id="paint9_linear_2015_9135" x1="132.584" y1="88.4365" x2="134.319" y2="95.5491" gradientUnits="userSpaceOnUse">
<stop stop-color="#FFB11B"/>
<stop offset="1" stop-color="#FF441B"/>
</linearGradient>
<linearGradient id="paint10_linear_2015_9135" x1="82.5532" y1="92.1678" x2="83.1056" y2="100.007" gradientUnits="userSpaceOnUse">
<stop stop-color="#FFB11B"/>
<stop offset="1" stop-color="#FF441B"/>
</linearGradient>
<linearGradient id="paint11_linear_2015_9135" x1="107.157" y1="109.75" x2="108.33" y2="117.153" gradientUnits="userSpaceOnUse">
<stop stop-color="#FFB11B"/>
<stop offset="1" stop-color="#FF441B"/>
</linearGradient>
<linearGradient id="paint12_linear_2015_9135" x1="137.03" y1="112.14" x2="137.893" y2="119.656" gradientUnits="userSpaceOnUse">
<stop stop-color="#FFB11B"/>
<stop offset="1" stop-color="#FF441B"/>
</linearGradient>
<linearGradient id="paint13_linear_2015_9135" x1="122.352" y1="118.744" x2="123.618" y2="126.106" gradientUnits="userSpaceOnUse">
<stop stop-color="#FFB11B"/>
<stop offset="1" stop-color="#FF441B"/>
</linearGradient>
<linearGradient id="paint14_linear_2015_9135" x1="155.77" y1="121.417" x2="155.833" y2="129.097" gradientUnits="userSpaceOnUse">
<stop stop-color="#FFB11B"/>
<stop offset="1" stop-color="#FF441B"/>
</linearGradient>
<linearGradient id="paint15_linear_2015_9135" x1="94.066" y1="124.22" x2="95.8854" y2="131.532" gradientUnits="userSpaceOnUse">
<stop stop-color="#FFB11B"/>
<stop offset="1" stop-color="#FF441B"/>
</linearGradient>
<linearGradient id="paint16_linear_2015_9135" x1="117.743" y1="126.115" x2="119.562" y2="133.427" gradientUnits="userSpaceOnUse">
<stop stop-color="#FFB11B"/>
<stop offset="1" stop-color="#FF441B"/>
</linearGradient>
<linearGradient id="paint17_linear_2015_9135" x1="113.806" y1="133.619" x2="115.193" y2="140.925" gradientUnits="userSpaceOnUse">
<stop stop-color="#FFB11B"/>
<stop offset="1" stop-color="#FF441B"/>
</linearGradient>
<linearGradient id="paint18_linear_2015_9135" x1="142.992" y1="135.955" x2="143.756" y2="143.501" gradientUnits="userSpaceOnUse">
<stop stop-color="#FFB11B"/>
<stop offset="1" stop-color="#FF441B"/>
</linearGradient>
<linearGradient id="paint19_linear_2015_9135" x1="180.677" y1="138.97" x2="181.442" y2="146.516" gradientUnits="userSpaceOnUse">
<stop stop-color="#FFB11B"/>
<stop offset="1" stop-color="#FF441B"/>
</linearGradient>
<linearGradient id="paint20_linear_2015_9135" x1="106.413" y1="140.804" x2="107.517" y2="148.235" gradientUnits="userSpaceOnUse">
<stop stop-color="#FFB11B"/>
<stop offset="1" stop-color="#FF441B"/>
</linearGradient>
<linearGradient id="paint21_linear_2015_9135" x1="138.356" y1="143.36" x2="139.46" y2="150.79" gradientUnits="userSpaceOnUse">
<stop stop-color="#FFB11B"/>
<stop offset="1" stop-color="#FF441B"/>
</linearGradient>
<linearGradient id="paint22_linear_2015_9135" x1="171.364" y1="146.841" x2="172.55" y2="154.481" gradientUnits="userSpaceOnUse">
<stop stop-color="#FFB11B"/>
<stop offset="1" stop-color="#FF441B"/>
</linearGradient>
<linearGradient id="paint23_linear_2015_9135" x1="99.879" y1="148.064" x2="101.614" y2="155.177" gradientUnits="userSpaceOnUse">
<stop stop-color="#FFB11B"/>
<stop offset="1" stop-color="#FF441B"/>
</linearGradient>
<linearGradient id="paint24_linear_2015_9135" x1="124.965" y1="149.884" x2="127.622" y2="162.744" gradientUnits="userSpaceOnUse">
<stop stop-color="#FFB11B"/>
<stop offset="1" stop-color="#FF441B"/>
</linearGradient>
<linearGradient id="paint25_linear_2015_9135" x1="157.63" y1="67.0992" x2="158.844" y2="74.4843" gradientUnits="userSpaceOnUse">
<stop stop-color="#FFB11B"/>
<stop offset="1" stop-color="#FF441B"/>
</linearGradient>
<linearGradient id="paint26_linear_2015_9135" x1="192.782" y1="69.8844" x2="194.007" y2="77.8973" gradientUnits="userSpaceOnUse">
<stop stop-color="#FFB11B"/>
<stop offset="1" stop-color="#FF441B"/>
</linearGradient>
<linearGradient id="paint27_linear_2015_9135" x1="144.866" y1="50.4817" x2="145.617" y2="58.2706" gradientUnits="userSpaceOnUse">
<stop stop-color="#FFB11B"/>
<stop offset="1" stop-color="#FF441B"/>
</linearGradient>
<linearGradient id="paint28_linear_2015_9135" x1="188.205" y1="53.9492" x2="188.963" y2="61.7364" gradientUnits="userSpaceOnUse">
<stop stop-color="#FFB11B"/>
<stop offset="1" stop-color="#FF441B"/>
</linearGradient>
<linearGradient id="paint29_linear_2015_9135" x1="136.457" y1="42.1048" x2="136.993" y2="49.7456" gradientUnits="userSpaceOnUse">
<stop stop-color="#FFB11B"/>
<stop offset="1" stop-color="#FF441B"/>
</linearGradient>
<linearGradient id="paint30_linear_2015_9135" x1="127.51" y1="95.7653" x2="129.332" y2="103.076" gradientUnits="userSpaceOnUse">
<stop stop-color="#FFB11B"/>
<stop offset="1" stop-color="#FF441B"/>
</linearGradient>
<linearGradient id="paint31_linear_2015_9135" x1="88.5191" y1="100.435" x2="90.9457" y2="107.272" gradientUnits="userSpaceOnUse">
<stop stop-color="#FFB11B"/>
<stop offset="1" stop-color="#FF441B"/>
</linearGradient>
<linearGradient id="paint32_linear_2015_9135" x1="151.976" y1="105.513" x2="152.157" y2="113.416" gradientUnits="userSpaceOnUse">
<stop stop-color="#FFB11B"/>
<stop offset="1" stop-color="#FF441B"/>
</linearGradient>
<linearGradient id="paint33_linear_2015_9135" x1="44.8699" y1="13.4705" x2="49.101" y2="14.5141" gradientUnits="userSpaceOnUse">
<stop stop-color="#FFB11B"/>
<stop offset="1" stop-color="#FF441B"/>
</linearGradient>
</defs>
</svg>
