<svg width="277" height="207" viewBox="0 0 277 207" fill="none" xmlns="http://www.w3.org/2000/svg">
<path d="M127.6 145.932H127.474C125.776 145.503 79.7377 121.052 74.4918 118.268C74.4182 118.232 74.3566 118.179 74.3137 118.113C74.2707 118.048 74.248 117.973 74.248 117.897C74.248 117.82 74.2707 117.745 74.3137 117.68C74.3566 117.614 74.4182 117.561 74.4918 117.525L95.0688 107.398C95.1779 107.345 95.3055 107.333 95.4238 107.366C95.5421 107.398 95.6416 107.472 95.7009 107.571C95.7307 107.62 95.7495 107.675 95.7562 107.73C95.7628 107.786 95.7571 107.843 95.7394 107.897C95.7218 107.951 95.6925 108.001 95.6533 108.044C95.6141 108.088 95.5658 108.123 95.5113 108.149L75.6475 117.864C90.2925 125.645 126.21 144.627 127.69 145.056C127.788 145.092 127.869 145.157 127.922 145.24C127.975 145.323 127.995 145.42 127.981 145.515C127.966 145.61 127.917 145.698 127.842 145.764C127.766 145.831 127.668 145.873 127.564 145.882L127.6 145.932Z" fill="#989898" fill-opacity="0.4"/>
<path d="M161.495 143.43C161.375 143.459 161.247 143.444 161.14 143.388C161.032 143.331 160.954 143.238 160.921 143.128C160.889 143.019 160.906 142.902 160.967 142.803C161.029 142.705 161.131 142.633 161.251 142.604C163.273 141.422 233.049 107.737 236.02 106.3C236.13 106.247 236.258 106.237 236.377 106.271C236.495 106.305 236.594 106.381 236.652 106.481C236.68 106.531 236.697 106.585 236.702 106.64C236.708 106.695 236.701 106.751 236.682 106.804C236.664 106.857 236.634 106.906 236.595 106.949C236.555 106.991 236.507 107.026 236.453 107.051C235.731 107.407 163.743 142.166 161.748 143.322C161.676 143.379 161.588 143.416 161.495 143.43Z" fill="#989898" fill-opacity="0.4"/>
<path d="M236.237 126.331L200.925 107.688V99.0225L236.237 117.666V126.331Z" fill="white"/>
<path d="M236.236 126.743C236.158 126.744 236.08 126.727 236.011 126.694L200.698 108.042C200.63 108.006 200.573 107.954 200.534 107.892C200.494 107.83 200.473 107.759 200.473 107.687V99.0218C200.473 98.9487 200.494 98.8769 200.534 98.8133C200.573 98.7497 200.63 98.6963 200.698 98.6584C200.767 98.6221 200.845 98.603 200.924 98.603C201.003 98.603 201.081 98.6221 201.15 98.6584L236.498 117.31C236.568 117.345 236.625 117.396 236.665 117.459C236.705 117.522 236.725 117.593 236.724 117.665V126.33C236.725 126.404 236.705 126.476 236.665 126.54C236.625 126.604 236.568 126.657 236.498 126.694C236.418 126.732 236.327 126.75 236.236 126.743ZM201.376 107.447L235.785 125.62V117.905L201.376 99.7322V107.447Z" fill="#282929"/>
<path d="M271.549 107.713L236.236 126.306V117.641L271.549 99.0392V107.713Z" fill="white"/>
<path d="M236.237 126.719C236.157 126.721 236.078 126.701 236.011 126.662C235.943 126.626 235.886 126.574 235.846 126.512C235.807 126.449 235.786 126.379 235.785 126.306V117.641C235.786 117.568 235.807 117.496 235.846 117.433C235.886 117.369 235.943 117.316 236.011 117.278L271.323 98.684C271.392 98.6477 271.47 98.6287 271.549 98.6287C271.628 98.6287 271.706 98.6477 271.775 98.684C271.843 98.72 271.9 98.7718 271.939 98.8341C271.979 98.8964 272 98.9671 272 99.0392V107.713C272 107.785 271.979 107.855 271.939 107.918C271.9 107.98 271.843 108.032 271.775 108.068L236.498 126.662C236.421 126.708 236.329 126.728 236.237 126.719ZM236.688 117.881V125.571L271.097 107.448V99.7331L236.688 117.881Z" fill="#282929"/>
<path d="M236.237 117.675L200.925 99.023L236.237 80.3712L271.549 99.023L236.237 117.675Z" fill="white"/>
<path d="M236.236 118.087C236.157 118.084 236.08 118.064 236.011 118.029L200.698 99.3769C200.63 99.3409 200.573 99.2892 200.534 99.2269C200.494 99.1645 200.473 99.0938 200.473 99.0218C200.473 98.9486 200.494 98.8768 200.534 98.8132C200.573 98.7496 200.63 98.6963 200.698 98.6583L236.011 80.0148C236.079 79.9786 236.157 79.9595 236.236 79.9595C236.316 79.9595 236.393 79.9786 236.462 80.0148L271.774 98.6583C271.843 98.6963 271.899 98.7496 271.939 98.8132C271.978 98.8768 271.999 98.9486 272 99.0218C272 99.0938 271.979 99.1645 271.939 99.2269C271.899 99.2892 271.843 99.3409 271.774 99.3769L236.498 118.029C236.418 118.07 236.328 118.09 236.236 118.087ZM201.827 99.0218L236.236 117.194L270.646 99.0218L236.236 80.8491L201.827 99.0218Z" fill="#282929"/>
<path d="M236.237 113.221C236.154 113.223 236.072 113.203 236.002 113.163L209.917 99.3852C209.846 99.3486 209.786 99.2953 209.745 99.2307C209.703 99.1661 209.682 99.0925 209.682 99.0176C209.682 98.9427 209.703 98.8692 209.745 98.8046C209.786 98.74 209.846 98.6866 209.917 98.65L236.002 84.8719C236.074 84.8349 236.154 84.8156 236.237 84.8156C236.319 84.8156 236.4 84.8349 236.471 84.8719L262.556 98.65C262.627 98.6866 262.687 98.74 262.728 98.8046C262.77 98.8692 262.792 98.9427 262.792 99.0176C262.792 99.0925 262.77 99.1661 262.728 99.2307C262.687 99.2953 262.627 99.3486 262.556 99.3852L236.498 113.18C236.418 113.218 236.326 113.233 236.237 113.221ZM211.082 99.0217L236.237 112.304L261.391 99.0217L236.237 85.7309L211.082 99.0217Z" fill="#989898" fill-opacity="0.4"/>
<path d="M102.581 185.185C102.498 185.187 102.417 185.167 102.346 185.128L42.6825 152.425C42.5875 152.362 42.5217 152.269 42.498 152.164C42.4743 152.059 42.4944 151.949 42.5544 151.857C42.6144 151.765 42.7099 151.697 42.8222 151.666C42.9345 151.635 43.0554 151.643 43.1611 151.69L102.599 184.268L121.623 175.133C121.732 175.08 121.859 175.068 121.978 175.101C122.096 175.133 122.196 175.207 122.255 175.306C122.312 175.407 122.323 175.524 122.286 175.633C122.249 175.741 122.166 175.831 122.056 175.884L102.797 185.177C102.727 185.196 102.653 185.199 102.581 185.185Z" fill="#989898" fill-opacity="0.4"/>
<path d="M167.192 155.308C167.08 155.317 166.969 155.289 166.878 155.229C166.786 155.169 166.722 155.081 166.696 154.981C166.669 154.881 166.683 154.775 166.735 154.684C166.786 154.593 166.872 154.521 166.976 154.482L205.936 135.698C206.003 135.664 206.079 135.646 206.157 135.646C206.234 135.646 206.311 135.664 206.378 135.698L243.722 154.524C243.775 154.551 243.822 154.587 243.86 154.631C243.898 154.675 243.926 154.725 243.943 154.779C243.96 154.832 243.965 154.888 243.958 154.944C243.951 154.999 243.932 155.053 243.903 155.102C243.873 155.151 243.833 155.194 243.785 155.228C243.737 155.263 243.683 155.289 243.624 155.304C243.565 155.32 243.504 155.324 243.443 155.318C243.382 155.311 243.324 155.294 243.27 155.267L206.125 136.599L167.409 155.308C167.338 155.324 167.264 155.324 167.192 155.308Z" fill="#989898" fill-opacity="0.4"/>
<path d="M243.523 158.257C247.043 158.257 249.897 156.752 249.897 154.895C249.897 153.038 247.043 151.533 243.523 151.533C240.002 151.533 237.148 153.038 237.148 154.895C237.148 156.752 240.002 158.257 243.523 158.257Z" fill="white"/>
<path d="M243.523 158.678C241.873 158.71 240.241 158.354 238.783 157.645C238.168 157.438 237.638 157.063 237.264 156.571C236.889 156.079 236.688 155.494 236.688 154.895C236.688 154.295 236.889 153.71 237.264 153.219C237.638 152.727 238.168 152.352 238.783 152.144C240.252 151.464 241.876 151.109 243.523 151.109C245.17 151.109 246.794 151.464 248.263 152.144C248.878 152.352 249.408 152.727 249.783 153.219C250.157 153.71 250.358 154.295 250.358 154.895C250.358 155.494 250.157 156.079 249.783 156.571C249.408 157.063 248.878 157.438 248.263 157.645C246.806 158.354 245.174 158.71 243.523 158.678ZM243.523 151.954C242.036 151.924 240.565 152.246 239.252 152.887C238.779 153.016 238.363 153.281 238.067 153.644C237.771 154.006 237.612 154.447 237.612 154.899C237.612 155.351 237.771 155.791 238.067 156.154C238.363 156.516 238.779 156.782 239.252 156.91C240.577 157.521 242.04 157.839 243.523 157.839C245.006 157.839 246.469 157.521 247.794 156.91C248.268 156.782 248.684 156.516 248.979 156.154C249.275 155.791 249.435 155.351 249.435 154.899C249.435 154.447 249.275 154.006 248.979 153.644C248.684 153.281 248.268 153.016 247.794 152.887C246.482 152.246 245.011 151.924 243.523 151.954Z" fill="#989898" fill-opacity="0.4"/>
<path d="M97.3979 110.083C100.918 110.083 103.772 108.577 103.772 106.721C103.772 104.864 100.918 103.359 97.3979 103.359C93.8774 103.359 91.0234 104.864 91.0234 106.721C91.0234 108.577 93.8774 110.083 97.3979 110.083Z" fill="white"/>
<path d="M97.3979 110.504C95.7493 110.534 94.12 110.176 92.6667 109.463C92.0513 109.257 91.5198 108.883 91.1443 108.392C90.7688 107.901 90.5674 107.316 90.5674 106.716C90.5674 106.117 90.7688 105.532 91.1443 105.041C91.5198 104.549 92.0513 104.176 92.6667 103.97C94.1347 103.29 95.757 102.935 97.4024 102.935C99.0478 102.935 100.67 103.29 102.138 103.97C102.754 104.176 103.285 104.549 103.661 105.041C104.036 105.532 104.237 106.117 104.237 106.716C104.237 107.316 104.036 107.901 103.661 108.392C103.285 108.883 102.754 109.257 102.138 109.463C100.682 110.176 99.0493 110.534 97.3979 110.504ZM97.3979 103.772C95.9109 103.747 94.4415 104.068 93.1272 104.705C92.6533 104.834 92.2375 105.099 91.9418 105.462C91.6461 105.824 91.4864 106.264 91.4864 106.716C91.4864 107.169 91.6461 107.609 91.9418 107.971C92.2375 108.334 92.6533 108.599 93.1272 108.728C94.452 109.343 95.9167 109.664 97.4024 109.664C98.8881 109.664 100.353 109.343 101.678 108.728C102.152 108.599 102.567 108.334 102.863 107.971C103.159 107.609 103.318 107.169 103.318 106.716C103.318 106.264 103.159 105.824 102.863 105.462C102.567 105.099 102.152 104.834 101.678 104.705C100.361 104.067 98.8879 103.746 97.3979 103.772Z" fill="#989898" fill-opacity="0.4"/>
<path d="M46.0232 169.515L15.4512 153.375V145.866L46.0232 162.007V169.515Z" fill="white"/>
<path d="M45.9874 169.928C45.908 169.927 45.8304 169.907 45.7617 169.871L15.2257 153.73C15.1587 153.693 15.1029 153.641 15.0634 153.579C15.024 153.517 15.0022 153.446 15 153.375V145.866C15.0005 145.794 15.0216 145.723 15.0612 145.661C15.1008 145.599 15.1575 145.547 15.2257 145.511C15.2944 145.475 15.3722 145.456 15.4514 145.456C15.5307 145.456 15.6085 145.475 15.6772 145.511L46.2492 161.652C46.3175 161.688 46.3742 161.739 46.4138 161.802C46.4534 161.864 46.4745 161.935 46.475 162.007V169.515C46.4745 169.587 46.4534 169.658 46.4138 169.72C46.3742 169.783 46.3175 169.834 46.2492 169.871C46.1688 169.91 46.0786 169.93 45.9874 169.928ZM15.9029 153.135L45.5721 168.83V162.246L15.9029 146.552V153.135Z" fill="#282929"/>
<path d="M76.5865 153.391L46.0234 169.491V161.982L76.5865 145.883V153.391Z" fill="white"/>
<path d="M45.9877 169.904C45.9077 169.906 45.8289 169.886 45.7619 169.846C45.6924 169.811 45.6346 169.76 45.5949 169.697C45.5551 169.635 45.5348 169.563 45.5362 169.491V161.982C45.5367 161.91 45.5578 161.839 45.5974 161.777C45.637 161.715 45.6937 161.663 45.7619 161.627L76.325 145.528C76.3936 145.491 76.4714 145.472 76.5507 145.472C76.6299 145.472 76.7078 145.491 76.7764 145.528C76.8459 145.562 76.9037 145.614 76.9435 145.676C76.9833 145.739 77.0036 145.811 77.0021 145.883V153.392C77.0036 153.464 76.9833 153.535 76.9435 153.598C76.9037 153.661 76.8459 153.712 76.7764 153.747L46.2495 169.846C46.1714 169.891 46.0795 169.911 45.9877 169.904ZM46.4391 162.222V168.772L76.0992 153.152V146.602L46.4391 162.222Z" fill="#282929"/>
<path d="M46.0232 162.015L15.4512 145.866L46.0232 129.725L76.5863 145.866L46.0232 162.015Z" fill="url(#paint0_linear_2015_8913)"/>
<path d="M45.9874 162.428C45.908 162.427 45.8304 162.407 45.7617 162.371L15.2257 146.222C15.1569 146.186 15.0996 146.135 15.0599 146.072C15.0203 146.01 14.9996 145.939 15 145.867C15.0005 145.794 15.0216 145.724 15.0612 145.661C15.1008 145.599 15.1575 145.547 15.2257 145.511L45.7978 129.362C45.8664 129.326 45.9443 129.307 46.0235 129.307C46.1028 129.307 46.1806 129.326 46.2492 129.362L76.8123 145.511C76.8818 145.546 76.9396 145.598 76.9793 145.66C77.0191 145.723 77.0394 145.794 77.038 145.867C77.0405 145.939 77.0206 146.011 76.9807 146.074C76.9408 146.136 76.8824 146.188 76.8123 146.222L46.2492 162.371C46.1688 162.41 46.0787 162.43 45.9874 162.428ZM16.3544 145.867L46.0235 161.561L75.6837 145.867L45.9874 130.197L16.3544 145.867Z" fill="#282929"/>
<path d="M46.0231 157.794L23.4326 145.866L46.0231 133.938L68.6045 145.866L46.0231 157.794Z" fill="#989898" fill-opacity="0.4"/>
<path d="M45.9875 158.224C45.9054 158.222 45.8251 158.202 45.7527 158.166L23.2074 146.222C23.1355 146.185 23.0757 146.131 23.0344 146.065C22.9931 146 22.9718 145.926 22.9727 145.85C22.9745 145.775 22.9969 145.702 23.038 145.637C23.079 145.572 23.1373 145.517 23.2074 145.478L45.7798 133.551C45.8501 133.514 45.9294 133.495 46.0101 133.495C46.0907 133.495 46.17 133.514 46.2403 133.551L68.8127 145.478C68.8818 145.518 68.9387 145.572 68.9782 145.638C69.0177 145.703 69.0384 145.776 69.0384 145.85C69.0412 145.925 69.0216 145.999 68.9819 146.065C68.9421 146.13 68.8836 146.184 68.8127 146.222L46.2403 158.15C46.165 158.195 46.0776 158.221 45.9875 158.224ZM24.318 145.834L45.9875 157.274L67.657 145.834L45.9875 134.434L24.318 145.834Z" fill="white"/>
<path d="M46.0232 158.009L15.4512 141.868V134.368L46.0232 150.508V158.009Z" fill="white"/>
<path d="M45.9874 158.422C45.9088 158.424 45.831 158.407 45.7617 158.373L15.2257 142.224C15.1575 142.188 15.1008 142.136 15.0612 142.074C15.0216 142.012 15.0005 141.941 15 141.869V134.368C15.0007 134.295 15.0218 134.223 15.0613 134.16C15.1008 134.096 15.1574 134.043 15.2257 134.005C15.2944 133.969 15.3722 133.95 15.4514 133.95C15.5307 133.95 15.6085 133.969 15.6772 134.005L46.2492 150.154C46.3181 150.189 46.3753 150.241 46.415 150.303C46.4547 150.366 46.4754 150.437 46.475 150.509V158.009C46.4743 158.083 46.4532 158.154 46.4137 158.218C46.3742 158.282 46.3176 158.335 46.2492 158.373C46.1682 158.41 46.0779 158.427 45.9874 158.422ZM15.9029 141.629L45.5721 157.324V150.773L15.9029 135.079V141.629Z" fill="#282929"/>
<path d="M76.5865 141.885L46.0234 157.984V150.484L76.5865 134.385V141.885Z" fill="white"/>
<path d="M45.9877 158.397C45.909 158.399 45.8313 158.382 45.7619 158.348C45.6924 158.311 45.6348 158.258 45.5951 158.194C45.5554 158.13 45.5351 158.058 45.5362 157.984V150.484C45.5348 150.412 45.5551 150.34 45.5949 150.278C45.6346 150.215 45.6924 150.163 45.7619 150.129L76.325 134.029C76.3936 133.993 76.4714 133.974 76.5507 133.974C76.6299 133.974 76.7078 133.993 76.7764 134.029C76.8459 134.064 76.9037 134.116 76.9435 134.178C76.9833 134.241 77.0036 134.312 77.0021 134.385V141.885C77.0032 141.958 76.9829 142.031 76.9432 142.095C76.9036 142.159 76.846 142.212 76.7764 142.248L46.2495 158.348C46.1685 158.385 46.0782 158.402 45.9877 158.397ZM46.4391 150.724V157.274L76.0992 141.645V135.095L46.4391 150.724Z" fill="#282929"/>
<path d="M46.0232 150.509L15.4512 134.368L46.0232 118.219L76.5863 134.368L46.0232 150.509Z" fill="#282929"/>
<path d="M45.9874 150.922C45.9088 150.923 45.831 150.906 45.7617 150.872L15.2257 134.723C15.1575 134.687 15.1008 134.636 15.0612 134.573C15.0216 134.511 15.0005 134.44 15 134.368C15.0007 134.295 15.0218 134.223 15.0613 134.16C15.1008 134.096 15.1574 134.043 15.2257 134.005L45.7978 117.864C45.8664 117.828 45.9443 117.809 46.0235 117.809C46.1028 117.809 46.1806 117.828 46.2492 117.864L76.8123 134.005C76.8818 134.042 76.9394 134.095 76.9791 134.158C77.0188 134.222 77.0391 134.295 77.038 134.368C77.0394 134.441 77.0191 134.512 76.9793 134.575C76.9395 134.637 76.8818 134.689 76.8123 134.723L46.2492 150.872C46.1682 150.91 46.0779 150.927 45.9874 150.922ZM16.3182 134.401L45.9874 150.096L75.6475 134.401L45.9874 118.698L16.3182 134.401Z" fill="#282929"/>
<path d="M46.0231 146.295L23.4326 134.368L46.0231 122.44L68.6045 134.368L46.0231 146.295Z" fill="#989898" fill-opacity="0.4"/>
<path d="M45.987 146.718C45.9043 146.719 45.8229 146.699 45.7523 146.66L23.1799 134.732C23.1084 134.696 23.049 134.642 23.0076 134.578C22.9662 134.513 22.9443 134.439 22.9443 134.365C22.9443 134.29 22.9662 134.216 23.0076 134.152C23.049 134.087 23.1084 134.034 23.1799 133.997L45.7523 122.069C45.8225 122.033 45.9018 122.014 45.9825 122.014C46.0632 122.014 46.1424 122.033 46.2127 122.069L68.7851 133.997C68.8543 134.035 68.9115 134.089 68.9512 134.154C68.9909 134.218 69.0117 134.291 69.0117 134.365C69.0117 134.439 68.9909 134.511 68.9512 134.576C68.9115 134.64 68.8543 134.694 68.7851 134.732L46.2127 146.66C46.1453 146.699 46.0668 146.719 45.987 146.718ZM24.3175 134.369L45.987 145.801L67.6565 134.369L45.987 122.928L24.3175 134.369Z" fill="white"/>
<path d="M46.0232 146.511L15.4512 130.37V122.862L46.0232 139.002V146.511Z" fill="white"/>
<path d="M45.9874 146.924C45.9074 146.927 45.8286 146.906 45.7617 146.866L15.2257 130.726C15.1575 130.69 15.1008 130.638 15.0612 130.576C15.0216 130.513 15.0005 130.443 15 130.37V122.862C15.0005 122.79 15.0216 122.719 15.0612 122.657C15.1008 122.594 15.1575 122.543 15.2257 122.507C15.2944 122.47 15.3722 122.451 15.4514 122.451C15.5307 122.451 15.6085 122.47 15.6772 122.507L46.2492 138.647C46.3175 138.683 46.3742 138.735 46.4138 138.797C46.4534 138.86 46.4745 138.93 46.475 139.002V146.511C46.4745 146.583 46.4534 146.654 46.4138 146.716C46.3742 146.778 46.3175 146.83 46.2492 146.866C46.1711 146.911 46.0792 146.931 45.9874 146.924ZM15.9029 130.131L45.5721 145.825V139.275L15.9029 123.58V130.131Z" fill="#282929"/>
<path d="M76.5865 130.387L46.0234 146.486V138.986L76.5865 122.886V130.387Z" fill="white"/>
<path d="M45.9877 146.9C45.9077 146.902 45.8289 146.882 45.7619 146.842C45.6924 146.807 45.6346 146.756 45.5949 146.693C45.5551 146.63 45.5348 146.559 45.5362 146.486V138.986C45.5351 138.913 45.5554 138.84 45.5951 138.776C45.6348 138.712 45.6924 138.659 45.7619 138.623L76.325 122.523C76.3934 122.487 76.471 122.468 76.55 122.468C76.629 122.468 76.7067 122.487 76.7752 122.523C76.8438 122.559 76.9008 122.61 76.9406 122.673C76.9804 122.735 77.0016 122.806 77.0021 122.879V130.387C77.0036 130.46 76.9833 130.531 76.9435 130.594C76.9037 130.656 76.8459 130.708 76.7764 130.742L46.2495 146.842C46.1714 146.886 46.0795 146.907 45.9877 146.9ZM46.4391 139.217V145.768L76.0992 130.148V123.597L46.4391 139.217Z" fill="#282929"/>
<path d="M46.0232 139.01L15.4512 122.862L46.0232 106.721L76.5863 122.862L46.0232 139.01Z" fill="white"/>
<path d="M45.9874 139.423C45.9074 139.425 45.8286 139.405 45.7617 139.365L15.2257 123.224C15.1574 123.186 15.1008 123.133 15.0613 123.069C15.0218 123.006 15.0007 122.934 15 122.861C15.0005 122.789 15.0216 122.718 15.0612 122.656C15.1008 122.594 15.1575 122.542 15.2257 122.506L45.7978 106.357C45.8664 106.321 45.9443 106.302 46.0235 106.302C46.1028 106.302 46.1806 106.321 46.2492 106.357L76.8123 122.506C76.8818 122.54 76.9395 122.592 76.9793 122.654C77.0191 122.717 77.0394 122.789 77.038 122.861C77.0391 122.934 77.0188 123.007 76.9791 123.071C76.9394 123.135 76.8818 123.188 76.8123 123.224L46.2492 139.365C46.1711 139.41 46.0792 139.43 45.9874 139.423ZM16.3543 122.861L46.0235 138.556L75.6836 122.861L45.9874 107.191L16.3543 122.861Z" fill="#282929"/>
<path d="M45.987 135.219C45.9043 135.22 45.8229 135.2 45.7523 135.161L23.1799 123.233C23.1084 123.196 23.049 123.143 23.0076 123.079C22.9662 123.014 22.9443 122.94 22.9443 122.866C22.9443 122.791 22.9662 122.717 23.0076 122.652C23.049 122.588 23.1084 122.535 23.1799 122.498L45.7523 110.562C45.8225 110.526 45.9018 110.507 45.9825 110.507C46.0632 110.507 46.1424 110.526 46.2127 110.562L68.7851 122.498C68.8543 122.536 68.9115 122.59 68.9512 122.655C68.9909 122.719 69.0117 122.792 69.0117 122.866C69.0117 122.939 68.9909 123.012 68.9512 123.077C68.9115 123.141 68.8543 123.195 68.7851 123.233L46.2127 135.161C46.1453 135.2 46.0668 135.22 45.987 135.219ZM24.3175 122.828L45.987 134.269L67.6565 122.828L45.987 111.429L24.3175 122.828Z" fill="#989898" fill-opacity="0.4"/>
<path d="M25.9282 132.558C26.2521 132.387 26.2519 131.832 25.9277 131.319C25.6036 130.805 25.0783 130.527 24.7544 130.698C24.4305 130.869 24.4307 131.425 24.7549 131.938C25.079 132.452 25.6043 132.729 25.9282 132.558Z" fill="#989898" fill-opacity="0.4"/>
<path d="M22.5395 130.762C22.8634 130.591 22.8632 130.036 22.5391 129.522C22.215 129.009 21.6896 128.731 21.3657 128.902C21.0419 129.073 21.0421 129.628 21.3662 130.142C21.6903 130.655 22.2156 130.933 22.5395 130.762Z" fill="#989898" fill-opacity="0.4"/>
<path d="M19.1518 128.975C19.4757 128.804 19.4755 128.249 19.1514 127.735C18.8273 127.221 18.3019 126.944 17.978 127.115C17.6542 127.286 17.6544 127.841 17.9785 128.355C18.3026 128.868 18.8279 129.146 19.1518 128.975Z" fill="#989898" fill-opacity="0.4"/>
<path d="M214.739 110.928C215.114 110.73 215.116 110.088 214.742 109.496C214.368 108.903 213.76 108.584 213.384 108.782C213.009 108.98 213.007 109.622 213.381 110.214C213.755 110.807 214.363 111.127 214.739 110.928Z" fill="#989898" fill-opacity="0.4"/>
<path d="M210.83 108.863C211.205 108.664 211.207 108.023 210.833 107.431C210.459 106.838 209.851 106.518 209.475 106.717C209.099 106.915 209.098 107.557 209.472 108.149C209.846 108.742 210.454 109.061 210.83 108.863Z" fill="#989898" fill-opacity="0.4"/>
<path d="M207.875 107.275C208.252 107.076 208.255 106.433 207.881 105.837C207.507 105.242 206.898 104.92 206.52 105.119C206.143 105.317 206.14 105.961 206.514 106.556C206.888 107.151 207.497 107.473 207.875 107.275Z" fill="#989898" fill-opacity="0.4"/>
<path d="M203.994 192.711C203.912 192.713 203.83 192.693 203.76 192.653L168.682 173.746C168.629 173.718 168.582 173.681 168.545 173.637C168.508 173.593 168.48 173.543 168.464 173.489C168.448 173.435 168.444 173.379 168.452 173.324C168.46 173.269 168.48 173.216 168.51 173.167C168.574 173.07 168.677 173 168.796 172.971C168.916 172.941 169.043 172.956 169.152 173.01L204.229 191.918C204.349 191.947 204.451 192.018 204.514 192.115C204.577 192.213 204.594 192.329 204.563 192.439C204.532 192.548 204.455 192.642 204.348 192.699C204.241 192.757 204.114 192.773 203.994 192.744V192.711Z" fill="#989898" fill-opacity="0.4"/>
<path d="M192.365 190.001V195.412C192.365 198.047 194.27 200.69 198.081 202.697C205.701 206.728 218.053 206.728 225.673 202.697C229.483 200.69 231.388 198.047 231.388 195.412V190.001H192.365Z" fill="white"/>
<path d="M211.876 206.1C206.994 206.191 202.167 205.139 197.854 203.044C194.026 201.02 191.913 198.303 191.913 195.395V190.001C191.913 189.892 191.961 189.787 192.045 189.709C192.13 189.632 192.245 189.588 192.365 189.588H231.388C231.507 189.588 231.622 189.632 231.707 189.709C231.792 189.787 231.839 189.892 231.839 190.001V195.412C231.839 198.319 229.726 201.037 225.898 203.061C221.583 205.149 216.757 206.195 211.876 206.1ZM192.816 190.406V195.403C192.816 198.005 194.766 200.467 198.306 202.334C205.791 206.29 217.962 206.29 225.447 202.334C228.986 200.467 230.936 198.005 230.936 195.403V190.406H192.816Z" fill="#282929"/>
<path d="M211.877 199.541C222.653 199.541 231.388 194.926 231.388 189.232C231.388 183.539 222.653 178.924 211.877 178.924C201.101 178.924 192.365 183.539 192.365 189.232C192.365 194.926 201.101 199.541 211.877 199.541Z" fill="white"/>
<path d="M211.876 199.914C206.994 200.004 202.167 198.952 197.854 196.858C194.026 194.834 191.913 192.116 191.913 189.208C191.913 186.301 194.026 183.583 197.854 181.559C205.583 177.479 218.169 177.479 225.898 181.559C229.726 183.583 231.839 186.301 231.839 189.208C231.839 192.116 229.726 194.834 225.898 196.858C221.585 198.951 216.758 200.003 211.876 199.914ZM211.876 179.313C207.16 179.233 202.499 180.253 198.333 182.278C194.793 184.145 192.843 186.607 192.843 189.208C192.843 191.81 194.793 194.272 198.333 196.139C205.818 200.096 217.989 200.087 225.474 196.139C229.013 194.272 230.963 191.81 230.963 189.208C230.963 186.607 229.013 184.145 225.474 182.278C221.289 180.254 216.609 179.242 211.876 179.337V179.313Z" fill="#282929"/>
<path d="M211.876 196.519C219.496 196.519 225.673 193.257 225.673 189.233C225.673 185.209 219.496 181.948 211.876 181.948C204.257 181.948 198.08 185.209 198.08 189.233C198.08 193.257 204.257 196.519 211.876 196.519Z" fill="white"/>
<path d="M211.876 196.94C208.398 197.005 204.959 196.251 201.89 194.751C199.127 193.298 197.61 191.34 197.61 189.234C197.61 187.127 199.127 185.17 201.89 183.707C207.398 180.8 216.336 180.8 221.862 183.707C224.571 185.17 226.142 187.127 226.142 189.234C226.142 191.34 224.625 193.298 221.862 194.751C218.793 196.251 215.355 197.005 211.876 196.94ZM211.876 182.369C208.559 182.31 205.28 183.026 202.351 184.451C199.895 185.748 198.54 187.449 198.54 189.234C198.54 191.018 199.895 192.719 202.351 194.016C207.605 196.792 216.147 196.792 221.402 194.016C223.858 192.719 225.203 191.018 225.203 189.234C225.203 187.449 223.858 185.748 221.402 184.451C218.472 183.026 215.193 182.31 211.876 182.369Z" fill="#989898" fill-opacity="0.4"/>
<path d="M143.048 192.331L88.4502 163.502V150.096L143.048 178.924V192.331Z" fill="white"/>
<path d="M143.049 192.744C142.969 192.744 142.891 192.724 142.823 192.686L88.2247 163.857C88.1577 163.82 88.1019 163.768 88.0625 163.706C88.023 163.644 88.0012 163.574 87.999 163.502V150.096C87.9995 150.024 88.0206 149.953 88.0602 149.89C88.0998 149.828 88.1565 149.776 88.2247 149.74C88.2934 149.704 88.3712 149.685 88.4505 149.685C88.5297 149.685 88.6076 149.704 88.6762 149.74L143.274 178.569C143.343 178.605 143.399 178.657 143.439 178.719C143.478 178.781 143.5 178.852 143.5 178.924V192.331C143.501 192.403 143.481 192.474 143.441 192.537C143.402 192.6 143.344 192.651 143.274 192.686C143.207 192.725 143.128 192.745 143.049 192.744ZM88.8748 163.263L142.597 191.653V179.164L88.9019 150.814L88.8748 163.263Z" fill="#282929"/>
<path d="M197.647 163.536L143.049 192.29V178.883L197.647 150.129V163.536Z" fill="white"/>
<path d="M143.049 192.703C142.969 192.703 142.891 192.683 142.823 192.645C142.755 192.609 142.698 192.557 142.659 192.495C142.619 192.433 142.598 192.362 142.598 192.29V178.883C142.598 178.811 142.619 178.74 142.659 178.678C142.698 178.616 142.755 178.564 142.823 178.528L197.421 149.774C197.49 149.738 197.568 149.719 197.647 149.719C197.726 149.719 197.804 149.738 197.873 149.774C197.942 149.809 198 149.86 198.04 149.923C198.08 149.985 198.1 150.057 198.099 150.129V163.569C198.098 163.641 198.077 163.711 198.037 163.774C197.998 163.836 197.941 163.888 197.873 163.924L143.275 192.645C143.207 192.684 143.129 192.704 143.049 192.703ZM143.501 179.123V191.571L197.196 163.296V150.84L143.501 179.123Z" fill="#282929"/>
<path d="M143.048 178.932L88.4502 150.095L143.048 121.259L197.646 150.095L143.048 178.932Z" fill="white"/>
<path d="M143.048 179.345C142.97 179.344 142.893 179.327 142.823 179.295L88.2244 150.45C88.1547 150.416 88.0966 150.364 88.056 150.302C88.0155 150.239 87.9941 150.168 87.9941 150.095C87.9941 150.023 88.0155 149.951 88.056 149.889C88.0966 149.826 88.1547 149.775 88.2244 149.74L142.823 120.895C142.892 120.862 142.97 120.845 143.048 120.845C143.127 120.845 143.204 120.862 143.274 120.895L197.872 149.74C197.942 149.775 198 149.826 198.04 149.889C198.081 149.951 198.102 150.023 198.102 150.095C198.102 150.168 198.081 150.239 198.04 150.302C198 150.364 197.942 150.416 197.872 150.45L143.274 179.262C143.208 179.307 143.13 179.335 143.048 179.345ZM89.326 150.095L143.048 178.436L196.771 150.095L143.048 121.729L89.326 150.095Z" fill="#282929"/>
<path d="M143.049 167.26C161.001 167.26 175.553 159.575 175.553 150.095C175.553 140.616 161.001 132.931 143.049 132.931C125.098 132.931 110.545 140.616 110.545 150.095C110.545 159.575 125.098 167.26 143.049 167.26Z" fill="white"/>
<path d="M143.049 167.699C134.643 167.699 126.237 166.046 119.835 162.627C113.434 159.207 110.084 154.862 110.084 150.121C110.084 145.379 113.542 140.935 119.835 137.615C132.638 130.849 153.468 130.849 166.262 137.615C172.582 140.919 176.022 145.379 176.022 150.121C176.022 154.862 172.555 159.306 166.262 162.627C159.969 165.947 151.455 167.699 143.049 167.699ZM143.049 133.377C134.814 133.377 126.571 135.029 120.296 138.333C114.31 141.497 111.014 145.677 111.014 150.104C111.014 154.532 114.31 158.711 120.296 161.875C132.846 168.483 153.251 168.483 165.802 161.875C171.788 158.711 175.083 154.532 175.083 150.104C175.083 145.677 171.788 141.497 165.802 138.333C159.527 135.013 151.292 133.352 143.049 133.352V133.377Z" fill="#989898" fill-opacity="0.4"/>
<path d="M178.091 169.937L164.168 177.281V172.482L178.091 165.13V169.937Z" fill="white"/>
<path d="M164.168 177.71C164.085 177.711 164.004 177.691 163.933 177.652C163.862 177.615 163.804 177.56 163.764 177.495C163.724 177.429 163.705 177.355 163.707 177.28V172.481C163.706 172.408 163.726 172.335 163.766 172.271C163.806 172.207 163.863 172.154 163.933 172.118L177.856 164.766C177.924 164.725 178.004 164.704 178.086 164.704C178.168 164.704 178.248 164.725 178.316 164.766C178.387 164.802 178.446 164.855 178.487 164.919C178.528 164.983 178.55 165.055 178.551 165.129V169.937C178.55 170.011 178.528 170.084 178.487 170.147C178.446 170.211 178.387 170.264 178.316 170.3L164.403 177.652C164.332 177.691 164.25 177.711 164.168 177.71ZM164.637 172.754V176.57L177.621 169.714V165.898L164.637 172.754Z" fill="#989898" fill-opacity="0.4"/>
<path d="M108.018 168.503C108.613 168.188 108.611 167.165 108.013 166.216C107.415 165.268 106.447 164.755 105.851 165.069C105.255 165.384 105.257 166.408 105.855 167.356C106.453 168.304 107.422 168.818 108.018 168.503Z" fill="#989898" fill-opacity="0.4"/>
<path d="M101.771 165.21C102.367 164.896 102.365 163.872 101.767 162.924C101.169 161.975 100.2 161.462 99.6045 161.777C99.0085 162.091 99.0105 163.115 99.6089 164.064C100.207 165.012 101.175 165.525 101.771 165.21Z" fill="#989898" fill-opacity="0.4"/>
<path d="M95.5253 161.919C96.1213 161.604 96.1193 160.58 95.5209 159.632C94.9225 158.684 93.9543 158.17 93.3584 158.485C92.7624 158.8 92.7644 159.824 93.3628 160.772C93.9612 161.72 94.9294 162.234 95.5253 161.919Z" fill="#989898" fill-opacity="0.4"/>
<path d="M95.0684 76.48L143.283 54.392L191.931 77.876L143.5 106.721L95.0684 76.48Z" fill="url(#paint1_linear_2015_8913)"/>
<path d="M143.5 107.134C143.409 107.135 143.321 107.109 143.247 107.06L94.816 76.8354C94.75 76.7949 94.697 76.7392 94.6621 76.674C94.6272 76.6087 94.6118 76.5362 94.6173 76.4637C94.6244 76.3922 94.6514 76.3236 94.6956 76.2643C94.7399 76.205 94.7999 76.1571 94.8701 76.125L143.085 54.0287C143.15 54.0002 143.221 53.9854 143.292 53.9854C143.364 53.9854 143.435 54.0002 143.5 54.0287L192.139 77.521C192.21 77.5536 192.27 77.6029 192.313 77.6639C192.356 77.725 192.38 77.7954 192.383 77.868C192.384 77.9396 192.366 78.0103 192.33 78.0738C192.293 78.1373 192.24 78.1915 192.175 78.2314L143.744 107.068C143.671 107.11 143.586 107.133 143.5 107.134ZM95.9626 76.5711L143.5 106.226L191.029 77.9175L143.283 54.8548L95.9626 76.5711Z" fill="#282929"/>
<path d="M143.283 6.474V95.3218L190.658 66.0142L143.283 6.474Z" fill="#1F1F1F"/>
<path d="M143.283 95.7347C143.211 95.7351 143.139 95.7181 143.076 95.6852C143.003 95.6506 142.942 95.5985 142.899 95.5345C142.856 95.4704 142.833 95.3969 142.832 95.3217V6.47392C142.833 6.38701 142.865 6.30271 142.921 6.23301C142.978 6.1633 143.057 6.11175 143.148 6.08568C143.239 6.05706 143.337 6.05608 143.428 6.08289C143.519 6.1097 143.598 6.16286 143.654 6.23437L191.02 65.7746C191.056 65.8188 191.083 65.8696 191.097 65.9237C191.111 65.9777 191.112 66.0339 191.101 66.0885C191.079 66.1985 191.011 66.2963 190.911 66.3611L143.5 95.6604C143.437 95.703 143.362 95.7288 143.283 95.7347ZM143.735 7.746V94.5452L190.017 65.915L143.735 7.746Z" fill="#282929"/>
<path d="M143.283 6.474L95.0684 66.0142L143.283 95.3218V6.474Z" fill="#1F1F1F"/>
<path d="M143.283 95.7347C143.197 95.7332 143.113 95.7104 143.039 95.6687L94.8247 66.3611C94.7726 66.3308 94.7281 66.291 94.6938 66.244C94.6596 66.1971 94.6365 66.1441 94.626 66.0885C94.6164 66.0339 94.6186 65.978 94.6325 65.9242C94.6465 65.8703 94.6719 65.8195 94.7073 65.7746L142.922 6.23437C142.977 6.16286 143.056 6.1097 143.148 6.08289C143.239 6.05608 143.337 6.05706 143.428 6.08568C143.516 6.1142 143.592 6.16662 143.647 6.23598C143.702 6.30534 143.733 6.38833 143.735 6.47392V95.3217C143.734 95.3958 143.712 95.4685 143.671 95.5323C143.629 95.5961 143.57 95.6488 143.5 95.6852C143.433 95.7171 143.359 95.7341 143.283 95.7347ZM95.7185 65.915L142.832 94.5535V7.72948L95.7185 65.915Z" fill="#282929"/>
<path d="M95.0684 76.4801L143.283 138.118V106.721L95.0684 76.4801Z" fill="#1F1F1F"/>
<path d="M143.284 138.532C143.213 138.531 143.143 138.515 143.08 138.485C143.017 138.455 142.963 138.411 142.923 138.358L94.7441 76.7198C94.6748 76.6463 94.6367 76.5525 94.6367 76.4555C94.6367 76.3585 94.6748 76.2646 94.7441 76.1912C94.8187 76.1221 94.9175 76.0792 95.0232 76.0702C95.1288 76.0611 95.2346 76.0864 95.322 76.1416L143.537 106.374C143.595 106.415 143.643 106.467 143.676 106.528C143.709 106.588 143.726 106.654 143.726 106.721V138.11C143.726 138.196 143.696 138.28 143.641 138.349C143.586 138.419 143.508 138.471 143.419 138.499C143.377 138.517 143.331 138.528 143.284 138.532ZM96.9291 78.1488L142.832 136.797V106.936L96.9291 78.1488Z" fill="#282929"/>
<path d="M143.283 138.119L191.931 77.8762L143.283 106.721V138.119Z" fill="#1F1F1F"/>
<path d="M143.283 138.532C143.239 138.54 143.193 138.54 143.148 138.532C143.057 138.506 142.978 138.454 142.921 138.384C142.865 138.315 142.833 138.23 142.832 138.144V106.754C142.832 106.685 142.851 106.617 142.888 106.557C142.924 106.496 142.976 106.445 143.04 106.407L191.688 77.5625C191.776 77.5099 191.881 77.4877 191.985 77.4998C192.09 77.5119 192.186 77.5576 192.257 77.6286C192.324 77.7028 192.361 77.7963 192.361 77.8929C192.361 77.9895 192.324 78.083 192.257 78.1572L143.618 138.391C143.575 138.434 143.524 138.469 143.466 138.493C143.409 138.517 143.347 138.53 143.283 138.532ZM143.735 106.944V136.863L190.09 79.4624L143.735 106.944Z" fill="#282929"/>
<path d="M28.1641 103.433L45.9421 95.2883L63.8736 103.945L46.0233 114.576L28.1641 103.433Z" fill="url(#paint2_linear_2015_8913)"/>
<path d="M45.9876 114.998C45.8942 114.998 45.803 114.972 45.7258 114.924L27.9297 103.772C27.8651 103.733 27.8129 103.678 27.7781 103.614C27.7433 103.551 27.7271 103.48 27.731 103.409C27.7358 103.336 27.7617 103.265 27.8061 103.204C27.8505 103.143 27.9119 103.094 27.9839 103.062L45.7619 94.9172C45.8251 94.8888 45.8946 94.874 45.965 94.874C46.0355 94.874 46.105 94.8888 46.1682 94.9172L64.1087 103.582C64.174 103.62 64.2277 103.673 64.2649 103.735C64.3021 103.797 64.3216 103.867 64.3216 103.937C64.3216 104.008 64.3021 104.078 64.2649 104.14C64.2277 104.202 64.174 104.255 64.1087 104.293L46.2675 114.924C46.1871 114.979 46.0877 115.005 45.9876 114.998ZM29.0132 103.491L45.9876 114.081L62.953 103.987L45.8973 95.7267L29.0132 103.491Z" fill="#282929"/>
<path d="M45.9424 77.6201V110.38L63.4044 99.576L45.9424 77.6201Z" fill="#1F1F1F"/>
<path d="M45.9876 110.793C45.9121 110.792 45.8378 110.775 45.7709 110.743C45.7003 110.707 45.6414 110.654 45.6002 110.59C45.5589 110.527 45.5369 110.454 45.5361 110.38V77.6608C45.538 77.5749 45.5691 77.4916 45.6252 77.4225C45.6813 77.3535 45.7596 77.3023 45.849 77.2759C45.9385 77.2495 46.0348 77.2493 46.1243 77.2754C46.2139 77.3015 46.2924 77.3525 46.3487 77.4213L63.8198 99.3689C63.8904 99.4599 63.9195 99.5725 63.901 99.6828C63.8911 99.7386 63.8682 99.7917 63.8339 99.8388C63.7997 99.8858 63.7548 99.9255 63.7024 99.9554L46.1952 110.702C46.1365 110.749 46.0646 110.781 45.9876 110.793ZM46.439 78.8916V109.603L62.8176 99.468L46.439 78.8916Z" fill="#282929"/>
<path d="M45.9421 77.6201L28.1641 99.576L45.9421 110.38V77.6201Z" fill="#1F1F1F"/>
<path d="M45.9875 110.794C45.8969 110.793 45.8086 110.767 45.7346 110.719L27.9295 99.9147C27.8784 99.8844 27.835 99.8444 27.8023 99.7973C27.7695 99.7503 27.7483 99.6974 27.7399 99.6421C27.7287 99.5875 27.7301 99.5314 27.7441 99.4773C27.7581 99.4232 27.7844 99.3724 27.8212 99.3282L45.5992 77.3724C45.6561 77.303 45.7353 77.2518 45.8258 77.2259C45.9162 77.2001 46.0132 77.2009 46.1031 77.2283C46.193 77.2558 46.2712 77.3084 46.3266 77.3787C46.382 77.449 46.4118 77.5335 46.4118 77.6202V110.381C46.4111 110.455 46.389 110.527 46.3478 110.591C46.3066 110.655 46.2477 110.708 46.1771 110.744C46.1183 110.772 46.0537 110.789 45.9875 110.794ZM28.8324 99.4687L45.518 109.612V78.8757L28.8324 99.4687Z" fill="#282929"/>
<path d="M28.1641 103.433L45.9421 126.157V114.577L28.1641 103.433Z" fill="#1F1F1F"/>
<path d="M45.987 126.57C45.9145 126.572 45.8428 126.556 45.7782 126.526C45.7137 126.496 45.6582 126.451 45.6168 126.397L27.7936 103.673C27.7335 103.594 27.7056 103.498 27.7145 103.402C27.7235 103.306 27.7689 103.216 27.8428 103.147C27.9168 103.079 28.0146 103.036 28.1194 103.026C28.2242 103.017 28.3293 103.041 28.4166 103.095L46.1947 114.238C46.256 114.277 46.3061 114.328 46.3407 114.389C46.3753 114.449 46.3934 114.517 46.3933 114.585V126.149C46.3939 126.238 46.3635 126.324 46.3066 126.395C46.2498 126.466 46.1694 126.519 46.0773 126.546L45.987 126.57ZM30.0689 105.094L45.5355 124.861V114.833L30.0689 105.094Z" fill="#282929"/>
<path d="M45.9424 126.158L63.8739 103.946L45.9424 114.577V126.158Z" fill="#1F1F1F"/>
<path d="M45.9876 126.571H45.8431C45.7535 126.542 45.6758 126.488 45.6208 126.417C45.5659 126.346 45.5363 126.261 45.5361 126.174V114.61C45.5363 114.541 45.5553 114.473 45.5916 114.412C45.6279 114.352 45.6802 114.3 45.7438 114.263L63.6753 103.624C63.7647 103.571 63.8717 103.548 63.9774 103.56C64.0832 103.572 64.1809 103.618 64.2532 103.69C64.3191 103.765 64.3551 103.858 64.3551 103.954C64.3551 104.05 64.3191 104.144 64.2532 104.218L46.3036 126.397C46.2676 126.445 46.2208 126.486 46.1663 126.516C46.1117 126.546 46.0508 126.564 45.9876 126.571ZM46.439 114.808V124.902L62.0862 105.532L46.439 114.808Z" fill="#282929"/>
<path d="M215.886 68.7894L237.059 59.0835L258.412 69.4006L237.149 82.0637L215.886 68.7894Z" fill="url(#paint3_linear_2015_8913)"/>
<path d="M237.149 82.4773C237.058 82.4768 236.97 82.4509 236.896 82.403L215.633 69.1287C215.568 69.088 215.516 69.0325 215.481 68.9677C215.447 68.9029 215.432 68.8311 215.438 68.7593C215.443 68.6875 215.469 68.6183 215.513 68.5585C215.556 68.4987 215.616 68.4503 215.687 68.4183L236.851 58.7124C236.916 58.6839 236.986 58.6691 237.058 58.6691C237.13 58.6691 237.201 58.6839 237.266 58.7124L258.629 69.0296C258.698 69.0632 258.756 69.113 258.797 69.174C258.838 69.2349 258.861 69.3048 258.863 69.3765C258.867 69.4476 258.851 69.5184 258.816 69.5821C258.781 69.6458 258.729 69.7002 258.665 69.7399L237.401 82.4112C237.325 82.4529 237.238 82.4757 237.149 82.4773ZM216.77 68.8396L237.158 81.5687L257.527 69.4013L237.049 59.4889L216.77 68.8396Z" fill="#282929"/>
<path d="M237.059 38.0453V77.0587L257.861 64.1891L237.059 38.0453Z" fill="#1F1F1F"/>
<path d="M237.058 77.4709C236.982 77.4702 236.908 77.4533 236.841 77.4213C236.769 77.3864 236.709 77.3339 236.668 77.2698C236.627 77.2057 236.605 77.1324 236.606 77.0579V38.0114C236.608 37.9254 236.64 37.8421 236.696 37.7731C236.752 37.7041 236.83 37.6528 236.919 37.6265C237.009 37.6001 237.105 37.5999 237.195 37.626C237.284 37.6521 237.363 37.7031 237.419 37.7719L258.186 63.9157C258.256 64.0067 258.285 64.1193 258.267 64.2296C258.242 64.3384 258.174 64.4352 258.077 64.5022L237.311 77.3718C237.238 77.4252 237.15 77.4594 237.058 77.4709ZM237.509 39.3166V76.2814L257.265 64.0892L237.509 39.3166Z" fill="#282929"/>
<path d="M237.059 38.0453L215.886 64.1891L237.059 77.0587V38.0453Z" fill="#1F1F1F"/>
<path d="M237.058 77.4713C236.969 77.4709 236.882 77.448 236.806 77.4053L215.633 64.5357C215.582 64.5046 215.539 64.4644 215.507 64.4175C215.474 64.3706 215.453 64.318 215.443 64.2631C215.432 64.2085 215.433 64.1523 215.447 64.0983C215.461 64.0442 215.487 63.9934 215.524 63.9492L236.697 37.8054C236.75 37.7334 236.828 37.6797 236.918 37.6528C237.008 37.6259 237.105 37.6272 237.194 37.6567C237.284 37.6827 237.364 37.7343 237.421 37.804C237.477 37.8737 237.509 37.958 237.51 38.0449V77.0583C237.511 77.1338 237.489 77.2082 237.446 77.2726C237.403 77.337 237.34 77.3887 237.266 77.4218C237.203 77.4546 237.131 77.4717 237.058 77.4713ZM216.527 64.0896L236.607 76.2901V39.3005L216.527 64.0896Z" fill="#282929"/>
<path d="M215.886 68.7893L237.059 95.8501V82.0636L215.886 68.7893Z" fill="#1F1F1F"/>
<path d="M237.058 96.2634C236.986 96.2624 236.915 96.2463 236.851 96.2162C236.787 96.1861 236.731 96.1429 236.688 96.0899L215.515 69.0292C215.449 68.9505 215.415 68.8525 215.422 68.7532C215.428 68.6539 215.473 68.5599 215.549 68.4886C215.624 68.4172 215.726 68.3733 215.834 68.3649C215.942 68.3565 216.05 68.3841 216.138 68.4427L237.311 81.7252C237.373 81.7617 237.424 81.8118 237.458 81.8711C237.493 81.9303 237.511 81.9967 237.51 82.0639V95.8338C237.51 95.9222 237.48 96.0083 237.423 96.0797C237.366 96.151 237.286 96.2038 237.194 96.2303L237.058 96.2634ZM217.745 70.4499L236.607 94.5618V82.2787L217.745 70.4499Z" fill="#282929"/>
<path d="M237.059 95.85L258.412 69.4005L237.059 82.0636V95.85Z" fill="#1F1F1F"/>
<path d="M237.058 96.2636H236.914C236.824 96.2346 236.746 96.181 236.691 96.11C236.636 96.039 236.607 95.9541 236.607 95.8671V82.0642C236.605 81.9948 236.623 81.9262 236.66 81.8653C236.696 81.8045 236.749 81.7534 236.814 81.7173L258.168 69.0542C258.257 69.001 258.364 68.9785 258.47 68.9906C258.576 69.0027 258.673 69.0486 258.746 69.1203C258.812 69.1952 258.847 69.2885 258.847 69.3846C258.847 69.4808 258.812 69.5741 258.746 69.649L237.383 96.0819C237.346 96.1317 237.298 96.1736 237.242 96.205C237.186 96.2363 237.123 96.2563 237.058 96.2636ZM237.509 82.2872V94.5951L256.579 70.9871L237.509 82.2872Z" fill="#282929"/>
<defs>
<linearGradient id="paint0_linear_2015_8913" x1="22.176" y1="122.326" x2="88.8715" y2="143.057" gradientUnits="userSpaceOnUse">
<stop stop-color="#FFB11B"/>
<stop offset="1" stop-color="#FF441B"/>
</linearGradient>
<linearGradient id="paint1_linear_2015_8913" x1="105.723" y1="42.3999" x2="211.809" y2="74.638" gradientUnits="userSpaceOnUse">
<stop stop-color="#FFB11B"/>
<stop offset="1" stop-color="#FF441B"/>
</linearGradient>
<linearGradient id="paint2_linear_2015_8913" x1="32.0921" y1="90.8682" x2="71.2005" y2="102.755" gradientUnits="userSpaceOnUse">
<stop stop-color="#FFB11B"/>
<stop offset="1" stop-color="#FF441B"/>
</linearGradient>
<linearGradient id="paint3_linear_2015_8913" x1="220.564" y1="53.8172" x2="267.141" y2="67.968" gradientUnits="userSpaceOnUse">
<stop stop-color="#FFB11B"/>
<stop offset="1" stop-color="#FF441B"/>
</linearGradient>
</defs>
</svg>
