<svg width="277" height="214" viewBox="0 0 277 214" fill="none" xmlns="http://www.w3.org/2000/svg">
<path d="M160.279 49.1924C160.279 49.1924 171.096 46.8293 190.23 55.7657C209.365 64.7022 217.498 72.2204 217.498 72.2204L203.592 20.3223C203.592 20.3223 177.605 2.65345 149.068 0.927732L160.279 49.1924Z" fill="#1F1F1F"/>
<path d="M217.629 72.7094C217.547 72.7331 217.46 72.735 217.378 72.7149C217.295 72.6947 217.219 72.6531 217.157 72.5943C217.075 72.5219 208.829 65.013 190.016 56.2211C171.204 47.4292 160.488 49.6603 160.381 49.6892C160.251 49.7133 160.117 49.6868 160.006 49.615C159.895 49.5432 159.815 49.4317 159.784 49.3033L148.534 1.09094C148.517 1.01395 148.518 0.933912 148.538 0.857461C148.557 0.781009 148.595 0.710347 148.647 0.651329C148.696 0.588933 148.758 0.539461 148.83 0.50735C148.902 0.475239 148.981 0.461492 149.06 0.467338C177.454 2.16841 203.622 19.7679 203.89 19.9478C203.99 20.0131 204.062 20.1137 204.092 20.2296L217.998 72.1277C218.026 72.2337 218.019 72.3459 217.978 72.4477C217.938 72.5495 217.865 72.6353 217.771 72.6922L217.629 72.7094ZM160.658 48.6075C163.007 48.2507 173.393 47.294 190.446 55.3188C205.298 62.2543 213.634 68.4166 216.635 70.8031L203.201 20.6676C201.021 19.2264 176.429 3.35617 149.717 1.50876L160.658 48.6075Z" fill="#282929"/>
<path d="M52.7198 97.4293L40.3408 51.2302C56.6156 40.1898 74.9423 32.5311 94.2333 28.7085L106.109 73.0275C106.109 73.0275 72.1371 83.1376 52.7198 97.4293Z" fill="#1F1F1F"/>
<path d="M52.8609 97.9173C52.7607 97.9424 52.6558 97.9416 52.556 97.915C52.4795 97.8839 52.4112 97.8356 52.3564 97.7738C52.3017 97.712 52.2619 97.6385 52.2401 97.5588L39.8611 51.3598C39.8343 51.263 39.8374 51.1604 39.8701 51.0655C39.9027 50.9706 39.9633 50.8878 40.044 50.828C56.4052 39.7672 74.8053 32.0754 94.1708 28.2015C94.2964 28.1784 94.4261 28.2036 94.5339 28.272C94.6417 28.3404 94.7198 28.447 94.7524 28.5704L106.625 72.8796C106.645 72.9423 106.651 73.0082 106.645 73.0736C106.638 73.1389 106.619 73.2022 106.587 73.2597C106.555 73.3172 106.512 73.3677 106.461 73.4082C106.409 73.4486 106.35 73.4782 106.286 73.4952C105.944 73.587 72.1478 83.7655 52.9901 97.8512C52.95 97.8785 52.9066 97.9007 52.8609 97.9173ZM40.9322 51.4401L53.0304 96.5914C71.121 83.5369 101.381 73.949 105.52 72.672L93.8966 29.293C74.9667 33.1517 56.9742 40.6752 40.9322 51.4401Z" fill="#282929"/>
<path d="M57.3397 88.0353C57.234 88.066 57.1209 88.0592 57.0197 88.0161C56.9458 87.9882 56.8798 87.9427 56.8274 87.8836C56.7749 87.8245 56.7377 87.7536 56.7189 87.6769L47.9213 54.844C47.8865 54.7141 47.9048 54.5758 47.972 54.4593C48.0392 54.3429 48.1499 54.258 48.2797 54.2232C48.4095 54.1911 48.5466 54.2105 48.6623 54.2773C48.7781 54.3442 48.8635 54.4532 48.9005 54.5816L57.5197 86.7486C61.5829 84.1696 84.5996 69.8371 94.4705 69.2702C94.5383 69.2658 94.6062 69.2748 94.6705 69.2967C94.7347 69.3186 94.794 69.3529 94.845 69.3978C94.896 69.4426 94.9377 69.497 94.9676 69.5579C94.9976 69.6188 95.0153 69.685 95.0197 69.7528C95.024 69.8205 95.015 69.8884 94.9931 69.9527C94.9712 70.017 94.9369 70.0763 94.8921 70.1273C94.8473 70.1783 94.7929 70.2199 94.7319 70.2499C94.671 70.2798 94.6048 70.2975 94.5371 70.3019C84.2019 70.8987 57.7541 87.8193 57.4866 87.9959L57.3397 88.0353Z" fill="#989898"/>
<path d="M38.1582 128.858C38.1582 128.858 23.364 140.232 22.5409 162.345L11.5945 121.493C11.5945 121.493 5.92688 101.79 25.8631 82.9724L38.1582 128.858Z" fill="#1F1F1F"/>
<path d="M22.6218 162.848L22.5532 162.866C22.4325 162.883 22.3099 162.855 22.2085 162.787C22.1072 162.72 22.0342 162.617 22.0036 162.499L11.0545 121.637C11.0021 121.441 5.63118 101.396 25.4623 82.6174C25.5263 82.5561 25.6048 82.512 25.6903 82.4891C25.7759 82.4661 25.8659 82.4652 25.9519 82.4862C26.0359 82.5108 26.112 82.5567 26.173 82.6194C26.2339 82.6822 26.2776 82.7597 26.2998 82.8443L38.5948 128.73C38.6202 128.827 38.6164 128.929 38.5839 129.024C38.5514 129.118 38.4915 129.201 38.412 129.262C33.7161 133.436 29.9257 138.528 27.2749 144.224C24.6241 149.92 23.1691 156.099 22.9999 162.379C22.9953 162.487 22.9561 162.591 22.888 162.676C22.8199 162.76 22.7266 162.82 22.6218 162.848ZM25.5462 83.9488C6.84793 102.099 11.9591 121.174 12.0115 121.37L22.1708 159.285C23.2679 147.524 28.7445 136.606 37.5147 128.694L25.5462 83.9488Z" fill="#282929"/>
<path d="M11.5449 121.506C11.5449 121.506 20.3878 138.175 37.681 139.849L50.4903 187.654C50.4903 187.654 29.2588 180.056 22.4913 162.359L11.5449 121.506Z" fill="white"/>
<path d="M50.6217 188.143C50.5235 188.17 50.4191 188.165 50.324 188.128C50.1038 188.051 28.7879 180.255 22.0249 162.536L11.0654 121.634C11.0163 121.508 11.0193 121.368 11.0737 121.244C11.1281 121.12 11.2295 121.023 11.3555 120.974C11.4815 120.925 11.6219 120.928 11.7457 120.982C11.8695 121.037 11.9667 121.138 12.0157 121.264C12.0603 121.431 20.9458 137.71 37.7564 139.345C37.8571 139.356 37.9522 139.397 38.0296 139.462C38.1069 139.527 38.163 139.614 38.1904 139.712L50.9997 187.517C51.0229 187.606 51.0213 187.7 50.995 187.788C50.9688 187.877 50.9189 187.956 50.8508 188.018C50.7878 188.081 50.7084 188.124 50.6217 188.143ZM12.8653 124.552L22.9616 162.232C28.7544 177.388 45.5938 185.124 49.7216 186.82L37.2639 140.327C24.5245 138.924 16.2642 129.403 12.8653 124.552Z" fill="#282929"/>
<path d="M185.863 149.367L166.953 78.7952C166.953 78.7952 227.272 60.1245 245.735 28.1314L265.279 101.073C265.279 101.073 245.565 128.395 185.863 149.367Z" fill="#1F1F1F"/>
<path d="M185.992 149.856C185.869 149.887 185.739 149.873 185.625 149.818C185.564 149.784 185.51 149.738 185.466 149.683C185.422 149.628 185.39 149.565 185.371 149.497L166.462 78.9256C166.428 78.7991 166.444 78.6644 166.507 78.5496C166.57 78.4349 166.676 78.349 166.801 78.3101C167.408 78.1474 227.141 59.3291 245.272 27.8974C245.325 27.8119 245.401 27.743 245.491 27.6984C245.581 27.6539 245.682 27.6355 245.782 27.6453C245.883 27.6583 245.977 27.7014 246.054 27.769C246.13 27.8366 246.184 27.9255 246.209 28.0242L265.748 100.946C265.769 101.019 265.772 101.097 265.758 101.172C265.743 101.247 265.711 101.317 265.664 101.378C265.474 101.649 245.198 129.069 186.042 149.884L185.992 149.856ZM167.564 79.1235L186.209 148.706C242.095 128.925 262.801 103.383 264.715 100.929L245.561 29.4466C227.411 59.1205 173.168 77.3177 167.564 79.1235Z" fill="#282929"/>
<path d="M66.8281 209.262L53.8613 160.869C53.8613 160.869 85.7301 171.504 125.153 156.67L137.804 203.887C137.804 203.887 113.436 219.012 66.8281 209.262Z" fill="white"/>
<path d="M124.206 209.62C112.338 212.8 92.9922 215.255 66.7207 209.763C66.6299 209.741 66.5466 209.695 66.4794 209.63C66.4122 209.565 66.3635 209.484 66.3383 209.394L53.3715 161.001C53.3488 160.913 53.3497 160.821 53.3741 160.733C53.3985 160.645 53.4456 160.566 53.5107 160.502C53.5736 160.436 53.6535 160.389 53.7416 160.365C53.8297 160.341 53.9226 160.343 54.0101 160.368C54.3315 160.471 86.1848 170.775 124.957 156.177C125.022 156.153 125.091 156.142 125.161 156.145C125.23 156.148 125.298 156.165 125.361 156.195C125.422 156.229 125.476 156.275 125.52 156.33C125.563 156.385 125.596 156.448 125.614 156.515L138.266 203.733C138.295 203.837 138.289 203.948 138.25 204.049C138.211 204.15 138.141 204.236 138.05 204.295C137.943 204.365 133.244 207.198 124.206 209.62ZM67.2388 208.837C110.053 217.705 134.167 205.314 137.207 203.618L124.799 157.311C89.5376 170.401 60.0074 163.127 54.579 161.591L67.2388 208.837Z" fill="#282929"/>
<path d="M196.572 132.548C196.449 132.581 196.319 132.567 196.205 132.51C196.144 132.476 196.09 132.43 196.046 132.375C196.002 132.32 195.97 132.257 195.951 132.189L182.481 81.9167C182.448 81.7951 182.461 81.6654 182.518 81.5531C182.575 81.4407 182.673 81.3537 182.79 81.309C185.852 80.1632 197.613 75.4481 197.738 75.4042C197.804 75.3781 197.875 75.366 197.946 75.3686C198.017 75.3713 198.087 75.3885 198.151 75.4194C198.216 75.4498 198.273 75.494 198.319 75.5489C198.364 75.6038 198.397 75.668 198.415 75.7371L211.628 125.05C211.654 125.147 211.65 125.249 211.617 125.344C211.585 125.438 211.525 125.521 211.446 125.582C207.446 128.752 197.044 132.39 196.602 132.54L196.572 132.548ZM183.578 82.095L196.789 131.398C198.913 130.63 207.024 127.606 210.563 124.989L197.585 76.5576C195.319 77.4589 186.691 80.9041 183.549 82.1028L183.578 82.095Z" fill="url(#paint0_linear_2015_9237)"/>
<path d="M220.155 120.718C220.04 120.749 219.918 120.737 219.811 120.685C219.745 120.652 219.687 120.607 219.639 120.551C219.592 120.495 219.556 120.43 219.535 120.36L209.079 81.3382C209.049 81.2223 209.061 81.0995 209.112 80.9915C209.164 80.8835 209.252 80.7973 209.362 80.7482C214.35 78.3996 219.091 75.5577 223.513 72.2649C223.574 72.2074 223.647 72.166 223.728 72.1445C223.808 72.1229 223.893 72.1219 223.974 72.1416C224.052 72.1697 224.123 72.2166 224.18 72.2782C224.237 72.3398 224.278 72.4142 224.299 72.4951L234.532 110.684C234.555 110.774 234.554 110.867 234.527 110.956C234.501 111.044 234.451 111.124 234.383 111.186C230.145 115.016 225.38 118.219 220.234 120.697L220.155 120.718ZM210.168 81.4871L220.356 119.51C225.103 117.15 229.513 114.169 233.471 110.643L223.527 73.5311C219.333 76.59 214.865 79.2525 210.178 81.4845L210.168 81.4871Z" fill="url(#paint1_linear_2015_9237)"/>
<path d="M242.062 105.457C241.953 105.489 241.837 105.483 241.732 105.441C241.661 105.409 241.598 105.362 241.548 105.303C241.497 105.244 241.461 105.174 241.441 105.099L234.016 77.3873C233.988 77.2785 233.997 77.1634 234.042 77.0603C234.086 76.9572 234.164 76.8718 234.262 76.8175C238.799 74.2891 242.89 71.0337 246.373 67.1809C246.438 67.1145 246.519 67.0669 246.609 67.0429C246.699 67.0189 246.793 67.0194 246.882 67.0444C246.974 67.0646 247.058 67.1098 247.126 67.1751C247.194 67.2404 247.242 67.3232 247.265 67.4142L254.774 95.4392C254.796 95.5212 254.797 95.6073 254.777 95.6897C254.757 95.7721 254.716 95.8481 254.659 95.9108C250.978 99.6709 246.779 102.885 242.187 105.455L242.062 105.457ZM235.098 77.5068L242.253 104.21C246.449 101.797 250.303 98.833 253.714 95.398L246.516 68.5383C243.169 72.0697 239.322 75.0913 235.098 77.5068Z" fill="url(#paint2_linear_2015_9237)"/>
<path d="M224.861 60.6102C224.736 60.6605 224.595 60.6589 224.471 60.6057C224.346 60.5524 224.248 60.4519 224.197 60.3262C224.147 60.2006 224.149 60.06 224.202 59.9355C224.255 59.8111 224.356 59.7128 224.481 59.6624C224.589 59.6336 234.926 53.7153 241.589 45.1711C241.673 45.0676 241.795 45.0009 241.927 44.9849C242.06 44.9689 242.194 45.0049 242.3 45.0854C242.406 45.1684 242.475 45.29 242.491 45.4235C242.507 45.5569 242.469 45.6913 242.386 45.7971C235.579 54.5478 225.061 60.4937 224.961 60.5519L224.861 60.6102Z" fill="#73F25F"/>
<path d="M233.976 60.9077C233.853 60.9684 233.711 60.9779 233.581 60.9339C233.452 60.89 233.345 60.7963 233.284 60.6734C233.223 60.5505 233.214 60.4085 233.257 60.2786C233.301 60.1488 233.395 60.0417 233.518 59.9809L235.027 58.758C238.098 56.5251 240.818 53.8471 243.099 50.8122C243.182 50.7188 243.295 50.659 243.419 50.6441C243.543 50.6293 243.667 50.6604 243.769 50.7317C243.872 50.8029 243.944 50.9092 243.973 51.0303C244.001 51.1515 243.985 51.279 243.925 51.3885C241.589 54.4999 238.807 57.2504 235.67 59.5513L234.158 60.7644C234.109 60.8246 234.046 60.8734 233.976 60.9077Z" fill="#73F25F"/>
<path d="M35.7411 149.689C35.6441 149.714 35.542 149.712 35.4459 149.684C29.6132 147.56 24.157 144.519 19.2835 140.675C19.1817 140.591 19.117 140.469 19.1033 140.338C19.0896 140.206 19.128 140.074 19.2101 139.971C19.2962 139.868 19.4187 139.803 19.552 139.788C19.6852 139.774 19.8188 139.812 19.9245 139.895C24.7017 143.659 30.0487 146.637 35.7641 148.717C35.8918 148.762 35.9969 148.855 36.0569 148.976C36.1169 149.097 36.1269 149.237 36.0849 149.366C36.058 149.443 36.0127 149.513 35.9529 149.57C35.893 149.626 35.8203 149.667 35.7411 149.689Z" fill="#989898" fill-opacity="0.4"/>
<path d="M38.1522 158.688C38.0553 158.713 37.9532 158.711 37.8571 158.683C32.0244 156.56 26.5682 153.518 21.6946 149.674C21.5928 149.59 21.5282 149.469 21.5145 149.337C21.5008 149.205 21.5391 149.073 21.6213 148.97C21.7073 148.867 21.8298 148.802 21.9631 148.787C22.0963 148.773 22.2299 148.811 22.3356 148.894C27.113 152.662 32.461 155.643 38.1779 157.726C38.3056 157.77 38.4107 157.863 38.4707 157.985C38.5306 158.106 38.5407 158.246 38.4986 158.374C38.4702 158.451 38.4239 158.519 38.3637 158.573C38.3034 158.628 38.2309 158.667 38.1522 158.688Z" fill="#989898" fill-opacity="0.4"/>
<path d="M40.5634 167.687C40.4664 167.712 40.3643 167.711 40.2682 167.682C34.4355 165.559 28.9793 162.517 24.1057 158.673C24.004 158.589 23.9393 158.468 23.9256 158.336C23.9119 158.204 23.9502 158.073 24.0324 157.969C24.1184 157.866 24.241 157.801 24.3742 157.787C24.5075 157.772 24.641 157.81 24.7467 157.893C29.5176 161.657 34.858 164.637 40.5668 166.72C40.6945 166.765 40.7996 166.858 40.8596 166.979C40.9196 167.101 40.9296 167.24 40.8875 167.369C40.8619 167.444 40.8193 167.511 40.763 167.566C40.7068 167.621 40.6384 167.663 40.5634 167.687Z" fill="#989898" fill-opacity="0.4"/>
<path d="M204.805 57.2012C204.735 57.2221 204.661 57.2269 204.589 57.2154C204.517 57.2038 204.448 57.1762 204.388 57.1345C190.915 48.056 167.696 41.3473 167.469 41.2823C167.386 41.2568 167.31 41.2106 167.249 41.148C167.188 41.0854 167.144 41.0084 167.121 40.9242L158.56 8.97261C158.525 8.84276 158.543 8.7044 158.611 8.58798C158.678 8.47156 158.788 8.38661 158.918 8.35181C159.048 8.31974 159.185 8.33914 159.301 8.40597C159.417 8.47279 159.502 8.58183 159.539 8.71023L168.027 40.3876C170.706 41.1811 192.142 47.6641 204.962 56.2986C205.076 56.3661 205.159 56.4756 205.194 56.6038C205.228 56.7319 205.211 56.8685 205.145 56.984C205.064 57.0972 204.942 57.1749 204.805 57.2012Z" fill="#989898"/>
<path d="M188.415 39.1952C188.074 39.2873 187.717 39.2967 187.372 39.2226C185.396 38.8181 184.054 35.7669 182.632 32.5374C181.607 30.1989 180.541 27.7873 179.28 26.5298C179.161 26.3769 179 26.2613 178.818 26.1968C178.635 26.1323 178.437 26.1216 178.249 26.166C175.5 26.7975 171.783 35.7593 170.564 39.1611C170.509 39.2724 170.416 39.3599 170.301 39.4069C170.186 39.4539 170.058 39.4572 169.941 39.4162C169.824 39.3751 169.726 39.2925 169.666 39.1841C169.605 39.0757 169.587 38.9489 169.614 38.8278C170.074 37.5291 174.226 26.1943 177.937 25.1999L178.025 25.1763C178.38 25.0938 178.751 25.1084 179.098 25.2185C179.445 25.3286 179.756 25.5302 179.998 25.8021C181.418 27.1848 182.491 29.6996 183.559 32.121C184.807 34.9353 186.109 37.9135 187.577 38.2232C187.891 38.2516 188.208 38.2027 188.499 38.0808C188.79 37.9589 189.047 37.7677 189.247 37.5238C191.036 35.8002 192.489 33.7596 193.533 31.5057C194.735 28.9651 196.376 26.6566 198.381 24.6863C198.477 24.5926 198.606 24.5408 198.74 24.5422C198.874 24.5437 199.002 24.5982 199.096 24.694C199.187 24.7926 199.236 24.9226 199.233 25.0566C199.23 25.1907 199.174 25.3182 199.079 25.4123C197.158 27.3115 195.587 29.5337 194.436 31.9774C193.333 34.3314 191.809 36.4645 189.941 38.272C189.515 38.6992 188.991 39.0161 188.415 39.1952Z" fill="#989898"/>
<path d="M65.6498 82.978C65.52 83.0128 65.3816 82.9945 65.2652 82.9273C65.1488 82.8601 65.0638 82.7494 65.029 82.6195L57.6221 54.9765C57.5934 54.8719 57.599 54.761 57.638 54.6599C57.677 54.5587 57.7474 54.4728 57.8388 54.4146C59.5416 53.3355 61.3294 52.3967 63.1844 51.6074C63.2496 51.5803 63.3202 51.5686 63.3907 51.5734C63.4612 51.5782 63.5296 51.5993 63.5906 51.635C63.6555 51.6648 63.7129 51.7089 63.7585 51.7639C63.8041 51.8188 63.8368 51.8834 63.8541 51.9527L71.1115 79.0377C71.1436 79.1674 71.1242 79.3045 71.0573 79.4203C70.9905 79.536 70.8815 79.6214 70.7531 79.6585C70.6232 79.6932 70.4849 79.675 70.3684 79.6078C70.252 79.5406 70.1671 79.4299 70.1323 79.3L63.0218 52.7635C61.5313 53.4384 60.087 54.211 58.6984 55.0764L66.0082 82.3572C66.043 82.487 66.0248 82.6254 65.9576 82.7418C65.8904 82.8582 65.7797 82.9432 65.6498 82.978Z" fill="#989898"/>
<path d="M121.932 200.355C121.834 200.375 121.731 200.367 121.638 200.331C121.544 200.294 121.463 200.231 121.405 200.15L102.584 172.994L96.9077 199.283C96.8881 199.366 96.8486 199.443 96.7927 199.507C96.7369 199.572 96.6662 199.621 96.5869 199.652C96.5062 199.682 96.4193 199.69 96.3346 199.676C96.2499 199.662 96.1703 199.626 96.1036 199.572L80.2363 187.357L75.9703 201.125C75.9305 201.251 75.8439 201.357 75.7283 201.422C75.6128 201.486 75.4771 201.503 75.3491 201.47L68.0125 199.354C67.9487 199.336 67.889 199.306 67.8369 199.265C67.7848 199.224 67.7414 199.173 67.7093 199.116C67.6772 199.058 67.6569 198.994 67.6498 198.928C67.6426 198.862 67.6487 198.796 67.6676 198.732C67.686 198.668 67.7169 198.608 67.7586 198.555C67.8003 198.503 67.852 198.459 67.9107 198.427C67.9694 198.395 68.0339 198.374 68.1005 198.367C68.1671 198.36 68.2344 198.366 68.2987 198.385L75.1238 200.355L79.3979 186.343C79.4225 186.265 79.465 186.193 79.522 186.134C79.5791 186.075 79.6492 186.03 79.7267 186.003C79.8049 185.977 79.8885 185.971 79.9696 185.986C80.0507 186.001 80.1267 186.036 80.1904 186.089L96.0445 198.255L101.813 171.605C101.835 171.51 101.884 171.423 101.954 171.355C102.024 171.287 102.112 171.241 102.208 171.222C102.304 171.203 102.403 171.212 102.494 171.248C102.584 171.284 102.663 171.345 102.72 171.425L121.527 198.532L123.769 186.177C123.777 186.108 123.799 186.041 123.833 185.981C123.868 185.92 123.915 185.868 123.971 185.826C124.027 185.785 124.091 185.755 124.159 185.74C124.226 185.724 124.297 185.723 124.365 185.735C124.434 185.748 124.499 185.775 124.556 185.814C124.614 185.853 124.663 185.903 124.7 185.962C124.738 186.021 124.763 186.087 124.773 186.155C124.784 186.224 124.781 186.294 124.763 186.362L122.28 199.968C122.26 200.057 122.218 200.139 122.157 200.207C122.096 200.275 122.018 200.326 121.932 200.355Z" fill="#989898" fill-opacity="0.4"/>
<path d="M75.8968 202.49C76.7242 202.268 77.2152 201.418 76.9935 200.59C76.7718 199.763 75.9213 199.272 75.0939 199.494C74.2665 199.715 73.7754 200.566 73.9971 201.393C74.2189 202.221 75.0693 202.712 75.8968 202.49Z" fill="white"/>
<path d="M76.0265 202.977C75.6391 203.081 75.2297 203.067 74.85 202.938C74.4703 202.809 74.1373 202.571 73.8932 202.253C73.6491 201.935 73.5048 201.551 73.4786 201.151C73.4523 200.751 73.5454 200.352 73.7459 200.005C73.9464 199.657 74.2453 199.377 74.605 199.2C74.9646 199.023 75.3688 198.956 75.7664 199.008C76.1639 199.061 76.5371 199.23 76.8386 199.494C77.14 199.759 77.3564 200.106 77.4601 200.494C77.5993 201.013 77.5265 201.567 77.2576 202.032C76.9887 202.498 76.5459 202.838 76.0265 202.977ZM75.2236 199.981C75.0299 200.032 74.856 200.141 74.7238 200.291C74.5916 200.442 74.5071 200.629 74.4809 200.827C74.4547 201.026 74.4881 201.228 74.5768 201.408C74.6655 201.588 74.8055 201.737 74.9791 201.838C75.1528 201.938 75.3522 201.984 75.5523 201.971C75.7524 201.958 75.9441 201.886 76.1031 201.764C76.2622 201.642 76.3815 201.475 76.4459 201.286C76.5104 201.096 76.5171 200.891 76.4652 200.697C76.3956 200.438 76.2257 200.216 75.9929 200.082C75.76 199.947 75.4833 199.911 75.2236 199.981Z" fill="#989898" fill-opacity="0.4"/>
<path d="M80.3196 188.016C81.147 187.795 81.6381 186.944 81.4164 186.117C81.1947 185.289 80.3442 184.798 79.5167 185.02C78.6893 185.242 78.1983 186.092 78.42 186.92C78.6417 187.747 79.4922 188.238 80.3196 188.016Z" fill="white"/>
<path d="M80.4513 188.507C80.064 188.61 79.6545 188.597 79.2748 188.468C78.8951 188.339 78.5621 188.101 78.318 187.783C78.0739 187.464 77.9296 187.081 77.9034 186.681C77.8771 186.281 77.9702 185.882 78.1707 185.534C78.3712 185.187 78.6701 184.907 79.0298 184.73C79.3894 184.552 79.7936 184.486 80.1912 184.538C80.5887 184.59 80.9619 184.76 81.2634 185.024C81.5649 185.288 81.7812 185.636 81.885 186.023C82.0241 186.543 81.9513 187.096 81.6824 187.562C81.4135 188.028 80.9707 188.367 80.4513 188.507ZM79.6484 185.51C79.4547 185.562 79.2808 185.67 79.1486 185.821C79.0164 185.972 78.9319 186.158 78.9057 186.357C78.8795 186.556 78.9129 186.758 79.0016 186.938C79.0903 187.118 79.2303 187.267 79.4039 187.367C79.5776 187.468 79.777 187.514 79.9771 187.501C80.1772 187.488 80.3689 187.416 80.5279 187.294C80.687 187.172 80.8063 187.005 80.8707 186.815C80.9352 186.625 80.9419 186.421 80.89 186.227C80.8204 185.967 80.6505 185.746 80.4177 185.612C80.1848 185.477 79.9081 185.441 79.6484 185.51Z" fill="#989898" fill-opacity="0.4"/>
<path d="M102.706 173.252C103.534 173.031 104.025 172.18 103.803 171.353C103.581 170.525 102.731 170.034 101.903 170.256C101.076 170.478 100.585 171.328 100.807 172.156C101.028 172.983 101.879 173.474 102.706 173.252Z" fill="white"/>
<path d="M102.838 173.743C102.451 173.847 102.041 173.833 101.662 173.704C101.282 173.575 100.949 173.337 100.705 173.019C100.461 172.7 100.316 172.317 100.29 171.917C100.264 171.517 100.357 171.118 100.557 170.771C100.758 170.423 101.057 170.143 101.417 169.966C101.776 169.789 102.18 169.722 102.578 169.774C102.975 169.826 103.349 169.996 103.65 170.26C103.952 170.524 104.168 170.872 104.272 171.26C104.411 171.779 104.338 172.332 104.069 172.798C103.8 173.264 103.357 173.604 102.838 173.743ZM102.035 170.746C101.841 170.798 101.668 170.906 101.535 171.057C101.403 171.208 101.319 171.394 101.292 171.593C101.266 171.792 101.3 171.994 101.388 172.174C101.477 172.354 101.617 172.503 101.791 172.604C101.964 172.704 102.164 172.75 102.364 172.737C102.564 172.724 102.756 172.652 102.915 172.53C103.074 172.408 103.193 172.241 103.257 172.051C103.322 171.862 103.329 171.657 103.277 171.463C103.207 171.203 103.037 170.982 102.804 170.848C102.572 170.713 102.295 170.677 102.035 170.746Z" fill="#989898" fill-opacity="0.4"/>
<path d="M122.204 201.362C123.032 201.141 123.523 200.29 123.301 199.463C123.079 198.635 122.229 198.144 121.402 198.366C120.574 198.588 120.083 199.438 120.305 200.266C120.526 201.093 121.377 201.584 122.204 201.362Z" fill="white"/>
<path d="M122.333 201.849C121.946 201.953 121.536 201.94 121.157 201.811C120.777 201.682 120.444 201.443 120.2 201.125C119.956 200.807 119.811 200.424 119.785 200.023C119.759 199.623 119.852 199.224 120.053 198.877C120.253 198.53 120.552 198.25 120.912 198.072C121.271 197.895 121.675 197.828 122.073 197.881C122.471 197.933 122.844 198.102 123.145 198.367C123.447 198.631 123.663 198.979 123.767 199.366C123.906 199.886 123.833 200.439 123.564 200.905C123.295 201.37 122.853 201.71 122.333 201.849ZM121.53 198.853C121.263 198.925 121.035 199.1 120.896 199.339C120.758 199.579 120.72 199.864 120.792 200.132C120.864 200.399 121.039 200.627 121.278 200.766C121.518 200.904 121.803 200.942 122.071 200.87C122.338 200.798 122.566 200.623 122.705 200.384C122.843 200.144 122.881 199.859 122.809 199.591C122.737 199.324 122.562 199.096 122.323 198.957C122.083 198.819 121.798 198.781 121.53 198.853Z" fill="#989898" fill-opacity="0.4"/>
<path d="M96.7698 200.686C97.5972 200.464 98.0883 199.614 97.8666 198.786C97.6449 197.959 96.7944 197.468 95.9669 197.69C95.1395 197.911 94.6485 198.762 94.8702 199.589C95.0919 200.417 95.9424 200.908 96.7698 200.686Z" fill="white"/>
<path d="M96.9015 201.173C96.5141 201.277 96.1047 201.263 95.725 201.134C95.3453 201.005 95.0123 200.767 94.7682 200.449C94.5241 200.13 94.3798 199.747 94.3536 199.347C94.3273 198.947 94.4203 198.548 94.6208 198.201C94.8214 197.853 95.1203 197.573 95.48 197.396C95.8396 197.219 96.2438 197.152 96.6414 197.204C97.0389 197.256 97.4121 197.426 97.7136 197.69C98.015 197.954 98.2314 198.302 98.3351 198.69C98.4743 199.209 98.4015 199.762 98.1326 200.228C97.8637 200.694 97.4209 201.034 96.9015 201.173ZM96.0986 198.176C95.9049 198.228 95.731 198.336 95.5988 198.487C95.4666 198.638 95.3821 198.824 95.3559 199.023C95.3297 199.222 95.3631 199.424 95.4518 199.604C95.5405 199.784 95.6805 199.933 95.8541 200.034C96.0277 200.134 96.2272 200.18 96.4273 200.167C96.6274 200.154 96.819 200.082 96.9781 199.96C97.1372 199.838 97.2565 199.671 97.3209 199.481C97.3854 199.292 97.3921 199.087 97.3402 198.893C97.2706 198.633 97.1007 198.412 96.8679 198.278C96.635 198.143 96.3583 198.107 96.0986 198.176Z" fill="#989898" fill-opacity="0.4"/>
<path d="M195.21 156.015C177.857 171.275 156.085 177.288 156.085 177.288L164.667 209.317C179.266 205.896 192.794 198.925 204.055 189.024L195.21 156.015Z" fill="white"/>
<path d="M167.386 209.164C166.525 209.395 165.673 209.623 164.801 209.856C164.673 209.885 164.538 209.864 164.424 209.797C164.31 209.73 164.227 209.622 164.19 209.495L155.595 177.416C155.56 177.287 155.578 177.148 155.645 177.032C155.713 176.915 155.823 176.83 155.953 176.796C156.169 176.738 177.811 170.634 194.876 155.63C194.939 155.571 195.016 155.529 195.1 155.507C195.183 155.484 195.271 155.482 195.355 155.501C195.436 155.527 195.509 155.573 195.568 155.634C195.626 155.695 195.669 155.77 195.691 155.852L204.536 188.861C204.562 188.952 204.563 189.048 204.537 189.138C204.511 189.229 204.46 189.31 204.389 189.373C193.751 198.742 181.085 205.517 167.386 209.164ZM165.038 208.743C179.27 205.326 192.464 198.518 203.496 188.898L194.929 156.927C179.225 170.465 159.974 176.642 156.71 177.663L165.038 208.743Z" fill="#282929"/>
<path d="M169.491 188.153C169.868 189.744 170.561 191.243 171.528 192.562C172.496 193.88 173.717 194.991 175.122 195.829C176.526 196.667 178.084 197.215 179.703 197.44C181.323 197.665 182.971 197.563 184.551 197.139C186.13 196.716 187.608 195.981 188.899 194.976C190.189 193.971 191.264 192.718 192.061 191.29C192.858 189.862 193.361 188.289 193.539 186.664C193.718 185.038 193.568 183.394 193.1 181.827L181.241 185.005L178.08 173.205C174.964 174.057 172.311 176.107 170.702 178.908C169.093 181.708 168.657 185.032 169.491 188.153Z" fill="url(#paint3_linear_2015_9237)"/>
<path d="M179.572 170.941L182.737 182.75L194.487 179.601C193.651 176.48 191.612 173.816 188.817 172.193C186.022 170.57 182.698 170.12 179.572 170.941Z" fill="#282929" fill-opacity="0.2"/>
<defs>
<linearGradient id="paint0_linear_2015_9237" x1="180.423" y1="67.0157" x2="200.273" y2="62.7634" gradientUnits="userSpaceOnUse">
<stop stop-color="#FFB11B"/>
<stop offset="1" stop-color="#FF441B"/>
</linearGradient>
<linearGradient id="paint1_linear_2015_9237" x1="206.839" y1="65.7577" x2="226.719" y2="61.7024" gradientUnits="userSpaceOnUse">
<stop stop-color="#FFB11B"/>
<stop offset="1" stop-color="#FF441B"/>
</linearGradient>
<linearGradient id="paint2_linear_2015_9237" x1="231.775" y1="62.4864" x2="249.792" y2="58.9896" gradientUnits="userSpaceOnUse">
<stop stop-color="#FFB11B"/>
<stop offset="1" stop-color="#FF441B"/>
</linearGradient>
<linearGradient id="paint3_linear_2015_9237" x1="167.452" y1="170.171" x2="196.181" y2="167.251" gradientUnits="userSpaceOnUse">
<stop stop-color="#FFB11B"/>
<stop offset="1" stop-color="#FF441B"/>
</linearGradient>
</defs>
</svg>
