<svg width="277" height="207" viewBox="0 0 277 207" fill="none" xmlns="http://www.w3.org/2000/svg">
<path d="M59.3232 157.514L60.491 162.967L140.562 210.339L268.182 133.677L267.029 128.292L59.3232 157.514Z" fill="#282929"/>
<path d="M140.627 210.769C140.521 210.792 140.411 210.775 140.317 210.721L60.2715 163.343C60.2206 163.312 60.1766 163.271 60.1419 163.222C60.1072 163.173 60.0826 163.118 60.0695 163.06L58.9018 157.607C58.8903 157.55 58.8906 157.49 58.9026 157.433C58.9147 157.376 58.9382 157.322 58.9718 157.274C59.0025 157.224 59.0446 157.182 59.0949 157.151C59.1451 157.12 59.2019 157.102 59.2606 157.097L266.965 127.867C267.073 127.85 267.185 127.876 267.275 127.938C267.366 128.001 267.429 128.096 267.452 128.204L268.605 133.589C268.622 133.677 268.612 133.768 268.575 133.85C268.539 133.932 268.479 134.001 268.403 134.048L140.782 210.71L140.627 210.769ZM60.8485 162.699L140.535 209.844L267.67 133.472L266.667 128.787L59.8435 157.882L60.8485 162.699Z" fill="#282929"/>
<path d="M59.3229 157.515L9.50224 65.0667L144.95 5.62143L183.718 88.0499L59.3229 157.515Z" fill="white"/>
<path d="M59.4136 157.936C59.3429 157.951 59.2698 157.948 59.2002 157.929C59.1452 157.914 59.0941 157.887 59.0499 157.851C59.0057 157.815 58.9694 157.77 58.9434 157.719L9.13119 65.2696C9.10337 65.2182 9.0865 65.1617 9.08163 65.1035C9.07676 65.0452 9.084 64.9866 9.1029 64.9314C9.12282 64.8743 9.15387 64.8217 9.19423 64.7767C9.2346 64.7317 9.28348 64.6951 9.33806 64.6691L144.778 5.22569C144.829 5.2018 144.884 5.18839 144.941 5.18625C144.997 5.18411 145.053 5.19329 145.106 5.21325C145.159 5.23321 145.207 5.26353 145.248 5.30245C145.289 5.34136 145.322 5.38807 145.344 5.43982L184.11 87.8598C184.158 87.9582 184.167 88.0716 184.133 88.176C184.099 88.2804 184.026 88.3676 183.93 88.4193L59.5619 157.887C59.5171 157.915 59.4663 157.932 59.4136 157.936ZM10.1049 65.2818L59.4982 156.93L183.164 87.8506L144.736 6.18797L10.1049 65.2818Z" fill="#282929"/>
<path d="M61.7088 148.538L17.9264 68.8694L141.371 13.5572L176.388 86.4684L61.7088 148.538Z" fill="white"/>
<path d="M61.8076 148.957C61.7163 148.978 61.6205 148.969 61.5354 148.929C61.4503 148.89 61.3806 148.823 61.3374 148.74L17.5888 69.0647C17.5551 69.0176 17.5315 68.964 17.5194 68.9074C17.5072 68.8508 17.5069 68.7923 17.5183 68.7355C17.5373 68.6779 17.568 68.6249 17.6085 68.5798C17.649 68.5347 17.6983 68.4984 17.7534 68.4732L141.198 13.1611C141.301 13.1175 141.418 13.1154 141.524 13.1552C141.629 13.195 141.715 13.2738 141.764 13.3752L176.796 86.2743C176.845 86.3738 176.854 86.4882 176.821 86.594C176.787 86.6997 176.715 86.7886 176.618 86.8422L61.9053 148.919L61.8076 148.957ZM18.5353 69.0739L61.909 147.947L175.826 86.279L141.165 14.1216L18.5353 69.0739Z" fill="#282929"/>
<path d="M183.718 88.0492L59.3235 157.514L139.139 203.281L267.029 128.291L183.718 88.0492Z" fill="white"/>
<path d="M139.229 203.705C139.125 203.725 139.018 203.707 138.927 203.655L59.1133 157.896C59.047 157.859 58.9919 157.804 58.9535 157.739C58.915 157.673 58.8947 157.598 58.8945 157.522C58.8943 157.446 58.9143 157.371 58.9525 157.305C58.9906 157.239 59.0455 157.184 59.1116 157.146L183.505 87.6731C183.566 87.6379 183.634 87.6181 183.704 87.6154C183.774 87.6127 183.844 87.6271 183.907 87.6575L267.218 127.9C267.287 127.936 267.345 127.989 267.387 128.055C267.429 128.12 267.453 128.195 267.457 128.272C267.463 128.35 267.446 128.428 267.409 128.497C267.372 128.566 267.317 128.623 267.249 128.661L139.358 203.651C139.319 203.677 139.275 203.696 139.229 203.705ZM60.1986 157.523L139.137 202.78L266.116 128.357L183.739 88.5589L60.1986 157.523Z" fill="#282929"/>
<path d="M183.173 96.265L76.0048 158.448L112.438 178.853L222.526 114.103L183.173 96.265Z" fill="white"/>
<path d="M112.528 179.273C112.424 179.293 112.317 179.275 112.226 179.223L75.7949 158.826C75.7272 158.79 75.6707 158.735 75.6316 158.669C75.5925 158.603 75.5723 158.527 75.573 158.45C75.5729 158.375 75.5924 158.301 75.6295 158.236C75.6666 158.171 75.7201 158.116 75.7847 158.078L182.96 95.8852C183.019 95.8519 183.085 95.8326 183.153 95.8288C183.221 95.8249 183.289 95.8366 183.352 95.8629L222.706 113.709C222.778 113.742 222.839 113.794 222.883 113.859C222.926 113.925 222.951 114.001 222.954 114.08C222.96 114.158 222.944 114.236 222.907 114.305C222.87 114.374 222.814 114.431 222.745 114.469L112.683 179.214C112.637 179.246 112.584 179.266 112.528 179.273ZM76.8783 158.444L112.427 178.35L221.592 114.151L183.202 96.7691L76.8783 158.444Z" fill="#282929" fill-opacity="0.2"/>
<path d="M154.03 82.2421C154.03 82.2421 120.922 104.199 84.9473 103.083C48.9727 101.967 22.3076 76.8391 22.3076 76.8391L53.6622 133.884C53.6622 133.884 68.3242 139.114 100.271 131.849C141.03 122.618 164.23 96.3554 164.23 96.3554L151.521 82.3557" fill="white"/>
<path d="M98.2346 132.768C67.9824 139.246 53.6688 134.365 53.5374 134.288C53.4387 134.251 53.3554 134.181 53.3011 134.091L21.9447 77.0377C21.8986 76.9477 21.8855 76.8443 21.9079 76.7456C21.9302 76.6469 21.9865 76.5592 22.067 76.4978C22.1474 76.4364 22.2469 76.4052 22.3479 76.4097C22.449 76.4142 22.5453 76.4541 22.62 76.5223C22.8841 76.766 49.5817 101.551 84.977 102.641C115.237 103.577 143.788 87.9199 151.676 83.2025L151.194 82.6791C151.155 82.6378 151.125 82.5891 151.105 82.5359C151.086 82.4828 151.077 82.4263 151.08 82.3697C151.083 82.3131 151.097 82.2577 151.121 82.2066C151.146 82.1556 151.18 82.11 151.223 82.0726C151.264 82.0333 151.313 82.0026 151.366 81.9822C151.419 81.9619 151.476 81.9523 151.533 81.954C151.59 81.9558 151.646 81.9688 151.698 81.9924C151.75 82.016 151.797 82.0496 151.836 82.0913L152.425 82.742L153.812 81.88C153.858 81.8475 153.911 81.8248 153.966 81.8132C154.021 81.8017 154.078 81.8015 154.134 81.8128C154.189 81.8241 154.241 81.8466 154.288 81.8789C154.334 81.9112 154.373 81.9527 154.403 82.0007C154.435 82.0478 154.457 82.1007 154.468 82.1564C154.479 82.212 154.479 82.2693 154.468 82.325C154.457 82.3806 154.435 82.4336 154.403 82.4808C154.372 82.528 154.331 82.5685 154.284 82.6L153.015 83.3926L164.563 96.0959C164.635 96.1741 164.675 96.2766 164.675 96.383C164.675 96.4894 164.635 96.5918 164.562 96.6698C164.336 96.9303 140.809 123.148 100.377 132.3L98.2346 132.768ZM53.9571 133.527C55.5982 134.058 70.4213 138.185 100.179 131.46C138.067 122.878 160.976 99.2565 163.653 96.3791L152.295 83.8646C144.543 88.5175 115.64 104.471 84.9955 103.511C54.6038 102.577 30.5719 84.3454 23.9202 78.76L53.9571 133.527Z" fill="#282929"/>
<path d="M145.455 86.3905L160.508 101.486L169.571 96.0671L150.899 77.3497L145.455 86.3905Z" fill="white"/>
<path d="M160.574 101.913C160.503 101.927 160.43 101.924 160.361 101.903C160.292 101.883 160.229 101.846 160.177 101.795L145.126 86.7078C145.058 86.638 145.015 86.5478 145.004 86.4511C144.993 86.3545 145.014 86.2569 145.065 86.1736L150.509 77.1328C150.543 77.0768 150.589 77.0291 150.644 76.993C150.699 76.9568 150.761 76.9331 150.826 76.9236C150.891 76.9174 150.956 76.9255 151.017 76.9475C151.078 76.9695 151.134 77.0048 151.18 77.0509L169.851 95.7682C169.897 95.8148 169.931 95.871 169.952 95.9328C169.973 95.9945 169.979 96.0602 169.971 96.1248C169.963 96.1894 169.94 96.2513 169.904 96.3059C169.869 96.3605 169.821 96.4063 169.766 96.4399L160.703 101.859C160.664 101.885 160.62 101.904 160.574 101.913ZM145.973 86.3323L160.577 100.941L168.872 95.9779L150.987 78.0457L145.973 86.3323Z" fill="#282929"/>
<path d="M199.928 80.845C199.928 80.845 202.872 93.6867 197.381 104.653C191.89 115.62 169.701 125.245 169.701 125.245L170.949 95.2875L199.928 80.845Z" fill="#1F1F1F"/>
<path d="M169.598 125.875C169.482 125.897 169.363 125.872 169.265 125.805C169.205 125.764 169.156 125.708 169.123 125.642C169.091 125.576 169.076 125.504 169.079 125.43L170.32 95.4833C170.325 95.4065 170.349 95.3322 170.391 95.2676C170.433 95.203 170.491 95.1502 170.559 95.1144L199.546 80.67C199.604 80.6377 199.669 80.6199 199.736 80.6179C199.802 80.6159 199.868 80.6298 199.927 80.6586C199.987 80.6873 200.039 80.7299 200.079 80.7829C200.119 80.8359 200.146 80.8977 200.157 80.9631C200.184 81.0897 203.071 94.0762 197.565 105.055C192.059 116.033 170.593 125.451 169.681 125.849L169.598 125.875ZM171.177 95.7765L169.971 124.771C173.622 123.107 191.951 114.335 196.801 104.662C201.534 95.2264 199.894 84.2328 199.421 81.6944L171.177 95.7765Z" fill="#282929"/>
<path d="M165.821 46.6455C165.821 46.6455 152.983 43.665 141.999 49.0982C131.015 54.5314 121.34 76.7144 121.34 76.7144L151.29 75.545L165.821 46.6455Z" fill="#1F1F1F"/>
<path d="M151.196 76.2192L151.12 76.2354L121.168 77.3964C121.096 77.3999 121.024 77.3846 120.96 77.3519C120.896 77.3192 120.841 77.2703 120.802 77.21C120.759 77.1507 120.733 77.0814 120.725 77.0088C120.717 76.9362 120.728 76.8628 120.757 76.7958C121.154 75.8896 130.633 54.4374 141.624 48.9584C152.616 43.4794 165.592 46.4038 165.725 46.446C165.789 46.4595 165.848 46.4882 165.899 46.5297C165.949 46.5711 165.989 46.6242 166.014 46.6842C166.043 46.742 166.057 46.8054 166.057 46.8696C166.057 46.9339 166.043 46.9973 166.014 47.055L151.493 75.9967C151.463 76.0535 151.421 76.103 151.369 76.1414C151.318 76.1799 151.259 76.2065 151.196 76.2192ZM121.835 76.512L150.834 75.3521L164.983 47.1435C162.443 46.6632 151.45 45.0004 142.005 49.7067C132.334 54.5938 123.518 72.8675 121.835 76.512Z" fill="#282929"/>
<path d="M144.982 76.2111C150.474 62.8961 161.64 46.8121 176.823 31.6777C199.815 8.73521 224.444 9.47332 232.972 10.587C233.895 10.707 234.753 11.1281 235.412 11.7849C236.071 12.4418 236.496 13.2978 236.619 14.2203C237.705 22.7544 238.424 47.382 215.379 70.3269C200.206 85.4679 184.095 96.5987 170.766 102.048C170.766 102.048 164.877 100.105 155.897 91.1071C146.916 82.1093 144.982 76.2111 144.982 76.2111Z" fill="#1F1F1F"/>
<path d="M170.473 102.797C170.396 102.815 170.316 102.811 170.241 102.785C170.003 102.704 164.163 100.705 155.205 91.7291C146.247 82.753 144.262 76.9012 144.184 76.6619C144.153 76.5622 144.158 76.4549 144.198 76.3586C149.896 62.5227 161.53 46.2325 176.123 31.6835C198.994 8.87304 223.259 9.23003 232.643 10.4693C233.664 10.5995 234.612 11.0654 235.338 11.7937C236.065 12.522 236.529 13.4713 236.656 14.4921C237.854 23.8764 238.17 48.1488 215.307 70.9574C200.725 85.5571 184.396 97.1141 170.539 102.774L170.473 102.797ZM145.057 76.5366C145.419 77.4833 147.791 83.0758 155.815 91.113C163.839 99.1501 169.42 101.548 170.373 101.918C184.092 96.27 200.247 84.7678 214.693 70.3562C237.304 47.8574 236.987 23.8678 235.812 14.6288C235.705 13.7976 235.326 13.0251 234.734 12.4317C234.142 11.8382 233.371 11.4571 232.54 11.3477C223.286 10.1423 199.338 9.7793 176.743 32.31C162.276 46.7083 150.738 62.8279 145.057 76.5366Z" fill="#282929"/>
<path d="M236.235 14.5445C237.417 25.1599 235.897 35.9016 231.817 45.7723L201.35 15.2169C211.228 11.1574 221.973 9.66732 232.583 10.886C233.511 11.0061 234.372 11.4303 235.033 12.0923C235.694 12.7543 236.117 13.6167 236.235 14.5445Z" fill="white"/>
<path d="M231.916 46.1924C231.847 46.2065 231.775 46.2029 231.707 46.1819C231.639 46.161 231.578 46.1233 231.529 46.0724L201.053 15.5188C201.009 15.464 200.978 15.3995 200.963 15.3306C200.949 15.2617 200.95 15.1902 200.968 15.1221C200.983 15.0505 201.014 14.9837 201.061 14.9275C201.107 14.8713 201.167 14.8275 201.235 14.8001C211.18 10.7072 222.002 9.21 232.684 10.4493C233.705 10.5795 234.653 11.0455 235.379 11.7738C236.106 12.5021 236.569 13.4513 236.697 14.4721C237.911 25.1597 236.385 35.9803 232.263 45.9151C232.237 45.989 232.19 46.054 232.129 46.1029C232.068 46.1519 231.994 46.1829 231.916 46.1924ZM202.118 15.3791L231.661 45.0022C235.547 35.3702 236.972 24.9218 235.807 14.601C235.7 13.7698 235.321 12.9973 234.729 12.4038C234.137 11.8104 233.366 11.4293 232.535 11.3199C222.216 10.1188 211.761 11.5141 202.118 15.3791Z" fill="#282929"/>
<path d="M202.225 63.0816C211.218 61.1559 216.946 52.3045 215.021 43.3114C213.095 34.3184 204.244 28.5891 195.251 30.5147C186.259 32.4404 180.53 41.2918 182.456 50.2849C184.381 59.278 193.233 65.0073 202.225 63.0816Z" fill="white"/>
<path d="M202.339 63.4906C198.324 64.3525 194.132 63.738 190.533 61.7597C186.933 59.7815 184.167 56.572 182.742 52.7198C181.317 48.8676 181.328 44.6308 182.773 40.7862C184.219 36.9416 187.001 33.7468 190.611 31.7875C194.221 29.8283 198.416 29.2359 202.427 30.119C206.438 31.0021 209.996 33.3015 212.45 36.5956C214.903 39.8897 216.087 43.9578 215.784 48.0539C215.482 52.1501 213.713 55.9999 210.802 58.8975C208.48 61.2087 205.542 62.8031 202.339 63.4906ZM195.307 30.9364C192.457 31.5505 189.825 32.9214 187.688 34.905C185.551 36.8885 183.989 39.4113 183.165 42.208C182.341 45.0046 182.286 47.9717 183.005 50.7971C183.725 53.6224 185.193 56.2016 187.254 58.2632C189.14 60.152 191.462 61.5467 194.015 62.3237C196.568 63.1008 199.273 63.2363 201.891 62.7182C204.508 62.2001 206.958 61.0444 209.023 59.3534C211.087 57.6625 212.703 55.4884 213.727 53.0239C214.75 50.5594 215.151 47.8804 214.892 45.2242C214.633 42.5681 213.723 40.0167 212.243 37.796C210.763 35.5754 208.758 33.754 206.406 32.4932C204.054 31.2324 201.427 30.5711 198.759 30.5679C197.598 30.5709 196.441 30.6944 195.307 30.9364Z" fill="#282929"/>
<path d="M200.889 56.8465C206.436 55.6586 209.97 50.1981 208.782 44.6503C207.594 39.1025 202.134 35.5681 196.587 36.756C191.039 37.944 187.505 43.4044 188.693 48.9522C189.881 54.5001 195.341 58.0345 200.889 56.8465Z" fill="#282929"/>
<path d="M200.996 57.2645C198.481 57.8144 195.852 57.4391 193.59 56.2075C191.329 54.9759 189.588 52.9705 188.685 50.559C187.783 48.1475 187.78 45.4914 188.677 43.0778C189.573 40.6642 191.31 38.6548 193.568 37.418C195.827 36.1812 198.455 35.7999 200.972 36.344C203.488 36.8881 205.725 38.3212 207.27 40.3804C208.816 42.4396 209.568 44.9871 209.388 47.5557C209.208 50.1243 208.108 52.5418 206.29 54.3652C204.84 55.8191 203.002 56.8255 200.996 57.2645ZM196.694 37.174C194.845 37.5656 193.15 38.4869 191.815 39.8256C190.135 41.4991 189.114 43.7223 188.94 46.0876C188.766 48.4528 189.45 50.8016 190.867 52.7031C192.285 54.6046 194.34 55.9315 196.656 56.4403C198.973 56.9492 201.395 56.6059 203.478 55.4735C205.562 54.3411 207.168 52.4954 208.001 50.275C208.834 48.0545 208.839 45.6081 208.014 43.3843C207.19 41.1606 205.592 39.3086 203.512 38.1679C201.433 37.0272 199.012 36.6744 196.694 37.174Z" fill="#282929"/>
<path d="M204.631 41.4252C204.557 41.4408 204.479 41.4358 204.407 41.4108C204.335 41.3859 204.271 41.3419 204.221 41.2834C204.038 41.0844 199.764 36.3405 193.909 40.7018C193.825 40.7583 193.724 40.7834 193.623 40.7727C193.523 40.7619 193.429 40.7161 193.358 40.6433C193.324 40.5987 193.298 40.5475 193.284 40.493C193.269 40.4384 193.265 40.3814 193.273 40.3254C193.281 40.2694 193.3 40.2156 193.329 40.167C193.358 40.1185 193.396 40.0762 193.442 40.0427C199.954 35.2052 204.874 40.7023 204.92 40.7541C204.993 40.842 205.029 40.9547 205.021 41.0685C205.012 41.1823 204.96 41.2884 204.874 41.3643C204.801 41.4082 204.717 41.4293 204.631 41.4252Z" fill="white"/>
<path d="M206.486 44.6821C206.431 44.6895 206.374 44.6858 206.321 44.6714C206.267 44.657 206.216 44.632 206.172 44.598C206.128 44.564 206.091 44.5216 206.063 44.4732C206.035 44.4248 206.017 44.3714 206.01 44.316C205.927 43.7791 205.715 43.2702 205.392 42.8327C205.325 42.7417 205.295 42.6277 205.311 42.5154C205.327 42.403 205.386 42.3012 205.476 42.2322C205.521 42.1978 205.574 42.173 205.629 42.1594C205.685 42.1457 205.743 42.1435 205.799 42.1529C205.856 42.1623 205.91 42.183 205.958 42.2138C206.006 42.2447 206.048 42.285 206.08 42.3324C206.491 42.8924 206.76 43.5434 206.866 44.2299C206.874 44.3399 206.839 44.4488 206.768 44.5333C206.697 44.6177 206.596 44.6711 206.486 44.6821Z" fill="white"/>
<path d="M149.597 74.8922C149.501 74.9114 149.402 74.8985 149.315 74.8554C149.213 74.8044 149.136 74.7152 149.099 74.6072C149.063 74.4992 149.071 74.3812 149.121 74.279C153.577 65.7537 158.544 57.5054 163.995 49.579C164.063 49.4936 164.16 49.4369 164.268 49.4204C164.375 49.4038 164.485 49.4286 164.575 49.4897C164.666 49.5508 164.729 49.6438 164.754 49.7499C164.778 49.8561 164.762 49.9676 164.707 50.062C159.278 57.9586 154.331 66.1762 149.893 74.6698C149.864 74.727 149.822 74.7767 149.771 74.8153C149.719 74.8538 149.66 74.8801 149.597 74.8922Z" fill="white"/>
<path d="M171.242 82.2225C161.11 92.3376 147.543 103.021 145.789 101.26C144.035 99.4991 154.749 85.9661 164.889 75.8491C175.029 65.7322 182.494 64.6456 182.494 64.6456C182.494 64.6456 181.383 72.114 171.242 82.2225Z" fill="#1F1F1F"/>
<path d="M146.712 101.985C146.475 102.071 146.221 102.097 145.972 102.059C145.724 102.021 145.488 101.922 145.288 101.769C144.907 101.392 143.75 100.236 150.338 91.6298C154.691 86.0542 159.385 80.7532 164.392 75.7572C174.507 65.6457 181.927 64.4717 182.268 64.4163C182.335 64.4076 182.403 64.4142 182.468 64.4357C182.532 64.4571 182.59 64.4927 182.639 64.54C182.685 64.5892 182.72 64.6478 182.741 64.7118C182.763 64.7758 182.77 64.8437 182.762 64.9108C182.714 65.2213 181.511 72.63 171.384 82.7264C164.637 89.4331 151.439 100.973 146.712 101.985ZM181.725 65.4243C179.734 65.9389 173.228 68.1266 164.998 76.3603C160.018 81.3305 155.351 86.6052 151.024 92.1539C146.2 98.484 145.551 100.812 145.899 101.197C147.148 102.457 159.423 93.4454 170.742 82.1578C178.979 73.9139 181.207 67.4158 181.725 65.4243Z" fill="#282929"/>
<path d="M199.831 134.684L158.303 157.932L181.77 169.319L222.352 145.241L199.831 134.684Z" fill="white"/>
<path d="M181.861 169.742C181.765 169.761 181.666 169.748 181.579 169.705L158.123 158.325C158.051 158.29 157.989 158.237 157.946 158.17C157.902 158.103 157.877 158.026 157.874 157.946C157.872 157.867 157.892 157.789 157.932 157.721C157.972 157.654 158.031 157.598 158.1 157.562L199.618 134.307C199.677 134.273 199.744 134.254 199.813 134.252C199.882 134.249 199.95 134.264 200.012 134.294L222.533 144.85C222.605 144.882 222.667 144.934 222.71 144.999C222.754 145.065 222.778 145.142 222.78 145.221C222.788 145.3 222.773 145.38 222.737 145.451C222.7 145.521 222.643 145.58 222.574 145.618L181.99 169.688C181.951 169.714 181.907 169.732 181.861 169.742ZM159.243 157.909L181.753 168.829L221.442 145.322L199.853 135.202L159.243 157.909Z" fill="#282929" fill-opacity="0.2"/>
<path d="M107.499 114.814C94.4918 117.6 79.0435 118.674 63.8996 114.369C63.845 114.354 63.7938 114.329 63.7491 114.295C63.7043 114.26 63.6669 114.217 63.6391 114.168C63.6113 114.119 63.5936 114.064 63.5871 114.008C63.5806 113.952 63.5854 113.895 63.6013 113.841C63.6164 113.786 63.6424 113.734 63.6776 113.689C63.7129 113.644 63.7567 113.607 63.8065 113.579C63.8564 113.551 63.9113 113.533 63.9681 113.527C64.0249 113.52 64.0824 113.525 64.1373 113.541C100.916 123.975 139.544 102.443 139.931 102.228C139.98 102.194 140.036 102.171 140.094 102.159C140.153 102.148 140.214 102.149 140.272 102.163C140.33 102.176 140.385 102.201 140.433 102.237C140.481 102.273 140.521 102.318 140.551 102.37C140.58 102.422 140.599 102.48 140.605 102.539C140.611 102.599 140.605 102.659 140.586 102.716C140.568 102.773 140.538 102.825 140.498 102.87C140.459 102.915 140.41 102.951 140.356 102.976C129.989 108.389 118.936 112.371 107.499 114.814Z" fill="#282929" fill-opacity="0.2"/>
<path d="M101.901 124.408C74.7294 130.226 54.2764 121.452 54.0412 121.343C53.9888 121.321 53.9412 121.288 53.9013 121.248C53.8614 121.207 53.8299 121.159 53.8087 121.106C53.7875 121.053 53.777 120.996 53.7779 120.939C53.7787 120.882 53.7907 120.826 53.8134 120.774C53.8616 120.67 53.9481 120.59 54.0546 120.549C54.1611 120.508 54.2794 120.51 54.3844 120.554C54.6671 120.679 82.8466 132.761 116.957 118.862C117.01 118.84 117.067 118.83 117.125 118.831C117.182 118.831 117.239 118.844 117.292 118.866C117.344 118.889 117.392 118.922 117.432 118.963C117.472 119.004 117.504 119.053 117.525 119.106C117.547 119.16 117.557 119.217 117.556 119.274C117.556 119.332 117.544 119.389 117.521 119.441C117.498 119.494 117.465 119.542 117.424 119.582C117.383 119.622 117.334 119.654 117.281 119.675C112.303 121.702 107.157 123.285 101.901 124.408Z" fill="#282929" fill-opacity="0.2"/>
<path d="M70.4594 109.179C70.4066 109.204 70.3489 109.216 70.2906 109.215C41.1325 102.87 31.4528 89.3691 31.3545 89.24C31.3194 89.1938 31.2939 89.141 31.2796 89.0847C31.2653 89.0283 31.2626 88.9697 31.2715 88.9123C31.2804 88.8549 31.3008 88.7999 31.3315 88.7506C31.3622 88.7013 31.4025 88.6587 31.45 88.6253C31.4976 88.5919 31.5514 88.5685 31.6082 88.5564C31.665 88.5443 31.7237 88.5438 31.7807 88.555C31.8377 88.5661 31.8919 88.5886 31.94 88.6212C31.9881 88.6538 32.0291 88.6957 32.0606 88.7445C32.0606 88.7445 34.4495 92.1087 40.3442 96.1788C45.7825 99.9317 55.4253 105.097 70.4722 108.373C70.5838 108.397 70.6812 108.465 70.7431 108.561C70.805 108.657 70.8264 108.773 70.8025 108.885C70.7765 108.96 70.731 109.027 70.6707 109.078C70.6104 109.13 70.5375 109.165 70.4594 109.179Z" fill="#282929" fill-opacity="0.2"/>
<path d="M118.987 103.819C118.875 103.843 118.758 103.821 118.662 103.759C118.566 103.697 118.499 103.599 118.475 103.487C118.453 103.375 118.475 103.26 118.537 103.164C118.599 103.069 118.695 103.001 118.806 102.975C118.958 102.942 133.595 99.8079 139.58 95.1095C139.625 95.0701 139.677 95.0402 139.733 95.0217C139.789 95.0032 139.849 94.9964 139.908 95.002C139.967 95.0075 140.024 95.0251 140.076 95.0537C140.128 95.0823 140.173 95.1213 140.209 95.1682C140.246 95.2152 140.272 95.2691 140.286 95.3266C140.301 95.3841 140.303 95.4439 140.293 95.5024C140.284 95.5609 140.262 95.6167 140.23 95.6665C140.198 95.7162 140.155 95.7588 140.106 95.7915C133.962 100.577 119.603 103.687 118.987 103.819Z" fill="#282929" fill-opacity="0.2"/>
<path d="M97.213 92.6672L94.6611 90.8918L91.7622 91.9893L92.6513 89.0091L90.7187 86.5802L93.8231 86.5246L95.5266 83.9262L96.5518 86.8584L99.5445 87.6831L97.0693 89.5639L97.213 92.6672Z" fill="#73F25F"/>
<path d="M125.407 89.4426L123.831 88.3498L122.034 89.0261L122.593 87.1848L121.389 85.6857L123.313 85.6444L124.365 84.0419L125.001 85.8569L126.848 86.3618L125.323 87.5271L125.407 89.4426Z" fill="#73F25F"/>
<path d="M124.051 144.244L119.073 142.6L114.897 145.772L114.931 140.529L110.625 137.531L115.617 135.941L117.137 130.919L120.193 135.173L125.431 135.067L122.33 139.298L124.051 144.244Z" fill="#73F25F"/>
<path d="M86.4853 119.416L83.1046 117.068L79.2488 118.52L80.443 114.574L77.8666 111.365L81.9881 111.277L84.244 107.837L85.5989 111.731L89.5737 112.813L86.2941 115.308L86.4853 119.416Z" fill="#73F25F"/>
<path d="M22.3965 77.2515C22.2872 77.2878 22.1679 77.2792 22.065 77.2276C21.962 77.1759 21.8838 77.0855 21.8475 76.9762C21.8113 76.8669 21.8199 76.7477 21.8715 76.6447C21.9231 76.5418 22.0135 76.4636 22.1228 76.4273L144.803 20.6785C144.856 20.655 144.913 20.6422 144.97 20.6407C145.028 20.6392 145.086 20.6492 145.14 20.67C145.194 20.6908 145.244 20.7221 145.285 20.762C145.327 20.8019 145.361 20.8497 145.385 20.9026C145.408 20.9555 145.421 21.0126 145.422 21.0705C145.424 21.1284 145.414 21.186 145.393 21.2401C145.372 21.2941 145.341 21.3435 145.301 21.3855C145.261 21.4275 145.214 21.4612 145.161 21.4847L22.4893 77.2317L22.3965 77.2515Z" fill="#282929"/>
<path d="M27.3839 71.3572C28.3303 71.1545 28.9331 70.2231 28.7305 69.2767C28.5278 68.3303 27.5964 67.7274 26.65 67.93C25.7037 68.1326 25.1008 69.0641 25.3035 70.0105C25.5061 70.9569 26.4376 71.5598 27.3839 71.3572Z" fill="#73F25F"/>
<path d="M33.1769 68.4801C34.1232 68.2774 34.7261 67.3459 34.5235 66.3995C34.3208 65.4531 33.3893 64.8502 32.443 65.0529C31.4967 65.2555 30.8938 66.187 31.0964 67.1334C31.2991 68.0798 32.2306 68.6827 33.1769 68.4801Z" fill="#282929" fill-opacity="0.2"/>
<path d="M38.7228 65.8887C39.6691 65.6861 40.272 64.7546 40.0693 63.8082C39.8667 62.8618 38.9352 62.2589 37.9889 62.4615C37.0426 62.6642 36.4397 63.5957 36.6423 64.5421C36.845 65.4884 37.7764 66.0914 38.7228 65.8887Z" fill="#282929" fill-opacity="0.2"/>
<path d="M127.989 41.584L55.4446 75.8871C53.1431 76.9754 52.1596 79.7235 53.2478 82.0252L53.2515 82.033C54.3398 84.3346 57.0878 85.3182 59.3893 84.23L131.934 49.9269C134.235 48.8386 135.219 46.0905 134.13 43.7888L134.127 43.781C133.038 41.4794 130.29 40.4958 127.989 41.584Z" fill="#282929" fill-opacity="0.15"/>
</svg>
