<svg width="277" height="214" viewBox="0 0 277 214" fill="none" xmlns="http://www.w3.org/2000/svg">
<path d="M111.986 155.876L105.027 173.227L129.748 184.551L148.913 158.892C148.913 158.892 131.118 129.352 127.263 127.68C123.407 126.008 111.986 155.876 111.986 155.876Z" fill="white"/>
<path d="M129.823 184.971C129.744 184.985 129.663 184.974 129.591 184.939L104.87 173.615C104.776 173.572 104.703 173.495 104.665 173.4C104.627 173.304 104.627 173.198 104.666 173.103L111.618 155.753C112.048 154.645 121.848 129.28 126.36 127.402C126.53 127.321 126.716 127.276 126.905 127.27C127.093 127.265 127.281 127.298 127.457 127.369C131.362 129.097 148.535 157.538 149.266 158.747C149.305 158.815 149.324 158.893 149.319 158.971C149.314 159.05 149.287 159.125 149.239 159.187L130.07 184.822C130.041 184.862 130.004 184.896 129.961 184.921C129.919 184.947 129.872 184.964 129.823 184.971ZM105.543 173.052L129.629 184.11L148.446 158.892C143.412 150.545 130.166 129.389 127.145 128.061C127.068 128.033 126.985 128.022 126.903 128.028C126.821 128.034 126.741 128.058 126.669 128.097C123.171 129.521 115.16 148.743 112.316 156.016L105.543 173.052Z" fill="#282929"/>
<path d="M92.6034 114.304C92.6034 114.304 93.1251 124.884 98.3404 128.726C103.556 132.568 118.736 131.248 119.891 132.631C121.047 134.015 144.653 172.282 147.465 174.284C150.276 176.286 159.537 170.788 165.753 162.427C165.753 162.427 141.953 127.37 140.765 124.178C139.578 120.986 142.559 105.934 141.423 99.5494L92.6034 114.304Z" fill="white"/>
<path d="M150.05 175.012C149.1 175.259 148.091 175.118 147.244 174.621C145.331 173.282 135.374 157.671 125.307 141.806C122.295 137.042 119.92 133.287 119.594 132.901C119.268 132.515 116.381 132.349 113.835 132.202C108.608 131.917 101.453 131.513 98.1179 129.055C92.8121 125.157 92.2379 114.779 92.2161 114.34C92.211 114.251 92.2363 114.163 92.2879 114.091C92.3395 114.019 92.4142 113.967 92.4997 113.943L141.309 99.1739C141.364 99.1566 141.422 99.1518 141.479 99.1598C141.537 99.1679 141.591 99.1885 141.639 99.2203C141.685 99.2505 141.725 99.2898 141.755 99.3357C141.785 99.3817 141.806 99.4333 141.816 99.4874C142.413 102.848 141.888 108.583 141.421 113.647C141 118.252 140.597 122.595 141.137 124.047C142.302 127.154 165.846 161.862 166.086 162.214C166.132 162.283 166.156 162.363 166.155 162.446C166.154 162.528 166.127 162.608 166.08 162.675C161.277 169.118 154.35 174.252 150.05 175.012ZM93.0206 114.609C93.1625 116.357 94.0807 125.094 98.5761 128.418C101.726 130.739 108.718 131.131 113.872 131.414C117.775 131.635 119.674 131.766 120.196 132.392C120.534 132.799 122.404 135.758 125.973 141.382C132.888 152.291 145.751 172.612 147.7 173.976C150.256 175.765 159.156 170.5 165.272 162.431C163.022 159.104 141.554 127.432 140.399 124.331C139.788 122.706 140.163 118.48 140.637 113.584C141.11 108.688 141.575 103.383 141.107 100.072L93.0206 114.609Z" fill="#282929"/>
<path d="M160.4 166.48C160.321 166.493 160.24 166.483 160.166 166.45C160.093 166.417 160.032 166.363 159.989 166.295L133.967 124.011C133.94 123.967 133.921 123.918 133.913 123.866C133.904 123.815 133.906 123.762 133.918 123.711C133.93 123.661 133.952 123.613 133.982 123.571C134.013 123.528 134.051 123.492 134.095 123.465C134.139 123.436 134.188 123.417 134.24 123.408C134.292 123.399 134.345 123.401 134.396 123.413C134.447 123.425 134.495 123.447 134.537 123.478C134.579 123.51 134.615 123.549 134.641 123.594L160.664 165.885C160.693 165.929 160.712 165.978 160.721 166.029C160.73 166.08 160.728 166.132 160.716 166.183C160.704 166.233 160.681 166.281 160.65 166.322C160.619 166.363 160.58 166.398 160.535 166.424C160.495 166.453 160.449 166.472 160.4 166.48Z" fill="#282929" fill-opacity="0.2"/>
<path d="M136.461 107.292C135.242 109.594 134.738 112.209 135.012 114.802C135.552 118.785 141.941 126.377 141.941 126.377L152.05 117.232L144.135 104.863L136.461 107.292Z" fill="#282929"/>
<path d="M142.036 126.724L141.965 126.736C141.859 126.725 141.76 126.673 141.69 126.591C141.426 126.283 135.221 118.868 134.669 114.815C134.382 112.158 134.898 109.478 136.15 107.121C136.201 107.039 136.278 106.977 136.368 106.946L144.062 104.449C144.145 104.422 144.235 104.423 144.317 104.453C144.399 104.482 144.47 104.537 144.517 104.611L152.432 116.979C152.482 117.059 152.503 117.154 152.49 117.248C152.477 117.341 152.432 117.427 152.362 117.491L142.261 126.635C142.197 126.687 142.118 126.718 142.036 126.724ZM136.742 107.645C135.638 109.823 135.183 112.273 135.43 114.704C135.886 118.082 140.806 124.289 142.009 125.761L151.524 117.123L143.963 105.297L136.742 107.645Z" fill="#282929"/>
<path d="M159.404 152.986C159.404 152.986 166.041 144.816 161.02 142.068C161.02 142.068 162.687 135.058 155.295 135.365C155.295 135.365 156.358 127.76 150.332 127.012C144.306 126.263 134.837 137.618 134.267 141.201C133.697 144.785 138.764 144.437 142.13 142.23C142.13 142.23 137.332 146.303 138.651 148.375C140.581 151.444 144.805 149.029 148.135 147.384C148.135 147.384 142.348 152.051 147.156 154.595C150.844 156.547 157.509 150.161 157.509 150.161L159.404 152.986Z" fill="white"/>
<path d="M149.721 155.266C148.794 155.471 147.824 155.358 146.968 154.946C146.419 154.715 145.938 154.347 145.573 153.876C145.207 153.406 144.968 152.849 144.88 152.26C144.891 150.975 145.376 149.74 146.244 148.794C143.275 150.206 140.053 151.331 138.324 148.582C137.44 147.182 138.758 145.183 140.038 143.732C138.057 144.453 136.056 144.516 134.91 143.776C134.48 143.502 134.15 143.097 133.967 142.622C133.783 142.147 133.757 141.625 133.892 141.134C134.489 137.385 144.207 125.849 150.397 126.617C151.151 126.687 151.882 126.911 152.546 127.275C153.21 127.638 153.793 128.134 154.259 128.731C155.878 130.864 155.833 133.822 155.738 134.919C157.855 134.916 159.428 135.524 160.425 136.735C161.874 138.502 161.615 140.983 161.468 141.831C161.919 142.1 162.308 142.461 162.609 142.892C162.911 143.322 163.117 143.811 163.216 144.327C163.934 147.957 159.923 152.971 159.721 153.192C159.682 153.24 159.632 153.279 159.575 153.305C159.518 153.33 159.456 153.342 159.393 153.338C159.332 153.335 159.272 153.318 159.218 153.289C159.164 153.259 159.117 153.218 159.081 153.168L157.447 150.724C156.335 151.759 152.843 154.714 149.721 155.266ZM148.064 146.989C148.141 146.974 148.221 146.983 148.293 147.015C148.365 147.047 148.426 147.1 148.466 147.168C148.519 147.25 148.539 147.349 148.524 147.446C148.508 147.542 148.458 147.629 148.382 147.691C148.382 147.691 145.443 150.088 145.651 152.204C145.733 152.662 145.931 153.092 146.226 153.452C146.521 153.812 146.904 154.09 147.337 154.26C150.743 156.076 157.174 149.958 157.236 149.899C157.276 149.857 157.326 149.825 157.381 149.805C157.437 149.786 157.496 149.779 157.554 149.786C157.611 149.793 157.667 149.812 157.717 149.842C157.766 149.873 157.809 149.913 157.842 149.961L159.432 152.332C160.373 151.061 162.97 147.241 162.434 144.546C162.348 144.096 162.158 143.672 161.88 143.309C161.601 142.945 161.242 142.651 160.83 142.451C160.755 142.408 160.696 142.342 160.661 142.262C160.627 142.182 160.619 142.094 160.638 142.01C160.638 142.01 161.298 139.112 159.804 137.32C158.911 136.237 157.396 135.73 155.318 135.816C155.26 135.817 155.202 135.807 155.148 135.784C155.094 135.762 155.045 135.728 155.005 135.685C154.966 135.643 154.936 135.592 154.919 135.536C154.902 135.48 154.898 135.422 154.908 135.364C154.901 135.325 155.403 131.584 153.621 129.263C153.222 128.743 152.72 128.312 152.145 127.997C151.571 127.682 150.937 127.491 150.285 127.434C144.597 126.731 135.224 137.803 134.66 141.289C134.564 141.627 134.576 141.987 134.694 142.319C134.812 142.651 135.031 142.937 135.32 143.139C136.645 143.985 139.662 143.428 141.913 141.917C141.997 141.863 142.099 141.843 142.197 141.861C142.296 141.879 142.384 141.933 142.444 142.014C142.504 142.094 142.532 142.194 142.521 142.293C142.511 142.393 142.463 142.485 142.388 142.551C141.216 143.564 138.059 146.726 138.986 148.182C140.599 150.735 144.139 148.957 147.267 147.396L147.962 147.048C147.991 147.021 148.026 147.001 148.064 146.989Z" fill="#282929"/>
<path d="M146.279 115.45C146.279 115.45 145.308 108.858 140.193 112.285C135.079 115.713 127.687 123.042 132.75 126.113C137.813 129.185 145.85 120.686 146.279 115.45Z" fill="white"/>
<path d="M136.197 127.066C134.947 127.325 133.644 127.107 132.545 126.454C131.991 126.162 131.523 125.728 131.192 125.195C130.861 124.663 130.678 124.051 130.662 123.425C130.566 119.354 136.707 114.141 139.974 111.959C141.529 110.878 142.911 110.634 144.066 111.155C146.164 112.083 146.649 115.262 146.672 115.395C146.681 115.423 146.686 115.452 146.688 115.481C146.392 119.161 142.6 124.185 138.616 126.227C137.855 126.624 137.04 126.907 136.197 127.066ZM142.384 111.743C141.674 111.895 141.003 112.192 140.413 112.615C136.766 115.058 131.373 119.953 131.448 123.407C131.462 123.901 131.61 124.382 131.876 124.799C132.141 125.217 132.515 125.554 132.956 125.776C134.761 126.868 136.822 126.238 138.233 125.521C141.921 123.628 145.571 118.847 145.879 115.462C145.815 115.103 145.326 112.577 143.745 111.881C143.316 111.696 142.84 111.648 142.384 111.743Z" fill="#282929"/>
<path d="M110.814 158.835C110.814 158.835 113.966 140.349 114.824 137.166C116.282 131.781 120.684 124.167 125.714 124.705C130.745 125.242 141.62 128.133 138.117 132.017C134.925 135.572 125.512 132.754 125.512 132.754C125.512 132.754 129.301 141.564 125.862 147.485" fill="white"/>
<path d="M110.883 159.227C110.841 159.243 110.796 159.251 110.751 159.251C110.699 159.243 110.649 159.225 110.605 159.197C110.56 159.169 110.522 159.133 110.492 159.09C110.461 159.047 110.44 158.999 110.429 158.948C110.418 158.896 110.418 158.844 110.428 158.792C110.551 158.037 113.571 140.259 114.447 137.081C115.981 131.449 120.498 123.758 125.758 124.32C129.419 124.713 137.85 126.625 139.05 129.75C139.201 130.189 139.222 130.662 139.109 131.111C138.996 131.561 138.754 131.967 138.413 132.281C135.602 135.398 128.532 133.939 126.162 133.334C127.001 135.604 129.155 142.6 126.202 147.676C126.18 147.728 126.147 147.774 126.105 147.811C126.064 147.849 126.015 147.877 125.962 147.895C125.909 147.912 125.853 147.918 125.798 147.912C125.742 147.907 125.688 147.889 125.64 147.861C125.592 147.833 125.55 147.795 125.517 147.75C125.484 147.704 125.462 147.653 125.45 147.598C125.439 147.543 125.439 147.487 125.451 147.432C125.463 147.377 125.486 147.326 125.52 147.281C128.815 141.596 125.183 132.991 125.143 132.901C125.115 132.831 125.107 132.754 125.119 132.68C125.131 132.605 125.164 132.535 125.213 132.478C125.263 132.422 125.328 132.381 125.4 132.362C125.472 132.342 125.548 132.343 125.62 132.366C125.713 132.389 134.828 135.075 137.819 131.749C138.063 131.548 138.241 131.279 138.33 130.976C138.42 130.673 138.417 130.35 138.322 130.048C137.404 127.647 130.288 125.615 125.693 125.129C120.948 124.614 116.643 132.09 115.228 137.306C114.376 140.439 111.259 158.758 111.233 158.972C111.204 159.044 111.157 159.105 111.095 159.151C111.033 159.196 110.96 159.222 110.883 159.227Z" fill="#282929"/>
<path d="M203.013 120.555C203.013 120.555 166.841 101.956 147.964 104.825C143.197 105.599 138.489 106.7 133.874 108.121C122.976 111.353 112.213 115.658 104.518 117.341C89.2374 120.646 76.8455 117.741 73.962 101.667C71.515 87.9104 77.5445 84.2407 90.5703 78.0364C97.0132 74.9708 109.73 70.74 121.482 65.1155C128.648 61.6803 135.466 57.7342 140.258 53.2189C152.952 41.3009 159.859 17.99 159.859 17.99L203.013 120.555Z" fill="white"/>
<path d="M203.076 120.909C202.992 120.925 202.904 120.912 202.828 120.872C202.465 120.686 166.526 102.36 148.019 105.179C143.27 105.949 138.58 107.048 133.984 108.466C129.501 109.791 125.082 111.289 120.807 112.738C114.809 114.774 109.145 116.694 104.593 117.676C94.6535 119.82 86.9291 119.121 81.6757 115.567C77.46 112.733 74.706 108.068 73.5701 101.682C71.0577 87.5576 77.6211 83.721 90.4004 77.6248C93.126 76.3368 96.9522 74.8544 101.374 73.0974C107.538 70.6856 114.523 67.9516 121.318 64.7352C129.692 60.7155 135.799 56.8467 139.993 52.9048C152.457 41.1886 159.417 18.086 159.481 17.8571C159.505 17.7786 159.552 17.7094 159.617 17.659C159.681 17.6086 159.76 17.5795 159.842 17.5757C159.923 17.5694 160.005 17.589 160.074 17.6317C160.144 17.6744 160.199 17.7379 160.23 17.8134L203.383 120.371C203.414 120.446 203.422 120.529 203.404 120.608C203.386 120.688 203.345 120.76 203.285 120.815C203.225 120.865 203.153 120.897 203.076 120.909ZM146.199 104.679C146.777 104.577 147.339 104.477 147.893 104.379C155.787 103.178 167.498 105.469 182.692 111.185C191.866 114.642 199.588 118.365 202.219 119.665L159.875 19.1178C158.353 23.7805 151.589 43.0512 140.491 53.4859C136.239 57.4623 130.071 61.3982 121.614 65.4487C114.803 68.7084 107.811 71.4516 101.631 73.8661C97.2211 75.5969 93.412 77.0844 90.702 78.3696C77.9148 84.4672 71.8759 87.9935 74.3158 101.574C75.4128 107.741 78.0186 112.207 82.0559 114.944C87.1566 118.363 94.6747 119.034 104.396 116.929C108.901 115.955 114.549 114.038 120.526 112.014C124.808 110.564 129.235 109.064 133.724 107.73C137.82 106.474 141.985 105.455 146.199 104.679Z" fill="#282929"/>
<path d="M136.461 107.337C125.563 110.569 112.101 115.23 104.483 117.302C87.1125 122.033 78.2164 119.727 74.3236 103.863C70.3268 87.5496 77.5085 84.2001 90.5349 77.9955C96.9781 74.9297 109.695 70.6987 121.448 65.0739C121.448 65.0739 118.301 74.5392 123.098 89.4213C125.441 96.7113 130.144 103.015 136.461 107.337Z" fill="#282929"/>
<path d="M97.9499 119.229C91.0182 120.454 86.0869 119.979 82.3971 117.793C78.3675 115.418 75.6869 111.03 73.9555 103.967C69.8972 87.398 77.1196 83.9607 90.2185 77.711L90.3746 77.6834C93.1003 76.3954 96.9267 74.9129 101.348 73.1558C107.513 70.744 114.498 68.0097 121.293 64.7931C121.363 64.7594 121.441 64.7472 121.517 64.7581C121.594 64.769 121.665 64.8025 121.723 64.8543C121.783 64.9044 121.827 64.9719 121.847 65.0476C121.868 65.1233 121.865 65.2035 121.838 65.2773C121.807 65.3716 118.822 74.8001 123.492 89.3741C125.828 96.5629 130.463 102.785 136.681 107.078C136.747 107.117 136.8 107.174 136.834 107.243C136.867 107.311 136.88 107.388 136.87 107.464C136.86 107.54 136.828 107.612 136.779 107.671C136.73 107.729 136.664 107.773 136.591 107.796C131.567 109.288 126.038 111.064 120.691 112.783C114.531 114.767 108.705 116.643 104.605 117.762C102.185 118.368 99.9716 118.872 97.9499 119.229ZM120.864 65.8204C114.297 68.916 107.599 71.5431 101.652 73.8681C97.2419 75.5989 93.4326 77.0865 90.7225 78.3718L90.5747 78.4463C77.8375 84.5111 70.8238 87.855 74.7347 103.821C76.4087 110.652 78.9729 114.883 82.7965 117.142C87.3838 119.847 94.0403 119.791 104.399 116.968C108.485 115.859 114.334 113.979 120.425 112.007C125.489 110.379 130.721 108.696 135.529 107.258C129.524 102.853 125.047 96.6771 122.727 89.5981C118.78 77.2343 120.228 68.4887 120.848 65.8231L120.864 65.8204Z" fill="#282929"/>
<path d="M214.736 121.392C203.317 125.635 187.229 111.991 175.012 89.3944C168.85 77.9019 164.272 65.6282 161.402 52.9087C155.787 27.6701 159.037 6.67479 170.517 2.41314C184.713 -2.86061 206.123 19.4891 218.338 52.3448C230.554 85.2006 228.94 116.117 214.736 121.392Z" fill="#282929"/>
<path d="M172.636 1.8447C186.779 -0.655394 206.715 21.1006 218.34 52.3526C230.556 85.2085 228.94 116.117 214.736 121.393C214.049 121.649 213.34 121.842 212.618 121.969C201.385 123.954 186.463 110.628 175.011 89.3945C168.849 77.9019 164.271 65.6281 161.402 52.9087C155.787 27.6699 159.037 6.67449 170.517 2.41282C171.203 2.15607 171.912 1.96328 172.635 1.83689L172.636 1.8447ZM172.496 1.05557C171.726 1.19095 170.971 1.39728 170.24 1.67195C158.608 5.98464 154.744 26.6455 160.627 53.0778C163.518 65.8669 168.122 78.2087 174.313 89.7677C186.244 111.835 201.327 124.762 212.755 122.742C213.525 122.607 214.28 122.4 215.011 122.126C222.197 119.461 226.54 110.627 227.234 97.2473C227.921 84.1028 225.028 68.0615 219.078 52.069C213.452 36.946 205.612 23.3586 197.004 13.9044C188.395 4.45025 179.643 -0.199758 172.505 1.06201L172.496 1.05557Z" fill="#282929"/>
<path d="M197.394 76.5331L174.989 89.4081C168.825 77.913 164.244 65.6366 161.374 52.9143L188.352 48.146L197.394 76.5331Z" fill="white"/>
<path d="M197.407 76.537C201.043 75.3652 201.942 68.076 199.415 60.2561C196.889 52.4363 191.893 47.0469 188.258 48.2187C184.622 49.3904 183.723 56.6796 186.25 64.4995C188.776 72.3194 193.772 77.7087 197.407 76.537Z" fill="#282929" fill-opacity="0.2"/>
<path d="M148.2 147.767C148.111 147.784 148.019 147.771 147.939 147.73C147.858 147.688 147.794 147.62 147.758 147.536C147.722 147.453 147.715 147.36 147.738 147.273C147.762 147.185 147.815 147.108 147.889 147.055C150.092 145.367 152.527 144.005 155.118 143.01C155.218 142.978 155.326 142.987 155.42 143.033C155.514 143.08 155.586 143.161 155.621 143.26C155.638 143.309 155.645 143.362 155.642 143.414C155.638 143.466 155.625 143.517 155.601 143.564C155.578 143.61 155.546 143.652 155.507 143.687C155.468 143.721 155.422 143.747 155.373 143.764C152.867 144.738 150.51 146.059 148.372 147.688C148.322 147.729 148.263 147.756 148.2 147.767Z" fill="#282929"/>
<path d="M142.197 142.615C142.097 142.63 141.996 142.608 141.912 142.552C141.869 142.523 141.833 142.485 141.805 142.442C141.776 142.398 141.757 142.35 141.748 142.299C141.739 142.248 141.74 142.196 141.752 142.145C141.763 142.095 141.784 142.047 141.814 142.005C143.783 139.276 146.635 137.313 149.886 136.448C149.987 136.422 150.094 136.436 150.185 136.488C150.275 136.54 150.342 136.625 150.37 136.726C150.384 136.776 150.389 136.828 150.382 136.88C150.376 136.932 150.36 136.981 150.334 137.027C150.308 137.072 150.274 137.111 150.233 137.143C150.191 137.174 150.144 137.197 150.094 137.21C147.043 138.052 144.362 139.891 142.479 142.436C142.447 142.484 142.405 142.524 142.357 142.555C142.308 142.586 142.254 142.606 142.197 142.615Z" fill="#282929"/>
<path d="M157.575 150.533C157.526 150.553 157.473 150.562 157.42 150.561C157.367 150.56 157.315 150.548 157.266 150.527C157.217 150.506 157.173 150.475 157.136 150.436C157.1 150.398 157.071 150.353 157.051 150.303C157.032 150.254 157.022 150.201 157.023 150.148C157.024 150.095 157.036 150.042 157.057 149.994C157.078 149.945 157.109 149.901 157.147 149.864C157.186 149.827 157.231 149.798 157.28 149.779L159.682 148.209C159.77 148.151 159.878 148.13 159.981 148.151C160.085 148.172 160.175 148.233 160.234 148.321C160.292 148.409 160.313 148.517 160.292 148.621C160.272 148.724 160.21 148.815 160.123 148.873L157.72 150.443C157.679 150.484 157.63 150.515 157.575 150.533Z" fill="#282929"/>
<path d="M131.397 185.86C131.397 185.86 135.795 180.938 135.845 180.494C135.895 180.049 107.474 161.319 107.474 161.319L95.2824 172.4L131.397 185.86Z" fill="#282929"/>
<path d="M131.466 186.248C131.398 186.261 131.327 186.254 131.262 186.228L95.1082 172.775C95.0444 172.752 94.9876 172.713 94.9432 172.661C94.8988 172.61 94.8683 172.548 94.8546 172.481C94.8423 172.414 94.8475 172.345 94.8698 172.28C94.8922 172.215 94.9309 172.157 94.9822 172.112L107.222 160.983C107.287 160.925 107.37 160.89 107.458 160.883C107.545 160.876 107.632 160.898 107.706 160.945C136.327 179.85 136.28 180.221 136.241 180.542C136.264 180.675 136.171 181.103 131.695 186.127C131.634 186.192 131.554 186.235 131.466 186.248ZM95.9682 172.268L131.256 185.382C133.021 183.401 134.86 181.246 135.332 180.55C133.451 179.028 118.018 168.718 107.507 161.771L95.9682 172.268Z" fill="#282929"/>
<path d="M132.922 186.024L97.8613 165.792L46.0557 213.138L117.915 210.493L132.922 186.024Z" fill="#282929"/>
<path d="M88.1881 117.577C88.1092 117.589 88.0284 117.578 87.9555 117.545C87.8826 117.513 87.8208 117.459 87.7776 117.392C80.8829 106.035 78.3699 94.6037 80.6848 85.2026C80.7322 85.0169 80.7581 84.8915 80.7718 84.8327C80.7629 84.7838 80.7643 84.7336 80.7758 84.6854C80.7874 84.6371 80.8089 84.5918 80.8389 84.5523C80.869 84.5129 80.9069 84.4802 80.9503 84.4563C80.9937 84.4324 81.0417 84.4179 81.091 84.4136C81.1992 84.4028 81.3074 84.4344 81.3929 84.502C81.4783 84.5695 81.5343 84.6677 81.549 84.7757C81.5593 84.9876 81.5258 85.1993 81.4506 85.3974C79.1866 94.5881 81.67 105.807 88.4507 116.974C88.5041 117.065 88.5206 117.172 88.4967 117.274C88.4729 117.376 88.4105 117.464 88.3228 117.521C88.283 117.55 88.2369 117.569 88.1881 117.577Z" fill="white"/>
<path d="M96.8222 79.3013C96.7311 79.3156 96.6379 79.2982 96.558 79.2522C96.478 79.2062 96.4161 79.1342 96.3825 79.0481C96.3634 79.0001 96.3541 78.9487 96.3551 78.897C96.356 78.8453 96.3673 78.7943 96.3881 78.7471C96.4089 78.6998 96.439 78.6572 96.4764 78.6217C96.5139 78.5862 96.5581 78.5585 96.6064 78.5404L113.185 72.1209C113.233 72.1007 113.284 72.0906 113.336 72.0911C113.388 72.0916 113.439 72.1027 113.487 72.1238C113.534 72.1449 113.577 72.1755 113.612 72.2137C113.648 72.2519 113.675 72.2969 113.692 72.346C113.711 72.3946 113.721 72.4464 113.72 72.4986C113.719 72.5508 113.708 72.6023 113.687 72.6502C113.667 72.6981 113.637 72.7414 113.6 72.7777C113.562 72.8139 113.518 72.8425 113.47 72.8616L96.8911 79.2811L96.8222 79.3013Z" fill="white"/>
<path d="M97.4208 82.6769C97.3298 82.6912 97.2366 82.6738 97.1566 82.6278C97.0767 82.5818 97.0147 82.5098 96.9811 82.4238C96.9621 82.3757 96.9527 82.3243 96.9537 82.2726C96.9547 82.2209 96.9659 82.1699 96.9867 82.1227C97.0076 82.0754 97.0376 82.0328 97.0751 81.9973C97.1125 81.9618 97.1567 81.9342 97.205 81.916L113.783 75.4965C113.831 75.4764 113.883 75.4662 113.935 75.4667C113.987 75.4672 114.038 75.4783 114.085 75.4994C114.133 75.5205 114.176 75.5511 114.211 75.5893C114.246 75.6275 114.273 75.6726 114.291 75.7216C114.31 75.7702 114.319 75.822 114.319 75.8742C114.318 75.9264 114.307 75.9779 114.286 76.0258C114.265 76.0737 114.236 76.117 114.198 76.1533C114.161 76.1896 114.117 76.2181 114.068 76.2372L97.4897 82.6567L97.4208 82.6769Z" fill="white"/>
<path d="M98.1095 86.5589C98.0195 86.5749 97.9267 86.5592 97.8468 86.5145C97.7669 86.4698 97.7049 86.3988 97.6712 86.3136C97.6345 86.2154 97.6372 86.1068 97.6787 86.0107C97.7201 85.9146 97.7972 85.8383 97.8937 85.798L114.472 79.3785C114.57 79.3423 114.679 79.3464 114.774 79.3901C114.869 79.4337 114.944 79.5133 114.981 79.6115C115.001 79.6594 115.011 79.711 115.011 79.763C115.01 79.815 114.999 79.8664 114.978 79.914C114.957 79.9615 114.927 80.0043 114.889 80.0396C114.851 80.0749 114.806 80.102 114.757 80.1192L98.1784 86.5387L98.1095 86.5589Z" fill="white"/>
<path d="M77.1465 162.875C77.0484 162.891 76.9479 162.87 76.8642 162.816C76.7804 162.762 76.7192 162.68 76.6923 162.584C74.3824 154.125 66.2455 149.113 59.3619 147.21C50.5463 144.81 34.0845 142.963 25.0701 146.37C24.9868 146.405 24.8938 146.409 24.8078 146.381C24.7217 146.354 24.6483 146.296 24.6005 146.22C24.5518 146.144 24.5301 146.054 24.539 145.965C24.548 145.875 24.587 145.791 24.6498 145.727C25.333 145.042 25.9551 144.376 26.6291 143.684C34.8666 135.231 44.198 125.641 43.4062 113.044C42.1349 92.953 22.7802 77.9208 22.5844 77.77C22.5168 77.7095 22.4714 77.6281 22.4556 77.5388C22.4397 77.4496 22.4542 77.3576 22.4968 77.2776C22.5354 77.1965 22.6005 77.131 22.6813 77.0918C22.7621 77.0526 22.8538 77.0421 22.9414 77.062C23.1597 77.1121 45.1968 82.0608 63.629 67.1056C81.7874 52.3762 77.1623 30.4035 77.1156 30.186C77.0982 30.1097 77.1033 30.0299 77.1302 29.9565C77.1571 29.8831 77.2048 29.819 77.2674 29.7722C77.3323 29.7294 77.4078 29.7055 77.4856 29.7031C77.5634 29.7008 77.6403 29.7201 77.7078 29.7589C77.9427 29.9028 101.535 44.0894 116.205 40.3033C121.609 38.9559 126.595 36.2951 130.723 32.5565C134.85 28.8178 137.992 24.1166 139.869 18.869C139.897 18.7685 139.963 18.6828 140.053 18.6307C140.143 18.5786 140.25 18.5641 140.351 18.5904C140.401 18.6048 140.448 18.6289 140.489 18.6614C140.53 18.6939 140.564 18.7342 140.589 18.7799C140.615 18.8256 140.631 18.8758 140.637 18.9277C140.642 18.9796 140.638 19.0322 140.624 19.0823C138.706 24.4674 135.487 29.2916 131.252 33.1248C127.018 36.958 121.9 39.681 116.354 41.0509C102.673 44.6057 82.2114 33.3081 77.9911 30.8536C78.6565 35.1376 80.5579 54.3348 64.0722 67.6964C48.1737 80.6478 29.589 78.9505 24.2552 78.1116C28.5492 81.7946 43.0924 95.4844 44.1942 112.993C45.0095 125.949 35.5479 135.667 27.2059 144.211L26.3553 145.087C35.768 142.335 51.1394 144.117 59.598 146.411C66.6709 148.337 75.0837 153.541 77.4873 162.347C77.5143 162.448 77.5004 162.555 77.4487 162.646C77.397 162.736 77.3116 162.803 77.2112 162.831L77.1465 162.875Z" fill="#282929" fill-opacity="0.2"/>
<path d="M203.388 189.603C203.282 189.621 203.174 189.597 203.086 189.535C202.91 189.405 185.295 176.761 163.99 183.549C163.94 183.566 163.888 183.572 163.836 183.568C163.784 183.564 163.733 183.55 163.687 183.525C163.64 183.501 163.599 183.468 163.566 183.428C163.533 183.387 163.508 183.341 163.493 183.29C163.461 183.19 163.471 183.082 163.519 182.988C163.567 182.895 163.651 182.825 163.751 182.793C182.463 176.81 198.391 185.585 202.541 188.189C200.867 183.302 196.306 163.861 217.749 142.459C229.952 130.291 253.013 129.665 263.869 132.051C252.538 122.648 241.656 111.248 243.752 97.4167C245.651 84.8373 261.372 68.5093 264.667 65.1784C236.721 61.469 223.026 48.8653 221.586 25.5676C221.579 25.462 221.614 25.3579 221.684 25.2784C221.753 25.1988 221.852 25.1502 221.957 25.1433C222.063 25.1364 222.167 25.1718 222.246 25.2416C222.326 25.3114 222.375 25.41 222.382 25.5157C223.822 48.6359 237.543 60.9771 265.576 64.4939C265.651 64.5023 265.723 64.5322 265.782 64.5801C265.841 64.628 265.885 64.6919 265.909 64.7641C265.933 64.8363 265.935 64.9138 265.916 64.9874C265.898 65.061 265.858 65.1276 265.802 65.1792C265.61 65.3663 246.579 84.0365 244.545 97.5343C242.431 111.53 254.082 123.093 265.754 132.556C265.827 132.613 265.879 132.694 265.898 132.785C265.918 132.875 265.906 132.97 265.863 133.053C265.82 133.135 265.75 133.2 265.664 133.236C265.578 133.271 265.483 133.276 265.394 133.248C255.622 130.437 230.983 130.391 218.315 143.02C194.021 167.263 203.594 188.817 203.697 189.033C203.733 189.112 203.742 189.201 203.722 189.287C203.702 189.372 203.655 189.448 203.587 189.503C203.531 189.554 203.462 189.588 203.388 189.603Z" fill="#282929" fill-opacity="0.2"/>
</svg>
