<svg width="277" height="207" viewBox="0 0 277 207" fill="none" xmlns="http://www.w3.org/2000/svg">
<path d="M43.2967 63.1694C43.2967 63.1694 44.7563 58.079 47.2777 50.9382C47.2777 50.9382 61.9038 57.543 61.6825 57.0461C61.4613 56.5491 43.2967 63.1694 43.2967 63.1694Z" fill="#282929"/>
<path d="M43.4133 63.6989C43.3211 63.7196 43.225 63.7158 43.1347 63.688C43.0443 63.6602 42.9628 63.6094 42.898 63.5404C42.8333 63.4715 42.7877 63.3869 42.7657 63.295C42.7436 63.203 42.7459 63.107 42.7723 63.0162C42.7723 63.0162 44.2662 57.8291 46.7994 50.7414C46.855 50.6029 46.9621 50.4914 47.0983 50.4303C47.167 50.4003 47.2413 50.3851 47.3164 50.3858C47.3914 50.3865 47.4654 50.4031 47.5336 50.4343C52.6062 52.7223 60.9346 56.3852 61.7332 56.5207C62.1024 56.5282 62.1542 56.6616 62.2212 56.8139C62.2656 56.9184 62.2782 57.0338 62.2573 57.1454C62.2363 57.2571 62.1829 57.36 62.1037 57.4414C62.0116 57.5286 61.9301 57.6135 61.5939 57.5541C60.3798 57.6552 49.8884 61.3436 43.477 63.6848L43.4133 63.6989ZM47.6195 51.6296C45.8604 56.5745 44.6418 60.4865 44.1076 62.2533C52.9467 59.0525 57.4033 57.5442 59.6374 56.9169C57.7943 56.1879 54.271 54.6605 47.6265 51.6615L47.6195 51.6296Z" fill="#282929"/>
<path d="M251.484 215.848L255.441 204.012L245.042 198.088L251.484 215.848Z" fill="#282929"/>
<path d="M251.602 216.383L251.474 216.411C251.36 216.415 251.248 216.381 251.155 216.315C251.062 216.249 250.993 216.155 250.959 216.046L244.509 198.299C244.471 198.194 244.467 198.079 244.497 197.97C244.527 197.862 244.589 197.766 244.676 197.694C244.759 197.622 244.863 197.577 244.973 197.567C245.082 197.556 245.193 197.581 245.287 197.637L255.697 203.559C255.806 203.622 255.89 203.721 255.935 203.839C255.979 203.957 255.981 204.087 255.94 204.207L251.983 216.043C251.952 216.126 251.901 216.201 251.835 216.261C251.768 216.32 251.688 216.362 251.602 216.383ZM246.05 199.274L251.459 214.175L254.78 204.251L246.05 199.274Z" fill="#282929"/>
<path d="M247.906 218.914L150.184 255.578C148.175 256.305 145.972 256.294 143.971 255.546C141.969 254.799 140.298 253.364 139.257 251.498L43.9254 67.7327C41.9692 63.9207 43.7639 59.7923 47.9666 58.496L149.006 27.4703C151.019 26.9221 153.158 27.0652 155.08 27.8765C157.002 28.6878 158.597 30.1205 159.608 31.9454L251.4 209.72C251.853 210.539 252.123 211.447 252.19 212.381C252.256 213.315 252.119 214.252 251.786 215.128C251.453 216.003 250.934 216.795 250.264 217.449C249.594 218.103 248.789 218.603 247.906 218.914Z" fill="#282929"/>
<path d="M149.212 256.474C147.203 256.909 145.108 256.687 143.234 255.842C141.361 254.996 139.809 253.571 138.806 251.777L43.4557 68.0268C42.9567 67.1265 42.6659 66.1258 42.6046 65.0983C42.5434 64.0708 42.7132 63.0426 43.1018 62.0895C43.5326 61.1096 44.175 60.2372 44.9827 59.5349C45.7905 58.8325 46.7436 58.3176 47.7738 58.0271L148.84 26.9177C150.976 26.3336 153.246 26.4851 155.285 27.3479C157.325 28.2107 159.015 29.7346 160.083 31.6743L251.872 209.438C252.361 210.339 252.651 211.334 252.721 212.357C252.792 213.379 252.641 214.405 252.279 215.364C251.914 216.301 251.351 217.148 250.629 217.848C249.907 218.547 249.043 219.083 248.095 219.419L150.376 256.094C149.996 256.245 149.608 256.372 149.212 256.474ZM149.744 27.832L149.159 27.961L48.1195 58.9867C47.2322 59.2265 46.4095 59.661 45.7111 60.2585C45.0126 60.856 44.4561 61.6016 44.0818 62.4411C43.7605 63.2494 43.6224 64.119 43.6775 64.9871C43.7325 65.8552 43.9794 66.7004 44.4002 67.4617L139.775 251.273C140.752 253.023 142.319 254.368 144.196 255.07C146.073 255.771 148.138 255.783 150.023 255.102L247.743 218.427C248.545 218.143 249.278 217.691 249.891 217.1C250.504 216.509 250.983 215.793 251.297 215.002C251.599 214.186 251.723 213.314 251.662 212.446C251.601 211.578 251.355 210.733 250.942 209.967L159.119 32.1993C158.22 30.5725 156.827 29.2731 155.143 28.4882C153.458 27.7033 151.567 27.4736 149.744 27.832Z" fill="#282929"/>
<path d="M252.094 206.711L154.372 243.376C152.363 244.107 150.159 244.098 148.156 243.35C146.153 242.602 144.483 241.165 143.445 239.296L48.1061 55.4985C46.1498 51.6864 47.9445 47.558 52.1472 46.2618L153.198 15.2337C155.209 14.6864 157.347 14.8302 159.267 15.642C161.187 16.4538 162.78 17.8867 163.789 19.7111L255.58 197.486C256.04 198.306 256.314 199.216 256.385 200.153C256.455 201.091 256.319 202.032 255.987 202.911C255.654 203.79 255.134 204.586 254.461 205.243C253.789 205.899 252.981 206.4 252.094 206.711Z" fill="white"/>
<path d="M153.396 244.249C151.387 244.682 149.292 244.46 147.419 243.615C145.546 242.769 143.994 241.346 142.99 239.552L47.6276 55.7492C47.1308 54.8481 46.8412 53.8476 46.78 52.8205C46.7188 51.7934 46.8874 50.7655 47.2736 49.8118C47.7064 48.8332 48.3494 47.9619 49.1568 47.2598C49.9643 46.5577 50.9165 46.0421 51.9457 45.7495L152.996 14.7214C155.131 14.1402 157.399 14.2934 159.436 15.1565C161.473 16.0196 163.161 17.5424 164.229 19.4804L256.028 197.242C256.515 198.144 256.803 199.139 256.873 200.161C256.944 201.183 256.794 202.208 256.435 203.168C256.068 204.105 255.504 204.953 254.78 205.653C254.056 206.353 253.19 206.889 252.241 207.225L154.522 243.9C154.154 244.04 153.778 244.156 153.396 244.249ZM153.927 15.6074L153.354 15.7342L52.3031 46.7622C51.4173 47.0017 50.5962 47.4359 49.8995 48.0331C49.2028 48.6303 48.6482 49.3754 48.276 50.2142C47.9497 51.0215 47.808 51.8914 47.8613 52.7605C47.9145 53.6296 48.1614 54.4758 48.5838 55.2371L143.967 239.036C144.946 240.784 146.513 242.128 148.389 242.829C150.266 243.53 152.33 243.543 154.215 242.865L251.935 206.19C252.737 205.906 253.47 205.453 254.083 204.862C254.696 204.271 255.175 203.556 255.489 202.764C255.793 201.949 255.919 201.077 255.858 200.208C255.797 199.34 255.55 198.494 255.134 197.729L163.311 19.9618C162.408 18.337 161.013 17.0402 159.327 16.2578C157.641 15.4754 155.751 15.2477 153.927 15.6074Z" fill="#282929"/>
<path d="M60.9085 66.1483L164.219 33.752L238.299 177.197L137.572 213.924L60.9085 66.1483Z" fill="#1F1F1F"/>
<path d="M210.146 214.791L191.079 221.912C189.862 222.342 188.532 222.325 187.326 221.865C186.121 221.405 185.118 220.531 184.497 219.4L180.933 212.545C180.647 212.025 180.478 211.448 180.44 210.855C180.401 210.262 180.494 209.668 180.711 209.115C180.928 208.562 181.264 208.064 181.695 207.655C182.126 207.247 182.642 206.938 183.206 206.752L202.338 199.717C203.547 199.308 204.861 199.337 206.05 199.799C207.24 200.262 208.229 201.127 208.845 202.245L212.385 209.094C212.661 209.607 212.821 210.174 212.856 210.755C212.89 211.337 212.798 211.919 212.585 212.461C212.372 213.003 212.043 213.492 211.622 213.894C211.201 214.297 210.697 214.603 210.146 214.791Z" fill="white"/>
<path d="M190.545 222.673C189.278 222.94 187.958 222.791 186.783 222.248C185.607 221.705 184.638 220.797 184.02 219.659L180.484 212.732C180.167 212.145 179.981 211.497 179.938 210.831C179.895 210.166 179.996 209.499 180.234 208.877C180.482 208.247 180.863 207.679 181.352 207.211C181.841 206.744 182.426 206.388 183.066 206.168L202.189 199.146C203.521 198.689 204.972 198.718 206.285 199.227C207.598 199.736 208.689 200.692 209.365 201.928L212.916 208.774C213.236 209.358 213.424 210.005 213.468 210.669C213.512 211.333 213.41 211.999 213.17 212.62C212.929 213.241 212.556 213.802 212.076 214.264C211.596 214.725 211.02 215.076 210.39 215.292L191.32 222.402C191.071 222.515 190.811 222.606 190.545 222.673ZM203.08 200.052C202.886 200.079 202.694 200.121 202.506 200.179L183.383 207.2C182.891 207.371 182.441 207.644 182.063 208.002C181.685 208.36 181.387 208.795 181.191 209.278C181.01 209.757 180.935 210.27 180.971 210.782C181.007 211.293 181.153 211.79 181.4 212.24L184.976 219.147C185.536 220.16 186.437 220.942 187.519 221.353C188.602 221.765 189.794 221.78 190.886 221.395L209.956 214.285L210.146 214.789L209.956 214.285C210.441 214.117 210.883 213.847 211.252 213.492C211.622 213.137 211.91 212.707 212.098 212.23C212.28 211.754 212.356 211.245 212.321 210.737C212.286 210.229 212.14 209.735 211.894 209.289L208.353 202.441C207.848 201.524 207.063 200.793 206.112 200.356C205.161 199.918 204.095 199.797 203.071 200.01L203.08 200.052Z" fill="#282929" fill-opacity="0.2"/>
<path d="M89.1757 46.1679C89.0348 46.199 88.8874 46.1729 88.7658 46.0953C88.6442 46.0177 88.5584 45.895 88.5273 45.7541C88.4962 45.6133 88.5223 45.4659 88.5999 45.3443C88.6774 45.2227 88.8002 45.1369 88.941 45.1057L118.476 35.9508C118.543 35.9282 118.615 35.9194 118.686 35.9249C118.757 35.9304 118.826 35.9501 118.89 35.9829C118.953 36.0156 119.009 36.0608 119.055 36.1156C119.1 36.1704 119.134 36.2338 119.155 36.3021C119.176 36.3706 119.184 36.4426 119.177 36.514C119.17 36.5854 119.149 36.6547 119.116 36.7181C119.082 36.7814 119.036 36.8375 118.981 36.8831C118.926 36.9286 118.862 36.9628 118.793 36.9836L89.2606 46.1491L89.1757 46.1679Z" fill="#282929" fill-opacity="0.2"/>
<path d="M122.805 35.7294C122.664 35.7605 122.517 35.7344 122.395 35.6568C122.274 35.5792 122.188 35.4565 122.157 35.3156C122.126 35.1748 122.152 35.0274 122.229 34.9058C122.307 34.7842 122.43 34.6984 122.57 34.6672L126.489 33.445C126.627 33.4026 126.777 33.4169 126.904 33.4848C127.032 33.5526 127.128 33.6685 127.17 33.8068C127.213 33.9452 127.198 34.0947 127.13 34.2225C127.063 34.3503 126.947 34.446 126.808 34.4883L122.898 35.6976L122.805 35.7294Z" fill="#282929" fill-opacity="0.2"/>
<path d="M114.837 131.345C114.727 131.369 114.612 131.359 114.508 131.317C114.377 131.261 114.274 131.157 114.218 131.026C114.162 130.895 114.158 130.748 114.208 130.615L146.489 50.5048C146.542 50.3705 146.646 50.2627 146.779 50.2052C146.911 50.1477 147.061 50.1452 147.195 50.1983C147.33 50.2513 147.438 50.3556 147.495 50.4881C147.552 50.6206 147.555 50.7705 147.502 50.9048L115.221 131.015C115.187 131.096 115.135 131.168 115.068 131.225C115.001 131.283 114.922 131.324 114.837 131.345Z" fill="white"/>
<path d="M166.533 181.606C166.423 181.63 166.308 181.62 166.204 181.578C166.137 181.551 166.077 181.51 166.026 181.46C165.976 181.409 165.936 181.348 165.909 181.282C165.882 181.215 165.868 181.144 165.868 181.072C165.869 181 165.884 180.929 165.912 180.863L185.484 133.327C185.544 133.201 185.65 133.102 185.78 133.052C185.91 133.002 186.054 133.003 186.183 133.056C186.312 133.109 186.415 133.21 186.472 133.337C186.529 133.464 186.535 133.608 186.489 133.74L166.919 181.287C166.884 181.367 166.831 181.437 166.764 181.492C166.697 181.548 166.618 181.587 166.533 181.606Z" fill="white"/>
<path d="M150.049 144.308C149.942 144.329 149.831 144.319 149.731 144.278C149.664 144.252 149.603 144.214 149.552 144.164C149.501 144.115 149.46 144.056 149.432 143.99C149.404 143.925 149.39 143.854 149.389 143.783C149.389 143.712 149.403 143.641 149.43 143.576L156.953 124.435C157.005 124.301 157.108 124.194 157.239 124.136C157.37 124.077 157.519 124.073 157.653 124.124C157.788 124.178 157.896 124.283 157.955 124.416C158.013 124.549 158.017 124.699 157.966 124.835L150.443 143.976C150.409 144.058 150.355 144.132 150.286 144.189C150.218 144.247 150.136 144.288 150.049 144.308Z" fill="white"/>
<path d="M103.664 105.585L51.7725 121.596C50.8289 121.811 49.8399 121.69 48.9754 121.255C48.1109 120.82 47.4248 120.097 47.035 119.211L31.4115 85.4562C31.1926 85.0796 31.0617 84.6583 31.0283 84.224C30.995 83.7896 31.0602 83.3534 31.219 82.9477C31.3778 82.5421 31.6262 82.1775 31.9456 81.8813C32.2649 81.585 32.6471 81.3647 33.0635 81.2368L85.0703 66.4036C85.9795 66.227 86.9218 66.3617 87.7451 66.7861C88.5684 67.2105 89.2248 67.8998 89.6085 68.7428L105.122 101.397C105.983 103.223 105.322 105.074 103.664 105.585Z" fill="white"/>
<path d="M85.2407 66.37C86.1276 66.2438 87.0315 66.4069 87.8184 66.8351C88.6052 67.2632 89.2331 67.9336 89.6089 68.7468L105.123 101.401C105.976 103.195 105.32 105.067 103.662 105.578L51.7706 121.589L51.5264 121.643C50.6135 121.788 49.6783 121.627 48.8659 121.187C48.0535 120.746 47.4093 120.049 47.0332 119.205L31.4096 85.4496C31.1908 85.0729 31.0598 84.6517 31.0265 84.2173C30.9931 83.7829 31.0583 83.3467 31.2171 82.941C31.376 82.5354 31.6243 82.1708 31.9437 81.8746C32.2631 81.5784 32.6452 81.3581 33.0616 81.2301L85.0684 66.3969L85.2384 66.3594L85.2407 66.37ZM85.0037 65.2972L84.77 65.3488L32.7632 80.1821C32.2305 80.3275 31.7361 80.5877 31.3146 80.9445C30.8931 81.3013 30.5548 81.746 30.3233 82.2474C30.0717 82.8286 29.9501 83.4578 29.9668 84.091C29.9836 84.7242 30.1384 85.3461 30.4204 85.9132L46.044 119.668C46.5241 120.738 47.3467 121.617 48.382 122.167C49.4173 122.717 50.6062 122.906 51.7611 122.705L52.0903 122.632L103.984 106.632C104.485 106.479 104.948 106.219 105.34 105.871C105.732 105.523 106.044 105.095 106.256 104.615C106.493 104.029 106.602 103.398 106.575 102.766C106.549 102.134 106.388 101.515 106.104 100.95L90.6406 68.2737C90.1658 67.2338 89.3621 66.3789 88.3535 65.8408C87.3449 65.3027 86.1873 65.1113 85.0591 65.2961L85.0037 65.2972Z" fill="#282929"/>
<path d="M72.1158 101.093C72.0042 101.119 71.8869 101.106 71.7843 101.054L31.1033 83.3073C30.9726 83.2474 30.8702 83.1392 30.8178 83.0053C30.7653 82.8714 30.7669 82.7224 30.8222 82.5896C30.8496 82.523 30.8901 82.4626 30.9415 82.412C30.9928 82.3615 31.0538 82.3219 31.1209 82.2956C31.188 82.2694 31.2597 82.257 31.3317 82.2592C31.4037 82.2614 31.4745 82.2782 31.5399 82.3085L71.748 99.8816L87.073 66.4956C87.134 66.364 87.2448 66.2619 87.3811 66.212C87.5173 66.162 87.6678 66.1683 87.7995 66.2293C87.9311 66.2903 88.0331 66.4011 88.0831 66.5374C88.133 66.6736 88.1268 66.8241 88.0658 66.9558L72.5113 100.816C72.4705 100.889 72.4137 100.952 72.3453 100.999C72.2768 101.047 72.1983 101.079 72.1158 101.093Z" fill="url(#paint0_linear_2015_9450)"/>
<path d="M105.361 104.646C105.254 104.668 105.144 104.657 105.043 104.616L75.5885 92.8104C75.5221 92.7848 75.4615 92.7461 75.4103 92.6967C75.359 92.6472 75.3182 92.588 75.2903 92.5226C75.2623 92.4571 75.2478 92.3867 75.2475 92.3155C75.2472 92.2443 75.2611 92.1738 75.2885 92.1081C75.3424 91.9733 75.447 91.865 75.5799 91.8065C75.7127 91.748 75.8633 91.7439 75.9991 91.7951L105.488 103.605C105.594 103.649 105.684 103.725 105.744 103.823C105.804 103.922 105.831 104.036 105.822 104.151C105.813 104.266 105.767 104.375 105.692 104.462C105.617 104.549 105.516 104.611 105.404 104.637L105.361 104.646Z" fill="url(#paint1_linear_2015_9450)"/>
<path d="M49.3313 121.892C49.208 121.916 49.0803 121.901 48.9656 121.85C48.8382 121.781 48.7428 121.665 48.6998 121.527C48.6567 121.388 48.6695 121.239 48.7353 121.11L61.804 96.0648C61.8702 95.9365 61.9847 95.8396 62.1222 95.7957C62.2598 95.7517 62.4092 95.7642 62.5375 95.8304C62.6659 95.8965 62.7627 96.011 62.8067 96.1486C62.8507 96.2861 62.8382 96.4355 62.772 96.5639L49.7032 121.609C49.6661 121.681 49.6135 121.743 49.5492 121.792C49.4848 121.841 49.4104 121.875 49.3313 121.892Z" fill="url(#paint2_linear_2015_9450)"/>
<path d="M202.587 33.3178L148.157 49.132C147.409 49.3421 146.715 49.7132 146.125 50.2192C145.534 50.7252 145.062 51.3541 144.74 52.0618C144.418 52.7694 144.254 53.5389 144.26 54.3164C144.266 55.0939 144.442 55.8607 144.775 56.5632L160.978 88.0515C161.691 89.6006 162.939 90.8409 164.491 91.5453C166.044 92.2496 167.799 92.3709 169.434 91.8868L172.012 91.0499L175.932 103.752L180.433 88.2758L223.233 76.0895C223.977 75.8645 224.661 75.478 225.238 74.9576C225.815 74.4372 226.27 73.7958 226.571 73.0791C226.871 72.3625 227.009 71.5884 226.976 70.8121C226.942 70.0358 226.738 69.2764 226.377 68.5884L210.805 36.9829C210.067 35.5185 208.846 34.3539 207.349 33.686C205.852 33.0182 204.169 32.8881 202.587 33.3178Z" fill="white"/>
<path d="M176.129 104.245L176.023 104.268C175.906 104.272 175.791 104.238 175.696 104.171C175.601 104.103 175.53 104.006 175.495 103.895L171.694 91.7342L169.612 92.3947C167.851 92.9256 165.956 92.8006 164.279 92.0426C162.603 91.2847 161.257 89.9452 160.492 88.2719L144.306 56.8132C143.938 56.0367 143.745 55.189 143.74 54.3298C143.734 53.4706 143.917 52.6206 144.275 51.8397C144.634 51.0587 145.159 50.3657 145.813 49.8093C146.468 49.2529 147.237 48.8466 148.065 48.6191L202.495 32.8048C204.217 32.323 206.052 32.4557 207.686 33.1803C209.32 33.9049 210.65 35.176 211.449 36.7752L227.018 68.3701C227.407 69.1493 227.623 70.003 227.652 70.8733C227.681 71.7435 227.522 72.6097 227.185 73.4129C226.849 74.1803 226.349 74.8656 225.722 75.4215C225.095 75.9774 224.355 76.3907 223.553 76.633L180.934 88.7345L176.483 103.877C176.457 103.962 176.412 104.04 176.351 104.104C176.289 104.168 176.213 104.216 176.129 104.245ZM171.974 90.4804C172.099 90.451 172.23 90.4697 172.342 90.5327C172.406 90.5654 172.463 90.6103 172.51 90.6651C172.556 90.7198 172.591 90.7832 172.613 90.8516L176.04 101.825L180.043 88.1294C180.069 88.0406 180.117 87.9598 180.182 87.8947C180.248 87.8295 180.329 87.7821 180.417 87.757L223.22 75.5813C223.871 75.3825 224.471 75.0463 224.981 74.5955C225.49 74.1447 225.897 73.5897 226.174 72.9681C226.446 72.3066 226.574 71.5946 226.549 70.8797C226.523 70.1647 226.345 69.4635 226.027 68.8231L210.457 37.2283C209.782 35.8532 208.646 34.7592 207.246 34.1378C205.846 33.5164 204.272 33.4072 202.8 33.8293L148.37 49.6435C147.698 49.8324 147.076 50.1653 146.547 50.6191C146.018 51.0728 145.594 51.6365 145.304 52.271C145.015 52.9054 144.868 53.5953 144.872 54.2925C144.877 54.9898 145.033 55.6777 145.331 56.3083L161.516 87.767C162.167 89.2066 163.318 90.3612 164.755 91.0167C166.193 91.6722 167.819 91.784 169.333 91.3314L171.9 90.4968L171.974 90.4804Z" fill="#282929"/>
<path d="M193.814 77.4052C192.821 76.945 191.858 76.4672 190.881 76.0259L182.696 72.4092C180.892 71.6047 179.077 70.8026 177.349 69.8366C175.802 69.0132 174.397 67.9471 173.187 66.679C172.408 65.8255 171.741 64.8759 171.203 63.8532C170.716 62.9712 170.311 62.0466 169.992 61.0909C169.405 59.5961 169.353 57.9447 169.843 56.4157C170.333 54.8866 171.336 53.5737 172.682 52.6985C175.605 50.8049 178.94 50.77 182.342 52.4578C183.125 52.8526 183.863 53.3322 184.541 53.8881L184.699 53.998C184.685 53.9343 184.671 53.8705 184.744 53.7987C185.096 52.1375 185.952 50.6255 187.196 49.4693C188.335 48.4165 189.755 47.7159 191.284 47.452C193.196 47.1122 195.166 47.3599 196.934 48.1625C198.702 48.965 200.186 50.2847 201.189 51.9475C201.696 52.8216 202.093 53.7554 202.371 54.7274C202.718 55.72 202.946 56.7505 203.049 57.797C203.172 59.3633 202.941 60.9372 202.374 62.4023C201.774 63.9403 201.035 65.42 200.165 66.8228C198.917 68.8918 197.631 70.9361 196.397 73.0135C195.543 74.4388 194.727 75.8891 193.898 77.331L193.814 77.4052Z" fill="url(#paint3_linear_2015_9450)"/>
<path d="M123.088 152.914L121.468 153.395L118.589 141.777C118.589 141.777 116.281 150.386 114.717 155.41L64.5801 170.487C61.8633 171.299 60.4138 173.814 61.3667 176.11L76.296 212.269C76.9032 213.506 77.9453 214.474 79.2227 214.99C80.5001 215.505 81.9228 215.531 83.218 215.062L143.478 195.386C144.068 195.237 144.618 194.959 145.087 194.572C145.556 194.185 145.934 193.699 146.193 193.149C146.452 192.598 146.585 191.997 146.583 191.389C146.582 190.78 146.445 190.18 146.183 189.631L129.601 155.419C128.965 154.32 127.972 153.473 126.787 153.017C125.602 152.562 124.297 152.525 123.088 152.914Z" fill="white"/>
<path d="M82.7652 215.732C81.4041 216.072 79.9677 215.931 78.6978 215.335C77.4279 214.739 76.4021 213.724 75.7931 212.461L60.8638 176.302C60.6326 175.739 60.522 175.134 60.5392 174.526C60.5564 173.917 60.7009 173.319 60.9635 172.771C61.3147 172.084 61.8049 171.478 62.4031 170.991C63.0012 170.504 63.6941 170.147 64.4378 169.942L114.253 154.969C115.789 149.973 118.006 141.708 117.99 141.633C118.02 141.518 118.088 141.415 118.183 141.342C118.277 141.269 118.393 141.229 118.513 141.228C118.634 141.231 118.752 141.273 118.847 141.348C118.942 141.424 119.01 141.529 119.04 141.646L121.781 152.693L122.827 152.384C124.163 151.972 125.6 152.027 126.901 152.539C128.202 153.051 129.291 153.99 129.988 155.202L146.56 189.416C146.853 189.994 147.016 190.629 147.037 191.276C147.059 191.924 146.939 192.568 146.686 193.165C146.388 193.824 145.953 194.412 145.409 194.89C144.865 195.367 144.226 195.723 143.533 195.933L83.2726 215.609C83.1052 215.657 82.9359 215.698 82.7652 215.732ZM118.556 143.892C117.772 146.75 116.31 152.03 115.233 155.521C115.207 155.607 115.16 155.685 115.096 155.748C115.032 155.811 114.953 155.857 114.866 155.881L64.7292 170.958C64.1228 171.115 63.5563 171.397 63.0667 171.788C62.5771 172.178 62.1754 172.667 61.8879 173.224C61.6883 173.632 61.5783 174.078 61.5653 174.533C61.5524 174.987 61.6368 175.439 61.8128 175.858L76.7315 212.019C77.2842 213.132 78.2279 214.002 79.382 214.462C80.536 214.923 81.8193 214.941 82.9861 214.514L143.244 194.827C143.789 194.669 144.294 194.395 144.723 194.023C145.153 193.651 145.497 193.191 145.731 192.674C145.919 192.219 146.007 191.729 145.989 191.237C145.971 190.745 145.846 190.263 145.625 189.823L129.053 155.609C128.476 154.622 127.578 153.862 126.51 153.454C125.442 153.046 124.266 153.014 123.177 153.365L121.568 153.843C121.497 153.864 121.423 153.87 121.351 153.861C121.278 153.852 121.208 153.829 121.144 153.792C121.077 153.758 121.018 153.71 120.973 153.651C120.927 153.592 120.895 153.523 120.879 153.449L118.556 143.892Z" fill="#282929"/>
<path d="M98.597 200.37L91.5145 202.648L83.666 184.419L90.68 182.234L98.597 200.37Z" fill="url(#paint4_linear_2015_9450)"/>
<path d="M91.5489 202.807C91.5106 202.817 91.4701 202.813 91.4341 202.797C91.3981 202.781 91.3687 202.752 91.3508 202.717L83.5106 184.476C83.5027 184.454 83.4992 184.431 83.5003 184.408C83.5014 184.385 83.507 184.362 83.5169 184.341C83.5268 184.32 83.5408 184.302 83.558 184.286C83.5752 184.271 83.5953 184.259 83.6171 184.252L90.6205 182.069C90.6616 182.057 90.7058 182.06 90.7448 182.078C90.7838 182.096 90.8147 182.128 90.8315 182.167L98.7592 200.3C98.7671 200.322 98.7706 200.345 98.7695 200.368C98.7684 200.391 98.7628 200.414 98.7529 200.435C98.7429 200.456 98.729 200.474 98.7118 200.49C98.6946 200.505 98.6745 200.517 98.6527 200.524L91.5596 202.805L91.5489 202.807ZM83.8999 184.523L91.6013 202.439L98.3722 200.263L90.5811 182.446L83.8999 184.523Z" fill="url(#paint5_linear_2015_9450)"/>
<path d="M93.9651 182.887C93.9651 182.887 99.383 179.629 100.428 175.689C101.474 171.748 99.4157 166.065 100.253 165.468C101 165.077 101.851 164.929 102.686 165.046C103.521 165.164 104.298 165.539 104.909 166.121C106.577 167.624 108.274 172.931 107.712 176.943C107.712 176.943 115.303 174.497 118.725 173.395C122.146 172.294 124.125 174.998 122.682 176.787C122.682 176.787 125.539 176.256 125.648 178.917C125.757 181.578 124.788 181.981 123.278 182.46C123.817 182.415 124.354 182.573 124.783 182.902C125.212 183.232 125.503 183.709 125.599 184.242C125.849 186.18 123.676 187.385 123.676 187.385C123.676 187.385 126.309 187.705 125.639 190.17C124.97 192.635 121.216 193.643 112.347 195.903C103.478 198.164 100.218 197.068 100.218 197.068L93.9651 182.887Z" fill="url(#paint6_linear_2015_9450)"/>
<path d="M110.392 196.582C103.021 198.211 100.283 197.312 100.163 197.272C100.121 197.254 100.086 197.222 100.065 197.182L93.8161 182.967C93.7997 182.929 93.7972 182.887 93.8089 182.848C93.8206 182.808 93.8458 182.775 93.88 182.752C93.9437 182.738 99.2507 179.482 100.266 175.66C100.89 173.439 100.44 170.597 100.146 168.512C99.8526 166.427 99.7557 165.635 100.159 165.345C100.936 164.925 101.827 164.763 102.702 164.882C103.577 165.001 104.392 165.395 105.029 166.007C106.739 167.545 108.373 172.721 107.917 176.71C109.278 176.264 115.644 174.222 118.675 173.219C120.846 172.56 122.324 173.348 122.933 174.238C123.171 174.578 123.308 174.978 123.326 175.392C123.345 175.807 123.245 176.218 123.037 176.577C123.732 176.508 124.428 176.691 125 177.09C125.263 177.312 125.472 177.591 125.613 177.905C125.754 178.219 125.822 178.561 125.813 178.905C125.908 181.201 125.237 181.895 124.069 182.353C124.516 182.434 124.924 182.658 125.231 182.993C125.539 183.327 125.728 183.753 125.77 184.205C125.798 184.821 125.658 185.433 125.366 185.976C125.075 186.519 124.641 186.973 124.112 187.29C124.703 187.441 125.224 187.789 125.589 188.278C125.766 188.563 125.877 188.883 125.914 189.216C125.95 189.549 125.913 189.886 125.803 190.203C125.09 192.822 121.114 193.834 112.394 196.062L110.392 196.582ZM100.344 196.931C100.852 197.064 104.236 197.809 112.334 195.741C120.916 193.544 124.839 192.543 125.496 190.126C125.59 189.854 125.624 189.565 125.595 189.279C125.566 188.993 125.476 188.717 125.331 188.469C124.917 187.965 124.327 187.637 123.68 187.553C123.645 187.548 123.612 187.532 123.586 187.508C123.56 187.484 123.542 187.452 123.534 187.418C123.526 187.383 123.53 187.347 123.543 187.314C123.557 187.281 123.58 187.253 123.61 187.234C123.61 187.234 125.669 186.066 125.436 184.257C125.361 183.762 125.097 183.315 124.699 183.01C124.302 182.705 123.802 182.566 123.304 182.623C123.262 182.626 123.221 182.614 123.188 182.588C123.156 182.562 123.134 182.525 123.128 182.483C123.119 182.443 123.126 182.4 123.147 182.365C123.168 182.329 123.202 182.303 123.242 182.291C124.658 181.844 125.595 181.548 125.485 178.932C125.495 178.637 125.44 178.344 125.322 178.073C125.204 177.802 125.028 177.561 124.805 177.367C124.185 176.976 123.442 176.83 122.721 176.959C122.686 176.965 122.651 176.961 122.62 176.945C122.588 176.93 122.562 176.906 122.546 176.875C122.523 176.851 122.507 176.822 122.5 176.79C122.493 176.758 122.495 176.725 122.506 176.694C122.771 176.384 122.925 175.994 122.944 175.587C122.962 175.179 122.845 174.777 122.61 174.443C122.067 173.65 120.715 172.924 118.729 173.563C115.34 174.613 107.801 177.092 107.727 177.108C107.699 177.119 107.67 177.122 107.641 177.117C107.612 177.111 107.585 177.097 107.564 177.077C107.545 177.056 107.533 177.03 107.526 177.002C107.52 176.974 107.521 176.945 107.529 176.918C108.059 173.069 106.438 167.746 104.782 166.251C104.199 165.698 103.458 165.34 102.663 165.224C101.868 165.109 101.056 165.242 100.34 165.606C100.081 165.797 100.268 167.148 100.457 168.455C100.777 170.612 101.174 173.465 100.573 175.737C99.5906 179.407 95.013 182.435 94.1617 182.968L100.344 196.931Z" fill="url(#paint7_linear_2015_9450)"/>
<path d="M248.705 160.52L197.693 177.083C195.79 177.614 193.761 177.464 191.956 176.659C190.151 175.854 188.684 174.444 187.807 172.672L173.317 143.29C171.5 139.603 172.981 135.566 176.641 134.334L227.722 117.076C229.659 116.5 231.739 116.631 233.588 117.447C235.438 118.263 236.937 119.71 237.818 121.529L252.248 151.549C252.696 152.355 252.959 153.251 253.019 154.171C253.079 155.091 252.934 156.014 252.595 156.871C252.257 157.729 251.732 158.501 251.06 159.132C250.387 159.763 249.583 160.237 248.705 160.52Z" fill="white"/>
<path d="M197.154 177.77C195.21 178.125 193.204 177.841 191.435 176.96C189.667 176.08 188.23 174.651 187.341 172.886L172.859 143.491C172.378 142.567 172.099 141.551 172.042 140.511C171.985 139.47 172.151 138.43 172.529 137.459C172.885 136.596 173.424 135.82 174.109 135.186C174.794 134.552 175.608 134.075 176.496 133.787L227.567 116.531C229.636 115.917 231.856 116.058 233.83 116.93C235.804 117.802 237.404 119.348 238.343 121.291L252.774 151.31C253.239 152.235 253.499 153.249 253.535 154.283C253.571 155.317 253.383 156.347 252.984 157.302C252.602 158.185 252.034 158.975 251.319 159.617C250.603 160.26 249.757 160.74 248.838 161.025L197.865 177.613C197.632 177.664 197.387 177.718 197.154 177.77ZM228.648 117.339C228.397 117.379 228.149 117.433 227.904 117.504L176.832 134.748C176.093 134.992 175.415 135.391 174.844 135.919C174.272 136.447 173.821 137.091 173.52 137.808C173.197 138.637 173.056 139.527 173.108 140.415C173.16 141.303 173.404 142.17 173.822 142.955L188.288 172.432C189.106 174.079 190.468 175.393 192.144 176.15C193.82 176.906 195.706 177.06 197.482 176.583L248.494 160.02C249.265 159.781 249.976 159.379 250.578 158.84C251.18 158.301 251.658 157.64 251.981 156.899C252.311 156.085 252.461 155.209 252.421 154.332C252.381 153.454 252.152 152.596 251.749 151.815L237.319 121.796C236.557 120.209 235.297 118.915 233.732 118.11C232.167 117.306 230.381 117.035 228.648 117.339Z" fill="#282929"/>
<path d="M227.619 143.486L212.139 162.201C211.035 163.559 208.642 163.063 207.794 161.345L196.376 138.001C196.179 137.633 196.092 137.217 196.125 136.8C196.159 136.384 196.311 135.987 196.564 135.655C196.817 135.323 197.16 135.071 197.553 134.929C197.945 134.786 198.37 134.76 198.777 134.853L225.682 139.458C227.691 139.827 228.78 142.082 227.619 143.486Z" fill="url(#paint8_linear_2015_9450)"/>
<defs>
<linearGradient id="paint0_linear_2015_9450" x1="34.7727" y1="70.6093" x2="102.327" y2="76.6941" gradientUnits="userSpaceOnUse">
<stop stop-color="#FFB11B"/>
<stop offset="1" stop-color="#FF441B"/>
</linearGradient>
<linearGradient id="paint1_linear_2015_9450" x1="77.1397" y1="86.9979" x2="108.963" y2="87.4691" gradientUnits="userSpaceOnUse">
<stop stop-color="#FFB11B"/>
<stop offset="1" stop-color="#FF441B"/>
</linearGradient>
<linearGradient id="paint2_linear_2015_9450" x1="44.8459" y1="94.2775" x2="67.5897" y2="92.4714" gradientUnits="userSpaceOnUse">
<stop stop-color="#FFB11B"/>
<stop offset="1" stop-color="#FF441B"/>
</linearGradient>
<linearGradient id="paint3_linear_2015_9450" x1="170.114" y1="45.1264" x2="209.123" y2="43.6926" gradientUnits="userSpaceOnUse">
<stop stop-color="#FFB11B"/>
<stop offset="1" stop-color="#FF441B"/>
</linearGradient>
<linearGradient id="paint4_linear_2015_9450" x1="83.7341" y1="179.049" x2="96.8979" y2="177.371" gradientUnits="userSpaceOnUse">
<stop stop-color="#FFB11B"/>
<stop offset="1" stop-color="#FF441B"/>
</linearGradient>
<linearGradient id="paint5_linear_2015_9450" x1="83.5547" y1="178.83" x2="97.1212" y2="177.118" gradientUnits="userSpaceOnUse">
<stop stop-color="#FFB11B"/>
<stop offset="1" stop-color="#FF441B"/>
</linearGradient>
<linearGradient id="paint6_linear_2015_9450" x1="92.371" y1="159.437" x2="129.921" y2="157.258" gradientUnits="userSpaceOnUse">
<stop stop-color="#FFB11B"/>
<stop offset="1" stop-color="#FF441B"/>
</linearGradient>
<linearGradient id="paint7_linear_2015_9450" x1="92.1938" y1="159.227" x2="130.153" y2="157.021" gradientUnits="userSpaceOnUse">
<stop stop-color="#FFB11B"/>
<stop offset="1" stop-color="#FF441B"/>
</linearGradient>
<linearGradient id="paint8_linear_2015_9450" x1="197.45" y1="127.834" x2="233.061" y2="125.876" gradientUnits="userSpaceOnUse">
<stop stop-color="#FFB11B"/>
<stop offset="1" stop-color="#FF441B"/>
</linearGradient>
</defs>
</svg>
