<svg width="296" height="195" viewBox="0 0 296 195" fill="none" xmlns="http://www.w3.org/2000/svg">
<path d="M206.149 142.395C216.611 140.558 216.404 139.021 217.36 133.033C219.076 122.233 224.322 113.253 229.819 104.018C250.218 69.8058 233.305 24.855 188.345 24.6905C157.857 24.5407 135.899 44.5141 135.887 74.164C135.883 88.8778 141.438 101.866 151.537 112.461C158.417 119.702 164.356 127.183 167.649 136.734C169.786 142.886 169.961 146.711 181.078 144.759C185.105 144.052 189.231 143.971 193.307 143.604C197.57 143.099 201.918 143.138 206.149 142.395Z" fill="white"/>
<path d="M206.229 142.855C216.24 141.097 216.841 139.65 217.753 133.776L217.858 133.05C219.594 122.12 225.02 113.023 230.256 104.225C240.968 86.2472 241.785 64.7365 232.376 48.0844C223.678 32.7123 208.031 24.1475 188.326 24.048C172.757 23.9828 158.878 29.2186 149.255 38.7771C140.156 47.7683 135.346 60.0199 135.379 74.0407C135.376 88.4984 141.045 102.38 151.167 112.704C157.133 118.955 163.689 126.697 167.172 136.785C167.345 137.293 167.505 137.782 167.665 138.272C169.402 143.533 170.542 147.019 181.178 145.152C183.927 144.72 186.698 144.435 189.478 144.296C190.782 144.205 192.076 144.115 193.376 144.003C194.832 143.874 196.283 143.777 197.747 143.689C200.588 143.573 203.42 143.294 206.229 142.855V142.855ZM177.026 26.0427C180.756 25.3948 184.537 25.0844 188.323 25.1153C207.637 25.2096 222.96 33.5565 231.529 48.6134C240.735 64.9525 239.94 86.0475 229.415 103.707C224.131 112.588 218.655 121.767 216.892 132.903L216.777 133.63C215.959 138.897 215.756 140.147 206.104 141.842C203.319 142.275 200.512 142.553 197.695 142.674C196.232 142.762 194.758 142.852 193.292 142.982C192.004 143.103 190.71 143.193 189.414 143.273C186.603 143.416 183.802 143.707 181.022 144.144C171.278 145.855 170.414 143.218 168.677 137.957C168.519 137.478 168.353 136.958 168.171 136.461C164.636 126.193 157.985 118.33 151.94 111.998C141.648 101.204 136.439 88.4408 136.438 74.0554C136.445 60.3233 141.149 48.3754 150.042 39.5262C157.441 32.3712 166.862 27.6641 177.026 26.0427V26.0427Z" fill="#282929"/>
<path d="M213.297 154.207L175.371 157.684C173.792 157.829 172.394 156.666 172.25 155.087L171.637 148.405C171.492 146.826 172.655 145.428 174.234 145.284L212.16 141.806C213.739 141.661 215.137 142.824 215.282 144.403L215.894 151.085C216.039 152.664 214.876 154.062 213.297 154.207Z" fill="white"/>
<path d="M213.632 154.695C214.472 154.548 215.226 154.09 215.743 153.412C216.26 152.734 216.503 151.886 216.423 151.037L215.811 144.363C215.769 143.919 215.639 143.486 215.43 143.091C215.221 142.697 214.937 142.347 214.592 142.062C214.248 141.777 213.851 141.563 213.424 141.432C212.997 141.3 212.548 141.254 212.103 141.296L174.185 144.786C173.288 144.873 172.462 145.312 171.887 146.007C171.313 146.701 171.036 147.595 171.118 148.493L171.73 155.166C171.772 155.611 171.902 156.043 172.111 156.438C172.32 156.833 172.604 157.183 172.949 157.468C173.293 157.752 173.69 157.967 174.117 158.098C174.544 158.229 174.993 158.275 175.438 158.233L213.356 154.744L213.632 154.695ZM174.106 145.835L174.29 145.802L212.208 142.313C212.516 142.284 212.826 142.317 213.122 142.408C213.417 142.499 213.692 142.648 213.929 142.846C214.167 143.044 214.364 143.286 214.508 143.56C214.651 143.833 214.74 144.133 214.768 144.441L215.38 151.114C215.435 151.735 215.242 152.353 214.844 152.833C214.445 153.312 213.873 153.615 213.252 153.674L175.334 157.163C175.026 157.192 174.716 157.16 174.421 157.068C174.125 156.977 173.851 156.828 173.613 156.631C173.375 156.433 173.179 156.19 173.035 155.917C172.891 155.643 172.802 155.344 172.774 155.036L172.173 148.36C172.12 147.774 172.289 147.189 172.647 146.721C173.005 146.253 173.526 145.937 174.106 145.835Z" fill="#282929"/>
<path d="M214.426 166.6L176.5 170.078C174.921 170.222 173.523 169.06 173.378 167.48L172.766 160.799C172.621 159.219 173.784 157.822 175.363 157.677L213.289 154.2C214.868 154.055 216.266 155.218 216.411 156.797L217.023 163.479C217.168 165.058 216.005 166.455 214.426 166.6Z" fill="white"/>
<path d="M214.764 167.097C215.604 166.95 216.358 166.491 216.875 165.813C217.392 165.135 217.635 164.288 217.555 163.439L216.941 156.755C216.899 156.311 216.77 155.879 216.561 155.485C216.352 155.091 216.067 154.741 215.723 154.458C215.378 154.174 214.981 153.96 214.555 153.83C214.128 153.7 213.68 153.655 213.235 153.698L175.317 157.187C174.873 157.229 174.44 157.359 174.046 157.568C173.651 157.777 173.301 158.061 173.016 158.406C172.731 158.75 172.517 159.147 172.386 159.574C172.254 160.001 172.208 160.45 172.25 160.895L172.864 167.578C172.906 168.023 173.035 168.455 173.244 168.85C173.454 169.245 173.738 169.595 174.083 169.88C174.427 170.164 174.824 170.379 175.251 170.51C175.678 170.641 176.127 170.687 176.571 170.645L214.489 167.156L214.766 167.107L214.764 167.097ZM175.238 158.237L175.432 158.202L213.35 154.713C213.971 154.658 214.588 154.851 215.066 155.25C215.544 155.65 215.844 156.222 215.9 156.843L216.514 163.526C216.569 164.147 216.376 164.764 215.976 165.242C215.577 165.72 215.005 166.02 214.384 166.076L176.466 169.565C176.159 169.594 175.849 169.562 175.554 169.47C175.259 169.378 174.985 169.229 174.748 169.031C174.511 168.833 174.316 168.59 174.173 168.317C174.03 168.043 173.943 167.743 173.917 167.436L173.303 160.752C173.255 160.167 173.427 159.586 173.785 159.121C174.142 158.656 174.66 158.341 175.238 158.237V158.237Z" fill="#282929"/>
<path d="M212.4 166.805C212.83 171.482 205.559 175.97 196.254 176.812C186.949 177.653 178.961 174.567 178.554 169.907L212.4 166.805Z" fill="#282929"/>
<path d="M199.183 176.953C207.482 175.495 213.336 171.299 212.919 166.756C212.904 166.62 212.836 166.494 212.73 166.406C212.624 166.318 212.488 166.275 212.35 166.286L178.512 169.429C178.375 169.444 178.249 169.511 178.161 169.618C178.074 169.724 178.031 169.86 178.041 169.997C178.502 175.028 186.529 178.277 196.306 177.352C197.288 177.25 198.247 177.117 199.183 176.953ZM211.889 167.328C211.81 169.222 210.348 171.126 207.71 172.762C204.184 174.778 200.25 175.974 196.199 176.262C187.519 177.057 180.086 174.423 179.146 170.331L211.889 167.328Z" fill="#282929"/>
<path d="M203.108 136.507C203.176 136.491 203.239 136.462 203.296 136.421C203.352 136.38 203.399 136.328 203.435 136.269C203.471 136.21 203.494 136.144 203.504 136.075C203.514 136.006 203.51 135.936 203.493 135.869C200.802 125.377 199.43 114.591 199.407 103.759C202.05 102.663 204.55 101.252 206.855 99.5575C210.924 96.7583 214.095 92.8413 215.986 88.2793C217.852 83.3255 217.324 77.8519 214.701 73.982C214.308 73.307 213.753 72.7407 213.086 72.3341C212.419 71.9275 211.661 71.6935 210.881 71.6532C207.603 71.5738 204.698 75.0624 203.893 76.1332C198.851 82.7855 198.614 92.7449 198.423 100.742L198.409 101.801L198.384 103.105C193.536 105.022 188.349 105.933 183.138 105.782C182.573 103.246 181.853 100.748 180.979 98.3023C178.136 90.3518 174.935 84.6295 171.457 81.3638C170.374 80.488 169.123 79.8436 167.782 79.4708C166.44 79.0979 165.036 79.0044 163.657 79.1961C162.277 79.3877 160.952 79.8605 159.763 80.5851C158.574 81.3097 157.546 82.2707 156.744 83.4086C155.878 85.0349 155.438 86.8536 155.464 88.6957C155.49 90.5378 155.982 92.3434 156.893 93.9445C158.709 97.0596 161.331 99.6277 164.483 101.378C169.883 104.65 176.022 106.507 182.33 106.779C184.432 116.581 184.507 126.813 184.578 136.782L184.585 138.027C184.588 138.165 184.644 138.296 184.742 138.394C184.84 138.491 184.972 138.546 185.11 138.548C185.246 138.545 185.376 138.489 185.472 138.391C185.567 138.293 185.62 138.162 185.62 138.025L185.612 136.78C185.547 126.842 185.465 116.632 183.405 106.823C188.532 106.949 193.634 106.071 198.425 104.238C198.479 115.015 199.859 125.745 202.534 136.185C202.58 136.296 202.661 136.387 202.765 136.446C202.869 136.504 202.99 136.526 203.108 136.507ZM210.163 72.7403C210.404 72.7011 210.649 72.683 210.893 72.6861C211.506 72.7285 212.098 72.9219 212.618 73.2489C213.138 73.5759 213.569 74.0265 213.873 74.5604C215.108 76.5343 215.859 78.7728 216.062 81.0926C216.266 83.4123 215.917 85.7472 215.044 87.9061C213.216 92.2791 210.169 96.0336 206.265 98.7211C204.145 100.27 201.86 101.578 199.45 102.622C199.455 102.346 199.468 102.059 199.472 101.783L199.487 100.724C199.682 92.8742 199.912 83.1166 204.778 76.7173C206.098 74.975 208.155 73.0929 210.163 72.7403V72.7403ZM163.454 80.1812L163.833 80.1147C165.056 79.9033 166.311 79.9639 167.507 80.2923C168.704 80.6207 169.814 81.2088 170.758 82.0147C174.112 85.1753 177.221 90.7343 179.998 98.5485C180.818 100.873 181.506 103.242 182.057 105.644C176.034 105.326 170.182 103.527 165.02 100.407C162.028 98.7469 159.536 96.3138 157.805 93.3619C156.986 91.923 156.541 90.3018 156.51 88.6465C156.48 86.9912 156.865 85.3547 157.63 83.8866C158.283 82.8919 159.14 82.0473 160.144 81.4085C161.148 80.7698 162.276 80.3514 163.454 80.1812V80.1812Z" fill="url(#paint0_linear_2015_9063)"/>
<path d="M160.659 146.432C159.953 144.876 159.269 143.328 158.555 141.784C158.182 140.984 157.77 140.201 157.357 139.417C157.131 138.92 156.739 138.517 156.248 138.277C155.756 138.038 155.197 137.977 154.666 138.105C153.375 138.332 152.13 138.762 150.857 139.091C150.196 139.308 149.516 139.463 148.826 139.553C148.31 139.618 147.787 139.505 147.344 139.232C145.725 137.953 144.16 136.623 142.609 135.247C142.347 134.991 142.153 134.674 142.044 134.325C141.935 133.975 141.914 133.604 141.983 133.245C142.156 131.641 142.386 130.005 142.567 128.453C142.652 127.833 142.648 127.204 142.556 126.585C142.517 126.359 142.434 126.142 142.311 125.948C142.188 125.754 142.028 125.586 141.84 125.454C139.3 124.119 136.574 123.174 133.754 122.649C133.336 122.558 132.9 122.607 132.514 122.79C132.127 122.972 131.812 123.277 131.618 123.658C130.753 125.109 129.842 126.536 129.023 128.011C128.771 128.567 128.36 129.038 127.843 129.363C127.325 129.689 126.724 129.855 126.113 129.842C124.398 129.879 122.668 130.014 120.95 130.094C120.634 130.108 120.319 130.046 120.033 129.912C119.746 129.779 119.496 129.578 119.305 129.326C118.606 128.477 117.945 127.6 117.257 126.749C116.569 125.899 116.09 125.275 115.468 124.56C115.197 124.185 114.803 123.917 114.354 123.803C113.906 123.689 113.431 123.735 113.014 123.935C110.715 124.983 108.421 126.051 106.188 127.172C105.759 127.389 105.418 127.749 105.224 128.189C105.029 128.63 104.994 129.124 105.123 129.588C105.354 130.899 105.797 132.163 106.13 133.456C106.289 134.062 106.438 134.67 106.548 135.295C106.627 135.685 106.615 136.088 106.512 136.473C106.41 136.857 106.219 137.213 105.955 137.511C104.803 138.77 103.653 140.102 102.568 141.443C102.255 141.849 101.837 142.161 101.359 142.346C100.882 142.53 100.362 142.58 99.8579 142.49C98.1219 142.288 96.3992 142.041 94.6614 141.828C94.0874 141.694 93.4838 141.788 92.9774 142.09C92.471 142.391 92.1012 142.877 91.9457 143.446C91.1671 145.568 90.4313 147.694 89.7316 149.845C89.584 150.139 89.4978 150.459 89.4782 150.788C89.4587 151.116 89.5062 151.445 89.6178 151.755C89.7295 152.064 89.9029 152.348 90.1277 152.588C90.3524 152.828 90.6237 153.02 90.925 153.152C91.8658 153.758 92.8639 154.269 93.8216 154.851C94.5058 155.259 95.1798 155.669 95.8375 156.166C96.1158 156.356 96.3471 156.607 96.5138 156.9C96.6806 157.193 96.7783 157.52 96.7996 157.856C96.921 159.63 97.0647 161.411 97.147 163.203C97.1832 163.687 97.0914 164.172 96.8808 164.609C96.6703 165.047 96.3483 165.421 95.9474 165.695C95.0109 166.377 94.069 167.028 93.1958 167.709C92.6217 168.125 92.0727 168.574 91.5519 169.054C91.1548 169.351 90.8769 169.78 90.7682 170.264C90.6595 170.748 90.7272 171.255 90.9591 171.693C91.9247 173.784 92.941 175.862 94.0079 177.928C94.1787 178.237 94.3819 178.527 94.614 178.794C94.8396 179.12 95.1623 179.368 95.5363 179.501C95.9104 179.635 96.3169 179.647 96.6984 179.537L101.251 178.336C101.364 178.316 101.487 178.294 101.599 178.275C102.227 178.041 102.911 178.002 103.561 178.163C104.211 178.324 104.797 178.677 105.243 179.177C106.213 180.126 107.284 180.931 108.314 181.806C108.789 182.192 109.15 182.701 109.357 183.277C109.564 183.853 109.61 184.475 109.49 185.075C109.252 186.606 109.024 188.135 108.861 189.674C108.698 191.213 109.062 191.963 110.589 192.539C112.78 193.348 114.991 194.09 117.217 194.798C117.714 195.024 118.279 195.046 118.792 194.859C119.304 194.672 119.723 194.291 119.957 193.799C120.69 192.678 121.34 191.507 122.004 190.356C123.436 187.865 123.838 187.626 126.708 187.491L130.066 187.366C130.597 187.326 131.129 187.423 131.612 187.647C132.095 187.871 132.513 188.215 132.825 188.646C133.613 189.701 134.363 190.784 135.177 191.813C135.608 192.347 136.086 192.839 136.608 193.284C136.842 193.515 137.143 193.667 137.469 193.718C137.794 193.769 138.128 193.716 138.421 193.567C140.583 192.522 142.754 191.476 144.922 190.408C145.215 190.252 145.486 190.059 145.73 189.834C146.052 189.602 146.294 189.275 146.419 188.898C146.545 188.521 146.548 188.115 146.428 187.736C146.037 186.231 145.632 184.707 145.248 183.243C145.166 182.772 145.085 182.31 145.004 181.849C144.925 181.473 144.936 181.083 145.036 180.711C145.136 180.34 145.322 179.997 145.579 179.71C146.69 178.459 147.791 177.209 148.902 175.958C149.213 175.589 149.617 175.312 150.073 175.154C150.528 174.996 151.018 174.963 151.49 175.06C153.02 175.288 154.562 175.471 156.098 175.677L156.271 175.699C158.275 175.865 158.887 175.557 159.568 173.663C160.319 171.566 160.99 169.431 161.618 167.293C161.837 166.786 161.846 166.214 161.643 165.701C161.44 165.188 161.042 164.776 160.536 164.557C159.249 163.727 157.946 162.984 156.6 162.291C155.953 161.998 155.406 161.523 155.027 160.923C154.647 160.323 154.452 159.626 154.465 158.916C154.425 157.307 154.312 155.7 154.242 154.097C154.211 153.765 154.263 153.43 154.393 153.123C154.524 152.816 154.729 152.547 154.989 152.339C156.243 151.358 157.511 150.396 158.701 149.416C159.602 148.854 160.27 147.987 160.585 146.973L160.659 146.432ZM110.578 160.232C110.382 158.225 110.587 156.198 111.18 154.271C111.773 152.343 112.742 150.552 114.031 149.002C115.321 147.451 116.905 146.172 118.693 145.237C120.48 144.303 122.435 143.733 124.444 143.559C128.434 143.299 132.37 144.592 135.428 147.167C138.487 149.743 140.431 153.401 140.855 157.377C141.214 161.374 139.985 165.353 137.434 168.451C134.883 171.55 131.214 173.52 127.222 173.934C117.457 174.867 110.787 166.955 110.578 160.232Z" fill="#282929"/>
<path d="M127.114 34.5442C126.688 33.5627 126.28 32.6837 125.853 31.7553C125.632 31.2766 125.376 30.7829 125.129 30.3403C124.991 30.0469 124.757 29.8099 124.465 29.6689C124.173 29.5279 123.841 29.4915 123.525 29.5658C122.747 29.7025 122 29.9604 121.232 30.1586C120.829 30.2923 120.414 30.3864 119.993 30.4396C119.683 30.4809 119.368 30.4129 119.103 30.2472C118.123 29.4792 117.189 28.6714 116.264 27.8517C116.105 27.6996 115.986 27.5105 115.918 27.3013C115.85 27.0921 115.835 26.8692 115.874 26.6527C115.989 25.682 116.127 24.7281 116.234 23.7694C116.283 23.3946 116.28 23.0148 116.226 22.6407C116.201 22.5052 116.15 22.376 116.075 22.2604C116.001 22.1447 115.904 22.0451 115.79 21.9672C114.265 21.1653 112.627 20.5983 110.932 20.2853C110.682 20.2304 110.421 20.2599 110.19 20.3693C109.959 20.4787 109.771 20.6618 109.655 20.8899C109.132 21.7632 108.585 22.6197 108.097 23.5081C107.941 23.8397 107.693 24.1196 107.383 24.3145C107.073 24.5094 106.713 24.6111 106.347 24.6076C105.295 24.6339 104.253 24.7113 103.205 24.758C103.015 24.766 102.826 24.7271 102.655 24.6448C102.484 24.5624 102.336 24.4392 102.224 24.2859C101.807 23.7781 101.409 23.2565 100.991 22.7385C100.573 22.2205 100.278 21.8074 99.9158 21.4275C99.7519 21.2055 99.515 21.0483 99.2468 20.9834C98.9786 20.9185 98.696 20.95 98.4487 21.0725C97.0585 21.6968 95.6822 22.3398 94.3215 23.0118C94.0657 23.1449 93.8634 23.3617 93.7483 23.6261C93.6332 23.8905 93.6124 24.1863 93.6893 24.4642C93.8278 25.2532 94.0875 26.0103 94.2875 26.7884C94.3523 27.1573 94.4803 27.5256 94.5451 27.8945C94.5967 28.1316 94.5914 28.3776 94.5299 28.6124C94.4683 28.8471 94.3521 29.064 94.1908 29.2453C93.5049 30.0311 92.8052 30.7983 92.1555 31.6095C91.9663 31.8528 91.7147 32.0403 91.4275 32.1521C91.1403 32.2639 90.8281 32.2958 90.5242 32.2444C89.4456 32.117 88.4472 31.9648 87.4114 31.8404C87.0657 31.7573 86.7012 31.8126 86.3957 31.9945C86.0902 32.1764 85.8679 32.4705 85.7762 32.8141C85.3033 34.0906 84.8628 35.372 84.4429 36.6499C84.3559 36.8268 84.3056 37.0195 84.2948 37.2164C84.284 37.4132 84.3129 37.6103 84.38 37.7957C84.4471 37.9811 84.5508 38.1511 84.6851 38.2955C84.8193 38.4399 84.9813 38.5557 85.1613 38.6361C85.7221 39.0024 86.3353 39.3067 86.8924 39.6525C87.4496 39.9982 87.7212 40.1618 88.097 40.4972C88.2654 40.6108 88.4054 40.7617 88.506 40.9382C88.6066 41.1147 88.6651 41.3121 88.677 41.5149C88.7442 42.5593 88.8319 43.6001 88.893 44.7301C88.9092 45.0217 88.8507 45.3126 88.7231 45.5753C88.5955 45.8379 88.403 46.0637 88.1638 46.2312L86.5049 47.4308C86.1702 47.6903 85.8355 47.9497 85.5267 48.2363C85.2961 48.4198 85.1366 48.6778 85.0754 48.966C85.0143 49.2543 85.0553 49.5548 85.1915 49.8161C85.7907 51.0629 86.388 52.2994 87.0059 53.5323C87.1062 53.7188 87.2288 53.8923 87.3712 54.0491C87.5072 54.2452 87.7007 54.3944 87.925 54.4761C88.1493 54.5577 88.3934 54.5679 88.6237 54.5051L91.4067 53.7524L91.6116 53.7164C91.9908 53.5701 92.4058 53.5436 92.8005 53.6405C93.1953 53.7374 93.5508 53.953 93.8192 54.2583C94.3936 54.8228 95.0615 55.3182 95.663 55.8568C95.9476 56.095 96.1634 56.4049 96.2879 56.7544C96.4124 57.104 96.4412 57.4805 96.3712 57.8449C96.2252 58.7578 96.0912 59.6791 95.9898 60.6052C95.9338 60.7872 95.9172 60.979 95.941 61.1679C95.9648 61.3568 96.0286 61.5385 96.128 61.7008C96.2275 61.8632 96.3603 62.0025 96.5177 62.1096C96.6752 62.2167 96.8536 62.289 97.0411 62.3218C98.352 62.8099 99.6762 63.2533 101.028 63.7342C101.328 63.8621 101.666 63.8706 101.972 63.758C102.278 63.6453 102.529 63.4201 102.675 63.1282C103.105 62.4506 103.491 61.7597 103.907 61.0634C104.763 59.5612 105.001 59.4137 106.773 59.3351L108.787 59.2561C109.105 59.23 109.425 59.2868 109.715 59.4209C110.005 59.5551 110.256 59.762 110.442 60.0216C110.911 60.647 111.363 61.2964 111.826 61.891C112.084 62.2204 112.375 62.5232 112.693 62.7951C112.834 62.9333 113.014 63.0247 113.208 63.0567C113.403 63.0887 113.603 63.0597 113.78 62.9738L117.672 61.0758C117.846 60.9766 118.01 60.8594 118.16 60.7261C118.357 60.5912 118.507 60.3978 118.589 60.1731C118.671 59.9485 118.68 59.7039 118.616 59.4737C118.384 58.5743 118.142 57.6768 117.91 56.7775C117.862 56.5008 117.811 56.2139 117.763 55.9373C117.716 55.7109 117.723 55.4769 117.783 55.2537C117.843 55.0306 117.954 54.8244 118.107 54.6516L120.111 52.4091C120.297 52.187 120.539 52.019 120.812 51.9228C121.085 51.8265 121.379 51.8055 121.663 51.862C122.584 51.996 123.512 52.1077 124.431 52.2314L124.534 52.2134C125.735 52.3193 126.103 52.128 126.518 50.999C126.932 49.8701 127.369 48.4518 127.757 47.1692C127.826 47.0188 127.865 46.8559 127.869 46.6903C127.874 46.5247 127.845 46.3599 127.785 46.2057C127.724 46.0516 127.633 45.9113 127.517 45.7933C127.4 45.6753 127.261 45.5821 127.108 45.5192C126.338 45.0419 125.549 44.5784 124.757 44.1577C124.369 43.9812 124.041 43.6959 123.813 43.3365C123.585 42.9772 123.467 42.5592 123.472 42.1336C123.45 41.1657 123.375 40.1966 123.332 39.2324C123.316 39.0301 123.35 38.827 123.432 38.6412C123.514 38.4555 123.64 38.2929 123.8 38.1679C124.553 37.5816 125.317 37.0037 126.068 36.4072C126.604 36.0788 127.005 35.5702 127.2 34.9727L127.114 34.5442ZM97.0175 42.8177C96.9017 41.6127 97.0258 40.3966 97.3826 39.2397C97.7394 38.0829 98.3219 37.0082 99.0963 36.0778C99.8708 35.1473 100.822 34.3795 101.895 33.8187C102.968 33.2579 104.141 32.9152 105.347 32.8104C107.748 32.6556 110.116 33.4308 111.96 34.9752C113.805 36.5195 114.984 38.7146 115.253 41.105C115.47 43.5076 114.732 45.8989 113.199 47.7613C111.666 49.6238 109.461 50.8076 107.062 51.0565C105.858 51.1907 104.641 51.0828 103.48 50.739C102.319 50.3952 101.239 49.8226 100.303 49.0548C99.3665 48.287 98.5936 47.3396 98.0294 46.2684C97.4652 45.1972 97.1212 44.0239 97.0175 42.8177Z" fill="#282929"/>
<path d="M258.827 141.881L255.266 123.283L237.94 130.899L237.838 143.074L237.724 156.677L248.369 149.21L258.827 141.881Z" fill="white"/>
<path d="M237.813 157.188C237.887 157.173 237.958 157.143 238.02 157.099L259.123 142.304C259.204 142.245 259.266 142.165 259.304 142.072C259.342 141.98 259.354 141.879 259.337 141.78L255.776 123.182C255.758 123.106 255.724 123.035 255.676 122.972C255.629 122.909 255.569 122.857 255.501 122.819C255.432 122.784 255.357 122.765 255.28 122.762C255.203 122.759 255.126 122.773 255.055 122.802L237.761 130.423C237.67 130.462 237.592 130.527 237.537 130.609C237.482 130.692 237.453 130.789 237.452 130.889L237.236 156.667C237.232 156.763 237.256 156.858 237.304 156.941C237.353 157.024 237.423 157.092 237.508 157.136C237.604 157.18 237.709 157.198 237.813 157.188V157.188ZM258.266 141.694L238.261 155.768L238.47 131.333L254.893 124.108L258.266 141.694Z" fill="#282929"/>
<path d="M253.641 134.808L246.679 131.151L282.893 62.206L289.855 65.8632L253.641 134.808Z" fill="white"/>
<path d="M253.737 135.328L253.809 135.316C253.875 135.298 253.936 135.266 253.989 135.222C254.041 135.178 254.083 135.124 254.112 135.062L290.328 66.1116C290.359 66.051 290.379 65.9847 290.385 65.9166C290.391 65.8485 290.384 65.7798 290.364 65.7145C290.319 65.5852 290.229 65.4769 290.109 65.4105L283.131 61.7562C283.071 61.7233 283.006 61.7028 282.939 61.6959C282.871 61.689 282.803 61.6959 282.739 61.7162C282.674 61.7364 282.614 61.7696 282.563 61.8137C282.512 61.8577 282.47 61.9118 282.44 61.9726L246.223 130.912C246.158 131.033 246.143 131.175 246.182 131.307C246.221 131.438 246.31 131.549 246.431 131.615L253.41 135.27C253.509 135.326 253.624 135.347 253.737 135.328V135.328ZM289.171 66.0823L253.425 134.094L247.388 130.93L283.122 62.909L289.171 66.0823Z" fill="#282929"/>
<path d="M282.904 62.2073L274.157 61.9582L237.94 130.898L246.689 131.157L282.904 62.2073Z" fill="#282929"/>
<path d="M246.779 131.67C246.858 131.655 246.933 131.622 246.998 131.574C247.063 131.526 247.116 131.464 247.153 131.393L283.37 62.4529C283.409 62.3738 283.428 62.2862 283.425 62.198C283.422 62.1098 283.396 62.0238 283.352 61.9477C283.307 61.8717 283.244 61.8081 283.168 61.7626C283.093 61.7171 283.007 61.6911 282.919 61.6871L274.172 61.438C274.074 61.434 273.977 61.4576 273.892 61.5061C273.807 61.5547 273.738 61.6261 273.692 61.7124L237.477 130.662C237.437 130.741 237.418 130.828 237.42 130.915C237.423 131.003 237.448 131.089 237.493 131.164C237.538 131.239 237.601 131.302 237.677 131.347C237.753 131.391 237.838 131.415 237.926 131.418L246.675 131.677L246.779 131.67ZM282.052 62.7054L246.375 130.631L238.783 130.401L274.42 62.4928L282.052 62.7054Z" fill="#282929"/>
<path d="M295.042 72.93L289.864 65.8754L253.647 134.815L258.825 141.87L295.042 72.93Z" fill="#282929"/>
<path d="M258.876 142.399C258.955 142.382 259.029 142.349 259.093 142.301C259.158 142.253 259.211 142.192 259.25 142.122L295.508 73.1753C295.55 73.0876 295.568 72.9903 295.56 72.8933C295.553 72.7964 295.519 72.7032 295.464 72.6232L290.284 65.5584C290.233 65.486 290.164 65.4288 290.083 65.3927C290.002 65.3567 289.913 65.3432 289.825 65.3537C289.738 65.3599 289.654 65.3883 289.581 65.4362C289.508 65.4842 289.449 65.55 289.409 65.6276L253.192 134.567C253.154 134.657 253.143 134.757 253.16 134.853C253.177 134.949 253.221 135.039 253.287 135.11L258.457 142.177C258.51 142.247 258.58 142.303 258.66 142.338C258.74 142.374 258.828 142.389 258.915 142.382L258.876 142.399ZM294.436 73.0255L258.759 140.952L254.271 134.821L289.97 66.8387L294.436 73.0255Z" fill="#282929"/>
<path d="M248.369 149.209L247.033 145.81L240.727 142.503L237.838 143.073L237.724 156.676L248.369 149.209Z" fill="#73F25F"/>
<path d="M237.814 157.189C237.888 157.173 237.958 157.143 238.02 157.1L248.676 149.631C248.769 149.563 248.837 149.466 248.869 149.355C248.901 149.244 248.896 149.126 248.853 149.019L247.507 145.622C247.464 145.507 247.38 145.412 247.27 145.357L240.975 142.047C240.866 141.997 240.746 141.978 240.627 141.992L237.73 142.575C237.614 142.596 237.51 142.657 237.435 142.747C237.36 142.838 237.32 142.952 237.32 143.069L237.206 156.672C237.202 156.768 237.226 156.863 237.274 156.946C237.322 157.029 237.393 157.097 237.478 157.142C237.583 157.19 237.7 157.206 237.814 157.189V157.189ZM247.745 149.023L238.245 155.676L238.347 143.501L240.654 143.044L246.63 146.219L247.745 149.023Z" fill="#282929"/>
<path d="M43.2831 171.583L116.161 131.937L65.6796 39.1512L7.53489 70.7911L0.987416 93.836L43.2831 171.583Z" fill="#1F1F1F"/>
<path d="M43.3426 172.101L43.5066 172.072L116.383 132.416C116.443 132.384 116.496 132.341 116.539 132.288C116.582 132.235 116.614 132.174 116.633 132.109C116.652 132.043 116.658 131.975 116.65 131.907C116.642 131.84 116.621 131.774 116.587 131.715L66.1159 38.9271C66.047 38.8074 65.9341 38.7192 65.8012 38.6814C65.6683 38.6436 65.5259 38.6591 65.4043 38.7246L7.25778 70.3543C7.19686 70.388 7.14331 70.4335 7.10031 70.4882C7.0573 70.543 7.0257 70.6057 7.00741 70.6729L0.490678 93.7124C0.461338 93.8462 0.485902 93.9861 0.559043 94.1018L42.8649 171.847C42.8963 171.907 42.9398 171.961 42.9929 172.005C43.0459 172.048 43.1073 172.08 43.1733 172.099C43.2293 172.108 43.2864 172.109 43.3426 172.101ZM115.47 131.732L43.4979 170.88L1.55308 93.7477L7.97603 71.1366L65.4865 39.9143L115.47 131.732Z" fill="#282929"/>
<path d="M51.9745 175.306L124.853 135.661L74.371 42.8744L16.2245 74.5041L9.67881 97.5593L51.9745 175.306Z" fill="white"/>
<path d="M52.0595 175.787C52.1154 175.787 52.1709 175.778 52.2234 175.758L125.101 136.113C125.221 136.047 125.309 135.936 125.347 135.804C125.386 135.673 125.371 135.532 125.306 135.412L74.8345 42.6239C74.7639 42.503 74.65 42.4135 74.5159 42.3735C74.4517 42.3564 74.3845 42.3535 74.319 42.365C74.2535 42.3765 74.1914 42.4021 74.1368 42.4401L15.9801 74.0715C15.9188 74.1047 15.8649 74.1501 15.8218 74.2049C15.7788 74.2597 15.7474 74.3227 15.7297 74.3901L9.21295 97.4297C9.19841 97.4941 9.19681 97.5608 9.20824 97.6259C9.21967 97.691 9.24389 97.7531 9.27951 97.8088L51.577 175.566C51.6082 175.625 51.6516 175.678 51.7044 175.719C51.7573 175.761 51.8183 175.791 51.8835 175.807C51.9429 175.813 52.0028 175.806 52.0595 175.787V175.787ZM124.185 135.408L52.2148 174.566L10.27 97.4342L16.6996 74.8007L74.1672 43.5755L124.185 135.408Z" fill="#282929"/>
<path d="M16.2251 74.5045L24.8824 89.2818L9.67941 97.5597L16.2251 74.5045Z" fill="white"/>
<path d="M9.7669 98.0622C9.82284 98.0627 9.87841 98.0529 9.93084 98.0334L25.1339 89.7555C25.1948 89.7241 25.2486 89.6806 25.292 89.6276C25.3354 89.5745 25.3674 89.5131 25.386 89.4472C25.4143 89.3099 25.3892 89.167 25.3158 89.0476L16.6585 74.2703C16.6061 74.1815 16.529 74.1099 16.4366 74.0642C16.3441 74.0185 16.2404 74.0008 16.1381 74.0131C16.0374 74.0288 15.9434 74.0731 15.8672 74.1408C15.7911 74.2085 15.736 74.2967 15.7087 74.3948L9.19192 97.4344C9.16292 97.5335 9.16471 97.639 9.19701 97.7371C9.22932 97.8351 9.29064 97.9211 9.37286 97.9835C9.48881 98.0604 9.63031 98.0886 9.7669 98.0622V98.0622ZM24.1702 89.0797L10.5023 96.4755L16.374 75.7778L24.1702 89.0797Z" fill="#282929"/>
<path d="M24.7165 102.714C24.7724 102.714 24.828 102.704 24.8804 102.685L77.3633 74.1093C77.4826 74.0427 77.571 73.9318 77.6092 73.8006C77.6474 73.6693 77.6325 73.5283 77.5675 73.408C77.5365 73.3468 77.4934 73.2925 77.4408 73.2483C77.3883 73.2042 77.3273 73.1711 77.2617 73.1511C77.196 73.131 77.127 73.1244 77.0587 73.1317C76.9905 73.139 76.9244 73.16 76.8645 73.1935L24.378 101.749C24.246 101.794 24.1375 101.89 24.0763 102.016C24.0152 102.142 24.0065 102.286 24.0521 102.418C24.0977 102.551 24.1938 102.659 24.3195 102.72C24.4451 102.781 24.5898 102.79 24.7219 102.744L24.7165 102.714Z" fill="url(#paint1_linear_2015_9063)"/>
<path d="M30.0813 112.576C30.1372 112.577 30.1928 112.567 30.2452 112.548L82.7316 83.9925C82.8513 83.9257 82.9404 83.8152 82.9804 83.6842C83.0204 83.5531 83.0081 83.4117 82.9462 83.2894C82.9139 83.228 82.8697 83.1737 82.8162 83.1296C82.7626 83.0856 82.7008 83.0526 82.6343 83.0328C82.5679 83.013 82.4981 83.0067 82.4291 83.0142C82.3602 83.0217 82.2934 83.043 82.2328 83.0767L29.7464 111.632C29.6144 111.677 29.5058 111.774 29.4447 111.899C29.3836 112.025 29.3748 112.17 29.4204 112.302C29.466 112.434 29.5622 112.542 29.6878 112.603C29.8135 112.665 29.9582 112.673 30.0903 112.628L30.0813 112.576Z" fill="url(#paint2_linear_2015_9063)"/>
<path d="M35.4469 122.44C35.5029 122.441 35.5584 122.431 35.6108 122.412L88.0937 93.836C88.2219 93.7686 88.3181 93.6531 88.3612 93.5148C88.4042 93.3765 88.3906 93.2268 88.3233 93.0986C88.2559 92.9703 88.1404 92.8741 88.0021 92.831C87.8638 92.7879 87.7141 92.8016 87.5859 92.8689L35.0995 121.424C34.9674 121.47 34.8589 121.566 34.7977 121.691C34.7366 121.817 34.7279 121.962 34.7735 122.094C34.8191 122.226 34.9152 122.334 35.0409 122.396C35.1665 122.457 35.3113 122.465 35.4433 122.42L35.4469 122.44Z" fill="url(#paint3_linear_2015_9063)"/>
<path d="M40.8186 132.345C40.8745 132.345 40.9301 132.335 40.9825 132.316L93.4689 103.761C93.5886 103.694 93.6777 103.583 93.7177 103.452C93.7577 103.321 93.7454 103.18 93.6835 103.058C93.6512 102.996 93.607 102.942 93.5535 102.898C93.4999 102.854 93.4381 102.821 93.3716 102.801C93.3051 102.781 93.2354 102.775 93.1664 102.782C93.0975 102.79 93.0308 102.811 92.9701 102.845L40.4747 131.349C40.3427 131.394 40.2342 131.491 40.173 131.616C40.1119 131.742 40.1032 131.887 40.1488 132.019C40.1944 132.151 40.2905 132.259 40.4162 132.32C40.5418 132.381 40.6865 132.39 40.8186 132.345V132.345Z" fill="url(#paint4_linear_2015_9063)"/>
<path d="M46.1767 142.166C46.2326 142.167 46.2882 142.157 46.3406 142.137L98.827 113.582C98.9553 113.515 99.0515 113.399 99.0946 113.261C99.1376 113.123 99.124 112.973 99.0567 112.845C98.9893 112.717 98.8738 112.62 98.7355 112.577C98.5972 112.534 98.4475 112.548 98.3192 112.615L45.8328 141.17C45.7008 141.216 45.5923 141.312 45.5311 141.438C45.47 141.563 45.4612 141.708 45.5068 141.84C45.5524 141.972 45.6486 142.081 45.7743 142.142C45.8999 142.203 46.0446 142.212 46.1767 142.166V142.166Z" fill="url(#paint5_linear_2015_9063)"/>
<path d="M51.0157 151.286C51.0717 151.288 51.1274 151.278 51.1796 151.258L88.2333 131.116C88.2968 131.083 88.3531 131.037 88.399 130.982C88.4449 130.927 88.4795 130.863 88.5008 130.795C88.5221 130.726 88.5298 130.654 88.5233 130.583C88.5168 130.511 88.4963 130.442 88.4629 130.378C88.4296 130.315 88.3841 130.259 88.3289 130.213C88.2738 130.167 88.2102 130.132 88.1418 130.111C88.0733 130.09 88.0013 130.082 87.9299 130.088C87.8584 130.095 87.789 130.115 87.7255 130.149L50.6736 150.301C50.5539 150.37 50.4657 150.483 50.4279 150.616C50.3901 150.748 50.4056 150.891 50.4711 151.012C50.5203 151.111 50.5998 151.19 50.6979 151.24C50.7961 151.289 50.9075 151.306 51.0157 151.286Z" fill="url(#paint6_linear_2015_9063)"/>
<defs>
<linearGradient id="paint0_linear_2015_9063" x1="205.975" y1="57.0363" x2="136.56" y2="81.1102" gradientUnits="userSpaceOnUse">
<stop stop-color="#FFB11B"/>
<stop offset="1" stop-color="#FF441B"/>
</linearGradient>
<linearGradient id="paint1_linear_2015_9063" x1="70.4759" y1="69.6043" x2="19.3909" y2="105.627" gradientUnits="userSpaceOnUse">
<stop stop-color="#FFB11B"/>
<stop offset="1" stop-color="#FF441B"/>
</linearGradient>
<linearGradient id="paint2_linear_2015_9063" x1="75.8502" y1="79.4861" x2="24.7615" y2="115.514" gradientUnits="userSpaceOnUse">
<stop stop-color="#FFB11B"/>
<stop offset="1" stop-color="#FF441B"/>
</linearGradient>
<linearGradient id="paint3_linear_2015_9063" x1="81.2238" y1="89.273" x2="30.1016" y2="125.309" gradientUnits="userSpaceOnUse">
<stop stop-color="#FFB11B"/>
<stop offset="1" stop-color="#FF441B"/>
</linearGradient>
<linearGradient id="paint4_linear_2015_9063" x1="86.5895" y1="99.2658" x2="35.5597" y2="135.327" gradientUnits="userSpaceOnUse">
<stop stop-color="#FFB11B"/>
<stop offset="1" stop-color="#FF441B"/>
</linearGradient>
<linearGradient id="paint5_linear_2015_9063" x1="91.958" y1="109.024" x2="40.8598" y2="145.074" gradientUnits="userSpaceOnUse">
<stop stop-color="#FFB11B"/>
<stop offset="1" stop-color="#FF441B"/>
</linearGradient>
<linearGradient id="paint6_linear_2015_9063" x1="83.4015" y1="127.507" x2="46.8692" y2="152.968" gradientUnits="userSpaceOnUse">
<stop stop-color="#FFB11B"/>
<stop offset="1" stop-color="#FF441B"/>
</linearGradient>
</defs>
</svg>
